<svg id="OBJECTS" xmlns="http://www.w3.org/2000/svg" width="600" height="484.094" viewBox="0 0 600 484.094">
  <g id="Group_1236" data-name="Group 1236" transform="translate(22.434 24.165)">
    <path id="Path_3392" data-name="Path 3392" d="M242.461,96.6C222.718,15.728,133.763-10.321,82.793,50.108q-1.1,1.305-2.2,2.653C7.506,142.493,42.029,363.6,194.561,419.634s311.19-46.292,320.1-137.779S453.2,161.624,343.985,187.2C282.29,201.653,254.74,146.93,242.449,96.586Z" transform="translate(-3.767 -16.939)" fill="#e9e9e9"/>
    <path id="Path_3393" data-name="Path 3393" d="M308.05,83.221c-23.053,3.752-29.43,24.166-11.641,38.66,5.877,4.793,14.28,8.759,26.249,10.756,45.579,7.561,69.774-12.611,51.5-38.76C362.873,77.743,330.89,79.512,308.05,83.221Z" transform="translate(55.028 10.264)" fill="#e9e9e9"/>
    <path id="Path_3394" data-name="Path 3394" d="M55.933,200.482c-14.323-18.431-35.308-14.266-39.516,8.288-1.384,7.461-.856,16.734,3.124,28.189C34.719,280.6,64.007,292.182,78.23,263.622,87,245.99,70.127,218.757,55.933,200.482Z" transform="translate(-15.726 56.417)" fill="#e9e9e9"/>
    <path id="Path_3395" data-name="Path 3395" d="M428.022,218.075c-2.126,11.113,7.062,18.988,17.447,14.708,3.438-1.412,6.9-4.151,9.986-8.945,11.755-18.274,5.792-33.952-10.557-32.355-10.1,1-14.779,15.578-16.876,26.591Z" transform="translate(99.018 57.47)" fill="#e9e9e9"/>
    <path id="Path_3396" data-name="Path 3396" d="M394.979,137.987c11.07,2.311,19.1-6.733,14.993-17.2-1.355-3.467-4.023-6.976-8.773-10.143-18.075-12.055-33.853-6.377-32.526,10.015.827,10.114,15.321,15.036,26.292,17.333Z" transform="translate(73.8 20.279)" fill="#e9e9e9"/>
    <path id="Path_3397" data-name="Path 3397" d="M203.21,55.7c8.773,7.147,20.058,2.81,21.227-8.374.385-3.695-.371-8.046-3.124-13.039-10.5-19.031-27.119-21.242-33.482-6.077-3.923,9.358,6.676,20.4,15.364,27.49Z" transform="translate(31.815 -16.384)" fill="#e9e9e9"/>
  </g>
  <g id="Group_1240" data-name="Group 1240" transform="translate(0 86.952)">
    <path id="Path_3398" data-name="Path 3398" d="M471.7,261.32c17.59-17.675,30.985-37.662,17.661-40.772s-35.736,31.7-39.645,63.4L445.81,294.4c3.253-23.053-4.651-51.128-16.206-52.284-11.484-1.156-4.536,17.062,4.594,32.64,6.947,11.855,8.773,21.213,9.23,26.035L424.982,350.21c5.036-36.506-7.475-80.815-25.764-82.641-18.232-1.826-7.19,27.076,7.29,51.785,10.942,18.674,13.881,33.439,14.637,41.157l-3.681,9.858c1.612.9,3.224,1.8,4.836,2.682l21.955-58.8a70.907,70.907,0,0,1,19.815-10.072c17.1-5.778,34.281-14.979,24.851-21.641-8.188-5.778-27.433,5.35-40.686,21.042l7.589-20.329c3.424-5.892,8.288-14.309,15.878-21.941Z" transform="translate(105.234 7.045)" fill="#455a64"/>
    <path id="Path_3399" data-name="Path 3399" d="M73.258,98.639c2.283-21.356.5-42-10.129-36.906s-6.9,40.558,7.561,63.939l3.024,9.13C63.472,117.57,43.029,102.976,34.641,108.44c-8.331,5.421,6.149,13.909,20.671,19.444,11.056,4.223,17.333,9.515,20.243,12.511l14.251,43.14C73.515,156.3,41.232,133.291,27.95,141.922c-13.224,8.6,9.758,22.055,32.811,30.843,17.418,6.648,27.347,14.979,32.012,19.744l2.839,8.6c1.569-.257,3.138-.528,4.693-.8L83.358,149a60.915,60.915,0,0,1,7.875-17.447c8.36-13.1,14.951-28.546,5.022-27.932-8.617.528-15.535,18.374-15.978,36.064l-5.863-17.747c-.87-5.806-2.14-14.08-1.156-23.3Z" transform="translate(10.268 -60.952)" fill="#2f3e45"/>
    <g id="Group_1237" data-name="Group 1237" transform="translate(457.061 167.121)">
      <path id="Path_3400" data-name="Path 3400" d="M364.306,338.076c.228,1.213.485,2.525.785,3.937h0c3.167,14.722,10.942,38.831,28.432,43.568,0,0-9.515-49.645,24.423-62.584s30.186-25.25,28.246-47.163-9.444-26.092,14.109-46.62S479.345,178.1,479.345,178.1s-22.283,34.908-46.093,35.721-27.975,21.128-26.962,36.235-19.2,16.819-30.144,25.578-13,54.795-13,54.795.3,3.01,1.141,7.632Z" transform="translate(-363.15 -178.1)" fill="#2f3e45"/>
      <path id="Path_3401" data-name="Path 3401" d="M363.96,324.718c.228,1.213.485,2.525.785,3.937a75.365,75.365,0,0,1,9.087-18.36c7.618-11.284,18.332-20.543,27.975-24.18,15.35-5.792,22.854-20.842,24.309-48.832.842-16.249,17.832-25.835,18-25.935a1.028,1.028,0,0,0-1-1.8c-.742.414-18.175,10.229-19.073,27.633-1.4,27.048-8.488,41.556-22.968,47.006-10.172,3.837-21,13.167-28.959,24.951A78.092,78.092,0,0,0,363.96,324.718Z" transform="translate(-362.804 -164.741)" fill="#fff"/>
    </g>
    <g id="Group_1238" data-name="Group 1238" transform="translate(0 237.751)">
      <path id="Path_3402" data-name="Path 3402" d="M143.556,364.19h23.852c-12.882-2.126-44.837-15.849-47.676-43.354-3.609-34.837-16.006-34.395-36.92-38.047S56.15,285.1,42.883,258.053,0,227.61,0,227.61s26.991,29.445,21.827,51.827,12.725,31.313,27.062,34.124S59.788,335.63,65.223,348c2.482,5.649,12.654,11.5,22.982,16.192h55.351Z" transform="translate(0 -227.61)" fill="#2f3e45"/>
      <path id="Path_3403" data-name="Path 3403" d="M82.1,316.954c1.041,10.428,7.047,22.839,16.049,33.182.314.371.642.728.984,1.1h2.71c-.77-.813-1.512-1.626-2.2-2.411-8.617-9.9-14.58-22.183-15.578-32.084-1.569-15.749-13.738-26.477-39.445-34.78-14.922-4.822-19.644-23.039-19.687-23.225a.991.991,0,1,0-1.926.471c.2.8,5.007,19.473,21,24.637,24.851,8.032,36.606,18.246,38.09,33.1Z" transform="translate(9.803 -214.655)" fill="#fff"/>
    </g>
    <g id="Group_1239" data-name="Group 1239" transform="translate(14.935 63.794)">
      <path id="Path_3404" data-name="Path 3404" d="M151.958,351.555c-.5,1.7-1.084,3.538-1.726,5.492h0c-6.776,20.528-20.685,55.08-46.378,59.16,0,0,20.329-70.744-26.092-94.4S38.588,281.153,44.723,250.2s17.476-35.779-12.953-68.69S12.453,105.67,12.453,105.67s26.42,53.24,60.259,58.047,36.649,34.438,32.883,55.85,24.808,26.948,39.06,41.128,10.114,80.159,10.114,80.159-.9,4.251-2.81,10.7Z" transform="translate(-10.469 -105.67)" fill="#455a64"/>
      <path id="Path_3405" data-name="Path 3405" d="M138.824,330.874c-.5,1.7-1.084,3.538-1.726,5.492a107.5,107.5,0,0,0-10.143-27.576c-9.13-17.262-23-32.126-36.192-38.8-21.013-10.614-29.387-33.253-27.162-73.4,1.3-23.3-21.47-39.6-21.712-39.759a1.474,1.474,0,1,1,1.7-2.411c1,.7,24.352,17.39,22.954,42.341-2.154,38.8,5.721,60.587,25.536,70.6,13.923,7.033,27.932,22,37.476,40.044a112.042,112.042,0,0,1,9.244,23.467Z" transform="translate(2.666 -84.99)" fill="#fff"/>
    </g>
  </g>
  <g id="Group_1251" data-name="Group 1251" transform="translate(56.555 66.381)">
    <g id="Group_1241" data-name="Group 1241" transform="translate(117.915 332.804)">
      <path id="Path_3406" data-name="Path 3406" d="M122.671,325.285c.086,5.378.171,10.97.3,16.634h51.87c.1-6.191.171-12.14.228-17.7.157-15.093.171-27.519.157-35.251,0-5.478-.029-8.588-.029-8.588l-52.9-.556s0,4.565.043,12.04c.029,8.3.128,20.2.328,33.41Z" transform="translate(-122.3 -279.82)" fill="#455a64"/>
      <path id="Path_3407" data-name="Path 3407" d="M122.33,289.14c.029,8.3.128,20.2.328,33.41a260.119,260.119,0,0,0,52.4-1.07c.157-15.093.171-27.519.157-35.251l-52.883,2.9Z" transform="translate(-122.287 -277.086)" fill="rgba(38,50,56,0.41)"/>
    </g>
    <g id="Group_1242" data-name="Group 1242" transform="translate(52.846 332.818)">
      <path id="Path_3408" data-name="Path 3408" d="M76.762,313.355c.057,8.46.157,18.146.328,28.56h51.87c.128-6.106.228-12.126.314-17.889.185-12.354.271-23.5.314-31.485.043-7.875.043-12.711.043-12.711l-52.912.556s-.043,5.606-.029,15.05c0,4.993.029,11.042.071,17.918Z" transform="translate(-76.688 -279.83)" fill="#455a64"/>
      <path id="Path_3409" data-name="Path 3409" d="M76.69,291.636c0,4.993.029,11.042.071,17.918a324.013,324.013,0,0,0,52.512,10.671c.185-12.354.271-23.5.314-31.485Z" transform="translate(-76.687 -276.029)" fill="rgba(38,50,56,0.41)"/>
    </g>
    <g id="Group_1245" data-name="Group 1245" transform="translate(73.313)">
      <path id="Path_3410" data-name="Path 3410" d="M157.488,101.053s8.331-8.032,8.3-15.949-5.421-5.592-8.3-12.968S146,60.239,141.3,61.152s-14.665-17.476-28.161-14.237S100.81,67.457,95,69.982s-4.194,12.8-1.127,15.136,4.365,11.755,6.077,11.541,57.534,4.408,57.534,4.408Z" transform="translate(-91.003 -46.531)" fill="#263238"/>
      <g id="Group_1243" data-name="Group 1243" transform="translate(0 50.837)">
        <path id="Path_3411" data-name="Path 3411" d="M101.428,85.667s-5.236-6.99-9.13-1.213,1.612,22.839,11.156,18.674l-2.011-17.461Z" transform="translate(-91.035 -82.167)" fill="#f97853"/>
        <path id="Path_3412" data-name="Path 3412" d="M100.747,96.035a.792.792,0,0,1-.77-.585c-1.484-5.264-6.933-7.4-6.99-7.432a.808.808,0,0,1,.571-1.512c.257.1,6.277,2.425,7.975,8.5a.819.819,0,0,1-.556,1,1.1,1.1,0,0,1-.214.029Z" transform="translate(-90.425 -80.338)" fill="#ea5143"/>
        <path id="Path_3413" data-name="Path 3413" d="M94.653,92.432a.874.874,0,0,1-.442-.128.807.807,0,0,1-.243-1.113,7.442,7.442,0,0,1,3.024-2.439.814.814,0,0,1,.67,1.484,5.777,5.777,0,0,0-2.325,1.84.806.806,0,0,1-.685.371Z" transform="translate(-89.838 -79.388)" fill="#ea5143"/>
      </g>
      <g id="Group_1244" data-name="Group 1244" transform="translate(62.363 50.837)">
        <path id="Path_3414" data-name="Path 3414" d="M136.776,85.667s5.236-6.99,9.13-1.213-1.612,22.839-11.156,18.674l2.011-17.461Z" transform="translate(-134.75 -82.167)" fill="#f97853"/>
        <path id="Path_3415" data-name="Path 3415" d="M136.463,96.035a.792.792,0,0,0,.77-.585c1.484-5.264,6.933-7.4,6.99-7.432a.808.808,0,1,0-.571-1.512c-.257.1-6.277,2.425-7.975,8.5a.819.819,0,0,0,.556,1,1.1,1.1,0,0,0,.214.029Z" transform="translate(-134.366 -80.338)" fill="#ea5143"/>
        <path id="Path_3416" data-name="Path 3416" d="M141.121,92.432a.874.874,0,0,0,.442-.128.807.807,0,0,0,.243-1.113,7.442,7.442,0,0,0-3.024-2.439.811.811,0,0,0-.656,1.484,5.777,5.777,0,0,1,2.325,1.84.805.805,0,0,0,.685.371Z" transform="translate(-133.517 -79.388)" fill="#ea5143"/>
      </g>
      <path id="Path_3417" data-name="Path 3417" d="M133.712,107.01v16.976s-5.064,8.645-11.912,9.23-12.911-7.447-12.911-7.447V108.208l24.822-1.2Z" transform="translate(-83.419 -20.733)" fill="#ffa681"/>
      <path id="Path_3418" data-name="Path 3418" d="M133.712,107.01v7.532c-4.594,5.093-12.754,6.363-24.822,4.594V108.208l24.822-1.2Z" transform="translate(-83.419 -20.733)" fill="#f97853"/>
      <path id="Path_3419" data-name="Path 3419" d="M157.048,82.834a165.761,165.761,0,0,1-2.2,21.441c-.314,1.641-.671,3.2-1.07,4.579-3.566,12.511-12.511,33.952-37.519,25.022-11.042-3.937-16.163-16.249-18.446-28.76a120.393,120.393,0,0,1-1.669-23.225,17.718,17.718,0,0,1,8.987-15.079c14.765-8.374,30.343-5.25,40.6-1.312a17.684,17.684,0,0,1,11.313,17.333Z" transform="translate(-88.865 -40.139)" fill="#ffa681"/>
      <path id="Path_3420" data-name="Path 3420" d="M97.324,92.4s2.425,14.465,4.722,19.73,8.559,6.263,10.913,10.714c3.352,6.348,8.46,11.384,16.876,8.317,6.99-2.554,6.676-6.134,10.6-8.9,6.719-4.736,10.043-9.958,10.314-14.28s3.609-16.42,3.609-16.42L150.75,91.3a94.255,94.255,0,0,1-5.079,8.945c-3.039-6.662-17.647-1.812-17.647-1.812l-2.8.9-2.867-.9s-14.779-4.636-17.7,2.34a26.663,26.663,0,0,1-3.909-9.073l-3.438.685Zm27.918,9.187c16.762-2.882,13.766,6.933,13.652,7.29h0a16.7,16.7,0,0,1-3.438,2.625c-6.491,3.509-7.19,2.982-9.758,3.1a19.141,19.141,0,0,1-9.843-2.682,27.733,27.733,0,0,1-4.693-3.566s-2.639-9,14.095-6.748Z" transform="translate(-88.358 -27.434)" fill="#263238"/>
      <path id="Path_3421" data-name="Path 3421" d="M111.066,87.151c0,1.812-.927,3.281-2.083,3.281s-2.083-1.469-2.083-3.281.927-3.281,2.083-3.281S111.066,85.339,111.066,87.151Z" transform="translate(-84.267 -30.604)" fill="#263238"/>
      <path id="Path_3422" data-name="Path 3422" d="M128.446,87.151c0,1.812-.927,3.281-2.083,3.281s-2.083-1.469-2.083-3.281.927-3.281,2.083-3.281S128.446,85.339,128.446,87.151Z" transform="translate(-76.854 -30.604)" fill="#263238"/>
      <path id="Path_3423" data-name="Path 3423" d="M136.05,79.105s-8.617-3.41-15.25-.542l.671,3.695s9.744-.827,14.651,1.17a6.428,6.428,0,0,0-.057-4.323Z" transform="translate(-78.338 -33.357)" fill="#263238"/>
      <path id="Path_3424" data-name="Path 3424" d="M102.892,79.117s8.688-3.424,15.364-.542l-.671,3.723s-9.815-.827-14.751,1.17A6.425,6.425,0,0,1,102.892,79.117Z" transform="translate(-86.151 -33.355)" fill="#263238"/>
      <path id="Path_3425" data-name="Path 3425" d="M118.34,100.533a8.715,8.715,0,0,0,2.924-.613.809.809,0,0,0-.613-1.5c-.728.3-2.482.756-3.238.3a.891.891,0,0,1-.4-.756c-.285-2.81.485-12.254.485-12.354a.809.809,0,0,0-1.612-.128c-.029.4-.785,9.686-.485,12.639a2.47,2.47,0,0,0,1.17,1.969,3.36,3.36,0,0,0,1.755.414Z" transform="translate(-80.671 -30.234)" fill="#f97853"/>
      <path id="Path_3426" data-name="Path 3426" d="M110.24,99.64c.613,3.081,2.639,8.745,9.5,8.745s8.8-5.178,9.458-8.745Z" transform="translate(-82.843 -23.877)" fill="#fff"/>
      <path id="Path_3427" data-name="Path 3427" d="M157.052,82.834a165.759,165.759,0,0,1-2.2,21.441l-3.609-.257s.87-5.564,1.27-9.2S153.6,84.4,150.5,83.562s-1.27-8.574-5.578-11.926-13.838-6.32-20.186-2.425-13.538,1.74-16.463,2.425-6.89,4.693-5.82,8.46-2.14,6.049-2.924,9.943,1.712,14.38,1.712,14.38l-3.438.7a120.4,120.4,0,0,1-1.669-23.225,17.718,17.718,0,0,1,8.987-15.079c14.765-8.374,30.343-5.25,40.6-1.312a17.684,17.684,0,0,1,11.313,17.333Z" transform="translate(-88.869 -40.139)" fill="#263238"/>
    </g>
    <g id="Group_1249" data-name="Group 1249" transform="translate(41.865 103.439)">
      <path id="Path_3428" data-name="Path 3428" d="M208.894,374.483a285.856,285.856,0,0,1-48.946,8.032c-.742.057-1.469.114-2.211.157-2.24.157-4.494.271-6.733.371a276.19,276.19,0,0,1-33.311-.571q-3.36-.257-6.719-.6c-.713-.071-1.427-.143-2.154-.228a292.125,292.125,0,0,1-39.787-7.176c-.128-12.226.014-50.872.77-92.784.086-5.036.185-10.114.3-15.207,1.17-55.237,3.438-111.316,7.532-116.922,3.909-5.378,15.707-12.211,26.977-18.374.67-.371,1.341-.728,2.011-1.1,2.539-1.384,5.007-2.71,7.347-3.98,4.993-2.725,9.3-5.136,11.969-7v1.541s6.063,8.032,12.911,7.432c6.234-.542,10.985-7.732,11.784-9.03a157.847,157.847,0,0,0,14.351,8.16c1.7.9,3.467,1.826,5.264,2.782.656.342,1.327.7,2,1.056,12.468,6.605,25.907,14.066,29.944,19.6a6.938,6.938,0,0,1,.856,2.04c2.382,8.089,3.866,34.908,4.765,67.391v.357c.043,1.312.071,2.639.1,3.966,0,.171,0,.342.014.528.3,11.4.514,23.4.685,35.436l.043,2.867c0,.485,0,.956.014,1.441.043,2.368.071,4.75.086,7.1.029,1.74.043,3.481.057,5.221.457,43.568.271,84.653.086,97.464Z" transform="translate(-68.991 -119.04)" fill="#dc2626"/>
      <path id="Path_3429" data-name="Path 3429" d="M171.953,201.685c-3.923-6.405-8.146-12.953-12.112-18.745,0-.014-.029-.029-.029-.043-1.669-2.425-3.3-4.722-4.836-6.819-.029-.043-.057-.071-.086-.114-.485-.656-.956-1.3-1.427-1.926a1.537,1.537,0,0,1-.171-.342h0a1.079,1.079,0,0,1,1.9-.956c4.765,6.32,10.87,15.393,16.634,24.623v.357c.043,1.312.071,2.639.1,3.966Z" transform="translate(-33.049 -96.318)" fill="#c72032"/>
      <path id="Path_3430" data-name="Path 3430" d="M163.6,140.58S188.2,185.646,203.2,208.5c0,0,8.531-7.832,19.615-18.317,12.026-11.37,28.474-30.358,28.474-30.358l9.1,10.8s-36.948,66.507-53.525,74.852-47.12-50.8-47.12-50.8l3.852-54.1Z" transform="translate(-30.275 -109.852)" fill="#c72032"/>
      <path id="Path_3431" data-name="Path 3431" d="M95.25,280.508h-.043a1.115,1.115,0,0,1-1.07-1.156c1.284-36.392-17.59-48.19-17.775-48.3a1.113,1.113,0,0,1,1.141-1.912c.214.128,5.193,3.153,10.029,10.928,4.408,7.09,9.53,19.672,8.831,39.374A1.106,1.106,0,0,1,95.25,280.508Z" transform="translate(-66.077 -72.142)" fill="#c72032"/>
      <path id="Path_3432" data-name="Path 3432" d="M146.239,259.515a1.128,1.128,0,0,1-1.113-1.027c-.6-7.661,1.926-13.253,5.121-20.329.942-2.069,1.9-4.208,2.9-6.619,6.206-15.05,3.081-32.255,3.053-32.426a1.111,1.111,0,0,1,2.183-.414c.143.728,3.267,18.032-3.181,33.681-1,2.439-1.983,4.594-2.924,6.676-3.181,7.047-5.492,12.154-4.936,19.245a1.126,1.126,0,0,1-1.027,1.2h-.086Z" transform="translate(-36.551 -85.444)" fill="#c72032"/>
      <g id="Group_1247" data-name="Group 1247" transform="translate(44.965 0.014)">
        <path id="Path_3433" data-name="Path 3433" d="M100.51,126.1c.471,3.581,1.17,8.231,1.94,13.51.228,1.569.471,3.2.7,4.865.77,5.45,1.569,11.384,2.254,17.39q.278,2.418.514,4.836c.6,5.935,1.056,11.841,1.213,17.333.057,1.655.071,3.281.071,4.85a74.927,74.927,0,0,1-.756,11.327c-.328,2.083-.613,4.109-.87,6.106-.214,1.655-.4,3.267-.571,4.865-.642,6.191-.97,11.955-1.07,17.39-.029,1.655-.029,3.267-.014,4.85.043,6.163.4,11.912.913,17.39.157,1.641.314,3.253.485,4.836.67,5.977,1.469,11.669,2.24,17.29.228,1.612.442,3.21.642,4.822.328,2.568.642,5.15.913,7.732.285,2.739.471,5.963.556,9.515.043,1.555.071,3.181.071,4.865.029,5.321-.114,11.227-.357,17.39-.071,1.612-.128,3.238-.214,4.893-.271,5.735-.642,11.627-1.041,17.433-.114,1.641-.243,3.267-.357,4.893-.442,6.049-.942,11.955-1.455,17.433-.157,1.669-.3,3.3-.456,4.865-.585,6.034-1.141,11.4-1.626,15.692a276.415,276.415,0,0,0,33.325.556c.257-4.551.97-11.912,1.669-20.557q.193-2.375.385-4.879c.414-5.507.8-11.384,1.041-17.319.071-1.626.128-3.253.171-4.893.171-5.92.171-11.812-.086-17.333-.071-1.669-.171-3.31-.3-4.907-.128-1.626-.285-3.224-.471-4.75a95.6,95.6,0,0,1-.713-12.611q0-2.439.128-4.879c.257-5.649.87-11.3,1.583-17.3.185-1.6.385-3.21.585-4.865.642-5.335,1.312-11,1.84-17.2q.214-2.375.385-4.879c.371-5.321.613-11.027.656-17.262,0-1.612,0-3.238-.014-4.922-.057-5.392-.285-11.156-.728-17.361-.043-.556-.071-1.113-.114-1.669-.086-1.084-.157-2.183-.2-3.281a163.09,163.09,0,0,1,.114-17.3c.086-1.626.2-3.267.314-4.893.442-5.82,1.1-11.584,1.855-17.1.228-1.641.457-3.267.685-4.865.913-6.049,1.883-11.755,2.782-16.848.3-1.669.585-3.281.856-4.822.613-3.438,1.141-6.505,1.526-9.1a161.957,161.957,0,0,1-14.351-8.16c-.8,1.3-5.549,8.488-11.784,9.03-6.833.6-12.911-7.432-12.911-7.432v-1.541c-2.653,1.869-6.962,4.28-11.955,7Z" transform="translate(-100.51 -119.05)" fill="#fff"/>
        <g id="Group_1246" data-name="Group 1246" transform="translate(1.926 16.229)">
          <path id="Path_3434" data-name="Path 3434" d="M101.86,134.768c.228,1.569.471,3.2.7,4.865,6.134.143,13.338-.785,22.026-2.782a58.724,58.724,0,0,1,23.966-.571c.3-1.669.585-3.281.856-4.822a63.3,63.3,0,0,0-25.907.656c-8.574,1.969-15.707,2.882-21.627,2.653Z" transform="translate(-101.86 -130.426)" fill="#e3e3e3"/>
          <path id="Path_3435" data-name="Path 3435" d="M103.934,150.375q.278,2.418.514,4.836a97.931,97.931,0,0,0,19.245-2.782,58.7,58.7,0,0,1,20.486-1.084c.228-1.641.457-3.267.685-4.865a64.036,64.036,0,0,0-22.269,1.213,93.943,93.943,0,0,1-18.674,2.682Z" transform="translate(-100.981 -123.778)" fill="#e3e3e3"/>
          <path id="Path_3436" data-name="Path 3436" d="M105.15,165.882c.057,1.655.071,3.281.071,4.85a102.647,102.647,0,0,0,17.961-2.725,58.573,58.573,0,0,1,18.3-1.312c.086-1.626.2-3.267.314-4.893a64.572,64.572,0,0,0-19.715,1.469,97.881,97.881,0,0,1-16.933,2.611Z" transform="translate(-100.457 -117.13)" fill="#e3e3e3"/>
          <path id="Path_3437" data-name="Path 3437" d="M103.67,186.4a96.666,96.666,0,0,0,20.158-2.8,58.625,58.625,0,0,1,18.517-1.3c-.043-.556-.071-1.113-.114-1.669-.086-1.084-.157-2.183-.2-3.281a64.086,64.086,0,0,0-19.287,1.512,93.872,93.872,0,0,1-18.488,2.668c-.214,1.655-.4,3.267-.571,4.865Z" transform="translate(-101.088 -110.483)" fill="#e3e3e3"/>
          <path id="Path_3438" data-name="Path 3438" d="M102.913,201.977a92.376,92.376,0,0,0,21.227-2.8,58.745,58.745,0,0,1,19.259-1.241c0-1.612,0-3.238-.014-4.922a64.13,64.13,0,0,0-20.329,1.427,88.669,88.669,0,0,1-20.129,2.682C102.9,198.781,102.9,200.393,102.913,201.977Z" transform="translate(-101.415 -103.837)" fill="#e3e3e3"/>
          <path id="Path_3439" data-name="Path 3439" d="M103.544,212.717c.157,1.641.314,3.253.485,4.836a95.913,95.913,0,0,0,19.829-2.782,59,59,0,0,1,18.217-1.341q.214-2.375.385-4.879a64.482,64.482,0,0,0-19.7,1.469,91.9,91.9,0,0,1-19.23,2.682Z" transform="translate(-101.148 -97.188)" fill="#e3e3e3"/>
          <path id="Path_3440" data-name="Path 3440" d="M105.464,228.2c.228,1.612.442,3.21.642,4.822a106.846,106.846,0,0,0,16.948-2.668,59.484,59.484,0,0,1,15.792-1.5c.185-1.6.385-3.21.585-4.865a64.281,64.281,0,0,0-17.476,1.626A100.66,100.66,0,0,1,105.45,228.2Z" transform="translate(-100.329 -90.542)" fill="#e3e3e3"/>
          <path id="Path_3441" data-name="Path 3441" d="M106.94,243.634c.043,1.555.071,3.181.071,4.865a108.406,108.406,0,0,0,15.407-2.568,60.38,60.38,0,0,1,14.08-1.541q0-2.439.128-4.879a65.075,65.075,0,0,0-15.293,1.683,111.052,111.052,0,0,1-14.38,2.439Z" transform="translate(-99.693 -83.894)" fill="#e3e3e3"/>
          <path id="Path_3442" data-name="Path 3442" d="M106.59,264.119a107.686,107.686,0,0,0,15.978-2.611,58.871,58.871,0,0,1,15.578-1.484c-.071-1.669-.171-3.31-.3-4.907a64.183,64.183,0,0,0-16.363,1.655,106.529,106.529,0,0,1-14.679,2.454c-.071,1.612-.128,3.238-.214,4.893Z" transform="translate(-99.842 -77.247)" fill="#e3e3e3"/>
          <path id="Path_3443" data-name="Path 3443" d="M105.6,279.8a105.128,105.128,0,0,0,17.39-2.7,58.856,58.856,0,0,1,15.478-1.5c.071-1.626.128-3.253.171-4.893a64.119,64.119,0,0,0-16.748,1.655,101.965,101.965,0,0,1-15.935,2.554c-.114,1.641-.243,3.267-.357,4.893Z" transform="translate(-100.265 -70.599)" fill="#e3e3e3"/>
          <path id="Path_3444" data-name="Path 3444" d="M104.27,295.464a98.307,98.307,0,0,0,19.287-2.782,60.266,60.266,0,0,1,14.066-1.541q.193-2.375.385-4.879a64.877,64.877,0,0,0-15.535,1.669,97.943,97.943,0,0,1-17.747,2.653c-.157,1.669-.3,3.3-.456,4.865Z" transform="translate(-100.832 -63.953)" fill="#e3e3e3"/>
        </g>
      </g>
      <g id="Group_1248" data-name="Group 1248" transform="translate(35.621 10.97)">
        <path id="Path_3445" data-name="Path 3445" d="M131.2,379.391c.742-.043,1.469-.1,2.211-.157,4.38-25.735,1.855-63.525.913-75.095-.97-12.026.9-27.476,5.136-42.4,3.281-11.584,1.27-38.46-.342-60.045-.457-6.063-.884-11.784-1.141-16.491-.827-15.193,4.679-43.325,7.7-57.42-.67-.357-1.341-.713-2-1.056-3.039,13.952-8.745,42.726-7.875,58.6.257,4.722.685,10.457,1.141,16.534,1.612,21.427,3.609,48.076.428,59.288-4.308,15.164-6.206,30.9-5.207,43.168.942,11.6,3.481,49.616-.984,75.081Z" transform="translate(-78.079 -126.73)" fill="#c72032"/>
        <path id="Path_3446" data-name="Path 3446" d="M102.234,274.626c2.568,15.821,1.769,26.106.827,38-.3,3.852-.613,7.818-.842,12.211-.685,13.766-3.01,41.513-4.051,53.5.713.086,1.427.157,2.154.228,1.027-12,3.367-39.8,4.066-53.625.214-4.351.528-8.317.827-12.14.942-12.04,1.769-22.44-.842-38.518-.556-3.452-1.156-6.962-1.74-10.443-2.91-17.247-5.935-35.079-4.508-43.625.342-2.083.785-4.451,1.27-6.962,1.94-10.314,4.351-23.139,3.595-34.281-.756-11.042-5.278-40.928-7.019-52.184-.67.357-1.341.728-2.011,1.1,1.812,11.784,6.134,40.515,6.876,51.243.742,10.856-1.641,23.538-3.552,33.738-.471,2.525-.927,4.893-1.27,7-1.484,8.9,1.427,26.121,4.508,44.352.585,3.481,1.184,6.976,1.74,10.428Z" transform="translate(-93.96 -126.704)" fill="#c72032"/>
      </g>
    </g>
    <g id="Group_1250" data-name="Group 1250" transform="translate(0 135.123)">
      <path id="Path_3447" data-name="Path 3447" d="M82.864,153.355s-22.026,73.44-27.476,99.6-5.877,80.573-5.877,80.573-9.629,19.986-9.858,28.874c-.243,9.487,4.736,17.019,4.166,23.225s6.99,2.839,4.85-9.729,3.923-23.952,6.534-23.581-2.168,13.724.157,18.531,5.321-4.536,8.317-10.214c3.1-5.892,2.924-18.745,1.512-27.918S80.41,267.809,80.5,251.66l21.056-71.172s-6.962-29.716-18.688-27.162Z" transform="translate(-39.644 -136.165)" fill="#ffa681"/>
      <path id="Path_3448" data-name="Path 3448" d="M101.833,183.8c-.742,4.722-3.352,12.825-6.733,23.011h0c-.285.87-.585,1.74-.87,2.639l-.043.128c-.842,2.539-1.726,5.193-2.639,7.932a.052.052,0,0,1-.014.043C87.8,228.9,83.659,241.866,80.192,255.2c-1.2,4.565-2.311,9.173-3.3,13.766-1.27,5.863-2.34,11.712-3.124,17.433-2.81,20.614-8.2,46.735-8.2,46.735-7.9,3.238-20.243-1.041-20.243-1.041s-.314-37.619,1.441-52.227a392.855,392.855,0,0,1,8.388-45.707c9.458-40.643,26.106-80.4,30.671-90.958.357-.842.642-1.5.842-1.954h3.923c7.732,4.907,13.224,29.815,11.2,42.54Z" transform="translate(-37.229 -141.25)" fill="#c72032"/>
      <path id="Path_3449" data-name="Path 3449" d="M44.88,269.76l.613,8.659s11.741,3.809,20.543,1.127l2.325-7.718C59.888,272.271,52.056,272.071,44.88,269.76Z" transform="translate(-37.41 -86.431)" fill="#009cf8"/>
      <path id="Path_3450" data-name="Path 3450" d="M85.653,187.528h0a1.223,1.223,0,0,1-.071.385c-.271.728-.542,1.484-.8,2.254l-.043.128c-.87,2.454-1.74,5.121-2.639,7.932a.052.052,0,0,1-.014.043A429.791,429.791,0,0,0,70.66,243.021c.029-2.368.043-4.736.086-7.1-1.2,4.565-2.311,9.173-3.3,13.766A165.079,165.079,0,0,1,70.8,231.609a425.158,425.158,0,0,1,12.739-44.438,1.085,1.085,0,0,1,1.384-.642,1.067,1.067,0,0,1,.713,1Z" transform="translate(-27.783 -121.962)" fill="#c72032"/>
    </g>
  </g>
  <g id="Group_1261" data-name="Group 1261" transform="translate(285.872 64.895)">
    <g id="Group_1252" data-name="Group 1252" transform="translate(159.263 356.116)">
      <path id="Path_3451" data-name="Path 3451" d="M357.015,335.392h52.013c-.171-3.609-.342-7.062-.514-10.328-.913-17.818-1.683-29.944-1.683-29.944L364.519,297l-3.509.157-6.22.285s.6,10.842,1.541,26.734c.214,3.509.428,7.276.671,11.227Z" transform="translate(-354.79 -295.12)" fill="#455a64"/>
      <path id="Path_3452" data-name="Path 3452" d="M361.02,297.16l-6.22.285s.6,10.842,1.541,26.734a376.174,376.174,0,0,0,52.184.884c-.913-17.818-1.683-29.944-1.683-29.944L364.529,297l-3.509.157Z" transform="translate(-354.786 -295.12)" fill="rgba(38,50,56,0.41)"/>
      <path id="Path_3453" data-name="Path 3453" d="M364.823,334.829c-.956-16.491-1.726-30.571-2.154-38.389l-3.509.157c.428,7.789,1.2,21.8,2.154,38.232h3.509Z" transform="translate(-352.926 -294.557)" fill="rgba(38,50,56,0.41)"/>
    </g>
    <g id="Group_1253" data-name="Group 1253" transform="translate(94.211 356.116)">
      <path id="Path_3454" data-name="Path 3454" d="M361.2,335.392c.271-4.465.514-8.7.742-12.611.9-15.136,1.455-25.35,1.455-25.35l-6.748-.3-3.5-.157-41.784-1.855s-.456,7.233-1.084,18.717c-.328,6.12-.713,13.467-1.1,21.556h52.027Z" transform="translate(-309.19 -295.12)" fill="#455a64"/>
      <path id="Path_3455" data-name="Path 3455" d="M309.95,313.837a459.445,459.445,0,0,0,51.671,8.945c.9-15.136,1.455-25.35,1.455-25.35l-6.748-.3-3.5-.157-41.784-1.855s-.457,7.233-1.084,18.717Z" transform="translate(-308.866 -295.12)" fill="rgba(38,50,56,0.41)"/>
      <path id="Path_3456" data-name="Path 3456" d="M342,334.838c.942-16.448,1.726-30.472,2.154-38.261l-3.5-.157c-.428,7.818-1.213,21.912-2.154,38.418h3.509Z" transform="translate(-296.687 -294.565)" fill="rgba(38,50,56,0.41)"/>
    </g>
    <g id="Group_1254" data-name="Group 1254" transform="translate(88.851 105.823)">
      <path id="Path_3457" data-name="Path 3457" d="M435.447,378.08a249.707,249.707,0,0,1-31.784,6.591c-3.681.514-7.361.956-11.056,1.284q-7.447.685-14.893.927a232.566,232.566,0,0,1-24.623-.542,249.012,249.012,0,0,1-47.619-8.274c-.143-14.808.071-67.891,1.184-119.091.057-2.3.1-4.594.157-6.876,0-.485.029-.97.029-1.455,0-.528.029-1.056.043-1.584.043-1.626.086-3.238.114-4.85.086-3.3.171-6.548.257-9.786.057-1.926.114-3.852.171-5.749,0-.4.029-.785.043-1.184.043-1.255.086-2.5.114-3.738h0l.043-1.156c.043-1.141.071-2.283.114-3.41.043-.956.071-1.912.1-2.853,1.227-34.537,3.024-61.785,5.606-65.622,4.365-6.505,19.23-15.15,31.185-22.2,4.265-2.5,9.344-5.107,12.254-7.033,4.251,3.424,7.333,6.505,13.624,6.291,7.047-.243,8.773-4.479,11.47-8.1,1.641,1.07,5.806,4.479,7.975,5.749,1.855,1.1,3.852,2.254,5.949,3.452,3.238,1.855,6.676,3.823,10.086,5.82,5.05,2.967,10.029,6.034,14.166,8.973s7.4,5.735,9.016,8.16c2.34,3.509,3.852,26.235,4.822,56.136.043,1.041.071,2.111.114,3.181v.385c.043,1.084.071,2.2.1,3.31.1,3.367.185,6.8.285,10.3.014.742.043,1.484.043,2.225q.021.835.043,1.669c.029,1.441.071,2.882.1,4.337,0,.285,0,.585.014.87.086,3.837.157,7.732.228,11.655.029,1.141.043,2.3.057,3.452.884,53.825.685,112.828.485,128.734Z" transform="translate(-305.432 -119.67)" fill="#dc2626"/>
      <path id="Path_3458" data-name="Path 3458" d="M434.538,220.091,417.761,237.11l-15.635-15.849L386.491,237.11,370.8,221.19,355.106,237.11l-15.792-16.02-15.792,16.02-17.062-17.3c.043-1.626.086-3.238.114-4.85.086-3.3.171-6.548.257-9.786l16.677-16.919L339.3,204.27l15.792-16.02,15.692,15.921,15.692-15.921L402.112,204.1l15.635-15.849,16.505,16.719c.086,3.838.157,7.732.228,11.655.028,1.141.043,2.3.057,3.452Z" transform="translate(-304.994 -90.415)" fill="#c72032"/>
      <path id="Path_3459" data-name="Path 3459" d="M398.414,283.842h0c-22.469-.1-41.642-10.328-53.782-18.888a123.165,123.165,0,0,1-21.156-18.731,1.083,1.083,0,1,1,1.655-1.4,121.492,121.492,0,0,0,20.785,18.389c11.869,8.36,30.614,18.36,52.5,18.446a1.077,1.077,0,1,1-.014,2.154Z" transform="translate(-297.844 -66.446)" fill="#c72032"/>
      <path id="Path_3460" data-name="Path 3460" d="M377.234,269.026c-19.13-3.766-36.064-18.417-36.834-19.088a1.083,1.083,0,0,1-.1-1.526,1.07,1.07,0,0,1,1.526-.1c.2.171,20.129,17.4,40.429,19.259a1.081,1.081,0,0,1-.185,2.154,45.108,45.108,0,0,1-4.822-.7Z" transform="translate(-290.673 -64.911)" fill="#c72032"/>
      <path id="Path_3461" data-name="Path 3461" d="M339.572,153.911a1.069,1.069,0,0,1-1.056-.884,1.085,1.085,0,0,1,.856-1.27c27.39-5.193,35.65-22.825,35.736-23a1.079,1.079,0,0,1,1.969.884c-.342.77-8.816,18.831-37.291,24.238-.071,0-.143.014-.2.014Z" transform="translate(-291.328 -116.064)" fill="#c72032"/>
      <path id="Path_3462" data-name="Path 3462" d="M319.642,179.84h0a1.551,1.551,0,0,1-.143.357c-.414.656-.842,1.341-1.27,2.026-.029.043-.043.071-.071.114-1.37,2.211-2.8,4.636-4.265,7.19,0,.014,0,.029-.029.043-2.3,4.023-4.679,8.388-7,12.811.043-1.255.086-2.5.114-3.738h0q.021-.578.043-1.156c3.752-6.976,7.5-13.5,10.642-18.446a1.071,1.071,0,0,1,1.5-.328,1.118,1.118,0,0,1,.485,1.141Z" transform="translate(-304.824 -94.559)" fill="#c72032"/>
    </g>
    <g id="Group_1255" data-name="Group 1255" transform="translate(186.056)">
      <path id="Path_3463" data-name="Path 3463" d="M417.4,183.8s35.022-11.256,45.394-34.238c3-6.662-21.7-74.253-21.7-74.253l-11.926.571s3.4,23.453,5.464,36.734c1.7,10.913,4.437,23.966,5.35,28.26.2.927.314,1.455.314,1.455-.585.1-1.17.214-1.769.328-16.363,3.324-37.262,13.98-37.262,13.98L417.4,183.8Z" transform="translate(-361.756 -32.77)" fill="#ffa681"/>
      <path id="Path_3464" data-name="Path 3464" d="M437.957,129.2a1.131,1.131,0,0,0,1.569-.243,1.116,1.116,0,0,0-.243-1.569,89.376,89.376,0,0,0-10.428-6.12c.2.927.314,1.455.314,1.455-.585.1-1.17.214-1.769.328a88.069,88.069,0,0,1,10.571,6.149Z" transform="translate(-350.609 -13.164)" fill="#f97853"/>
      <path id="Path_3465" data-name="Path 3465" d="M375.624,132.356s-10.6,24.865,16.377,38.7c18.674,9.587,61.2-15.436,61.2-15.436L438.036,123.44S399.134,139.489,375.624,132.356Z" transform="translate(-373.571 -12.239)" fill="#c72032"/>
      <path id="Path_3466" data-name="Path 3466" d="M431.5,50.041c-1.056.742-.842,5.307-.371,9.615-.143.029-.3.043-.456.071-1.255-5.735-3.752-15.507-5.892-13.638-1.4,1.227.471,9.644,1.755,14.679-.257.086-.528.171-.785.257-1.612-5.977-5.079-17.49-7.375-15.25-1.541,1.5,1.412,11.627,3.053,16.805-.228.086-.457.171-.67.271-1.569-5.022-4.922-14.508-7.219-12.283-2.083,2.026,3.88,16.363,3.88,16.363h0l1.569,5.635s-1.855.8-4.75-2.482-6.362-3.852-3.952.884c2.725,5.364,6.748,9.2,8.517,13s7.347,5.05,7.347,5.05l11.2-.542s2.168-18.916-2.011-27.947h0c-.713-5.364-1.983-11.769-3.809-10.471Z" transform="translate(-358.257 -45.49)" fill="#ffa681"/>
    </g>
    <g id="Group_1259" data-name="Group 1259" transform="translate(114.575 13.681)">
      <path id="Path_3467" data-name="Path 3467" d="M327.824,89.575c0,19.073,11.741,32.212,30.8,32.212s32.355-14.123,32.355-33.2a40.694,40.694,0,0,0-2.511-14.508l-.3-.77c-.2-.5-.414-.984-.642-1.469a23.505,23.505,0,0,0-1.1-2.154c-4.965-8.93-13.866-14.608-25.821-14.608-22.868,0-32.8,15.421-32.8,34.495Z" transform="translate(-321.611 -55.08)" fill="#263238"/>
      <g id="Group_1256" data-name="Group 1256" transform="translate(0 39.175)">
        <path id="Path_3468" data-name="Path 3468" d="M333.972,86.077s-5.293-7.062-9.23-1.227,1.626,23.1,11.27,18.874l-2.04-17.661Z" transform="translate(-323.465 -82.541)" fill="#f97853"/>
        <path id="Path_3469" data-name="Path 3469" d="M333.282,96.555a.822.822,0,0,1-.785-.6c-1.5-5.321-7.019-7.49-7.062-7.5a.817.817,0,0,1,.585-1.526c.257.1,6.334,2.454,8.06,8.588a.8.8,0,0,1-.571,1,1.1,1.1,0,0,1-.214.029Z" transform="translate(-322.847 -80.693)" fill="#ea5143"/>
        <path id="Path_3470" data-name="Path 3470" d="M327.114,92.915a.836.836,0,0,1-.442-.128.809.809,0,0,1-.243-1.127,7.469,7.469,0,0,1,3.053-2.468.811.811,0,0,1,.656,1.484,6.115,6.115,0,0,0-2.354,1.855.806.806,0,0,1-.685.371Z" transform="translate(-322.256 -79.735)" fill="#ea5143"/>
      </g>
      <g id="Group_1257" data-name="Group 1257" transform="translate(63.048 39.175)">
        <path id="Path_3471" data-name="Path 3471" d="M369.7,86.077s5.293-7.062,9.23-1.227-1.626,23.1-11.27,18.874l2.04-17.661Z" transform="translate(-367.66 -82.541)" fill="#f97853"/>
        <path id="Path_3472" data-name="Path 3472" d="M369.387,96.555a.822.822,0,0,0,.785-.6c1.5-5.321,7-7.49,7.062-7.5a.817.817,0,0,0-.585-1.526c-.257.1-6.334,2.454-8.06,8.588a.81.81,0,0,0,.571,1,1.1,1.1,0,0,0,.214.029Z" transform="translate(-367.276 -80.693)" fill="#ea5143"/>
        <path id="Path_3473" data-name="Path 3473" d="M374.09,92.915a.836.836,0,0,0,.442-.128.809.809,0,0,0,.243-1.127,7.47,7.47,0,0,0-3.053-2.468.811.811,0,0,0-.656,1.484,6.115,6.115,0,0,1,2.354,1.855.805.805,0,0,0,.685.371Z" transform="translate(-366.415 -79.735)" fill="#ea5143"/>
      </g>
      <path id="Path_3474" data-name="Path 3474" d="M366.6,107.654V124.8s-5.121,8.731-12.04,9.33-13.053-7.518-13.053-7.518V108.853L366.6,107.64Z" transform="translate(-315.767 -32.659)" fill="#ffa681"/>
      <path id="Path_3475" data-name="Path 3475" d="M366.6,107.65v7.618c-4.636,5.15-12.882,6.434-25.093,4.636V108.863L366.6,107.65Z" transform="translate(-315.767 -32.655)" fill="#f97853"/>
      <path id="Path_3476" data-name="Path 3476" d="M390.19,83.212a166.536,166.536,0,0,1-2.225,21.67c-.314,1.669-.67,3.224-1.07,4.622-3.609,12.639-12.639,34.323-37.918,25.293-11.17-3.98-16.334-16.42-18.645-29.074a121.816,121.816,0,0,1-1.683-23.467,17.923,17.923,0,0,1,9.087-15.236c14.922-8.46,30.671-5.307,41.028-1.327A17.855,17.855,0,0,1,390.19,83.212Z" transform="translate(-321.265 -52.27)" fill="#ffa681"/>
      <path id="Path_3477" data-name="Path 3477" d="M343.623,87.58c0,1.826-.942,3.31-2.111,3.31s-2.111-1.484-2.111-3.31.942-3.31,2.111-3.31S343.623,85.754,343.623,87.58Z" transform="translate(-316.667 -42.628)" fill="#263238"/>
      <path id="Path_3478" data-name="Path 3478" d="M361.043,87.53c0,1.826-.942,3.31-2.111,3.31s-2.111-1.484-2.111-3.31.942-3.31,2.111-3.31S361.043,85.7,361.043,87.53Z" transform="translate(-309.236 -42.65)" fill="#263238"/>
      <path id="Path_3479" data-name="Path 3479" d="M366.639,78.939s-6.648-2.625-11.769-.414l.514,2.853s7.518-.642,11.3.9a4.927,4.927,0,0,0-.043-3.324Z" transform="translate(-310.068 -45.457)" fill="#263238"/>
      <path id="Path_3480" data-name="Path 3480" d="M336.043,78.939s6.648-2.625,11.769-.414l-.514,2.853s-7.518-.642-11.3.9a4.928,4.928,0,0,1,.043-3.324Z" transform="translate(-318.232 -45.457)" fill="#263238"/>
      <path id="Path_3481" data-name="Path 3481" d="M351.061,101.1a8.732,8.732,0,0,0,2.953-.628.809.809,0,1,0-.613-1.5c-.742.3-2.5.77-3.267.314a.916.916,0,0,1-.4-.756c-.3-2.839.485-12.383.5-12.483a.825.825,0,0,0-.742-.884.816.816,0,0,0-.884.742c-.029.4-.8,9.786-.485,12.782a2.483,2.483,0,0,0,1.184,1.983,3.422,3.422,0,0,0,1.769.428Z" transform="translate(-312.979 -42.25)" fill="#f97853"/>
      <path id="Path_3482" data-name="Path 3482" d="M342.49,99.23c1.355,4.708,5.207,9.387,10.514,9.458,5.293-.071,9.144-4.75,10.5-9.458H342.49Z" transform="translate(-315.349 -36.247)" fill="#fff"/>
      <path id="Path_3483" data-name="Path 3483" d="M350.8,110.223a8.484,8.484,0,0,0,3.966-1.113.81.81,0,0,0-.842-1.384,6.928,6.928,0,0,1-3.124.884,6.743,6.743,0,0,1-2.967-.87.82.82,0,1,0-.856,1.4,8.169,8.169,0,0,0,3.823,1.113Z" transform="translate(-313.603 -32.675)" fill="#f97853"/>
      <path id="Path_3484" data-name="Path 3484" d="M389.327,95.124h-3.695c.414-3.709,1-10.243-2.054-11.17C373.949,81,386.431,74.2,382.08,70.8s-15.15-1.94-22.668-2.183c-7.561-.243-19.73-.143-22.668.542s-1.341,5.592-.257,9.4-3.624,8-4.422,11.94a17.076,17.076,0,0,0,0,4.622h-3.081c-.371-4.793-.414-9.244-.357-12.868a17.923,17.923,0,0,1,9.087-15.236c14.922-8.46,30.671-5.307,41.028-1.327a17.855,17.855,0,0,1,11.427,17.518c-.171,3.652-.442,7.8-.856,11.912Z" transform="translate(-321.272 -52.27)" fill="#263238"/>
      <g id="Group_1258" data-name="Group 1258" transform="translate(5.696 36.092)">
        <path id="Path_3485" data-name="Path 3485" d="M343.38,98.84a9.23,9.23,0,1,1,9.23-9.23A9.236,9.236,0,0,1,343.38,98.84Zm0-17.019a7.789,7.789,0,1,0,7.789,7.789A7.8,7.8,0,0,0,343.38,81.821Z" transform="translate(-324.603 -80.38)" fill="#fff"/>
        <path id="Path_3486" data-name="Path 3486" d="M361.06,98.84a9.23,9.23,0,1,1,9.23-9.23A9.236,9.236,0,0,1,361.06,98.84Zm0-17.019a7.789,7.789,0,1,0,7.789,7.789A7.8,7.8,0,0,0,361.06,81.821Z" transform="translate(-317.061 -80.38)" fill="#fff"/>
        <path id="Path_3487" data-name="Path 3487" d="M338.574,86.189a.669.669,0,0,1-.5-.214h0s-4.237-4.109-9.729-2.825a.725.725,0,0,1-.328-1.412c6.291-1.469,10.885,3.01,11.07,3.21a.706.706,0,0,1,0,1.013.724.724,0,0,1-.514.214Z" transform="translate(-327.458 -79.927)" fill="#fff"/>
        <path id="Path_3488" data-name="Path 3488" d="M364,86.246a.7.7,0,0,1-.6-.328.719.719,0,0,1,.214-1c.271-.185,6.8-4.394,12.354-3.481a.722.722,0,1,1-.228,1.427c-4.993-.827-11.27,3.224-11.341,3.267a.641.641,0,0,1-.385.114Z" transform="translate(-312.174 -79.984)" fill="#fff"/>
        <path id="Path_3489" data-name="Path 3489" d="M354.865,86.53s-1.726-2.34-3.966-2.34-3.766,2.311-3.78,2.325l-1.2-.785c.086-.128,1.983-2.982,4.993-2.982s5.05,2.81,5.136,2.924l-1.17.842Z" transform="translate(-319.582 -79.369)" fill="#fff"/>
      </g>
    </g>
    <g id="Group_1260" data-name="Group 1260" transform="translate(0 136.865)">
      <path id="Path_3490" data-name="Path 3490" d="M343.781,194.313s-9.715,18.817-21.156,33.724a88.5,88.5,0,0,1-10.371,11.584c-5.621,5.079-11.113,7.732-15.578,5.478-16.577-8.36-53.525-74.852-53.525-74.852l9.1-10.8s16.448,18.988,28.474,30.358c11.1,10.485,19.615,18.317,19.615,18.317,1.541-2.34,3.167-4.893,4.879-7.6,1.812-2.882,3.681-5.92,5.592-9.059,13.852-22.74,29.216-50.03,29.216-50.03l3.766,52.883Z" transform="translate(-243.15 -141.43)" fill="#ffa681"/>
      <path id="Path_3491" data-name="Path 3491" d="M304.068,213.077A88.5,88.5,0,0,1,293.7,224.661l-7.047-39.1c1.812-2.882,3.68-5.92,5.592-9.059l11.826,36.563Z" transform="translate(-224.594 -126.47)" fill="#f97853"/>
      <path id="Path_3492" data-name="Path 3492" d="M320.981,141.43,287.77,193.671l11.141,45.95,27.49-44.752S329.74,164.255,320.981,141.43Z" transform="translate(-224.116 -141.43)" fill="#c72032"/>
    </g>
  </g>
  <g id="Group_1270" data-name="Group 1270" transform="translate(230.258 70.637)">
    <g id="Group_1263" data-name="Group 1263" transform="translate(4.373 96.343)">
      <path id="Path_3493" data-name="Path 3493" d="M322.612,356.026c-2.368-13.153-4.708-27.975-6.833-42.369-.471-3.181-.927-6.348-1.369-9.458-1.7-11.926-3.224-23.2-4.451-32.554-.471-3.552-.884-6.833-1.27-9.758-1.184-9.344-1.883-15.136-1.883-15.136l-52.455,1.983-52.612-1.983s-1.355,11.484-3.524,28.118c-.4,3.024-.813,6.22-1.27,9.558-1.17,8.731-2.5,18.374-3.937,28.246-.014.143-.043.285-.071.428-.457,3.081-.9,6.177-1.384,9.273a.4.4,0,0,1-.014.128h0c-1.127,7.49-2.311,14.979-3.509,22.169-.5,2.967-1,5.892-1.5,8.731-.157.884-.314,1.755-.471,2.625H322.6Z" transform="translate(-186.06 -61.723)" fill="#dc2626"/>
      <g id="Group_1262" data-name="Group 1262" transform="translate(0.471 195.826)">
        <path id="Path_3494" data-name="Path 3494" d="M208.48,259.27a4.95,4.95,0,1,1-4.95-4.95A4.953,4.953,0,0,1,208.48,259.27Z" transform="translate(-181.19 -254.32)" fill="#264cbe"/>
        <path id="Path_3495" data-name="Path 3495" d="M217.08,272.7a4.95,4.95,0,1,1-4.95-4.95A4.953,4.953,0,0,1,217.08,272.7Z" transform="translate(-177.521 -248.591)" fill="#264cbe"/>
        <path id="Path_3496" data-name="Path 3496" d="M234,265.77a4.95,4.95,0,1,1-4.95-4.95A4.953,4.953,0,0,1,234,265.77Z" transform="translate(-170.304 -251.547)" fill="#264cbe"/>
        <path id="Path_3497" data-name="Path 3497" d="M207.3,286.96a4.95,4.95,0,1,1-4.95-4.95A4.953,4.953,0,0,1,207.3,286.96Z" transform="translate(-181.693 -242.508)" fill="#264cbe"/>
        <path id="Path_3498" data-name="Path 3498" d="M228.44,285.48a4.95,4.95,0,1,1-4.95-4.95A4.953,4.953,0,0,1,228.44,285.48Z" transform="translate(-172.676 -243.139)" fill="#264cbe"/>
        <path id="Path_3499" data-name="Path 3499" d="M198.169,271.1a4.945,4.945,0,0,1-4.479,4.922c.442-3.338.87-6.534,1.27-9.558A4.933,4.933,0,0,1,198.169,271.1Z" transform="translate(-183.276 -249.141)" fill="#264cbe"/>
        <path id="Path_3500" data-name="Path 3500" d="M262.89,305.84a4.95,4.95,0,1,1-4.95-4.95A4.953,4.953,0,0,1,262.89,305.84Z" transform="translate(-157.98 -234.454)" fill="#c72032"/>
        <path id="Path_3501" data-name="Path 3501" d="M261.26,286.96a4.95,4.95,0,1,1-4.95-4.95A4.953,4.953,0,0,1,261.26,286.96Z" transform="translate(-158.675 -242.508)" fill="#264cbe"/>
        <path id="Path_3502" data-name="Path 3502" d="M279.036,296.487A4.941,4.941,0,1,1,277.1,287a2.5,2.5,0,0,1,.571.043c.457,3.11.913,6.277,1.37,9.458Z" transform="translate(-149.803 -240.38)" fill="#264cbe"/>
        <path id="Path_3503" data-name="Path 3503" d="M264.72,319.67a4.95,4.95,0,1,1-4.95-4.95A4.953,4.953,0,0,1,264.72,319.67Z" transform="translate(-157.199 -228.555)" fill="#c72032"/>
        <path id="Path_3504" data-name="Path 3504" d="M279.54,314.14a4.95,4.95,0,1,1-4.95-4.95A4.953,4.953,0,0,1,279.54,314.14Z" transform="translate(-150.878 -230.914)" fill="#c72032"/>
        <path id="Path_3505" data-name="Path 3505" d="M248.18,323.994a4.941,4.941,0,0,0-8.16,0h8.146Z" transform="translate(-163.513 -225.518)" fill="#264cbe"/>
        <path id="Path_3506" data-name="Path 3506" d="M205.02,308.85a4.95,4.95,0,1,1-4.95-4.95A4.953,4.953,0,0,1,205.02,308.85Z" transform="translate(-182.666 -233.17)" fill="#c72032"/>
        <path id="Path_3507" data-name="Path 3507" d="M194.194,297.768a4.931,4.931,0,0,1-4.294,4.893c0-.043.014-.086.014-.128q.706-4.644,1.384-9.273A4.943,4.943,0,0,1,194.194,297.768Z" transform="translate(-184.893 -237.709)" fill="#264cbe"/>
        <path id="Path_3508" data-name="Path 3508" d="M189.914,319.384a4.943,4.943,0,0,1-3.524,4.736c.5-2.839,1-5.763,1.5-8.731A4.943,4.943,0,0,1,189.914,319.384Z" transform="translate(-186.39 -228.269)" fill="#c72032"/>
        <path id="Path_3509" data-name="Path 3509" d="M213.62,321.13a4.95,4.95,0,1,1-4.95-4.95A4.953,4.953,0,0,1,213.62,321.13Z" transform="translate(-178.997 -227.932)" fill="#c72032"/>
        <path id="Path_3510" data-name="Path 3510" d="M231.91,318.42a4.95,4.95,0,1,1-4.95-4.95A4.953,4.953,0,0,1,231.91,318.42Z" transform="translate(-171.195 -229.088)" fill="#264cbe"/>
        <path id="Path_3511" data-name="Path 3511" d="M218.86,301.38a4.95,4.95,0,1,1-4.95-4.95A4.953,4.953,0,0,1,218.86,301.38Z" transform="translate(-176.762 -236.357)" fill="#c72032"/>
        <path id="Path_3512" data-name="Path 3512" d="M237.47,297.92a4.95,4.95,0,1,1-4.95-4.95A4.953,4.953,0,0,1,237.47,297.92Z" transform="translate(-168.824 -237.833)" fill="#264cbe"/>
        <path id="Path_3513" data-name="Path 3513" d="M245.84,279.63a4.95,4.95,0,1,1-4.95-4.95A4.953,4.953,0,0,1,245.84,279.63Z" transform="translate(-165.253 -245.635)" fill="#264cbe"/>
        <path id="Path_3514" data-name="Path 3514" d="M274.692,267.118a4.352,4.352,0,0,1-1.056.114,4.938,4.938,0,0,1-.2-9.872c.385,2.924.8,6.206,1.27,9.758Z" transform="translate(-151.279 -253.023)" fill="#264cbe"/>
        <path id="Path_3515" data-name="Path 3515" d="M257.79,265.77a4.95,4.95,0,1,1-4.95-4.95A4.953,4.953,0,0,1,257.79,265.77Z" transform="translate(-160.156 -251.547)" fill="#264cbe"/>
        <path id="Path_3516" data-name="Path 3516" d="M270.48,278.12a4.95,4.95,0,1,1-4.95-4.95A4.953,4.953,0,0,1,270.48,278.12Z" transform="translate(-154.742 -246.279)" fill="#264cbe"/>
        <path id="Path_3517" data-name="Path 3517" d="M249.31,308.85a4.95,4.95,0,1,1-4.95-4.95A4.953,4.953,0,0,1,249.31,308.85Z" transform="translate(-163.773 -233.17)" fill="#c72032"/>
      </g>
      <path id="Path_3518" data-name="Path 3518" d="M306.518,303.371c-27.676,18.06-78.476,16.648-110.4,0,3.053-19,7.062-38.018,6.206-63.3q-.15-4.151-.357-8.26c-.128-2.368-.257-4.736-.414-7.062-2.753-42.07-9.929-76.464-6.405-80.9a33.515,33.515,0,0,1,7.276-6.191q1.862-1.263,3.98-2.568c3.31-2.026,6.99-4.051,10.7-6.034,8.773-4.679,17.69-9.03,22.155-12,4.422,1.926,7.96,2.982,11.755,2.967h.642c3.795.014,7.333-1.041,11.755-2.967,4.137,2.753,11.94,6.605,19.9,10.785a170.635,170.635,0,0,1,16.406,9.53,32.638,32.638,0,0,1,7,6.02c1.74,2.2,1.013,11.869-.485,26.178-1.484,14.08-3.695,32.683-5.036,53.111-.371,5.678-.67,11.5-.884,17.39-.856,25.279,3.153,44.309,6.206,63.3Z" transform="translate(-182.591 -117.046)" fill="#dc2626"/>
      <path id="Path_3519" data-name="Path 3519" d="M283.367,244.613h0c-22.283-.1-41.3-10.243-53.34-18.731a122.377,122.377,0,0,1-20.971-18.574,1.073,1.073,0,1,1,1.641-1.384,120.164,120.164,0,0,0,20.614,18.246c11.769,8.3,30.358,18.2,52.056,18.3a1.07,1.07,0,0,1,0,2.14Z" transform="translate(-176.359 -79.302)" fill="#c72032"/>
      <path id="Path_3520" data-name="Path 3520" d="M261.763,230.061C242.79,226.338,226,211.8,225.228,211.131a1.072,1.072,0,1,1,1.412-1.612c.2.171,19.958,17.262,40.1,19.1a1.056,1.056,0,0,1,.97,1.17,1.074,1.074,0,0,1-1.17.97,45.106,45.106,0,0,1-4.793-.7Z" transform="translate(-169.506 -77.717)" fill="#c72032"/>
      <path id="Path_3521" data-name="Path 3521" d="M231.362,162.677a1.072,1.072,0,0,1-.2-2.126c27.162-5.15,35.351-22.626,35.436-22.811a1.07,1.07,0,0,1,1.412-.542,1.052,1.052,0,0,1,.528,1.412c-.342.756-8.731,18.674-36.991,24.038-.071,0-.128.014-.2.014Z" transform="translate(-167.194 -108.495)" fill="#c72032"/>
      <path id="Path_3522" data-name="Path 3522" d="M276.462,127.835c-5.392,12.3-18.645,25.036-35.893,22.055-16.691-2.882-24.608-11.712-30.329-20.842,8.773-4.693,17.69-9.03,22.155-12,4.422,1.926,7.96,2.982,11.755,2.967h.656c3.795.014,7.333-1.041,11.755-2.967C260.7,119.8,268.5,123.641,276.462,127.835Z" transform="translate(-175.745 -117.05)" fill="#ffa681"/>
      <path id="Path_3523" data-name="Path 3523" d="M258,117.689a.846.846,0,0,0-.856.842c0,.685-.285,16.948-14.879,18.2-13.538,1.17-19.145-11.784-20.871-17.162a.767.767,0,0,0-.728-.528h-.157a.77.77,0,0,0-.728,1c1.84,5.549,7.746,18.945,21.541,18.446a9.223,9.223,0,0,0,1.084-.071c16.149-1.4,16.434-19.715,16.434-19.9a.846.846,0,0,0-.842-.856Z" transform="translate(-171.691 -116.79)" fill="#fff"/>
    </g>
    <g id="Group_1267" data-name="Group 1267" transform="translate(29.854)">
      <path id="Path_3524" data-name="Path 3524" d="M274.536,57.1s13.039,20.2,11.612,41.242,1.926,45.337-16.9,44.267-52.412,7.547-63.1-8.845,68.39-76.678,68.39-76.678Z" transform="translate(-203.395 -46.284)" fill="#263238"/>
      <path id="Path_3525" data-name="Path 3525" d="M267.955,83.244s3.381,30.5-11.085,38.9-24.951-.984-24.951-.984S262.434,78.65,267.955,83.244Z" transform="translate(-191.978 -35.275)" fill="#000b29"/>
      <g id="Group_1266" data-name="Group 1266" transform="translate(5.534 15.14)">
        <g id="Group_1264" data-name="Group 1264" transform="translate(0 29.216)">
          <path id="Path_3526" data-name="Path 3526" d="M218.114,84.077s-5.193-6.933-9.059-1.2,1.6,22.654,11.056,18.517l-2-17.319Z" transform="translate(-207.801 -80.608)" fill="#f97853"/>
          <path id="Path_3527" data-name="Path 3527" d="M217.446,94.358a.8.8,0,0,1-.77-.585c-1.469-5.221-6.876-7.347-6.933-7.361a.79.79,0,0,1-.457-1.027.809.809,0,0,1,1.027-.471c.257.1,6.22,2.411,7.9,8.431a.8.8,0,0,1-.556.984A1.1,1.1,0,0,1,217.446,94.358Z" transform="translate(-207.191 -78.791)" fill="#ea5143"/>
          <path id="Path_3528" data-name="Path 3528" d="M211.389,90.794a.8.8,0,0,1-.671-1.227,7.385,7.385,0,0,1,3-2.425.8.8,0,1,1,.656,1.455,5.833,5.833,0,0,0-2.311,1.826.8.8,0,0,1-.671.371Z" transform="translate(-206.611 -77.851)" fill="#ea5143"/>
        </g>
        <g id="Group_1265" data-name="Group 1265" transform="translate(61.883 29.216)">
          <path id="Path_3529" data-name="Path 3529" d="M253.177,84.077s5.193-6.933,9.059-1.2-1.6,22.654-11.056,18.517l2-17.319Z" transform="translate(-251.18 -80.608)" fill="#f97853"/>
          <path id="Path_3530" data-name="Path 3530" d="M252.859,94.358a.792.792,0,0,0,.77-.585c1.469-5.221,6.876-7.347,6.933-7.361a.79.79,0,0,0,.457-1.027.809.809,0,0,0-1.027-.471c-.257.1-6.22,2.411-7.9,8.431a.8.8,0,0,0,.556.984A1.1,1.1,0,0,0,252.859,94.358Z" transform="translate(-250.804 -78.791)" fill="#ea5143"/>
          <path id="Path_3531" data-name="Path 3531" d="M257.483,90.794a.8.8,0,0,0,.67-1.227,7.385,7.385,0,0,0-3-2.425A.8.8,0,1,0,254.5,88.6a5.833,5.833,0,0,1,2.311,1.826.8.8,0,0,0,.67.371Z" transform="translate(-249.965 -77.851)" fill="#ea5143"/>
        </g>
        <path id="Path_3532" data-name="Path 3532" d="M250.133,105.25v16.834s-5.022,8.574-11.812,9.159-12.811-7.375-12.811-7.375V106.448l24.608-1.184Z" transform="translate(-200.247 -40.88)" fill="#ffa681"/>
        <path id="Path_3533" data-name="Path 3533" d="M250.128,105.254v7.461c-4.551,5.05-12.639,6.848-24.608,5.079v-11.37l24.608-1.184Z" transform="translate(-200.243 -40.884)" fill="#f97853"/>
        <path id="Path_3534" data-name="Path 3534" d="M273.274,81.273a165.169,165.169,0,0,1-2.183,21.256c-.314,1.626-.671,3.167-1.056,4.537-3.538,12.4-12.4,33.667-37.205,24.808-10.956-3.909-16.035-16.106-18.289-28.517a119.381,119.381,0,0,1-1.655-23.025A17.569,17.569,0,0,1,221.8,65.381c14.637-8.3,30.086-5.207,40.258-1.3a17.491,17.491,0,0,1,11.213,17.176Z" transform="translate(-205.642 -60.128)" fill="#ffa681"/>
        <path id="Path_3535" data-name="Path 3535" d="M227.387,84.713c0,1.8-.927,3.253-2.069,3.253s-2.069-1.455-2.069-3.253.927-3.253,2.069-3.253S227.387,82.915,227.387,84.713Z" transform="translate(-201.211 -51.028)" fill="#263238"/>
        <path id="Path_3536" data-name="Path 3536" d="M245.287,84.713c0,1.8-.927,3.253-2.069,3.253s-2.069-1.455-2.069-3.253.927-3.253,2.069-3.253S245.287,82.915,245.287,84.713Z" transform="translate(-193.575 -51.028)" fill="#263238"/>
        <path id="Path_3537" data-name="Path 3537" d="M222.826,77.347a34.69,34.69,0,0,1,8.845-1.327,1.53,1.53,0,0,1,1.526,1.8v.029a1.53,1.53,0,0,1-1.584,1.255c-2.5-.114-9.03.228-12.112,1.484a2.331,2.331,0,0,1,.7-1.641,5.384,5.384,0,0,1,2.625-1.6Z" transform="translate(-202.813 -53.349)" fill="#263238"/>
        <path id="Path_3538" data-name="Path 3538" d="M248.359,77.387a34.691,34.691,0,0,0-8.845-1.327,1.538,1.538,0,0,0-1.526,1.8v.029a1.53,1.53,0,0,0,1.584,1.255c2.5-.114,9.03.228,12.112,1.484a2.33,2.33,0,0,0-.7-1.641,5.383,5.383,0,0,0-2.625-1.6Z" transform="translate(-194.935 -53.332)" fill="#263238"/>
        <path id="Path_3539" data-name="Path 3539" d="M234.887,98.816a3.45,3.45,0,0,1-1.74-.414,2.432,2.432,0,0,1-1.156-1.954c-.3-2.939.442-12.154.485-12.54a.794.794,0,0,1,1.583.128c0,.1-.77,9.458-.485,12.24.057.485.243.656.4.742.756.456,2.482,0,3.21-.3a.8.8,0,0,1,.6,1.484,8.485,8.485,0,0,1-2.9.613Z" transform="translate(-197.513 -50.296)" fill="#f97853"/>
        <path id="Path_3540" data-name="Path 3540" d="M226.88,97.68c.6,3.039,2.611,8.631,9.387,8.631s8.688-5.107,9.344-8.631H226.894Z" transform="translate(-199.663 -44.109)" fill="#fff"/>
        <path id="Path_3541" data-name="Path 3541" d="M234.624,107.769a8.011,8.011,0,0,1-3.752-1.1.8.8,0,0,1,.842-1.355h0a6.52,6.52,0,0,0,2.91.856,6.941,6.941,0,0,0,3.067-.856.805.805,0,0,1,1.1.271.8.8,0,0,1-.271,1.1,8.323,8.323,0,0,1-3.895,1.1Z" transform="translate(-198.119 -40.902)" fill="#f97853"/>
      </g>
      <path id="Path_3542" data-name="Path 3542" d="M277.093,84.5a2.617,2.617,0,0,1-1.926,1.469,51.064,51.064,0,0,1-.285,5.92c-.984,11.555-3.909,13.581-4.565,10.728-.428-1.9-.414-12.782-.2-16.334a40.348,40.348,0,0,1-4.237-.528L263.2,74.544l-.942,11.084c-4.023,1.4-13.4-.842-13.4-.842l-3.153-11.056-1.94,10.642c-6.034,2.939-13.567.984-13.567.984l-1.726-11.484-3.994,11.484s-12.868,4.622-13.01,0c-.086-2.682,1.883-10.243,3.538-16.106a24.252,24.252,0,0,1,11.684-14.836c15.963-8.559,32.84-4.009,38.617-.556,12.283,7.333,11.769,30.657,11.769,30.657Z" transform="translate(-200.703 -49.515)" fill="#263238"/>
      <path id="Path_3543" data-name="Path 3543" d="M221.766,57.7s-10.585,12.6-14.08,35.094-8.3,39.117,5.25,46.549c14.679,8.046,13.41-8.445,13.2-12.925s-12.7-16.734-4.365-51.228c2.7-11.142,0-17.476,0-17.476Z" transform="translate(-203.922 -46.024)" fill="#263238"/>
      <path id="Path_3544" data-name="Path 3544" d="M214.7,90.29v.029c0,.171.014,1.056.086,2.454.029.87.086,1.926.171,3.124.5,7.575,1.969,20.671,6.305,25.208,1.712,1.8,5.007,2.7,8.888,3.067v-5.949a23.649,23.649,0,0,1-9.758-9.059A55.59,55.59,0,0,1,215,92.53Z" transform="translate(-199.324 -32.122)" fill="#000b29"/>
      <path id="Path_3545" data-name="Path 3545" d="M256.468,96.009A1.869,1.869,0,1,1,254.6,94.14,1.866,1.866,0,0,1,256.468,96.009Z" transform="translate(-183.101 -30.479)" fill="#fff"/>
    </g>
    <g id="Group_1269" data-name="Group 1269" transform="translate(0 122.678)">
      <path id="Path_3546" data-name="Path 3546" d="M311.766,219.478c-5.307,15.193-29.074,14.08-56.136,5.778-.043,0-.071-.029-.114-.029l-.257-.086-3.723-1.184-1.541-.514q-4.365-1.455-8.8-3.153a301.3,301.3,0,0,1-28.6-12.668l.057-.157,2.768-7.19.942-2.439s50.173,5.464,75.409.2c.428-.086.842-.171,1.255-.271a16.306,16.306,0,0,0-.285-1.669c-13.367-45.508,1.255-54.238,6.149-60.587,0,0,22.911,55.308,12.9,83.982Z" transform="translate(-170.37 -135.51)" fill="#dc2626"/>
      <path id="Path_3547" data-name="Path 3547" d="M279.906,187.286a1.075,1.075,0,0,1-.471.1,1.046,1.046,0,0,1-.956-.6c-1.912-3.909-8.4-6.248-10.4-6.876.428-.086.842-.171,1.255-.271-.1-.556-.2-1.113-.285-1.669,2.539.842,9.159,3.4,11.355,7.889a1.067,1.067,0,0,1-.485,1.427Z" transform="translate(-146.699 -117.398)" fill="#c72032"/>
      <path id="Path_3548" data-name="Path 3548" d="M233.168,185.006c-10.243,0-18.56-.585-19.273-.642a1.066,1.066,0,0,1,.157-2.126c.385.029,38.018,2.7,52.855-3.324a1.072,1.072,0,1,1,.813,1.983c-8.217,3.338-22.668,4.123-34.537,4.123Z" transform="translate(-170.234 -117.029)" fill="#c72032"/>
      <path id="Path_3549" data-name="Path 3549" d="M239.89,203.631h0c8.588-2.368,16.391-4.679,20.9-6.12,6.263-2.011,11.441-8.331,13.8-13.709a1.073,1.073,0,1,1,1.969.856c-2.539,5.82-8.2,12.682-15.093,14.893-3.267,1.056-8.26,2.539-14.038,4.194a13.1,13.1,0,0,1-7.518-.114h0Z" transform="translate(-158.725 -115.184)" fill="#c72032"/>
      <g id="Group_1268" data-name="Group 1268" transform="translate(2.005 0.471)">
        <path id="Path_3550" data-name="Path 3550" d="M286.7,216.47c-77.549,26.121-101.4,9.03-101.4,9.03-5.221-47.205,14.023-89.66,14.023-89.66,5.678,9.373,12.112,25.721,12.112,25.721l1.7,36.192-.128,1-.057.471-.314,2.468v.043c.157.029.328.071.485.1,23.453,4.95,66.35-.585,66.35-.585l7.233,15.193Z" transform="translate(-184.4 -135.84)" fill="#dc2626"/>
        <path id="Path_3551" data-name="Path 3551" d="M208.605,182.909a76.88,76.88,0,0,0-11.712,12.2,1.069,1.069,0,0,1-1.7-1.3h0a78.476,78.476,0,0,1,13.239-13.538l-.314,2.468v.043c.157.029.328.071.485.1Z" transform="translate(-179.889 -116.887)" fill="#c72032"/>
        <path id="Path_3552" data-name="Path 3552" d="M251.04,187.054s8.588-19.5,21.641-17.761l3.937,14.095c-7.147,3.039-8.189,15.279-18.332,18.859l-7.233-15.193Z" transform="translate(-155.973 -121.617)" fill="#ffa681"/>
      </g>
      <path id="Path_3553" data-name="Path 3553" d="M228.981,184.434s-5.421-12.725-19.687-16.42-23.353,3.024-24.323,5.564,5.378.114,5.378.114a12.315,12.315,0,0,0-6.491,5.05c-2.368,3.88,5.763-.3,5.763-.3s-5.835,2.554-6.577,4.922,6.947-1.641,8.4-1.555c0,0-6.862,2.725-6.819,5.178s7.889-1.541,13.752-1.227,14.836,2.739,14.836,2.739a99.478,99.478,0,0,0,13.524,1.783l2.254-5.835Z" transform="translate(-182.995 -122.107)" fill="#ffa681"/>
    </g>
  </g>
  <g id="Group_1290" data-name="Group 1290" transform="translate(33.311)">
    <g id="Group_1285" data-name="Group 1285" transform="translate(0 13.31)">
      <g id="Group_1277" data-name="Group 1277" transform="translate(378.929 9.059)">
        <path id="Path_3554" data-name="Path 3554" d="M314.672,46.225a9.572,9.572,0,1,1,9.572-9.572A9.583,9.583,0,0,1,314.672,46.225Zm0-16.149a6.577,6.577,0,1,0,6.576,6.577A6.588,6.588,0,0,0,314.672,30.076Z" transform="translate(-305.1 -10.817)" fill="#263238"/>
        <path id="Path_3555" data-name="Path 3555" d="M373.252,34.825a9.572,9.572,0,1,1,9.572-9.572,9.583,9.583,0,0,1-9.572,9.572Zm0-16.149a6.577,6.577,0,1,0,6.577,6.577A6.588,6.588,0,0,0,373.252,18.676Z" transform="translate(-280.111 -15.68)" fill="#263238"/>
        <g id="Group_1273" data-name="Group 1273" transform="translate(94.168 40.643)">
          <g id="Group_1271" data-name="Group 1271" transform="translate(9.301 0)">
            <path id="Path_3556" data-name="Path 3556" d="M379.128,53.785a1.5,1.5,0,0,1-1.5-1.5V45.668a1.5,1.5,0,1,1,3,0v6.619A1.5,1.5,0,0,1,379.128,53.785Z" transform="translate(-377.63 -44.17)" fill="#263238"/>
            <path id="Path_3557" data-name="Path 3557" d="M379.128,61.915a1.5,1.5,0,0,1-1.5-1.5V53.8a1.5,1.5,0,1,1,3,0v6.619A1.5,1.5,0,0,1,379.128,61.915Z" transform="translate(-377.63 -40.702)" fill="#263238"/>
          </g>
          <g id="Group_1272" data-name="Group 1272" transform="translate(0 9.116)">
            <path id="Path_3558" data-name="Path 3558" d="M387.427,53.556h-5.949a1.5,1.5,0,0,1,0-3h5.949a1.5,1.5,0,0,1,0,3Z" transform="translate(-367.326 -50.56)" fill="#263238"/>
            <path id="Path_3559" data-name="Path 3559" d="M378.557,53.556h-5.949a1.5,1.5,0,0,1,0-3h5.949a1.5,1.5,0,0,1,0,3Z" transform="translate(-371.11 -50.56)" fill="#263238"/>
          </g>
        </g>
        <g id="Group_1276" data-name="Group 1276" transform="translate(43.582 0.514)">
          <g id="Group_1274" data-name="Group 1274" transform="translate(9.301)">
            <path id="Path_3560" data-name="Path 3560" d="M343.668,25.655a1.5,1.5,0,0,1-1.5-1.5V17.538a1.5,1.5,0,1,1,3,0v6.619A1.5,1.5,0,0,1,343.668,25.655Z" transform="translate(-342.17 -16.04)" fill="#263238"/>
            <path id="Path_3561" data-name="Path 3561" d="M343.668,33.785a1.5,1.5,0,0,1-1.5-1.5V25.668a1.5,1.5,0,1,1,3,0v6.619A1.5,1.5,0,0,1,343.668,33.785Z" transform="translate(-342.17 -12.572)" fill="#263238"/>
          </g>
          <g id="Group_1275" data-name="Group 1275" transform="translate(0 9.102)">
            <path id="Path_3562" data-name="Path 3562" d="M351.967,25.416h-5.949a1.5,1.5,0,0,1,0-3h5.949a1.5,1.5,0,1,1,0,3Z" transform="translate(-331.866 -22.42)" fill="#263238"/>
            <path id="Path_3563" data-name="Path 3563" d="M343.1,25.416h-5.949a1.5,1.5,0,0,1,0-3H343.1a1.5,1.5,0,0,1,0,3Z" transform="translate(-335.65 -22.42)" fill="#263238"/>
          </g>
        </g>
      </g>
      <g id="Group_1284" data-name="Group 1284">
        <path id="Path_3564" data-name="Path 3564" d="M71.84,19.612a9.572,9.572,0,1,1,9.572,9.572A9.583,9.583,0,0,1,71.84,19.612Zm3.01,0a6.577,6.577,0,1,0,6.577-6.577A6.588,6.588,0,0,0,74.85,19.612Z" transform="translate(-2.665 -9.027)" fill="#263238"/>
        <path id="Path_3565" data-name="Path 3565" d="M44.88,45.2a9.572,9.572,0,1,1,9.572,9.572A9.583,9.583,0,0,1,44.88,45.2Zm3.01,0a6.577,6.577,0,1,0,6.577-6.577A6.588,6.588,0,0,0,47.89,45.2Z" transform="translate(-14.166 1.889)" fill="#263238"/>
        <g id="Group_1280" data-name="Group 1280" transform="translate(0 50.929)">
          <g id="Group_1278" data-name="Group 1278" transform="translate(9.301)">
            <path id="Path_3566" data-name="Path 3566" d="M31.368,54.645a1.5,1.5,0,0,0,1.5-1.5V46.528a1.5,1.5,0,0,0-3,0v6.619A1.5,1.5,0,0,0,31.368,54.645Z" transform="translate(-29.87 -45.03)" fill="#263238"/>
            <path id="Path_3567" data-name="Path 3567" d="M31.368,62.765a1.5,1.5,0,0,0,1.5-1.5V54.648a1.5,1.5,0,0,0-3,0v6.619A1.5,1.5,0,0,0,31.368,62.765Z" transform="translate(-29.87 -41.566)" fill="#263238"/>
          </g>
          <g id="Group_1279" data-name="Group 1279" transform="translate(0 9.102)">
            <path id="Path_3568" data-name="Path 3568" d="M24.848,54.406H30.8a1.5,1.5,0,1,0,0-3H24.848a1.5,1.5,0,1,0,0,3Z" transform="translate(-23.35 -51.41)" fill="#263238"/>
            <path id="Path_3569" data-name="Path 3569" d="M33.718,54.406h5.949a1.5,1.5,0,0,0,0-3H33.718a1.5,1.5,0,1,0,0,3Z" transform="translate(-19.566 -51.41)" fill="#263238"/>
          </g>
        </g>
        <g id="Group_1283" data-name="Group 1283" transform="translate(34.623)">
          <g id="Group_1281" data-name="Group 1281" transform="translate(9.301)">
            <path id="Path_3570" data-name="Path 3570" d="M55.638,18.945a1.5,1.5,0,0,0,1.5-1.5V10.828a1.5,1.5,0,1,0-3,0v6.619A1.5,1.5,0,0,0,55.638,18.945Z" transform="translate(-54.14 -9.33)" fill="#263238"/>
            <path id="Path_3571" data-name="Path 3571" d="M55.638,27.065a1.5,1.5,0,0,0,1.5-1.5V18.948a1.5,1.5,0,1,0-3,0v6.619A1.5,1.5,0,0,0,55.638,27.065Z" transform="translate(-54.14 -5.866)" fill="#263238"/>
          </g>
          <g id="Group_1282" data-name="Group 1282" transform="translate(0 9.102)">
            <path id="Path_3572" data-name="Path 3572" d="M49.118,18.706h5.949a1.5,1.5,0,1,0,0-3H49.118a1.5,1.5,0,0,0,0,3Z" transform="translate(-47.62 -15.71)" fill="#263238"/>
            <path id="Path_3573" data-name="Path 3573" d="M57.988,18.706h5.949a1.5,1.5,0,0,0,0-3H57.988a1.5,1.5,0,1,0,0,3Z" transform="translate(-43.836 -15.71)" fill="#263238"/>
          </g>
        </g>
      </g>
    </g>
    <g id="Group_1289" data-name="Group 1289" transform="translate(247.348)">
      <g id="Group_1287" data-name="Group 1287" transform="translate(48.406 21.315)">
        <path id="Path_3574" data-name="Path 3574" d="M257.211,18.22a1.13,1.13,0,0,1-.528-.071c-1.826-.77-2.9-1.127-2.9-1.127A1.069,1.069,0,1,1,254.472,15c.043.014,1.141.385,3.053,1.184a1.07,1.07,0,0,1,.571,1.4,1.043,1.043,0,0,1-.87.642Z" transform="translate(-253.062 -14.942)" fill="#e0e0e0"/>
        <g id="Group_1286" data-name="Group 1286" transform="translate(8.711 3.832)">
          <path id="Path_3575" data-name="Path 3575" d="M294.09,57.769c.728,1.94,1.4,3.937,2.026,5.935a1.052,1.052,0,0,0,1.127.742.5.5,0,0,0,.2-.043,1.053,1.053,0,0,0,.7-1.327c-.628-2.04-1.327-4.08-2.054-6.049a1.062,1.062,0,0,0-1.37-.628,1.073,1.073,0,0,0-.628,1.37Z" transform="translate(-244.299 -1.116)" fill="#e0e0e0"/>
          <path id="Path_3576" data-name="Path 3576" d="M296.669,66.129c.485,2,.927,4.066,1.312,6.134a1.064,1.064,0,0,0,1.156.87h.086a1.075,1.075,0,0,0,.856-1.241c-.385-2.111-.842-4.208-1.341-6.248a1.064,1.064,0,1,0-2.069.5Z" transform="translate(-243.184 2.507)" fill="#e0e0e0"/>
          <path id="Path_3577" data-name="Path 3577" d="M300.173,90.846a1.075,1.075,0,0,0,.956-1.041c.029-2.14.014-4.294-.043-6.377a1.063,1.063,0,1,0-2.126.071c.057,2.069.071,4.18.043,6.291a1.078,1.078,0,0,0,1.056,1.084h.128Z" transform="translate(-242.193 10.002)" fill="#e0e0e0"/>
          <path id="Path_3578" data-name="Path 3578" d="M299.176,73.552a1.054,1.054,0,0,0-.913,1.2c.128.97.243,1.94.342,2.9.114,1.1.214,2.225.314,3.352a1.068,1.068,0,0,0,1.141.984h.029a1.073,1.073,0,0,0,.956-1.141c-.086-1.141-.2-2.283-.314-3.41-.1-.97-.214-1.969-.342-2.953a1.076,1.076,0,0,0-1.17-.927h-.029Z" transform="translate(-242.495 6.226)" fill="#e0e0e0"/>
          <path id="Path_3579" data-name="Path 3579" d="M293.264,55.435a1.088,1.088,0,0,0,1.084.628.933.933,0,0,0,.328-.086,1.066,1.066,0,0,0,.542-1.412c-.87-1.94-1.812-3.88-2.8-5.763a1.066,1.066,0,1,0-1.883,1c.97,1.84,1.883,3.738,2.739,5.635Z" transform="translate(-245.841 -4.574)" fill="#e0e0e0"/>
          <path id="Path_3580" data-name="Path 3580" d="M259.742,19.643c1.826.942,3.681,1.954,5.492,3.024a.973.973,0,0,0,.656.143,1.061,1.061,0,0,0,.442-1.969c-1.855-1.1-3.738-2.14-5.606-3.1a1.072,1.072,0,0,0-.97,1.912Z" transform="translate(-259.168 -17.628)" fill="#e0e0e0"/>
          <path id="Path_3581" data-name="Path 3581" d="M272.373,27.76a1.069,1.069,0,1,0,1.3-1.7c-1.683-1.284-3.438-2.539-5.193-3.738a1.068,1.068,0,1,0-1.2,1.769c1.726,1.17,3.438,2.4,5.093,3.666Z" transform="translate(-255.906 -15.702)" fill="#e0e0e0"/>
          <path id="Path_3582" data-name="Path 3582" d="M284.58,40.277a1.086,1.086,0,0,0,.942.4,1.057,1.057,0,0,0,.556-.228,1.08,1.08,0,0,0,.171-1.5c-1.327-1.655-2.725-3.3-4.151-4.865a1.07,1.07,0,0,0-1.583,1.441c1.4,1.541,2.768,3.153,4.066,4.765Z" transform="translate(-250.182 -10.757)" fill="#e0e0e0"/>
          <path id="Path_3583" data-name="Path 3583" d="M278.859,33.646a1.072,1.072,0,0,0,1.512-.014,1.076,1.076,0,0,0-.014-1.512c-1.512-1.469-3.11-2.924-4.722-4.323a1.062,1.062,0,0,0-1.384,1.612c1.583,1.37,3.138,2.8,4.622,4.237Z" transform="translate(-252.891 -13.399)" fill="#e0e0e0"/>
          <path id="Path_3584" data-name="Path 3584" d="M289.4,47.582a1.083,1.083,0,0,0,1.027.5,1.033,1.033,0,0,0,.442-.157,1.083,1.083,0,0,0,.357-1.469c-1.113-1.812-2.283-3.609-3.509-5.35a1.065,1.065,0,1,0-1.74,1.227c1.2,1.7,2.354,3.467,3.438,5.236Z" transform="translate(-247.815 -7.806)" fill="#e0e0e0"/>
        </g>
      </g>
      <g id="Group_1288" data-name="Group 1288">
        <path id="Path_3585" data-name="Path 3585" d="M271.656,17.29,276.321,0,219.13.485Z" transform="translate(-219.13)" fill="#dc2626"/>
        <path id="Path_3586" data-name="Path 3586" d="M219.13.34l49.745,20.985.143.057,2.14,3.538.5-7.775Z" transform="translate(-219.13 0.145)" fill="#c72032"/>
        <path id="Path_3587" data-name="Path 3587" d="M256.986,18.628,252.35,17.9l2.5-2.81Z" transform="translate(-204.959 6.437)" fill="#c72032"/>
        <path id="Path_3588" data-name="Path 3588" d="M262.755,18.743l6.263,2.639L256.121,35.9,219.13.34Z" transform="translate(-219.13 0.145)" fill="#dc2626"/>
      </g>
    </g>
  </g>
  <g id="Group_1291" data-name="Group 1291" transform="translate(41.542 461.283)">
    <path id="Path_3589" data-name="Path 3589" d="M38.873,323.35H544.989c5.381,0,9.753,4.879,9.753,10.885v1.041c0,6.006-4.372,10.885-9.753,10.885H38.873c-5.381,0-9.753-4.879-9.753-10.885v-1.041C29.12,328.229,33.492,323.35,38.873,323.35Z" transform="translate(-29.12 -323.35)" fill="#825958"/>
    <path id="Path_3590" data-name="Path 3590" d="M554.742,334.235v.528H29.12v-.528c0-6.006,4.372-10.885,9.753-10.885H544.989C550.383,323.35,554.742,328.229,554.742,334.235Z" transform="translate(-29.12 -323.35)" fill="#ae7461"/>
  </g>
  <g id="Group_1292" data-name="Group 1292" transform="translate(205.4 318.84)">
    <rect id="Rectangle_930" data-name="Rectangle 930" width="192.802" height="108.191" rx="5.38" fill="#263238"/>
    <rect id="Rectangle_931" data-name="Rectangle 931" width="29.858" height="34.038" transform="translate(81.472 108.077)" fill="#454e53"/>
    <circle id="Ellipse_154" data-name="Ellipse 154" cx="14.822" cy="14.822" r="14.822" transform="translate(81.243 40.6)" fill="#192126"/>
    <path id="Path_3591" data-name="Path 3591" d="M215.272,314.65h58.062a9.492,9.492,0,0,1,9.487,9.487v2.6H205.8v-2.6a9.492,9.492,0,0,1,9.487-9.487Z" transform="translate(-148.38 -184.618)" fill="#263238"/>
  </g>
</svg>
