<svg id="Arrow" xmlns="http://www.w3.org/2000/svg" width="138.788" height="124.784" viewBox="0 0 138.788 124.784">
  <path id="Path_6561" data-name="Path 6561" d="M185.934,47.8l-17.1,26.036-.752,1.144-1.488.692-52.928,24.6,5.228,17.912,1.2,4.1-4.144,3.424L80.238,160.4H50.69l53.424-44.364-3.236-17.616-.88-4.8,4.136-1.9,56.408-25.976,18.372-22.724-4.928-.976,15.492-6.428-.8,16.756Z" transform="translate(-50.69 -35.62)" fill="#263238"/>
  <path id="Path_6562" data-name="Path 6562" d="M185.934,47.8l-17.1,26.036-.752,1.144-1.488.692-52.928,24.6,5.228,17.912,1.2,4.1-4.144,3.424L80.238,160.4H50.69l53.424-44.364-3.236-17.616-.88-4.8,4.136-1.9,56.408-25.976,18.372-22.724-4.928-.976,15.492-6.428-.8,16.756Z" transform="translate(-50.69 -35.62)" fill="#fafafa" opacity="0.6"/>
</svg>
