<svg width="475" height="115" viewBox="0 0 475 115" fill="none" xmlns="http://www.w3.org/2000/svg">
<path d="M126.701 111.719L87.2832 111.375L63.7227 69.448L103.112 69.7917L126.701 111.719Z" fill="white"/>
<path d="M64.1768 1.35823L83.632 35.4966L39.3226 110.949L-0.000802611 110.605L64.1768 1.35823Z" fill="white"/>
<path d="M154.601 61.6633L135.067 61.4928L130.256 70.1057L122.855 70.0411L145.349 30.3487L166.711 70.4238L159.207 70.3583L154.601 61.6633ZM138 56.0777L151.874 56.1988L145.187 42.9726L138 56.0777ZM182.294 50.4241L169.504 31.9753L177.447 32.0446L186.362 45.4015L195.566 32.2027L203.404 32.2711L190.131 50.5497L204.159 70.7534L196.215 70.6841L186.115 55.7926L175.647 70.5046L167.655 70.4348L182.294 50.4241ZM210.534 32.3334L217.427 32.3935L217.091 70.8662L210.181 70.8059L210.534 32.3334ZM246.045 41.4037C245.333 40.1656 244.311 39.1344 243.079 38.412C241.736 37.7221 240.241 37.3812 238.732 37.4206C237.125 37.2967 235.527 37.7561 234.231 38.7144C233.733 39.1146 233.333 39.6221 233.059 40.1991C232.786 40.7761 232.646 41.4076 232.652 42.0461C232.632 44.2953 234.269 45.9062 237.562 46.8788L242.177 48.2807C245.282 49.0415 248.119 50.6379 250.381 52.8966C252.103 54.7997 253.026 57.2926 252.96 59.8584C252.959 61.4998 252.601 63.1213 251.911 64.6106C251.229 66.0704 250.233 67.3619 248.995 68.393C247.642 69.5019 246.093 70.3472 244.429 70.885C242.512 71.5059 240.504 71.801 238.49 71.7581C234.793 71.9316 231.145 70.866 228.123 68.7304C226.839 67.6839 225.779 66.3893 225.007 64.9239C224.235 63.4585 223.767 61.8525 223.63 60.2019L230.388 59.0077C230.583 61.0838 231.523 63.0189 233.036 64.4544C234.593 65.7037 236.549 66.3482 238.543 66.2693C240.506 66.4168 242.453 65.8226 243.998 64.6042C244.626 64.0553 245.125 63.3753 245.461 62.6122C245.796 61.8491 245.96 61.0216 245.941 60.1882C245.972 59.328 245.812 58.4715 245.472 57.6807C245.146 56.9818 244.679 56.3578 244.101 55.8475C243.47 55.293 242.759 54.8374 241.991 54.4962C241.135 54.111 240.258 53.7764 239.363 53.4941L234.91 52.1478C232.242 51.4796 229.808 50.0941 227.871 48.1415C226.369 46.4554 225.57 44.2567 225.641 41.9992C225.635 40.5856 225.961 39.1901 226.591 37.9247C227.221 36.6593 228.139 35.559 229.27 34.712C230.505 33.7912 231.892 33.0941 233.367 32.6525C235.09 32.1391 236.883 31.8976 238.68 31.9367C241.515 31.8445 244.324 32.498 246.827 33.8319C248.847 34.9875 250.478 36.715 251.517 38.7967L246.045 41.4037Z" fill="white"/>
<path d="M279.419 32.9346L293.296 33.0557C296.232 33.049 299.147 33.5575 301.907 34.5581C304.346 35.4352 306.583 36.7967 308.483 38.5605C310.283 40.2642 311.701 42.3304 312.643 44.6226C313.64 47.0717 314.126 49.6986 314.072 52.3423C314.078 55.0196 313.546 57.6708 312.508 60.1385C311.527 62.4522 310.072 64.5342 308.235 66.2498C306.324 68.0046 304.07 69.3455 301.616 70.1884C298.83 71.1452 295.897 71.6028 292.952 71.54L279.074 71.4189L279.419 32.9346ZM292.834 65.7586C294.851 65.8086 296.861 65.5044 298.774 64.8599C300.428 64.297 301.94 63.381 303.204 62.1754C304.435 60.9715 305.386 59.5123 305.99 57.9008C306.66 56.101 306.999 54.195 306.99 52.2747C307.032 50.3921 306.726 48.5179 306.088 46.7463C305.505 45.1505 304.58 43.7022 303.376 42.5036C302.128 41.2952 300.632 40.3724 298.992 39.7992C297.088 39.1393 295.085 38.8091 293.069 38.8227L286.267 38.7634L286.032 65.6993L292.834 65.7586Z" fill="white"/>
<path d="M321.046 33.2978L327.954 33.3581L327.618 71.831L320.711 71.7707L321.046 33.2978Z" fill="white"/>
<path d="M336.665 33.4341L348.419 33.5367C352.402 33.2976 356.345 34.4479 359.574 36.7911C360.831 37.8487 361.825 39.1836 362.477 40.6907C363.13 42.1979 363.424 43.836 363.335 45.476C363.411 48.124 362.517 50.7085 360.822 52.7444C358.908 54.801 356.372 56.1744 353.604 56.6549L366.747 72.1839L358.313 72.1103L346.363 57.1626L343.372 57.1365L343.242 71.9788L336.329 71.9185L336.665 33.4341ZM343.527 38.9918L343.417 51.6163L348.149 51.6576C350.301 51.8263 352.447 51.2813 354.257 50.1067C354.916 49.5139 355.443 48.7907 355.807 47.9831C356.171 47.1754 356.363 46.301 356.371 45.4152C356.378 44.5294 356.202 43.6517 355.852 42.8378C355.502 42.0239 354.987 41.2916 354.34 40.6875C352.55 39.4815 350.413 38.899 348.26 39.0302L343.527 38.9918Z" fill="white"/>
<path d="M372.031 33.7428L396.292 33.9545L396.242 39.7231L378.885 39.5716L378.799 49.4217L394.581 49.5594L394.53 55.3279L378.749 55.1902L378.65 66.5074L396.061 66.6593L396.011 72.4278L371.687 72.2155L372.031 33.7428Z" fill="white"/>
<path d="M439.088 63.4383C437.691 66.502 435.389 69.0648 432.493 70.7824C429.166 72.6927 425.367 73.6225 421.534 73.4643C418.754 73.4668 415.995 72.9818 413.383 72.0315C410.958 71.1622 408.747 69.7837 406.9 67.9886C405.052 66.1935 403.611 64.0236 402.672 61.6247C401.622 58.9262 401.119 56.0457 401.193 53.151C401.19 50.4213 401.722 47.7175 402.758 45.1921C403.737 42.8133 405.191 40.6598 407.032 38.8639C408.918 37.0473 411.152 35.6315 413.6 34.7021C416.279 33.685 419.128 33.1924 421.993 33.2511C425.508 33.1611 428.987 33.978 432.095 35.6229C434.658 37.0311 436.8 39.0973 438.3 41.6087L433.21 44.8841C431.959 43.0401 430.259 41.5457 428.27 40.5421C426.294 39.6001 424.131 39.1158 421.942 39.1253C420.019 39.0796 418.107 39.4333 416.327 40.1639C414.7 40.838 413.233 41.8452 412.019 43.1206C410.811 44.4104 409.873 45.9289 409.26 47.5866C408.595 49.3867 408.256 51.2908 408.258 53.2098C408.212 55.2231 408.536 57.2278 409.213 59.1241C409.814 60.8029 410.755 62.3398 411.977 63.6385C413.178 64.8903 414.628 65.8755 416.234 66.5301C417.953 67.2313 419.792 67.5896 421.648 67.585C424.202 67.6942 426.73 67.0341 428.904 65.6901C430.881 64.3923 432.491 62.6061 433.576 60.5043L439.088 63.4383Z" fill="white"/>
<path d="M442.497 34.3577L473.894 34.6317L473.844 40.4003L461.599 40.2934L461.314 72.9977L454.404 72.9374L454.689 40.2302L442.447 40.1234L442.497 34.3577Z" fill="white"/>
</svg>
