<svg xmlns="http://www.w3.org/2000/svg" width="168.316" height="138.604" viewBox="0 0 168.316 138.604">
  <g id="Background_Complete" data-name="Background Complete" transform="translate(-15.284)">
    <rect id="Rectangle_1601" data-name="Rectangle 1601" width="13.248" height="0.1" transform="translate(166.712 137.416)" fill="#ebebeb"/>
    <rect id="Rectangle_1602" data-name="Rectangle 1602" width="3.476" height="0.1" transform="translate(129.012 138.504)" fill="#ebebeb"/>
    <rect id="Rectangle_1603" data-name="Rectangle 1603" width="7.676" height="0.1" transform="translate(158.636 133.704)" fill="#ebebeb"/>
    <rect id="Rectangle_1604" data-name="Rectangle 1604" width="17.276" height="0.1" transform="translate(20.984 134.376)" fill="#ebebeb"/>
    <rect id="Rectangle_1605" data-name="Rectangle 1605" width="2.532" height="0.1" transform="translate(41.824 134.376)" fill="#ebebeb"/>
    <rect id="Rectangle_1606" data-name="Rectangle 1606" width="37.472" height="0.1" transform="translate(52.588 136.064)" fill="#ebebeb"/>
    <path id="Path_6551" data-name="Path 6551" d="M117.726,113.14H40.49a2.284,2.284,0,0,1-2.28-2.284V2.284A2.284,2.284,0,0,1,40.49,0h77.236a2.284,2.284,0,0,1,2.284,2.284V110.856A2.284,2.284,0,0,1,117.726,113.14ZM40.49.1a2.184,2.184,0,0,0-2.18,2.184V110.856a2.184,2.184,0,0,0,2.18,2.184h77.236a2.188,2.188,0,0,0,2.184-2.184V2.284A2.188,2.188,0,0,0,117.726.1Z" transform="translate(-22.926)" fill="#ebebeb"/>
    <path id="Path_6552" data-name="Path 6552" d="M334.024,113.14h-77.24a2.288,2.288,0,0,1-2.284-2.284V2.284A2.288,2.288,0,0,1,256.784,0h77.24A2.284,2.284,0,0,1,336.3,2.284V110.856A2.284,2.284,0,0,1,334.024,113.14ZM256.784.1A2.188,2.188,0,0,0,254.6,2.284V110.856a2.188,2.188,0,0,0,2.184,2.184h77.24a2.188,2.188,0,0,0,2.184-2.184V2.284A2.188,2.188,0,0,0,334.024.1Z" transform="translate(-152.7)" fill="#ebebeb"/>
    <path id="Path_6553" data-name="Path 6553" d="M210.134,238.25V218.522h-9.1V200.23h-1.284v10.484h-3.5v-2.9h-6.3v-10.04h-1.168V185.506h-.936v12.048h-2.216V215.4h-4.2V197.554h-7.584v15.092H165.87V194.354h-1.284v10.484h-3.5v-2.9h-6.3V191.9h-1.168V179.63h-.936v12.044h-2.216v17.848h-4.2V191.674h-7.588v17.264h-5.116V198.9H132.39V186.63h-.932v12.048h-2.22v17.844h-4.2V198.678H117.45v17.844h-3.736v2h-6.54V200.23H105.89v10.484h-3.5v-2.9h-6.3v-10.04H94.918V185.506h-.936v12.048H91.95v-1H84.362v1h-4.2v-1H77.942V184.5H77.01V196.77H75.842v10.04h-6.3v2.9h-3.5V199.226H64.754v18.292h-9.1V238.25Z" transform="translate(-33.39 -107.778)" fill="#ebebeb"/>
    <circle id="Ellipse_215" data-name="Ellipse 215" cx="11.116" cy="11.116" r="11.116" transform="translate(40.636 22.4) rotate(-22.5)" fill="#fafafa"/>
    <path id="Path_6554" data-name="Path 6554" d="M97.576,58.454A1.936,1.936,0,0,0,95.088,56.6a4.084,4.084,0,0,0-4.048-4.684,3.9,3.9,0,0,0-.752.072A3.576,3.576,0,0,0,83.656,53.8H83.6a3.3,3.3,0,0,0,0,6.592H95.7A1.928,1.928,0,0,0,97.576,58.454Z" transform="translate(-48.18 -30.162)" fill="#f0f0f0"/>
    <path id="Path_6555" data-name="Path 6555" d="M401.878,125.4a1.924,1.924,0,0,0-2.488-1.848,4.18,4.18,0,0,0,.044-.6,4.092,4.092,0,0,0-4.092-4.088,4.285,4.285,0,0,0-.756.068,3.576,3.576,0,0,0-6.62,1.8h-.06a3.3,3.3,0,0,0,0,6.592h12.1A1.932,1.932,0,0,0,401.878,125.4Z" transform="translate(-230.766 -70.343)" fill="#f0f0f0"/>
    <path id="Path_6556" data-name="Path 6556" d="M284.71,44.889a3.048,3.048,0,0,1,3.936-2.916,6.627,6.627,0,0,1-.068-.94,6.464,6.464,0,0,1,7.664-6.364,5.66,5.66,0,0,1,10.492,2.86h.092a5.216,5.216,0,1,1,0,10.432H287.682A3.06,3.06,0,0,1,284.71,44.889Z" transform="translate(-170.826 -19.173)" fill="#f0f0f0"/>
    <path id="Path_6557" data-name="Path 6557" d="M143.48,124.1a3.676,3.676,0,0,1,4.736-3.52,7.6,7.6,0,0,1-.084-1.132,7.792,7.792,0,0,1,7.792-7.788,8.045,8.045,0,0,1,1.432.132,6.8,6.8,0,0,1,12.628,3.444h.112a6.276,6.276,0,0,1,0,12.552h-23.04a3.676,3.676,0,0,1-3.576-3.688Z" transform="translate(-86.088 -65.098)" fill="#f0f0f0"/>
    <path id="Path_6558" data-name="Path 6558" d="M167.99,77.544a1.2,1.2,0,0,0-1.548-1.152,2.8,2.8,0,0,0,.028-.368,2.544,2.544,0,0,0-2.544-2.56,2.58,2.58,0,0,0-.468.044,2.224,2.224,0,0,0-4.124,1.156H159.3a2.048,2.048,0,0,0,0,4.1h7.524A1.2,1.2,0,0,0,167.99,77.544Z" transform="translate(-94.35 -43.464)" fill="#f0f0f0"/>
    <path id="Path_6559" data-name="Path 6559" d="M74.72,168.773a1.2,1.2,0,0,1,1.2-1.2,1.264,1.264,0,0,1,.348.052,2.247,2.247,0,0,1-.028-.368,2.544,2.544,0,0,1,2.544-2.544,2.581,2.581,0,0,1,.468.044,2.224,2.224,0,0,1,4.124,1.124h.036a2.052,2.052,0,0,1,0,4.1H75.888A1.2,1.2,0,0,1,74.72,168.773Z" transform="translate(-44.832 -98.213)" fill="#f0f0f0"/>
    <path id="Path_6560" data-name="Path 6560" d="M356.21,178.573a1.2,1.2,0,0,1,1.2-1.2,1.265,1.265,0,0,1,.348.052,2.248,2.248,0,0,1-.028-.368,2.544,2.544,0,0,1,2.544-2.544,2.579,2.579,0,0,1,.468.044,2.224,2.224,0,0,1,4.124,1.136h.036a2.052,2.052,0,0,1,0,4.1h-7.524A1.2,1.2,0,0,1,356.21,178.573Z" transform="translate(-213.726 -104.093)" fill="#f0f0f0"/>
  </g>
</svg>
