<svg width="800" height="800" viewBox="0 0 800 800" fill="none" xmlns="http://www.w3.org/2000/svg">
<g clip-path="url(#clip0_24_124)">
<path d="M796.684 500.324L714.103 403.952C709.17 398.158 700.473 397.514 694.708 402.46C688.928 407.406 688.256 416.949 693.216 422.716L756.314 497.205H574.398C566.791 497.205 560.634 503.361 560.634 510.969C560.634 518.577 566.791 524.733 574.398 524.733H756.314L693.216 597.5C688.256 603.266 688.928 611.519 694.708 616.466C697.301 618.697 700.487 619.57 703.659 619.57C707.53 619.57 711.387 617.836 714.103 614.652L796.684 518.253C801.106 513.105 801.106 505.47 796.684 500.324Z" fill="#01579B"/>
<path d="M758.806 15.4829H42.9172C20.2016 15.4829 0 32.3095 0 55.1188V68.7485C0 86.722 13.7641 101.894 27.5266 107.586V509.22C27.5266 532.003 47.7547 552.258 70.4969 552.258H371.614V648.274C340.647 654.667 317.42 682.467 317.42 715.7C317.42 753.644 348.725 784.517 386.667 784.517C424.611 784.517 454.839 753.644 454.839 715.7C454.839 682.467 433.548 654.669 399.141 648.274V552.258H510.969C518.577 552.258 524.733 546.102 524.733 538.494C524.733 530.886 518.577 524.73 510.969 524.73H70.4984C62.9312 524.73 55.0547 516.827 55.0547 509.219V111.827H743.23V371.613C743.23 379.22 749.386 385.377 756.994 385.377C764.602 385.377 770.758 379.22 770.758 371.613V107.586C787.963 101.894 798.284 86.722 798.284 68.7485V55.1188C798.283 32.3095 781.522 15.4829 758.806 15.4829ZM428.389 715.7C428.389 738.469 409.867 756.991 387.098 756.991C364.33 756.991 345.808 738.469 345.808 715.7C345.808 692.931 364.33 674.409 387.098 674.409C409.867 674.409 428.389 692.931 428.389 715.7ZM770.756 68.7485C770.756 76.3688 766.348 84.3001 758.808 84.3001H758.714H43.0109H42.9172C35.3766 84.3001 27.5266 76.3704 27.5266 68.7485V55.1188C27.5266 47.4985 35.3766 43.0095 42.9172 43.0095H758.808C766.348 43.0095 770.756 47.4985 770.756 55.1188V68.7485Z" fill="#263238"/>
<path d="M593.551 414.624H206.453V165.161C206.453 157.553 200.297 151.397 192.689 151.397C185.081 151.397 178.925 157.553 178.925 165.161V414.625H153.119C145.511 414.625 139.354 420.781 139.354 428.389C139.354 435.997 145.511 442.153 153.119 442.153H178.925V467.959C178.925 475.567 185.081 481.724 192.689 481.724C200.297 481.724 206.453 475.567 206.453 467.959V442.153H593.551C601.159 442.153 607.315 435.997 607.315 428.389C607.314 420.78 601.158 414.624 593.551 414.624Z" fill="#FF8F00"/>
<path d="M316.561 276.989H247.744C240.142 276.989 233.979 283.152 233.979 290.753V387.097C233.979 394.698 240.142 400.861 247.744 400.861H316.561C324.162 400.861 330.325 394.698 330.325 387.097V290.753C330.323 283.152 324.161 276.989 316.561 276.989ZM302.797 373.333H261.506V304.516H302.797V373.333Z" fill="#0277BD"/>
<path d="M454.196 208.172H385.378C377.777 208.172 371.614 214.334 371.614 221.936V387.098C371.614 394.7 377.777 400.863 385.378 400.863H454.196C461.797 400.863 467.96 394.7 467.96 387.098V221.934C467.96 214.334 461.797 208.172 454.196 208.172ZM440.433 373.333H399.142V235.698H440.433V373.333Z" fill="#0277BD"/>
<path d="M591.831 153.117H523.014C515.412 153.117 509.25 159.28 509.25 166.881V387.097C509.25 394.698 515.412 400.861 523.014 400.861H591.831C599.433 400.861 605.595 394.698 605.595 387.097V166.881C605.594 159.28 599.431 153.117 591.831 153.117ZM578.067 373.333H536.777V180.644H578.067V373.333Z" fill="#0277BD"/>
</g>
<defs>
<clipPath id="clip0_24_124">
<rect width="800" height="800" fill="white"/>
</clipPath>
</defs>
</svg>
