<svg xmlns="http://www.w3.org/2000/svg" width="24.923" height="24.923" viewBox="0 0 24.923 24.923">
  <path id="Icon_ionic-ios-call" data-name="Icon ionic-ios-call" d="M27.8,23.3a20.159,20.159,0,0,0-4.211-2.818c-1.262-.606-1.724-.594-2.618.05-.743.537-1.225,1.037-2.081.85s-2.543-1.462-4.18-3.093S11.8,14.96,11.615,14.1s.319-1.337.85-2.081c.644-.894.662-1.356.05-2.618A19.762,19.762,0,0,0,9.7,5.194c-.918-.918-1.125-.719-1.631-.537a9.279,9.279,0,0,0-1.493.794A4.5,4.5,0,0,0,4.78,7.343c-.356.769-.768,2.2,1.331,5.936a33.121,33.121,0,0,0,5.823,7.767h0l.006.006.006.006h0a33.248,33.248,0,0,0,7.766,5.823c3.736,2.1,5.167,1.687,5.935,1.331a4.428,4.428,0,0,0,1.893-1.793,9.28,9.28,0,0,0,.793-1.493C28.515,24.42,28.721,24.214,27.8,23.3Z" transform="translate(-4.023 -4.047)" fill="none" stroke="#1ebd88" stroke-width="1"/>
</svg>
