<svg id="Character_1" data-name="Character 1" xmlns="http://www.w3.org/2000/svg" width="49.46" height="63.484" viewBox="0 0 49.46 63.484">
  <path id="Path_6629" data-name="Path 6629" d="M139.05,293.158l-.8,1.98-.608,1.5-1.528-.544.548-1.344.864-2.136Z" transform="translate(-125.21 -234.326)" fill="#e4897b"/>
  <path id="Path_6630" data-name="Path 6630" d="M220.78,262.23l-1.3.964L219,262.138l-1.1-2.44,1.3-.968,1.044,2.312Z" transform="translate(-174.284 -213.998)" fill="#e4897b"/>
  <path id="Path_6631" data-name="Path 6631" d="M138.344,292.61l1.528.548-.8,1.98-1.588-.392Z" transform="translate(-126.032 -234.326)" opacity="0.2"/>
  <path id="Path_6632" data-name="Path 6632" d="M220.244,261.042l-1.24,1.1-1.1-2.44,1.3-.968Z" transform="translate(-174.284 -213.998)" opacity="0.2"/>
  <path id="Path_6633" data-name="Path 6633" d="M172.095,156.507c.044.12.144.2.224.172s.112-.152.068-.276-.144-.2-.224-.172A.2.2,0,0,0,172.095,156.507Z" transform="translate(-146.787 -152.495)" fill="#263238"/>
  <path id="Path_6634" data-name="Path 6634" d="M172.46,157.44a4.66,4.66,0,0,0,.96.844.752.752,0,0,1-.548.32Z" transform="translate(-147.02 -153.224)" fill="#de5753"/>
  <path id="Path_6635" data-name="Path 6635" d="M170.285,154.938a.072.072,0,0,1-.056,0,.08.08,0,0,1,0-.108.756.756,0,0,1,.608-.34.076.076,0,0,1,.076.08.072.072,0,0,1-.08.072h0a.612.612,0,0,0-.48.276.064.064,0,0,1-.068.02Z" transform="translate(-145.669 -151.454)" fill="#263238"/>
  <path id="Path_6636" data-name="Path 6636" d="M163.1,162c.02,1.2-.132,3.384-1.088,4,0,0,.108,1.244,2.276,1.628,2.4.424,1.352-.98,1.352-.98-1.244-.544-1.04-1.5-.652-2.368Z" transform="translate(-140.75 -155.96)" fill="#e4897b"/>
  <path id="Path_6637" data-name="Path 6637" d="M161.354,155.294c.624,1.48.916,2.38,1.956,2.884a2.131,2.131,0,0,0,3.012-2.224c-.152-1.476-1.152-3.648-2.848-3.728a2.192,2.192,0,0,0-2.12,3.068Z" transform="translate(-140.246 -150.094)" fill="#e4897b"/>
  <path id="Path_6638" data-name="Path 6638" d="M159.856,155.674c.7.284,2.916-1.3,2.16-3.128a3.616,3.616,0,0,0,.484-2.4c-.272-1.2-1.16-1.536-2-1.152-.744.336-.664.756-.664.756s-3.6.944-2.616,2.324C155.952,153.9,158.972,155.306,159.856,155.674Z" transform="translate(-137.692 -148.066)" fill="#263238"/>
  <path id="Path_6639" data-name="Path 6639" d="M168.091,157.9a1.82,1.82,0,0,0,.78.864c.464.256.732-.1.636-.564s-.428-1.06-.908-1.124S167.907,157.444,168.091,157.9Z" transform="translate(-144.359 -153.004)" fill="#e4897b"/>
  <path id="Path_6640" data-name="Path 6640" d="M160.284,170.609c-.168-.332-.352-.716.056-.82a15.119,15.119,0,0,1,4.132,0c-.272.452.148,1.024.148,1.024Z" transform="translate(-139.6 -160.545)" fill="#e75549"/>
  <path id="Path_6642" data-name="Path 6642" d="M136.844,301h-1.768a.14.14,0,0,0-.136.112l-.32,1.44a.232.232,0,0,0,.232.288c.636,0,1.56-.048,2.36-.048.94,0,1.748.052,2.848.052.668,0,.852-.672.572-.736a9.72,9.72,0,0,1-3.4-.98.736.736,0,0,0-.392-.128Z" transform="translate(-124.312 -239.36)" fill="#263238"/>
  <path id="Path_6643" data-name="Path 6643" d="M149.626,207.764s-.5,3.4-1.116,7.28c-.268,1.672-.556,3.436-.84,5.068-.316,1.828-.624,3.484-.88,4.652-1.116,5.08-7.04,19.08-7.04,19.08l-2.9-.628s4.144-10.892,5.068-18c.716-5.452,2.12-17.476,2.12-17.476Z" transform="translate(-125.654 -183.404)" fill="#303f46"/>
  <path id="Path_6644" data-name="Path 6644" d="M140.124,294.644l-.54,1.052-3.264-.708.272-.988Z" transform="translate(-125.336 -235.16)" fill="#dc2626"/>
  <path id="Path_6646" data-name="Path 6646" d="M163.869,225.862c-.268,1.672-.556,3.436-.84,5.068a15.23,15.23,0,0,1-.54-5.16Z" transform="translate(-141.013 -194.222)" opacity="0.2"/>
  <path id="Path_6647" data-name="Path 6647" d="M144.022,176.706c-.78.736-1.6,1.516-2.344,2.3a31.933,31.933,0,0,0-2.136,2.4,11.092,11.092,0,0,0-.772,1.3c-.248.484-.5.976-.74,1.476l-1.468,3.032-1.152-.4c.248-1.128.564-2.22.908-3.32.18-.548.372-1.1.584-1.644a10.708,10.708,0,0,1,.82-1.7,21.624,21.624,0,0,1,2.184-2.8,28.931,28.931,0,0,1,2.48-2.472Z" transform="translate(-124.79 -163.682)" fill="#dc897c"/>
  <path id="Path_6648" data-name="Path 6648" d="M133.146,209.734l.588-1.044-1.792-.54a1.876,1.876,0,0,0,.032,1.52Z" transform="translate(-122.622 -183.65)" fill="#e4897b"/>
  <path id="Path_6649" data-name="Path 6649" d="M134.608,205.122l-1.148-.372-1.3,1.36,1.792.54Z" transform="translate(-122.84 -181.61)" fill="#e4897b"/>
  <path id="Path_6650" data-name="Path 6650" d="M222.776,266l-1.46,1.084a.144.144,0,0,0-.044.172l.6,1.344a.236.236,0,0,0,.36.092c.5-.4.732-.6,1.372-1.076.4-.3,1.312-.936,1.86-1.34s.216-1-.044-.884a4.486,4.486,0,0,1-2.372.532A.4.4,0,0,0,222.776,266Z" transform="translate(-176.3 -217.984)" fill="#263238"/>
  <path id="Path_6651" data-name="Path 6651" d="M149.422,172.427c-1.556-.1-3.852,3.268-3.852,3.268l2.264,3.092a6.668,6.668,0,0,0,2.4-2.4C151.31,174.571,151.01,172.523,149.422,172.427Z" transform="translate(-130.886 -162.215)" fill="#dc2626"/>
  <path id="Path_6653" data-name="Path 6653" d="M153.108,180.18a5.646,5.646,0,0,0-2.128,3.12l.1.14a6.668,6.668,0,0,0,2.4-2.4q.1-.16.18-.324Z" transform="translate(-134.132 -166.868)" opacity="0.2"/>
  <path id="Path_6654" data-name="Path 6654" d="M163.418,170.653s.932,2.34-.7,14.4h-8.66c-.06-1.332.776-7.82-.508-14.084a22.355,22.355,0,0,1,2.9-.368c1.108-.052,4.8-.8,5.776-.712C163.51,170.005,163.418,170.653,163.418,170.653Z" transform="translate(-135.674 -160.689)" fill="#dc2626"/>
  <path id="Path_6656" data-name="Path 6656" d="M163.152,206l1.712,4s8.292,1.04,10.644,3.892,6.8,14.424,6.8,14.424l-2.216,1.884s-6.36-11.7-8.14-13.108-11.912-1.408-14.176-2.252-2.916-8.152-2.916-8.152Z" transform="translate(-136.46 -182.36)" fill="#303f46"/>
  <path id="Path_6657" data-name="Path 6657" d="M216.76,262.928l2.672-2.048.344.66-2.56,2.016Z" transform="translate(-173.6 -215.288)" fill="#dc2626"/>
  <g id="Group_2832" data-name="Group 2832" transform="translate(0 -10)">
    <path id="Path_6645" data-name="Path 6645" d="M140.124,294.644l-.54,1.052-3.264-.708.272-.988Z" transform="translate(-125.336 -225.16)" opacity="0.3"/>
    <path id="Path_6658" data-name="Path 6658" d="M216.76,262.928l2.672-2.048.344.66-2.56,2.016Z" transform="translate(-173.6 -205.288)" opacity="0.3"/>
  </g>
  <path id="Path_6659" data-name="Path 6659" d="M159.768,149.856s-.1-2.372-1.356-2.452a3.156,3.156,0,0,0-2.248,1.056,1.312,1.312,0,0,0-1.012-.492c-.712-.036-1.952,1.176-1.952,1.176s1.548-.952,2.2-.516c0,0-1.756.488-2.2,1.6a4,4,0,0,1-.92,1.5h.92l-.6,1.028s1.272,1.232,2.232,1.024l-.308.588a6.833,6.833,0,0,0,2.652.472c.768-.212.04-4.032.04-4.032Z" transform="translate(-134.912 -147.2)" fill="#263238"/>
  <path id="Path_6660" data-name="Path 6660" d="M176.408,179.808c-1.572-1.068-1.548-3.528-1.548-3.528l1.6.4C176.48,177.448,176.476,178.468,176.408,179.808Z" transform="translate(-148.46 -164.528)" opacity="0.2"/>
  <path id="Path_6661" data-name="Path 6661" d="M122.308,212.766l-10.684-1.8-2.764,8.224,1.768,3.208,11.664,1.536,2.364-8.956Z" transform="translate(-108.86 -185.342)" fill="#263238"/>
  <path id="Path_6662" data-name="Path 6662" d="M108.86,219.194l.688,1.252.156.276.924,1.68,11.664,1.536,2.364-8.956-1-.948-.308-.288-1.032-.98-10.688-1.8Z" transform="translate(-108.86 -185.342)" opacity="0.4"/>
  <path id="Path_6663" data-name="Path 6663" d="M128.8,214.982l-10.576-1.644-2.456-2.368,10.688,1.8Z" transform="translate(-113.006 -185.342)" fill="#fff" opacity="0.2"/>
  <path id="Path_6664" data-name="Path 6664" d="M114.08,213.338l-3.452,9.064-1.768-3.208,2.764-8.224Z" transform="translate(-108.86 -185.342)" fill="#fff" opacity="0.1"/>
  <path id="Path_6665" data-name="Path 6665" d="M110.58,222.054l.156.276,3.2-8.5,10.752,1.808-.308-.288-10.636-1.7Z" transform="translate(-109.892 -186.95)" fill="#263238"/>
  <path id="Path_6666" data-name="Path 6666" d="M131.972,215.2l-.54-.5-2.692-.488.472.54Z" transform="translate(-120.788 -187.286)" fill="#263238"/>
  <path id="Path_6667" data-name="Path 6667" d="M130.972,211.371s.124-2.824.048-3.012a35.691,35.691,0,0,0-4.148-.86c-.284-.06-1.532,2.688-1.532,2.688l.216.332.716.1s.908-2.372,1-2.428a27.131,27.131,0,0,1,3.088.5,19.2,19.2,0,0,1-.232,2.216l.244.356Z" transform="translate(-118.748 -183.259)" fill="#263238"/>
  <path id="Path_6668" data-name="Path 6668" d="M110.67,226.432l.8,1.028.076-.2.6-1.6.072-.192.128-.344s-.228.256-.54.548A3.368,3.368,0,0,1,110.67,226.432Z" transform="translate(-109.946 -193.832)" fill="#dc2626"/>
  <path id="Path_6669" data-name="Path 6669" d="M111.32,227.024l.6.748.6-1.6.072-.192A3.38,3.38,0,0,1,111.32,227.024Z" transform="translate(-110.336 -194.348)" fill="#fff" opacity="0.2"/>
  <path id="Path_6670" data-name="Path 6670" d="M113.47,225.676h.34l.2-.536S113.782,225.384,113.47,225.676Z" transform="translate(-111.626 -193.844)" opacity="0.2"/>
  <path id="Path_6671" data-name="Path 6671" d="M109.718,222.762l-.148,1.448a3.328,3.328,0,0,1,1.912-.252l.076-.2.464-1.244.052-.128A4.7,4.7,0,0,0,109.718,222.762Z" transform="translate(-109.286 -192.178)" fill="#dc2626"/>
  <path id="Path_6672" data-name="Path 6672" d="M113.74,215.6a5.552,5.552,0,0,0,1.088,1.464l.056-.152.144-.4.24-.66.116-.32.032-.092a6.087,6.087,0,0,1-.5-.924Z" transform="translate(-111.788 -187.472)" fill="#dc2626"/>
  <path id="Path_6673" data-name="Path 6673" d="M119.86,211.73a2.92,2.92,0,0,1,.336.732l.168.032.232.036.372.064.356.06.124.024a2.308,2.308,0,0,0-.584-1.508Z" transform="translate(-115.46 -185.462)" fill="#dc2626"/>
  <path id="Path_6674" data-name="Path 6674" d="M120.42,212.042a3.643,3.643,0,0,1,.28.728l.232.036a.252.252,0,1,1,.452-.052.244.244,0,0,1-.08.116l.356.06a2.344,2.344,0,0,0-.468-1.3Z" transform="translate(-115.796 -185.738)" fill="#fff" opacity="0.2"/>
  <path id="Path_6675" data-name="Path 6675" d="M110.042,223l-.092,1.172a4.74,4.74,0,0,1,1.836-.236l.464-1.244a4.348,4.348,0,0,0-2.208.308Zm1.284-.1a.332.332,0,1,1-.34.161A.332.332,0,0,1,111.326,222.9Z" transform="translate(-109.514 -192.357)" fill="#fff" opacity="0.2"/>
  <path id="Path_6676" data-name="Path 6676" d="M114.25,216.04a6.62,6.62,0,0,0,.94,1.248l.144-.4a.352.352,0,0,1,.224-.668h0l.116-.32a2.764,2.764,0,0,1-.488-.76Z" transform="translate(-112.094 -187.844)" fill="#fff" opacity="0.2"/>
  <path id="Path_6677" data-name="Path 6677" d="M203.73,151.368l.616-1.028,1.36,1.288a1.9,1.9,0,0,1-1.336.724Z" transform="translate(-165.782 -148.964)" fill="#e4897b"/>
  <path id="Path_6678" data-name="Path 6678" d="M206.222,146.9l.964,1.352-.556,1.312-1.36-1.288Z" transform="translate(-166.706 -146.9)" fill="#e4897b"/>
  <path id="Path_6679" data-name="Path 6679" d="M177.12,159.646a33.485,33.485,0,0,0,3.28-.848,13.34,13.34,0,0,0,2.968-1.3c.12-.072.152-.112.244-.176l.26-.244c.192-.184.4-.4.58-.592.38-.424.772-.86,1.148-1.308.772-.892,1.524-1.812,2.3-2.712l1.012.672c-.556,1.084-1.172,2.112-1.824,3.144-.332.508-.672,1.02-1.048,1.516-.188.252-.4.5-.6.752-.1.128-.236.256-.352.4a5.387,5.387,0,0,1-.452.4,13.416,13.416,0,0,1-3.468,1.784,21.875,21.875,0,0,1-3.64.972Z" transform="translate(-149.816 -150.242)" fill="#dc897c"/>
  <path id="Path_6680" data-name="Path 6680" d="M173.664,172.118c1.684,1.46,5.384-1.044,5.384-1.044l-1.476-3.644a21.05,21.05,0,0,0-4,.86C171.232,169.082,172.376,171,173.664,172.118Z" transform="translate(-146.876 -159.218)" fill="#dc2626"/>
</svg>
