<svg xmlns="http://www.w3.org/2000/svg" width="44.638" height="72.194" viewBox="0 0 44.638 72.194">
  <g id="Character_2" data-name="Character 2" transform="translate(0 0.643)">
    <path id="Path_6563" data-name="Path 6563" d="M244.974,200.484l-.9,1.752-.912,1.78-1.6-.584.8-1.564,1.008-1.968Z" transform="translate(-235.754 -133.54)" fill="#ffc2bc"/>
    <path id="Path_6564" data-name="Path 6564" d="M246.174,200.484l-.9,1.752-1.708-.368,1.008-1.968Z" transform="translate(-236.954 -133.54)" opacity="0.2"/>
    <path id="Path_6565" data-name="Path 6565" d="M319.724,90.836S314.484,51.4,308.06,34" transform="translate(-275.648 -34)" fill="none" stroke="#263238" stroke-linecap="round" stroke-linejoin="round" stroke-width="1"/>
    <path id="Path_6566" data-name="Path 6566" d="M311.9,167.752l1.7-.068.332-3.944-1.7.068Z" transform="translate(-277.952 -111.844)" fill="#ffc2bc"/>
    <path id="Path_6567" data-name="Path 6567" d="M312.925,171.26l-1.856-.06a.156.156,0,0,0-.152.112l-.4,1.5a.244.244,0,0,0,.232.308c.672,0,1.644,0,2.488.028.984.028,1.6,0,2.768.02.7,0,.92-.676.628-.748-1.32-.332-2.184-.272-3.3-1.012A.8.8,0,0,0,312.925,171.26Z" transform="translate(-277.117 -116.32)" fill="#263238"/>
    <path id="Path_6568" data-name="Path 6568" d="M314.172,163.74,314,165.772l-1.7.068.168-2.032Z" transform="translate(-278.192 -111.844)" opacity="0.2"/>
    <path id="Path_6569" data-name="Path 6569" d="M284.61,124.35c.432.824.464,9.508.464,11.712h2.94c.38-2.284,2.26-14.552-.4-16.3-2.928-1.932-10.352-1.268-10.352-1.268l-.536-1.084-1.072-2.16-6.144,2.3-1.34.5-.552.208h-.048v.164h0c.02.24.076.724.176,1.328a16.917,16.917,0,0,0,.488,2.144c.568,1.852,1.576,3.6,3.328,3.016.076-.024.152-.056.228-.088.144-.064.3-.124.46-.184a18.841,18.841,0,0,1,4.328-.852C280.29,123.45,284.282,123.73,284.61,124.35Z" transform="translate(-251.354 -82.75)" fill="#303f46"/>
    <path id="Path_6570" data-name="Path 6570" d="M313.826,166.212l-3.436.088-.02-1.1,3.776-.156Z" transform="translate(-277.034 -112.624)" fill="#dc2626"/>
    <path id="Path_6571" data-name="Path 6571" d="M242.438,208.049h-2.072a.148.148,0,0,0-.144.116l-.352,1.512a.248.248,0,0,0,.244.3c.668,0,1.156-.052,2-.052.516,0,2.072.052,2.8.052s.8-.7.52-.768a6.666,6.666,0,0,1-2.7-1.056A.4.4,0,0,0,242.438,208.049Z" transform="translate(-234.73 -138.429)" fill="#263238"/>
    <path id="Path_6572" data-name="Path 6572" d="M259.178,121.45l-.356,1.228c-.188.656-.448,1.548-.752,2.584l-.76,2.588c-1.3,4.38-2.944,9.848-3.856,12.444-1.816,5.152-7.892,14.316-7.892,14.316l-2.932-1.068s4.488-8.632,5.96-13.856c1.028-3.648,2.64-10.2,3.7-14.608l.508-2.112c.172-.72.312-1.308.4-1.72s.16-.676.16-.676l1.18.18Z" transform="translate(-236.39 -85.942)" fill="#303f46"/>
    <path id="Path_6573" data-name="Path 6573" d="M245.59,202.718l-3.44-1.264.388-1.024,3.668,1.108Z" transform="translate(-236.102 -133.858)" fill="#dc2626"/>
    <path id="Path_6574" data-name="Path 6574" d="M276.258,117.456l-2.6,3.028-.356-.968-.4-1.056-.364,3.64-4.776-.156-1-.032.508-2.112c-.1-.6-.156-1.088-.176-1.328h0l.032-.18.552-.208c.1-.432.16-.676.16-.676l1.18.18,6.156-2.288Z" transform="translate(-250.874 -82.78)" opacity="0.2"/>
    <path id="Path_6575" data-name="Path 6575" d="M282.588,135.742a16.919,16.919,0,0,0-4.8,1.036c-.076.032-.152.064-.228.088l.348-1.712A13.45,13.45,0,0,1,282.588,135.742Z" transform="translate(-257.348 -94.686)" opacity="0.2"/>
    <path id="Path_6576" data-name="Path 6576" d="M231.388,123.156l-1.044,1.384-.884-1.7s1-1.176,1.6-.632Z" transform="translate(-228.488 -86.836)" fill="#ffc2bc"/>
    <path id="Path_6577" data-name="Path 6577" d="M227.29,126.33l-.26-1.724.972-.616.884,1.708Z" transform="translate(-227.03 -87.994)" fill="#ffc2bc"/>
    <path id="Path_6578" data-name="Path 6578" d="M233.9,122.722l-.292.148-.432-1.1.464-.224Z" transform="translate(-230.72 -86.53)" fill="#fff"/>
    <path id="Path_6579" data-name="Path 6579" d="M245.872,96.384q-.228.4-.468.768-.6.984-1.264,1.936l-.364.524c-.368.528-.756,1.044-1.172,1.56-.208.256-.42.516-.656.772a9.034,9.034,0,0,1-.756.76,16.515,16.515,0,0,1-3.352,2.212,25.883,25.883,0,0,1-3.6,1.528l-.52-1.168c.52-.316,1.06-.64,1.576-.976s1.04-.668,1.54-1.02.992-.708,1.456-1.08a13.569,13.569,0,0,0,1.3-1.156,21.05,21.05,0,0,0,2.068-2.856c.668-1.036,1.512-2.852,2.172-3.888Z" transform="translate(-231.044 -70.18)" fill="#dc2626"/>
    <path id="Path_6580" data-name="Path 6580" d="M261.034,100.734q-.6.984-1.264,1.936a5.6,5.6,0,0,1,.684-2.4A1.108,1.108,0,0,1,261.034,100.734Z" transform="translate(-246.674 -73.762)" opacity="0.2"/>
    <path id="Path_6581" data-name="Path 6581" d="M318.53,88.311,317.37,89.4l.164,1c.424.56,1.4-.136,1.628-.308a.488.488,0,0,1,.116-.068l.616-.252a.516.516,0,0,0,.316-.564l-.12-.736a.516.516,0,0,0-.616-.424l-.692.14a.524.524,0,0,0-.252.128Z" transform="translate(-281.234 -66.419)" fill="#ffc2bc"/>
    <path id="Path_6582" data-name="Path 6582" d="M316.7,91.33l.32-.08.184,1.164-.5.116Z" transform="translate(-280.832 -68.35)" fill="#fff"/>
    <path id="Path_6583" data-name="Path 6583" d="M294.684,86.764a26.116,26.116,0,0,1-3.856.52,16.26,16.26,0,0,1-4-.184,8.989,8.989,0,0,1-1.04-.264c-.336-.1-.648-.216-.96-.332-.62-.228-1.2-.472-1.8-.74l-.708-.32c-.536-.248-1.064-.5-1.6-.772-.4-.192-.772-.4-1.156-.608l1.028-2.444c1.1.552,2.4,1.3,3.5,1.848a20.275,20.275,0,0,0,3.244,1.392,13.11,13.11,0,0,0,1.7.332c.592.084,1.2.136,1.8.184s1.228.076,1.844.084,1.248.028,1.856.036Z" transform="translate(-258.548 -62.572)" fill="#dc2626"/>
    <path id="Path_6584" data-name="Path 6584" d="M283.708,88.318c-.536-.248-1.064-.5-1.6-.772L281.9,86.41a4,4,0,0,1,1.808,1.908Z" transform="translate(-259.952 -65.446)" opacity="0.2"/>
    <path id="Path_6585" data-name="Path 6585" d="M259.88,86.94a32.214,32.214,0,0,1,1.576,5.016c.288,1.2,1.308,2.4,1.484,3.5a30.742,30.742,0,0,0,.72,3.6c1.22-.656,4.912-1.468,7.388-2.8.1-9.968-2.572-13.856-2.572-13.856a16.857,16.857,0,0,0-2,.644l-.432.176a38.306,38.306,0,0,0-3.48,1.872c-.22.132-.44.268-.652.4C260.824,86.2,259.88,86.94,259.88,86.94Z" transform="translate(-246.74 -63.04)" fill="#dc2626"/>
    <path id="Path_6586" data-name="Path 6586" d="M259.88,86.94a32.214,32.214,0,0,1,1.576,5.016c.288,1.2,1.308,2.4,1.484,3.5a30.742,30.742,0,0,0,.72,3.6c1.22-.656,4.912-1.468,7.388-2.8.1-9.968-2.572-13.856-2.572-13.856a16.857,16.857,0,0,0-2,.644l-.432.176a38.306,38.306,0,0,0-3.48,1.872c-.22.132-.44.268-.652.4C260.824,86.2,259.88,86.94,259.88,86.94Z" transform="translate(-246.74 -63.04)" fill="#fff" opacity="0.7"/>
    <path id="Path_6587" data-name="Path 6587" d="M274.962,91.828l.152-.924-.636-.044-.388.432Z" transform="translate(-255.266 -68.116)" fill="#dc2626"/>
    <path id="Path_6588" data-name="Path 6588" d="M269.7,83.322c-1.176.656-2.34-.108-3.092-.632l-.08-.056a2.778,2.778,0,0,0,.256-1.944,11.062,11.062,0,0,0-.656-2.4l2.692,1.544c0,.184-.032.348-.04.492-.036.348-.04.584.152.736a1.768,1.768,0,0,0,.98.22C270.222,81.638,270.51,82.87,269.7,83.322Z" transform="translate(-250.49 -60.574)" fill="#ffc2bc"/>
    <path id="Path_6589" data-name="Path 6589" d="M261.424,85.03a70.519,70.519,0,0,0,5.868,5.46s-.184-6.252-1.3-7.912l2.3-.968a38.028,38.028,0,0,1,2.532,13.076l1,2.056-2.8,2.848-.9-2.108-.608,3.484-5.776.516.708-4-3.412-10.8Z" transform="translate(-246.236 -62.566)" fill="#dc2626"/>
    <path id="Path_6590" data-name="Path 6590" d="M275.51,92.486a18.256,18.256,0,0,1,.744,4.184l1.032.536.184-.8s-.908-3.516-1.744-4.136Z" transform="translate(-256.118 -68.962)" fill="#dc2626"/>
    <path id="Path_6591" data-name="Path 6591" d="M264.04,86.141a76.723,76.723,0,0,0,5.728,5.752s-.436-6.288-1.408-7.872c0,0,.668-.46,2.092.932l-.712,1.32,1.264.872a37.353,37.353,0,0,1-1.264,6.948,10.062,10.062,0,0,0,.08-1.428l-4.964-2.748.22-1.524-1.876-.076S263.408,86.521,264.04,86.141Z" transform="translate(-248.732 -63.969)" fill="#dc2626"/>
    <path id="Path_6592" data-name="Path 6592" d="M264.04,86.141a76.723,76.723,0,0,0,5.728,5.752s-.436-6.288-1.408-7.872c0,0,.668-.46,2.092.932l-.712,1.32,1.264.872a37.353,37.353,0,0,1-1.264,6.948,10.062,10.062,0,0,0,.08-1.428l-4.964-2.748.22-1.524-1.876-.076S263.408,86.521,264.04,86.141Z" transform="translate(-248.732 -63.969)" fill="#fff" opacity="0.2"/>
    <path id="Path_6593" data-name="Path 6593" d="M291.556,34.783a8.78,8.78,0,0,0-3.74.36c-1.34.632-2.688,2.692-4.864,2.892s-2.612-.512-2.612-.512,1.916,3.4,5.6,3.36,5.6-.64,7.772.728C293.72,41.607,292.048,35.843,291.556,34.783Z" transform="translate(-259.016 -34.435)" fill="#dc2626"/>
    <path id="Path_6594" data-name="Path 6594" d="M269.534,84.041a2.128,2.128,0,0,1-2.1,1.656,1.38,1.38,0,0,1-.228,0l-.08-.056a2.778,2.778,0,0,0,.256-1.944,2.672,2.672,0,0,1,2-.372C269.346,83.653,269.342,83.889,269.534,84.041Z" transform="translate(-251.09 -63.561)" opacity="0.2"/>
    <g id="Group_2833" data-name="Group 2833">
      <path id="Path_6595" data-name="Path 6595" d="M270.014,88.928a2.82,2.82,0,0,1-.3,1.4c-.74-.1-2.952-1.2-3.064-2.112a1.176,1.176,0,0,1,.344-.572A5.248,5.248,0,0,0,270.014,88.928Z" transform="translate(-250.802 -66.184)" fill="#fff"/>
      <path id="Path_6596" data-name="Path 6596" d="M273.866,87.15a2.932,2.932,0,0,1,1.124.572,5.4,5.4,0,0,0-.872-3.036,2.044,2.044,0,0,0-1.048.176S274.278,86.006,273.866,87.15Z" transform="translate(-254.654 -64.405)" fill="#fff"/>
    </g>
    <path id="Path_6597" data-name="Path 6597" d="M260.246,75.556c-.044.684.4,1.964,1.168,1.32S260.322,74.38,260.246,75.556Z" transform="translate(-246.958 -58.704)" fill="#263238"/>
    <path id="Path_6598" data-name="Path 6598" d="M265.427,72.992c.5,1.6.868,2.528.376,3.628a2.257,2.257,0,0,1-3.94.216c-.872-1.292-1.54-3.708-.224-4.9a2.324,2.324,0,0,1,3.788,1.056Z" transform="translate(-247.351 -56.4)" fill="#ffc2bc"/>
    <path id="Path_6599" data-name="Path 6599" d="M269.662,69.225c-.16-1.048-1.4-.9-2.132-.348h0v2.068a5.008,5.008,0,0,0,.8-.48s.284,1.548,1.232,2C270.77,71.293,270.87,69.5,269.662,69.225Z" transform="translate(-251.33 -54.669)" fill="#263238"/>
    <path id="Path_6600" data-name="Path 6600" d="M272.788,77.092a1.6,1.6,0,0,1-.4,1.148c-.38.4-.868.136-1.008-.376s-.084-1.228.4-1.448a.728.728,0,0,1,1.008.676Z" transform="translate(-253.6 -59.416)" fill="#ffc2bc"/>
    <path id="Path_6601" data-name="Path 6601" d="M266.149,78.507a.237.237,0,0,1-.068.288c-.068.032-.192-.048-.24-.176a.235.235,0,0,1,.068-.288C265.977,78.3,266.1,78.379,266.149,78.507Z" transform="translate(-250.305 -60.595)" fill="#263238"/>
    <path id="Path_6602" data-name="Path 6602" d="M262.509,79.837c.052.128.02.256-.064.288s-.192-.048-.24-.176-.02-.26.064-.288S262.457,79.709,262.509,79.837Z" transform="translate(-248.121 -61.393)" fill="#263238"/>
    <path id="Path_6603" data-name="Path 6603" d="M263.868,79.84a4.709,4.709,0,0,1-.228,1.288.8.8,0,0,0,.652-.12Z" transform="translate(-248.996 -61.504)" fill="#ed893e"/>
    <path id="Path_6604" data-name="Path 6604" d="M267.132,82.25a.881.881,0,0,1-.164.072.04.04,0,0,1-.052-.024.036.036,0,0,1,.024-.048,1.076,1.076,0,0,0,.684-.7.04.04,0,0,1,.048-.028.036.036,0,0,1,.028.048,1.112,1.112,0,0,1-.568.684Z" transform="translate(-250.96 -62.51)" fill="#263238"/>
    <path id="Path_6605" data-name="Path 6605" d="M266.175,76.791a.088.088,0,0,1-.084,0,.648.648,0,0,0-.58-.076.08.08,0,0,1-.064-.144.8.8,0,0,1,.732.084.084.084,0,0,1,.024.112A.092.092,0,0,1,266.175,76.791Z" transform="translate(-250.059 -59.511)" fill="#263238"/>
    <path id="Path_6606" data-name="Path 6606" d="M260.819,78.359h-.048a.08.08,0,0,1-.072-.088.8.8,0,0,1,.4-.624.081.081,0,0,1,.076.144.612.612,0,0,0-.3.5.08.08,0,0,1-.056.072Z" transform="translate(-247.231 -60.183)" fill="#263238"/>
    <path id="Path_6607" data-name="Path 6607" d="M261.916,69.862a3.22,3.22,0,0,1-2,.992,2.4,2.4,0,0,0,.716-.492s-1.932.836-2.884.4-.844-.908-.844-.908.108.276,1.032.248c0,0-.8-.528-.476-1.264a.592.592,0,0,0,.476.316,3.728,3.728,0,0,1,2.856-1.688c2.076-.24,2.5.584,2.588,1.2S261.916,69.862,261.916,69.862Z" transform="translate(-244.952 -54.054)" fill="#263238"/>
  </g>
</svg>
