<svg id="Coin_stack" data-name="Coin stack" xmlns="http://www.w3.org/2000/svg" width="103.772" height="74.476" viewBox="0 0 103.772 74.476">
  <rect id="Rectangle_1607" data-name="Rectangle 1607" width="29.328" height="7.464" rx="1.26" transform="translate(73.244 67.012)" fill="#455a64"/>
  <rect id="Rectangle_1608" data-name="Rectangle 1608" width="1.16" height="6.668" transform="translate(74.556 67.444)" opacity="0.2"/>
  <rect id="Rectangle_1609" data-name="Rectangle 1609" width="0.844" height="6.668" transform="translate(77.508 67.412)" opacity="0.2"/>
  <rect id="Rectangle_1610" data-name="Rectangle 1610" width="0.424" height="6.668" transform="translate(80.356 67.444)" opacity="0.2"/>
  <rect id="Rectangle_1611" data-name="Rectangle 1611" width="0.212" height="6.668" transform="translate(83.84 67.412)" opacity="0.2"/>
  <rect id="Rectangle_1612" data-name="Rectangle 1612" width="1.16" height="6.668" transform="translate(101.26 74.076) rotate(180)" opacity="0.2"/>
  <rect id="Rectangle_1613" data-name="Rectangle 1613" width="0.844" height="6.668" transform="translate(98.308 74.108) rotate(180)" opacity="0.2"/>
  <rect id="Rectangle_1614" data-name="Rectangle 1614" width="0.42" height="6.668" transform="translate(95.46 74.076) rotate(180)" opacity="0.2"/>
  <rect id="Rectangle_1615" data-name="Rectangle 1615" width="0.212" height="6.668" transform="translate(91.976 74.108) rotate(180)" opacity="0.2"/>
  <rect id="Rectangle_1616" data-name="Rectangle 1616" width="0.104" height="6.668" transform="translate(87.96 74.108) rotate(180)" opacity="0.2"/>
  <path id="Path_6608" data-name="Path 6608" d="M323.672,345.324h-27.7a.352.352,0,0,1-.352-.352h0a.352.352,0,0,1,.352-.352h27.7a.348.348,0,0,1,.352.352h0a.348.348,0,0,1-.352.352Z" transform="translate(-221.884 -277.176)" fill="#fff" opacity="0.2"/>
  <rect id="Rectangle_1617" data-name="Rectangle 1617" width="29.328" height="7.464" rx="1.26" transform="translate(74.044 59.568)" fill="#455a64"/>
  <rect id="Rectangle_1618" data-name="Rectangle 1618" width="1.16" height="6.668" transform="translate(75.356 59.996)" opacity="0.2"/>
  <rect id="Rectangle_1619" data-name="Rectangle 1619" width="0.844" height="6.668" transform="translate(78.312 59.964)" opacity="0.2"/>
  <rect id="Rectangle_1620" data-name="Rectangle 1620" width="0.42" height="6.668" transform="translate(81.16 59.996)" opacity="0.2"/>
  <rect id="Rectangle_1621" data-name="Rectangle 1621" width="0.212" height="6.668" transform="translate(84.64 59.964)" opacity="0.2"/>
  <rect id="Rectangle_1622" data-name="Rectangle 1622" width="1.16" height="6.668" transform="translate(102.064 66.632) rotate(180)" opacity="0.2"/>
  <rect id="Rectangle_1623" data-name="Rectangle 1623" width="0.844" height="6.668" transform="translate(99.108 66.668) rotate(180)" opacity="0.2"/>
  <rect id="Rectangle_1624" data-name="Rectangle 1624" width="0.424" height="6.668" transform="translate(96.26 66.632) rotate(180)" opacity="0.2"/>
  <rect id="Rectangle_1625" data-name="Rectangle 1625" width="0.212" height="6.668" transform="translate(92.776 66.668) rotate(180)" opacity="0.2"/>
  <rect id="Rectangle_1626" data-name="Rectangle 1626" width="0.104" height="6.668" transform="translate(88.76 66.668) rotate(180)" opacity="0.2"/>
  <path id="Path_6609" data-name="Path 6609" d="M325.672,326.708h-27.7a.356.356,0,0,1-.352-.352h0a.356.356,0,0,1,.352-.356h27.7a.352.352,0,0,1,.352.356h0A.352.352,0,0,1,325.672,326.708Z" transform="translate(-223.084 -266.004)" fill="#fff" opacity="0.2"/>
  <rect id="Rectangle_1627" data-name="Rectangle 1627" width="29.328" height="7.464" rx="1.26" transform="translate(74.044 52.12)" fill="#455a64"/>
  <rect id="Rectangle_1628" data-name="Rectangle 1628" width="1.16" height="6.668" transform="translate(75.356 52.552)" opacity="0.2"/>
  <rect id="Rectangle_1629" data-name="Rectangle 1629" width="0.844" height="6.668" transform="translate(78.312 52.52)" opacity="0.2"/>
  <rect id="Rectangle_1630" data-name="Rectangle 1630" width="0.42" height="6.668" transform="translate(81.16 52.552)" opacity="0.2"/>
  <rect id="Rectangle_1631" data-name="Rectangle 1631" width="0.212" height="6.668" transform="translate(84.64 52.52)" opacity="0.2"/>
  <rect id="Rectangle_1632" data-name="Rectangle 1632" width="1.16" height="6.668" transform="translate(102.064 59.184) rotate(180)" opacity="0.2"/>
  <rect id="Rectangle_1633" data-name="Rectangle 1633" width="0.844" height="6.668" transform="translate(99.108 59.22) rotate(180)" opacity="0.2"/>
  <rect id="Rectangle_1634" data-name="Rectangle 1634" width="0.424" height="6.668" transform="translate(96.26 59.184) rotate(180)" opacity="0.2"/>
  <rect id="Rectangle_1635" data-name="Rectangle 1635" width="0.212" height="6.668" transform="translate(92.776 59.22) rotate(180)" opacity="0.2"/>
  <rect id="Rectangle_1636" data-name="Rectangle 1636" width="0.104" height="6.668" transform="translate(88.76 59.22) rotate(180)" opacity="0.2"/>
  <path id="Path_6610" data-name="Path 6610" d="M325.672,308.094h-27.7a.352.352,0,0,1-.352-.352h0a.352.352,0,0,1,.352-.352h27.7a.348.348,0,0,1,.352.352h0a.348.348,0,0,1-.352.352Z" transform="translate(-223.084 -254.838)" fill="#fff" opacity="0.2"/>
  <rect id="Rectangle_1637" data-name="Rectangle 1637" width="29.328" height="7.464" rx="1.26" transform="translate(73.244 44.676)" fill="#455a64"/>
  <rect id="Rectangle_1638" data-name="Rectangle 1638" width="1.16" height="6.668" transform="translate(74.556 45.108)" opacity="0.2"/>
  <rect id="Rectangle_1639" data-name="Rectangle 1639" width="0.844" height="6.668" transform="translate(77.508 45.072)" opacity="0.2"/>
  <rect id="Rectangle_1640" data-name="Rectangle 1640" width="0.424" height="6.668" transform="translate(80.356 45.108)" opacity="0.2"/>
  <rect id="Rectangle_1641" data-name="Rectangle 1641" width="0.212" height="6.668" transform="translate(83.84 45.072)" opacity="0.2"/>
  <rect id="Rectangle_1642" data-name="Rectangle 1642" width="1.16" height="6.668" transform="translate(101.26 51.74) rotate(180)" opacity="0.2"/>
  <rect id="Rectangle_1643" data-name="Rectangle 1643" width="0.844" height="6.668" transform="translate(98.308 51.772) rotate(180)" opacity="0.2"/>
  <rect id="Rectangle_1644" data-name="Rectangle 1644" width="0.42" height="6.668" transform="translate(95.46 51.74) rotate(180)" opacity="0.2"/>
  <rect id="Rectangle_1645" data-name="Rectangle 1645" width="0.212" height="6.668" transform="translate(91.976 51.772) rotate(180)" opacity="0.2"/>
  <rect id="Rectangle_1646" data-name="Rectangle 1646" width="0.104" height="6.668" transform="translate(87.96 51.772) rotate(180)" opacity="0.2"/>
  <path id="Path_6611" data-name="Path 6611" d="M323.672,289.484h-27.7a.356.356,0,0,1-.352-.352h0a.352.352,0,0,1,.352-.352h27.7a.348.348,0,0,1,.352.352h0A.352.352,0,0,1,323.672,289.484Z" transform="translate(-221.884 -243.672)" fill="#fff" opacity="0.2"/>
  <rect id="Rectangle_1647" data-name="Rectangle 1647" width="29.328" height="7.464" rx="1.26" transform="translate(72.044 37.228)" fill="#455a64"/>
  <rect id="Rectangle_1648" data-name="Rectangle 1648" width="1.16" height="6.668" transform="translate(73.356 37.66)" opacity="0.2"/>
  <rect id="Rectangle_1649" data-name="Rectangle 1649" width="0.844" height="6.668" transform="translate(76.308 37.628)" opacity="0.2"/>
  <rect id="Rectangle_1650" data-name="Rectangle 1650" width="0.42" height="6.668" transform="translate(79.156 37.66)" opacity="0.2"/>
  <rect id="Rectangle_1651" data-name="Rectangle 1651" width="0.212" height="6.668" transform="translate(82.64 37.628)" opacity="0.2"/>
  <rect id="Rectangle_1652" data-name="Rectangle 1652" width="1.16" height="6.668" transform="translate(100.06 44.292) rotate(180)" opacity="0.2"/>
  <rect id="Rectangle_1653" data-name="Rectangle 1653" width="0.844" height="6.668" transform="translate(97.104 44.328) rotate(180)" opacity="0.2"/>
  <rect id="Rectangle_1654" data-name="Rectangle 1654" width="0.42" height="6.668" transform="translate(94.26 44.292) rotate(180)" opacity="0.2"/>
  <rect id="Rectangle_1655" data-name="Rectangle 1655" width="0.212" height="6.668" transform="translate(90.78 44.328) rotate(180)" opacity="0.2"/>
  <rect id="Rectangle_1656" data-name="Rectangle 1656" width="0.104" height="6.668" transform="translate(86.76 44.328) rotate(180)" opacity="0.2"/>
  <path id="Path_6612" data-name="Path 6612" d="M320.672,270.864h-27.7a.348.348,0,0,1-.352-.352h0a.352.352,0,0,1,.352-.352h27.7a.352.352,0,0,1,.352.352h0a.348.348,0,0,1-.352.352Z" transform="translate(-220.084 -232.5)" fill="#fff" opacity="0.2"/>
  <rect id="Rectangle_1657" data-name="Rectangle 1657" width="29.328" height="7.464" rx="1.26" transform="translate(73.244 29.784)" fill="#455a64"/>
  <rect id="Rectangle_1658" data-name="Rectangle 1658" width="1.16" height="6.668" transform="translate(74.556 30.216)" opacity="0.2"/>
  <rect id="Rectangle_1659" data-name="Rectangle 1659" width="0.844" height="6.668" transform="translate(77.508 30.18)" opacity="0.2"/>
  <rect id="Rectangle_1660" data-name="Rectangle 1660" width="0.424" height="6.668" transform="translate(80.356 30.216)" opacity="0.2"/>
  <rect id="Rectangle_1661" data-name="Rectangle 1661" width="0.212" height="6.668" transform="translate(83.84 30.18)" opacity="0.2"/>
  <rect id="Rectangle_1662" data-name="Rectangle 1662" width="1.16" height="6.668" transform="translate(101.26 36.852) rotate(180)" opacity="0.2"/>
  <rect id="Rectangle_1663" data-name="Rectangle 1663" width="0.844" height="6.668" transform="translate(98.308 36.88) rotate(180)" opacity="0.2"/>
  <rect id="Rectangle_1664" data-name="Rectangle 1664" width="0.42" height="6.668" transform="translate(95.46 36.852) rotate(180)" opacity="0.2"/>
  <rect id="Rectangle_1665" data-name="Rectangle 1665" width="0.212" height="6.668" transform="translate(91.976 36.88) rotate(180)" opacity="0.2"/>
  <rect id="Rectangle_1666" data-name="Rectangle 1666" width="0.104" height="6.668" transform="translate(87.96 36.88) rotate(180)" opacity="0.2"/>
  <path id="Path_6613" data-name="Path 6613" d="M323.672,252.254h-27.7a.356.356,0,0,1-.352-.352h0a.352.352,0,0,1,.352-.352h27.7a.348.348,0,0,1,.352.352h0A.352.352,0,0,1,323.672,252.254Z" transform="translate(-221.884 -221.334)" fill="#fff" opacity="0.2"/>
  <rect id="Rectangle_1667" data-name="Rectangle 1667" width="29.328" height="7.464" rx="1.26" transform="translate(73.244 22.336)" fill="#455a64"/>
  <rect id="Rectangle_1668" data-name="Rectangle 1668" width="1.16" height="6.668" transform="translate(74.556 22.768)" opacity="0.2"/>
  <rect id="Rectangle_1669" data-name="Rectangle 1669" width="0.844" height="6.668" transform="translate(77.508 22.736)" opacity="0.2"/>
  <rect id="Rectangle_1670" data-name="Rectangle 1670" width="0.424" height="6.668" transform="translate(80.356 22.768)" opacity="0.2"/>
  <rect id="Rectangle_1671" data-name="Rectangle 1671" width="0.212" height="6.668" transform="translate(83.84 22.736)" opacity="0.2"/>
  <rect id="Rectangle_1672" data-name="Rectangle 1672" width="1.16" height="6.668" transform="translate(101.26 29.404) rotate(180)" opacity="0.2"/>
  <rect id="Rectangle_1673" data-name="Rectangle 1673" width="0.844" height="6.668" transform="translate(98.308 29.436) rotate(180)" opacity="0.2"/>
  <rect id="Rectangle_1674" data-name="Rectangle 1674" width="0.42" height="6.668" transform="translate(95.46 29.404) rotate(180)" opacity="0.2"/>
  <rect id="Rectangle_1675" data-name="Rectangle 1675" width="0.212" height="6.668" transform="translate(91.976 29.436) rotate(180)" opacity="0.2"/>
  <rect id="Rectangle_1676" data-name="Rectangle 1676" width="0.104" height="6.668" transform="translate(87.96 29.436) rotate(180)" opacity="0.2"/>
  <path id="Path_6614" data-name="Path 6614" d="M323.672,233.634h-27.7a.352.352,0,0,1-.352-.352h0a.356.356,0,0,1,.352-.352h27.7a.352.352,0,0,1,.352.352h0a.348.348,0,0,1-.352.352Z" transform="translate(-221.884 -210.162)" fill="#fff" opacity="0.2"/>
  <rect id="Rectangle_1677" data-name="Rectangle 1677" width="29.328" height="7.464" rx="1.26" transform="translate(74.444 14.892)" fill="#455a64"/>
  <rect id="Rectangle_1678" data-name="Rectangle 1678" width="1.16" height="6.668" transform="translate(75.756 15.324)" opacity="0.2"/>
  <rect id="Rectangle_1679" data-name="Rectangle 1679" width="0.844" height="6.668" transform="translate(78.712 15.292)" opacity="0.2"/>
  <rect id="Rectangle_1680" data-name="Rectangle 1680" width="0.424" height="6.668" transform="translate(81.56 15.324)" opacity="0.2"/>
  <rect id="Rectangle_1681" data-name="Rectangle 1681" width="0.212" height="6.668" transform="translate(85.04 15.292)" opacity="0.2"/>
  <rect id="Rectangle_1682" data-name="Rectangle 1682" width="1.16" height="6.668" transform="translate(102.464 21.956) rotate(180)" opacity="0.2"/>
  <rect id="Rectangle_1683" data-name="Rectangle 1683" width="0.844" height="6.668" transform="translate(99.508 21.988) rotate(180)" opacity="0.2"/>
  <rect id="Rectangle_1684" data-name="Rectangle 1684" width="0.42" height="6.668" transform="translate(96.66 21.956) rotate(180)" opacity="0.2"/>
  <rect id="Rectangle_1685" data-name="Rectangle 1685" width="0.212" height="6.668" transform="translate(93.176 21.988) rotate(180)" opacity="0.2"/>
  <rect id="Rectangle_1686" data-name="Rectangle 1686" width="0.104" height="6.668" transform="translate(89.164 21.988) rotate(180)" opacity="0.2"/>
  <path id="Path_6615" data-name="Path 6615" d="M326.672,215.024h-27.7a.356.356,0,0,1-.356-.352h0a.352.352,0,0,1,.356-.352h27.7a.352.352,0,0,1,.356.352h0a.356.356,0,0,1-.356.352Z" transform="translate(-223.684 -198.996)" fill="#fff" opacity="0.2"/>
  <rect id="Rectangle_1687" data-name="Rectangle 1687" width="29.328" height="7.464" rx="1.26" transform="translate(72.444 7.448)" fill="#455a64"/>
  <rect id="Rectangle_1688" data-name="Rectangle 1688" width="1.16" height="6.668" transform="translate(73.756 7.876)" opacity="0.2"/>
  <rect id="Rectangle_1689" data-name="Rectangle 1689" width="0.844" height="6.668" transform="translate(76.708 7.844)" opacity="0.2"/>
  <rect id="Rectangle_1690" data-name="Rectangle 1690" width="0.42" height="6.668" transform="translate(79.556 7.876)" opacity="0.2"/>
  <rect id="Rectangle_1691" data-name="Rectangle 1691" width="0.212" height="6.668" transform="translate(83.04 7.844)" opacity="0.2"/>
  <rect id="Rectangle_1692" data-name="Rectangle 1692" width="1.16" height="6.668" transform="translate(100.46 14.512) rotate(180)" opacity="0.2"/>
  <rect id="Rectangle_1693" data-name="Rectangle 1693" width="0.844" height="6.668" transform="translate(97.504 14.544) rotate(180)" opacity="0.2"/>
  <rect id="Rectangle_1694" data-name="Rectangle 1694" width="0.42" height="6.668" transform="translate(94.66 14.512) rotate(180)" opacity="0.2"/>
  <rect id="Rectangle_1695" data-name="Rectangle 1695" width="0.212" height="6.668" transform="translate(91.176 14.544) rotate(180)" opacity="0.2"/>
  <rect id="Rectangle_1696" data-name="Rectangle 1696" width="0.104" height="6.668" transform="translate(87.16 14.544) rotate(180)" opacity="0.2"/>
  <path id="Path_6616" data-name="Path 6616" d="M321.672,196.4h-27.7a.352.352,0,0,1-.352-.352h0a.356.356,0,0,1,.352-.352h27.7a.352.352,0,0,1,.352.352h0a.348.348,0,0,1-.352.352Z" transform="translate(-220.684 -187.824)" fill="#fff" opacity="0.2"/>
  <rect id="Rectangle_1697" data-name="Rectangle 1697" width="29.328" height="7.464" rx="1.26" transform="translate(71.644)" fill="#455a64"/>
  <rect id="Rectangle_1698" data-name="Rectangle 1698" width="1.16" height="6.668" transform="translate(72.956 0.432)" opacity="0.2"/>
  <rect id="Rectangle_1699" data-name="Rectangle 1699" width="0.844" height="6.668" transform="translate(75.908 0.4)" opacity="0.2"/>
  <rect id="Rectangle_1700" data-name="Rectangle 1700" width="0.424" height="6.668" transform="translate(78.756 0.432)" opacity="0.2"/>
  <rect id="Rectangle_1701" data-name="Rectangle 1701" width="0.212" height="6.668" transform="translate(82.24 0.4)" opacity="0.2"/>
  <rect id="Rectangle_1702" data-name="Rectangle 1702" width="1.16" height="6.668" transform="translate(99.66 7.064) rotate(180)" opacity="0.2"/>
  <rect id="Rectangle_1703" data-name="Rectangle 1703" width="0.844" height="6.668" transform="translate(96.704 7.096) rotate(180)" opacity="0.2"/>
  <rect id="Rectangle_1704" data-name="Rectangle 1704" width="0.42" height="6.668" transform="translate(93.856 7.064) rotate(180)" opacity="0.2"/>
  <rect id="Rectangle_1705" data-name="Rectangle 1705" width="0.212" height="6.668" transform="translate(90.38 7.096) rotate(180)" opacity="0.2"/>
  <rect id="Rectangle_1706" data-name="Rectangle 1706" width="0.104" height="6.668" transform="translate(86.36 7.096) rotate(180)" opacity="0.2"/>
  <path id="Path_6617" data-name="Path 6617" d="M319.672,177.794h-27.7a.348.348,0,0,1-.352-.352h0a.348.348,0,0,1,.352-.352h27.7a.348.348,0,0,1,.352.352h0a.348.348,0,0,1-.352.352Z" transform="translate(-219.484 -176.658)" fill="#fff" opacity="0.2"/>
  <rect id="Rectangle_1707" data-name="Rectangle 1707" width="29.328" height="7.464" rx="1.26" transform="translate(37.224 67.012)" fill="#455a64"/>
  <rect id="Rectangle_1708" data-name="Rectangle 1708" width="1.16" height="6.668" transform="translate(38.532 67.444)" opacity="0.2"/>
  <rect id="Rectangle_1709" data-name="Rectangle 1709" width="0.844" height="6.668" transform="translate(41.488 67.412)" opacity="0.2"/>
  <rect id="Rectangle_1710" data-name="Rectangle 1710" width="0.42" height="6.668" transform="translate(44.336 67.444)" opacity="0.2"/>
  <rect id="Rectangle_1711" data-name="Rectangle 1711" width="0.212" height="6.668" transform="translate(47.816 67.412)" opacity="0.2"/>
  <rect id="Rectangle_1712" data-name="Rectangle 1712" width="1.16" height="6.668" transform="translate(65.24 74.076) rotate(180)" opacity="0.2"/>
  <rect id="Rectangle_1713" data-name="Rectangle 1713" width="0.844" height="6.668" transform="translate(62.284 74.108) rotate(180)" opacity="0.2"/>
  <rect id="Rectangle_1714" data-name="Rectangle 1714" width="0.42" height="6.668" transform="translate(59.436 74.076) rotate(180)" opacity="0.2"/>
  <rect id="Rectangle_1715" data-name="Rectangle 1715" width="0.212" height="6.668" transform="translate(55.956 74.108) rotate(180)" opacity="0.2"/>
  <rect id="Rectangle_1716" data-name="Rectangle 1716" width="0.104" height="6.668" transform="translate(51.94 74.108) rotate(180)" opacity="0.2"/>
  <path id="Path_6618" data-name="Path 6618" d="M233.622,345.324h-27.7a.348.348,0,0,1-.352-.352h0a.348.348,0,0,1,.352-.352h27.7a.352.352,0,0,1,.352.352h0A.352.352,0,0,1,233.622,345.324Z" transform="translate(-167.854 -277.176)" fill="#fff" opacity="0.2"/>
  <rect id="Rectangle_1717" data-name="Rectangle 1717" width="29.328" height="7.464" rx="1.26" transform="translate(36.02 59.568)" fill="#455a64"/>
  <rect id="Rectangle_1718" data-name="Rectangle 1718" width="1.16" height="6.668" transform="translate(37.332 59.996)" opacity="0.2"/>
  <rect id="Rectangle_1719" data-name="Rectangle 1719" width="0.844" height="6.668" transform="translate(40.288 59.964)" opacity="0.2"/>
  <rect id="Rectangle_1720" data-name="Rectangle 1720" width="0.42" height="6.668" transform="translate(43.136 59.996)" opacity="0.2"/>
  <rect id="Rectangle_1721" data-name="Rectangle 1721" width="0.212" height="6.668" transform="translate(46.616 59.964)" opacity="0.2"/>
  <rect id="Rectangle_1722" data-name="Rectangle 1722" width="1.16" height="6.668" transform="translate(64.04 66.632) rotate(180)" opacity="0.2"/>
  <rect id="Rectangle_1723" data-name="Rectangle 1723" width="0.844" height="6.668" transform="translate(61.084 66.668) rotate(180)" opacity="0.2"/>
  <rect id="Rectangle_1724" data-name="Rectangle 1724" width="0.42" height="6.668" transform="translate(58.236 66.632) rotate(180)" opacity="0.2"/>
  <rect id="Rectangle_1725" data-name="Rectangle 1725" width="0.212" height="6.668" transform="translate(54.752 66.668) rotate(180)" opacity="0.2"/>
  <rect id="Rectangle_1726" data-name="Rectangle 1726" width="0.104" height="6.668" transform="translate(50.736 66.668) rotate(180)" opacity="0.2"/>
  <path id="Path_6619" data-name="Path 6619" d="M230.612,326.708h-27.7a.356.356,0,0,1-.352-.352h0a.356.356,0,0,1,.352-.356h27.7a.352.352,0,0,1,.352.356h0A.352.352,0,0,1,230.612,326.708Z" transform="translate(-166.048 -266.004)" fill="#fff" opacity="0.2"/>
  <rect id="Rectangle_1727" data-name="Rectangle 1727" width="29.328" height="7.464" rx="1.26" transform="translate(37.224 52.12)" fill="#455a64"/>
  <rect id="Rectangle_1728" data-name="Rectangle 1728" width="1.16" height="6.668" transform="translate(38.532 52.552)" opacity="0.2"/>
  <rect id="Rectangle_1729" data-name="Rectangle 1729" width="0.844" height="6.668" transform="translate(41.488 52.52)" opacity="0.2"/>
  <rect id="Rectangle_1730" data-name="Rectangle 1730" width="0.42" height="6.668" transform="translate(44.336 52.552)" opacity="0.2"/>
  <rect id="Rectangle_1731" data-name="Rectangle 1731" width="0.212" height="6.668" transform="translate(47.816 52.52)" opacity="0.2"/>
  <rect id="Rectangle_1732" data-name="Rectangle 1732" width="1.16" height="6.668" transform="translate(65.24 59.184) rotate(180)" opacity="0.2"/>
  <rect id="Rectangle_1733" data-name="Rectangle 1733" width="0.844" height="6.668" transform="translate(62.284 59.22) rotate(180)" opacity="0.2"/>
  <rect id="Rectangle_1734" data-name="Rectangle 1734" width="0.42" height="6.668" transform="translate(59.436 59.184) rotate(180)" opacity="0.2"/>
  <rect id="Rectangle_1735" data-name="Rectangle 1735" width="0.212" height="6.668" transform="translate(55.956 59.22) rotate(180)" opacity="0.2"/>
  <rect id="Rectangle_1736" data-name="Rectangle 1736" width="0.104" height="6.668" transform="translate(51.94 59.22) rotate(180)" opacity="0.2"/>
  <path id="Path_6620" data-name="Path 6620" d="M233.622,308.094h-27.7a.348.348,0,0,1-.352-.352h0a.348.348,0,0,1,.352-.352h27.7a.352.352,0,0,1,.352.352h0A.352.352,0,0,1,233.622,308.094Z" transform="translate(-167.854 -254.838)" fill="#fff" opacity="0.2"/>
  <rect id="Rectangle_1737" data-name="Rectangle 1737" width="29.328" height="7.464" rx="1.26" transform="translate(36.42 44.676)" fill="#455a64"/>
  <rect id="Rectangle_1738" data-name="Rectangle 1738" width="1.16" height="6.668" transform="translate(37.732 45.108)" opacity="0.2"/>
  <rect id="Rectangle_1739" data-name="Rectangle 1739" width="0.844" height="6.668" transform="translate(40.688 45.072)" opacity="0.2"/>
  <rect id="Rectangle_1740" data-name="Rectangle 1740" width="0.42" height="6.668" transform="translate(43.536 45.108)" opacity="0.2"/>
  <rect id="Rectangle_1741" data-name="Rectangle 1741" width="0.212" height="6.668" transform="translate(47.016 45.072)" opacity="0.2"/>
  <rect id="Rectangle_1742" data-name="Rectangle 1742" width="1.16" height="6.668" transform="translate(64.44 51.74) rotate(180)" opacity="0.2"/>
  <rect id="Rectangle_1743" data-name="Rectangle 1743" width="0.844" height="6.668" transform="translate(61.484 51.772) rotate(180)" opacity="0.2"/>
  <rect id="Rectangle_1744" data-name="Rectangle 1744" width="0.424" height="6.668" transform="translate(58.636 51.74) rotate(180)" opacity="0.2"/>
  <rect id="Rectangle_1745" data-name="Rectangle 1745" width="0.212" height="6.668" transform="translate(55.152 51.772) rotate(180)" opacity="0.2"/>
  <rect id="Rectangle_1746" data-name="Rectangle 1746" width="0.104" height="6.668" transform="translate(51.14 51.772) rotate(180)" opacity="0.2"/>
  <path id="Path_6621" data-name="Path 6621" d="M231.612,289.484h-27.7a.356.356,0,0,1-.356-.352h0a.352.352,0,0,1,.356-.352h27.7a.352.352,0,0,1,.356.352h0A.356.356,0,0,1,231.612,289.484Z" transform="translate(-166.648 -243.672)" fill="#fff" opacity="0.2"/>
  <rect id="Rectangle_1747" data-name="Rectangle 1747" width="29.328" height="7.464" rx="1.26" transform="translate(36.42 37.228)" fill="#455a64"/>
  <rect id="Rectangle_1748" data-name="Rectangle 1748" width="1.16" height="6.668" transform="translate(37.732 37.66)" opacity="0.2"/>
  <rect id="Rectangle_1749" data-name="Rectangle 1749" width="0.844" height="6.668" transform="translate(40.688 37.628)" opacity="0.2"/>
  <rect id="Rectangle_1750" data-name="Rectangle 1750" width="0.42" height="6.668" transform="translate(43.536 37.66)" opacity="0.2"/>
  <rect id="Rectangle_1751" data-name="Rectangle 1751" width="0.212" height="6.668" transform="translate(47.016 37.628)" opacity="0.2"/>
  <rect id="Rectangle_1752" data-name="Rectangle 1752" width="1.16" height="6.668" transform="translate(64.44 44.292) rotate(180)" opacity="0.2"/>
  <rect id="Rectangle_1753" data-name="Rectangle 1753" width="0.844" height="6.668" transform="translate(61.484 44.328) rotate(180)" opacity="0.2"/>
  <rect id="Rectangle_1754" data-name="Rectangle 1754" width="0.424" height="6.668" transform="translate(58.636 44.292) rotate(180)" opacity="0.2"/>
  <rect id="Rectangle_1755" data-name="Rectangle 1755" width="0.212" height="6.668" transform="translate(55.152 44.328) rotate(180)" opacity="0.2"/>
  <rect id="Rectangle_1756" data-name="Rectangle 1756" width="0.104" height="6.668" transform="translate(51.14 44.328) rotate(180)" opacity="0.2"/>
  <path id="Path_6622" data-name="Path 6622" d="M231.612,270.864h-27.7a.352.352,0,0,1-.356-.352h0a.356.356,0,0,1,.356-.352h27.7a.356.356,0,0,1,.356.352h0a.352.352,0,0,1-.356.352Z" transform="translate(-166.648 -232.5)" fill="#fff" opacity="0.2"/>
  <rect id="Rectangle_1757" data-name="Rectangle 1757" width="29.328" height="7.464" rx="1.26" transform="translate(36.42 29.784)" fill="#455a64"/>
  <rect id="Rectangle_1758" data-name="Rectangle 1758" width="1.16" height="6.668" transform="translate(37.732 30.216)" opacity="0.2"/>
  <rect id="Rectangle_1759" data-name="Rectangle 1759" width="0.844" height="6.668" transform="translate(40.688 30.18)" opacity="0.2"/>
  <rect id="Rectangle_1760" data-name="Rectangle 1760" width="0.42" height="6.668" transform="translate(43.536 30.216)" opacity="0.2"/>
  <rect id="Rectangle_1761" data-name="Rectangle 1761" width="0.212" height="6.668" transform="translate(47.016 30.18)" opacity="0.2"/>
  <rect id="Rectangle_1762" data-name="Rectangle 1762" width="1.16" height="6.668" transform="translate(64.44 36.852) rotate(180)" opacity="0.2"/>
  <rect id="Rectangle_1763" data-name="Rectangle 1763" width="0.844" height="6.668" transform="translate(61.484 36.88) rotate(180)" opacity="0.2"/>
  <rect id="Rectangle_1764" data-name="Rectangle 1764" width="0.424" height="6.668" transform="translate(58.636 36.852) rotate(180)" opacity="0.2"/>
  <rect id="Rectangle_1765" data-name="Rectangle 1765" width="0.212" height="6.668" transform="translate(55.152 36.88) rotate(180)" opacity="0.2"/>
  <rect id="Rectangle_1766" data-name="Rectangle 1766" width="0.104" height="6.668" transform="translate(51.14 36.88) rotate(180)" opacity="0.2"/>
  <path id="Path_6623" data-name="Path 6623" d="M231.612,252.254h-27.7a.356.356,0,0,1-.356-.352h0a.352.352,0,0,1,.356-.352h27.7a.352.352,0,0,1,.356.352h0A.356.356,0,0,1,231.612,252.254Z" transform="translate(-166.648 -221.334)" fill="#fff" opacity="0.2"/>
  <rect id="Rectangle_1767" data-name="Rectangle 1767" width="29.328" height="7.464" rx="1.26" transform="translate(36.768 14.812)" fill="#455a64"/>
  <rect id="Rectangle_1768" data-name="Rectangle 1768" width="1.16" height="6.668" transform="translate(38.08 15.244)" opacity="0.2"/>
  <rect id="Rectangle_1769" data-name="Rectangle 1769" width="0.844" height="6.668" transform="translate(41.036 15.212)" opacity="0.2"/>
  <rect id="Rectangle_1770" data-name="Rectangle 1770" width="0.42" height="6.668" transform="translate(43.884 15.244)" opacity="0.2"/>
  <rect id="Rectangle_1771" data-name="Rectangle 1771" width="0.212" height="6.668" transform="translate(47.364 15.212)" opacity="0.2"/>
  <rect id="Rectangle_1772" data-name="Rectangle 1772" width="1.16" height="6.668" transform="translate(64.788 21.876) rotate(180)" opacity="0.2"/>
  <rect id="Rectangle_1773" data-name="Rectangle 1773" width="0.844" height="6.668" transform="translate(61.832 21.908) rotate(180)" opacity="0.2"/>
  <rect id="Rectangle_1774" data-name="Rectangle 1774" width="0.42" height="6.668" transform="translate(58.984 21.876) rotate(180)" opacity="0.2"/>
  <rect id="Rectangle_1775" data-name="Rectangle 1775" width="0.212" height="6.668" transform="translate(55.5 21.908) rotate(180)" opacity="0.2"/>
  <rect id="Rectangle_1776" data-name="Rectangle 1776" width="0.104" height="6.668" transform="translate(51.488 21.908) rotate(180)" opacity="0.2"/>
  <path id="Path_6624" data-name="Path 6624" d="M232.482,214.824h-27.7a.352.352,0,0,1-.356-.352h0a.352.352,0,0,1,.356-.352h27.7a.352.352,0,0,1,.356.352h0a.352.352,0,0,1-.356.352Z" transform="translate(-167.17 -198.876)" fill="#fff" opacity="0.2"/>
  <rect id="Rectangle_1777" data-name="Rectangle 1777" width="29.328" height="7.464" rx="1.26" transform="translate(37.224 22.336)" fill="#455a64"/>
  <rect id="Rectangle_1778" data-name="Rectangle 1778" width="1.16" height="6.668" transform="translate(38.532 22.768)" opacity="0.2"/>
  <rect id="Rectangle_1779" data-name="Rectangle 1779" width="0.844" height="6.668" transform="translate(41.488 22.736)" opacity="0.2"/>
  <rect id="Rectangle_1780" data-name="Rectangle 1780" width="0.42" height="6.668" transform="translate(44.336 22.768)" opacity="0.2"/>
  <rect id="Rectangle_1781" data-name="Rectangle 1781" width="0.212" height="6.668" transform="translate(47.816 22.736)" opacity="0.2"/>
  <rect id="Rectangle_1782" data-name="Rectangle 1782" width="1.16" height="6.668" transform="translate(65.24 29.404) rotate(180)" opacity="0.2"/>
  <rect id="Rectangle_1783" data-name="Rectangle 1783" width="0.844" height="6.668" transform="translate(62.284 29.436) rotate(180)" opacity="0.2"/>
  <rect id="Rectangle_1784" data-name="Rectangle 1784" width="0.42" height="6.668" transform="translate(59.436 29.404) rotate(180)" opacity="0.2"/>
  <rect id="Rectangle_1785" data-name="Rectangle 1785" width="0.212" height="6.668" transform="translate(55.956 29.436) rotate(180)" opacity="0.2"/>
  <rect id="Rectangle_1786" data-name="Rectangle 1786" width="0.104" height="6.668" transform="translate(51.94 29.436) rotate(180)" opacity="0.2"/>
  <path id="Path_6625" data-name="Path 6625" d="M233.622,233.634h-27.7a.348.348,0,0,1-.352-.352h0a.352.352,0,0,1,.352-.352h27.7a.356.356,0,0,1,.352.352h0A.352.352,0,0,1,233.622,233.634Z" transform="translate(-167.854 -210.162)" fill="#fff" opacity="0.2"/>
  <rect id="Rectangle_1787" data-name="Rectangle 1787" width="29.328" height="7.464" rx="1.26" transform="translate(1.2 67.012)" fill="#455a64"/>
  <rect id="Rectangle_1788" data-name="Rectangle 1788" width="1.16" height="6.668" transform="translate(2.512 67.444)" opacity="0.2"/>
  <rect id="Rectangle_1789" data-name="Rectangle 1789" width="0.844" height="6.668" transform="translate(5.464 67.412)" opacity="0.2"/>
  <rect id="Rectangle_1790" data-name="Rectangle 1790" width="0.42" height="6.668" transform="translate(8.312 67.444)" opacity="0.2"/>
  <rect id="Rectangle_1791" data-name="Rectangle 1791" width="0.212" height="6.668" transform="translate(11.792 67.412)" opacity="0.2"/>
  <rect id="Rectangle_1792" data-name="Rectangle 1792" width="1.16" height="6.668" transform="translate(29.216 74.076) rotate(180)" opacity="0.2"/>
  <rect id="Rectangle_1793" data-name="Rectangle 1793" width="0.844" height="6.668" transform="translate(26.264 74.108) rotate(180)" opacity="0.2"/>
  <rect id="Rectangle_1794" data-name="Rectangle 1794" width="0.42" height="6.668" transform="translate(23.412 74.076) rotate(180)" opacity="0.2"/>
  <rect id="Rectangle_1795" data-name="Rectangle 1795" width="0.212" height="6.668" transform="translate(19.932 74.108) rotate(180)" opacity="0.2"/>
  <rect id="Rectangle_1796" data-name="Rectangle 1796" width="0.104" height="6.668" transform="translate(15.916 74.108) rotate(180)" opacity="0.2"/>
  <path id="Path_6626" data-name="Path 6626" d="M143.562,345.324h-27.7a.348.348,0,0,1-.352-.352h0a.348.348,0,0,1,.352-.352h27.7a.348.348,0,0,1,.352.352h0a.348.348,0,0,1-.352.352Z" transform="translate(-113.818 -277.176)" fill="#fff" opacity="0.2"/>
  <rect id="Rectangle_1797" data-name="Rectangle 1797" width="29.328" height="7.464" rx="1.26" transform="translate(1.6 59.568)" fill="#455a64"/>
  <rect id="Rectangle_1798" data-name="Rectangle 1798" width="1.16" height="6.668" transform="translate(2.912 59.996)" opacity="0.2"/>
  <rect id="Rectangle_1799" data-name="Rectangle 1799" width="0.844" height="6.668" transform="translate(5.864 59.964)" opacity="0.2"/>
  <rect id="Rectangle_1800" data-name="Rectangle 1800" width="0.42" height="6.668" transform="translate(8.712 59.996)" opacity="0.2"/>
  <rect id="Rectangle_1801" data-name="Rectangle 1801" width="0.212" height="6.668" transform="translate(12.196 59.964)" opacity="0.2"/>
  <rect id="Rectangle_1802" data-name="Rectangle 1802" width="1.16" height="6.668" transform="translate(29.616 66.632) rotate(180)" opacity="0.2"/>
  <rect id="Rectangle_1803" data-name="Rectangle 1803" width="0.844" height="6.668" transform="translate(26.66 66.668) rotate(180)" opacity="0.2"/>
  <rect id="Rectangle_1804" data-name="Rectangle 1804" width="0.42" height="6.668" transform="translate(23.812 66.632) rotate(180)" opacity="0.2"/>
  <rect id="Rectangle_1805" data-name="Rectangle 1805" width="0.212" height="6.668" transform="translate(20.332 66.668) rotate(180)" opacity="0.2"/>
  <rect id="Rectangle_1806" data-name="Rectangle 1806" width="0.104" height="6.668" transform="translate(16.316 66.668) rotate(180)" opacity="0.2"/>
  <path id="Path_6627" data-name="Path 6627" d="M144.562,326.708h-27.7a.352.352,0,0,1-.352-.352h0a.352.352,0,0,1,.352-.356h27.7a.352.352,0,0,1,.352.356h0A.352.352,0,0,1,144.562,326.708Z" transform="translate(-114.418 -266.004)" fill="#fff" opacity="0.2"/>
  <rect id="Rectangle_1807" data-name="Rectangle 1807" width="29.328" height="7.464" rx="1.26" transform="translate(0 52.12)" fill="#455a64"/>
  <rect id="Rectangle_1808" data-name="Rectangle 1808" width="1.16" height="6.668" transform="translate(1.308 52.552)" opacity="0.2"/>
  <rect id="Rectangle_1809" data-name="Rectangle 1809" width="0.844" height="6.668" transform="translate(4.264 52.52)" opacity="0.2"/>
  <rect id="Rectangle_1810" data-name="Rectangle 1810" width="0.42" height="6.668" transform="translate(7.112 52.552)" opacity="0.2"/>
  <rect id="Rectangle_1811" data-name="Rectangle 1811" width="0.212" height="6.668" transform="translate(10.592 52.52)" opacity="0.2"/>
  <rect id="Rectangle_1812" data-name="Rectangle 1812" width="1.16" height="6.668" transform="translate(28.012 59.184) rotate(180)" opacity="0.2"/>
  <rect id="Rectangle_1813" data-name="Rectangle 1813" width="0.844" height="6.668" transform="translate(25.064 59.22) rotate(180)" opacity="0.2"/>
  <rect id="Rectangle_1814" data-name="Rectangle 1814" width="0.42" height="6.668" transform="translate(22.212 59.184) rotate(180)" opacity="0.2"/>
  <rect id="Rectangle_1815" data-name="Rectangle 1815" width="0.212" height="6.668" transform="translate(18.732 59.22) rotate(180)" opacity="0.2"/>
  <rect id="Rectangle_1816" data-name="Rectangle 1816" width="0.104" height="6.668" transform="translate(14.716 59.22) rotate(180)" opacity="0.2"/>
  <path id="Path_6628" data-name="Path 6628" d="M140.562,308.094h-27.7a.348.348,0,0,1-.352-.352h0a.348.348,0,0,1,.352-.352h27.7a.352.352,0,0,1,.352.352h0A.352.352,0,0,1,140.562,308.094Z" transform="translate(-112.018 -254.838)" fill="#fff" opacity="0.2"/>
</svg>
