<svg xmlns="http://www.w3.org/2000/svg" width="592.552" height="452.335" viewBox="0 0 592.552 452.335">
  <g id="Contact_us_2" data-name="Contact us 2" transform="translate(-81.589 -108.001)">
    <g id="Layer_2" transform="translate(32.302 71.86)">
      <g id="BACKGROUND">
        <path id="Path_2947" data-name="Path 2947" d="M170.1,472.59c-3.51-3.673-54.953-106.648,2.34-201.031s201.105-83.363,258.4-46.584,85.348,84.578,91.2,134.835-32.735,128.718-32.735,128.718L170.1,472.59Z" transform="translate(22.184 -11.087)" fill="#eaeaea"/>
      </g>
      <g id="OBJECTS" transform="translate(49.287 36.141)">
        <g id="Group_1030" data-name="Group 1030" transform="translate(472.899 204.201)">
          <g id="Group_1026" data-name="Group 1026">
            <rect id="Rectangle_879" data-name="Rectangle 879" width="80.904" height="47.814" rx="5" fill="#dc2626"/>
            <path id="Path_2948" data-name="Path 2948" d="M415.552,287.085l10.472-24.825H405.08Z" transform="translate(-375.1 -220.579)" fill="#dc2626"/>
          </g>
          <g id="Group_1029" data-name="Group 1029" transform="translate(15.028 5.648)">
            <g id="Group_1027" data-name="Group 1027" transform="translate(25.172 2.128)">
              <path id="Path_2949" data-name="Path 2949" d="M411.98,247.295h18.93v2.77l9.272-5.347-9.272-5.347v2.77H411.98Z" transform="translate(-411.98 -239.37)" fill="#fff"/>
              <path id="Path_2950" data-name="Path 2950" d="M440.182,252.955H421.267V250.2l-9.287,5.347,9.287,5.347v-2.77h18.915Z" transform="translate(-411.98 -234.158)" fill="#fff"/>
            </g>
            <g id="Group_1028" data-name="Group 1028">
              <path id="Path_2951" data-name="Path 2951" d="M408.545,263.136l-.9.326a28.286,28.286,0,0,1-4.266-6.7,24.248,24.248,0,0,1-1.511-7.747l.652-.281-4-9.569a7.9,7.9,0,0,0-1.94,2.207c-2.266,3.822-2.044,9.7.237,15.434s4.71,10.857,9.154,14.072c2.622,1.9,4.873,2.237,6.606,1.955l-4.044-9.687Z" transform="translate(-394.986 -237.338)" fill="#fff"/>
              <path id="Path_2952" data-name="Path 2952" d="M406.484,254.635l-1.244.459,4.088,9.806a8.057,8.057,0,0,0,1.244-.533,2.4,2.4,0,0,0,1.081-2.977L409.521,256a2.388,2.388,0,0,0-3.022-1.363Z" transform="translate(-390.051 -229.963)" fill="#fff"/>
              <path id="Path_2953" data-name="Path 2953" d="M400.01,238.077a9.078,9.078,0,0,0-1.6.755l4.088,9.776,1.378-.578a2.388,2.388,0,0,0,1.3-3.066l-2.148-5.51a2.36,2.36,0,0,0-3.007-1.378Z" transform="translate(-393.338 -237.933)" fill="#fff"/>
            </g>
          </g>
        </g>
        <path id="Path_2954" data-name="Path 2954" d="M149.227,422.239V311.918s-1.229-29.728,14.4-38.3,81.512-3.984,81.512-3.984v152.61H149.213Z" transform="translate(-25.333 -13.422)" fill="#656f74"/>
        <g id="Group_1035" data-name="Group 1035" transform="translate(135.279 61.502)">
          <path id="Path_2955" data-name="Path 2955" d="M232.654,199.5s-3.984,33.4-5.51,36.157l-1.526,2.755-7.658,5.214s14.709,20.841,32.794,24.2,16.545-7.362,16.545-7.362l-2.755-5.821,3.673-31.876s-32.794-15.02-35.549-23.285Z" transform="translate(-127.526 -108.085)" fill="#ff9d8c"/>
          <path id="Path_2956" data-name="Path 2956" d="M211.53,232.854l11.953-5.214s7.658,12.561,25.433,19.922,18.086,3.066,19,0a11.611,11.611,0,0,0-.311-6.428l1.318-10.724,7.11,2.37,24.677,199.594-63.441,3.066L211.53,232.869Z" transform="translate(-130.62 -94.539)" fill="#fff"/>
          <path id="Path_2957" data-name="Path 2957" d="M251.055,229.645s4.3,9.909,8.28,33.194,7.658,62.522,8.576,89.48,1.526,88.562,1.526,88.562h79.986c.918,0,6.428-30.335,6.428-30.335s-34.942-29.935-36.779-34.838c-1.229-3.273-.607-63.841-5.821-91.732S301.3,250.471,287.2,243.524c-14.575-7.184-36.157-13.894-36.157-13.894Z" transform="translate(-111.607 -93.581)" fill="#dc2626"/>
          <path id="Path_2958" data-name="Path 2958" d="M279.931,390.258a.733.733,0,0,1-.741-.741c0-2.192-.385-33.327-.77-63.426s-.77-61.248-.77-63.441a.741.741,0,1,1,1.481,0c0,2.192.385,33.327.77,63.426s.77,61.248.77,63.441A.733.733,0,0,1,279.931,390.258Z" transform="translate(-98.802 -78.048)" fill="#263238"/>
          <path id="Path_2959" data-name="Path 2959" d="M171.8,343.5l-.607,42.6h93.169s3.984-36.157,2.459-39.534-95.005-3.066-95.005-3.066Z" transform="translate(-150.033 -38.787)" fill="#dc2626"/>
          <g id="Group_1031" data-name="Group 1031" transform="translate(107.69 95.048)">
            <path id="Path_2960" data-name="Path 2960" d="M247.37,233.574A48.84,48.84,0,0,0,260.4,240.58l2.192-18.96s-24.633-11.287-32.987-19.671C231.358,211.489,235.653,224.124,247.37,233.574Z" transform="translate(-229.61 -201.95)" fill="#8e9bbb"/>
          </g>
          <path id="Path_2961" data-name="Path 2961" d="M293.975,159.738a66.445,66.445,0,0,1,7.658,24.514c1.229,13.479,0,48.11-11.035,62.819s-34.024,10.413-44.437,1.526c-9.569-8.161-19-17.167-21.448-34.942s5.214-51.487,26.973-58.538,42.289,4.592,42.289,4.592Z" transform="translate(-124.488 -130.53)" fill="#ff9d8c"/>
          <g id="Group_1032" data-name="Group 1032" transform="translate(116.475 302.227)">
            <path id="Path_2962" data-name="Path 2962" d="M316.192,367.652s-1.081,0-2.725-.044c-.385-.015-.815,0-1.259-.015-1.585-.044-3.51-.089-5.451-.148l-1.3-.044c-1.926-.044-3.57.193-5.11.1H300.3c-.326-.015-.8.03-1.185.044a2.882,2.882,0,0,1-.489.015,7.2,7.2,0,0,1-2.029-.8c-1.244-.563-18.086-4.325-31.787-4.236-13.686.059-25.966.992-27.965-.681-2.014-1.7-3.229-18.9,8.458-20.026l14.368,5.451s32.809-3.9,44.836,4.977c12.057,8.872,11.687,15.4,11.687,15.4Z" transform="translate(-235.541 -341.82)" fill="#ff9d8c"/>
            <path id="Path_2963" data-name="Path 2963" d="M285.357,362.325c-.326-.015-.8.03-1.185.044a13.906,13.906,0,0,0-1.259-1.689c-3.7-3.777-12.65-6.221-15.894-7.006a.557.557,0,0,1-.415-.667.569.569,0,0,1,.681-.415c4.725,1.141,14.753,4.059,17.6,8.843C284.972,361.57,285.209,362.029,285.357,362.325Z" transform="translate(-220.6 -336.641)" fill="#223a7a"/>
            <path id="Path_2964" data-name="Path 2964" d="M290.442,363.468c-.43,0-.874-.015-1.3-.044-4.044-7.376-10.665-9.495-18.826-12.116l-.489-.163a.576.576,0,0,1-.355-.711.57.57,0,0,1,.711-.355l.474.163c8.65,2.77,15.6,5.007,19.8,13.227Z" transform="translate(-219.226 -337.858)" fill="#223a7a"/>
            <path id="Path_2965" data-name="Path 2965" d="M295.63,364.713c-.385,0-.815,0-1.259-.015-2.459-5.155-10.576-13.79-21.3-15.79a.568.568,0,0,1-.459-.652.578.578,0,0,1,.652-.444c11.065,2.074,19.982,11.109,22.381,16.9Z" transform="translate(-217.704 -338.94)" fill="#223a7a"/>
          </g>
          <path id="Path_2966" data-name="Path 2966" d="M236.706,205.768s6.74-3.214,11.494-12.264a34.785,34.785,0,0,0,4.133-17.167s8.576-1.378,21.448,2.459,28.188,9.035,41.059,1.689,12.872-19.152,6.591-24.055c-7.036-5.5-20.989-2.148-20.989-2.148s5.362-5.214,2.459-8.28-13.479.918-13.479.918-12.872-10.265-37.238-9.035-36.008,18.234-37.386,37.238,5.51,38.008,5.51,38.008l16.4-7.362Z" transform="translate(-129.135 -137.781)" fill="#263238"/>
          <g id="Group_1033" data-name="Group 1033" transform="translate(150.71 72.191)">
            <path id="Path_2967" data-name="Path 2967" d="M264.944,186.921c-1.378,3.407-1.348,7.362-1.689,10.961-.267,2.814-.785,6.088,1.792,7.984,1.229.9,7.051,3.348,4.059,5.332-1.141.755-3.051.548-4.355.489-.889-.044-1.792-.074-2.7-.148-.963-.074-1.9-.355-2.859-.37a.561.561,0,0,0-.281,1.037,12.015,12.015,0,0,0,5.614,1.333,8.372,8.372,0,0,0,4.651-.815,3.306,3.306,0,0,0,2.118-2.385c.178-1.333-.829-2.533-1.837-3.288-1.155-.859-2.577-1.259-3.747-2.1-1.629-1.155-1.5-3.125-1.378-4.932.281-4.355,1.274-8.635,1.659-12.975.059-.667-.859-.667-1.066-.148h0Z" transform="translate(-258.653 -186.519)" fill="#8e9bbb"/>
          </g>
          <path id="Path_2968" data-name="Path 2968" d="M273.581,195.385c-.459,2.577-2.34,4.414-4.192,4.088s-2.992-2.7-2.548-5.273,2.34-4.414,4.192-4.088S274.025,192.808,273.581,195.385Z" transform="translate(-104.05 -112.616)" fill="#263238"/>
          <path id="Path_2969" data-name="Path 2969" d="M257.918,194.1c-.415,2.785-2.385,4.8-4.384,4.5s-3.3-2.8-2.888-5.584,2.385-4.8,4.384-4.5S258.333,191.319,257.918,194.1Z" transform="translate(-111.834 -113.379)" fill="#263238"/>
          <path id="Path_2970" data-name="Path 2970" d="M268.011,187.673c1.437.237,2.874,0,4.325.1.341.03.7.074,1.037.1.252.03-.459-.074-.118-.015.074,0,.148.03.222.03.178.03.355.074.533.118.311.074.607.193.918.252a3.548,3.548,0,0,0,.874.118c.163-.015.311-.044.474-.059a2.1,2.1,0,0,0-.3.059,3.072,3.072,0,0,0,.592-.059,1.591,1.591,0,0,0,1.1-1.94,1.642,1.642,0,0,0-.311-.622,2.7,2.7,0,0,0-.193-.237c.059.059.118.133.178.193a2.844,2.844,0,0,0-.193-.252.861.861,0,0,0-.326-.326c-.118-.089-.222-.178-.341-.267a4.194,4.194,0,0,0-1.333-.533,11.287,11.287,0,0,0-2.637-.341,19.132,19.132,0,0,0-2.607.207,5,5,0,0,0-2.237.829,1.508,1.508,0,0,0-.7,1.437,1.41,1.41,0,0,0,1.037,1.2h0Z" transform="translate(-103.945 -115.539)" fill="#263238"/>
          <path id="Path_2971" data-name="Path 2971" d="M260.894,184.257a5.693,5.693,0,0,0-.592-.311c-.178-.074-.652-.326-.3-.133-.133-.074-.267-.148-.4-.207a9.216,9.216,0,0,0-1.852-.667,12.4,12.4,0,0,0-4.31-.3,10,10,0,0,0-4.251,1.333,2.336,2.336,0,0,0-.533.385l-.311.4.089-.133a1.455,1.455,0,0,0-.637,1.244,1.222,1.222,0,0,0,.667,1.1,1.783,1.783,0,0,0,1.481,0h-.77a2.761,2.761,0,0,0,1.155,0c.015,0,.415-.1.148-.044s.415-.044.489-.059.548-.059.059,0a1.633,1.633,0,0,0,.267-.03c.237-.03.459-.059.7-.074,1.007-.074,2.014-.118,3.036-.163.933-.03,1.9-.044,2.844,0l1.2.044c.222,0,.133.044-.03,0a1.547,1.547,0,0,0,.252.059c.163.044.326.1.489.163a1.4,1.4,0,0,0,1.674-.829,1.424,1.424,0,0,0-.578-1.777h0Z" transform="translate(-113.167 -116.226)" fill="#263238"/>
          <path id="Path_2972" data-name="Path 2972" d="M265.468,214.69a13.894,13.894,0,0,1,6.917-6.236c-2.563-.267-14.694-1.378-17.745.355-3.422,1.94.637,9.761,7.717,10.146a9.423,9.423,0,0,0,2.074-.118,10.207,10.207,0,0,1,1.037-4.147Z" transform="translate(-110.468 -104.059)" fill="#263238"/>
          <path id="Path_2973" data-name="Path 2973" d="M223.74,201.769s1.229,4.755,8.28,10.265,17.271,9.554,17.271,9.554l.815-3.57s-10.576-4.592-15.479-9.658-5.51-7.821-5.51-7.821l-5.362,1.229Z" transform="translate(-124.744 -107.58)" fill="#dee1eb"/>
          <path id="Path_2974" data-name="Path 2974" d="M243.938,210.554a8.844,8.844,0,0,1,9.228,7.125c.4,2.9-2.326,6.162-8.71,3.3-7.925-3.555-6.206-10.161-.533-10.428Z" transform="translate(-117.362 -102.767)" fill="#263238"/>
          <path id="Path_2975" data-name="Path 2975" d="M230.874,196.554s2.444-17.612,14.249-29.58c22.529-22.826,41.682-21.448,41.682-21.448s-.148-3.214-7.362-5.673c-6.769-2.3-9.806-1.066-9.806-1.066s-18.545,1.526-34.172,18.841-17.315,39.386-17.315,39.386Z" transform="translate(-127.434 -137.455)" fill="#dee1eb"/>
          <g id="Group_1034" data-name="Group 1034" transform="translate(78.124 56.606)">
            <path id="Path_2976" data-name="Path 2976" d="M233.276,176.342c-14.753-2.5-22.989,9.035-23.6,20.693s7.85,20.5,19.152,19.611c25.433-1.985,22.529-37.238,4.444-40.3Z" transform="translate(-209.649 -175.997)" fill="#fff"/>
            <path id="Path_2977" data-name="Path 2977" d="M224.041,203.241a10.042,10.042,0,0,1-9.065-5.406,11.208,11.208,0,0,1,.43-11.583.566.566,0,0,1,.77-.148.552.552,0,0,1,.148.77,10.091,10.091,0,0,0-.37,10.428,8.957,8.957,0,0,0,8.384,4.829,9.691,9.691,0,0,0,8.043-4.34A12.294,12.294,0,0,0,233.6,186.9c-1.333-3.5-4.962-5.866-8.265-5.436a.553.553,0,0,1-.148-1.1c3.866-.518,7.925,2.133,9.45,6.147a13.4,13.4,0,0,1-1.333,11.894,10.772,10.772,0,0,1-8.932,4.829h-.311Z" transform="translate(-207.761 -173.923)" fill="#818fb3"/>
          </g>
          <path id="Path_2978" data-name="Path 2978" d="M240.571,228.26S195.823,239.3,180.2,257.07s-22.989,105.418-23.285,121.667,11.035,22.988,17.775,27.58,36.468,12.872,60.374,14.1,46.584,0,46.584,0-.074-5.214,3.6-12.872c3.407-7.11,7.732-8.576,7.732-8.576l-20.53-7.362s-3.6-64.418-9.2-95.613c-6.428-35.86-22.677-67.721-22.677-67.721Z" transform="translate(-156.906 -94.241)" fill="#dc2626"/>
          <path id="Path_2979" data-name="Path 2979" d="M267.589,380.116a.663.663,0,0,1-.3-.059.732.732,0,0,1-.37-.978c4.192-9.465,8.532-28.025,10.976-41.059l.207-1.052c.741-3.836,1.659-8.591-.178-11.894-.933-1.674-3.051-5.318-5.1-8.813-2.118-3.629-4.1-7.065-4.666-8.087-1.081-2,2.326-7.347,7.243-14.679,1.333-1.985,2.474-3.688,3.14-4.844,1.748-3.036.592-5.806-.77-9.035l-.459-1.111c-1.229-3.007-2.622-6.014-3.97-8.932-.548-1.185-1.1-2.385-1.644-3.585-.726-1.585-1.437-3.2-2.177-4.829-4.325-9.658-8.813-19.641-14.546-29.284a.744.744,0,1,1,1.274-.77c5.777,9.717,10.28,19.745,14.62,29.432.726,1.629,1.452,3.244,2.163,4.814.548,1.2,1.1,2.385,1.644,3.57,1.348,2.933,2.755,5.954,3.984,8.991l.459,1.1c1.378,3.273,2.8,6.68.681,10.339-.7,1.2-1.852,2.933-3.2,4.932-2.563,3.822-7.895,11.776-7.169,13.153.548,1.007,2.533,4.429,4.636,8.043,2.044,3.51,4.162,7.154,5.11,8.843,2.1,3.762,1.126,8.828.341,12.887l-.207,1.052c-.889,4.74-5.614,29.032-11.08,41.385a.74.74,0,0,1-.681.444Z" transform="translate(-109.759 -93.042)" fill="#263238"/>
          <path id="Path_2980" data-name="Path 2980" d="M246.277,383.522a.7.7,0,0,1-.518-.222c-3.481-3.51-20.278-32.587-21.522-38.052-.681-2.992,1.037-10.591,2.7-17.938,1.289-5.688,2.622-11.568,2.237-13.168-.563-2.385-4.858-5.9-9.006-9.287-5.021-4.1-10.206-8.339-11.213-12.161-1.141-4.34-.163-31.506.474-49.473.237-6.458.415-11.568.415-13.39a.733.733,0,0,1,.741-.741h0a.733.733,0,0,1,.741.741c0,1.852-.178,6.962-.415,13.435-.607,16.8-1.615,44.911-.533,49.043.889,3.348,6.1,7.613,10.709,11.376,4.547,3.718,8.828,7.214,9.509,10.087.459,1.926-.785,7.451-2.237,13.835-1.555,6.843-3.3,14.6-2.7,17.271,1.229,5.362,17.715,33.89,21.137,37.342a.76.76,0,0,1,0,1.052.719.719,0,0,1-.518.222Z" transform="translate(-132.114 -93.841)" fill="#263238"/>
          <path id="Path_2981" data-name="Path 2981" d="M193.572,353.35h-.1a.762.762,0,0,1-.637-.844c.548-3.851,9.05-80.578,9.435-86.459a.743.743,0,0,1,.785-.7.753.753,0,0,1,.7.785c-.385,5.88-8.9,82.711-9.45,86.563a.745.745,0,0,1-.726.637Z" transform="translate(-139.62 -76.393)" fill="#263238"/>
          <path id="Path_2982" data-name="Path 2982" d="M259.629,348.074a.642.642,0,0,1-.281-.059c-1.881-.77-10.206-3.57-20.737-7.125-21.27-7.169-50.391-16.99-55.931-19.878a.735.735,0,1,1,.681-1.3c5.436,2.829,35.7,13.035,55.723,19.789,10.561,3.57,18.9,6.369,20.826,7.154a.742.742,0,0,1,.415.963.754.754,0,0,1-.681.459Z" transform="translate(-144.695 -50.276)" fill="#263238"/>
          <path id="Path_2983" data-name="Path 2983" d="M254.573,364.192c-18.723,0-55-3.377-82.563-13.124a.74.74,0,1,1,.5-1.392C207.337,362,256.054,364.1,265.119,362.059a.744.744,0,1,1,.326,1.452,58.852,58.852,0,0,1-10.843.681Z" transform="translate(-149.875 -35.836)" fill="#263238"/>
        </g>
        <g id="Group_1038" data-name="Group 1038" transform="translate(0 152.184)">
          <g id="Group_1037" data-name="Group 1037">
            <g id="Group_1036" data-name="Group 1036">
              <path id="Path_2984" data-name="Path 2984" d="M85.752,252.678c5.806,5.11,13.168,8.384,18.263,14.294,2,2.326,3.807,4.8,5.673,7.243,1.348,1.777,4.977,4.725,5.555,6.947.252.978.207-.355-.059-1.333,0-.044-.03-.074-.044-.118-.5-4.518-.874-9.05-1.037-13.6s.118-9.08-.163-13.6c-.4-6.384-2.4-12.561-7.613-16.56-2.548-1.955-5.821-3.14-8.176-5.318-2.222-2.059-1.333-4.414-.03-6.71,1.229-2.148,2.711-4.266,3.185-6.74.548-2.814-.518-5.717-1.94-8.1-3.037-5.1-9.761-10.783-16.145-10.013-5.318.637-5.925,6.769-5.836,11.035.074,4.147.489,8.295.518,12.442.044,4.266-.681,8.458-.741,12.709-.1,7.228,3.244,12.738,8.547,17.4Z" transform="translate(-60.003 -199.002)" fill="#455a64"/>
              <path id="Path_2985" data-name="Path 2985" d="M145.316,309.034a67.95,67.95,0,0,1,5.762-10.976c3.125-4.814,6.606-9.509,8.71-14.9,2.148-5.51,1.837-11.391,2.044-17.182.148-4.266,1.422-8.5,1.081-12.783-.163-2.044-1.348-5.362-4-5.021-2.059.267-3.288,2.814-4.073,4.458a78.029,78.029,0,0,0-3.362,8.873c-.4,1.17-.785,2.355-1.289,3.481-.3.652-1.229,2.251-2.118,2.044-1.511-.37-.133-6.517.089-7.613,1.126-5.466,2.814-10.546,3.051-16.175.341-8.161-.3-17.863-8.28-22.337-2.089-1.17-4.725-1.866-6.71-.118-1.955,1.718-2.5,4.7-2.8,7.154-.889,7.539.889,14.664,3.3,21.759,2,5.851,4.37,11.894,4.547,18.16.163,6.029-2.962,11.361-4.444,17.064a53.6,53.6,0,0,0-1.866,16.812c0,3.673.118,7.317.385,10.991.252,3.377.533,6.74.948,10.1.089.681.163,1.392.252,2.1-1.3-3.125-1.748-6.7-2.829-9.835-1.911-5.569-4.118-11.035-5.954-16.634a141.942,141.942,0,0,0-4.932-13.746c-1.866-4.177-4.133-8.591-7.628-11.657a11.172,11.172,0,0,0-7.495-2.918,19.885,19.885,0,0,0-5.155,1.1,5.785,5.785,0,0,1-5.54-.978c-5.718-4.4-7.465-12.279-11.687-17.849-3.155-4.147-10.65-11.228-16.16-6.7-2.918,2.4-3.733,7.036-3.57,10.606.193,4.458,2.148,8.547,4.458,12.279,2.474,3.97,5.658,7.525,7.925,11.6a12.205,12.205,0,0,1,1.333,7.436c-.207,2.563-.43,5.036.444,7.51,2.622,7.421,10.813,6.384,17.182,6.577a47.715,47.715,0,0,1,13.464,2.222,14.978,14.978,0,0,1,9.82,9.658c1.259,3.5,1.94,7.48,4.325,10.443a11.289,11.289,0,0,0,4.236,3.155c2.488,1.1,10.057,1.57,10.1.889.193-2.311,1.289-4.755,1.97-6.947,1.289-4.118,2.8-8.132,4.473-12.116Z" transform="translate(-65.577 -189.029)" fill="#455a64"/>
              <path id="Path_2986" data-name="Path 2986" d="M156.9,283.334c-.652-4.236-.533-8.917-2.533-12.813a.577.577,0,0,0-.785-.207c-1.437.8-1.5,3.125-1.615,4.547-.193,2.37-.044,4.74-.341,7.1a52.38,52.38,0,0,1-2.962,12.309c-1.689,4.414-4.755,6.917-9.213,8.295-2.859.889-5.673,1.659-8.073,3.555a16.816,16.816,0,0,0-4.725,6.517c-2.977,6.68-4.4,14.131-5.777,21.27-.933,4.8-1.689,9.628-2.859,14.383a139.535,139.535,0,0,0-3.081,14.338c-.118.252-.237.489-.341.741-.311.726.829,1.111,1.215.518,4.607-7.08,10.206-13.449,17.864-17.345,3.451-1.763,8.043-2.133,10.931-4.9,2.192-2.1,2.488-5.318,2.163-8.191-.43-3.762-2.237-6.858-4.118-10.072-1.037-1.763-2.251-3.644-1.837-5.792.4-2.014,2.074-3.51,3.733-4.547,3.185-1.97,6.9-2.859,9.495-5.7a15.619,15.619,0,0,0,4.029-9.495c.355-4.74-.459-9.835-1.185-14.516Z" transform="translate(-42.013 -164.722)" fill="#455a64"/>
              <path id="Path_2987" data-name="Path 2987" d="M109.18,300.946a61.061,61.061,0,0,0-14.472-13.405c-2.948-1.955-9.88-5.806-11.287-.044-.815,3.377,2.488,6.7,4.666,8.813,3.273,3.185,7.051,5.925,9.806,9.6-3.422,1.1-6.991,1.3-9.954,3.659-3.51,2.8-5.1,8.191-1.6,11.628a22.167,22.167,0,0,0,6.058,3.718c2.755,1.333,5.555,2.533,8.369,3.718,6.088,2.548,12.25,5.125,17.434,9.287,5.288,4.236,10.265,11.42,10.68,18.337.044.667-.207.059.178-.237.222.193.933-.148.933-.533a73.057,73.057,0,0,0-6.147-29.461,123.089,123.089,0,0,0-14.664-25.062Z" transform="translate(-57.05 -157.879)" fill="#455a64"/>
            </g>
            <path id="Path_2988" data-name="Path 2988" d="M91.32,231.253c2.237,4.651,4.577,9.2,7.065,13.731a109.518,109.518,0,0,1,6.577,13.361c2.207,5.732,4.518,11.376,6.843,17.064a166.289,166.289,0,0,1,6.325,18.071,214,214,0,0,1,7.154,36.749,147.819,147.819,0,0,1,.741,18.989c-.133,4.947-.7,9.85-1.155,14.783a87.02,87.02,0,0,0-.4,15.464c.355,4.3,1.037,9.421,4.384,12.487a.765.765,0,0,0,1.2-.918c-3.97-8.132-3.747-17-2.992-25.818.415-4.873.992-9.717,1.17-14.6a145.143,145.143,0,0,0-.622-18.649,221.9,221.9,0,0,0-6.725-36.008,163.008,163.008,0,0,0-5.91-17.819c-2.311-5.836-4.977-11.524-7.214-17.39-4.044-10.62-10.206-20.026-15.671-29.921-.281-.518-1.022-.059-.785.459h0Z" transform="translate(-53.218 -183.799)" fill="#fff"/>
            <path id="Path_2989" data-name="Path 2989" d="M114.579,303.556c.637-7.732,1.333-15.182,3.925-22.544,1.215-3.436,2.681-6.784,3.866-10.235.963-2.859,2.414-6.769,1.674-9.806a.347.347,0,0,0-.667,0c-.5,1.733-.444,3.629-.8,5.406a50.857,50.857,0,0,1-1.348,5.11c-1.141,3.57-2.637,6.991-3.925,10.517a51.964,51.964,0,0,0-3.244,21.552.267.267,0,0,0,.533,0h0Z" transform="translate(-42.305 -169.302)" fill="#fff"/>
            <path id="Path_2990" data-name="Path 2990" d="M84.121,259.817c3.066,7.406,12.294,7.836,19.019,9.495,4.8,1.185,8.339,4.384,10.887,8.547a65.557,65.557,0,0,1,6.221,14.96c.015.059.1.03.089-.03-1.881-8.887-4.577-19.582-13.731-23.714-7.347-3.318-17.019-1.644-21.7-9.583-.237-.385-.948-.133-.755.326h0Z" transform="translate(-56.654 -169.985)" fill="#fff"/>
            <path id="Path_2991" data-name="Path 2991" d="M111.091,288.9c.37.489.7,1.007,1.081,1.5a4.223,4.223,0,0,0,.607.652,1.37,1.37,0,0,0,.859.43.192.192,0,0,0,.163-.281,2.622,2.622,0,0,0-.637-.578c-.222-.193-.444-.385-.652-.592-.43-.4-.815-.844-1.244-1.259-.074-.074-.237.03-.163.133h0Z" transform="translate(-43.676 -155.818)" fill="#fff"/>
            <path id="Path_2992" data-name="Path 2992" d="M98.176,304.952a74.444,74.444,0,0,1,14.057,15.123,93.715,93.715,0,0,1,5.125,8.413,92.665,92.665,0,0,1,4.133,9.761c.1.252.563.252.518-.074-.741-6.977-5.155-12.946-8.68-18.752a45.039,45.039,0,0,0-6.577-7.954,58.74,58.74,0,0,0-8.087-7.14c-.355-.252-.829.341-.474.622h0Z" transform="translate(-49.943 -148.346)" fill="#fff"/>
            <path id="Path_2993" data-name="Path 2993" d="M131.715,299.2c-2.548,1.452-2.637,5.466-2.681,8.043-.089,4.947,1.126,9.583-1.037,14.294-1.955,4.251-5.081,7.806-7.539,11.746-2.3,3.7-4.577,8.428-4.518,12.872,0,.252.4.4.518.133.933-2.014,1.259-4.31,1.926-6.428a26.716,26.716,0,0,1,3.14-6.636c2.37-3.673,5.273-7.006,7.2-10.946,2.029-4.162,1.733-8.28,1.6-12.783-.089-2.874-.37-7.495,1.94-9.628a.427.427,0,0,0-.518-.667h0Z" transform="translate(-41.341 -150.813)" fill="#fff"/>
          </g>
          <path id="Path_2994" data-name="Path 2994" d="M124.772,331.272c-10.265-.148-29.832-.252-29.832-.252l4.844,35.934a16.29,16.29,0,0,0,16.145,14.116h17.686a16.278,16.278,0,0,0,16.145-14.116L154.6,331.02S135.037,331.138,124.772,331.272Z" transform="translate(-51.446 -135.473)" fill="#dc2626"/>
        </g>
        <g id="Group_1040" data-name="Group 1040" transform="translate(226.957 277.655)">
          <g id="Group_1039" data-name="Group 1039">
            <path id="Path_2995" data-name="Path 2995" d="M524.712,287.144,466.129,403.183l-170.8,1.229,52.7-118.912Z" transform="translate(-181.972 -282.849)" fill="#454e53"/>
            <path id="Path_2996" data-name="Path 2996" d="M218.8,404.548l.03-9.287H329.4L380.268,283.71H557.1l4.444,4.3H388.8L335.935,404.459S218.8,404.252,218.8,404.548Z" transform="translate(-218.8 -283.71)" fill="#263238"/>
            <path id="Path_2997" data-name="Path 2997" d="M403.337,333.41c-1.926,5.792-12.4,10.265-23.388,9.983s-18.338-5.184-16.4-10.976,12.4-10.265,23.388-9.983S405.277,327.618,403.337,333.41Z" transform="translate(-149.293 -265.081)" fill="#263238"/>
          </g>
          <path id="Path_2998" data-name="Path 2998" d="M298.122,404.04a.773.773,0,0,1-.311-.059.744.744,0,0,1-.37-.978L350.5,286.12H523.712a.741.741,0,0,1,0,1.481H351.446L298.774,403.625a.751.751,0,0,1-.681.43Z" transform="translate(-180.987 -282.55)" fill="#7a7a7a"/>
        </g>
        <g id="Group_1042" data-name="Group 1042" transform="translate(6.271 398.404)">
          <g id="Group_1041" data-name="Group 1041" transform="translate(9.806 8.887)">
            <rect id="Rectangle_880" data-name="Rectangle 880" width="203.179" height="45.044" fill="#825958"/>
            <rect id="Rectangle_881" data-name="Rectangle 881" width="365.565" height="45.044" transform="translate(202.024)" fill="#ae7461"/>
          </g>
          <path id="Path_2999" data-name="Path 2999" d="M279.609,371.23H76.43V379.5H644.018V371.23Z" transform="translate(-66.624 -362.343)" fill="#455a64"/>
          <rect id="Rectangle_882" data-name="Rectangle 882" width="221.872" height="11.035" fill="#825958"/>
          <rect id="Rectangle_883" data-name="Rectangle 883" width="365.565" height="11.035" transform="translate(220.717)" fill="#ae7461"/>
        </g>
        <g id="Group_1044" data-name="Group 1044" transform="translate(88.197 110.158)">
          <rect id="Rectangle_884" data-name="Rectangle 884" width="87.807" height="51.887" rx="5.43" fill="#dc2626"/>
          <path id="Path_3000" data-name="Path 3000" d="M206.953,191.831,180.01,180.47v22.737Z" transform="translate(-98.706 -165.895)" fill="#dc2626"/>
          <g id="Group_1043" data-name="Group 1043" transform="translate(21.922 20.974)">
            <circle id="Ellipse_132" data-name="Ellipse 132" cx="4.962" cy="4.962" r="4.962" fill="#fff"/>
            <circle id="Ellipse_133" data-name="Ellipse 133" cx="4.962" cy="4.962" r="4.962" transform="translate(17.019)" fill="#fff"/>
            <circle id="Ellipse_134" data-name="Ellipse 134" cx="4.962" cy="4.962" r="4.962" transform="translate(34.024)" fill="#fff"/>
          </g>
        </g>
        <g id="Group_1045" data-name="Group 1045" transform="translate(348.284)">
          <path id="Path_3001" data-name="Path 3001" d="M485.551,96.26H319.966a19.255,19.255,0,0,0-19.256,19.256v78.549a19.255,19.255,0,0,0,19.256,19.256h14.842c.415,7.125-.607,17.715-6.547,31.254a83.227,83.227,0,0,0,35.9-31.254h121.4a19.255,19.255,0,0,0,19.256-19.256V115.516A19.255,19.255,0,0,0,485.566,96.26Z" transform="translate(-300.71 -96.26)" fill="#dc2626"/>
          <path id="Path_3002" data-name="Path 3002" d="M405.822,124.2H323.688a4.1,4.1,0,0,1-4.088-4.088h0a4.1,4.1,0,0,1,4.088-4.088h82.134a4.087,4.087,0,0,1,4.088,4.088h0A4.087,4.087,0,0,1,405.822,124.2Z" transform="translate(-291.62 -86.751)" fill="#fff"/>
          <path id="Path_3003" data-name="Path 3003" d="M464.715,139.237H322.1a2.51,2.51,0,0,1-2.5-2.5h0a2.51,2.51,0,0,1,2.5-2.5H464.715a2.51,2.51,0,0,1,2.5,2.5h0A2.51,2.51,0,0,1,464.715,139.237Z" transform="translate(-291.62 -77.988)" fill="#fff"/>
          <path id="Path_3004" data-name="Path 3004" d="M464.715,148.617H322.1a2.51,2.51,0,0,1-2.5-2.5h0a2.51,2.51,0,0,1,2.5-2.5H464.715a2.51,2.51,0,0,1,2.5,2.5h0A2.51,2.51,0,0,1,464.715,148.617Z" transform="translate(-291.62 -73.474)" fill="#fff"/>
          <path id="Path_3005" data-name="Path 3005" d="M433.6,158.617H322.113a2.51,2.51,0,0,1-2.5-2.5h0a2.51,2.51,0,0,1,2.5-2.5H433.6a2.51,2.51,0,0,1,2.5,2.5h0A2.51,2.51,0,0,1,433.6,158.617Z" transform="translate(-291.615 -68.662)" fill="#fff"/>
          <path id="Path_3006" data-name="Path 3006" d="M430.866,124.2H391.688a4.1,4.1,0,0,1-4.088-4.088h0a4.1,4.1,0,0,1,4.088-4.088h39.178a4.087,4.087,0,0,1,4.088,4.088h0A4.1,4.1,0,0,1,430.866,124.2Z" transform="translate(-258.897 -86.751)" fill="#fff"/>
        </g>
        <g id="Group_1048" data-name="Group 1048" transform="translate(374.057 165.808)">
          <rect id="Rectangle_885" data-name="Rectangle 885" width="50.406" height="36.319" rx="2" transform="translate(0 15.982)" fill="#fff"/>
          <g id="Group_1046" data-name="Group 1046" transform="translate(0.177 16.821)">
            <path id="Path_3007" data-name="Path 3007" d="M343.559,242.3a1.157,1.157,0,0,1-.711-.252l-24.218-20a1.115,1.115,0,1,1,1.422-1.718l23.492,19.4,22.885-19.908A1.113,1.113,0,1,1,367.9,221.5l-23.6,20.53a1.128,1.128,0,0,1-.726.267Z" transform="translate(-318.229 -219.556)" fill="#455a64"/>
            <path id="Path_3008" data-name="Path 3008" d="M319.352,249.447a1.119,1.119,0,0,1-.815-1.881l16.93-17.8a1.111,1.111,0,0,1,1.615,1.526l-16.93,17.8a1.123,1.123,0,0,1-.8.341Z" transform="translate(-318.226 -214.81)" fill="#455a64"/>
            <path id="Path_3009" data-name="Path 3009" d="M357.111,248.716a1.1,1.1,0,0,1-.785-.326l-16.871-16.916a1.11,1.11,0,0,1,1.57-1.57L357.9,246.82a1.118,1.118,0,0,1,0,1.57A1.1,1.1,0,0,1,357.111,248.716Z" transform="translate(-308.17 -214.731)" fill="#455a64"/>
          </g>
          <g id="Group_1047" data-name="Group 1047" transform="translate(37.86)">
            <circle id="Ellipse_135" data-name="Ellipse 135" cx="14.857" cy="14.857" r="14.857" fill="#dc2626"/>
            <text id="_85" data-name="85" transform="translate(4.414 20.348)" fill="#fff" font-size="17" font-family="SegoeUI-Bold, Segoe UI" font-weight="700"><tspan x="0" y="0">85</tspan></text>
          </g>
        </g>
        <g id="Group_1049" data-name="Group 1049" transform="translate(483.312 149.751)">
          <rect id="Rectangle_886" data-name="Rectangle 886" width="98.679" height="25.433" rx="4" fill="#263238"/>
          <path id="Path_3010" data-name="Path 3010" d="M402.043,214.776a1.155,1.155,0,0,1-.933-.415,1.383,1.383,0,0,1-.311-1.037l.37-3.288a.123.123,0,0,0-.044-.163c-.059-.03-.118,0-.207.044l-2.711,1.955a1.254,1.254,0,0,1-1.037.267,1.306,1.306,0,0,1-.874-.652,1.27,1.27,0,0,1-.148-1.17,1.351,1.351,0,0,1,.77-.711l3.036-1.378c.089-.03.119-.074.119-.118a.139.139,0,0,0-.119-.118l-3.036-1.378a1.275,1.275,0,0,1-.755-.785,1.394,1.394,0,0,1,.118-1.081,1.353,1.353,0,0,1,.874-.652,1.322,1.322,0,0,1,1.037.222l2.711,2c.089.059.148.074.207.044s.074-.089.044-.163l-.37-3.288a1.323,1.323,0,0,1,.341-1.037,1.266,1.266,0,0,1,1.007-.415,1.235,1.235,0,0,1,.963.415,1.265,1.265,0,0,1,.3,1.037l-.37,3.288a.123.123,0,0,0,.044.163c.059.03.118,0,.207-.044l2.711-1.955a1.28,1.28,0,0,1,1.066-.267,1.22,1.22,0,0,1,.859.652,1.27,1.27,0,0,1,.148,1.17,1.4,1.4,0,0,1-.77.711l-3.036,1.378c-.089.03-.118.074-.118.118a.139.139,0,0,0,.118.118l3.036,1.378a1.3,1.3,0,0,1,.77.785,1.239,1.239,0,0,1-.148,1.081,1.2,1.2,0,0,1-.859.652,1.391,1.391,0,0,1-1.066-.222l-2.711-2c-.089-.059-.148-.074-.207-.044s-.074.089-.044.163l.37,3.288a1.167,1.167,0,0,1-.311,1.037,1.34,1.34,0,0,1-1.022.415Z" transform="translate(-389.852 -195.387)" fill="#fff"/>
          <path id="Path_3011" data-name="Path 3011" d="M414.163,214.776a1.155,1.155,0,0,1-.933-.415,1.383,1.383,0,0,1-.311-1.037l.37-3.288a.123.123,0,0,0-.044-.163c-.059-.03-.118,0-.207.044l-2.711,1.955a1.254,1.254,0,0,1-1.037.267,1.306,1.306,0,0,1-.874-.652,1.27,1.27,0,0,1-.148-1.17,1.351,1.351,0,0,1,.77-.711l3.036-1.378c.089-.03.118-.074.118-.118a.139.139,0,0,0-.118-.118l-3.036-1.378a1.275,1.275,0,0,1-.755-.785,1.394,1.394,0,0,1,.118-1.081,1.353,1.353,0,0,1,.874-.652,1.322,1.322,0,0,1,1.037.222l2.711,2c.089.059.148.074.207.044s.074-.089.044-.163l-.37-3.288a1.323,1.323,0,0,1,.341-1.037,1.266,1.266,0,0,1,1.007-.415,1.235,1.235,0,0,1,.963.415,1.265,1.265,0,0,1,.3,1.037l-.37,3.288c-.03.089-.015.133.044.163s.118,0,.207-.044l2.711-1.955a1.28,1.28,0,0,1,1.066-.267,1.22,1.22,0,0,1,.859.652,1.27,1.27,0,0,1,.148,1.17,1.4,1.4,0,0,1-.77.711l-3.036,1.378c-.089.03-.118.074-.118.118a.139.139,0,0,0,.118.118l3.036,1.378a1.3,1.3,0,0,1,.77.785,1.239,1.239,0,0,1-.148,1.081,1.2,1.2,0,0,1-.859.652,1.391,1.391,0,0,1-1.066-.222l-2.711-2c-.089-.059-.148-.074-.207-.044s-.074.089-.044.163l.37,3.288a1.167,1.167,0,0,1-.311,1.037,1.34,1.34,0,0,1-1.022.415Z" transform="translate(-384.02 -195.387)" fill="#fff"/>
          <path id="Path_3012" data-name="Path 3012" d="M426.293,214.776a1.155,1.155,0,0,1-.933-.415,1.384,1.384,0,0,1-.311-1.037l.37-3.288a.123.123,0,0,0-.044-.163c-.059-.03-.119,0-.207.044l-2.711,1.955a1.254,1.254,0,0,1-1.037.267,1.306,1.306,0,0,1-.874-.652,1.27,1.27,0,0,1-.148-1.17,1.351,1.351,0,0,1,.77-.711l3.036-1.378c.089-.03.118-.074.118-.118a.139.139,0,0,0-.118-.118l-3.036-1.378a1.275,1.275,0,0,1-.755-.785,1.394,1.394,0,0,1,.118-1.081,1.353,1.353,0,0,1,.874-.652,1.322,1.322,0,0,1,1.037.222l2.711,2c.089.059.148.074.207.044s.074-.089.044-.163l-.37-3.288a1.323,1.323,0,0,1,.341-1.037,1.266,1.266,0,0,1,1.007-.415,1.235,1.235,0,0,1,.963.415,1.265,1.265,0,0,1,.3,1.037l-.37,3.288c-.03.089-.015.133.044.163s.118,0,.207-.044l2.711-1.955a1.28,1.28,0,0,1,1.066-.267,1.22,1.22,0,0,1,.859.652,1.27,1.27,0,0,1,.148,1.17,1.4,1.4,0,0,1-.77.711l-3.036,1.378c-.089.03-.118.074-.118.118a.139.139,0,0,0,.118.118l3.036,1.378a1.3,1.3,0,0,1,.77.785,1.239,1.239,0,0,1-.148,1.081,1.2,1.2,0,0,1-.859.652,1.391,1.391,0,0,1-1.066-.222l-2.711-2c-.089-.059-.148-.074-.207-.044s-.074.089-.044.163l.37,3.288a1.167,1.167,0,0,1-.311,1.037,1.34,1.34,0,0,1-1.022.415Z" transform="translate(-378.183 -195.387)" fill="#fff"/>
          <path id="Path_3013" data-name="Path 3013" d="M438.413,214.776a1.155,1.155,0,0,1-.933-.415,1.383,1.383,0,0,1-.311-1.037l.37-3.288a.123.123,0,0,0-.044-.163c-.059-.03-.118,0-.207.044l-2.711,1.955a1.254,1.254,0,0,1-1.037.267,1.306,1.306,0,0,1-.874-.652,1.27,1.27,0,0,1-.148-1.17,1.351,1.351,0,0,1,.77-.711l3.036-1.378c.089-.03.118-.074.118-.118a.139.139,0,0,0-.118-.118l-3.036-1.378a1.275,1.275,0,0,1-.755-.785,1.394,1.394,0,0,1,.118-1.081,1.353,1.353,0,0,1,.874-.652,1.322,1.322,0,0,1,1.037.222l2.711,2c.089.059.148.074.207.044s.074-.089.044-.163l-.37-3.288a1.324,1.324,0,0,1,.341-1.037,1.266,1.266,0,0,1,1.007-.415,1.235,1.235,0,0,1,.963.415,1.265,1.265,0,0,1,.3,1.037l-.37,3.288c-.03.089-.015.133.044.163s.118,0,.207-.044l2.711-1.955a1.281,1.281,0,0,1,1.067-.267,1.22,1.22,0,0,1,.859.652,1.27,1.27,0,0,1,.148,1.17,1.4,1.4,0,0,1-.77.711l-3.036,1.378c-.089.03-.118.074-.118.118a.139.139,0,0,0,.118.118l3.036,1.378a1.3,1.3,0,0,1,.77.785,1.239,1.239,0,0,1-.148,1.081,1.2,1.2,0,0,1-.859.652,1.391,1.391,0,0,1-1.067-.222l-2.711-2c-.089-.059-.148-.074-.207-.044s-.074.089-.044.163l.37,3.288a1.167,1.167,0,0,1-.311,1.037,1.34,1.34,0,0,1-1.022.415Z" transform="translate(-372.35 -195.387)" fill="#fff"/>
          <path id="Path_3014" data-name="Path 3014" d="M450.543,214.776a1.155,1.155,0,0,1-.933-.415,1.383,1.383,0,0,1-.311-1.037l.37-3.288a.123.123,0,0,0-.044-.163c-.059-.03-.118,0-.207.044l-2.711,1.955a1.254,1.254,0,0,1-1.037.267,1.306,1.306,0,0,1-.874-.652,1.27,1.27,0,0,1-.148-1.17,1.351,1.351,0,0,1,.77-.711l3.036-1.378c.089-.03.118-.074.118-.118a.139.139,0,0,0-.118-.118l-3.036-1.378a1.275,1.275,0,0,1-.755-.785,1.394,1.394,0,0,1,.118-1.081,1.353,1.353,0,0,1,.874-.652,1.322,1.322,0,0,1,1.037.222l2.711,2c.089.059.148.074.207.044s.074-.089.044-.163l-.37-3.288a1.323,1.323,0,0,1,.341-1.037,1.266,1.266,0,0,1,1.007-.415,1.235,1.235,0,0,1,.963.415,1.265,1.265,0,0,1,.3,1.037l-.37,3.288c-.03.089-.015.133.044.163s.119,0,.207-.044l2.711-1.955a1.28,1.28,0,0,1,1.066-.267,1.22,1.22,0,0,1,.859.652,1.27,1.27,0,0,1,.148,1.17,1.4,1.4,0,0,1-.77.711l-3.036,1.378c-.089.03-.119.074-.119.118a.139.139,0,0,0,.119.118l3.036,1.378a1.3,1.3,0,0,1,.77.785,1.238,1.238,0,0,1-.148,1.081,1.2,1.2,0,0,1-.859.652,1.391,1.391,0,0,1-1.066-.222l-2.711-2c-.089-.059-.148-.074-.207-.044s-.074.089-.044.163l.37,3.288a1.167,1.167,0,0,1-.311,1.037,1.34,1.34,0,0,1-1.022.415Z" transform="translate(-366.513 -195.387)" fill="#fff"/>
        </g>
      </g>
    </g>
  </g>
</svg>
