<svg xmlns="http://www.w3.org/2000/svg" width="1030" height="325.913" viewBox="0 0 1030 325.913">
  <g id="Edu-tech" transform="translate(-57.21 -79.6)">
    <g id="Layer_2" data-name="Layer 2" transform="translate(57.21 69.6)">
      <g id="Layer_1" data-name="Layer 1">
        <ellipse id="Ellipse_380" data-name="Ellipse 380" cx="515" cy="18.385" rx="515" ry="18.385" transform="translate(0 257.715)" fill="#d9d9d9" opacity="0.55"/>
        <g id="Group_2824" data-name="Group 2824" transform="translate(0 13.884)">
          <path id="Path_9737" data-name="Path 9737" d="M248.311,170.351h-1.1v-4.4h1.1Zm0-8.807h-1.1v-4.4h1.1Zm0-8.807h-1.1v-4.4h1.1Zm0-8.807h-1.1v-4.4h1.1Zm0-8.807h-1.1v-4.4h1.1Zm0-8.807h-1.1v-4.4h1.1Zm0-8.807h-1.1v-4.4h1.1Zm0-8.807h-1.1v-4.4h1.1Zm0-8.807h-1.1v-4.4h1.1Zm0-8.807h-1.1v-4.4h1.1Zm0-8.807h-1.1v-4.4h1.1Zm48.441-7.706h-4.4v-1.1h4.4Zm-8.807,0h-4.4v-1.1h4.4Zm-8.807,0h-4.4v-1.1h4.4Zm-8.807,0h-4.4v-1.1h4.4Zm-8.807,0h-4.4v-1.1h4.4Zm-8.807,0h-4.4v-1.1h4.4Z" transform="translate(-38.035 -69.209)" fill="#455a64"/>
          <circle id="Ellipse_381" data-name="Ellipse 381" cx="2.07" cy="2.07" r="2.07" transform="translate(207.656 98.951)" fill="#455a64"/>
          <path id="Path_9739" data-name="Path 9739" d="M295.82,76.209a2.07,2.07,0,1,0-2.07-2.015,2.07,2.07,0,0,0,2.07,2.015Z" transform="translate(-33.338 -69.351)" fill="#455a64"/>
        </g>
        <g id="Group_2823" data-name="Group 2823" transform="translate(0 13.884)">
          <path id="Path_9741" data-name="Path 9741" d="M485.374,169.415h-1.1v-4.161h1.1Zm0-8.565h-1.1v-4.4h1.1Zm0-8.807h-1.1v-4.4h1.1Zm0-8.807h-1.1v-4.4h1.1Zm0-8.807h-1.1v-4.4h1.1Zm0-8.807h-1.1v-4.4h1.1Zm0-8.807h-1.1v-4.4h1.1Zm0-8.807h-1.1v-4.4h1.1Zm0-8.807h-1.1v-4.4h1.1Zm0-8.807h-1.1v-4.4h1.1Zm-2.356-6.44h-4.4v-1.1h4.4Zm-8.807,0h-4.4v-1.1h4.4Zm-8.807,0H461v-1.1h4.4Z" transform="translate(-16.459 -68.263)" fill="#455a64"/>
          <path id="Path_9742" data-name="Path 9742" d="M461.288,85.609a2.07,2.07,0,1,1,1.478-.6,2.07,2.07,0,0,1-1.478.6Z" transform="translate(-16.637 -68.402)" fill="#455a64"/>
          <path id="Path_9744" data-name="Path 9744" d="M480.76,161.56a2.07,2.07,0,1,0,2.07-2.07A2.07,2.07,0,0,0,480.76,161.56Z" transform="translate(-14.465 -60.528)" fill="#455a64"/>
        </g>
        <path id="Path_9748" data-name="Path 9748" d="M829.43,144.335a2.345,2.345,0,1,0-2.345,2.345,2.345,2.345,0,0,0,2.345-2.345Zm-4.14,0a1.795,1.795,0,1,1,1.795,1.795,1.795,1.795,0,0,1-1.795-1.795Z" transform="translate(20.25 -62.294)" fill="#455a64"/>
        <g id="Group_2826" data-name="Group 2826">
          <path id="Path_9746" data-name="Path 9746" d="M827.481,148.661h-1.1v-4.4h1.1Zm0-8.807h-1.1v-4.4h1.1Zm0-8.807h-1.1v-4.4h1.1Zm0-8.807h-1.1v-4.4h1.1Zm0-8.807h-1.1v-4.4h1.1Zm0-8.807h-1.1v-4.4h1.1Z" transform="translate(20.416 -66.51)" fill="#455a64"/>
          <path id="Path_9747" data-name="Path 9747" d="M829.139,144.31a2.07,2.07,0,1,1-2.07-2.07A2.07,2.07,0,0,1,829.139,144.31Z" transform="translate(20.276 -62.269)" fill="#455a64"/>
          <path id="Path_9749" data-name="Path 9749" d="M829.139,100.4a2.07,2.07,0,1,0-2.07,2.07A2.07,2.07,0,0,0,829.139,100.4Z" transform="translate(20.276 -66.701)" fill="#455a64"/>
        </g>
        <path id="Path_9750" data-name="Path 9750" d="M829.43,100.425a2.345,2.345,0,1,1-2.345-2.345,2.345,2.345,0,0,1,2.345,2.345Zm-4.14,0a1.795,1.795,0,1,0,1.795-1.794,1.795,1.795,0,0,0-1.795,1.794Z" transform="translate(20.25 -66.726)" fill="#455a64"/>
        <g id="Group_2825" data-name="Group 2825" transform="translate(0 10.667)">
          <path id="Path_9751" data-name="Path 9751" d="M603.541,155.166h-1.1v-2.6h1.1Zm0-7h-1.1v-4.4h1.1Zm0-8.807h-1.1v-4.4h1.1Zm0-8.807h-1.1v-4.4h1.1Zm0-8.807h-1.1v-4.4h1.1Zm0-8.807h-1.1v-4.4h1.1Zm0-8.807h-1.1v-4.4h1.1Zm0-8.807h-1.1v-4.4h1.1Zm135.722-8.5h-4.4v-1.1h4.4Zm-8.807,0h-4.4v-1.1h4.4Zm-8.807,0h-4.4v-1.1h4.4Zm-8.807,0h-4.4v-1.1h4.4Zm-8.807,0h-4.4v-1.1h4.4Zm-8.807,0h-4.4v-1.1h4.4Zm-8.807,0h-4.4v-1.1h4.4Zm-8.807,0h-4.4v-1.1h4.4Zm-8.807,0h-4.4v-1.1h4.4Zm-8.807,0h-4.4v-1.1H660Zm-8.807,0h-4.4v-1.1h4.4Zm-8.807,0h-4.4v-1.1h4.4Zm-8.807,0h-4.4v-1.1h4.4Zm-8.807,0h-4.4v-1.1h4.4Zm-8.807,0h-4.4v-1.1h4.4Zm-8.807,0H602.99v-.308h-.551V85.72h4.712Z" transform="translate(-2.185 -67.973)" fill="#455a64"/>
          <path id="Path_9752" data-name="Path 9752" d="M726.8,84.34a2.07,2.07,0,1,1-2.07,2.07A2.07,2.07,0,0,1,726.8,84.34Z" transform="translate(10.157 -68.113)" fill="#455a64"/>
          <circle id="Ellipse_382" data-name="Ellipse 382" cx="2.07" cy="2.07" r="2.07" transform="translate(598.736 85.013)" fill="#455a64"/>
        </g>
        <g id="Group_2821" data-name="Group 2821" transform="translate(69.512 113.868)">
          <path id="Path_9733" data-name="Path 9733" d="M542.15,174v34.514H496.263V334.239h-40V208.547H410.81V174Z" transform="translate(-91.036 -172.932)" fill="#263238"/>
          <path id="Path_9734" data-name="Path 9734" d="M665.689,174v33.369H584.826v29.945h72.991v33.149l-72.991.231V300.87H667.88v33.369H544.83V174Z" transform="translate(-77.511 -172.932)" fill="#263238"/>
          <path id="Path_9735" data-name="Path 9735" d="M747.093,208.425c-23.6,0-41.527,19.42-41.527,45.028,0,25.828,17.923,45.49,41.527,45.49,12.672,0,27.314-7.31,38.026-18.716l23.384,26.29c-16.393,18.055-40.866,29.725-63.589,29.725-46.118,0-80.433-35.229-80.433-82.294,0-46.173,35.229-80.918,81.953-80.918,22.734,0,46.558,10.525,61.85,27.435L785.163,229.5C775.067,216.648,760.425,208.425,747.093,208.425Z" transform="translate(-65.436 -173.03)" fill="#263238"/>
          <path id="Path_9736" data-name="Path 9736" d="M850.807,174v65.384h61.85V174h40V334.272h-40V272.786h-61.85v61.486h-40V174Z" transform="translate(-50.668 -172.932)" fill="#263238"/>
          <path id="Path_9755" data-name="Path 9755" d="M120.35,331.7V175.55h73.09v25.618H158.6v34.844h25.993v26.565H158.6v43.608h35.229V331.7Z" transform="translate(-120.35 -172.776)" fill="#263238"/>
          <path id="Path_9756" data-name="Path 9756" d="M200.85,331.7V175.55h41.163q16.106,0,26.51,2.686t16.624,8.9a33.841,33.841,0,0,1,8.708,15.336q2.488,9.083,2.5,22.932v56.334q0,13.96-2.5,23.031a34.128,34.128,0,0,1-8.708,15.358q-6.209,6.264-16.624,8.94T242.1,331.749ZM239.1,305.338h3.578a29.835,29.835,0,0,0,7.772-.8,7.475,7.475,0,0,0,4.327-2.873,11.009,11.009,0,0,0,1.883-4.569,43.829,43.829,0,0,0,.429-7.013v-73.3a42.938,42.938,0,0,0-.429-6.969,10.305,10.305,0,0,0-1.883-4.4,7.508,7.508,0,0,0-4.327-2.73,31.662,31.662,0,0,0-7.772-.76H239.1Z" transform="translate(-112.226 -172.776)" fill="#263238"/>
          <path id="Path_9757" data-name="Path 9757" d="M353.131,334.164q-13.552,0-22.789-3.072a31.839,31.839,0,0,1-14.7-9.512,38.136,38.136,0,0,1-7.773-15.413,87.8,87.8,0,0,1-2.3-21.666V175.51h38.048V290.887a45.318,45.318,0,0,0,.275,5.5,29.287,29.287,0,0,0,1.1,4.943,7.761,7.761,0,0,0,2.917,4.15,9.908,9.908,0,0,0,10.36,0,7.783,7.783,0,0,0,2.928-4.15,25.142,25.142,0,0,0,1.1-4.943,54.809,54.809,0,0,0,.231-5.5V175.554h38.191V284.545a86,86,0,0,1-2.356,21.666,38.841,38.841,0,0,1-7.773,15.413,31.465,31.465,0,0,1-14.686,9.512Q366.6,334.164,353.131,334.164Z" transform="translate(-101.659 -172.78)" fill="#263238"/>
        </g>
        <path id="Path_9758" data-name="Path 9758" d="M701.264,174.736a1.119,1.119,0,0,1-.925-1.772s.716-1.024,2.037-2.741a1.123,1.123,0,1,1,1.784,1.365c-1.277,1.662-1.971,2.653-1.971,2.664A1.1,1.1,0,0,1,701.264,174.736Z" transform="translate(7.674 -59.491)" fill="#455a64"/>
        <path id="Path_9759" data-name="Path 9759" d="M823.165,194.362a21.471,21.471,0,0,1-3.8-.341,1.12,1.12,0,0,1,.407-2.2,14.08,14.08,0,0,0,6.275-.088,1.138,1.138,0,1,1,.573,2.2A13.607,13.607,0,0,1,823.165,194.362Zm-9.908-2.73a1.244,1.244,0,0,1-.583-.154,27.074,27.074,0,0,1-5.5-4.481,1.129,1.129,0,0,1,1.629-1.563,24.22,24.22,0,0,0,5.053,4.106,1.1,1.1,0,0,1-.573,2.092Zm19.233-.683a1.1,1.1,0,0,1-.649-2.048,42.061,42.061,0,0,0,5.13-4.272,1.121,1.121,0,0,1,1.552,1.618,42.921,42.921,0,0,1-5.394,4.5,1.1,1.1,0,0,1-.66.2Zm-28.844-8.928a1.1,1.1,0,0,1-.925-.473c-1.178-1.684-2.4-3.6-3.732-5.857a1.125,1.125,0,1,1,1.938-1.145c1.3,2.2,2.488,4.073,3.644,5.7a1.1,1.1,0,0,1-.275,1.574,1.178,1.178,0,0,1-.672.2Zm38.807-.44a1.211,1.211,0,0,1-.749-.275,1.1,1.1,0,0,1-.1-1.6c1.343-1.541,2.763-3.3,4.4-5.24a1.128,1.128,0,1,1,1.761,1.409c-1.607,2-3.05,3.754-4.4,5.317a1.1,1.1,0,0,1-.936.385Zm8.6-10.7a1.167,1.167,0,0,1-.694-.231,1.1,1.1,0,0,1-.209-1.574l1.343-1.739c.958-1.255,1.9-2.5,2.84-3.71A1.126,1.126,0,0,1,856.115,165l-2.84,3.7-1.332,1.739a1.1,1.1,0,0,1-.914.44Zm-54.474-.65a1.1,1.1,0,0,1-.991-.583l-1.1-2.037c-.716-1.332-1.442-2.653-2.2-3.974a1.126,1.126,0,1,1,1.971-1.09l2.2,3.985,1.1,2.037a1.1,1.1,0,0,1-.44,1.53,1.222,1.222,0,0,1-.539.132Zm-89.593,0a1.119,1.119,0,0,1-.87-1.85c1.486-1.761,3.027-3.5,4.569-5.185a1.13,1.13,0,1,1,1.662,1.53c-1.53,1.651-3.039,3.369-4.5,5.108A1.1,1.1,0,0,1,706.985,170.23Zm9.292-10.073a1.124,1.124,0,0,1-.8-1.927c1.662-1.651,3.3-3.237,5.042-4.734a1.127,1.127,0,1,1,1.5,1.684c-1.651,1.464-3.3,3.028-4.954,4.646a1.1,1.1,0,0,1-.782.3Zm143.208,0a1.1,1.1,0,0,1-.87-1.85c1.728-2.059,3.248-3.754,4.668-5.174a1.125,1.125,0,1,1,1.6,1.585c-1.365,1.365-2.84,3.006-4.525,5.02a1.1,1.1,0,0,1-.87.341Zm-69.622-1.783a1.1,1.1,0,0,1-.958-.539c-1.288-2.125-2.5-3.974-3.71-5.659a1.12,1.12,0,1,1,1.817-1.31c1.255,1.728,2.5,3.622,3.82,5.8a1.027,1.027,0,0,1-.969,1.629ZM726.537,151.1a1.1,1.1,0,0,1-.7-2c1.883-1.475,3.765-2.851,5.615-4.084a1.122,1.122,0,1,1,1.255,1.861c-1.806,1.211-3.644,2.554-5.5,3.985a1.1,1.1,0,0,1-.66.165Zm55.244-3.765a1.1,1.1,0,0,1-.826-.352,35.03,35.03,0,0,0-4.932-4.4,1.126,1.126,0,0,1,1.332-1.817,36.87,36.87,0,0,1,5.251,4.7,1.1,1.1,0,0,1-.826,1.894Zm-43.839-3.919a1.123,1.123,0,0,1-.539-2.114,60.336,60.336,0,0,1,6.3-3.006,1.123,1.123,0,1,1,.848,2.081,61.656,61.656,0,0,0-6.066,2.9A1.1,1.1,0,0,1,737.943,143.411Zm32.84-4.084a1,1,0,0,1-.429-.088,26.156,26.156,0,0,0-5.912-1.662l-.385-.066a1.124,1.124,0,1,1,.33-2.224l.418.066a29.1,29.1,0,0,1,6.418,1.806,1.123,1.123,0,1,1-.44,2.2ZM750.6,138.3a1.109,1.109,0,1,1-.264-2.2A39.132,39.132,0,0,1,757.3,135a1.147,1.147,0,0,1,.143,2.29,36.728,36.728,0,0,0-6.605,1.035A1.178,1.178,0,0,1,750.6,138.3Z" transform="translate(8.251 -63)" fill="#455a64"/>
        <path id="Path_9760" data-name="Path 9760" d="M890.537,129.77,852.28,153.4l1.75-13.806Z" transform="translate(23.03 -63.528)" fill="#c72032"/>
        <path id="Path_9761" data-name="Path 9761" d="M890.537,129.77,852.28,153.4l4.8-9.831Z" transform="translate(23.03 -63.528)" fill="#c72032"/>
        <path id="Path_9762" data-name="Path 9762" d="M868.884,158.622,845.06,129.459l51.578-5.439Z" transform="translate(22.301 -64.108)" fill="#dc2626"/>
        <path id="Path_9763" data-name="Path 9763" d="M894.148,124.83,853.7,141.014l2.928,3.589Z" transform="translate(23.173 -64.026)" fill="#c72032"/>
        <path id="Path_9764" data-name="Path 9764" d="M656.879,141.43s3.666,13.211,5.5,15.413,7.706,5.35,7.706,5.35l-1.64,2.73s-10.7-5.45-12.551-9.908a33.642,33.642,0,0,1-2.2-6.848c-.286-1.629-1.5-5.7-.892-7.321C653.246,139.768,656.042,139.206,656.879,141.43Z" transform="translate(2.881 -62.505)" fill="#cb2121"/>
        <path id="Path_9766" data-name="Path 9766" d="M689.84,198.86l2.708-2.521s10.8-.8,11.428.143-10.239,6.077-11.637,5.989S690.016,199.9,689.84,198.86Z" transform="translate(6.636 -56.841)" fill="#030303"/>
        <path id="Path_9767" data-name="Path 9767" d="M671.895,165.546s10.217-2.6,11.009-.914,11.45,34.932,11.45,34.932l-2.708,2.521s-11.362-28.062-14.653-31S670.375,166.7,671.895,165.546Z" transform="translate(4.787 -60.067)" fill="#f9a57e"/>
        <path id="Path_9768" data-name="Path 9768" d="M671.895,165.546s10.217-2.6,11.009-.914,11.45,34.932,11.45,34.932l-2.708,2.521s-11.362-28.062-14.653-31S670.375,166.7,671.895,165.546Z" transform="translate(4.787 -60.067)" fill="#f4bca3"/>
        <path id="Path_9769" data-name="Path 9769" d="M667.2,159.976a9.559,9.559,0,0,0,2.125-.859,2.808,2.808,0,0,1,1.794-.506c.484.066,4.4,1.706,3.369,2.433-.341.231-1.189-.176-1.519-.3s-.969-.407-1.431-.617c.418,0,2.543.881,2.323,1.376-.4.87-2.543-.3-3.039-.572.374.055,1.706.55,1.706,1.035,0,.771-1.585.132-1.927,0a2.411,2.411,0,0,0-.716-.352,2.9,2.9,0,0,0-.969.176,5.681,5.681,0,0,1-1.673,0c-.319,0-1.1,0-1.244-.231a1.211,1.211,0,0,1,.209-1.2,2.278,2.278,0,0,1,.991-.385Z" transform="translate(4.222 -60.617)" fill="#f9a57e"/>
        <path id="Path_9770" data-name="Path 9770" d="M667.2,159.976a9.559,9.559,0,0,0,2.125-.859,2.808,2.808,0,0,1,1.794-.506c.484.066,4.4,1.706,3.369,2.433-.341.231-1.189-.176-1.519-.3s-.969-.407-1.431-.617c.418,0,2.543.881,2.323,1.376-.4.87-2.543-.3-3.039-.572.374.055,1.706.55,1.706,1.035,0,.771-1.585.132-1.927,0a2.411,2.411,0,0,0-.716-.352,2.9,2.9,0,0,0-.969.176,5.681,5.681,0,0,1-1.673,0c-.319,0-1.1,0-1.244-.231a1.211,1.211,0,0,1,.209-1.2,2.278,2.278,0,0,1,.991-.385Z" transform="translate(4.222 -60.617)" fill="#f4bca3"/>
        <path id="Path_9771" data-name="Path 9771" d="M683.909,143.81l2.4.991-8.246,19.9-2.433-1.31Z" transform="translate(5.202 -62.111)" fill="#3d3d3d"/>
        <rect id="Rectangle_3020" data-name="Rectangle 3020" width="15.71" height="2.444" transform="translate(666.002 100.943)" fill="#3d3d3d"/>
        <path id="Path_9772" data-name="Path 9772" d="M637.4,154.007c2.1-1.2,2.455-2.532,1.288-6.925A9.215,9.215,0,0,1,643.5,136.92c2.2-.892,4.04-1.277,5.35-3.578s-1.167-7.189,2.973-10.811c3.028-2.631,7.354-.528,7.354-.528.936-.517,1.321,4.921,1.387,9.006-5.251,8.037-3.754,18.54-1.839,27.523a4.878,4.878,0,0,0,.187.605c-.407,6.958-.738,12.727-.738,12.727s-12.617,7.145-21.2,1.024S633.191,156.4,637.4,154.007Z" transform="translate(0.818 -64.392)" fill="#374044"/>
        <path id="Path_9773" data-name="Path 9773" d="M670.872,197.1l3.2,1.839s3.93,10.1,3.215,11.009-8.807-8.015-9.138-9.369S669.937,197.584,670.872,197.1Z" transform="translate(4.444 -56.733)" fill="#030303"/>
        <path id="Path_9774" data-name="Path 9774" d="M667.69,164.872s20.587,1.442,22.514,3.3-15.556,33.853-15.556,33.853l-2.873-1.651s4.327-15.226,5.5-18.716,3.3-7.706,2.884-8.323-21.149,2.554-20.983-3.3S667.69,164.872,667.69,164.872Z" transform="translate(3.541 -59.988)" fill="#f4bca3"/>
        <path id="Path_9775" data-name="Path 9775" d="M658.428,133.628s-2.2,5.89-.837,10.283l-7.211-1.75s2.951-9.853,4.206-11.527S658.428,133.628,658.428,133.628Z" transform="translate(2.653 -63.477)" fill="#f9a57e"/>
        <path id="Path_9776" data-name="Path 9776" d="M658.428,133.628s-2.2,5.89-.837,10.283l-7.211-1.75s2.951-9.853,4.206-11.527S658.428,133.628,658.428,133.628Z" transform="translate(2.653 -63.477)" fill="#e8ad92"/>
        <path id="Path_9777" data-name="Path 9777" d="M658.937,126.368s2.8,1.343,3.468,2.477.088,2.686.143,3.71a14.9,14.9,0,0,1,.176,2.818c-.154.253-1.178,0-1.354.22s-1.5,1.1-1.916,2.015-.98,1.024-1.949.55-4.712-5.406-4.756-7.706S656.163,125.421,658.937,126.368Z" transform="translate(2.893 -63.89)" fill="#f4bca3"/>
        <path id="Path_9778" data-name="Path 9778" d="M656.834,123.5a19.319,19.319,0,0,1,1.442,3.655c.143,1.035-.848,4.1-1.442,4.5s-.088-3.424-1.574-2.2.088,3.38,0,3.82a2.752,2.752,0,0,1-2.3,2.037c-1.53.132-4.052-7.486-2.389-9.38S655.084,123.5,656.834,123.5Z" transform="translate(2.618 -64.16)" fill="#374044"/>
        <path id="Path_9779" data-name="Path 9779" d="M648.652,159.187l9.545-.727s4.976,5.5,9.908,5.5h16.789a30.153,30.153,0,0,1-4.888,12.529s-16.007,1.178-23.769.539S641.045,167.862,648.652,159.187Z" transform="translate(2.158 -60.632)" fill="#455a64"/>
        <path id="Path_9780" data-name="Path 9780" d="M647.55,160.308a11.8,11.8,0,0,1,.892-1.1l9.545-.727s4.844,5.395,9.688,5.5C661.818,164.557,650.644,165.889,647.55,160.308Z" transform="translate(2.368 -60.63)" fill="#414f57"/>
        <path id="Path_9782" data-name="Path 9782" d="M651.557,138.05a39.957,39.957,0,0,0,5.868,1.883s3.094,6.815,4.294,8.653-3.05,8.9-3.3,11.934c0,0-2.543,2.444-10.283.947C648.144,161.467,646.129,142.333,651.557,138.05Z" transform="translate(2.391 -62.692)" fill="#dc2626"/>
        <path id="Path_9783" data-name="Path 9783" d="M650.394,141.771a3.7,3.7,0,0,1,4.327,1.354c.8,1.662,0,4.624.066,6.418a36.018,36.018,0,0,0,.7,6.253,12.933,12.933,0,0,0,2.521,4.668c-.991.605-3.864,1.805-9.908.65,0,0-1.233-11.67.815-18.815A14.876,14.876,0,0,0,650.394,141.771Z" transform="translate(2.387 -62.34)" fill="#c41f1f" opacity="0.65"/>
        <path id="Path_9784" data-name="Path 9784" d="M665.826,159.976a9.147,9.147,0,0,0,2.125-.859,2.863,2.863,0,0,1,1.806-.506c.484.066,4.4,1.706,3.369,2.433-.341.231-1.189-.176-1.53-.3s-.969-.407-1.431-.617c.429,0,2.554.881,2.323,1.376-.385.87-2.543-.3-3.039-.572.385.055,1.706.55,1.706,1.035,0,.771-1.574.132-1.916,0a2.466,2.466,0,0,0-.727-.352,2.839,2.839,0,0,0-.958.176,5.681,5.681,0,0,1-1.673,0c-.33,0-1.1,0-1.255-.231a1.244,1.244,0,0,1,.209-1.2,2.389,2.389,0,0,1,.991-.385Z" transform="translate(4.084 -60.617)" fill="#f4bca3"/>
        <path id="Path_9785" data-name="Path 9785" d="M668.334,161.776l-.837,3.16s-20.664-2.4-21.149-6.066.848-20.73,5.824-18.958.066,14.147.848,15.1S668.334,161.776,668.334,161.776Z" transform="translate(2.237 -62.517)" fill="#dc2626"/>
        <path id="Path_9786" data-name="Path 9786" d="M656.018,122.268a4.139,4.139,0,0,1,5.031.22c2.565,2.07,2.477,5.185,4.591,4.91,0,0-1.387,3.611-4.4,2.752S654.983,124.426,656.018,122.268Z" transform="translate(3.203 -64.36)" fill="#374044"/>
        <path id="Path_9787" data-name="Path 9787" d="M191.159,154.792a3.6,3.6,0,0,1-1.475-1.2,2.136,2.136,0,0,0-.55-.694,5.1,5.1,0,0,1-.716-.793,1.706,1.706,0,0,0-.76-.661c-.407-.121-.286.407-.154.749s1.178,1.046,1.046,1.442-1.343-.506-1.585-.694c-.561-.429-.5-.958-.76-1.552-.154-.341-.33-.451-.55-.066s0,.628.077.9a3.875,3.875,0,0,0,1.024,1.574,4.4,4.4,0,0,1-1.1-1.365c-.154-.3-.605-1.673-1.1-1.464-.98.418.925,3.072,1.453,3.358a5.042,5.042,0,0,1-1.2-1.31c-.209-.275-.672-.969-.9-.374-.33.87,1.288,1.883,1.938,2.466a6.429,6.429,0,0,1-1.376-.98c-.583-.473-.727.121-.209.7a9.415,9.415,0,0,0,.848.738,5.692,5.692,0,0,0,3.468,1.244c.528,0,1.42.683,1.795.418C191.093,156.774,191.038,155.53,191.159,154.792Z" transform="translate(-44.428 -61.39)" fill="#f4bca3"/>
        <path id="Path_9788" data-name="Path 9788" d="M189.965,154.373s11.2,3.1,12.3,3.039,3.743-9.908,4.789-14.752c.1-.451,1.585-.473,3.3-1.894.694-.583,2.741.539,3.435,0a4.668,4.668,0,0,1,.881,5.174c-2.543,5.626-4.734,16.4-10.58,16.514-7.706.154-15.6-3.886-15.6-3.886Z" transform="translate(-43.961 -62.435)" fill="#c72032"/>
        <path id="Path_9789" data-name="Path 9789" d="M187.709,154.623s.451-.771.528-.991c.132-.4-.9-1.1-1.046-1.442s-.253-.87.154-.749a1.706,1.706,0,0,1,.76.661,5.1,5.1,0,0,0,.7.749,2.136,2.136,0,0,1,.55.694,2.487,2.487,0,0,0,.473.539,6.034,6.034,0,0,1-2.125.539Z" transform="translate(-44.105 -61.342)" fill="#f4bca3"/>
        <path id="Path_9790" data-name="Path 9790" d="M186.328,185.6s-1.035,4.8-2,5.251-11.064-2.037-11.648-3.171.242-2.334,2.4-2.2c1.938.066,3.215.782,4.789.55,1.376-.2,2.73-2.829,2.73-2.829Z" transform="translate(-45.575 -58.135)" fill="#030303"/>
        <path id="Path_9791" data-name="Path 9791" d="M201.508,195.3s2.587,4.184,2.2,5.174-9.38,6.22-10.591,5.8-1.442-1.85.165-3.3,2.862-1.651,3.842-2.917c.848-1.1,0-3.93,0-3.93Z" transform="translate(-43.592 -56.914)" fill="#030303"/>
        <path id="Path_9792" data-name="Path 9792" d="M216.794,163.229s-4.073,2.114-5.967,1.872-18.165,1.035-20.07,2.6,5.879,32.929,5.879,32.929l6.44-1.1s-2.3-22.932-1.916-23.119,10.117-.121,26.708-.121c4.051,0,8.565-8.521,3.446-14.466Z" transform="translate(-43.763 -60.293)" fill="#455a64"/>
        <path id="Path_9793" data-name="Path 9793" d="M193.537,170.122a18.54,18.54,0,0,0,1.806-4.4,115.6,115.6,0,0,1,15.413-.749c1.894.242,5.967-1.872,5.967-1.872l.936-.088c-1.167,1.662-2.532,3.127-4.25,3.5-2.048.451-4.195.572-6.22,1.1-3.5.925-6.98,2.763-8.543,6.253a95.032,95.032,0,0,0-5.141,13.354c-1.1-4.756-2.147-9.743-2.774-13.7C191.963,172.907,192.855,171.245,193.537,170.122Z" transform="translate(-43.735 -60.173)" fill="#31383b" opacity="0.65"/>
        <path id="Path_9794" data-name="Path 9794" d="M216.117,159.92s-19.365,1.156-21.215,2.973-14.312,23.262-14.312,23.262l5.13,3.7s10.206-15.05,15.127-20.918a7.277,7.277,0,0,1,4.4-2.5c2.092-.352,5.152-.815,7.442-.947a8.345,8.345,0,0,0,5.593-2.114Z" transform="translate(-44.758 -60.485)" fill="#455a64"/>
        <path id="Path_9795" data-name="Path 9795" d="M208.608,132.878a7.872,7.872,0,0,0,1.6-1.288c.473,1.861,1.6,5.273,3.732,6.87,0,0-3.8,2.114-7.156,1.772,0,0-.132-4.492-1.1-6.606a6.605,6.605,0,0,0,2.928-.749Z" transform="translate(-42.226 -63.344)" fill="#f9a57e"/>
        <path id="Path_9796" data-name="Path 9796" d="M208.608,132.878a7.872,7.872,0,0,0,1.6-1.288c.473,1.861,1.6,5.273,3.732,6.87,0,0-3.8,2.114-7.156,1.772,0,0-.132-4.492-1.1-6.606a6.605,6.605,0,0,0,2.928-.749Z" transform="translate(-42.226 -63.344)" fill="#f4bca3"/>
        <path id="Path_9797" data-name="Path 9797" d="M206.011,122.263s-4.965.308-6.033,1.717a6.826,6.826,0,0,0-.242,6.11c.859,1.519-.264,4.1-.088,4.69s1.706.264,1.828.429,1.321,3.061,3.457,2.807c3.006-.352,5.813-3.952,6.429-6.088S210.558,121.657,206.011,122.263Z" transform="translate(-42.887 -64.288)" fill="#f4bca3"/>
        <path id="Path_9798" data-name="Path 9798" d="M197.964,125.885a5.572,5.572,0,0,0,.628-1.288,8.248,8.248,0,0,1,0-.9c.22-.9.132-1.475,1.916-2.9a6.76,6.76,0,0,1,5.868-.87,5.318,5.318,0,0,1,1.861.991c.165.143.661.5.65.7s-.594.683-.76.881a9.006,9.006,0,0,0-.683,1.189c-1.4,2.422-3.886,5.395-6.991,3.974a12.621,12.621,0,0,1-1.2-.65,6.529,6.529,0,0,0,.517,3.182,2.818,2.818,0,0,1-1.453-1.1,3.3,3.3,0,0,1-.352-3.215Z" transform="translate(-43.032 -64.553)" fill="#292c3d"/>
        <path id="Path_9799" data-name="Path 9799" d="M206.6,121.994a4.007,4.007,0,0,1,2.081-.881,2.73,2.73,0,0,1,2.851,1.475,11.3,11.3,0,0,1,1.013,1.993,8.653,8.653,0,0,1,.694,3.3,8.026,8.026,0,0,1-.727,3.655c-.506,1.013-1.739,2.422-2.62,2.411-.352,0-1.607-1.982-1.739-2.576s.132-.672.462-1.1c.55-.672,1.046-1.772.2-2.422-1.211-.936-2.367.143-2.2,2.026,0,0-.165,1.1-.528,1.1S202.5,126.783,206.6,121.994Z" transform="translate(-42.341 -64.404)" fill="#292c3d"/>
        <path id="Path_9800" data-name="Path 9800" d="M233.036,166.15s-5.78,6.231-21.017,1.938a33.026,33.026,0,0,0-2.125-7.552c-1.618-3.743-4.239-11.108-4.756-15.094-.583-4.5,1.651-6.826,1.651-6.826s2.873,2.136,6.374-1.486a17.108,17.108,0,0,1,11.945,8.807C229.513,153.875,233.036,166.15,233.036,166.15Z" transform="translate(-42.291 -62.785)" fill="#dc2626"/>
        <path id="Path_9801" data-name="Path 9801" d="M211.9,143.053a2.952,2.952,0,0,1,.132-.583c3.655,1.783,3.193,5.306,2.312,10.613-.672,4.084-2.631,10.536-3.017,11.978a31.664,31.664,0,0,0-1.64-5.064c-.749-1.728-1.706-4.228-2.576-6.815a26.709,26.709,0,0,0,3.017-6.286C210.589,145.564,211.525,144.419,211.9,143.053Z" transform="translate(-42.082 -62.246)" fill="#c72032"/>
        <path id="Path_9802" data-name="Path 9802" d="M190.563,151.75l-12.8-7.64a24.045,24.045,0,0,0-5.989,10.811l14.532,6.815S188.537,156.4,190.563,151.75Z" transform="translate(-45.648 -62.08)" fill="#455a64"/>
        <path id="Path_9803" data-name="Path 9803" d="M180.306,155.952a13.321,13.321,0,0,0,7.64-6.132l2.257,1.354c-1.993,4.646-4.261,9.985-4.261,9.985l-10.613-4.976A10.547,10.547,0,0,0,180.306,155.952Z" transform="translate(-45.289 -61.504)" fill="#263238"/>
        <path id="Path_9804" data-name="Path 9804" d="M189.584,158.289a3.644,3.644,0,0,1-1.894-.242,2.125,2.125,0,0,0-.837-.3,5.108,5.108,0,0,1-.991-.264,1.882,1.882,0,0,0-.991-.154c-.418.11,0,.5.253.716s1.563.264,1.662.672-1.42.275-1.717.253c-.7-.077-.925-.561-1.464-.914-.308-.209-.517-.209-.506.231s.319.539.55.727a3.864,3.864,0,0,0,1.706.793,4.338,4.338,0,0,1-1.662-.572c-.286-.165-1.4-1.1-1.706-.661-.606.87,2.422,2.114,3.017,2.07a5.12,5.12,0,0,1-1.706-.473c-.33-.121-1.1-.462-.969.154.187.914,2.092.914,2.939,1.1a6.22,6.22,0,0,1-1.673-.1c-.749-.088-.55.484.2.7a11.083,11.083,0,0,0,1.1.187,5.769,5.769,0,0,0,3.6-.793c.462-.231,1.563-.165,1.739-.583C190.574,160,189.859,158.972,189.584,158.289Z" transform="translate(-44.625 -60.747)" fill="#f4bca3"/>
        <path id="Path_9805" data-name="Path 9805" d="M188.633,159.371l-.363,4.3s18.418,1.486,20.62.132a9.908,9.908,0,0,0,3.8-5.5c1.332-3.93,6.606-14.785,1.861-16.437-1.5-.517-3.468-.506-4.4,1.442-2.2,4.4-4.613,14.048-5.24,14.466C203.925,158.347,188.633,159.371,188.633,159.371Z" transform="translate(-43.983 -62.336)" fill="#dc2626"/>
        <path id="Path_9806" data-name="Path 9806" d="M288.418,237.127s2.631,7.706,4.183,11.163c8.642,19.068-7.354,16.624-13.431,15.732s-13.013-3.193-12.639-8.114c.264-3.3,2.29-3.721,3.116-4.833s-.782-2.95-.088-5.7,5.306-3.3,6.209-4.062,2.741-2.851,1.85-6.837-1.288-6.11,1.288-8.7,6.605-1.464,6.605-1.464Z" transform="translate(-36.086 -54.011)" fill="#374044"/>
        <path id="Path_9807" data-name="Path 9807" d="M314.273,262.838c-.55-.418-2.686.782-4.228,1.288a17.367,17.367,0,0,1-4.018.385,13.667,13.667,0,0,1-.3,2.2c.969,0,1.717.231,2.433.176s2.2-.253,2.708-.352a2.477,2.477,0,0,1,1.728.2c1.717,1.42,2.675,1.53,2.906,1.013,0-.077-1.354-1.31-1.806-1.794.749.672,2.6,2.015,2.983,1.6s-1.431-1.883-2.2-2.521c.771.661,2.752,2.312,3.226,2.2C319.062,266.856,314.835,263.267,314.273,262.838Z" transform="translate(-32.129 -50.107)" fill="#f4bca3"/>
        <rect id="Rectangle_3021" data-name="Rectangle 3021" width="21.523" height="2.763" transform="translate(268.085 216.893)" fill="#4d4d4d"/>
        <path id="Path_9808" data-name="Path 9808" d="M309.445,265.76,308.7,268.9s-9.908-1.1-13.288-2.642-6.749-9.589-6.749-9.589l2.576-10.106s4.987,13.211,6.727,14.818S309.445,265.76,309.445,265.76Z" transform="translate(-33.852 -51.741)" fill="#dc2626"/>
        <rect id="Rectangle_3022" data-name="Rectangle 3022" width="45.996" height="29.351" rx="1.84" transform="translate(271.729 179.208)" fill="#3d3d3d"/>
        <path id="Path_9809" data-name="Path 9809" d="M306.419,259.706V234.385a2.026,2.026,0,0,1,2.026-2.015h-2.389a2.015,2.015,0,0,0-2.026,2.015v25.321a2.015,2.015,0,0,0,2.026,2.015H308.4A2.026,2.026,0,0,1,306.419,259.706Z" transform="translate(-32.301 -53.173)" fill="#4d4d4d"/>
        <path id="Path_9810" data-name="Path 9810" d="M325.313,266.949s.936-8.917-3.127-11.934c0,0-.936-.76.594-1.629s5.736-1.872,7.178.738,2.389,7.189,1.784,12.826Z" transform="translate(-30.497 -51.147)" fill="#4d4d4d"/>
        <rect id="Rectangle_3023" data-name="Rectangle 3023" width="1.905" height="50.136" transform="translate(236.489 237.061)" fill="#c1c1c1"/>
        <rect id="Rectangle_3024" data-name="Rectangle 3024" width="1.905" height="50.136" transform="translate(271.729 237.061)" fill="#c1c1c1"/>
        <rect id="Rectangle_3025" data-name="Rectangle 3025" width="47.351" height="4.899" transform="translate(231.381 234.1)" fill="#656f74"/>
        <path id="Path_9811" data-name="Path 9811" d="M291.17,310.09s-4.833,4.206-4.8,4.822,8.268,14.62,9.7,14.664,1.772-2.389,1.541-3.3-2.884-14.312-2.884-14.312Z" transform="translate(-34.083 -45.329)" fill="#030303"/>
        <path id="Path_9812" data-name="Path 9812" d="M284.787,312.46s-4.7,4.4-4.657,4.954,8.664,14.356,10.139,14.356,1.7-2.433,1.442-3.3-3.3-14.191-3.3-14.191Z" transform="translate(-34.713 -45.09)" fill="#030303"/>
        <path id="Path_9813" data-name="Path 9813" d="M288.363,269.442s6.11,2.906,13.134,5.648c4.459,1.739,10.69,4.018,10.481,8.807-.143,3.479-14.191,37.1-14.191,37.1l-6.374-3.193s11.681-28.294,11.472-30.22-1.552-.22-13.112-1.266-15.05-3.248-14.973-8.73,3.1-13.145,7.773-15.094S288.363,269.442,288.363,269.442Z" transform="translate(-35.251 -50.161)" fill="#455a64"/>
        <path id="Path_9814" data-name="Path 9814" d="M288.363,269.442s2.334,2.972,9.358,5.7c4.459,1.739,10,4.921,9.985,7.993,0,3.49-13.079,36.275-13.079,36.275l-3.215-1.607s11.681-28.294,11.472-30.22-1.552-.22-13.112-1.266-15.05-3.248-14.973-8.73,3.1-13.145,7.772-15.094S288.363,269.442,288.363,269.442Z" transform="translate(-35.251 -50.161)" fill="#263238"/>
        <path id="Path_9815" data-name="Path 9815" d="M285.725,265.083s1.85,7.706,6.264,9.6,14.543,3.941,14.532,8.807c0,3.5-15.116,38.07-15.116,38.07l-7.706-3.622s10.239-27.974,9.974-29.89.76-.98-10.822-1.673-13.134-2.906-13.211-8.389,7-12.9,7-12.9a11.857,11.857,0,0,1,9.083,0Z" transform="translate(-35.771 -49.963)" fill="#455a64"/>
        <path id="Path_9816" data-name="Path 9816" d="M287.724,235.148s-1.828,7.486,1.563,11.317c0,0,4.525,6.1-2.609,7.134s-6.209-8.323-6.209-8.323,1.211-10.327-.639-14.8C279.819,230.48,284.421,233.034,287.724,235.148Z" transform="translate(-34.743 -53.364)" fill="#e8ad92"/>
        <path id="Path_9817" data-name="Path 9817" d="M282.92,225.113s9.787.5,9.842,2.917-.815,4.007-.5,6.132c.7,4.547-1.938,9.556-3.1,9.765-1.784.319-7.861-2.367-8.807-6.044S279.155,223.648,282.92,225.113Z" transform="translate(-34.75 -53.919)" fill="#f4bca3"/>
        <path id="Path_9818" data-name="Path 9818" d="M291.2,264.641s2.048.264,2.477.264,6.1-3.182,6.7-2.741,6.352,4.4,6.176,5.218-1.772.319-4.822-2.2c0,0,4.062,2.873,3.3,3.567s-4.316-2.521-4.316-2.521,3.655,2.719,2.785,3.3-4.1-2.642-4.1-2.642,2.521,2.433,2.2,2.84-1.949-.286-3.688-1.916c0,0-.319-.176-1.244.319s-6.606-.462-6.606-.462Z" transform="translate(-33.708 -50.17)" fill="#f4bca3"/>
        <path id="Path_9819" data-name="Path 9819" d="M293.274,232.786s-6.815,1.552-9.039-3.677c-1.762-4.128-1.156-4.635-1.156-4.635s3.765-2.928,8.191,1.1C294.232,228.184,293.274,232.786,293.274,232.786Z" transform="translate(-34.425 -54.074)" fill="#374044"/>
        <path id="Path_9820" data-name="Path 9820" d="M284.223,224.28s3.622,3.193,1.607,6.209c-1.806,2.73-.606,4.194-.991,6.022a2.015,2.015,0,0,1-1.1-1.244c-.187-.859-.462-3.005-1.607-2.7s-2.2,1.717,0,3.523a4.4,4.4,0,0,1-.352,4.4s-5.846-5.02-4.15-10.668S284.223,224.28,284.223,224.28Z" transform="translate(-34.996 -53.99)" fill="#374044"/>
        <path id="Path_9821" data-name="Path 9821" d="M289.332,244.24s.451,3.545-.826,4.183-5.8-6.033-5.8-6.033-6.165,2.587-7.563,3.721.639,12,.639,12-4.294,13.024-3.776,15.776,19.31-.55,19.31-.55,1.806-13.288,2.51-15.259,1.6-3.149.694-6.033c-1.277-4.062-1.618-5.1-1.618-5.1a19.815,19.815,0,0,0-3.567-2.708Z" transform="translate(-35.537 -52.162)" fill="#dc2626"/>
        <path id="Path_9822" data-name="Path 9822" d="M278.147,255.588c-1.409-1.883-.573-5.042-2.048-6.98-.451-.594-.914-1.167-1.387-1.728-.363,3.127,1.1,10.778,1.1,10.778s-4.327,13.024-3.809,15.776,19.31-.55,19.31-.55,1.6-11.692,2.367-14.774c-.484.716-4.283,5.34-8.455,4.7C282.9,262.48,280.987,259.409,278.147,255.588Z" transform="translate(-35.537 -51.709)" fill="#c72032"/>
        <path id="Path_9823" data-name="Path 9823" d="M281.3,233a1.706,1.706,0,0,0,1.1,1.783c.506.132.462,1.717.87,3.3.771,3.028.275,5.1-1.982,5.978a24.615,24.615,0,0,0-6.517,2.961c-2.609,1.828-.936-5.8,2.356-7.706S281.3,233,281.3,233Z" transform="translate(-35.383 -53.109)" fill="#374044"/>
        <path id="Path_9824" data-name="Path 9824" d="M335.629,269.471h-13.7a1.1,1.1,0,0,1-1-1.607l.815-1.618a1.1,1.1,0,0,1,.991-.605h12.11a1.1,1.1,0,0,1,.991.605l.8,1.618a1.1,1.1,0,0,1-1.013,1.607Z" transform="translate(-30.607 -49.815)" fill="#4d4d4d"/>
        <rect id="Rectangle_3026" data-name="Rectangle 3026" width="120.066" height="3.215" transform="translate(205.894 219.656)" fill="#ae7461"/>
        <rect id="Rectangle_3027" data-name="Rectangle 3027" width="1.398" height="66.176" transform="translate(210.331 221.032)" fill="#ae7461"/>
        <rect id="Rectangle_3028" data-name="Rectangle 3028" width="1.398" height="66.176" transform="translate(320.126 221.032)" fill="#ae7461"/>
        <path id="Path_9825" data-name="Path 9825" d="M295.593,266.181l-.352,4.04s-23.846.253-27.446-.209-5.218-5.229-2.9-9.4,9.226-15.039,12.242-15.27,4.756,3.886,2.257,8.356-7.024,8.807-6.033,9.523S295.593,266.181,295.593,266.181Z" transform="translate(-36.359 -51.865)" fill="#dc2626"/>
        <path id="Path_9826" data-name="Path 9826" d="M551.11,250.24l2.741,39.578,30.209,1.883-.837-40.382Z" transform="translate(-7.365 -51.37)" fill="#656f74"/>
        <path id="Path_9827" data-name="Path 9827" d="M579.173,249.322c-2.444-.738-8.015,21.3-7.145,24.837.595,2.433,21.149,1.552,21.149,1.552l.22-4.228s-13.046-1.486-12.98-2.554,3.853-8.114,3.853-8.114S581.639,250.07,579.173,249.322Z" transform="translate(-5.263 -51.464)" fill="#dc2626"/>
        <path id="Path_9828" data-name="Path 9828" d="M570.311,237.52l-5.5.859s1.552,4.921-.837,9.127c0,0,3.985,4.316,6.76,3.171a3.3,3.3,0,0,0,1.861-4.216S569.508,244.07,570.311,237.52Z" transform="translate(-6.067 -52.653)" fill="#e8ad92"/>
        <path id="Path_9829" data-name="Path 9829" d="M564.09,229.83s8.631-.991,9.226.462.727,5.5,1.288,6.4,1.574,1.9,1.2,2.455-.8.418-1.035,1.1-.154,4.161-1.288,4.69-6.958.209-9.061-3.1S559.918,230.138,564.09,229.83Z" transform="translate(-6.286 -53.463)" fill="#f4bca3"/>
        <path id="Path_9830" data-name="Path 9830" d="M562.1,230.565l5.725,2.642a12.9,12.9,0,0,0,1.464,6.253s-.506.793-1.1.341a2.059,2.059,0,0,1-1.013-1.508c-.132-.837-.628-3.072-2.125-1.971s.077,2.411.848,2.73c0,0,1.211,4.349-1.1,4.04,0,0-2.125-1.343-3.963-6.606S560.68,229.585,562.1,230.565Z" transform="translate(-6.465 -53.382)" fill="#374044"/>
        <path id="Path_9831" data-name="Path 9831" d="M575.841,229.039s2.048,2.939-2.708,4.91-11.593-3.215-11.593-3.215.176-2.576,3.963-3.688c2.84-.826,5.5-.7,6.947.936C574.905,230.767,575.841,229.039,575.841,229.039Z" transform="translate(-6.312 -53.761)" fill="#374044"/>
        <rect id="Rectangle_3029" data-name="Rectangle 3029" width="1.651" height="43.486" transform="translate(549.095 242.456)" fill="#c1c1c1"/>
        <rect id="Rectangle_3030" data-name="Rectangle 3030" width="1.651" height="43.486" transform="translate(579.657 242.456)" fill="#afeaf0"/>
        <rect id="Rectangle_3031" data-name="Rectangle 3031" width="41.064" height="5.692" transform="translate(544.67 238.449)" fill="#656f74"/>
        <path id="Path_9832" data-name="Path 9832" d="M565.273,245.27s-7.706,2.147-8.037,2.345c0,0,.848,11.174.727,14.191s-1.343,15.886-1.343,15.886h24.011s-.286-13.1-.165-15.985c0,0-.771-9.732.253-11.978a63.511,63.511,0,0,0-7.42-4.051s0,3.171-1.651,4.029S565.273,245.27,565.273,245.27Z" transform="translate(-6.809 -51.871)" fill="#dc2626"/>
        <path id="Path_9833" data-name="Path 9833" d="M580.466,261.3s0-1.343-.088-3.149a30.144,30.144,0,0,1-1.717,4.69c-1.574,3.237-5.45,7.706-9.567,7.233s-7.442-4.15-8.477-8.169c-.771-3.017-.4-6.308-1.409-9.259a12.555,12.555,0,0,0-1.817-3.3c.231,3.391.661,9.908.573,12.11-.132,3.006-1.343,15.886-1.343,15.886h24.011S580.345,264.18,580.466,261.3Z" transform="translate(-6.809 -51.46)" fill="#c41f1f"/>
        <path id="Path_9834" data-name="Path 9834" d="M578.625,273.5l-5.5-9.248s-1.3-.771-1.31.815l6.3,8.807S579.627,275.652,578.625,273.5Z" transform="translate(-5.276 -49.974)" fill="#3d3d3d"/>
        <path id="Path_9835" data-name="Path 9835" d="M577.054,270.684a5.791,5.791,0,0,0-1.816-2.037c-.892-.451-4.9,1.178-5.185,1.244a12.232,12.232,0,0,1-3.193.628,21.688,21.688,0,0,1-.539,2.752c.936.352,3.941-.231,4.327-.286a2.818,2.818,0,0,1,2.07.583c.628.44,1.222.815,1.673.727s0-.639-.286-.936h0c1.1,1.354,1.7,1.156,1.916.87s-1.211-1.618-1.354-1.794-1.4-1.1-1.4-1.1a5.714,5.714,0,0,1,1.607,1.1c.143.143,1.64,2.422,2.2,1.728s-.738-1.861-1.244-2.587a5.637,5.637,0,0,0-1.662-1.354c.606-.077,1.651,1.1,2,1.475s1.255,2.312,1.982,1.828S577.472,271.245,577.054,270.684Zm-3.061,2.554a11.862,11.862,0,0,0-1.189-.892A6.12,6.12,0,0,1,573.993,273.238Z" transform="translate(-5.83 -49.52)" fill="#f4bca3"/>
        <path id="Path_9836" data-name="Path 9836" d="M575.88,269s1.486.572,1.74,1.233-.143,1.1-.5.9Z" transform="translate(-4.865 -49.476)" fill="#f9a57e"/>
        <path id="Path_9837" data-name="Path 9837" d="M558.158,247.4a13.639,13.639,0,0,0-3.732,4.029c-1.2,2.257-7.706,19.387-6.859,22.921.594,2.433,21.149,1.552,21.149,1.552l.22-4.228s-13.046-1.486-12.98-2.554,3.853-8.114,3.853-8.114S561.879,252.343,558.158,247.4Z" transform="translate(-7.73 -51.656)" fill="#dc2626"/>
        <path id="Path_9838" data-name="Path 9838" d="M587.765,323s6.881,1.861,9.732,2.774c2.367.749,2.059,2.873-.473,3.864s-4.723.661-5.384-.121-2.092-.352-2.62,0-5.5-.363-5.791-1.354a24.852,24.852,0,0,1,.154-4.91Z" transform="translate(-4.133 -44.027)" fill="#030303"/>
        <path id="Path_9839" data-name="Path 9839" d="M577.686,323.513s6.716,2.422,9.468,3.567c2.3.947,1.827,3.039-.782,3.82s-4.767.264-5.362-.572-2.048-.517-2.609-.253-5.406-.8-5.659-1.817,1.035-5.758,1.035-5.758Z" transform="translate(-5.185 -44.077)" fill="#030303"/>
        <path id="Path_9840" data-name="Path 9840" d="M593.648,288.274c-.76-2.818-14.785-11.328-15.93-13.894H566.4a18.507,18.507,0,0,0-3.005,8.664c-.716,7.189,5.934,4.723,12.528,4.965s9.248,4.294,9.424,6.1-1.013,34.448-1.013,34.448l8.951-.055S594.1,289.9,593.648,288.274Z" transform="translate(-6.131 -48.933)" fill="#455a64"/>
        <path id="Path_9841" data-name="Path 9841" d="M587.276,328.484s2.972-39.006,2.3-40.007c-2.037-3.1-11.978-10.4-15.413-13.795l-7.784-.352a18.506,18.506,0,0,0-3.006,8.664c-.716,7.189,5.934,4.723,12.529,4.965s9.248,4.294,9.424,6.1-1.013,34.448-1.013,34.448Z" transform="translate(-6.132 -48.938)" fill="#404b50" opacity="0.65"/>
        <path id="Path_9842" data-name="Path 9842" d="M588.718,289.179c-.529-2.477-15.16-11.13-18.231-14.433l-12-.826a10.833,10.833,0,0,0-2.906,6.936c.066,6.914,5.273,8.576,11.868,8.807,7.6.231,11.5,1.211,11.494,3.017s-4.69,35.747-4.69,35.747l8.873.451S589.07,290.874,588.718,289.179Z" transform="translate(-6.914 -48.98)" fill="#455a64"/>
        <path id="Path_9843" data-name="Path 9843" d="M643.31,239.754a52.71,52.71,0,0,0,2.774-5.262c.727-1.839,3.688-8.224,4.624-7.552s-1.7,6.022-1.7,6.022,2.334-6.7,3.589-6.33-2.2,6.606-2.2,6.606,2.818-5.89,3.545-5.317.165,1.872-2.2,6.231c0,0,2.059-3.743,2.84-2.862s-1.728,4.316-2.642,5.119-5.229,4.239-6.264,5.681C645.666,242.1,643.354,241.351,643.31,239.754Z" transform="translate(1.94 -53.754)" fill="#f4bca3"/>
        <path id="Path_9844" data-name="Path 9844" d="M647.2,234.664s3.094-1.75,3.952-1.1,0,1.4-3.215,2.433c0,0-1.1,1.431-1.85,1.552a2.2,2.2,0,0,1,1.112-2.884Z" transform="translate(2.202 -53.067)" fill="#e8ad92"/>
        <path id="Path_9845" data-name="Path 9845" d="M589.723,236.909a14.106,14.106,0,0,1-1.2-3.072c0-.694.352-1.442.374-2.389s1.3-3.149,1.024-3.776-1.1-.473-1.794,1.024-.5,2.422-1.1,1.993a16.452,16.452,0,0,1-2.543-3.039c-.473-.782-1.982-2.3-2.378-2.048s-.506.65,2.147,4.4c0,0-3.005-4.514-3.9-3.7-.617.572,2.323,3.875,2.741,4.4,0,0-2.719-3.413-3.523-2.609s2.973,3.6,2.973,3.6-2.785-2.2-3.16-1.563,1.244,2.092,2.84,2.983,2.015,1.1,2.422,1.739a32.107,32.107,0,0,1,1.409,2.995S588.6,238.461,589.723,236.909Z" transform="translate(-4.517 -53.859)" fill="#f4bca3"/>
        <path id="Path_9846" data-name="Path 9846" d="M620.3,221.86l-5.681.87s-.319,10.613-4.822,11.461c0,0-1.6,17.384,4.4,15.941s9.138-16.514,9.138-16.514S618.044,232.143,620.3,221.86Z" transform="translate(-1.462 -54.234)" fill="#e8ad92"/>
        <path id="Path_9847" data-name="Path 9847" d="M620.765,214.806s-6.132-2.521-8.576-.991-2.2,6.826-2.6,9.248c-.561,3.787,1.1,7.486,2.059,7.85s8.664-1.717,9.908-7.266S622.163,215.753,620.765,214.806Z" transform="translate(-1.474 -55.095)" fill="#f4bca3"/>
        <path id="Path_9848" data-name="Path 9848" d="M612.584,319.81s.826,5.1.209,6.286-13.563.65-14.312-.2.518-2.3,1.2-2.642,7.706-3.413,7.706-3.413Z" transform="translate(-2.607 -44.348)" fill="#030303"/>
        <path id="Path_9849" data-name="Path 9849" d="M626.874,319.81H622.36a23.691,23.691,0,0,0,0,4.635c.3.848,4.558,6.11,6.76,6.11,1.2,0,2.675,0,2.906-1.1.2-.892-.683-2.763-1.409-3.776C629.021,323.509,626.874,319.81,626.874,319.81Z" transform="translate(-0.186 -44.348)" fill="#030303"/>
        <path id="Path_9850" data-name="Path 9850" d="M619.9,224.6a11.682,11.682,0,0,1-3.611,1.321c-1.42.1-2.3-1.585-4.3-1.1l-2.2.506s-1.1,7.178,1.64,6.969,7.31-3.039,8.928-4.965a3.545,3.545,0,0,0,2.774-1.662c1.1-1.651,2.543-6.793,1.6-9.908s-5.141-4.327-6.9-2.873a5.8,5.8,0,0,0-3.886-.98c-2.554.132-3.083,1.486-4.161,2.3s-2.2.8-2.51.11c0,0-.76,1.288.617,3.49s2.961,1.872,5.1,1.376a15.677,15.677,0,0,0,4.811-2.609s-.11,4.4.991,6.044c0,0,.407.176.561,0s0-2.488,1.288-1.971S621.01,223.727,619.9,224.6Z" transform="translate(-1.719 -55.242)" fill="#374044"/>
        <path id="Path_9851" data-name="Path 9851" d="M611.1,225.37a6.848,6.848,0,0,0,3.391.154s-1,1.31-2.1,1.1a1.442,1.442,0,0,1-1.288-1.255Z" transform="translate(-1.311 -53.879)" fill="#fff"/>
        <path id="Path_9852" data-name="Path 9852" d="M621.48,231.06l-5.251,2.851-4.084-2.455a37.429,37.429,0,0,0-1.486,13.343c.605,7.1,1.75,12.2,6.605,5.6S623.77,233.361,621.48,231.06Z" transform="translate(-1.364 -53.305)" fill="#fff"/>
        <path id="Path_9853" data-name="Path 9853" d="M621.48,231.06l-5.251,2.851-4.084-2.455a37.429,37.429,0,0,0-1.486,13.343c.605,7.1,1.75,12.2,6.605,5.6S623.77,233.361,621.48,231.06Z" transform="translate(-1.364 -53.305)" fill="#fff"/>
        <path id="Path_9854" data-name="Path 9854" d="M615.121,237.162s-2.829,15.292-2.587,15.589c.154-.2,1.872,4.15,2.862,0,.782-3.226.87-15.237.991-15.413s1.475-1.585,2.345-2.367c.561-.517,1.1-1.046,1.64-1.585.132-.253.264-.506.385-.771l-.231.539a12.393,12.393,0,0,1,1.1-1.783,2.887,2.887,0,0,0-.275-.341l-5.251,2.851-4.073-2.422s-.121.363-.3,1.013a19.542,19.542,0,0,1,1.1,1.783C613.3,234.993,615.121,237.162,615.121,237.162Z" transform="translate(-1.247 -53.308)" fill="#455a64"/>
        <path id="Path_9855" data-name="Path 9855" d="M605.062,256.948l16.139-.308s2.455,4.029,3.005,15.644c.374,7.949.694,10.15,1.486,20.653.539,7.145,3.071,34.481,3.071,34.481h-8.576s-3.633-31.2-3.82-32.9c-.066-.605-2.2-17.108-2.2-17.108s.352,14.951.352,16.69.374,32.433.374,32.433h-9.039s-1.013-26.1-1.1-32.081C604.644,284.791,603.818,260.075,605.062,256.948Z" transform="translate(-1.989 -50.724)" fill="#455a64"/>
        <path id="Path_9856" data-name="Path 9856" d="M612.951,231.42s-5.681,1.1-7.872,1.828c0,0,.694,13.123-1.508,16.415l-.991,28.624s12.44-.154,12.837-15.644.374-16.184.374-16.184Z" transform="translate(-2.171 -53.269)" fill="#dc2626"/>
        <path id="Path_9857" data-name="Path 9857" d="M613.678,246.712a.653.653,0,1,1,0-.011Z" transform="translate(-1.148 -51.783)" fill="#292c3d"/>
        <path id="Path_9858" data-name="Path 9858" d="M613.4,250.975a.463.463,0,0,1-.484.462.484.484,0,0,1-.473-.484.5.5,0,0,1,.5-.473.484.484,0,0,1,.462.5Z" transform="translate(-1.175 -51.345)" fill="#292c3d"/>
        <path id="Path_9859" data-name="Path 9859" d="M613.087,255.233a.473.473,0,1,1-.473-.473A.474.474,0,0,1,613.087,255.233Z" transform="translate(-1.206 -50.913)" fill="#292c3d"/>
        <path id="Path_9860" data-name="Path 9860" d="M612.848,259.494a.473.473,0,0,1-.484.462.484.484,0,0,1-.473-.484.462.462,0,0,1,.484-.462.484.484,0,0,1,.474.484Z" transform="translate(-1.231 -50.485)" fill="#292c3d"/>
        <path id="Path_9861" data-name="Path 9861" d="M628.95,234.693l-7.706-3.633-6.506,15.413-1.387,17.978s.165,15.8,13.651,13.85l-1.1-29S625.757,238.7,628.95,234.693Z" transform="translate(-1.084 -53.305)" fill="#dc2626"/>
        <path id="Path_9862" data-name="Path 9862" d="M649.5,240.778l-4.646-3.4s-8.686,13.717-9.193,13.31-4.646-14.851-7.795-16.327c0,0-1.585,1.1-2.488,4.47a37.639,37.639,0,0,0-.606,9.908s8.191,12.11,11.086,11.725S649.5,240.778,649.5,240.778Z" transform="translate(0.059 -52.972)" fill="#dc2626"/>
        <path id="Path_9863" data-name="Path 9863" d="M589.487,234.489,584.17,236.6s7.277,26.3,11.472,23.989,9.765-10.5,9.765-10.5a19.507,19.507,0,0,0,2.2-6.539c.528-3.512.2-8.323-.638-10.47,0,0-3.7,2.2-6.8,8.433s-4.04,7.949-4.316,7.563S589.487,234.489,589.487,234.489Z" transform="translate(-4.028 -53.101)" fill="#dc2626"/>
        <path id="Path_9864" data-name="Path 9864" d="M611.76,232.3c0,.132,1.376,5.064,1.376,5.064l2.972-2.2,2.521,2.356,2.664-5.648-.44-.55-3.182,1.728-1.563,1.409-3.479-2.642-.2-.132Z" transform="translate(-1.244 -53.279)" fill="#abacb3" opacity="0.55"/>
        <path id="Path_9865" data-name="Path 9865" d="M616.127,233.634l-3.666-2.8-.881.826,1.42,5.009,3.127-2.345,2.807,2.631,2.719-5.648-1.365-1.431Z" transform="translate(-1.262 -53.424)" fill="#fff"/>
        <rect id="Rectangle_3032" data-name="Rectangle 3032" width="27.369" height="1.662" transform="translate(575.892 222.926)" fill="#3f6a85"/>
        <rect id="Rectangle_3033" data-name="Rectangle 3033" width="31.343" height="22.624" rx="1.48" transform="translate(573.91 201.127)" fill="#3d3d3d"/>
        <path id="Path_9866" data-name="Path 9866" d="M579.442,273.285V253.93a1.64,1.64,0,0,1,1.629-1.64h-1.442A1.64,1.64,0,0,0,578,253.93v19.354a1.629,1.629,0,0,0,1.629,1.629h1.442A1.629,1.629,0,0,1,579.442,273.285Z" transform="translate(-4.651 -51.163)" fill="#606060"/>
        <path id="Path_9867" data-name="Path 9867" d="M594.459,262.714a1.574,1.574,0,1,1-1.574-1.574,1.574,1.574,0,0,1,1.574,1.574Z" transform="translate(-3.308 -50.27)" fill="#fff"/>
        <rect id="Rectangle_3034" data-name="Rectangle 3034" width="20.62" height="2.95" transform="translate(620.556 221.637)" fill="#3d3d3d"/>
        <path id="Path_9868" data-name="Path 9868" d="M615.82,253.575l6.672,20.719,1.046-.385-6.683-20.719Z" transform="translate(-0.834 -51.072)" fill="#3d3d3d"/>
        <path id="Path_9869" data-name="Path 9869" d="M650.3,319.45s-5.5,2.708-8.433,3.919c-2.444,1.013-1.938,3.3.848,4.073s5.064.275,5.7-.606,2.2-.55,2.774-.264,5.229-.793,5.5-1.861-.881-5.813-.881-5.813Z" transform="translate(1.636 -44.44)" fill="#030303"/>
        <path id="Path_9870" data-name="Path 9870" d="M678.663,273.1l-9.336.121s-22.822,8.51-25.806,10.756,4.9,41.208,4.9,41.208l7.706-.815s-1.828-34.866-.341-36.33,25.651-3.7,27.171-4.15S682.373,278.054,678.663,273.1Z" transform="translate(1.893 -49.062)" fill="#4d505e"/>
        <path id="Path_9871" data-name="Path 9871" d="M678.663,273.1l-9.336.121s-22.822,8.51-25.806,10.756,4.9,41.208,4.9,41.208l7.706-.815s-1.828-34.866-.341-36.33,25.651-3.7,27.171-4.15S682.373,278.054,678.663,273.1Z" transform="translate(1.893 -49.062)" fill="#414f57"/>
        <path id="Path_9872" data-name="Path 9872" d="M693.8,254.33l-9.468,37.883-3.93-.98,8.158-38.213Z" transform="translate(5.683 -51.089)" fill="#656f74"/>
        <rect id="Rectangle_3035" data-name="Rectangle 3035" width="1.574" height="41.351" transform="translate(656.248 242.225)" fill="#c1c1c1"/>
        <rect id="Rectangle_3036" data-name="Rectangle 3036" width="1.574" height="41.351" transform="translate(685.302 242.225)" fill="#c1c1c1"/>
        <rect id="Rectangle_3037" data-name="Rectangle 3037" width="39.05" height="5.406" transform="translate(652.032 238.416)" fill="#656f74"/>
        <path id="Path_9873" data-name="Path 9873" d="M673.61,237l-5.35,1.1s1.53,6.606,0,10.217c0,0,2.917,1.1,7.839-2.587C676.1,245.807,673.06,243.22,673.61,237Z" transform="translate(4.458 -52.706)" fill="#e8ad92"/>
        <path id="Path_9874" data-name="Path 9874" d="M674.982,230.216s-5.956-2.2-7.552-1.431-3.545,2.037-3.248,3.237a16.985,16.985,0,0,1,.143,5.912c-.385,1.1-1.1,1.894-.892,2.279s1.1.088,1.354.561,1.651,3.622,2.466,4.073,5.428-1.178,7.563-6.2S676.3,231.064,674.982,230.216Z" transform="translate(3.967 -53.551)" fill="#f4bca3"/>
        <path id="Path_9875" data-name="Path 9875" d="M644.383,320s-7.167,2.5-10.117,3.688c-2.455.98-1.971,3.215.8,4.073s5.064.33,5.7-.55,2.2-.528,2.785-.242,5.229-.727,5.5-1.806a15.885,15.885,0,0,0-.4-4.205Z" transform="translate(0.867 -44.329)" fill="#030303"/>
        <path id="Path_9876" data-name="Path 9876" d="M671.594,228.564s2.037-2.268,4.338-.936,1.4,3.435,1.883,4.4a5.681,5.681,0,0,1-.187,5.945c-1.244,2.2-.5,3.622-2.565,3.853s-2.686-.385-2.686-.385a8.005,8.005,0,0,0,.8-3.237s1.772-.98,1.53-2.51a1.31,1.31,0,0,0-2.609-.154c-.5,1.574.385,2.653-.771,3.413,0,0-.694.2-.694-1.552a17.069,17.069,0,0,1,.319-3.226s-4.183,2.2-7.4,0-1-5.7,1.343-6.506a7.707,7.707,0,0,1,6.694.892Z" transform="translate(3.821 -53.694)" fill="#374044"/>
        <path id="Path_9877" data-name="Path 9877" d="M681.441,271.84l-10.415,2.081s-23.681,8.554-26.664,10.789-3.512,40.6-3.512,40.6l7.773.749s3.3-36.474,5.152-37.541c1.563-.914,27.028-.914,28.624-.914C684.689,287.605,686.67,277.124,681.441,271.84Z" transform="translate(1.692 -49.19)" fill="#455a64"/>
        <path id="Path_9878" data-name="Path 9878" d="M639.522,269.595s-1.574.187-1.9.187-4.646-2.62-5.119-2.279-4.91,3.523-4.778,4.15,1.354.275,3.721-1.772c0,0-3.138,2.279-2.543,2.84s3.3-1.993,3.3-1.993-2.829,2.2-2.2,2.664,3.16-2.092,3.16-2.092-1.96,1.938-1.7,2.268,1.5-.209,2.84-1.508c0,0,.253-.132.958.275s5.075-.319,5.075-.319Z" transform="translate(0.366 -49.63)" fill="#f4bca3"/>
        <path id="Path_9879" data-name="Path 9879" d="M637.42,270.417l1.332,5s21.567-4.877,23.747-6.484,15.193-15.754,13.31-19.684-4.4-2.972-5.956-.738-9.017,11.747-10.074,12.848S637.42,270.417,637.42,270.417Z" transform="translate(1.346 -51.74)" fill="#dc2626"/>
        <path id="Path_9880" data-name="Path 9880" d="M641.787,271.7s-1.651.187-2,.187-4.877-2.609-5.372-2.268-5.163,3.512-5.02,4.15,1.431.264,3.908-1.784c0,0-3.3,2.279-2.675,2.851s3.5-1.993,3.5-1.993-2.961,2.2-2.268,2.653,3.3-2.081,3.3-2.081-2.048,1.938-1.772,2.268,1.563-.22,2.984-1.508c0,0,.253-.143,1,.264s5.328-.308,5.328-.308Z" transform="translate(0.535 -49.417)" fill="#f4bca3"/>
        <path id="Path_9881" data-name="Path 9881" d="M676.131,244.64s-4.822,2.444-7.552,2.29c0,0-4.4,9.292-4.712,11.769s.5,18.716.5,18.716,10.7,2.323,17-.859c0,0-1.7-10.58-1-15.842S680.534,248.548,676.131,244.64Z" transform="translate(4.007 -51.935)" fill="#dc2626"/>
        <path id="Path_9882" data-name="Path 9882" d="M674.079,261.324c1.1-2.466,5.251-6.429,3.138-9.193-1.684-2.2-2.9-2.378-4.756-.264a62.743,62.743,0,0,1-5.317,5.879,32.79,32.79,0,0,1-3.3,2.444c0,5.108.561,16.624.561,16.624a42.648,42.648,0,0,0,7.629.815C669.774,272.784,671.833,266.476,674.079,261.324Z" transform="translate(4.012 -51.356)" fill="#c41f1f" opacity="0.65"/>
        <path id="Path_9883" data-name="Path 9883" d="M639.58,272.527l1.4,5s22.646-4.866,24.936-6.484,15.963-15.754,13.993-19.7-4.624-2.961-6.264-.727-9.457,11.78-10.58,12.892S639.58,272.527,639.58,272.527Z" transform="translate(1.564 -51.529)" fill="#dc2626"/>
        <path id="Path_9884" data-name="Path 9884" d="M541.84,247.884a43.773,43.773,0,0,0,1.993-4.624c.5-1.607,2.565-7.211,3.413-6.7s-1.035,5.207-1.035,5.207,1.519-5.824,2.609-5.593-1.376,5.736-1.376,5.736,1.982-5.163,2.642-4.734.253,1.574-1.5,5.428c0,0,1.5-3.3,2.2-2.62s-1.178,3.765-1.894,4.514a51.887,51.887,0,0,0-4.91,5.218S542.016,249.195,541.84,247.884Z" transform="translate(-8.301 -52.79)" fill="#f4bca3"/>
        <path id="Path_9885" data-name="Path 9885" d="M544.848,243.3s2.5-1.7,3.3-1.178.077,1.178-2.554,2.268c0,0-.87,1.288-1.464,1.431a1.817,1.817,0,0,1,.716-2.521Z" transform="translate(-8.094 -52.199)" fill="#e8ad92"/>
        <path id="Path_9886" data-name="Path 9886" d="M544.187,245.41s-8.807,14.906-9.325,14.807-13.321-4-17.736-7.288c-1.255-.936-1.244,9.259,0,9.908s19.982,3.952,20.807,3.435,10.349-18.407,10.349-18.407Z" transform="translate(-10.889 -51.857)" fill="#dc2626"/>
        <path id="Path_9887" data-name="Path 9887" d="M539.246,262.676c-6.385,4.106-21.358-7.706-23.119-8.136-.253,2.785.154,6.936.98,7.354,1.255.628,19.982,3.952,20.807,3.435a19.531,19.531,0,0,0,2.015-3.182,6.021,6.021,0,0,1-.683.528Z" transform="translate(-10.903 -50.936)" fill="#b81c1c" opacity="0.65"/>
        <path id="Path_9888" data-name="Path 9888" d="M517.841,246.986c-.562-.11-3.3-5.824-4.4-6.936-.561,3.9-2.917,13.156-2.917,13.156,2.862,3.072,8.565,1.189,8.565,1.189a19.6,19.6,0,0,1-1.244-7.409Z" transform="translate(-11.461 -52.398)" fill="#e8ad92"/>
        <path id="Path_9889" data-name="Path 9889" d="M516.1,233.479s5.5,1.255,6.605,2.873,1.1,5.835,1.651,6.947c.352.672.672,1.222.848,1.618s-.231.55-.716.716a.815.815,0,0,0-.517.539c-.33,1.024-1.244,3.622-2.2,3.985-1.1.451-6.8.275-8.5-4.657S512.548,232.422,516.1,233.479Z" transform="translate(-11.265 -53.071)" fill="#f4bca3"/>
        <path id="Path_9890" data-name="Path 9890" d="M536.719,319.907l-3.732-.617a28.216,28.216,0,0,1-.506,4.4,11.967,11.967,0,0,0,8.477.418,14.446,14.446,0,0,1-3.5-2.059,4.085,4.085,0,0,1-.738-2.147Z" transform="translate(-9.245 -44.401)" fill="#f4bca3"/>
        <path id="Path_9891" data-name="Path 9891" d="M532.834,321.74a12,12,0,0,0,7.233,1.651s5.362,2.862,5.7,3.578c.484,1-1.861,1.1-5.5.947-3.116-.1-2.884-.33-3.512-.947s-1.409-1.3-1.409-1.3a6.341,6.341,0,0,0-.605,2.2l-1.4-.2a4.579,4.579,0,0,0-.506-2.62A2.631,2.631,0,0,1,532.834,321.74Z" transform="translate(-9.269 -44.154)" fill="#030303"/>
        <path id="Path_9892" data-name="Path 9892" d="M523.113,319.071l-2.807-.771s-1.662,2.752-2.136,3.479a11.945,11.945,0,0,0,8.169,2.29,14.519,14.519,0,0,1-2.928-2.73,4.2,4.2,0,0,1-.3-2.268Z" transform="translate(-10.689 -44.501)" fill="#f4bca3"/>
        <path id="Path_9893" data-name="Path 9893" d="M518.519,320.89a12,12,0,0,0,7.057,2.312s5.064,3.3,5.339,4.1c.385,1.1-1.96.892-5.582.429-3.1-.385-2.851-.595-3.424-1.266s-1.277-1.42-1.277-1.42a6.5,6.5,0,0,0-.8,2.1l-1.376-.33a4.59,4.59,0,0,0-.264-2.653,2.642,2.642,0,0,1,.33-3.27Z" transform="translate(-10.73 -44.239)" fill="#030303"/>
        <path id="Path_9894" data-name="Path 9894" d="M511.311,272.27l7.354,5.2s23.857,4.6,26.884,6.87-19.255,42.529-19.255,42.529l-6.936-2.312S536,288.916,534.5,287.408s-26.048-3.754-27.6-4.216S507.546,277.3,511.311,272.27Z" transform="translate(-11.878 -49.146)" fill="#ff4c6b"/>
        <path id="Path_9895" data-name="Path 9895" d="M511.311,272.27l7.354,5.2s23.857,4.6,26.884,6.87-19.255,42.529-19.255,42.529l-6.936-2.312S536,288.916,534.5,287.408s-26.048-3.754-27.6-4.216S507.546,277.3,511.311,272.27Z" transform="translate(-11.878 -49.146)" fill="#455a64"/>
        <path id="Path_9896" data-name="Path 9896" d="M509.133,274.41l9.611.815s24.65,6.209,27.666,8.477-4.4,42.54-4.4,42.54l-7.519-1.9s4.239-35.67,2.389-36.749c-1.585-.936-27.446-.936-29.064-.936C505.467,286.652,503.838,279.771,509.133,274.41Z" transform="translate(-11.957 -48.93)" fill="#455a64"/>
        <path id="Path_9897" data-name="Path 9897" d="M511.791,250.24a70.023,70.023,0,0,0,7.618,2.9s4.481,8.807,4.789,11.328,2.257,15.963,2.257,15.963-13.839,3.974-20.235.815c0,0,1.938-9.567,1.222-14.807S507.354,254.126,511.791,250.24Z" transform="translate(-11.895 -51.37)" fill="#dc2626"/>
        <path id="Path_9898" data-name="Path 9898" d="M512.83,264.676c0,4.4,2.873,6.605,5.8,9.468a19.21,19.21,0,0,1,4.4,6.341c1.563-.462,2.763-.683,2.763-.683s-1.1-7.233-1.729-12.11c-2.939-1.31-4.5-4.128-5.5-7.123a11.385,11.385,0,0,0-2.037-4.139c-3.3.088-3.457,3.9-3.644,7.464Z" transform="translate(-11.228 -50.745)" fill="#b81c1c" opacity="0.65"/>
        <path id="Path_9899" data-name="Path 9899" d="M493.07,253.212l9.622,38.455,3.985-.991-8.279-38.8Z" transform="translate(-13.222 -51.204)" fill="#656f74"/>
        <rect id="Rectangle_3038" data-name="Rectangle 3038" width="1.596" height="41.978" transform="translate(522.156 241.586)" fill="#c1c1c1"/>
        <rect id="Rectangle_3039" data-name="Rectangle 3039" width="1.596" height="41.978" transform="translate(492.662 241.586)" fill="#c1c1c1"/>
        <rect id="Rectangle_3040" data-name="Rectangle 3040" width="39.644" height="5.494" transform="translate(488.38 237.722)" fill="#656f74"/>
        <path id="Path_9900" data-name="Path 9900" d="M524.667,238.354c1.795-.694.991-3.479-.242-4.338a13.464,13.464,0,0,0-7.629-2.576c-3.3.066-6.22,2.587-8.114,5.02-1.365,1.772-1.277,3.644-2.257,5.5-.9,1.728-2.851,2.6-4.018,4.15a6.011,6.011,0,0,0-.672,5.1,9.579,9.579,0,0,1,.484,3.963c-.275,1.717-1.662,2.983-2.125,4.646a12.618,12.618,0,0,0-.077,4.723,6.385,6.385,0,0,0,2.829,4.8c3.413,2.268,8.026-.473,8.554-4.283a19.658,19.658,0,0,0-.429-4.9,4.183,4.183,0,0,1,2.279-4.4c1.486-.958,2.2-1.585,2.081-3.457a15.293,15.293,0,0,1,0-3.82c.264-1.442.881-1.717-.253-2.774-.793-.749-1.464-1.541-.826-2.664.506-.9,1.332-1.167,2.037-.319.187.22,1.1,2.1,1.365,1.046.066-.3-.33-.87-.363-1.2a1.31,1.31,0,0,1,.374-1.189c.561-.595,1.387-.914,1.96-1.508s.826-1.739,1.872-2.2a2.686,2.686,0,0,1,1.662-.066C523.445,237.715,524.5,238.42,524.667,238.354Z" transform="translate(-12.54 -53.267)" fill="#374044"/>
        <rect id="Rectangle_3041" data-name="Rectangle 3041" width="20.62" height="2.95" transform="translate(539.396 221.637)" fill="#3d3d3d"/>
        <path id="Path_9901" data-name="Path 9901" d="M571.668,253.575l-6.683,20.719-1.046-.385,6.683-20.719Z" transform="translate(-6.07 -51.072)" fill="#3d3d3d"/>
        <rect id="Rectangle_3042" data-name="Rectangle 3042" width="1.376" height="60.617" transform="translate(529.972 224.588)" fill="#ae7461"/>
        <rect id="Rectangle_3043" data-name="Rectangle 3043" width="1.376" height="60.617" transform="translate(666.234 224.588)" fill="#ae7461"/>
        <rect id="Rectangle_3044" data-name="Rectangle 3044" width="137.626" height="1.607" transform="translate(529.972 224.588)" fill="#ae7461"/>
        <path id="Path_9902" data-name="Path 9902" d="M544.962,270.336s1.784-.121,2.2-.2,4.657-3.721,5.251-3.457,6.154,2.719,6.143,3.413-1.464.572-4.492-1.1c0,0,3.941,1.761,3.391,2.488s-4.106-1.42-4.106-1.42,3.567,1.706,2.928,2.367-3.93-1.563-3.93-1.563,2.554,1.651,2.334,2.059-1.706.077-3.468-1.013c0,0-.3-.1-1,.473s-5.714.716-5.714.716Z" transform="translate(-8.032 -49.712)" fill="#f4bca3"/>
        <path id="Path_9903" data-name="Path 9903" d="M549.387,270.678v4.756s-16.679,1.013-21.369-.539-14.554-14.158-15.413-16.272c-1.024-2.532,2.84-8.7,6.672-3.083a117.064,117.064,0,0,0,11.141,13.42C530.76,269.191,549.387,270.678,549.387,270.678Z" transform="translate(-11.268 -51.066)" fill="#dc2626"/>
        <path id="Path_9904" data-name="Path 9904" d="M771.55,251.741s-10.327-.771-13.508-6.077,0-8.928,2.609-10.624,6.518-4.294,6.661-6.7,0-8.345,6.176-10.3a9.06,9.06,0,0,1,6.473.341,7.365,7.365,0,0,1,2.565,2.048,5.5,5.5,0,0,1,1.1,2.653,10.372,10.372,0,0,1,.143,2.62c0,1.4-.352,2.84-.484,4.239-.11,1.222-.187,2.411-.187,3.644a7.32,7.32,0,0,0,.418,2.389c.275.793.7,1.508,1,2.279a29.461,29.461,0,0,1,1.1,3.083,8.3,8.3,0,0,1,0,3.413c-.319,3.424-2.829,5.56-6.011,6.429A23.77,23.77,0,0,1,771.55,251.741Z" transform="translate(13.384 -54.665)" fill="#292c3d"/>
        <path id="Path_9905" data-name="Path 9905" d="M777.466,231.1a5.868,5.868,0,0,1-4.195-2.334,10.315,10.315,0,0,1-1.872,7.541s0,6.859,4.4,6.187,3.908-5.791,3.908-5.791a6.044,6.044,0,0,1-2.246-5.6Z" transform="translate(14.867 -53.536)" fill="#e8ad92"/>
        <path id="Path_9906" data-name="Path 9906" d="M772.93,221.1s4.217-1.772,5.791-.9,2.29,3.3,2.807,5.758-.738,7.112-3.061,7.883c-2.741.914-5.152-1.343-6.055-4.206,0,0-2.411-.583-2.2-3.8S771.191,220.775,772.93,221.1Z" transform="translate(14.746 -54.425)" fill="#f4bca3"/>
        <path id="Path_9907" data-name="Path 9907" d="M779.891,235.219s-1.817,3.3-2.752,3.864-4.767-4.4-4.767-4.4a37.794,37.794,0,0,1-8.048,3.655s-1.266,13.387-2.092,16.514c0,0-1.442,16.932-1.442,19.211h22.734a51.292,51.292,0,0,1,3.9-21.468s-1.332-10.349-.605-12.914A74.348,74.348,0,0,1,779.891,235.219Z" transform="translate(13.796 -52.94)" fill="#dc2626"/>
        <path id="Path_9908" data-name="Path 9908" d="M787.435,251.691s-.33-2.532-.573-5.406a96.115,96.115,0,0,0-3.71,9.6c-1.475,3.853-5.769,11.174-11.009,9.512-4.161-1.3-5.5-6.121-6.132-9.974-.363-2.1-.694-4.239-.914-6.363-.187-1.75-.242-4.624-1.211-6.11-.561.484-.782,2.2-.859,2.961-.1,1.1-.121,2.2-.176,3.358a11.505,11.505,0,0,1-.088,1.717c-.088.617-.143.958-.22,1.442s-.066.7-.143,1.035a.55.55,0,0,1,0,.132.488.488,0,0,1-.088.352c-.088.1-1.442,16.932-1.442,19.211H783.6a51.291,51.291,0,0,1,3.831-21.468Z" transform="translate(13.804 -52.105)" fill="#cb2121" opacity="0.65"/>
        <path id="Path_9909" data-name="Path 9909" d="M771.736,234.42,769.27,235.9l3.776,6.165,3.237-2.664,3.094,2.5,1.519-5.461-2.2-1.6-2.334,3.9Z" transform="translate(14.652 -52.966)" fill="#e75549"/>
        <path id="Path_9910" data-name="Path 9910" d="M780.5,221.647s-.815,2.862-3.3,3.556a2.268,2.268,0,0,0-1.608,2.411c0,.506-1.1.583-1.156.242s.264-2.048-1.211-2.389-1.585,1.861-.264,3.182c0,0,2.466,2.609,1.31,5.5a9.545,9.545,0,0,1-8.191,6.22c-4.635.528-6.606,7.013-6.606,7.013s-4.657-5.5.506-9.435,8.807-6.231,8.807-8.807,1.662-9.666,6.1-10.14S780.5,221.647,780.5,221.647Z" transform="translate(13.469 -54.527)" fill="#292c3d"/>
        <path id="Path_9911" data-name="Path 9911" d="M781.624,225.794s-1.927.275-3.985-2.609a9.688,9.688,0,0,1-2.059-5.174S783.011,219.188,781.624,225.794Z" transform="translate(15.289 -54.622)" fill="#292c3d"/>
        <rect id="Rectangle_3045" data-name="Rectangle 3045" width="1.85" height="48.793" transform="translate(774.432 234.331)" fill="#c1c1c1"/>
        <rect id="Rectangle_3046" data-name="Rectangle 3046" width="1.85" height="48.793" transform="translate(808.715 234.331)" fill="#c1c1c1"/>
        <rect id="Rectangle_3047" data-name="Rectangle 3047" width="1.85" height="48.793" transform="translate(831.273 234.331)" fill="#c1c1c1"/>
        <rect id="Rectangle_3048" data-name="Rectangle 3048" width="1.85" height="48.793" transform="translate(865.555 234.331)" fill="#c1c1c1"/>
        <rect id="Rectangle_3049" data-name="Rectangle 3049" width="46.074" height="4.767" transform="translate(769.456 231.447)" fill="#656f74"/>
        <path id="Path_9912" data-name="Path 9912" d="M783.785,309.1s-4.183,4.624-4.084,5.218,9.666,13.211,11.009,13.046,1.442-2.51,1.1-3.369-4.4-13.464-4.4-13.464Z" transform="translate(15.704 -45.429)" fill="#030303"/>
        <path id="Path_9913" data-name="Path 9913" d="M773.065,309.23s-4.569,4.239-4.525,4.833,8.466,13.971,9.908,13.971,1.651-2.367,1.4-3.3-3.226-13.806-3.226-13.806Z" transform="translate(14.578 -45.416)" fill="#030303"/>
        <path id="Path_9914" data-name="Path 9914" d="M790.171,282.94c-1.618,7.706-7.1,29.229-7.1,29.229l4.855,2.906s8.279-21.061,10.954-32.136Z" transform="translate(16.045 -48.069)" fill="#f4bca3"/>
        <path id="Path_9915" data-name="Path 9915" d="M781.52,282.94c-2.4,7.883-9.27,29.428-9.27,29.428l4.338,2.917s11.494-21.347,15.732-32.345Z" transform="translate(14.953 -48.069)" fill="#f4bca3"/>
        <path id="Path_9916" data-name="Path 9916" d="M800.095,276.911a47.78,47.78,0,0,0-11.174-4.888h0c-1.574-.407-4.4-4.084-4.789-7.211-2.268.892-5.086.859-7.861.947-3.842.132-8.334.716-12.11-.176a10.359,10.359,0,0,1-2.356-.9,15.3,15.3,0,0,0-4.194,10.745c0,3.5,1.013,5.053,4.833,6.3,2.059.672,12.881-.33,15.9.914,2.675,1.1,2.2,3.952,1.739,5.912,12.738,1.828,19.343.594,21.7.055C802.495,286.093,804.168,279.223,800.095,276.911Z" transform="translate(13.475 -49.912)" fill="#455a64"/>
        <path id="Path_9917" data-name="Path 9917" d="M829.665,268.075s-10.844-.055-14.653-2.6-4.47-12.628,1.1-16.756,6.672-5.395,6.925-8.114.176-8.884,7.343-8.917,6.418,5.725,6.958,9.391c.363,2.554,3.875,6.319,6.947,8.664C848.183,252.762,852.6,270.619,829.665,268.075Z" transform="translate(18.969 -53.242)" fill="#292c3d"/>
        <path id="Path_9918" data-name="Path 9918" d="M831.6,241.517a6.241,6.241,0,0,1-1.916.286,5.725,5.725,0,0,1-3.215-.9c-.3,2.037.628,4.4-1.365,4.987,0,0,.121,8.807,3.644,8.807s4-8.807,4-8.807S831.089,245.513,831.6,241.517Z" transform="translate(20.287 -52.312)" fill="#e8ad92"/>
        <path id="Path_9919" data-name="Path 9919" d="M833.893,240.058c-.363-.793-1.288-.407-1.288-.407.187-2.125.176-5.5.176-5.5l-3.688-.4-3.677.4s0,3.3.176,5.5c0,0-.925-.385-1.288.407-.617,1.321.87,2.2.87,2.2s1.035,4.492,3.919,4.756c2.9-.264,3.985-4.778,3.93-4.756S834.509,241.379,833.893,240.058Z" transform="translate(20.191 -53.034)" fill="#f4bca3"/>
        <path id="Path_9920" data-name="Path 9920" d="M833.387,234.228s-1.938,4.987-7.255,4.624a3.3,3.3,0,0,1-.143,1.662s-.727-2.081-1.552-1.618a2.8,2.8,0,0,0-1.1,1.255s-.771-5.912,3.061-7.222A7.872,7.872,0,0,1,833.387,234.228Z" transform="translate(20.102 -53.149)" fill="#292c3d"/>
        <path id="Path_9921" data-name="Path 9921" d="M830.927,233.67a5.508,5.508,0,0,0-.077.826v1.772a4.25,4.25,0,0,1,.958,2.7,3.159,3.159,0,0,0,.176,1.442s.738-2.081,1.552-1.618a2.8,2.8,0,0,1,1.1,1.255S834.417,233.56,830.927,233.67Z" transform="translate(20.867 -53.042)" fill="#292c3d"/>
        <path id="Path_9922" data-name="Path 9922" d="M839.892,259.4c-1.1-3.094-.517-11.406-.517-11.406-1.31-.418-6.462-2.829-6.462-2.829l-3.3,8.07-3.523-8.015s-4.151,2-5.5,2.411c0,0-.264,8.675-1.332,11.769,0,0,3.3,5.328,0,17.251h20.642C836.59,264.733,839.892,259.4,839.892,259.4Z" transform="translate(19.696 -51.881)" fill="#dc2626"/>
        <path id="Path_9923" data-name="Path 9923" d="M839.891,258.54a35.5,35.5,0,0,1-.451-4.8c-.484,1.321-1.1,4.194-1.563,5.5-1.7,4.4-3.523,6.209-8.444,6.286-3.93.066-7.607-6.286-8.015-7.464-.484-1.354-1.1-2.653-1.563-3.974a18.024,18.024,0,0,1-.594,4.459s3.3,5.328,0,17.251h20.631C836.589,263.868,839.891,258.54,839.891,258.54Z" transform="translate(19.697 -51.016)" fill="#d02222"/>
        <path id="Path_9924" data-name="Path 9924" d="M838.056,266.08s-1.739.892-2.323.727a2.457,2.457,0,0,0-2.07-.165,8,8,0,0,0-2.257.991c-.616.363-1.794.947-1.42,1.651s1.64-.231,1.761-.286l.528-.253s-1.442.683-1.178,1.1.969.407,1.431.143a9.061,9.061,0,0,0,.87-.551s-.969.672-.793.892a1.277,1.277,0,0,0,1.387,0,2.278,2.278,0,0,0,.76-.572s-.859.605-.088.87,1.475-.539,1.9-.848,1.024-.98,1.233-1.1,2.07-.782,2.07-.782Z" transform="translate(20.772 -49.771)" fill="#f4bca3"/>
        <path id="Path_9925" data-name="Path 9925" d="M830.6,269.958l-5.075-8.312s-1.519-.8-1.442,1l6.011,7.706S831.864,272.347,830.6,269.958Z" transform="translate(20.183 -50.236)" fill="#3d3d3d"/>
        <path id="Path_9926" data-name="Path 9926" d="M819.826,266.193a9.385,9.385,0,0,0,2.07.914c.264-.088,4.029-2.279,4.844-1.883a5.229,5.229,0,0,1,1.684,1.817c.385.517,1.652,2.081,1.1,2.587s-1.486-1.233-1.816-1.585-1.3-1.387-1.85-1.277a5.044,5.044,0,0,1,1.552,1.178c.473.661,1.618,1.662,1.189,2.356s-1.849-1.343-1.982-1.475a5.01,5.01,0,0,0-1.508-.958s1.189.848,1.321,1,1.519,1.233,1.288,1.607-.7.528-1.761-.672a5.186,5.186,0,0,0-1.266-.9,8.259,8.259,0,0,1,1.189.826c.231.242.749.8.341.925s-.969-.187-1.563-.561a2.576,2.576,0,0,0-1.993-.407c-.694.176-4-.98-4-.98Z" transform="translate(19.638 -49.862)" fill="#f4bca3"/>
        <path id="Path_9927" data-name="Path 9927" d="M827.71,265.38s1.409.462,1.674,1.1-.187.947-.518.815Z" transform="translate(20.55 -49.842)" fill="#f9a57e"/>
        <path id="Path_9928" data-name="Path 9928" d="M821.384,247.41c-1.178.319-4.062,1.4-6.749,8.675-2.433,6.605-3.424,11.945-3.193,13.651.385,2.752,11.075,2.664,11.075,2.664l.716-4.25s-4.8-1.563-4.69-2.2c.154-.793,1.508-3.721,2.07-5.5C820.713,260.17,822.21,247.179,821.384,247.41Z" transform="translate(18.905 -51.655)" fill="#dc2626"/>
        <path id="Path_9929" data-name="Path 9929" d="M837.48,247.7c.848.143,3.974,1.574,6.738,8.356,2.664,6.5,3.435,11.945,3.193,13.651-.374,2.752-11.064,2.664-11.064,2.664l-.716-4.25s4.8-1.563,4.679-2.2c-.154-.793-1.508-3.721-2.07-5.5C838.14,260.141,836.632,247.568,837.48,247.7Z" transform="translate(21.349 -51.626)" fill="#dc2626"/>
        <path id="Path_9930" data-name="Path 9930" d="M807.065,264.29l-1.365,2.433a21.737,21.737,0,0,1,2.367,1.6,5.141,5.141,0,0,0,3.215,2.521c2.136.407,2.466.837,3.006.286s-.87-1.31-1.728-1.508-1.552-.341-1.431-.539.892-.187,2.4,0,3.512.925,3.963.616-1.1-1.618-2.972-1.816a16.979,16.979,0,0,1-1.971-.3,21.424,21.424,0,0,1,2.136.2c.429.11,2.972.837,3.567.363s-1.673-1.343-3.3-1.508a7.641,7.641,0,0,0-2.092,0,21.7,21.7,0,0,1,2.345-.066c.573.066,2.2.55,2.4.121s-1.2-1.013-2.433-1.1a13.49,13.49,0,0,0-2.279.143,13.036,13.036,0,0,1,2.2-.3c.605,0,1.53.165,1.585-.11s-.352-.815-2.411-.782a15.98,15.98,0,0,0-2.807.385C810.434,265.182,807.373,264.3,807.065,264.29Z" transform="translate(18.329 -49.952)" fill="#f4bca3"/>
        <rect id="Rectangle_3050" data-name="Rectangle 3050" width="1.431" height="63.039" transform="translate(755.496 220.449)" fill="#ae7461"/>
        <rect id="Rectangle_3051" data-name="Rectangle 3051" width="1.431" height="63.039" transform="translate(879.438 220.449)" fill="#ae7461"/>
        <rect id="Rectangle_3052" data-name="Rectangle 3052" width="130.217" height="1.673" transform="translate(753.074 220.449)" fill="#ae7461"/>
        <path id="Path_9931" data-name="Path 9931" d="M843.22,284.139v-.561a17.307,17.307,0,0,0-3.149-10.007H819.418a18.6,18.6,0,0,0-2.818,10.007v.561Z" transform="translate(19.429 -49.015)" fill="#455a64"/>
        <path id="Path_9932" data-name="Path 9932" d="M823.787,310.1s-5.229,6.209-5.835,7.53.881,2.983,2.917,2.312,8.037-7.53,7.706-8.378a5.509,5.509,0,0,0-1.629-1.772Z" transform="translate(19.551 -45.36)" fill="#030303"/>
        <rect id="Rectangle_3053" data-name="Rectangle 3053" width="45.512" height="4.767" transform="translate(826.385 231.447)" fill="#656f74"/>
        <path id="Path_9933" data-name="Path 9933" d="M828.879,282.735c-.2-2.411.242-6.815-3.743-6.815-6.022,0-4.789,8.664-4.69,9.633.947,9.6,3.094,27.963,3.094,27.963l3.215-.407S828.967,283.836,828.879,282.735Z" transform="translate(19.8 -48.778)" fill="#f4bca3"/>
        <path id="Path_9934" data-name="Path 9934" d="M834.591,310.1s5.218,6.209,5.824,7.53-.881,2.983-2.917,2.312-8.037-7.53-7.706-8.378a5.509,5.509,0,0,1,1.629-1.772Z" transform="translate(20.759 -45.36)" fill="#030303"/>
        <path id="Path_9935" data-name="Path 9935" d="M829.29,282.735c.2-2.411-.231-6.815,3.743-6.815,6.033,0,4.8,8.664,4.7,9.633-.947,9.6-3.094,27.963-3.094,27.963l-3.226-.407S829.2,283.836,829.29,282.735Z" transform="translate(20.709 -48.778)" fill="#f4bca3"/>
        <path id="Path_9936" data-name="Path 9936" d="M810.559,265.91l-1.343,5s-17.615-3.149-19.255-5.593-5.813-12.925-5.813-12.925-2.389-7.982.385-13.211c0,0,2.62.991,4.106,5.053.969,2.609,5.648,13.828,6.606,15.006S810.559,265.91,810.559,265.91Z" transform="translate(16.057 -52.486)" fill="#dc2626"/>
        <path id="Path_9937" data-name="Path 9937" d="M764.879,267.048s1.541.242,1.872.242,4.69-2.268,5.152-1.927,4.723,3.5,4.569,4.1-1.354.2-3.611-1.828c0,0,3.016,2.268,2.411,2.785s-3.226-2.015-3.226-2.015,2.708,2.147,2.037,2.6-3.05-2.092-3.05-2.092,1.872,1.894,1.6,2.2-1.475-.264-2.752-1.53c0,0-.242-.143-.958.209s-5.009-.5-5.009-.5Z" transform="translate(14.111 -49.847)" fill="#f4bca3"/>
        <path id="Path_9938" data-name="Path 9938" d="M767.49,269.867l-1.4,3.149s-13.277-5.747-13.75-11.1,7.706-23.45,13.387-23.329c0,0-1.1,12.11-2.554,15.413,0,0-3.2,5.075-3.16,6.308S767.49,269.867,767.49,269.867Z" transform="translate(12.942 -52.546)" fill="#dc2626"/>
        <rect id="Rectangle_3054" data-name="Rectangle 3054" width="66.187" height="44.774" rx="2.73" transform="translate(382.394 55.586)" fill="#263238"/>
        <rect id="Rectangle_3055" data-name="Rectangle 3055" width="60.165" height="37.64" transform="translate(385.4 59.153)" fill="#fff"/>
        <path id="Path_9939" data-name="Path 9939" d="M426.46,133.33v18.429l17.945-9.215Z" transform="translate(-19.945 -63.168)" fill="#dc2626"/>
        <path id="Path_9940" data-name="Path 9940" d="M415.792,233.9H409.8s-.859,8.158-2.422,9.127c0,0-1.927,9.633,5.417,9.633,8.884,0,5.417-9.633,5.417-9.633C416.629,242.058,415.792,233.9,415.792,233.9Z" transform="translate(-21.893 -53.019)" fill="#e8ad92"/>
        <path id="Path_9941" data-name="Path 9941" d="M420.746,236.142c-.826-.947-1.828.5-1.828.5s1.376-5.383,0-7.706-5.8-1.1-5.8-1.1-4.4-1.244-5.8,1.1,0,7.706,0,7.706-1-1.442-1.828-.5,1.365,3.358,1.861,3.655c0,0,3.193,5.967,5.769,5.967s5.769-5.967,5.769-5.967C419.381,239.5,421.571,237.1,420.746,236.142Z" transform="translate(-22.08 -53.664)" fill="#f4bca3"/>
        <path id="Path_9942" data-name="Path 9942" d="M412,229.933s-3.369.595-3.732,2.4a6.926,6.926,0,0,0,.176,2.686,17.408,17.408,0,0,1,.286,2.973.518.518,0,0,1-.44-.077,6.189,6.189,0,0,1-1.1-1.365c-.639-.936-1.552-.782-1.817-.187,0,0-.749-8.807,2.951-9.16S412,229.933,412,229.933Z" transform="translate(-22.079 -53.697)" fill="#374044"/>
        <path id="Path_9943" data-name="Path 9943" d="M413.37,229.933s3.358.595,3.732,2.4a6.925,6.925,0,0,1-.176,2.686,17.42,17.42,0,0,0-.286,2.973.5.5,0,0,0,.429-.077,5.637,5.637,0,0,0,1.1-1.365c.65-.936,1.563-.782,1.828-.187,0,0,.749-8.807-2.961-9.16S413.37,229.933,413.37,229.933Z" transform="translate(-21.266 -53.697)" fill="#374044"/>
        <path id="Path_9944" data-name="Path 9944" d="M419.256,227.963a2.708,2.708,0,0,0-1.585-2.356,8.961,8.961,0,0,0-7.563,0c-2.609,1.31-3.4,1.6-4.173,1.167s-.275-.87-.275-.87-1.717,0-1.629,2.631,3.3,5.956,7.607,5.956C418.155,234.491,420.258,229.944,419.256,227.963Z" transform="translate(-22.209 -53.94)" fill="#374044"/>
        <path id="Path_9945" data-name="Path 9945" d="M419.283,242.19c-.308,8.191-5.417,7.343-5.417,7.343s-5.1.848-5.417-7.343c0,0-8.147,2.2-12.11,4.91a78.6,78.6,0,0,1,1.828,15.094l4.657,18.044,11.075.55,11.075-.55,4.657-18.044a78.613,78.613,0,0,1,1.806-15.094C427.43,244.436,419.283,242.19,419.283,242.19Z" transform="translate(-22.985 -52.182)" fill="#dc2626"/>
        <path id="Path_9946" data-name="Path 9946" d="M428.74,251.1c-5.064,2.7-7.53,8.906-12.451,11.956s-8.686-3.215-11.163-6.517A19.145,19.145,0,0,0,397,250a77.966,77.966,0,0,1,1.1,11.406l4.657,18.044,11.075.55,11.075-.55,4.657-18.044a78.817,78.817,0,0,1,1.1-11.24A12.052,12.052,0,0,0,428.74,251.1Z" transform="translate(-22.918 -51.394)" fill="#b81c1c"/>
        <path id="Path_9947" data-name="Path 9947" d="M434.781,284.342c0-6.33-7.85-10.492-7.85-10.492H400.51s-7.85,4.161-7.85,10.492a31.419,31.419,0,0,0,.638,4.888h8.807c-.363.65-.683,1.244-.936,1.75-.077.154-.165.3-.253.44h6.374c.484,0,1.4.2,1.266-.506-.2-1.013-.826-1.585-.209-2.642a3.666,3.666,0,0,1,2.719-1.519h4.745a7.16,7.16,0,0,1,1.541.253c.451.077,1.035.077,1.288.528a7.027,7.027,0,0,1,.451,1.982,10.833,10.833,0,0,1-.143,1.9h8.939a23.124,23.124,0,0,1-1.53-2.2h7.795A31.423,31.423,0,0,0,434.781,284.342Z" transform="translate(-23.356 -48.987)" fill="#455a64"/>
        <path id="Path_9948" data-name="Path 9948" d="M434.781,284.342c0-6.33-7.85-10.492-7.85-10.492H400.51s-7.85,4.161-7.85,10.492a31.419,31.419,0,0,0,.638,4.888h8.807c-.363.65-.683,1.244-.936,1.75-.077.154-.165.3-.253.44h7.629c.2,0-.308-1.1-.352-1.2a1.849,1.849,0,0,1-.132-1.31,2.565,2.565,0,0,1,.87-1.178,6.539,6.539,0,0,1,4.536-1.046c1.508,0,3.182-.165,4.5.716a2.907,2.907,0,0,1,.683.583c.914,1.1.429,2.2.3,3.435h8.939a23.114,23.114,0,0,1-1.53-2.2h7.794a31.426,31.426,0,0,0,.628-4.877Z" transform="translate(-23.356 -48.987)" fill="#425158" opacity="0.65"/>
        <path id="Path_9949" data-name="Path 9949" d="M397.189,246.65s-10.073,21.776-9.336,24.672c.176.727,12.44,8.125,18.209,7.068l2.345-.429S399.843,246.5,397.189,246.65Z" transform="translate(-23.845 -51.732)" fill="#dc2626"/>
        <path id="Path_9950" data-name="Path 9950" d="M429.2,246.65s10.073,21.776,9.347,24.672c-.187.727-12.44,8.125-18.209,7.068l-2.345-.429S426.544,246.5,429.2,246.65Z" transform="translate(-20.8 -51.732)" fill="#dc2626"/>
        <path id="Path_9951" data-name="Path 9951" d="M400.069,253.57a15.177,15.177,0,0,1-.385,3.182c-.892,3.93-2.29,8.037-.826,12.033a65.034,65.034,0,0,0,4.547,8.995,7.584,7.584,0,0,0,1.607-.088l2.345-.429S403.482,262.851,400.069,253.57Z" transform="translate(-22.795 -51.033)" fill="#5ac4e0"/>
        <path id="Path_9952" data-name="Path 9952" d="M423.694,277.487a14.312,14.312,0,0,0,1.1-5.8c-.132-4.018-.154-8.048-.088-12.11,0-1.739.066-3.424.165-5.075-3.3,9.27-6.892,22.624-6.892,22.624l2.345.429A9.754,9.754,0,0,0,423.694,277.487Z" transform="translate(-20.801 -50.94)" fill="#5ac4e0"/>
        <path id="Path_9953" data-name="Path 9953" d="M403.8,317.647s-6.4,7.607-7.145,9.226,1.1,3.655,3.578,2.818,3.941-2.532,3.974-3.611,1.376-1.651,1.96-1.739,3.9-3.853,3.567-4.9-2-2.2-2-2.2Z" transform="translate(-22.97 -44.608)" fill="#030303"/>
        <path id="Path_9954" data-name="Path 9954" d="M421.026,317.647s6.4,7.607,7.145,9.226-1.1,3.655-3.567,2.818-3.952-2.532-3.985-3.611-1.376-1.651-1.96-1.739-3.9-3.853-3.567-4.9,2-2.2,2-2.2Z" transform="translate(-21.094 -44.608)" fill="#030303"/>
        <rect id="Rectangle_3056" data-name="Rectangle 3056" width="2.081" height="43.96" transform="translate(365.495 241.322)" fill="#c1c1c1"/>
        <rect id="Rectangle_3057" data-name="Rectangle 3057" width="2.081" height="43.96" transform="translate(413.638 241.322)" fill="#c1c1c1"/>
        <rect id="Rectangle_3058" data-name="Rectangle 3058" width="57.028" height="5.637" transform="translate(361.41 237.777)" fill="#656f74"/>
        <path id="Path_9955" data-name="Path 9955" d="M406.425,283.6c-.76-1.806-.914-5.637-6.044-5.637-9.908,0-7.552,7.9-7.409,9.094,1.5,11.78,8.664,35.229,8.664,35.229h9.908s-3.6-28.789-4.15-33.237a31.6,31.6,0,0,0-.969-5.45Z" transform="translate(-23.359 -48.572)" fill="#455a64"/>
        <path id="Path_9956" data-name="Path 9956" d="M418.939,283.6c.76-1.806.914-5.637,6.044-5.637,9.908,0,7.552,7.9,7.409,9.094-1.5,11.78-8.664,35.229-8.664,35.229H413.82s3.6-28.789,4.15-33.237A31.592,31.592,0,0,1,418.939,283.6Z" transform="translate(-21.22 -48.572)" fill="#455a64"/>
        <rect id="Rectangle_3059" data-name="Rectangle 3059" width="29.031" height="1.717" transform="translate(376.372 226.471)" fill="#3d3d3d"/>
        <path id="Path_9957" data-name="Path 9957" d="M432.936,257H395.362a1.739,1.739,0,0,0-1.684,2.257c.352,2.268,5.086,18.1,6.044,18.1h28.855c.837,0,5.692-15.831,6.033-18.1A1.728,1.728,0,0,0,432.936,257Z" transform="translate(-23.261 -50.687)" fill="#3d3d3d"/>
        <path id="Path_9958" data-name="Path 9958" d="M413.955,267.142a1.552,1.552,0,1,1-1.552-1.552A1.552,1.552,0,0,1,413.955,267.142Z" transform="translate(-21.52 -49.82)" fill="#fff"/>
        <rect id="Rectangle_3068" data-name="Rectangle 3068" width="16.844" transform="translate(151.245 252.595)" fill="#f8f2ed"/>
        <path id="Path_9981" data-name="Path 9981" d="M591.373,156.788H562.43l-15.523,12.672,6.947-12.672h-7.112a2.2,2.2,0,0,1-2.2-2.2V125.852a2.2,2.2,0,0,1,2.2-2.2h44.6a2.2,2.2,0,0,1,2.2,2.2v28.734a2.2,2.2,0,0,1-2.169,2.2Z" transform="translate(-8.028 -64.145)" fill="#dc2626"/>
        <path id="Path_9982" data-name="Path 9982" d="M574.269,135.308c0,3.831-4.822,4.965-4.822,6.451v.594h-4.822v-1.409c0-2.059,3.666-3.237,3.666-5.5a1.849,1.849,0,0,0-1.861-1.971c-1.519,0-1.828,1.189-1.828,2.367v.76h-5.185c0-.363-.077-.7-.077-1.1,0-3.666,3.3-5.945,7.706-5.945S574.269,131.818,574.269,135.308Zm-4.4,13.982h-5.571v-5.218h5.571Z" transform="translate(-6.534 -63.55)" fill="#fff"/>
        <path id="Path_9983" data-name="Path 9983" d="M109.93,162.363h-5.284l4.558,9.787-9.908-9.787H81.878a1.4,1.4,0,0,1-1.4-1.409V142.888a1.4,1.4,0,0,1,1.4-1.4H109.93a1.4,1.4,0,0,1,1.4,1.4v18.066a1.4,1.4,0,0,1-1.4,1.409Z" transform="translate(-54.862 -62.345)" fill="#dc2626"/>
        <path id="Path_9984" data-name="Path 9984" d="M99.166,148.852c0,2.411-3.028,3.116-3.028,4.051v.374H93.1V152.4c0-1.3,2.312-2.048,2.312-3.479a1.178,1.178,0,0,0-1.178-1.244c-.958,0-1.1.749-1.1,1.5v.473h-3.3v-.672c0-2.3,2.059-3.743,4.844-3.743S99.166,146.65,99.166,148.852ZM96.4,157.659H92.891v-3.3H96.4Z" transform="translate(-53.918 -61.967)" fill="#fff"/>
        <path id="Path_9985" data-name="Path 9985" d="M359.987,158.592h-22.1l-11.846,9.677,5.328-9.677h-5.439a1.7,1.7,0,0,1-1.7-1.7V134.955a1.7,1.7,0,0,1,1.7-1.7h34.052a1.7,1.7,0,0,1,1.706,1.7V156.9a1.7,1.7,0,0,1-1.706,1.7Z" transform="translate(-30.261 -63.175)" fill="#dc2626"/>
        <path id="Path_9986" data-name="Path 9986" d="M337.429,150.445H333.29V146.57h4.139Z" transform="translate(-29.348 -61.832)" fill="#fff"/>
        <path id="Path_9987" data-name="Path 9987" d="M343.379,150.445H339.24V146.57h4.139Z" transform="translate(-28.747 -61.832)" fill="#fff"/>
        <path id="Path_9988" data-name="Path 9988" d="M349.228,150.445H345.1V146.57h4.128Z" transform="translate(-28.156 -61.832)" fill="#fff"/>
        <path id="Path_9989" data-name="Path 9989" d="M967.038,161.26H949.016l-9.644,7.883,4.338-7.883h-4.4a1.376,1.376,0,0,1-1.376-1.376V142.027a1.376,1.376,0,0,1,1.376-1.387h27.721a1.376,1.376,0,0,1,1.387,1.387v17.857a1.376,1.376,0,0,1-1.376,1.376Z" transform="translate(31.673 -62.431)" fill="#dc2626"/>
        <path id="Path_9990" data-name="Path 9990" d="M950.41,157.129V154.4h2.774v2.73Zm.9-3.589-.837-9.82h2.95l-1.1,9.82Z" transform="translate(32.933 -62.12)" fill="#fff"/>
        <g id="Group_2822" data-name="Group 2822" transform="translate(0 10)">
          <path id="Path_9991" data-name="Path 9991" d="M311.411,69.74V86.353h9.05v4.756H305.84V69.74Z" transform="translate(-32.118 -69.586)" fill="#dc2626"/>
          <path id="Path_9992" data-name="Path 9992" d="M338.275,69.74v4.4H327v4h10.173v4.4H327v4.029h11.571v4.4H321.42V69.74Z" transform="translate(-30.546 -69.586)" fill="#dc2626"/>
          <path id="Path_9993" data-name="Path 9993" d="M354.508,87.322h-9.226l-1.5,3.787H338.06l9.171-21.369h5.725l8.961,21.369h-5.945Zm-1.64-4.261-2.928-7.618-2.983,7.618Z" transform="translate(-28.866 -69.586)" fill="#dc2626"/>
          <path id="Path_9994" data-name="Path 9994" d="M374.326,91.109l-3.1-5.912h-4.139v5.912H361.5V69.74h9.6c5.67,0,8.9,2.741,8.9,7.5,0,3.237-1.332,5.615-3.809,6.892l4.4,6.98Zm-7.244-10.36h4.051c2.257,0,3.567-1.167,3.567-3.3s-1.31-3.237-3.567-3.237h-4.051Z" transform="translate(-26.501 -69.586)" fill="#dc2626"/>
          <path id="Path_9995" data-name="Path 9995" d="M386.45,69.74,396.138,82.6V69.74h5.174V91.109h-4.866l-9.7-12.8v12.8H381.54V69.74Z" transform="translate(-24.478 -69.586)" fill="#dc2626"/>
          <path id="Path_9996" data-name="Path 9996" d="M408.871,69.74V91.109H403.3V69.74Z" transform="translate(-22.282 -69.586)" fill="#dc2626"/>
          <path id="Path_9997" data-name="Path 9997" d="M417.029,69.74,426.717,82.6V69.74H431.9V91.109h-4.877l-9.688-12.8v12.8H412.13V69.74Z" transform="translate(-21.391 -69.586)" fill="#dc2626"/>
          <path id="Path_9998" data-name="Path 9998" d="M448.154,80.213h4.811v8.411a17.119,17.119,0,0,1-8.917,2.741c-6.528,0-11.428-4.69-11.428-10.91S437.64,69.6,444.411,69.6a13.75,13.75,0,0,1,8.807,3.171l-3.182,3.875A8.631,8.631,0,0,0,444.4,74.3a6.143,6.143,0,0,0,.066,12.275,8.807,8.807,0,0,0,3.688-1Z" transform="translate(-19.323 -69.6)" fill="#dc2626"/>
        </g>
        <g id="Group_2827" data-name="Group 2827" transform="translate(0 16)">
          <path id="Path_9999" data-name="Path 9999" d="M753.422,82.542h4.811v8.411a17.086,17.086,0,0,1-8.9,2.741c-6.517,0-11.428-4.69-11.428-10.91S742.941,71.94,749.7,71.94a13.673,13.673,0,0,1,8.807,3.171l-3.171,3.9a8.609,8.609,0,0,0-5.637-2.345,6.143,6.143,0,0,0,.066,12.275,8.73,8.73,0,0,0,3.688-1Z" transform="translate(11.487 -69.364)" fill="#dc2626"/>
          <path id="Path_10000" data-name="Path 10000" d="M781.587,82.751c0,6.253-4.943,10.943-11.549,10.943S758.49,89,758.49,82.751s4.965-10.811,11.571-10.811S781.587,76.575,781.587,82.751Zm-17.373,0a6.022,6.022,0,0,0,5.846,6.187,6.121,6.121,0,1,0-5.879-6.154Z" transform="translate(13.564 -69.364)" fill="#dc2626"/>
          <path id="Path_10001" data-name="Path 10001" d="M795.9,89.662h-9.237l-1.5,3.776H779.44l9.171-21.358h5.758l8.962,21.358h-5.945Zm-1.651-4.272-2.928-7.618-2.984,7.618Z" transform="translate(15.678 -69.35)" fill="#dc2626"/>
          <path id="Path_10002" data-name="Path 10002" d="M808.432,72.08v16.6h9.05v4.756H802.85V72.08Z" transform="translate(18.041 -69.35)" fill="#dc2626"/>
        </g>
        <path id="Path_10003" data-name="Path 10003" d="M166.728,367.107h-3.3v-1.1h3.3Zm-7.706,0h-4.4v-1.1h4.4Zm-8.807,0h-4.4v-1.1h4.4Zm-8.807,0H137v-1.1h4.4Zm-8.807,0h-4.25v-1.255h1.1v.154H132.6Zm-3.149-5.659h-1.1v-4.4h1.1Zm0-8.807h-1.1v-4.4h1.1Zm0-8.807h-1.1v-4.4h1.1Z" transform="translate(-50.03 -42.368)" fill="#455a64"/>
        <circle id="Ellipse_383" data-name="Ellipse 383" cx="2.07" cy="2.07" r="2.07" transform="translate(76.811 295.102)" fill="#455a64"/>
        <path id="Path_10004" data-name="Path 10004" d="M126.73,339.745a2.345,2.345,0,1,0,2.345-2.345A2.345,2.345,0,0,0,126.73,339.745Zm4.139,0a1.794,1.794,0,1,1-1.794-1.794,1.794,1.794,0,0,1,1.794,1.794Z" transform="translate(-50.194 -42.573)" fill="#455a64"/>
        <path id="Path_10005" data-name="Path 10005" d="M163.3,366.379a2.07,2.07,0,1,0-2.07-2.07A2.07,2.07,0,0,0,163.3,366.379Z" transform="translate(-46.712 -40.066)" fill="#455a64"/>
        <path id="Path_10006" data-name="Path 10006" d="M163.325,366.63a2.345,2.345,0,1,1,2.345-2.345A2.345,2.345,0,0,1,163.325,366.63Zm0-4.139a1.795,1.795,0,1,0,1.794,1.795A1.795,1.795,0,0,0,163.325,362.49Z" transform="translate(-46.737 -40.097)" fill="#455a64"/>
        <path id="Path_10007" data-name="Path 10007" d="M389.055,359.643h-2.7v-1.1h1.6v-1.717h1.1Zm-7.1,0h-4.4v-1.1h4.4Zm7.1-7.222h-1.1v-4.4h1.1Zm0-8.807h-1.1v-4.4h1.1Z" transform="translate(-24.881 -42.391)" fill="#455a64"/>
        <path id="Path_10008" data-name="Path 10008" d="M371.44,359.529a2.07,2.07,0,1,1,2.07-2.07A2.07,2.07,0,0,1,371.44,359.529Z" transform="translate(-25.706 -40.758)" fill="#455a64"/>
        <path id="Path_10009" data-name="Path 10009" d="M371.465,359.83a2.345,2.345,0,1,0-2.345-2.345A2.345,2.345,0,0,0,371.465,359.83Zm0-4.139a1.795,1.795,0,1,1-1.794,1.794A1.794,1.794,0,0,1,371.465,355.69Z" transform="translate(-25.732 -40.783)" fill="#455a64"/>
        <path id="Path_10010" data-name="Path 10010" d="M389.779,338.4a2.07,2.07,0,1,0-2.07,2.07A2.07,2.07,0,0,0,389.779,338.4Z" transform="translate(-24.064 -42.681)" fill="#455a64"/>
        <path id="Path_10011" data-name="Path 10011" d="M390.08,338.425a2.345,2.345,0,1,1-2.345-2.345,2.345,2.345,0,0,1,2.345,2.345Zm-4.139,0a1.795,1.795,0,1,0,1.795-1.795,1.795,1.795,0,0,0-1.795,1.795Z" transform="translate(-24.09 -42.707)" fill="#455a64"/>
        <path id="Path_10012" data-name="Path 10012" d="M194.955,349.29v5.967h-8.29v21.71h-7.222v-21.71H171.23V349.29Z" transform="translate(-45.703 -41.373)" fill="#dc2626"/>
        <path id="Path_10013" data-name="Path 10013" d="M217.271,349.29v5.769H202.662v5.174h13.211v5.725H202.662v5.207h15.006v5.769H195.44V349.29Z" transform="translate(-43.26 -41.373)" fill="#dc2626"/>
        <path id="Path_10014" data-name="Path 10014" d="M238.347,372.088H226.391l-1.938,4.9H217l11.879-27.677h7.42l11.615,27.677h-7.706Zm-2.125-5.5-3.809-9.908-3.864,9.908Z" transform="translate(-41.084 -41.371)" fill="#dc2626"/>
        <path id="Path_10015" data-name="Path 10015" d="M260,355.231a7.828,7.828,0,0,0,0,15.633,10.239,10.239,0,0,0,6.87-3.237l4.228,4.547A16.514,16.514,0,0,1,259.6,377.3c-8.334,0-14.521-6.088-14.521-14.213s6.352-13.982,14.8-13.982a15.853,15.853,0,0,1,11.174,4.745l-4.184,5.009a9.413,9.413,0,0,0-6.87-3.633Z" transform="translate(-38.25 -41.391)" fill="#dc2626"/>
        <path id="Path_10016" data-name="Path 10016" d="M278.732,349.29v11.3h11.174v-11.3h7.222v27.677h-7.222V366.343H278.732v10.624H271.51V349.29Z" transform="translate(-35.583 -41.373)" fill="#dc2626"/>
        <path id="Path_10017" data-name="Path 10017" d="M306.882,349.29v27.677H299.66V349.29Z" transform="translate(-32.742 -41.373)" fill="#dc2626"/>
        <path id="Path_10018" data-name="Path 10018" d="M317.463,349.29l12.551,16.668V349.29h6.7v27.677H330.41l-12.561-16.58v16.58H311.1V349.29Z" transform="translate(-31.587 -41.373)" fill="#dc2626"/>
        <path id="Path_10019" data-name="Path 10019" d="M357.772,362.85h6.242v10.9a22.227,22.227,0,0,1-11.527,3.556c-8.455,0-14.807-6.088-14.807-14.136s6.506-14.059,15.281-14.059a17.813,17.813,0,0,1,11.361,4.106l-4.106,5.053a11.218,11.218,0,0,0-7.3-3.039,7.96,7.96,0,0,0,.077,15.908,11.362,11.362,0,0,0,4.778-1.3Z" transform="translate(-28.905 -41.391)" fill="#dc2626"/>
        <path id="Path_10020" data-name="Path 10020" d="M508.942,372.469h-4.4v-1.1h4.4Zm-8.807,0h-4.4v-1.1h4.4Zm-8.807,0h-4.4v-1.1h4.4Zm-8.807,0h-4.4v-1.1h4.4Zm-8.807,0h-4.4v-1.1h4.4Zm-8.807,0h-4.4v-1.1h4.4Zm-8.807,0h-4.4v-1.1h4.4Zm-8.807,0h-4.4v-1.1h4.4Zm-5.45-3.3h-1.1v-4.4h1.1Zm0-8.807h-1.1v-4.4h1.1Zm0-8.807h-1.1v-4.4h1.1Zm0-8.807h-1.1v-4.4h1.1Z" transform="translate(-18.504 -42.478)" fill="#455a64"/>
        <path id="Path_10021" data-name="Path 10021" d="M439.36,338.58a2.07,2.07,0,1,1,2.07,2.07A2.07,2.07,0,0,1,439.36,338.58Z" transform="translate(-18.643 -42.663)" fill="#455a64"/>
        <path id="Path_10022" data-name="Path 10022" d="M439.11,338.605a2.345,2.345,0,1,0,2.345-2.345,2.345,2.345,0,0,0-2.345,2.345Zm4.139,0a1.794,1.794,0,1,1-1.794-1.795,1.794,1.794,0,0,1,1.794,1.795Z" transform="translate(-18.668 -42.688)" fill="#455a64"/>
        <path id="Path_10023" data-name="Path 10023" d="M504.1,371.1a2.07,2.07,0,1,0-2.07-2.07A2.07,2.07,0,0,0,504.1,371.1Z" transform="translate(-12.318 -39.59)" fill="#455a64"/>
        <path id="Path_10024" data-name="Path 10024" d="M504.125,371.43a2.345,2.345,0,1,1,2.345-2.345A2.345,2.345,0,0,1,504.125,371.43Zm0-4.139a1.795,1.795,0,1,0,1.794,1.794A1.794,1.794,0,0,0,504.125,367.29Z" transform="translate(-12.343 -39.612)" fill="#455a64"/>
        <path id="Path_10025" data-name="Path 10025" d="M738.041,355.124h-4.4v-1.1h4.4Zm-8.807,0h-4.4v-1.1h4.4Zm12.3-1.993h-1.1v-4.4h1.1Zm0-8.807h-1.1v-4.4h1.1Z" transform="translate(10.167 -42.319)" fill="#455a64"/>
        <path id="Path_10026" data-name="Path 10026" d="M719.19,355.489a2.07,2.07,0,1,1,2.07-2.07A2.07,2.07,0,0,1,719.19,355.489Z" transform="translate(9.389 -41.165)" fill="#455a64"/>
        <path id="Path_10027" data-name="Path 10027" d="M719.215,355.79a2.345,2.345,0,1,0-2.345-2.345,2.345,2.345,0,0,0,2.345,2.345Zm0-4.139a1.795,1.795,0,1,1-1.794,1.795,1.795,1.795,0,0,1,1.794-1.795Z" transform="translate(9.364 -41.191)" fill="#455a64"/>
        <path id="Path_10028" data-name="Path 10028" d="M741.779,339.26a2.07,2.07,0,1,0-2.07,2.07A2.07,2.07,0,0,0,741.779,339.26Z" transform="translate(11.46 -42.594)" fill="#455a64"/>
        <path id="Path_10029" data-name="Path 10029" d="M742.08,339.285a2.345,2.345,0,1,1-2.345-2.345,2.345,2.345,0,0,1,2.345,2.345Zm-4.14,0a1.795,1.795,0,1,0,1.795-1.795,1.795,1.795,0,0,0-1.795,1.795Z" transform="translate(11.435 -42.62)" fill="#455a64"/>
        <path id="Path_10030" data-name="Path 10030" d="M534.967,374.5l-5.5-8.257-2.741,3.05V374.5H521.15V353.14h5.571V362.1l8.015-8.962H541.2l-7.927,8.807,8.411,12.529Z" transform="translate(-10.389 -40.985)" fill="#dc2626"/>
        <path id="Path_10031" data-name="Path 10031" d="M546.739,353.14l9.7,12.859V353.14h5.174V374.5h-4.877l-9.688-12.793V374.5H541.84V353.14Z" transform="translate(-8.301 -40.985)" fill="#dc2626"/>
        <path id="Path_10032" data-name="Path 10032" d="M585.447,363.822c0,6.242-4.943,10.932-11.549,10.932s-11.549-4.69-11.549-10.932S567.282,353,573.9,353,585.447,357.635,585.447,363.822Zm-17.373,0a6.022,6.022,0,0,0,5.879,6.154,6.121,6.121,0,1,0-5.879-6.154Z" transform="translate(-6.231 -40.999)" fill="#dc2626"/>
        <path id="Path_10033" data-name="Path 10033" d="M589.641,353.14l4.051,15.413,4.018-15.413h5.5l4.051,15.413,4.018-15.413h5.725L609.975,374.5h-5.758l-3.842-14.411L596.412,374.5h-5.769L583.63,353.14Z" transform="translate(-4.083 -40.985)" fill="#dc2626"/>
        <path id="Path_10034" data-name="Path 10034" d="M621.182,353.14v16.6h9.049V374.5H615.6V353.14Z" transform="translate(-0.857 -40.985)" fill="#dc2626"/>
        <path id="Path_10035" data-name="Path 10035" d="M648.035,353.153v4.4H636.762v3.985h10.173v4.4H636.762v4.018h11.582v4.4H631.18V353.01Z" transform="translate(0.716 -40.998)" fill="#dc2626"/>
        <path id="Path_10036" data-name="Path 10036" d="M670.435,363.808c0,6.363-4.657,10.69-11.582,10.69H649.87V353.14h9.2C665.833,353.14,670.435,357.467,670.435,363.808Zm-5.692.055c0-3.688-2.411-6.187-5.791-6.187h-3.512v12.308h3.787C662.454,369.984,664.744,367.518,664.744,363.863Z" transform="translate(2.602 -40.985)" fill="#dc2626"/>
        <path id="Path_10037" data-name="Path 10037" d="M685,363.6h4.866v8.411a17.053,17.053,0,0,1-8.9,2.741c-6.518,0-11.428-4.69-11.428-10.91S674.516,353,681.276,353a13.784,13.784,0,0,1,8.807,3.171l-3.171,3.9a8.653,8.653,0,0,0-5.637-2.345A6.143,6.143,0,0,0,681.331,370a8.73,8.73,0,0,0,3.688-1Z" transform="translate(4.587 -40.999)" fill="#dc2626"/>
        <path id="Path_10038" data-name="Path 10038" d="M708.155,353.153v4.4H696.882v3.985h10.173v4.4H696.882v4.018h11.582v4.4H691.3V353.01Z" transform="translate(6.783 -40.998)" fill="#dc2626"/>
        <path id="Path_10053" data-name="Path 10053" d="M915.34,293.371c-2.356-.991-4.051-1.828-3.655-5.582a5.714,5.714,0,0,1,2.1-4.106,3.974,3.974,0,0,0,1.883-2.642c.5-2.2-.121-4.007.936-6.022s3.556-1.927,4.679-3.93c.98-1.739,1.431-3.655,3.633-4.327,1.96-.605,3.138,1.1,2.477,2.774a22.95,22.95,0,0,0-1.453,2.9,3.3,3.3,0,0,0,.76,2.6c1.167,2.015,1.772,4.4-.506,6.5-1.354,1.233-2.4,2.29-1.717,4.3.782,2.3,1.189,3.71-.892,5.736-1.563,1.519-3.017,1.4-4.767,1.508-1.574.11-3.611.771-4.9-.275Z" transform="translate(29.019 -49.715)" fill="#2f3e45"/>
        <path id="Path_10054" data-name="Path 10054" d="M911.644,293.041c-1.684,1.806-3.127,3.226-5.615,1.1a5.075,5.075,0,0,1-1.784-4.294c0-1.475.132-2.147-.793-3.3-1.442-1.772-3.5-2.411-4.4-4.712s1.244-4.051.429-6.275c-.716-1.927-2.037-3.732-.771-5.406,1.024-1.354,3.16-.539,3.974,1.024a22.037,22.037,0,0,0,1.1,2.752,3.776,3.776,0,0,0,2.2,1.343c1.839.661,3.49,1.783,3.644,4.139.1,1.453.231,2.653,1.618,3.3s2.29,1.1,2.554,3.3a6.893,6.893,0,0,1-.914,4.04c-.55,1.31-1.013,3.358-2.2,4.107Z" transform="translate(27.662 -49.429)" fill="#2f3e45"/>
        <path id="Path_10055" data-name="Path 10055" d="M916.574,290.591h-.22a.176.176,0,0,1-.154-.2.154.154,0,0,1,.187-.154c1.167.121,2.378-.947,3.05-1.894a3.1,3.1,0,0,0,.418-2.29v-.716c-.11-1.861-.209-3.457,1.233-4.921a5.362,5.362,0,0,0,1.9-4.844V275a9.441,9.441,0,0,1,0-2.2,5.566,5.566,0,0,1,.429-1.1,3.447,3.447,0,0,0,.44-1.343.176.176,0,0,1,.176-.176h0a.176.176,0,0,1,.176.176,3.47,3.47,0,0,1-.473,1.5,4.553,4.553,0,0,0-.4,1.024,8.591,8.591,0,0,0,0,2.136v.572a5.769,5.769,0,0,1-2.015,5.119c-1.332,1.343-1.244,2.807-1.1,4.646v.7a3.5,3.5,0,0,1-.5,2.532A4.4,4.4,0,0,1,916.574,290.591Z" transform="translate(29.48 -49.357)" fill="#fff"/>
        <path id="Path_10056" data-name="Path 10056" d="M920.292,284.8a.958.958,0,0,1-.738-.385.177.177,0,0,1,0-.253.165.165,0,0,1,.242,0,.572.572,0,0,0,.605.242c.738-.187,1.552-1.783,1.684-2.378.385-1.772.859-2.675,2.587-3.3a.165.165,0,0,1,.22.1.176.176,0,0,1-.1.231c-1.662.638-2,1.464-2.356,3.072-.121.539-.958,2.411-1.949,2.653A.706.706,0,0,1,920.292,284.8Z" transform="translate(29.814 -48.496)" fill="#fff"/>
        <path id="Path_10057" data-name="Path 10057" d="M911.507,291.746a1.96,1.96,0,0,1-.936-.231c-1.233-.661-1.805-2.576-2.312-4.272a11.911,11.911,0,0,0-.771-2.136,9.612,9.612,0,0,0-3.083-3.391,5.339,5.339,0,0,1-2.466-4.327,10.493,10.493,0,0,0-1.376-4.4.181.181,0,1,1,.286-.22,10.81,10.81,0,0,1,1.442,4.6,4.987,4.987,0,0,0,2.323,4.084,10.063,10.063,0,0,1,3.182,3.5,12.526,12.526,0,0,1,.8,2.2c.484,1.629,1.035,3.468,2.136,4.051a1.828,1.828,0,0,0,1.475.077.174.174,0,1,1,.11.33,2.763,2.763,0,0,1-.815.132Z" transform="translate(27.898 -49.103)" fill="#fff"/>
        <path id="Path_10058" data-name="Path 10058" d="M905.6,282.649a.144.144,0,0,1-.11,0,.165.165,0,0,1,0-.242c.517-.683.2-1.75-.132-2.884a5.151,5.151,0,0,1-.341-2.84.179.179,0,1,1,.341.11,4.889,4.889,0,0,0,.341,2.631c.341,1.167.7,2.378.066,3.2A.176.176,0,0,1,905.6,282.649Z" transform="translate(28.345 -48.714)" fill="#fff"/>
        <path id="Path_10059" data-name="Path 10059" d="M907.842,284.726h-.066a4.914,4.914,0,0,1-.639-.33,1.893,1.893,0,0,0-.991-.374,4.415,4.415,0,0,0-.661,0,2.52,2.52,0,0,1-1.431-.2,7.914,7.914,0,0,1-2.422-2.125c-.11-.132-.253-.363-.407-.594s-.639-.969-.793-1a.187.187,0,0,1-.132-.209.166.166,0,0,1,.2-.143c.275,0,.573.473,1.024,1.156.143.231.286.44.385.572a7.936,7.936,0,0,0,2.3,2.026,2.1,2.1,0,0,0,1.255.165,4.927,4.927,0,0,1,.7,0,2.356,2.356,0,0,1,1.1.418,3.633,3.633,0,0,0,.583.308.176.176,0,0,1,.1.231A.165.165,0,0,1,907.842,284.726Z" transform="translate(27.876 -48.392)" fill="#fff"/>
        <path id="Path_10060" data-name="Path 10060" d="M910.213,294.376c-2.521-2.136-5.5-3.567-4.844-7.618.561-3.358,4.4-4.217,3.226-7.828-.782-2.312-2.785-4.976-2.1-7.552.727-2.752,4.327-1.651,5.1-4.216.65-2.2-1.64-4.679.4-6.451,1.794-1.563,4.965-.077,5.934,1.717,1.233,2.29-.8,4-.473,6.231.22,1.453,1.607,1.662,2.631,2.5a8.248,8.248,0,0,1,2.455,3.3c1.31,3.721-2.422,5.075-3.556,7.938s2.576,3.534,2.851,6.264c.3,3.005-2.917,5.372-5.5,5.868C914.539,294.828,911.809,295.72,910.213,294.376Z" transform="translate(28.378 -50.379)" fill="#455a64"/>
        <path id="Path_10061" data-name="Path 10061" d="M912.424,294.69h0a.176.176,0,0,1-.121-.22,31.178,31.178,0,0,0,.319-14.312,18.55,18.55,0,0,1,.694-10.514,9.294,9.294,0,0,0,.649-4.084.176.176,0,0,1,.143-.209.2.2,0,0,1,.209.143,9.535,9.535,0,0,1-.672,4.261,18.22,18.22,0,0,0-.672,10.327,31.762,31.762,0,0,1-.33,14.488.165.165,0,0,1-.22.121Z" transform="translate(29.073 -49.845)" fill="#fff"/>
        <path id="Path_10062" data-name="Path 10062" d="M912.816,279.484a.2.2,0,0,1-.176-.154.176.176,0,0,1,.154-.2,4.04,4.04,0,0,0,3.3-3.226v-.639c.066-1.1.154-2.422.936-3.072a1.937,1.937,0,0,1,1.53-.363.178.178,0,1,1-.044.352,1.541,1.541,0,0,0-1.255.286c-.672.55-.749,1.806-.8,2.818v.65a4.4,4.4,0,0,1-3.611,3.545Z" transform="translate(29.121 -49.194)" fill="#fff"/>
        <path id="Path_10063" data-name="Path 10063" d="M912.231,279.581a2.741,2.741,0,0,1-1.761-.628,3.974,3.974,0,0,1-1.1-3.171c0-.143,0-.308,0-.484.055-1.035.132-2.576-.506-3.3a1.156,1.156,0,0,0-.837-.363.154.154,0,0,1-.165-.176.176.176,0,0,1,.176-.176h0a1.519,1.519,0,0,1,1.1.473c.738.815.65,2.455.594,3.534v.484a3.666,3.666,0,0,0,.914,2.9,2.774,2.774,0,0,0,2.345.473.2.2,0,0,1,.209.154.176.176,0,0,1-.154.2A4.012,4.012,0,0,1,912.231,279.581Z" transform="translate(28.639 -49.246)" fill="#fff"/>
        <path id="Path_10064" data-name="Path 10064" d="M913.8,289.885a1.575,1.575,0,0,1-.638-.121.165.165,0,0,1-.1-.231.176.176,0,0,1,.231-.1c1.1.44,2.708-.76,3.3-1.563a4.89,4.89,0,0,0,.606-1.4c.319-.969.661-1.971,1.563-2.2a.165.165,0,0,1,.209.132.176.176,0,0,1-.132.22c-.7.176-1.013,1.1-1.3,1.971a5.239,5.239,0,0,1-.661,1.5,4.734,4.734,0,0,1-3.083,1.794Z" transform="translate(29.162 -47.936)" fill="#fff"/>
        <path id="Path_10065" data-name="Path 10065" d="M912.738,290.088a2.2,2.2,0,0,1-.694-.121,5.879,5.879,0,0,1-2.807-3.05,6.4,6.4,0,0,1-.275-2.048c0-1.233-.088-2.521-.9-2.928a.176.176,0,0,1-.077-.242.165.165,0,0,1,.231-.077c1,.506,1.1,1.96,1.1,3.237a6.105,6.105,0,0,0,.253,1.916,5.5,5.5,0,0,0,2.6,2.851,1.552,1.552,0,0,0,1.31-.088.187.187,0,0,1,.242.066.176.176,0,0,1-.077.242,1.794,1.794,0,0,1-.9.242Z" transform="translate(28.649 -48.205)" fill="#fff"/>
        <path id="Path_10066" data-name="Path 10066" d="M902.234,290.28a33.465,33.465,0,0,0-2,11.681c0,12.374,6.143,22.4,13.717,22.4s13.728-10.029,13.728-22.4a33.466,33.466,0,0,0-2.015-11.681Z" transform="translate(27.868 -47.329)" fill="#dc2626"/>
      </g>
    </g>
  </g>
</svg>
