<svg xmlns="http://www.w3.org/2000/svg" width="168.316" height="145.044" viewBox="0 0 168.316 145.044">
  <g id="Group_2851" data-name="Group 2851" transform="translate(355.158 -7779.363)">
    <g id="Background_Complete" data-name="Background Complete" transform="translate(-370.442 7779.363)">
      <rect id="Rectangle_1601" data-name="Rectangle 1601" width="13.248" height="0.1" transform="translate(166.712 137.416)" fill="#ebebeb"/>
      <rect id="Rectangle_1602" data-name="Rectangle 1602" width="3.476" height="0.1" transform="translate(129.012 138.504)" fill="#ebebeb"/>
      <rect id="Rectangle_1603" data-name="Rectangle 1603" width="7.676" height="0.1" transform="translate(158.636 133.704)" fill="#ebebeb"/>
      <rect id="Rectangle_1604" data-name="Rectangle 1604" width="17.276" height="0.1" transform="translate(20.984 134.376)" fill="#ebebeb"/>
      <rect id="Rectangle_1605" data-name="Rectangle 1605" width="2.532" height="0.1" transform="translate(41.824 134.376)" fill="#ebebeb"/>
      <rect id="Rectangle_1606" data-name="Rectangle 1606" width="37.472" height="0.1" transform="translate(52.588 136.064)" fill="#ebebeb"/>
      <path id="Path_6551" data-name="Path 6551" d="M117.726,113.14H40.49a2.284,2.284,0,0,1-2.28-2.284V2.284A2.284,2.284,0,0,1,40.49,0h77.236a2.284,2.284,0,0,1,2.284,2.284V110.856A2.284,2.284,0,0,1,117.726,113.14ZM40.49.1a2.184,2.184,0,0,0-2.18,2.184V110.856a2.184,2.184,0,0,0,2.18,2.184h77.236a2.188,2.188,0,0,0,2.184-2.184V2.284A2.188,2.188,0,0,0,117.726.1Z" transform="translate(-22.926)" fill="#ebebeb"/>
      <path id="Path_6552" data-name="Path 6552" d="M334.024,113.14h-77.24a2.288,2.288,0,0,1-2.284-2.284V2.284A2.288,2.288,0,0,1,256.784,0h77.24A2.284,2.284,0,0,1,336.3,2.284V110.856A2.284,2.284,0,0,1,334.024,113.14ZM256.784.1A2.188,2.188,0,0,0,254.6,2.284V110.856a2.188,2.188,0,0,0,2.184,2.184h77.24a2.188,2.188,0,0,0,2.184-2.184V2.284A2.188,2.188,0,0,0,334.024.1Z" transform="translate(-152.7)" fill="#ebebeb"/>
      <path id="Path_6553" data-name="Path 6553" d="M210.134,238.25V218.522h-9.1V200.23h-1.284v10.484h-3.5v-2.9h-6.3v-10.04h-1.168V185.506h-.936v12.048h-2.216V215.4h-4.2V197.554h-7.584v15.092H165.87V194.354h-1.284v10.484h-3.5v-2.9h-6.3V191.9h-1.168V179.63h-.936v12.044h-2.216v17.848h-4.2V191.674h-7.588v17.264h-5.116V198.9H132.39V186.63h-.932v12.048h-2.22v17.844h-4.2V198.678H117.45v17.844h-3.736v2h-6.54V200.23H105.89v10.484h-3.5v-2.9h-6.3v-10.04H94.918V185.506h-.936v12.048H91.95v-1H84.362v1h-4.2v-1H77.942V184.5H77.01V196.77H75.842v10.04h-6.3v2.9h-3.5V199.226H64.754v18.292h-9.1V238.25Z" transform="translate(-33.39 -107.778)" fill="#ebebeb"/>
      <circle id="Ellipse_215" data-name="Ellipse 215" cx="11.116" cy="11.116" r="11.116" transform="translate(40.636 22.4) rotate(-22.5)" fill="#fafafa"/>
      <path id="Path_6554" data-name="Path 6554" d="M97.576,58.454A1.936,1.936,0,0,0,95.088,56.6a4.084,4.084,0,0,0-4.048-4.684,3.9,3.9,0,0,0-.752.072A3.576,3.576,0,0,0,83.656,53.8H83.6a3.3,3.3,0,0,0,0,6.592H95.7A1.928,1.928,0,0,0,97.576,58.454Z" transform="translate(-48.18 -30.162)" fill="#f0f0f0"/>
      <path id="Path_6555" data-name="Path 6555" d="M401.878,125.4a1.924,1.924,0,0,0-2.488-1.848,4.18,4.18,0,0,0,.044-.6,4.092,4.092,0,0,0-4.092-4.088,4.285,4.285,0,0,0-.756.068,3.576,3.576,0,0,0-6.62,1.8h-.06a3.3,3.3,0,0,0,0,6.592h12.1A1.932,1.932,0,0,0,401.878,125.4Z" transform="translate(-230.766 -70.343)" fill="#f0f0f0"/>
      <path id="Path_6556" data-name="Path 6556" d="M284.71,44.889a3.048,3.048,0,0,1,3.936-2.916,6.627,6.627,0,0,1-.068-.94,6.464,6.464,0,0,1,7.664-6.364,5.66,5.66,0,0,1,10.492,2.86h.092a5.216,5.216,0,1,1,0,10.432H287.682A3.06,3.06,0,0,1,284.71,44.889Z" transform="translate(-170.826 -19.173)" fill="#f0f0f0"/>
      <path id="Path_6557" data-name="Path 6557" d="M143.48,124.1a3.676,3.676,0,0,1,4.736-3.52,7.6,7.6,0,0,1-.084-1.132,7.792,7.792,0,0,1,7.792-7.788,8.045,8.045,0,0,1,1.432.132,6.8,6.8,0,0,1,12.628,3.444h.112a6.276,6.276,0,0,1,0,12.552h-23.04a3.676,3.676,0,0,1-3.576-3.688Z" transform="translate(-86.088 -65.098)" fill="#f0f0f0"/>
      <path id="Path_6558" data-name="Path 6558" d="M167.99,77.544a1.2,1.2,0,0,0-1.548-1.152,2.8,2.8,0,0,0,.028-.368,2.544,2.544,0,0,0-2.544-2.56,2.58,2.58,0,0,0-.468.044,2.224,2.224,0,0,0-4.124,1.156H159.3a2.048,2.048,0,0,0,0,4.1h7.524A1.2,1.2,0,0,0,167.99,77.544Z" transform="translate(-94.35 -43.464)" fill="#f0f0f0"/>
      <path id="Path_6559" data-name="Path 6559" d="M74.72,168.773a1.2,1.2,0,0,1,1.2-1.2,1.264,1.264,0,0,1,.348.052,2.247,2.247,0,0,1-.028-.368,2.544,2.544,0,0,1,2.544-2.544,2.581,2.581,0,0,1,.468.044,2.224,2.224,0,0,1,4.124,1.124h.036a2.052,2.052,0,0,1,0,4.1H75.888A1.2,1.2,0,0,1,74.72,168.773Z" transform="translate(-44.832 -98.213)" fill="#f0f0f0"/>
      <path id="Path_6560" data-name="Path 6560" d="M356.21,178.573a1.2,1.2,0,0,1,1.2-1.2,1.265,1.265,0,0,1,.348.052,2.248,2.248,0,0,1-.028-.368,2.544,2.544,0,0,1,2.544-2.544,2.579,2.579,0,0,1,.468.044,2.224,2.224,0,0,1,4.124,1.136h.036a2.052,2.052,0,0,1,0,4.1h-7.524A1.2,1.2,0,0,1,356.21,178.573Z" transform="translate(-213.726 -104.093)" fill="#f0f0f0"/>
    </g>
    <g id="Shadow" transform="translate(-348.556 7915.352)">
      <ellipse id="_Path_" data-name="&lt;Path&gt;" cx="77.556" cy="4.528" rx="77.556" ry="4.528" fill="#f5f5f5"/>
    </g>
    <g id="Arrow" transform="translate(-350.724 7789.611)">
      <path id="Path_6561" data-name="Path 6561" d="M185.934,47.8l-17.1,26.036-.752,1.144-1.488.692-52.928,24.6,5.228,17.912,1.2,4.1-4.144,3.424L80.238,160.4H50.69l53.424-44.364-3.236-17.616-.88-4.8,4.136-1.9,56.408-25.976,18.372-22.724-4.928-.976,15.492-6.428-.8,16.756Z" transform="translate(-50.69 -35.62)" fill="#263238"/>
      <path id="Path_6562" data-name="Path 6562" d="M185.934,47.8l-17.1,26.036-.752,1.144-1.488.692-52.928,24.6,5.228,17.912,1.2,4.1-4.144,3.424L80.238,160.4H50.69l53.424-44.364-3.236-17.616-.88-4.8,4.136-1.9,56.408-25.976,18.372-22.724-4.928-.976,15.492-6.428-.8,16.756Z" transform="translate(-50.69 -35.62)" fill="#fafafa" opacity="0.6"/>
    </g>
    <g id="Character_2" data-name="Character 2" transform="translate(-280.188 7788.963)">
      <path id="Path_6563" data-name="Path 6563" d="M244.974,200.484l-.9,1.752-.912,1.78-1.6-.584.8-1.564,1.008-1.968Z" transform="translate(-235.754 -133.54)" fill="#ffc2bc"/>
      <path id="Path_6564" data-name="Path 6564" d="M246.174,200.484l-.9,1.752-1.708-.368,1.008-1.968Z" transform="translate(-236.954 -133.54)" opacity="0.2"/>
      <path id="Path_6565" data-name="Path 6565" d="M319.724,90.836S314.484,51.4,308.06,34" transform="translate(-275.648 -34)" fill="none" stroke="#263238" stroke-linecap="round" stroke-linejoin="round" stroke-width="1"/>
      <path id="Path_6566" data-name="Path 6566" d="M311.9,167.752l1.7-.068.332-3.944-1.7.068Z" transform="translate(-277.952 -111.844)" fill="#ffc2bc"/>
      <path id="Path_6567" data-name="Path 6567" d="M312.925,171.26l-1.856-.06a.156.156,0,0,0-.152.112l-.4,1.5a.244.244,0,0,0,.232.308c.672,0,1.644,0,2.488.028.984.028,1.6,0,2.768.02.7,0,.92-.676.628-.748-1.32-.332-2.184-.272-3.3-1.012A.8.8,0,0,0,312.925,171.26Z" transform="translate(-277.117 -116.32)" fill="#263238"/>
      <path id="Path_6568" data-name="Path 6568" d="M314.172,163.74,314,165.772l-1.7.068.168-2.032Z" transform="translate(-278.192 -111.844)" opacity="0.2"/>
      <path id="Path_6569" data-name="Path 6569" d="M284.61,124.35c.432.824.464,9.508.464,11.712h2.94c.38-2.284,2.26-14.552-.4-16.3-2.928-1.932-10.352-1.268-10.352-1.268l-.536-1.084-1.072-2.16-6.144,2.3-1.34.5-.552.208h-.048v.164h0c.02.24.076.724.176,1.328a16.917,16.917,0,0,0,.488,2.144c.568,1.852,1.576,3.6,3.328,3.016.076-.024.152-.056.228-.088.144-.064.3-.124.46-.184a18.841,18.841,0,0,1,4.328-.852C280.29,123.45,284.282,123.73,284.61,124.35Z" transform="translate(-251.354 -82.75)" fill="#303f46"/>
      <path id="Path_6570" data-name="Path 6570" d="M313.826,166.212l-3.436.088-.02-1.1,3.776-.156Z" transform="translate(-277.034 -112.624)" fill="#dc2626"/>
      <path id="Path_6571" data-name="Path 6571" d="M242.438,208.049h-2.072a.148.148,0,0,0-.144.116l-.352,1.512a.248.248,0,0,0,.244.3c.668,0,1.156-.052,2-.052.516,0,2.072.052,2.8.052s.8-.7.52-.768a6.666,6.666,0,0,1-2.7-1.056A.4.4,0,0,0,242.438,208.049Z" transform="translate(-234.73 -138.429)" fill="#263238"/>
      <path id="Path_6572" data-name="Path 6572" d="M259.178,121.45l-.356,1.228c-.188.656-.448,1.548-.752,2.584l-.76,2.588c-1.3,4.38-2.944,9.848-3.856,12.444-1.816,5.152-7.892,14.316-7.892,14.316l-2.932-1.068s4.488-8.632,5.96-13.856c1.028-3.648,2.64-10.2,3.7-14.608l.508-2.112c.172-.72.312-1.308.4-1.72s.16-.676.16-.676l1.18.18Z" transform="translate(-236.39 -85.942)" fill="#303f46"/>
      <path id="Path_6573" data-name="Path 6573" d="M245.59,202.718l-3.44-1.264.388-1.024,3.668,1.108Z" transform="translate(-236.102 -133.858)" fill="#dc2626"/>
      <path id="Path_6574" data-name="Path 6574" d="M276.258,117.456l-2.6,3.028-.356-.968-.4-1.056-.364,3.64-4.776-.156-1-.032.508-2.112c-.1-.6-.156-1.088-.176-1.328h0l.032-.18.552-.208c.1-.432.16-.676.16-.676l1.18.18,6.156-2.288Z" transform="translate(-250.874 -82.78)" opacity="0.2"/>
      <path id="Path_6575" data-name="Path 6575" d="M282.588,135.742a16.919,16.919,0,0,0-4.8,1.036c-.076.032-.152.064-.228.088l.348-1.712A13.45,13.45,0,0,1,282.588,135.742Z" transform="translate(-257.348 -94.686)" opacity="0.2"/>
      <path id="Path_6576" data-name="Path 6576" d="M231.388,123.156l-1.044,1.384-.884-1.7s1-1.176,1.6-.632Z" transform="translate(-228.488 -86.836)" fill="#ffc2bc"/>
      <path id="Path_6577" data-name="Path 6577" d="M227.29,126.33l-.26-1.724.972-.616.884,1.708Z" transform="translate(-227.03 -87.994)" fill="#ffc2bc"/>
      <path id="Path_6578" data-name="Path 6578" d="M233.9,122.722l-.292.148-.432-1.1.464-.224Z" transform="translate(-230.72 -86.53)" fill="#fff"/>
      <path id="Path_6579" data-name="Path 6579" d="M245.872,96.384q-.228.4-.468.768-.6.984-1.264,1.936l-.364.524c-.368.528-.756,1.044-1.172,1.56-.208.256-.42.516-.656.772a9.034,9.034,0,0,1-.756.76,16.515,16.515,0,0,1-3.352,2.212,25.883,25.883,0,0,1-3.6,1.528l-.52-1.168c.52-.316,1.06-.64,1.576-.976s1.04-.668,1.54-1.02.992-.708,1.456-1.08a13.569,13.569,0,0,0,1.3-1.156,21.05,21.05,0,0,0,2.068-2.856c.668-1.036,1.512-2.852,2.172-3.888Z" transform="translate(-231.044 -70.18)" fill="#dc2626"/>
      <path id="Path_6580" data-name="Path 6580" d="M261.034,100.734q-.6.984-1.264,1.936a5.6,5.6,0,0,1,.684-2.4A1.108,1.108,0,0,1,261.034,100.734Z" transform="translate(-246.674 -73.762)" opacity="0.2"/>
      <path id="Path_6581" data-name="Path 6581" d="M318.53,88.311,317.37,89.4l.164,1c.424.56,1.4-.136,1.628-.308a.488.488,0,0,1,.116-.068l.616-.252a.516.516,0,0,0,.316-.564l-.12-.736a.516.516,0,0,0-.616-.424l-.692.14a.524.524,0,0,0-.252.128Z" transform="translate(-281.234 -66.419)" fill="#ffc2bc"/>
      <path id="Path_6582" data-name="Path 6582" d="M316.7,91.33l.32-.08.184,1.164-.5.116Z" transform="translate(-280.832 -68.35)" fill="#fff"/>
      <path id="Path_6583" data-name="Path 6583" d="M294.684,86.764a26.116,26.116,0,0,1-3.856.52,16.26,16.26,0,0,1-4-.184,8.989,8.989,0,0,1-1.04-.264c-.336-.1-.648-.216-.96-.332-.62-.228-1.2-.472-1.8-.74l-.708-.32c-.536-.248-1.064-.5-1.6-.772-.4-.192-.772-.4-1.156-.608l1.028-2.444c1.1.552,2.4,1.3,3.5,1.848a20.275,20.275,0,0,0,3.244,1.392,13.11,13.11,0,0,0,1.7.332c.592.084,1.2.136,1.8.184s1.228.076,1.844.084,1.248.028,1.856.036Z" transform="translate(-258.548 -62.572)" fill="#dc2626"/>
      <path id="Path_6584" data-name="Path 6584" d="M283.708,88.318c-.536-.248-1.064-.5-1.6-.772L281.9,86.41a4,4,0,0,1,1.808,1.908Z" transform="translate(-259.952 -65.446)" opacity="0.2"/>
      <path id="Path_6585" data-name="Path 6585" d="M259.88,86.94a32.214,32.214,0,0,1,1.576,5.016c.288,1.2,1.308,2.4,1.484,3.5a30.742,30.742,0,0,0,.72,3.6c1.22-.656,4.912-1.468,7.388-2.8.1-9.968-2.572-13.856-2.572-13.856a16.857,16.857,0,0,0-2,.644l-.432.176a38.306,38.306,0,0,0-3.48,1.872c-.22.132-.44.268-.652.4C260.824,86.2,259.88,86.94,259.88,86.94Z" transform="translate(-246.74 -63.04)" fill="#dc2626"/>
      <path id="Path_6586" data-name="Path 6586" d="M259.88,86.94a32.214,32.214,0,0,1,1.576,5.016c.288,1.2,1.308,2.4,1.484,3.5a30.742,30.742,0,0,0,.72,3.6c1.22-.656,4.912-1.468,7.388-2.8.1-9.968-2.572-13.856-2.572-13.856a16.857,16.857,0,0,0-2,.644l-.432.176a38.306,38.306,0,0,0-3.48,1.872c-.22.132-.44.268-.652.4C260.824,86.2,259.88,86.94,259.88,86.94Z" transform="translate(-246.74 -63.04)" fill="#fff" opacity="0.7"/>
      <path id="Path_6587" data-name="Path 6587" d="M274.962,91.828l.152-.924-.636-.044-.388.432Z" transform="translate(-255.266 -68.116)" fill="#dc2626"/>
      <path id="Path_6588" data-name="Path 6588" d="M269.7,83.322c-1.176.656-2.34-.108-3.092-.632l-.08-.056a2.778,2.778,0,0,0,.256-1.944,11.062,11.062,0,0,0-.656-2.4l2.692,1.544c0,.184-.032.348-.04.492-.036.348-.04.584.152.736a1.768,1.768,0,0,0,.98.22C270.222,81.638,270.51,82.87,269.7,83.322Z" transform="translate(-250.49 -60.574)" fill="#ffc2bc"/>
      <path id="Path_6589" data-name="Path 6589" d="M261.424,85.03a70.519,70.519,0,0,0,5.868,5.46s-.184-6.252-1.3-7.912l2.3-.968a38.028,38.028,0,0,1,2.532,13.076l1,2.056-2.8,2.848-.9-2.108-.608,3.484-5.776.516.708-4-3.412-10.8Z" transform="translate(-246.236 -62.566)" fill="#dc2626"/>
      <path id="Path_6590" data-name="Path 6590" d="M275.51,92.486a18.256,18.256,0,0,1,.744,4.184l1.032.536.184-.8s-.908-3.516-1.744-4.136Z" transform="translate(-256.118 -68.962)" fill="#dc2626"/>
      <path id="Path_6591" data-name="Path 6591" d="M264.04,86.141a76.723,76.723,0,0,0,5.728,5.752s-.436-6.288-1.408-7.872c0,0,.668-.46,2.092.932l-.712,1.32,1.264.872a37.353,37.353,0,0,1-1.264,6.948,10.062,10.062,0,0,0,.08-1.428l-4.964-2.748.22-1.524-1.876-.076S263.408,86.521,264.04,86.141Z" transform="translate(-248.732 -63.969)" fill="#dc2626"/>
      <path id="Path_6592" data-name="Path 6592" d="M264.04,86.141a76.723,76.723,0,0,0,5.728,5.752s-.436-6.288-1.408-7.872c0,0,.668-.46,2.092.932l-.712,1.32,1.264.872a37.353,37.353,0,0,1-1.264,6.948,10.062,10.062,0,0,0,.08-1.428l-4.964-2.748.22-1.524-1.876-.076S263.408,86.521,264.04,86.141Z" transform="translate(-248.732 -63.969)" fill="#fff" opacity="0.2"/>
      <path id="Path_6593" data-name="Path 6593" d="M291.556,34.783a8.78,8.78,0,0,0-3.74.36c-1.34.632-2.688,2.692-4.864,2.892s-2.612-.512-2.612-.512,1.916,3.4,5.6,3.36,5.6-.64,7.772.728C293.72,41.607,292.048,35.843,291.556,34.783Z" transform="translate(-259.016 -34.435)" fill="#dc2626"/>
      <path id="Path_6594" data-name="Path 6594" d="M269.534,84.041a2.128,2.128,0,0,1-2.1,1.656,1.38,1.38,0,0,1-.228,0l-.08-.056a2.778,2.778,0,0,0,.256-1.944,2.672,2.672,0,0,1,2-.372C269.346,83.653,269.342,83.889,269.534,84.041Z" transform="translate(-251.09 -63.561)" opacity="0.2"/>
      <g id="Group_2833" data-name="Group 2833">
        <path id="Path_6595" data-name="Path 6595" d="M270.014,88.928a2.82,2.82,0,0,1-.3,1.4c-.74-.1-2.952-1.2-3.064-2.112a1.176,1.176,0,0,1,.344-.572A5.248,5.248,0,0,0,270.014,88.928Z" transform="translate(-250.802 -66.184)" fill="#fff"/>
        <path id="Path_6596" data-name="Path 6596" d="M273.866,87.15a2.932,2.932,0,0,1,1.124.572,5.4,5.4,0,0,0-.872-3.036,2.044,2.044,0,0,0-1.048.176S274.278,86.006,273.866,87.15Z" transform="translate(-254.654 -64.405)" fill="#fff"/>
      </g>
      <path id="Path_6597" data-name="Path 6597" d="M260.246,75.556c-.044.684.4,1.964,1.168,1.32S260.322,74.38,260.246,75.556Z" transform="translate(-246.958 -58.704)" fill="#263238"/>
      <path id="Path_6598" data-name="Path 6598" d="M265.427,72.992c.5,1.6.868,2.528.376,3.628a2.257,2.257,0,0,1-3.94.216c-.872-1.292-1.54-3.708-.224-4.9a2.324,2.324,0,0,1,3.788,1.056Z" transform="translate(-247.351 -56.4)" fill="#ffc2bc"/>
      <path id="Path_6599" data-name="Path 6599" d="M269.662,69.225c-.16-1.048-1.4-.9-2.132-.348h0v2.068a5.008,5.008,0,0,0,.8-.48s.284,1.548,1.232,2C270.77,71.293,270.87,69.5,269.662,69.225Z" transform="translate(-251.33 -54.669)" fill="#263238"/>
      <path id="Path_6600" data-name="Path 6600" d="M272.788,77.092a1.6,1.6,0,0,1-.4,1.148c-.38.4-.868.136-1.008-.376s-.084-1.228.4-1.448a.728.728,0,0,1,1.008.676Z" transform="translate(-253.6 -59.416)" fill="#ffc2bc"/>
      <path id="Path_6601" data-name="Path 6601" d="M266.149,78.507a.237.237,0,0,1-.068.288c-.068.032-.192-.048-.24-.176a.235.235,0,0,1,.068-.288C265.977,78.3,266.1,78.379,266.149,78.507Z" transform="translate(-250.305 -60.595)" fill="#263238"/>
      <path id="Path_6602" data-name="Path 6602" d="M262.509,79.837c.052.128.02.256-.064.288s-.192-.048-.24-.176-.02-.26.064-.288S262.457,79.709,262.509,79.837Z" transform="translate(-248.121 -61.393)" fill="#263238"/>
      <path id="Path_6603" data-name="Path 6603" d="M263.868,79.84a4.709,4.709,0,0,1-.228,1.288.8.8,0,0,0,.652-.12Z" transform="translate(-248.996 -61.504)" fill="#ed893e"/>
      <path id="Path_6604" data-name="Path 6604" d="M267.132,82.25a.881.881,0,0,1-.164.072.04.04,0,0,1-.052-.024.036.036,0,0,1,.024-.048,1.076,1.076,0,0,0,.684-.7.04.04,0,0,1,.048-.028.036.036,0,0,1,.028.048,1.112,1.112,0,0,1-.568.684Z" transform="translate(-250.96 -62.51)" fill="#263238"/>
      <path id="Path_6605" data-name="Path 6605" d="M266.175,76.791a.088.088,0,0,1-.084,0,.648.648,0,0,0-.58-.076.08.08,0,0,1-.064-.144.8.8,0,0,1,.732.084.084.084,0,0,1,.024.112A.092.092,0,0,1,266.175,76.791Z" transform="translate(-250.059 -59.511)" fill="#263238"/>
      <path id="Path_6606" data-name="Path 6606" d="M260.819,78.359h-.048a.08.08,0,0,1-.072-.088.8.8,0,0,1,.4-.624.081.081,0,0,1,.076.144.612.612,0,0,0-.3.5.08.08,0,0,1-.056.072Z" transform="translate(-247.231 -60.183)" fill="#263238"/>
      <path id="Path_6607" data-name="Path 6607" d="M261.916,69.862a3.22,3.22,0,0,1-2,.992,2.4,2.4,0,0,0,.716-.492s-1.932.836-2.884.4-.844-.908-.844-.908.108.276,1.032.248c0,0-.8-.528-.476-1.264a.592.592,0,0,0,.476.316,3.728,3.728,0,0,1,2.856-1.688c2.076-.24,2.5.584,2.588,1.2S261.916,69.862,261.916,69.862Z" transform="translate(-244.952 -54.054)" fill="#263238"/>
    </g>
    <g id="Coin_stack" data-name="Coin stack" transform="translate(-326.488 7845.768)">
      <rect id="Rectangle_1607" data-name="Rectangle 1607" width="29.328" height="7.464" rx="1.26" transform="translate(73.244 67.012)" fill="#455a64"/>
      <rect id="Rectangle_1608" data-name="Rectangle 1608" width="1.16" height="6.668" transform="translate(74.556 67.444)" opacity="0.2"/>
      <rect id="Rectangle_1609" data-name="Rectangle 1609" width="0.844" height="6.668" transform="translate(77.508 67.412)" opacity="0.2"/>
      <rect id="Rectangle_1610" data-name="Rectangle 1610" width="0.424" height="6.668" transform="translate(80.356 67.444)" opacity="0.2"/>
      <rect id="Rectangle_1611" data-name="Rectangle 1611" width="0.212" height="6.668" transform="translate(83.84 67.412)" opacity="0.2"/>
      <rect id="Rectangle_1612" data-name="Rectangle 1612" width="1.16" height="6.668" transform="translate(101.26 74.076) rotate(180)" opacity="0.2"/>
      <rect id="Rectangle_1613" data-name="Rectangle 1613" width="0.844" height="6.668" transform="translate(98.308 74.108) rotate(180)" opacity="0.2"/>
      <rect id="Rectangle_1614" data-name="Rectangle 1614" width="0.42" height="6.668" transform="translate(95.46 74.076) rotate(180)" opacity="0.2"/>
      <rect id="Rectangle_1615" data-name="Rectangle 1615" width="0.212" height="6.668" transform="translate(91.976 74.108) rotate(180)" opacity="0.2"/>
      <rect id="Rectangle_1616" data-name="Rectangle 1616" width="0.104" height="6.668" transform="translate(87.96 74.108) rotate(180)" opacity="0.2"/>
      <path id="Path_6608" data-name="Path 6608" d="M323.672,345.324h-27.7a.352.352,0,0,1-.352-.352h0a.352.352,0,0,1,.352-.352h27.7a.348.348,0,0,1,.352.352h0a.348.348,0,0,1-.352.352Z" transform="translate(-221.884 -277.176)" fill="#fff" opacity="0.2"/>
      <rect id="Rectangle_1617" data-name="Rectangle 1617" width="29.328" height="7.464" rx="1.26" transform="translate(74.044 59.568)" fill="#455a64"/>
      <rect id="Rectangle_1618" data-name="Rectangle 1618" width="1.16" height="6.668" transform="translate(75.356 59.996)" opacity="0.2"/>
      <rect id="Rectangle_1619" data-name="Rectangle 1619" width="0.844" height="6.668" transform="translate(78.312 59.964)" opacity="0.2"/>
      <rect id="Rectangle_1620" data-name="Rectangle 1620" width="0.42" height="6.668" transform="translate(81.16 59.996)" opacity="0.2"/>
      <rect id="Rectangle_1621" data-name="Rectangle 1621" width="0.212" height="6.668" transform="translate(84.64 59.964)" opacity="0.2"/>
      <rect id="Rectangle_1622" data-name="Rectangle 1622" width="1.16" height="6.668" transform="translate(102.064 66.632) rotate(180)" opacity="0.2"/>
      <rect id="Rectangle_1623" data-name="Rectangle 1623" width="0.844" height="6.668" transform="translate(99.108 66.668) rotate(180)" opacity="0.2"/>
      <rect id="Rectangle_1624" data-name="Rectangle 1624" width="0.424" height="6.668" transform="translate(96.26 66.632) rotate(180)" opacity="0.2"/>
      <rect id="Rectangle_1625" data-name="Rectangle 1625" width="0.212" height="6.668" transform="translate(92.776 66.668) rotate(180)" opacity="0.2"/>
      <rect id="Rectangle_1626" data-name="Rectangle 1626" width="0.104" height="6.668" transform="translate(88.76 66.668) rotate(180)" opacity="0.2"/>
      <path id="Path_6609" data-name="Path 6609" d="M325.672,326.708h-27.7a.356.356,0,0,1-.352-.352h0a.356.356,0,0,1,.352-.356h27.7a.352.352,0,0,1,.352.356h0A.352.352,0,0,1,325.672,326.708Z" transform="translate(-223.084 -266.004)" fill="#fff" opacity="0.2"/>
      <rect id="Rectangle_1627" data-name="Rectangle 1627" width="29.328" height="7.464" rx="1.26" transform="translate(74.044 52.12)" fill="#455a64"/>
      <rect id="Rectangle_1628" data-name="Rectangle 1628" width="1.16" height="6.668" transform="translate(75.356 52.552)" opacity="0.2"/>
      <rect id="Rectangle_1629" data-name="Rectangle 1629" width="0.844" height="6.668" transform="translate(78.312 52.52)" opacity="0.2"/>
      <rect id="Rectangle_1630" data-name="Rectangle 1630" width="0.42" height="6.668" transform="translate(81.16 52.552)" opacity="0.2"/>
      <rect id="Rectangle_1631" data-name="Rectangle 1631" width="0.212" height="6.668" transform="translate(84.64 52.52)" opacity="0.2"/>
      <rect id="Rectangle_1632" data-name="Rectangle 1632" width="1.16" height="6.668" transform="translate(102.064 59.184) rotate(180)" opacity="0.2"/>
      <rect id="Rectangle_1633" data-name="Rectangle 1633" width="0.844" height="6.668" transform="translate(99.108 59.22) rotate(180)" opacity="0.2"/>
      <rect id="Rectangle_1634" data-name="Rectangle 1634" width="0.424" height="6.668" transform="translate(96.26 59.184) rotate(180)" opacity="0.2"/>
      <rect id="Rectangle_1635" data-name="Rectangle 1635" width="0.212" height="6.668" transform="translate(92.776 59.22) rotate(180)" opacity="0.2"/>
      <rect id="Rectangle_1636" data-name="Rectangle 1636" width="0.104" height="6.668" transform="translate(88.76 59.22) rotate(180)" opacity="0.2"/>
      <path id="Path_6610" data-name="Path 6610" d="M325.672,308.094h-27.7a.352.352,0,0,1-.352-.352h0a.352.352,0,0,1,.352-.352h27.7a.348.348,0,0,1,.352.352h0a.348.348,0,0,1-.352.352Z" transform="translate(-223.084 -254.838)" fill="#fff" opacity="0.2"/>
      <rect id="Rectangle_1637" data-name="Rectangle 1637" width="29.328" height="7.464" rx="1.26" transform="translate(73.244 44.676)" fill="#455a64"/>
      <rect id="Rectangle_1638" data-name="Rectangle 1638" width="1.16" height="6.668" transform="translate(74.556 45.108)" opacity="0.2"/>
      <rect id="Rectangle_1639" data-name="Rectangle 1639" width="0.844" height="6.668" transform="translate(77.508 45.072)" opacity="0.2"/>
      <rect id="Rectangle_1640" data-name="Rectangle 1640" width="0.424" height="6.668" transform="translate(80.356 45.108)" opacity="0.2"/>
      <rect id="Rectangle_1641" data-name="Rectangle 1641" width="0.212" height="6.668" transform="translate(83.84 45.072)" opacity="0.2"/>
      <rect id="Rectangle_1642" data-name="Rectangle 1642" width="1.16" height="6.668" transform="translate(101.26 51.74) rotate(180)" opacity="0.2"/>
      <rect id="Rectangle_1643" data-name="Rectangle 1643" width="0.844" height="6.668" transform="translate(98.308 51.772) rotate(180)" opacity="0.2"/>
      <rect id="Rectangle_1644" data-name="Rectangle 1644" width="0.42" height="6.668" transform="translate(95.46 51.74) rotate(180)" opacity="0.2"/>
      <rect id="Rectangle_1645" data-name="Rectangle 1645" width="0.212" height="6.668" transform="translate(91.976 51.772) rotate(180)" opacity="0.2"/>
      <rect id="Rectangle_1646" data-name="Rectangle 1646" width="0.104" height="6.668" transform="translate(87.96 51.772) rotate(180)" opacity="0.2"/>
      <path id="Path_6611" data-name="Path 6611" d="M323.672,289.484h-27.7a.356.356,0,0,1-.352-.352h0a.352.352,0,0,1,.352-.352h27.7a.348.348,0,0,1,.352.352h0A.352.352,0,0,1,323.672,289.484Z" transform="translate(-221.884 -243.672)" fill="#fff" opacity="0.2"/>
      <rect id="Rectangle_1647" data-name="Rectangle 1647" width="29.328" height="7.464" rx="1.26" transform="translate(72.044 37.228)" fill="#455a64"/>
      <rect id="Rectangle_1648" data-name="Rectangle 1648" width="1.16" height="6.668" transform="translate(73.356 37.66)" opacity="0.2"/>
      <rect id="Rectangle_1649" data-name="Rectangle 1649" width="0.844" height="6.668" transform="translate(76.308 37.628)" opacity="0.2"/>
      <rect id="Rectangle_1650" data-name="Rectangle 1650" width="0.42" height="6.668" transform="translate(79.156 37.66)" opacity="0.2"/>
      <rect id="Rectangle_1651" data-name="Rectangle 1651" width="0.212" height="6.668" transform="translate(82.64 37.628)" opacity="0.2"/>
      <rect id="Rectangle_1652" data-name="Rectangle 1652" width="1.16" height="6.668" transform="translate(100.06 44.292) rotate(180)" opacity="0.2"/>
      <rect id="Rectangle_1653" data-name="Rectangle 1653" width="0.844" height="6.668" transform="translate(97.104 44.328) rotate(180)" opacity="0.2"/>
      <rect id="Rectangle_1654" data-name="Rectangle 1654" width="0.42" height="6.668" transform="translate(94.26 44.292) rotate(180)" opacity="0.2"/>
      <rect id="Rectangle_1655" data-name="Rectangle 1655" width="0.212" height="6.668" transform="translate(90.78 44.328) rotate(180)" opacity="0.2"/>
      <rect id="Rectangle_1656" data-name="Rectangle 1656" width="0.104" height="6.668" transform="translate(86.76 44.328) rotate(180)" opacity="0.2"/>
      <path id="Path_6612" data-name="Path 6612" d="M320.672,270.864h-27.7a.348.348,0,0,1-.352-.352h0a.352.352,0,0,1,.352-.352h27.7a.352.352,0,0,1,.352.352h0a.348.348,0,0,1-.352.352Z" transform="translate(-220.084 -232.5)" fill="#fff" opacity="0.2"/>
      <rect id="Rectangle_1657" data-name="Rectangle 1657" width="29.328" height="7.464" rx="1.26" transform="translate(73.244 29.784)" fill="#455a64"/>
      <rect id="Rectangle_1658" data-name="Rectangle 1658" width="1.16" height="6.668" transform="translate(74.556 30.216)" opacity="0.2"/>
      <rect id="Rectangle_1659" data-name="Rectangle 1659" width="0.844" height="6.668" transform="translate(77.508 30.18)" opacity="0.2"/>
      <rect id="Rectangle_1660" data-name="Rectangle 1660" width="0.424" height="6.668" transform="translate(80.356 30.216)" opacity="0.2"/>
      <rect id="Rectangle_1661" data-name="Rectangle 1661" width="0.212" height="6.668" transform="translate(83.84 30.18)" opacity="0.2"/>
      <rect id="Rectangle_1662" data-name="Rectangle 1662" width="1.16" height="6.668" transform="translate(101.26 36.852) rotate(180)" opacity="0.2"/>
      <rect id="Rectangle_1663" data-name="Rectangle 1663" width="0.844" height="6.668" transform="translate(98.308 36.88) rotate(180)" opacity="0.2"/>
      <rect id="Rectangle_1664" data-name="Rectangle 1664" width="0.42" height="6.668" transform="translate(95.46 36.852) rotate(180)" opacity="0.2"/>
      <rect id="Rectangle_1665" data-name="Rectangle 1665" width="0.212" height="6.668" transform="translate(91.976 36.88) rotate(180)" opacity="0.2"/>
      <rect id="Rectangle_1666" data-name="Rectangle 1666" width="0.104" height="6.668" transform="translate(87.96 36.88) rotate(180)" opacity="0.2"/>
      <path id="Path_6613" data-name="Path 6613" d="M323.672,252.254h-27.7a.356.356,0,0,1-.352-.352h0a.352.352,0,0,1,.352-.352h27.7a.348.348,0,0,1,.352.352h0A.352.352,0,0,1,323.672,252.254Z" transform="translate(-221.884 -221.334)" fill="#fff" opacity="0.2"/>
      <rect id="Rectangle_1667" data-name="Rectangle 1667" width="29.328" height="7.464" rx="1.26" transform="translate(73.244 22.336)" fill="#455a64"/>
      <rect id="Rectangle_1668" data-name="Rectangle 1668" width="1.16" height="6.668" transform="translate(74.556 22.768)" opacity="0.2"/>
      <rect id="Rectangle_1669" data-name="Rectangle 1669" width="0.844" height="6.668" transform="translate(77.508 22.736)" opacity="0.2"/>
      <rect id="Rectangle_1670" data-name="Rectangle 1670" width="0.424" height="6.668" transform="translate(80.356 22.768)" opacity="0.2"/>
      <rect id="Rectangle_1671" data-name="Rectangle 1671" width="0.212" height="6.668" transform="translate(83.84 22.736)" opacity="0.2"/>
      <rect id="Rectangle_1672" data-name="Rectangle 1672" width="1.16" height="6.668" transform="translate(101.26 29.404) rotate(180)" opacity="0.2"/>
      <rect id="Rectangle_1673" data-name="Rectangle 1673" width="0.844" height="6.668" transform="translate(98.308 29.436) rotate(180)" opacity="0.2"/>
      <rect id="Rectangle_1674" data-name="Rectangle 1674" width="0.42" height="6.668" transform="translate(95.46 29.404) rotate(180)" opacity="0.2"/>
      <rect id="Rectangle_1675" data-name="Rectangle 1675" width="0.212" height="6.668" transform="translate(91.976 29.436) rotate(180)" opacity="0.2"/>
      <rect id="Rectangle_1676" data-name="Rectangle 1676" width="0.104" height="6.668" transform="translate(87.96 29.436) rotate(180)" opacity="0.2"/>
      <path id="Path_6614" data-name="Path 6614" d="M323.672,233.634h-27.7a.352.352,0,0,1-.352-.352h0a.356.356,0,0,1,.352-.352h27.7a.352.352,0,0,1,.352.352h0a.348.348,0,0,1-.352.352Z" transform="translate(-221.884 -210.162)" fill="#fff" opacity="0.2"/>
      <rect id="Rectangle_1677" data-name="Rectangle 1677" width="29.328" height="7.464" rx="1.26" transform="translate(74.444 14.892)" fill="#455a64"/>
      <rect id="Rectangle_1678" data-name="Rectangle 1678" width="1.16" height="6.668" transform="translate(75.756 15.324)" opacity="0.2"/>
      <rect id="Rectangle_1679" data-name="Rectangle 1679" width="0.844" height="6.668" transform="translate(78.712 15.292)" opacity="0.2"/>
      <rect id="Rectangle_1680" data-name="Rectangle 1680" width="0.424" height="6.668" transform="translate(81.56 15.324)" opacity="0.2"/>
      <rect id="Rectangle_1681" data-name="Rectangle 1681" width="0.212" height="6.668" transform="translate(85.04 15.292)" opacity="0.2"/>
      <rect id="Rectangle_1682" data-name="Rectangle 1682" width="1.16" height="6.668" transform="translate(102.464 21.956) rotate(180)" opacity="0.2"/>
      <rect id="Rectangle_1683" data-name="Rectangle 1683" width="0.844" height="6.668" transform="translate(99.508 21.988) rotate(180)" opacity="0.2"/>
      <rect id="Rectangle_1684" data-name="Rectangle 1684" width="0.42" height="6.668" transform="translate(96.66 21.956) rotate(180)" opacity="0.2"/>
      <rect id="Rectangle_1685" data-name="Rectangle 1685" width="0.212" height="6.668" transform="translate(93.176 21.988) rotate(180)" opacity="0.2"/>
      <rect id="Rectangle_1686" data-name="Rectangle 1686" width="0.104" height="6.668" transform="translate(89.164 21.988) rotate(180)" opacity="0.2"/>
      <path id="Path_6615" data-name="Path 6615" d="M326.672,215.024h-27.7a.356.356,0,0,1-.356-.352h0a.352.352,0,0,1,.356-.352h27.7a.352.352,0,0,1,.356.352h0a.356.356,0,0,1-.356.352Z" transform="translate(-223.684 -198.996)" fill="#fff" opacity="0.2"/>
      <rect id="Rectangle_1687" data-name="Rectangle 1687" width="29.328" height="7.464" rx="1.26" transform="translate(72.444 7.448)" fill="#455a64"/>
      <rect id="Rectangle_1688" data-name="Rectangle 1688" width="1.16" height="6.668" transform="translate(73.756 7.876)" opacity="0.2"/>
      <rect id="Rectangle_1689" data-name="Rectangle 1689" width="0.844" height="6.668" transform="translate(76.708 7.844)" opacity="0.2"/>
      <rect id="Rectangle_1690" data-name="Rectangle 1690" width="0.42" height="6.668" transform="translate(79.556 7.876)" opacity="0.2"/>
      <rect id="Rectangle_1691" data-name="Rectangle 1691" width="0.212" height="6.668" transform="translate(83.04 7.844)" opacity="0.2"/>
      <rect id="Rectangle_1692" data-name="Rectangle 1692" width="1.16" height="6.668" transform="translate(100.46 14.512) rotate(180)" opacity="0.2"/>
      <rect id="Rectangle_1693" data-name="Rectangle 1693" width="0.844" height="6.668" transform="translate(97.504 14.544) rotate(180)" opacity="0.2"/>
      <rect id="Rectangle_1694" data-name="Rectangle 1694" width="0.42" height="6.668" transform="translate(94.66 14.512) rotate(180)" opacity="0.2"/>
      <rect id="Rectangle_1695" data-name="Rectangle 1695" width="0.212" height="6.668" transform="translate(91.176 14.544) rotate(180)" opacity="0.2"/>
      <rect id="Rectangle_1696" data-name="Rectangle 1696" width="0.104" height="6.668" transform="translate(87.16 14.544) rotate(180)" opacity="0.2"/>
      <path id="Path_6616" data-name="Path 6616" d="M321.672,196.4h-27.7a.352.352,0,0,1-.352-.352h0a.356.356,0,0,1,.352-.352h27.7a.352.352,0,0,1,.352.352h0a.348.348,0,0,1-.352.352Z" transform="translate(-220.684 -187.824)" fill="#fff" opacity="0.2"/>
      <rect id="Rectangle_1697" data-name="Rectangle 1697" width="29.328" height="7.464" rx="1.26" transform="translate(71.644)" fill="#455a64"/>
      <rect id="Rectangle_1698" data-name="Rectangle 1698" width="1.16" height="6.668" transform="translate(72.956 0.432)" opacity="0.2"/>
      <rect id="Rectangle_1699" data-name="Rectangle 1699" width="0.844" height="6.668" transform="translate(75.908 0.4)" opacity="0.2"/>
      <rect id="Rectangle_1700" data-name="Rectangle 1700" width="0.424" height="6.668" transform="translate(78.756 0.432)" opacity="0.2"/>
      <rect id="Rectangle_1701" data-name="Rectangle 1701" width="0.212" height="6.668" transform="translate(82.24 0.4)" opacity="0.2"/>
      <rect id="Rectangle_1702" data-name="Rectangle 1702" width="1.16" height="6.668" transform="translate(99.66 7.064) rotate(180)" opacity="0.2"/>
      <rect id="Rectangle_1703" data-name="Rectangle 1703" width="0.844" height="6.668" transform="translate(96.704 7.096) rotate(180)" opacity="0.2"/>
      <rect id="Rectangle_1704" data-name="Rectangle 1704" width="0.42" height="6.668" transform="translate(93.856 7.064) rotate(180)" opacity="0.2"/>
      <rect id="Rectangle_1705" data-name="Rectangle 1705" width="0.212" height="6.668" transform="translate(90.38 7.096) rotate(180)" opacity="0.2"/>
      <rect id="Rectangle_1706" data-name="Rectangle 1706" width="0.104" height="6.668" transform="translate(86.36 7.096) rotate(180)" opacity="0.2"/>
      <path id="Path_6617" data-name="Path 6617" d="M319.672,177.794h-27.7a.348.348,0,0,1-.352-.352h0a.348.348,0,0,1,.352-.352h27.7a.348.348,0,0,1,.352.352h0a.348.348,0,0,1-.352.352Z" transform="translate(-219.484 -176.658)" fill="#fff" opacity="0.2"/>
      <rect id="Rectangle_1707" data-name="Rectangle 1707" width="29.328" height="7.464" rx="1.26" transform="translate(37.224 67.012)" fill="#455a64"/>
      <rect id="Rectangle_1708" data-name="Rectangle 1708" width="1.16" height="6.668" transform="translate(38.532 67.444)" opacity="0.2"/>
      <rect id="Rectangle_1709" data-name="Rectangle 1709" width="0.844" height="6.668" transform="translate(41.488 67.412)" opacity="0.2"/>
      <rect id="Rectangle_1710" data-name="Rectangle 1710" width="0.42" height="6.668" transform="translate(44.336 67.444)" opacity="0.2"/>
      <rect id="Rectangle_1711" data-name="Rectangle 1711" width="0.212" height="6.668" transform="translate(47.816 67.412)" opacity="0.2"/>
      <rect id="Rectangle_1712" data-name="Rectangle 1712" width="1.16" height="6.668" transform="translate(65.24 74.076) rotate(180)" opacity="0.2"/>
      <rect id="Rectangle_1713" data-name="Rectangle 1713" width="0.844" height="6.668" transform="translate(62.284 74.108) rotate(180)" opacity="0.2"/>
      <rect id="Rectangle_1714" data-name="Rectangle 1714" width="0.42" height="6.668" transform="translate(59.436 74.076) rotate(180)" opacity="0.2"/>
      <rect id="Rectangle_1715" data-name="Rectangle 1715" width="0.212" height="6.668" transform="translate(55.956 74.108) rotate(180)" opacity="0.2"/>
      <rect id="Rectangle_1716" data-name="Rectangle 1716" width="0.104" height="6.668" transform="translate(51.94 74.108) rotate(180)" opacity="0.2"/>
      <path id="Path_6618" data-name="Path 6618" d="M233.622,345.324h-27.7a.348.348,0,0,1-.352-.352h0a.348.348,0,0,1,.352-.352h27.7a.352.352,0,0,1,.352.352h0A.352.352,0,0,1,233.622,345.324Z" transform="translate(-167.854 -277.176)" fill="#fff" opacity="0.2"/>
      <rect id="Rectangle_1717" data-name="Rectangle 1717" width="29.328" height="7.464" rx="1.26" transform="translate(36.02 59.568)" fill="#455a64"/>
      <rect id="Rectangle_1718" data-name="Rectangle 1718" width="1.16" height="6.668" transform="translate(37.332 59.996)" opacity="0.2"/>
      <rect id="Rectangle_1719" data-name="Rectangle 1719" width="0.844" height="6.668" transform="translate(40.288 59.964)" opacity="0.2"/>
      <rect id="Rectangle_1720" data-name="Rectangle 1720" width="0.42" height="6.668" transform="translate(43.136 59.996)" opacity="0.2"/>
      <rect id="Rectangle_1721" data-name="Rectangle 1721" width="0.212" height="6.668" transform="translate(46.616 59.964)" opacity="0.2"/>
      <rect id="Rectangle_1722" data-name="Rectangle 1722" width="1.16" height="6.668" transform="translate(64.04 66.632) rotate(180)" opacity="0.2"/>
      <rect id="Rectangle_1723" data-name="Rectangle 1723" width="0.844" height="6.668" transform="translate(61.084 66.668) rotate(180)" opacity="0.2"/>
      <rect id="Rectangle_1724" data-name="Rectangle 1724" width="0.42" height="6.668" transform="translate(58.236 66.632) rotate(180)" opacity="0.2"/>
      <rect id="Rectangle_1725" data-name="Rectangle 1725" width="0.212" height="6.668" transform="translate(54.752 66.668) rotate(180)" opacity="0.2"/>
      <rect id="Rectangle_1726" data-name="Rectangle 1726" width="0.104" height="6.668" transform="translate(50.736 66.668) rotate(180)" opacity="0.2"/>
      <path id="Path_6619" data-name="Path 6619" d="M230.612,326.708h-27.7a.356.356,0,0,1-.352-.352h0a.356.356,0,0,1,.352-.356h27.7a.352.352,0,0,1,.352.356h0A.352.352,0,0,1,230.612,326.708Z" transform="translate(-166.048 -266.004)" fill="#fff" opacity="0.2"/>
      <rect id="Rectangle_1727" data-name="Rectangle 1727" width="29.328" height="7.464" rx="1.26" transform="translate(37.224 52.12)" fill="#455a64"/>
      <rect id="Rectangle_1728" data-name="Rectangle 1728" width="1.16" height="6.668" transform="translate(38.532 52.552)" opacity="0.2"/>
      <rect id="Rectangle_1729" data-name="Rectangle 1729" width="0.844" height="6.668" transform="translate(41.488 52.52)" opacity="0.2"/>
      <rect id="Rectangle_1730" data-name="Rectangle 1730" width="0.42" height="6.668" transform="translate(44.336 52.552)" opacity="0.2"/>
      <rect id="Rectangle_1731" data-name="Rectangle 1731" width="0.212" height="6.668" transform="translate(47.816 52.52)" opacity="0.2"/>
      <rect id="Rectangle_1732" data-name="Rectangle 1732" width="1.16" height="6.668" transform="translate(65.24 59.184) rotate(180)" opacity="0.2"/>
      <rect id="Rectangle_1733" data-name="Rectangle 1733" width="0.844" height="6.668" transform="translate(62.284 59.22) rotate(180)" opacity="0.2"/>
      <rect id="Rectangle_1734" data-name="Rectangle 1734" width="0.42" height="6.668" transform="translate(59.436 59.184) rotate(180)" opacity="0.2"/>
      <rect id="Rectangle_1735" data-name="Rectangle 1735" width="0.212" height="6.668" transform="translate(55.956 59.22) rotate(180)" opacity="0.2"/>
      <rect id="Rectangle_1736" data-name="Rectangle 1736" width="0.104" height="6.668" transform="translate(51.94 59.22) rotate(180)" opacity="0.2"/>
      <path id="Path_6620" data-name="Path 6620" d="M233.622,308.094h-27.7a.348.348,0,0,1-.352-.352h0a.348.348,0,0,1,.352-.352h27.7a.352.352,0,0,1,.352.352h0A.352.352,0,0,1,233.622,308.094Z" transform="translate(-167.854 -254.838)" fill="#fff" opacity="0.2"/>
      <rect id="Rectangle_1737" data-name="Rectangle 1737" width="29.328" height="7.464" rx="1.26" transform="translate(36.42 44.676)" fill="#455a64"/>
      <rect id="Rectangle_1738" data-name="Rectangle 1738" width="1.16" height="6.668" transform="translate(37.732 45.108)" opacity="0.2"/>
      <rect id="Rectangle_1739" data-name="Rectangle 1739" width="0.844" height="6.668" transform="translate(40.688 45.072)" opacity="0.2"/>
      <rect id="Rectangle_1740" data-name="Rectangle 1740" width="0.42" height="6.668" transform="translate(43.536 45.108)" opacity="0.2"/>
      <rect id="Rectangle_1741" data-name="Rectangle 1741" width="0.212" height="6.668" transform="translate(47.016 45.072)" opacity="0.2"/>
      <rect id="Rectangle_1742" data-name="Rectangle 1742" width="1.16" height="6.668" transform="translate(64.44 51.74) rotate(180)" opacity="0.2"/>
      <rect id="Rectangle_1743" data-name="Rectangle 1743" width="0.844" height="6.668" transform="translate(61.484 51.772) rotate(180)" opacity="0.2"/>
      <rect id="Rectangle_1744" data-name="Rectangle 1744" width="0.424" height="6.668" transform="translate(58.636 51.74) rotate(180)" opacity="0.2"/>
      <rect id="Rectangle_1745" data-name="Rectangle 1745" width="0.212" height="6.668" transform="translate(55.152 51.772) rotate(180)" opacity="0.2"/>
      <rect id="Rectangle_1746" data-name="Rectangle 1746" width="0.104" height="6.668" transform="translate(51.14 51.772) rotate(180)" opacity="0.2"/>
      <path id="Path_6621" data-name="Path 6621" d="M231.612,289.484h-27.7a.356.356,0,0,1-.356-.352h0a.352.352,0,0,1,.356-.352h27.7a.352.352,0,0,1,.356.352h0A.356.356,0,0,1,231.612,289.484Z" transform="translate(-166.648 -243.672)" fill="#fff" opacity="0.2"/>
      <rect id="Rectangle_1747" data-name="Rectangle 1747" width="29.328" height="7.464" rx="1.26" transform="translate(36.42 37.228)" fill="#455a64"/>
      <rect id="Rectangle_1748" data-name="Rectangle 1748" width="1.16" height="6.668" transform="translate(37.732 37.66)" opacity="0.2"/>
      <rect id="Rectangle_1749" data-name="Rectangle 1749" width="0.844" height="6.668" transform="translate(40.688 37.628)" opacity="0.2"/>
      <rect id="Rectangle_1750" data-name="Rectangle 1750" width="0.42" height="6.668" transform="translate(43.536 37.66)" opacity="0.2"/>
      <rect id="Rectangle_1751" data-name="Rectangle 1751" width="0.212" height="6.668" transform="translate(47.016 37.628)" opacity="0.2"/>
      <rect id="Rectangle_1752" data-name="Rectangle 1752" width="1.16" height="6.668" transform="translate(64.44 44.292) rotate(180)" opacity="0.2"/>
      <rect id="Rectangle_1753" data-name="Rectangle 1753" width="0.844" height="6.668" transform="translate(61.484 44.328) rotate(180)" opacity="0.2"/>
      <rect id="Rectangle_1754" data-name="Rectangle 1754" width="0.424" height="6.668" transform="translate(58.636 44.292) rotate(180)" opacity="0.2"/>
      <rect id="Rectangle_1755" data-name="Rectangle 1755" width="0.212" height="6.668" transform="translate(55.152 44.328) rotate(180)" opacity="0.2"/>
      <rect id="Rectangle_1756" data-name="Rectangle 1756" width="0.104" height="6.668" transform="translate(51.14 44.328) rotate(180)" opacity="0.2"/>
      <path id="Path_6622" data-name="Path 6622" d="M231.612,270.864h-27.7a.352.352,0,0,1-.356-.352h0a.356.356,0,0,1,.356-.352h27.7a.356.356,0,0,1,.356.352h0a.352.352,0,0,1-.356.352Z" transform="translate(-166.648 -232.5)" fill="#fff" opacity="0.2"/>
      <rect id="Rectangle_1757" data-name="Rectangle 1757" width="29.328" height="7.464" rx="1.26" transform="translate(36.42 29.784)" fill="#455a64"/>
      <rect id="Rectangle_1758" data-name="Rectangle 1758" width="1.16" height="6.668" transform="translate(37.732 30.216)" opacity="0.2"/>
      <rect id="Rectangle_1759" data-name="Rectangle 1759" width="0.844" height="6.668" transform="translate(40.688 30.18)" opacity="0.2"/>
      <rect id="Rectangle_1760" data-name="Rectangle 1760" width="0.42" height="6.668" transform="translate(43.536 30.216)" opacity="0.2"/>
      <rect id="Rectangle_1761" data-name="Rectangle 1761" width="0.212" height="6.668" transform="translate(47.016 30.18)" opacity="0.2"/>
      <rect id="Rectangle_1762" data-name="Rectangle 1762" width="1.16" height="6.668" transform="translate(64.44 36.852) rotate(180)" opacity="0.2"/>
      <rect id="Rectangle_1763" data-name="Rectangle 1763" width="0.844" height="6.668" transform="translate(61.484 36.88) rotate(180)" opacity="0.2"/>
      <rect id="Rectangle_1764" data-name="Rectangle 1764" width="0.424" height="6.668" transform="translate(58.636 36.852) rotate(180)" opacity="0.2"/>
      <rect id="Rectangle_1765" data-name="Rectangle 1765" width="0.212" height="6.668" transform="translate(55.152 36.88) rotate(180)" opacity="0.2"/>
      <rect id="Rectangle_1766" data-name="Rectangle 1766" width="0.104" height="6.668" transform="translate(51.14 36.88) rotate(180)" opacity="0.2"/>
      <path id="Path_6623" data-name="Path 6623" d="M231.612,252.254h-27.7a.356.356,0,0,1-.356-.352h0a.352.352,0,0,1,.356-.352h27.7a.352.352,0,0,1,.356.352h0A.356.356,0,0,1,231.612,252.254Z" transform="translate(-166.648 -221.334)" fill="#fff" opacity="0.2"/>
      <rect id="Rectangle_1767" data-name="Rectangle 1767" width="29.328" height="7.464" rx="1.26" transform="translate(36.768 14.812)" fill="#455a64"/>
      <rect id="Rectangle_1768" data-name="Rectangle 1768" width="1.16" height="6.668" transform="translate(38.08 15.244)" opacity="0.2"/>
      <rect id="Rectangle_1769" data-name="Rectangle 1769" width="0.844" height="6.668" transform="translate(41.036 15.212)" opacity="0.2"/>
      <rect id="Rectangle_1770" data-name="Rectangle 1770" width="0.42" height="6.668" transform="translate(43.884 15.244)" opacity="0.2"/>
      <rect id="Rectangle_1771" data-name="Rectangle 1771" width="0.212" height="6.668" transform="translate(47.364 15.212)" opacity="0.2"/>
      <rect id="Rectangle_1772" data-name="Rectangle 1772" width="1.16" height="6.668" transform="translate(64.788 21.876) rotate(180)" opacity="0.2"/>
      <rect id="Rectangle_1773" data-name="Rectangle 1773" width="0.844" height="6.668" transform="translate(61.832 21.908) rotate(180)" opacity="0.2"/>
      <rect id="Rectangle_1774" data-name="Rectangle 1774" width="0.42" height="6.668" transform="translate(58.984 21.876) rotate(180)" opacity="0.2"/>
      <rect id="Rectangle_1775" data-name="Rectangle 1775" width="0.212" height="6.668" transform="translate(55.5 21.908) rotate(180)" opacity="0.2"/>
      <rect id="Rectangle_1776" data-name="Rectangle 1776" width="0.104" height="6.668" transform="translate(51.488 21.908) rotate(180)" opacity="0.2"/>
      <path id="Path_6624" data-name="Path 6624" d="M232.482,214.824h-27.7a.352.352,0,0,1-.356-.352h0a.352.352,0,0,1,.356-.352h27.7a.352.352,0,0,1,.356.352h0a.352.352,0,0,1-.356.352Z" transform="translate(-167.17 -198.876)" fill="#fff" opacity="0.2"/>
      <rect id="Rectangle_1777" data-name="Rectangle 1777" width="29.328" height="7.464" rx="1.26" transform="translate(37.224 22.336)" fill="#455a64"/>
      <rect id="Rectangle_1778" data-name="Rectangle 1778" width="1.16" height="6.668" transform="translate(38.532 22.768)" opacity="0.2"/>
      <rect id="Rectangle_1779" data-name="Rectangle 1779" width="0.844" height="6.668" transform="translate(41.488 22.736)" opacity="0.2"/>
      <rect id="Rectangle_1780" data-name="Rectangle 1780" width="0.42" height="6.668" transform="translate(44.336 22.768)" opacity="0.2"/>
      <rect id="Rectangle_1781" data-name="Rectangle 1781" width="0.212" height="6.668" transform="translate(47.816 22.736)" opacity="0.2"/>
      <rect id="Rectangle_1782" data-name="Rectangle 1782" width="1.16" height="6.668" transform="translate(65.24 29.404) rotate(180)" opacity="0.2"/>
      <rect id="Rectangle_1783" data-name="Rectangle 1783" width="0.844" height="6.668" transform="translate(62.284 29.436) rotate(180)" opacity="0.2"/>
      <rect id="Rectangle_1784" data-name="Rectangle 1784" width="0.42" height="6.668" transform="translate(59.436 29.404) rotate(180)" opacity="0.2"/>
      <rect id="Rectangle_1785" data-name="Rectangle 1785" width="0.212" height="6.668" transform="translate(55.956 29.436) rotate(180)" opacity="0.2"/>
      <rect id="Rectangle_1786" data-name="Rectangle 1786" width="0.104" height="6.668" transform="translate(51.94 29.436) rotate(180)" opacity="0.2"/>
      <path id="Path_6625" data-name="Path 6625" d="M233.622,233.634h-27.7a.348.348,0,0,1-.352-.352h0a.352.352,0,0,1,.352-.352h27.7a.356.356,0,0,1,.352.352h0A.352.352,0,0,1,233.622,233.634Z" transform="translate(-167.854 -210.162)" fill="#fff" opacity="0.2"/>
      <rect id="Rectangle_1787" data-name="Rectangle 1787" width="29.328" height="7.464" rx="1.26" transform="translate(1.2 67.012)" fill="#455a64"/>
      <rect id="Rectangle_1788" data-name="Rectangle 1788" width="1.16" height="6.668" transform="translate(2.512 67.444)" opacity="0.2"/>
      <rect id="Rectangle_1789" data-name="Rectangle 1789" width="0.844" height="6.668" transform="translate(5.464 67.412)" opacity="0.2"/>
      <rect id="Rectangle_1790" data-name="Rectangle 1790" width="0.42" height="6.668" transform="translate(8.312 67.444)" opacity="0.2"/>
      <rect id="Rectangle_1791" data-name="Rectangle 1791" width="0.212" height="6.668" transform="translate(11.792 67.412)" opacity="0.2"/>
      <rect id="Rectangle_1792" data-name="Rectangle 1792" width="1.16" height="6.668" transform="translate(29.216 74.076) rotate(180)" opacity="0.2"/>
      <rect id="Rectangle_1793" data-name="Rectangle 1793" width="0.844" height="6.668" transform="translate(26.264 74.108) rotate(180)" opacity="0.2"/>
      <rect id="Rectangle_1794" data-name="Rectangle 1794" width="0.42" height="6.668" transform="translate(23.412 74.076) rotate(180)" opacity="0.2"/>
      <rect id="Rectangle_1795" data-name="Rectangle 1795" width="0.212" height="6.668" transform="translate(19.932 74.108) rotate(180)" opacity="0.2"/>
      <rect id="Rectangle_1796" data-name="Rectangle 1796" width="0.104" height="6.668" transform="translate(15.916 74.108) rotate(180)" opacity="0.2"/>
      <path id="Path_6626" data-name="Path 6626" d="M143.562,345.324h-27.7a.348.348,0,0,1-.352-.352h0a.348.348,0,0,1,.352-.352h27.7a.348.348,0,0,1,.352.352h0a.348.348,0,0,1-.352.352Z" transform="translate(-113.818 -277.176)" fill="#fff" opacity="0.2"/>
      <rect id="Rectangle_1797" data-name="Rectangle 1797" width="29.328" height="7.464" rx="1.26" transform="translate(1.6 59.568)" fill="#455a64"/>
      <rect id="Rectangle_1798" data-name="Rectangle 1798" width="1.16" height="6.668" transform="translate(2.912 59.996)" opacity="0.2"/>
      <rect id="Rectangle_1799" data-name="Rectangle 1799" width="0.844" height="6.668" transform="translate(5.864 59.964)" opacity="0.2"/>
      <rect id="Rectangle_1800" data-name="Rectangle 1800" width="0.42" height="6.668" transform="translate(8.712 59.996)" opacity="0.2"/>
      <rect id="Rectangle_1801" data-name="Rectangle 1801" width="0.212" height="6.668" transform="translate(12.196 59.964)" opacity="0.2"/>
      <rect id="Rectangle_1802" data-name="Rectangle 1802" width="1.16" height="6.668" transform="translate(29.616 66.632) rotate(180)" opacity="0.2"/>
      <rect id="Rectangle_1803" data-name="Rectangle 1803" width="0.844" height="6.668" transform="translate(26.66 66.668) rotate(180)" opacity="0.2"/>
      <rect id="Rectangle_1804" data-name="Rectangle 1804" width="0.42" height="6.668" transform="translate(23.812 66.632) rotate(180)" opacity="0.2"/>
      <rect id="Rectangle_1805" data-name="Rectangle 1805" width="0.212" height="6.668" transform="translate(20.332 66.668) rotate(180)" opacity="0.2"/>
      <rect id="Rectangle_1806" data-name="Rectangle 1806" width="0.104" height="6.668" transform="translate(16.316 66.668) rotate(180)" opacity="0.2"/>
      <path id="Path_6627" data-name="Path 6627" d="M144.562,326.708h-27.7a.352.352,0,0,1-.352-.352h0a.352.352,0,0,1,.352-.356h27.7a.352.352,0,0,1,.352.356h0A.352.352,0,0,1,144.562,326.708Z" transform="translate(-114.418 -266.004)" fill="#fff" opacity="0.2"/>
      <rect id="Rectangle_1807" data-name="Rectangle 1807" width="29.328" height="7.464" rx="1.26" transform="translate(0 52.12)" fill="#455a64"/>
      <rect id="Rectangle_1808" data-name="Rectangle 1808" width="1.16" height="6.668" transform="translate(1.308 52.552)" opacity="0.2"/>
      <rect id="Rectangle_1809" data-name="Rectangle 1809" width="0.844" height="6.668" transform="translate(4.264 52.52)" opacity="0.2"/>
      <rect id="Rectangle_1810" data-name="Rectangle 1810" width="0.42" height="6.668" transform="translate(7.112 52.552)" opacity="0.2"/>
      <rect id="Rectangle_1811" data-name="Rectangle 1811" width="0.212" height="6.668" transform="translate(10.592 52.52)" opacity="0.2"/>
      <rect id="Rectangle_1812" data-name="Rectangle 1812" width="1.16" height="6.668" transform="translate(28.012 59.184) rotate(180)" opacity="0.2"/>
      <rect id="Rectangle_1813" data-name="Rectangle 1813" width="0.844" height="6.668" transform="translate(25.064 59.22) rotate(180)" opacity="0.2"/>
      <rect id="Rectangle_1814" data-name="Rectangle 1814" width="0.42" height="6.668" transform="translate(22.212 59.184) rotate(180)" opacity="0.2"/>
      <rect id="Rectangle_1815" data-name="Rectangle 1815" width="0.212" height="6.668" transform="translate(18.732 59.22) rotate(180)" opacity="0.2"/>
      <rect id="Rectangle_1816" data-name="Rectangle 1816" width="0.104" height="6.668" transform="translate(14.716 59.22) rotate(180)" opacity="0.2"/>
      <path id="Path_6628" data-name="Path 6628" d="M140.562,308.094h-27.7a.348.348,0,0,1-.352-.352h0a.348.348,0,0,1,.352-.352h27.7a.352.352,0,0,1,.352.352h0A.352.352,0,0,1,140.562,308.094Z" transform="translate(-112.018 -254.838)" fill="#fff" opacity="0.2"/>
    </g>
    <g id="Character_1" data-name="Character 1" transform="translate(-327.456 7834.123)">
      <path id="Path_6629" data-name="Path 6629" d="M139.05,293.158l-.8,1.98-.608,1.5-1.528-.544.548-1.344.864-2.136Z" transform="translate(-125.21 -234.326)" fill="#e4897b"/>
      <path id="Path_6630" data-name="Path 6630" d="M220.78,262.23l-1.3.964L219,262.138l-1.1-2.44,1.3-.968,1.044,2.312Z" transform="translate(-174.284 -213.998)" fill="#e4897b"/>
      <path id="Path_6631" data-name="Path 6631" d="M138.344,292.61l1.528.548-.8,1.98-1.588-.392Z" transform="translate(-126.032 -234.326)" opacity="0.2"/>
      <path id="Path_6632" data-name="Path 6632" d="M220.244,261.042l-1.24,1.1-1.1-2.44,1.3-.968Z" transform="translate(-174.284 -213.998)" opacity="0.2"/>
      <path id="Path_6633" data-name="Path 6633" d="M172.095,156.507c.044.12.144.2.224.172s.112-.152.068-.276-.144-.2-.224-.172A.2.2,0,0,0,172.095,156.507Z" transform="translate(-146.787 -152.495)" fill="#263238"/>
      <path id="Path_6634" data-name="Path 6634" d="M172.46,157.44a4.66,4.66,0,0,0,.96.844.752.752,0,0,1-.548.32Z" transform="translate(-147.02 -153.224)" fill="#de5753"/>
      <path id="Path_6635" data-name="Path 6635" d="M170.285,154.938a.072.072,0,0,1-.056,0,.08.08,0,0,1,0-.108.756.756,0,0,1,.608-.34.076.076,0,0,1,.076.08.072.072,0,0,1-.08.072h0a.612.612,0,0,0-.48.276.064.064,0,0,1-.068.02Z" transform="translate(-145.669 -151.454)" fill="#263238"/>
      <path id="Path_6636" data-name="Path 6636" d="M163.1,162c.02,1.2-.132,3.384-1.088,4,0,0,.108,1.244,2.276,1.628,2.4.424,1.352-.98,1.352-.98-1.244-.544-1.04-1.5-.652-2.368Z" transform="translate(-140.75 -155.96)" fill="#e4897b"/>
      <path id="Path_6637" data-name="Path 6637" d="M161.354,155.294c.624,1.48.916,2.38,1.956,2.884a2.131,2.131,0,0,0,3.012-2.224c-.152-1.476-1.152-3.648-2.848-3.728a2.192,2.192,0,0,0-2.12,3.068Z" transform="translate(-140.246 -150.094)" fill="#e4897b"/>
      <path id="Path_6638" data-name="Path 6638" d="M159.856,155.674c.7.284,2.916-1.3,2.16-3.128a3.616,3.616,0,0,0,.484-2.4c-.272-1.2-1.16-1.536-2-1.152-.744.336-.664.756-.664.756s-3.6.944-2.616,2.324C155.952,153.9,158.972,155.306,159.856,155.674Z" transform="translate(-137.692 -148.066)" fill="#263238"/>
      <path id="Path_6639" data-name="Path 6639" d="M168.091,157.9a1.82,1.82,0,0,0,.78.864c.464.256.732-.1.636-.564s-.428-1.06-.908-1.124S167.907,157.444,168.091,157.9Z" transform="translate(-144.359 -153.004)" fill="#e4897b"/>
      <path id="Path_6640" data-name="Path 6640" d="M160.284,170.609c-.168-.332-.352-.716.056-.82a15.119,15.119,0,0,1,4.132,0c-.272.452.148,1.024.148,1.024Z" transform="translate(-139.6 -160.545)" fill="#e75549"/>
      <path id="Path_6642" data-name="Path 6642" d="M136.844,301h-1.768a.14.14,0,0,0-.136.112l-.32,1.44a.232.232,0,0,0,.232.288c.636,0,1.56-.048,2.36-.048.94,0,1.748.052,2.848.052.668,0,.852-.672.572-.736a9.72,9.72,0,0,1-3.4-.98.736.736,0,0,0-.392-.128Z" transform="translate(-124.312 -239.36)" fill="#263238"/>
      <path id="Path_6643" data-name="Path 6643" d="M149.626,207.764s-.5,3.4-1.116,7.28c-.268,1.672-.556,3.436-.84,5.068-.316,1.828-.624,3.484-.88,4.652-1.116,5.08-7.04,19.08-7.04,19.08l-2.9-.628s4.144-10.892,5.068-18c.716-5.452,2.12-17.476,2.12-17.476Z" transform="translate(-125.654 -183.404)" fill="#303f46"/>
      <path id="Path_6644" data-name="Path 6644" d="M140.124,294.644l-.54,1.052-3.264-.708.272-.988Z" transform="translate(-125.336 -235.16)" fill="#dc2626"/>
      <path id="Path_6646" data-name="Path 6646" d="M163.869,225.862c-.268,1.672-.556,3.436-.84,5.068a15.23,15.23,0,0,1-.54-5.16Z" transform="translate(-141.013 -194.222)" opacity="0.2"/>
      <path id="Path_6647" data-name="Path 6647" d="M144.022,176.706c-.78.736-1.6,1.516-2.344,2.3a31.933,31.933,0,0,0-2.136,2.4,11.092,11.092,0,0,0-.772,1.3c-.248.484-.5.976-.74,1.476l-1.468,3.032-1.152-.4c.248-1.128.564-2.22.908-3.32.18-.548.372-1.1.584-1.644a10.708,10.708,0,0,1,.82-1.7,21.624,21.624,0,0,1,2.184-2.8,28.931,28.931,0,0,1,2.48-2.472Z" transform="translate(-124.79 -163.682)" fill="#dc897c"/>
      <path id="Path_6648" data-name="Path 6648" d="M133.146,209.734l.588-1.044-1.792-.54a1.876,1.876,0,0,0,.032,1.52Z" transform="translate(-122.622 -183.65)" fill="#e4897b"/>
      <path id="Path_6649" data-name="Path 6649" d="M134.608,205.122l-1.148-.372-1.3,1.36,1.792.54Z" transform="translate(-122.84 -181.61)" fill="#e4897b"/>
      <path id="Path_6650" data-name="Path 6650" d="M222.776,266l-1.46,1.084a.144.144,0,0,0-.044.172l.6,1.344a.236.236,0,0,0,.36.092c.5-.4.732-.6,1.372-1.076.4-.3,1.312-.936,1.86-1.34s.216-1-.044-.884a4.486,4.486,0,0,1-2.372.532A.4.4,0,0,0,222.776,266Z" transform="translate(-176.3 -217.984)" fill="#263238"/>
      <path id="Path_6651" data-name="Path 6651" d="M149.422,172.427c-1.556-.1-3.852,3.268-3.852,3.268l2.264,3.092a6.668,6.668,0,0,0,2.4-2.4C151.31,174.571,151.01,172.523,149.422,172.427Z" transform="translate(-130.886 -162.215)" fill="#dc2626"/>
      <path id="Path_6653" data-name="Path 6653" d="M153.108,180.18a5.646,5.646,0,0,0-2.128,3.12l.1.14a6.668,6.668,0,0,0,2.4-2.4q.1-.16.18-.324Z" transform="translate(-134.132 -166.868)" opacity="0.2"/>
      <path id="Path_6654" data-name="Path 6654" d="M163.418,170.653s.932,2.34-.7,14.4h-8.66c-.06-1.332.776-7.82-.508-14.084a22.355,22.355,0,0,1,2.9-.368c1.108-.052,4.8-.8,5.776-.712C163.51,170.005,163.418,170.653,163.418,170.653Z" transform="translate(-135.674 -160.689)" fill="#dc2626"/>
      <path id="Path_6656" data-name="Path 6656" d="M163.152,206l1.712,4s8.292,1.04,10.644,3.892,6.8,14.424,6.8,14.424l-2.216,1.884s-6.36-11.7-8.14-13.108-11.912-1.408-14.176-2.252-2.916-8.152-2.916-8.152Z" transform="translate(-136.46 -182.36)" fill="#303f46"/>
      <path id="Path_6657" data-name="Path 6657" d="M216.76,262.928l2.672-2.048.344.66-2.56,2.016Z" transform="translate(-173.6 -215.288)" fill="#dc2626"/>
      <g id="Group_2832" data-name="Group 2832" transform="translate(0 -10)">
        <path id="Path_6645" data-name="Path 6645" d="M140.124,294.644l-.54,1.052-3.264-.708.272-.988Z" transform="translate(-125.336 -225.16)" opacity="0.3"/>
        <path id="Path_6658" data-name="Path 6658" d="M216.76,262.928l2.672-2.048.344.66-2.56,2.016Z" transform="translate(-173.6 -205.288)" opacity="0.3"/>
      </g>
      <path id="Path_6659" data-name="Path 6659" d="M159.768,149.856s-.1-2.372-1.356-2.452a3.156,3.156,0,0,0-2.248,1.056,1.312,1.312,0,0,0-1.012-.492c-.712-.036-1.952,1.176-1.952,1.176s1.548-.952,2.2-.516c0,0-1.756.488-2.2,1.6a4,4,0,0,1-.92,1.5h.92l-.6,1.028s1.272,1.232,2.232,1.024l-.308.588a6.833,6.833,0,0,0,2.652.472c.768-.212.04-4.032.04-4.032Z" transform="translate(-134.912 -147.2)" fill="#263238"/>
      <path id="Path_6660" data-name="Path 6660" d="M176.408,179.808c-1.572-1.068-1.548-3.528-1.548-3.528l1.6.4C176.48,177.448,176.476,178.468,176.408,179.808Z" transform="translate(-148.46 -164.528)" opacity="0.2"/>
      <path id="Path_6661" data-name="Path 6661" d="M122.308,212.766l-10.684-1.8-2.764,8.224,1.768,3.208,11.664,1.536,2.364-8.956Z" transform="translate(-108.86 -185.342)" fill="#263238"/>
      <path id="Path_6662" data-name="Path 6662" d="M108.86,219.194l.688,1.252.156.276.924,1.68,11.664,1.536,2.364-8.956-1-.948-.308-.288-1.032-.98-10.688-1.8Z" transform="translate(-108.86 -185.342)" opacity="0.4"/>
      <path id="Path_6663" data-name="Path 6663" d="M128.8,214.982l-10.576-1.644-2.456-2.368,10.688,1.8Z" transform="translate(-113.006 -185.342)" fill="#fff" opacity="0.2"/>
      <path id="Path_6664" data-name="Path 6664" d="M114.08,213.338l-3.452,9.064-1.768-3.208,2.764-8.224Z" transform="translate(-108.86 -185.342)" fill="#fff" opacity="0.1"/>
      <path id="Path_6665" data-name="Path 6665" d="M110.58,222.054l.156.276,3.2-8.5,10.752,1.808-.308-.288-10.636-1.7Z" transform="translate(-109.892 -186.95)" fill="#263238"/>
      <path id="Path_6666" data-name="Path 6666" d="M131.972,215.2l-.54-.5-2.692-.488.472.54Z" transform="translate(-120.788 -187.286)" fill="#263238"/>
      <path id="Path_6667" data-name="Path 6667" d="M130.972,211.371s.124-2.824.048-3.012a35.691,35.691,0,0,0-4.148-.86c-.284-.06-1.532,2.688-1.532,2.688l.216.332.716.1s.908-2.372,1-2.428a27.131,27.131,0,0,1,3.088.5,19.2,19.2,0,0,1-.232,2.216l.244.356Z" transform="translate(-118.748 -183.259)" fill="#263238"/>
      <path id="Path_6668" data-name="Path 6668" d="M110.67,226.432l.8,1.028.076-.2.6-1.6.072-.192.128-.344s-.228.256-.54.548A3.368,3.368,0,0,1,110.67,226.432Z" transform="translate(-109.946 -193.832)" fill="#dc2626"/>
      <path id="Path_6669" data-name="Path 6669" d="M111.32,227.024l.6.748.6-1.6.072-.192A3.38,3.38,0,0,1,111.32,227.024Z" transform="translate(-110.336 -194.348)" fill="#fff" opacity="0.2"/>
      <path id="Path_6670" data-name="Path 6670" d="M113.47,225.676h.34l.2-.536S113.782,225.384,113.47,225.676Z" transform="translate(-111.626 -193.844)" opacity="0.2"/>
      <path id="Path_6671" data-name="Path 6671" d="M109.718,222.762l-.148,1.448a3.328,3.328,0,0,1,1.912-.252l.076-.2.464-1.244.052-.128A4.7,4.7,0,0,0,109.718,222.762Z" transform="translate(-109.286 -192.178)" fill="#dc2626"/>
      <path id="Path_6672" data-name="Path 6672" d="M113.74,215.6a5.552,5.552,0,0,0,1.088,1.464l.056-.152.144-.4.24-.66.116-.32.032-.092a6.087,6.087,0,0,1-.5-.924Z" transform="translate(-111.788 -187.472)" fill="#dc2626"/>
      <path id="Path_6673" data-name="Path 6673" d="M119.86,211.73a2.92,2.92,0,0,1,.336.732l.168.032.232.036.372.064.356.06.124.024a2.308,2.308,0,0,0-.584-1.508Z" transform="translate(-115.46 -185.462)" fill="#dc2626"/>
      <path id="Path_6674" data-name="Path 6674" d="M120.42,212.042a3.643,3.643,0,0,1,.28.728l.232.036a.252.252,0,1,1,.452-.052.244.244,0,0,1-.08.116l.356.06a2.344,2.344,0,0,0-.468-1.3Z" transform="translate(-115.796 -185.738)" fill="#fff" opacity="0.2"/>
      <path id="Path_6675" data-name="Path 6675" d="M110.042,223l-.092,1.172a4.74,4.74,0,0,1,1.836-.236l.464-1.244a4.348,4.348,0,0,0-2.208.308Zm1.284-.1a.332.332,0,1,1-.34.161A.332.332,0,0,1,111.326,222.9Z" transform="translate(-109.514 -192.357)" fill="#fff" opacity="0.2"/>
      <path id="Path_6676" data-name="Path 6676" d="M114.25,216.04a6.62,6.62,0,0,0,.94,1.248l.144-.4a.352.352,0,0,1,.224-.668h0l.116-.32a2.764,2.764,0,0,1-.488-.76Z" transform="translate(-112.094 -187.844)" fill="#fff" opacity="0.2"/>
      <path id="Path_6677" data-name="Path 6677" d="M203.73,151.368l.616-1.028,1.36,1.288a1.9,1.9,0,0,1-1.336.724Z" transform="translate(-165.782 -148.964)" fill="#e4897b"/>
      <path id="Path_6678" data-name="Path 6678" d="M206.222,146.9l.964,1.352-.556,1.312-1.36-1.288Z" transform="translate(-166.706 -146.9)" fill="#e4897b"/>
      <path id="Path_6679" data-name="Path 6679" d="M177.12,159.646a33.485,33.485,0,0,0,3.28-.848,13.34,13.34,0,0,0,2.968-1.3c.12-.072.152-.112.244-.176l.26-.244c.192-.184.4-.4.58-.592.38-.424.772-.86,1.148-1.308.772-.892,1.524-1.812,2.3-2.712l1.012.672c-.556,1.084-1.172,2.112-1.824,3.144-.332.508-.672,1.02-1.048,1.516-.188.252-.4.5-.6.752-.1.128-.236.256-.352.4a5.387,5.387,0,0,1-.452.4,13.416,13.416,0,0,1-3.468,1.784,21.875,21.875,0,0,1-3.64.972Z" transform="translate(-149.816 -150.242)" fill="#dc897c"/>
      <path id="Path_6680" data-name="Path 6680" d="M173.664,172.118c1.684,1.46,5.384-1.044,5.384-1.044l-1.476-3.644a21.05,21.05,0,0,0-4,.86C171.232,169.082,172.376,171,173.664,172.118Z" transform="translate(-146.876 -159.218)" fill="#dc2626"/>
    </g>
  </g>
</svg>
