<svg xmlns="http://www.w3.org/2000/svg" width="162" height="141.559" viewBox="0 0 162 141.559">
  <g id="Group_2831" data-name="Group 2831" transform="translate(1774 -8295.221)">
    <path id="Path_6682" data-name="Path 6682" d="M7.108,114.973c4.178,10.268,22.607,26.62,67.971,14.2s81.092-12.562,89.158-42.008-26.173-60.686-53.043-62.155S70.477,37.243,57.232,57.653,20.671,80.273,13.706,87.576,4.867,109.482,7.108,114.973Z" transform="translate(-1777.439 8281.438)" fill="#eaeaea"/>
    <path id="Path_6683" data-name="Path 6683" d="M127.68,63.116h28.5a4.311,4.311,0,0,0-4.562-4.513s-1.183-4.723-5.393-4.723-5.393,2.906-5.393,2.906-6.638-3.268-9.062,4.129A3.463,3.463,0,0,0,127.68,63.116Z" transform="translate(-1844.681 8265.394)" fill="#fff"/>
    <path id="Path_6684" data-name="Path 6684" d="M290.68,144.116h28.5a4.311,4.311,0,0,0-4.562-4.513s-1.183-4.723-5.393-4.723-5.393,2.906-5.393,2.906-6.638-3.268-9.062,4.129A3.463,3.463,0,0,0,290.68,144.116Z" transform="translate(-1934.916 8220.554)" fill="#fff"/>
    <path id="Path_6685" data-name="Path 6685" d="M287.49,75.59h22.62s.308-5.25-5.482-4.379c0,0-.107-5.357-6.312-3.125,0,0-4.821-2.308-6.745,3.125C291.57,71.21,287.74,70.2,287.49,75.59Z" transform="translate(-1933.15 8257.831)" fill="#fff"/>
    <path id="Path_6686" data-name="Path 6686" d="M104.639,87.51h89.6a5,5,0,0,1,5,5v61.909H99.63V92.514a5,5,0,0,1,5.009-5Z" transform="translate(-1829.153 8246.776)" fill="#455a64"/>
    <rect id="Rectangle_1817" data-name="Rectangle 1817" width="89.074" height="59.597" transform="translate(-1724.573 8338.59)" fill="#eaeaea"/>
    <rect id="Rectangle_1818" data-name="Rectangle 1818" width="89.074" height="4.946" transform="translate(-1724.573 8338.59)" fill="#5f6d74"/>
    <path id="Path_6687" data-name="Path 6687" d="M195.533,271.39H70.719a.558.558,0,0,1-.518-.763L83.317,237.4h99.618l13.116,33.227a.558.558,0,0,1-.518.763Z" transform="translate(-1812.841 8163.8)" fill="#455a64"/>
    <path id="Path_6688" data-name="Path 6688" d="M194.437,314.232H71.159a1.589,1.589,0,0,1-1.589-1.589h47.892l.143-.165a1.567,1.567,0,0,1,1.205-.558h27.843a1.594,1.594,0,0,1,1.2.549l.152.174h48.021A1.589,1.589,0,0,1,194.437,314.232Z" transform="translate(-1812.513 8122.547)" fill="#263238"/>
    <path id="Path_6689" data-name="Path 6689" d="M198.243,258.95H93.63a.893.893,0,0,1-.826-1.2l6.33-17.067a.893.893,0,0,1,.817-.567h91.234a.893.893,0,0,1,.839.567l7,17.067a.853.853,0,0,1-.777,1.2Z" transform="translate(-1825.345 8162.294)" fill="#5f6d74"/>
    <path id="Path_6690" data-name="Path 6690" d="M124.151,255.895H111.834a.254.254,0,0,1-.237-.348l.893-2.362a.263.263,0,0,1,.241-.165h11.991a.259.259,0,0,1,.25.317l-.576,2.353A.254.254,0,0,1,124.151,255.895Z" transform="translate(-1835.769 8155.153)" fill="#fff"/>
    <path id="Path_6691" data-name="Path 6691" d="M124.153,254.9H111.837a.254.254,0,0,1-.237-.344l.893-2.366a.263.263,0,0,1,.241-.165h11.991a.259.259,0,0,1,.25.317l-.589,2.366A.254.254,0,0,1,124.153,254.9Z" transform="translate(-1835.771 8155.701)" fill="#455a64"/>
    <path id="Path_6692" data-name="Path 6692" d="M153.063,255.895h-6.589a.254.254,0,0,1-.237-.348l.656-2.362a.25.25,0,0,1,.237-.165h6.25a.259.259,0,0,1,.25.317L153.3,255.7A.254.254,0,0,1,153.063,255.895Z" transform="translate(-1854.945 8155.153)" fill="#fff"/>
    <path id="Path_6693" data-name="Path 6693" d="M153.066,254.9h-6.589a.254.254,0,0,1-.237-.344l.656-2.366a.25.25,0,0,1,.237-.165h6.25a.259.259,0,0,1,.25.317l-.335,2.366A.254.254,0,0,1,153.066,254.9Z" transform="translate(-1854.947 8155.701)" fill="#455a64"/>
    <path id="Path_6694" data-name="Path 6694" d="M174.614,255.895h-6.589a.254.254,0,0,1-.237-.348l.446-2.362a.25.25,0,0,1,.237-.165h6.25a.254.254,0,0,1,.25.317l-.112,2.362A.263.263,0,0,1,174.614,255.895Z" transform="translate(-1866.875 8155.153)" fill="#fff"/>
    <path id="Path_6695" data-name="Path 6695" d="M174.613,254.9h-6.589a.25.25,0,0,1-.237-.344l.446-2.366a.25.25,0,0,1,.237-.165h6.25a.254.254,0,0,1,.25.317l-.112,2.366A.263.263,0,0,1,174.613,254.9Z" transform="translate(-1866.874 8155.701)" fill="#455a64"/>
    <path id="Path_6696" data-name="Path 6696" d="M199.37,255.895h-6.589a.259.259,0,0,1-.241-.348l.259-2.362a.259.259,0,0,1,.237-.165h6.272a.254.254,0,0,1,.246.317l.063,2.362A.254.254,0,0,1,199.37,255.895Z" transform="translate(-1880.578 8155.153)" fill="#fff"/>
    <path id="Path_6697" data-name="Path 6697" d="M199.37,254.9h-6.589a.254.254,0,0,1-.241-.344l.259-2.366a.259.259,0,0,1,.237-.165h6.272a.255.255,0,0,1,.246.317l.063,2.366a.254.254,0,0,1-.246.192Z" transform="translate(-1880.578 8155.701)" fill="#455a64"/>
    <path id="Path_6698" data-name="Path 6698" d="M264,255.895h6.589a.259.259,0,0,0,.241-.348l-.893-2.362a.25.25,0,0,0-.237-.165h-6.25a.259.259,0,0,0-.25.317l.589,2.362A.254.254,0,0,0,264,255.895Z" transform="translate(-1919.7 8155.153)" fill="#fff"/>
    <path id="Path_6699" data-name="Path 6699" d="M264,254.9h6.589a.254.254,0,0,0,.241-.344l-.893-2.366a.25.25,0,0,0-.237-.165h-6.25a.259.259,0,0,0-.25.317l.589,2.366A.254.254,0,0,0,264,254.9Z" transform="translate(-1919.7 8155.701)" fill="#455a64"/>
    <path id="Path_6700" data-name="Path 6700" d="M242,255.884h6.589a.254.254,0,0,0,.237-.348l-.656-2.362a.25.25,0,0,0-.237-.174h-6.25a.259.259,0,0,0-.25.317l.335,2.362a.259.259,0,0,0,.232.205Z" transform="translate(-1907.649 8155.164)" fill="#fff"/>
    <path id="Path_6701" data-name="Path 6701" d="M242,254.888h6.589a.25.25,0,0,0,.237-.344l-.656-2.366a.25.25,0,0,0-.237-.179h-6.25a.259.259,0,0,0-.25.317l.335,2.366A.259.259,0,0,0,242,254.888Z" transform="translate(-1907.649 8155.718)" fill="#455a64"/>
    <path id="Path_6702" data-name="Path 6702" d="M217.387,255.895h6.589a.254.254,0,0,0,.237-.348l-.446-2.362a.255.255,0,0,0-.237-.165h-6.25a.254.254,0,0,0-.25.317l.112,2.362A.259.259,0,0,0,217.387,255.895Z" transform="translate(-1894.14 8155.153)" fill="#fff"/>
    <path id="Path_6703" data-name="Path 6703" d="M217.387,254.9h6.589a.25.25,0,0,0,.237-.344l-.446-2.366a.254.254,0,0,0-.237-.165h-6.25a.254.254,0,0,0-.25.317l.112,2.366A.259.259,0,0,0,217.387,254.9Z" transform="translate(-1894.14 8155.701)" fill="#455a64"/>
    <path id="Path_6704" data-name="Path 6704" d="M286.007,255.9h11.16a.255.255,0,0,0,.237-.348l-.906-2.3a.255.255,0,0,0-.241-.165h-11.2a.254.254,0,0,0-.25.317l.946,2.3A.259.259,0,0,0,286.007,255.9Z" transform="translate(-1931.662 8155.114)" fill="#fff"/>
    <path id="Path_6705" data-name="Path 6705" d="M286.007,254.912h11.16a.25.25,0,0,0,.237-.344l-.906-2.3a.263.263,0,0,0-.241-.165h-11.2a.254.254,0,0,0-.25.317l.946,2.3A.259.259,0,0,0,286.007,254.912Z" transform="translate(-1931.662 8155.663)" fill="#455a64"/>
    <path id="Path_6706" data-name="Path 6706" d="M126.132,265.954H108.5c-.241,0-.406-.179-.321-.348l.987-2.362a.348.348,0,0,1,.321-.165h17.2c.219,0,.384.156.33.317l-.558,2.362a.335.335,0,0,1-.33.2Z" transform="translate(-1833.875 8149.585)" fill="#fff"/>
    <path id="Path_6707" data-name="Path 6707" d="M126.132,264.964H108.5c-.241,0-.406-.179-.321-.348l.987-2.362a.357.357,0,0,1,.321-.165h17.2c.219,0,.384.156.33.317l-.558,2.366A.335.335,0,0,1,126.132,264.964Z" transform="translate(-1833.875 8150.133)" fill="#455a64"/>
    <path id="Path_6708" data-name="Path 6708" d="M163.581,265.955h-7.236a.254.254,0,0,1-.237-.348l.491-2.362a.246.246,0,0,1,.237-.165h6.915a.254.254,0,0,1,.246.317l-.17,2.362a.254.254,0,0,1-.246.2Z" transform="translate(-1860.409 8149.584)" fill="#fff"/>
    <path id="Path_6709" data-name="Path 6709" d="M163.581,264.965h-7.236a.254.254,0,0,1-.237-.348l.491-2.362a.25.25,0,0,1,.237-.165h6.915a.254.254,0,0,1,.246.317l-.17,2.366A.254.254,0,0,1,163.581,264.965Z" transform="translate(-1860.409 8150.132)" fill="#455a64"/>
    <path id="Path_6710" data-name="Path 6710" d="M187.45,265.955h-7.076a.255.255,0,0,1-.237-.348l.241-2.361a.254.254,0,0,1,.241-.165h6.79a.254.254,0,0,1,.246.317l.045,2.362A.259.259,0,0,1,187.45,265.955Z" transform="translate(-1873.711 8149.584)" fill="#fff"/>
    <path id="Path_6711" data-name="Path 6711" d="M187.45,264.965h-7.076a.254.254,0,0,1-.237-.348l.241-2.361a.263.263,0,0,1,.241-.165h6.79a.254.254,0,0,1,.246.317l.045,2.366A.259.259,0,0,1,187.45,264.965Z" transform="translate(-1873.711 8150.132)" fill="#455a64"/>
    <path id="Path_6712" data-name="Path 6712" d="M211.487,265.955h-7.062a.255.255,0,0,1-.237-.348v-2.361a.254.254,0,0,1,.241-.165h7.013a.254.254,0,0,1,.246.317l.062,2.362A.254.254,0,0,1,211.487,265.955Z" transform="translate(-1887.025 8149.584)" fill="#fff"/>
    <path id="Path_6713" data-name="Path 6713" d="M211.487,264.965h-7.062a.254.254,0,0,1-.237-.348v-2.361a.263.263,0,0,1,.241-.165h7.013a.254.254,0,0,1,.246.317l.062,2.366a.254.254,0,0,1-.263.192Z" transform="translate(-1887.025 8150.132)" fill="#455a64"/>
    <path id="Path_6714" data-name="Path 6714" d="M251.979,265.955h7.861a.259.259,0,0,0,.241-.348l-.656-2.362a.25.25,0,0,0-.237-.165h-7.683a.254.254,0,0,0-.246.317l.446,2.362A.263.263,0,0,0,251.979,265.955Z" transform="translate(-1913.089 8149.584)" fill="#fff"/>
    <path id="Path_6715" data-name="Path 6715" d="M251.979,264.965h7.861a.259.259,0,0,0,.241-.348l-.656-2.362a.254.254,0,0,0-.237-.165h-7.683a.254.254,0,0,0-.246.317l.446,2.366A.263.263,0,0,0,251.979,264.965Z" transform="translate(-1913.089 8150.132)" fill="#455a64"/>
    <path id="Path_6716" data-name="Path 6716" d="M228.353,265.955h7.094a.254.254,0,0,0,.237-.348l-.446-2.362a.246.246,0,0,0-.237-.165h-6.759a.259.259,0,0,0-.25.317l.116,2.362a.254.254,0,0,0,.246.2Z" transform="translate(-1900.209 8149.584)" fill="#fff"/>
    <path id="Path_6717" data-name="Path 6717" d="M228.353,264.965h7.094a.254.254,0,0,0,.237-.348l-.446-2.362a.25.25,0,0,0-.237-.165h-6.759a.259.259,0,0,0-.25.317l.116,2.366A.254.254,0,0,0,228.353,264.965Z" transform="translate(-1900.209 8150.132)" fill="#455a64"/>
    <path id="Path_6718" data-name="Path 6718" d="M282.072,265.962H296.8a.254.254,0,0,0,.237-.348l-.92-2.3a.259.259,0,0,0-.241-.161H281.126a.254.254,0,0,0-.246.317l.942,2.295A.254.254,0,0,0,282.072,265.962Z" transform="translate(-1929.486 8149.545)" fill="#fff"/>
    <path id="Path_6719" data-name="Path 6719" d="M282.072,264.972H296.8a.25.25,0,0,0,.237-.344l-.92-2.3a.263.263,0,0,0-.241-.165H281.126a.254.254,0,0,0-.246.317l.942,2.29A.255.255,0,0,0,282.072,264.972Z" transform="translate(-1929.486 8150.093)" fill="#455a64"/>
    <path id="Path_6720" data-name="Path 6720" d="M121.5,246.035h-6.6a.25.25,0,0,1-.237-.344l.893-2.366a.254.254,0,0,1,.237-.165h6.286a.254.254,0,0,1,.246.317l-.585,2.366A.263.263,0,0,1,121.5,246.035Z" transform="translate(-1837.468 8160.611)" fill="#fff"/>
    <path id="Path_6721" data-name="Path 6721" d="M121.5,245.055h-6.6a.254.254,0,0,1-.237-.348l.893-2.366a.25.25,0,0,1,.237-.161h6.286a.254.254,0,0,1,.246.317l-.585,2.362A.263.263,0,0,1,121.5,245.055Z" transform="translate(-1837.468 8161.154)" fill="#455a64"/>
    <path id="Path_6722" data-name="Path 6722" d="M143.291,246.035h-6.607a.25.25,0,0,1-.237-.344l.652-2.366a.263.263,0,0,1,.241-.165h6.25a.254.254,0,0,1,.246.317l-.33,2.366A.263.263,0,0,1,143.291,246.035Z" transform="translate(-1849.525 8160.611)" fill="#fff"/>
    <path id="Path_6723" data-name="Path 6723" d="M143.291,245.055h-6.607a.254.254,0,0,1-.237-.348l.652-2.366a.259.259,0,0,1,.241-.161h6.25a.254.254,0,0,1,.246.317l-.33,2.362A.263.263,0,0,1,143.291,245.055Z" transform="translate(-1849.525 8161.154)" fill="#455a64"/>
    <path id="Path_6724" data-name="Path 6724" d="M165.1,246.035h-6.589a.254.254,0,0,1-.237-.344l.446-2.366a.263.263,0,0,1,.241-.165h6.25a.254.254,0,0,1,.246.317l-.112,2.366A.254.254,0,0,1,165.1,246.035Z" transform="translate(-1861.607 8160.611)" fill="#fff"/>
    <path id="Path_6725" data-name="Path 6725" d="M165.1,245.055h-6.589a.259.259,0,0,1-.237-.348l.446-2.366a.259.259,0,0,1,.241-.161h6.25a.254.254,0,0,1,.246.317l-.112,2.362A.255.255,0,0,1,165.1,245.055Z" transform="translate(-1861.607 8161.154)" fill="#455a64"/>
    <path id="Path_6726" data-name="Path 6726" d="M186.77,246.035h-6.589a.254.254,0,0,1-.241-.344l.259-2.366a.25.25,0,0,1,.237-.165h6.25a.254.254,0,0,1,.25.317l.062,2.366A.254.254,0,0,1,186.77,246.035Z" transform="translate(-1873.603 8160.611)" fill="#fff"/>
    <path id="Path_6727" data-name="Path 6727" d="M186.77,245.055h-6.589a.259.259,0,0,1-.241-.348l.259-2.366a.246.246,0,0,1,.237-.161h6.25a.254.254,0,0,1,.25.317l.063,2.362A.254.254,0,0,1,186.77,245.055Z" transform="translate(-1873.603 8161.154)" fill="#455a64"/>
    <path id="Path_6728" data-name="Path 6728" d="M244.751,246.035h6.589a.254.254,0,0,0,.241-.344l-.893-2.366a.25.25,0,0,0-.237-.165H244.2a.259.259,0,0,0-.25.317l.589,2.366A.254.254,0,0,0,244.751,246.035Z" transform="translate(-1909.044 8160.611)" fill="#fff"/>
    <path id="Path_6729" data-name="Path 6729" d="M244.751,245.055h6.589a.259.259,0,0,0,.241-.348l-.893-2.366a.245.245,0,0,0-.237-.161H244.2a.259.259,0,0,0-.25.317l.589,2.362A.254.254,0,0,0,244.751,245.055Z" transform="translate(-1909.044 8161.154)" fill="#455a64"/>
    <path id="Path_6730" data-name="Path 6730" d="M223.228,246.035h6.589a.254.254,0,0,0,.241-.344l-.656-2.366a.259.259,0,0,0-.237-.165h-6.25a.254.254,0,0,0-.246.317l.335,2.366A.254.254,0,0,0,223.228,246.035Z" transform="translate(-1897.262 8160.611)" fill="#fff"/>
    <path id="Path_6731" data-name="Path 6731" d="M223.228,245.055h6.589a.259.259,0,0,0,.241-.348l-.656-2.366a.254.254,0,0,0-.237-.161h-6.25a.254.254,0,0,0-.246.317l.335,2.362A.254.254,0,0,0,223.228,245.055Z" transform="translate(-1897.262 8161.154)" fill="#455a64"/>
    <path id="Path_6732" data-name="Path 6732" d="M201.7,246.035h6.589a.25.25,0,0,0,.237-.344l-.446-2.366a.255.255,0,0,0-.237-.165h-6.25a.254.254,0,0,0-.25.317l.112,2.366a.263.263,0,0,0,.246.192Z" transform="translate(-1885.454 8160.611)" fill="#fff"/>
    <path id="Path_6733" data-name="Path 6733" d="M201.7,245.055h6.589a.254.254,0,0,0,.237-.348l-.446-2.366a.25.25,0,0,0-.237-.161h-6.25a.254.254,0,0,0-.25.317l.112,2.362a.263.263,0,0,0,.246.2Z" transform="translate(-1885.454 8161.154)" fill="#455a64"/>
    <path id="Path_6734" data-name="Path 6734" d="M282.974,246.035h10.759a.254.254,0,0,0,.241-.344l-1.339-2.366a.263.263,0,0,0-.241-.165H281.532a.259.259,0,0,0-.25.317l1.446,2.366A.254.254,0,0,0,282.974,246.035Z" transform="translate(-1929.709 8160.611)" fill="#fff"/>
    <path id="Path_6735" data-name="Path 6735" d="M282.974,245.055h10.759a.259.259,0,0,0,.241-.348l-1.339-2.366a.259.259,0,0,0-.241-.161H281.532a.259.259,0,0,0-.25.317l1.446,2.362A.254.254,0,0,0,282.974,245.055Z" transform="translate(-1929.709 8161.154)" fill="#455a64"/>
    <path id="Path_6736" data-name="Path 6736" d="M263.914,246.035H270.5a.254.254,0,0,0,.237-.344l-1.375-2.366a.259.259,0,0,0-.237-.165h-6.272a.254.254,0,0,0-.246.317l1.054,2.366A.254.254,0,0,0,263.914,246.035Z" transform="translate(-1919.372 8160.611)" fill="#fff"/>
    <path id="Path_6737" data-name="Path 6737" d="M263.914,245.055H270.5a.259.259,0,0,0,.237-.348l-1.375-2.366a.255.255,0,0,0-.237-.161h-6.272a.254.254,0,0,0-.246.317l1.054,2.362A.254.254,0,0,0,263.914,245.055Z" transform="translate(-1919.372 8161.154)" fill="#455a64"/>
    <path id="Path_6738" data-name="Path 6738" d="M112.205,275.864h-7.442c-.241,0-.406-.178-.321-.348l.987-2.362a.344.344,0,0,1,.317-.165h7.018c.223,0,.384.156.33.317l-.554,2.366a.344.344,0,0,1-.335.192Z" transform="translate(-1831.805 8144.099)" fill="#fff"/>
    <path id="Path_6739" data-name="Path 6739" d="M112.205,274.874h-7.442c-.241,0-.406-.179-.321-.344l.987-2.366a.353.353,0,0,1,.317-.165h7.018c.223,0,.384.156.33.317l-.554,2.366A.348.348,0,0,1,112.205,274.874Z" transform="translate(-1831.805 8144.646)" fill="#455a64"/>
    <path id="Path_6740" data-name="Path 6740" d="M137.178,275.864h-7.049c-.237,0-.4-.179-.317-.348l.585-2.362a.353.353,0,0,1,.321-.165h7.013c.223,0,.388.156.335.317l-.558,2.366A.335.335,0,0,1,137.178,275.864Z" transform="translate(-1845.849 8144.099)" fill="#fff"/>
    <path id="Path_6741" data-name="Path 6741" d="M137.178,274.874h-7.049c-.237,0-.4-.179-.317-.344l.585-2.366a.362.362,0,0,1,.321-.165h7.013c.223,0,.388.156.335.317l-.558,2.366A.335.335,0,0,1,137.178,274.874Z" transform="translate(-1845.849 8144.646)" fill="#455a64"/>
    <path id="Path_6742" data-name="Path 6742" d="M217.495,275.864h-62.6c-.241,0-.406-.179-.321-.348l.348-2.362a.34.34,0,0,1,.317-.165h61.449c.223,0,.388.156.335.317l.8,2.362A.335.335,0,0,1,217.495,275.864Z" transform="translate(-1859.556 8144.099)" fill="#fff"/>
    <path id="Path_6743" data-name="Path 6743" d="M217.495,274.874h-62.6c-.241,0-.406-.179-.321-.344l.348-2.366a.348.348,0,0,1,.317-.165h61.449c.223,0,.388.156.335.317l.8,2.366A.335.335,0,0,1,217.495,274.874Z" transform="translate(-1859.556 8144.647)" fill="#455a64"/>
    <path id="Path_6744" data-name="Path 6744" d="M302.7,275.87h7.143a.259.259,0,0,0,.241-.348l-.893-2.362a.246.246,0,0,0-.241-.161h-7.044a.254.254,0,0,0-.246.317l.795,2.362A.259.259,0,0,0,302.7,275.87Z" transform="translate(-1940.99 8144.093)" fill="#fff"/>
    <path id="Path_6745" data-name="Path 6745" d="M302.7,274.875h7.143a.254.254,0,0,0,.241-.344l-.893-2.366a.25.25,0,0,0-.241-.165h-7.044a.254.254,0,0,0-.246.317l.795,2.366A.259.259,0,0,0,302.7,274.875Z" transform="translate(-1940.99 8144.646)" fill="#455a64"/>
    <path id="Path_6746" data-name="Path 6746" d="M203.917,297.982H158.084a2.522,2.522,0,0,1-2.487-2.937l.817-4.937A2.522,2.522,0,0,1,158.883,288h44.2a2.522,2.522,0,0,1,2.487,2.112l.817,4.937a2.522,2.522,0,0,1-2.464,2.933Z" transform="translate(-1860.117 8135.789)" fill="#5f6d74"/>
    <path id="Path_6747" data-name="Path 6747" d="M160.43,288.279h46.53a2.232,2.232,0,0,0-1.165-.29H161.577A2.29,2.29,0,0,0,160.43,288.279Z" transform="translate(-1862.811 8135.795)" fill="#263238"/>
    <circle id="Ellipse_216" data-name="Ellipse 216" cx="1.156" cy="1.156" r="1.156" transform="translate(-1648.905 8340.001)" fill="#fff"/>
    <path id="Path_6748" data-name="Path 6748" d="M292.332,101.466a1.156,1.156,0,1,1-1.156-1.156A1.156,1.156,0,0,1,292.332,101.466Z" transform="translate(-1934.55 8239.69)" fill="#fff"/>
    <circle id="Ellipse_217" data-name="Ellipse 217" cx="1.156" cy="1.156" r="1.156" transform="translate(-1640.16 8340.001)" fill="#fff"/>
    <path id="Path_6749" data-name="Path 6749" d="M133.07,130.988a4.491,4.491,0,0,1,1.085-1.045c.857-.652.951-2.339,2.232-2.344.933,0,.558.92,1.036,2.728a13.961,13.961,0,0,1,1.085,3.071C138.494,133.4,137.083,130.9,133.07,130.988Z" transform="translate(-1847.665 8224.584)" fill="#f4babd"/>
    <path id="Path_6750" data-name="Path 6750" d="M111.458,128.13c-.79-.518-1.12-3.464-.129-3.9s1.339,1.174,1.705,1.9c.446.893,1.879,3.4,3.478,3.228A8.509,8.509,0,0,1,111.458,128.13Z" transform="translate(-1835.29 8226.491)" fill="#f4babd"/>
    <path id="Path_6751" data-name="Path 6751" d="M115.648,127.1s-.214-1.125.835-1.192,1.125,2.125,2.1,3.094a4.727,4.727,0,0,0,1.741,1.192l-1.362.138S117.7,130.752,115.648,127.1Z" transform="translate(-1838.01 8225.521)" fill="#f4babd"/>
    <path id="Path_6752" data-name="Path 6752" d="M116.191,140.106s-.4-2.147-.522-2.629-.2-.683-1.442-.893a17.611,17.611,0,0,1-5.6-2.679c-1.259-1.031-1.652-2.406-1.219-3.1s1.786.87,3.263,1.446a9.151,9.151,0,0,0,4.4.571c1.339-.174,5.044-.585,6.946.295s2.772,2.134,2.344,3.808-.763,3.928-.763,3.928Z" transform="translate(-1833.366 8222.907)" fill="#f7cacc"/>
    <path id="Path_6753" data-name="Path 6753" d="M149,150.33c-2,1.022-2.728,2.143-5.067,6.411s-6.219,14.392-6.219,14.392l-3.549-19.325-8.964-.893s.089,19.955.339,24.843,3.125,9.96,7.9,10.46,13.343-8.558,13.343-8.558a73.454,73.454,0,0,0,2.576-9.652C150.132,163.548,149,150.33,149,150.33Z" transform="translate(-1843.308 8212.001)" fill="#dc2626"/>
    <path id="Path_6754" data-name="Path 6754" d="M179.465,141.738a57.981,57.981,0,0,0-5.928,2.857c-.607.567-3.272,9.6-3.866,13.1s.71,7.058,2.679,7.839l-2.714,15h34.557s.054-29.767.089-31.209-.054-2.808-2.464-4.3-5.9-2.634-8.589-5.045c0,0-6.335,7.143-9.268,7.143S179.465,141.738,179.465,141.738Z" transform="translate(-1867.847 8217.735)" fill="#dc2626"/>
    <path id="Path_6755" data-name="Path 6755" d="M168.8,166.21s-1.616,5.46-1.607,6.768-.17,5.553,2.8,7.08l-1.25,6.888-1.558,1.286s1.107-6.281.446-7.143-3.08-3.656-2.08-7.3A38.647,38.647,0,0,1,168.8,166.21Z" transform="translate(-1865.515 8203.21)" fill="#a2232f" opacity="0.5"/>
    <path id="Path_6756" data-name="Path 6756" d="M207.015,112.29s-1.076,7.973-.138,11.647c0,0-4.018,6.022-8.263,5.625s-2.437-5.044-2.437-5.044a17.856,17.856,0,0,0,.446-4.777,30.431,30.431,0,0,0,5.745-2.062C205.193,116.294,207.015,112.29,207.015,112.29Z" transform="translate(-1882.388 8233.059)" fill="#f7cacc"/>
    <path id="Path_6757" data-name="Path 6757" d="M193.781,139.4s-1.478,1.076-2.027,1.46c0,0-.326,10.9,1.223,11.294s8.844-8.482,10.339-10.232a31.518,31.518,0,0,0,2.179-2.83l-.871-.71s-4.562,4.674-8.085,4.205S193.781,139.4,193.781,139.4Z" transform="translate(-1880.136 8218.616)" fill="#f7cacc"/>
    <path id="Path_6758" data-name="Path 6758" d="M240.1,150.029c2.152.933,3.018,2.022,5.888,6.219s8.036,14.312,8.036,14.312l1.437-19.781,9.205-1.339s2.232,20.4,2.54,25.406-2.107,10.268-7.022,10.928S242.137,176,242.137,176a38.767,38.767,0,0,1-2.054-8.585C239.5,162.806,240.1,150.029,240.1,150.029Z" transform="translate(-1906.765 8212.493)" fill="#dc2626"/>
    <path id="Path_6759" data-name="Path 6759" d="M197.518,126.293s4.464.237,7.263-2.183c0,0-3.045,4.54-7.4,5.143,0,0,.147-1.089.161-1.62S197.518,126.293,197.518,126.293Z" transform="translate(-1883.266 8226.516)" fill="#f7cacc"/>
    <path id="Path_6760" data-name="Path 6760" d="M233.578,49.288a8.482,8.482,0,0,1-8.232,9.1,9.058,9.058,0,0,1-9.308-8.46,8.482,8.482,0,0,1,8.192-9.018,9.062,9.062,0,0,1,9.348,8.375Z" transform="translate(-1893.586 8272.575)" fill="#263238"/>
    <path id="Path_6761" data-name="Path 6761" d="M192.786,67.838c-3.973-.2-8.977,2.638-10.384,10.741s-1.562,15.562,4.312,16.388,11.335-1.5,12.437-7.29S201.861,68.284,192.786,67.838Z" transform="translate(-1874.525 8257.672)" fill="#f7cacc"/>
    <path id="Path_6762" data-name="Path 6762" d="M193.8,65.9c-5.281.067-12.861.125-15.178,2.522a8.968,8.968,0,0,0-2.442,5.7c-.071.58.147,1.366,1.87,1.491s4.741-1.629,5.745-3.3c0,0-.384,2.732,1.5,3.451s5.357.6,6.7.754,2.085-2.8,2.21-4.17c0,0-.295,7.143,1.679,7.589,0,0-.862,6.321.295,6.7s4.08-.719,6.027-4.236,1.339-9.763.571-12.08S198.885,65.831,193.8,65.9Z" transform="translate(-1871.521 8258.741)" fill="#263238"/>
    <path id="Path_6763" data-name="Path 6763" d="M186.5,112.21l6.763.371a4.066,4.066,0,0,1-3.772,2.214A3.277,3.277,0,0,1,186.5,112.21Z" transform="translate(-1877.243 8233.104)" fill="#fff"/>
    <path id="Path_6764" data-name="Path 6764" d="M193.134,98.44c-.594,1.071-1.531,3.37-1.094,3.946s1.339.312,1.339.312" transform="translate(-1880.248 8240.726)" fill="none" stroke="#f7cacc" stroke-linecap="round" stroke-miterlimit="10" stroke-width="0.67"/>
    <path id="Path_6765" data-name="Path 6765" d="M202.1,98.615c-.027.594-.312,1.054-.638,1.031s-.558-.522-.531-1.116.317-1.058.638-1.031S202.128,98.021,202.1,98.615Z" transform="translate(-1885.229 8241.248)" fill="#263238"/>
    <path id="Path_6766" data-name="Path 6766" d="M200.6,94.865a1.7,1.7,0,0,1,1.924.326" transform="translate(-1885.049 8242.797)" fill="none" stroke="#263238" stroke-linecap="round" stroke-miterlimit="10" stroke-width="1"/>
    <path id="Path_6767" data-name="Path 6767" d="M223.164,94.459c-.446,3.219-2.879,5.513-5.419,5.116s-4.219-3.317-3.759-6.518,2.875-5.469,5.4-5.089S223.611,91.254,223.164,94.459Z" transform="translate(-1892.417 8246.546)" fill="#445963"/>
    <path id="Path_6768" data-name="Path 6768" d="M224.721,94.589c-.446,3.219-2.594,5.558-4.79,5.214s-3.571-3.219-3.125-6.424,2.594-5.513,4.772-5.187S225.167,91.384,224.721,94.589Z" transform="translate(-1893.974 8246.416)" fill="#fff"/>
    <path id="Path_6769" data-name="Path 6769" d="M209.407,75.3s0-9.58-8.352-9.977l-3.085.2a10.267,10.267,0,0,1,5.678-.732,7.887,7.887,0,0,1,6.486,4.683,18.893,18.893,0,0,1,.446,5.62,1.518,1.518,0,0,1-1.174.205Z" transform="translate(-1883.593 8259.423)" fill="#dee1eb"/>
    <path id="Path_6770" data-name="Path 6770" d="M209.278,112.524s-.29,2.442-.509,3.6-1.786,1.594-4.2,1.522-4.486-.246-4.486-.246a.9.9,0,0,1,.893-1.281s4.513.388,5.674.353,1.339-2.4,1.4-4.728C208.041,111.743,208.778,111.381,209.278,112.524Z" transform="translate(-1884.722 8233.392)" fill="#dee1eb"/>
    <path id="Path_6771" data-name="Path 6771" d="M188.944,118.979c1.786.174,4.464.237,4.75,1.147s-.129,1.759-1.973,1.853a18.848,18.848,0,0,1-4.183-.42C186.877,121.483,186.052,118.72,188.944,118.979Z" transform="translate(-1877.464 8229.365)" fill="#263238"/>
    <path id="Path_6772" data-name="Path 6772" d="M188.4,98.155c-.031.594-.317,1.058-.638,1.036s-.562-.527-.531-1.121.317-1.054.638-1.031S188.427,97.561,188.4,98.155Z" transform="translate(-1877.644 8241.502)" fill="#263238"/>
    <path id="Path_6773" data-name="Path 6773" d="M186.9,94.408a1.7,1.7,0,0,1,1.924.33" transform="translate(-1877.465 8243.048)" fill="none" stroke="#263238" stroke-linecap="round" stroke-miterlimit="10" stroke-width="1"/>
    <path id="Path_6774" data-name="Path 6774" d="M243.97,209.667l-.951-.737-1.629,9.794,2.562-.022Z" transform="translate(-1907.629 8179.561)" fill="#a2232f" opacity="0.5"/>
    <path id="Path_6775" data-name="Path 6775" d="M300.327,124.452c.772-.576.777-3.616-.317-4.018s-1.277,1.281-1.567,2.049c-.348.92-1.571,3.571-3.263,3.491A8.763,8.763,0,0,0,300.327,124.452Z" transform="translate(-1937.407 8228.584)" fill="#f4babd"/>
    <path id="Path_6776" data-name="Path 6776" d="M296.871,123.68s.094-1.17-1.013-1.17-.929,2.232-1.839,3.277a4.62,4.62,0,0,1-1.679,1.339l1.433.067S295.148,127.528,296.871,123.68Z" transform="translate(-1935.834 8227.401)" fill="#f4babd"/>
    <path id="Path_6777" data-name="Path 6777" d="M278.669,128.751a5.079,5.079,0,0,0-1.25-1c-.96-.616-1.254-2.33-2.567-2.263-.969.054-.473.969-.759,2.83a13.654,13.654,0,0,0-.763,3.178C273.33,131.519,274.522,128.889,278.669,128.751Z" transform="translate(-1925.311 8225.754)" fill="#f4babd"/>
    <path id="Path_6778" data-name="Path 6778" d="M282.051,137.118s.165-2.232.237-2.71.129-.71,1.4-.991a17.113,17.113,0,0,0,5.558-3.058c1.2-1.143,1.46-2.562.924-3.25s-1.786.991-3.263,1.67a9.575,9.575,0,0,1-4.553.826c-1.406-.1-5.317-.312-7.187.688s-2.616,2.317-1.982,3.991,1.241,3.951,1.241,3.951Z" transform="translate(-1925.108 8224.945)" fill="#f7cacc"/>
    <path id="Path_6779" data-name="Path 6779" d="M140.283,3.018A3.022,3.022,0,0,0,137.26,0H104.252a3.022,3.022,0,0,0-3.022,3.018V18.008a3.018,3.018,0,0,0,3.022,3.018h30.7l5.357,4.571Z" transform="translate(-1830.039 8295.221)" fill="#dc2626"/>
    <path id="Path_6781" data-name="Path 6781" d="M168.417,3.853a.763.763,0,1,1-.763-.763A.763.763,0,0,1,168.417,3.853Z" transform="translate(-1866.387 8293.51)" fill="#fff"/>
    <circle id="Ellipse_218" data-name="Ellipse 218" cx="0.763" cy="0.763" r="0.763" transform="translate(-1696.538 8296.601)" fill="#fff"/>
    <circle id="Ellipse_219" data-name="Ellipse 219" cx="0.763" cy="0.763" r="0.763" transform="translate(-1693.578 8296.601)" fill="#fff"/>
    <rect id="Rectangle_1819" data-name="Rectangle 1819" width="10.571" height="11.75" transform="translate(-1726.47 8301.729)" fill="#fff"/>
    <path id="Path_6782" data-name="Path 6782" d="M156.366,16.361H136.491a.5.5,0,0,1-.491-.5h0a.5.5,0,0,1,.5-.5H156.37a.5.5,0,0,1,.5.5h0a.5.5,0,0,1-.5.5Z" transform="translate(-1849.287 8286.712)" fill="#fff"/>
    <path id="Path_6783" data-name="Path 6783" d="M156.366,22.864H136.491a.5.5,0,0,1-.491-.473h0a.5.5,0,0,1,.5-.491H156.37a.491.491,0,0,1,.5.491h0A.5.5,0,0,1,156.366,22.864Z" transform="translate(-1849.287 8283.098)" fill="#fff"/>
    <path id="Path_6784" data-name="Path 6784" d="M143.82,29.307h-7.335a.5.5,0,0,1-.5-.491h0a.5.5,0,0,1,.5-.5h7.335a.5.5,0,0,1,.491.5h0A.491.491,0,0,1,143.82,29.307Z" transform="translate(-1849.282 8279.543)" fill="#fff"/>
    <path id="Path_6785" data-name="Path 6785" d="M165.035,35.771H152.156a.5.5,0,0,1-.5-.5h0a.5.5,0,0,1,.5-.5h12.879a.5.5,0,0,1,.5.5h0A.5.5,0,0,1,165.035,35.771Z" transform="translate(-1857.956 8275.967)" fill="#fff"/>
    <path id="Path_6786" data-name="Path 6786" d="M308.551,16.63h-29.33a2.862,2.862,0,0,0-2.862,2.844V39.92l6.089-4.821h26.093a2.862,2.862,0,0,0,2.862-2.857V19.474A2.862,2.862,0,0,0,308.551,16.63Z" transform="translate(-1926.988 8286.015)" fill="#dc2626"/>
    <path id="Path_6787" data-name="Path 6787" d="M311.7,26.887H283.686a.5.5,0,0,1-.5-.491h0a.5.5,0,0,1,.5-.5H311.7a.5.5,0,0,1,.5.491h0A.5.5,0,0,1,311.7,26.887Z" transform="translate(-1930.769 8280.883)" fill="#fff"/>
    <path id="Path_6788" data-name="Path 6788" d="M311.7,33.777H283.686a.5.5,0,0,1-.5-.5h0a.5.5,0,0,1,.5-.491H311.7a.5.5,0,0,1,.5.491h0A.5.5,0,0,1,311.7,33.777Z" transform="translate(-1930.769 8277.068)" fill="#fff"/>
    <path id="Path_6789" data-name="Path 6789" d="M311.7,40.641H283.686a.5.5,0,0,1-.5-.5h0a.5.5,0,0,1,.5-.5H311.7a.5.5,0,0,1,.5.5h0A.5.5,0,0,1,311.7,40.641Z" transform="translate(-1930.769 8273.271)" fill="#fff"/>
    <path id="Path_6790" data-name="Path 6790" d="M297.444,47.517H283.686a.5.5,0,0,1-.5-.491h0a.5.5,0,0,1,.5-.5h13.759a.5.5,0,0,1,.5.5h0A.5.5,0,0,1,297.444,47.517Z" transform="translate(-1930.769 8269.463)" fill="#fff"/>
    <path id="Path_6791" data-name="Path 6791" d="M117,78.357c0-.129,1.125-4.937,6.951-4.937,3.92,0,7.419,2.558,7.419,6.25,0,2.558-1.906,4.129-4.415,5.2-.893.388-.893,1.121-.893,1.982v1.464h-4.308V85.464c0-1.147.049-2.089,1.228-2.848,1.594-1.018,3.08-1.1,3.08-2.951a2.08,2.08,0,0,0-2.116-2.143,3.283,3.283,0,0,0-3.08,2.679Zm9.879,14.424a1.245,1.245,0,1,1,.009,0Z" transform="translate(-1838.769 8254.576)" fill="#dc2626"/>
    <path id="Path_6792" data-name="Path 6792" d="M39.963,94.69H2.464A2.451,2.451,0,0,0,0,97.141V108.27a2.446,2.446,0,0,0,2.451,2.446h36.3l3.656,4.393V97.141a2.446,2.446,0,0,0-2.446-2.451Z" transform="translate(-1774 8242.802)" fill="#dc2626"/>
    <path id="Path_6794" data-name="Path 6794" d="M42.315,109.311H6.8a.6.6,0,0,1-.6-.6h0a.6.6,0,0,1,.6-.6H42.315a.607.607,0,0,1,.6.6h0A.6.6,0,0,1,42.315,109.311Z" transform="translate(-1777.432 8235.373)" fill="#fff"/>
    <path id="Path_6795" data-name="Path 6795" d="M42.315,115.426H6.8a.6.6,0,0,1-.6-.6h0a.6.6,0,0,1,.6-.6H42.315a.6.6,0,0,1,.6.6h0A.6.6,0,0,1,42.315,115.426Z" transform="translate(-1777.432 8231.985)" fill="#fff"/>
    <path id="Path_6796" data-name="Path 6796" d="M42.315,121.511H6.8a.6.6,0,0,1-.6-.6h0a.6.6,0,0,1,.6-.6H42.315a.6.6,0,0,1,.6.6h0A.6.6,0,0,1,42.315,121.511Z" transform="translate(-1777.432 8228.619)" fill="#fff"/>
    <rect id="Rectangle_1820" data-name="Rectangle 1820" width="31.87" height="13.629" rx="5.17" transform="translate(-1754.255 8365.741)" fill="#c72032"/>
    <rect id="Rectangle_1821" data-name="Rectangle 1821" width="30.571" height="13.629" rx="5.07" transform="translate(-1752.956 8365.741)" fill="#dc2626"/>
    <path id="Path_6797" data-name="Path 6797" d="M47.14,163s7.062,11.37,25.446,11.37H49.31a2.156,2.156,0,0,1-2.156-2.156Z" transform="translate(-1800.096 8204.986)" fill="#c72032"/>
    <path id="Path_6799" data-name="Path 6799" d="M57.84,172.22v-6.04h1.223v2.375h2.388V166.18H62.67v6.04H61.452v-2.643H59.063v2.643Z" transform="translate(-1806.019 8203.227)" fill="#fff"/>
    <path id="Path_6800" data-name="Path 6800" d="M71.49,172.22v-6.04h4.464V167.2H72.7v1.339h3.04v1.018H72.709V171.2h3.375v1.018Z" transform="translate(-1813.576 8203.227)" fill="#fff"/>
    <path id="Path_6801" data-name="Path 6801" d="M84.17,172.281V166.29h1.219v4.973h3.036v1.018Z" transform="translate(-1820.595 8203.165)" fill="#fff"/>
    <path id="Path_6802" data-name="Path 6802" d="M95.64,172.214v-6.04h1.946a7.345,7.345,0,0,1,1.451.089,1.594,1.594,0,0,1,.893.589,1.888,1.888,0,0,1,.348,1.179,2,2,0,0,1-.2.937,1.674,1.674,0,0,1-.513.594,1.786,1.786,0,0,1-.634.286,6.843,6.843,0,0,1-1.263.089h-.8v2.277Zm1.223-5.018v1.714h.665a2.99,2.99,0,0,0,.964-.1.8.8,0,0,0,.384-.295.83.83,0,0,0,.138-.469.777.777,0,0,0-.2-.545.835.835,0,0,0-.491-.268,5.962,5.962,0,0,0-.893-.04Z" transform="translate(-1826.945 8203.232)" fill="#fff"/>
    <rect id="Rectangle_1822" data-name="Rectangle 1822" width="22.923" height="42.477" rx="4.64" transform="translate(-1754.402 8383.531)" fill="#263238"/>
    <rect id="Rectangle_1823" data-name="Rectangle 1823" width="18.062" height="35.039" transform="translate(-1751.974 8385.99)" fill="#eaeaea"/>
    <path id="Path_6803" data-name="Path 6803" d="M49.34,246.49S67.4,232.732,67.4,218v28.477Z" transform="translate(-1801.314 8174.54)" fill="#e0e0e0"/>
    <path id="Path_6804" data-name="Path 6804" d="M69.172,285.426a1.656,1.656,0,1,1-1.656-1.656A1.656,1.656,0,0,1,69.172,285.426Z" transform="translate(-1810.459 8138.13)" fill="#5f6d74" opacity="0.5"/>
    <circle id="Ellipse_220" data-name="Ellipse 220" cx="6.134" cy="6.134" r="6.134" transform="translate(-1749.076 8390.509)" fill="#dc2626"/>
    <path id="Path_6805" data-name="Path 6805" d="M58.048,267.844a2.134,2.134,0,1,1-2.134-2.134A2.134,2.134,0,0,1,58.048,267.844Z" transform="translate(-1803.772 8148.128)" fill="#445963"/>
    <path id="Path_6806" data-name="Path 6806" d="M80.928,267.844a2.134,2.134,0,1,1-2.134-2.134A2.134,2.134,0,0,1,80.928,267.844Z" transform="translate(-1816.438 8148.128)" fill="#445963"/>
    <path id="Path_6807" data-name="Path 6807" d="M59,213.964a4.393,4.393,0,0,1,4.58-3.254c2.58,0,4.911,1.687,4.911,4.116,0,1.687-1.254,2.719-2.911,3.428-.585.254-.6.737-.6,1.308v.964H62.125v-1.879a1.866,1.866,0,0,1,.808-1.875c1.049-.674,2.031-.723,2.031-1.946a1.375,1.375,0,0,0-1.393-1.415A2.163,2.163,0,0,0,61.54,215.2Zm6.509,9.5a1,1,0,1,0-.013,0Z" transform="translate(-1806.661 8178.575)" fill="#fff"/>
    <path id="Path_6808" data-name="Path 6808" d="M323.954,228.418h0a2.527,2.527,0,0,1-3.571-.29L305.62,210.771l3.853-3.281,14.763,17.361A2.531,2.531,0,0,1,323.954,228.418Z" transform="translate(-1943.186 8180.358)" fill="#263238"/>
    <path id="Path_6809" data-name="Path 6809" d="M336.382,243.033h0a2.527,2.527,0,0,1-3.571-.29l-4.741-5.576,3.853-3.277,4.741,5.576A2.531,2.531,0,0,1,336.382,243.033Z" transform="translate(-1955.614 8165.743)" fill="#1a2124" opacity="0.5"/>
    <path id="Path_6810" data-name="Path 6810" d="M310.6,208.824a7.222,7.222,0,0,1-1.634,1.987,8.036,8.036,0,0,1-2.232,1.29l-1.138-1.339,3.853-3.281Z" transform="translate(-1943.175 8180.363)" fill="#1a2124" opacity="0.5"/>
    <circle id="Ellipse_221" data-name="Ellipse 221" cx="10.897" cy="10.897" r="10.897" transform="matrix(0.615, -0.789, 0.789, 0.615, -1659.075, 8381.806)" fill="#c2d7ef" opacity="0.5"/>
    <path id="Path_6811" data-name="Path 6811" d="M285.212,164.077a13.567,13.567,0,1,0-1.549,19.129A13.567,13.567,0,0,0,285.212,164.077Zm-3.281,17.1a10.9,10.9,0,1,1,1.245-15.361A10.9,10.9,0,0,1,281.931,181.175Z" transform="translate(-1918.658 8207.035)" fill="#263238"/>
    <path id="Path_6812" data-name="Path 6812" d="M276.511,170.865c-1.634,1.054-2.875,3.241-2.482,4.223s2.022.621,4.433-1.411,3.982-1.219,5.169-2.205S280.909,168.039,276.511,170.865Z" transform="translate(-1925.657 8201.363)" fill="#c2d7ef" opacity="0.5"/>
    <path id="Path_6813" data-name="Path 6813" d="M300.07,173.784c-.589.964.446,2.2,1.737,3.3a1.349,1.349,0,0,0,2.054-1.745C302.989,173.789,300.878,172.454,300.07,173.784Z" transform="translate(-1940.02 8199.318)" fill="#c2d7ef" opacity="0.5"/>
    <path id="Path_6814" data-name="Path 6814" d="M288.716,114.45h-6.741a.375.375,0,0,0-.375.375v2.009a3.741,3.741,0,0,0,3.009,3.67v.576a.777.777,0,0,0,1.549,0v-.58a3.745,3.745,0,0,0,2.933-3.652v-2.009a.379.379,0,0,0-.375-.388Z" transform="translate(-1929.889 8231.863)" fill="#263238"/>
    <path id="Path_6815" data-name="Path 6815" d="M287.92,80.145a8.705,8.705,0,1,0-17.41,0c0,3.013,1.71,5.428,3.857,7.227A4.1,4.1,0,0,1,275.9,90.64h6.616a4.1,4.1,0,0,1,1.536-3.268C286.21,85.574,287.92,83.158,287.92,80.145Z" transform="translate(-1923.75 8255.673)" fill="#dc2626"/>
    <line id="Line_144" data-name="Line 144" x2="1.393" y2="7.661" transform="translate(-1647.311 8338.652)" fill="none" stroke="#fff" stroke-miterlimit="10" stroke-width="0.68"/>
    <line id="Line_145" data-name="Line 145" x1="1.393" y2="7.661" transform="translate(-1643.405 8338.652)" fill="none" stroke="#fff" stroke-miterlimit="10" stroke-width="0.68"/>
    <path id="Path_6816" data-name="Path 6816" d="M280.12,93.841a2.232,2.232,0,0,0,1.674,1.089,2.7,2.7,0,0,0,2.232-1.482c.33-.589.085-2.112-.893-2.058s-1.308,1.589-.446,2.5,2.362,1.5,3.83-.272-.04-3.094-.848-2.272-.585,3.406,2.634,3.223" transform="translate(-1929.07 8244.794)" fill="none" stroke="#fff" stroke-miterlimit="10" stroke-width="0.68"/>
  </g>
</svg>
