<svg id="OBJECTS" xmlns="http://www.w3.org/2000/svg" width="151.329" height="146.695" viewBox="0 0 151.329 146.695">
  <path id="Path_6817" data-name="Path 6817" d="M399.795,589.5l-.165-.173,1.035-.987.165.173Zm2.064-1.981-.168-.17c.337-.331.674-.668,1-1.015l.172.165C402.538,586.843,402.2,587.186,401.859,587.518Zm1.986-2.067-.175-.161c.316-.347.634-.707.947-1.068l.18.156c-.313.359-.632.724-.95,1.073Zm1.874-2.169-.184-.152c.3-.362.6-.737.892-1.114l.191.147c-.3.38-.6.754-.9,1.119Zm1.766-2.259-.191-.142c.279-.377.562-.763.839-1.155l.191.137C408.051,580.255,407.771,580.645,407.485,581.023Zm1.659-2.336-.2-.134q.4-.592.789-1.191l.2.13q-.388.6-.791,1.195Zm13.065-1.654a3.491,3.491,0,0,1-1.285-.244l.089-.221a3.25,3.25,0,0,0,1.2.227c.059,0,.1,0,.155,0l.011.237c-.057,0-.123,0-.168,0Zm1.583-.407-.119-.206a2.6,2.6,0,0,0,.954-.96l.207.118A2.829,2.829,0,0,1,423.792,576.626Zm-13.087-.344-.2-.127q.377-.607.741-1.221l.205.122q-.366.622-.744,1.225Zm9.011-.332a4.184,4.184,0,0,1-.785-1.24l.22-.1a3.945,3.945,0,0,0,.739,1.167Zm5.506-1.793h-.238v-.064a2.479,2.479,0,0,0-.21-1.012c-.036-.08-.076-.157-.119-.233l.208-.118c.047.082.089.166.128.253a2.71,2.71,0,0,1,.232,1.105Zm-12.96-.25-.183-.154a9.113,9.113,0,0,1,1.017-1.032l.155.18A8.869,8.869,0,0,0,412.263,573.907Zm6.294-.606a5.9,5.9,0,0,1-.041-.69,6.132,6.132,0,0,1,.049-.763l.236.03a6.025,6.025,0,0,0-.047.737,5.412,5.412,0,0,0,.04.661Zm-4.172-1.234-.121-.2a9.666,9.666,0,0,1,1.284-.668l.1.218a9.609,9.609,0,0,0-1.254.653Zm9.351-.245a5.207,5.207,0,0,0-1.218-.679l.089-.221a5.491,5.491,0,0,1,1.281.71Zm-6.765-.871-.062-.231a10.32,10.32,0,0,1,1.418-.279l.03.237a9.883,9.883,0,0,0-1.382.274Zm4.2-.2a8.639,8.639,0,0,0-1.4-.147l.006-.238a8.9,8.9,0,0,1,1.447.152Zm-2.038-.24-.219-.08a7.213,7.213,0,0,1,.629-1.309l.2.125a6.919,6.919,0,0,0-.608,1.265Zm1.458-2.384-.175-.162c.07-.075.141-.149.214-.22A7.749,7.749,0,0,1,421.5,567l.141.191a7.556,7.556,0,0,0-.846.719c-.072.076-.14.147-.207.219Zm2.256-1.662-.1-.214a8.869,8.869,0,0,1,1.346-.535l.07.228a8.585,8.585,0,0,0-1.31.521Zm2.689-.876-.059-.231c.466-.119.93-.244,1.378-.371l.065.229c-.445.128-.911.256-1.379.373Zm2.763-.784-.072-.227c.46-.145.915-.3,1.354-.449l.078.225C429.215,564.51,428.758,564.662,428.3,564.807ZM431,563.86l-.086-.222c.446-.173.89-.355,1.319-.54l.1.218C431.9,563.5,431.452,563.686,431,563.86Zm2.634-1.138-.1-.215,1.286-.625.1.215Zm2.575-1.25-.1-.215,1.286-.626.1.215Zm2.575-1.251-.1-.214,1.286-.626.1.215Zm2.575-1.25-.1-.215,1.282-.625.1.215Zm2.575-1.251-.1-.215,1.286-.625.1.214Z" transform="translate(-361.52 -503.775)" fill="#263238"/>
  <path id="Path_6818" data-name="Path 6818" d="M818.068,9.613a1.223,1.223,0,0,0,.006.145h31.352a4.967,4.967,0,0,0-5.09-4.657,5.329,5.329,0,0,0-2.439.585A5.56,5.56,0,0,0,839.187.715a5.756,5.756,0,0,0-7.8,2.349,6.26,6.26,0,0,0-.824,2.7,11.331,11.331,0,0,0-4.673-.954C821.569,4.811,818.068,6.962,818.068,9.613Z" transform="translate(-740.054 0)" fill="#dc2626"/>
  <path id="Path_6819" data-name="Path 6819" d="M25.853,791.492H0v-.1a4.135,4.135,0,0,1,4.259-3.9,4.488,4.488,0,0,1,1.907.425,4.652,4.652,0,0,1,2.265-4.005,4.5,4.5,0,0,1,3.444-.436,5.042,5.042,0,0,1,3.07,2.393,5.217,5.217,0,0,1,.676,2.122,9.413,9.413,0,0,1,3.747-.736c3.582,0,6.5,1.805,6.5,4.023a1.181,1.181,0,0,1,0,.13ZM.191,791.313h25.5v-.03c0-2.12-2.833-3.844-6.317-3.844a9.172,9.172,0,0,0-3.789.771l-.118.054-.009-.13a5,5,0,0,0-.668-2.171,4.863,4.863,0,0,0-2.956-2.31,4.319,4.319,0,0,0-3.308.419,4.486,4.486,0,0,0-2.175,3.993v.15l-.134-.069a4.292,4.292,0,0,0-1.957-.469A3.954,3.954,0,0,0,.191,791.313Z" transform="translate(0 -708.617)" fill="#263238"/>
  <path id="Path_6829" data-name="Path 6829" d="M866.91,492.868H805.634a5.643,5.643,0,0,1-5.634-5.64v-37.4h72.549v37.4A5.642,5.642,0,0,1,866.91,492.868Zm-66.675-42.8v37.16a5.4,5.4,0,0,0,5.4,5.4H866.91a5.4,5.4,0,0,0,5.4-5.4v-37.16Z" transform="translate(-723.71 -406.933)" fill="#263238"/>
  <path id="Path_6830" data-name="Path 6830" d="M868.014,299.62H806.738a5.517,5.517,0,0,0-5.518,5.518v8.926h72.311v-8.927a5.516,5.516,0,0,0-5.518-5.517Z" transform="translate(-724.814 -271.047)" fill="#fff"/>
  <path id="Path_6831" data-name="Path 6831" d="M872.546,313.043H800V304a5.644,5.644,0,0,1,5.637-5.637h61.276A5.642,5.642,0,0,1,872.549,304Zm-72.311-.238h72.072V304a5.4,5.4,0,0,0-5.4-5.4H805.634a5.4,5.4,0,0,0-5.4,5.4Z" transform="translate(-723.71 -269.908)" fill="#263238"/>
  <circle id="Ellipse_224" data-name="Ellipse 224" cx="3.025" cy="3.025" r="3.025" transform="translate(80.121 38.154) rotate(-78.53)" fill="#dc2626"/>
  <circle id="Ellipse_225" data-name="Ellipse 225" cx="3.025" cy="3.025" r="3.025" transform="translate(88.323 35.794) rotate(-45)" fill="#fff"/>
  <path id="Path_6832" data-name="Path 6832" d="M941.147,348.614a3.147,3.147,0,1,1,3.147-3.147A3.147,3.147,0,0,1,941.147,348.614Zm0-6.05a2.906,2.906,0,1,0,2.906,2.906A2.906,2.906,0,0,0,941.147,342.564Z" transform="translate(-848.55 -309.676)" fill="#263238"/>
  <rect id="Rectangle_1825" data-name="Rectangle 1825" width="17.817" height="5.774" rx="2.887" transform="translate(100.694 32.908)" fill="#fff"/>
  <path id="Path_6833" data-name="Path 6833" d="M1068.694,349.86h-12.043a3.006,3.006,0,1,1,0-6.008h12.043a3.006,3.006,0,0,1,0,6.008Zm-12.043-5.773a2.766,2.766,0,0,0,0,5.531h12.043a2.766,2.766,0,0,0,0-5.531Z" transform="translate(-953.07 -311.06)" fill="#263238"/>
  <path id="Path_6842" data-name="Path 6842" d="M1148.44,1143.569h-1.43v-.237h1.43Zm-2.861,0h-1.43v-.237h1.43Zm-2.861,0h-1.43v-.237h1.43Zm-2.861,0h-1.431v-.237h1.431Zm-2.861,0h-1.43v-.237H1137Zm-2.861,0h-1.43v-.237h1.43Zm-2.861,0h-1.43v-.237h1.43Zm-2.861,0h-1.43v-.237h1.43Zm-2.861,0h-1.431v-.237h1.431Zm-2.861,0h-1.431v-.237h1.431Zm-2.861,0a4.52,4.52,0,0,1-1.441-.246l.077-.225a4.325,4.325,0,0,0,1.366.233Zm28.782,0-.01-.238a4.3,4.3,0,0,0,1.359-.272l.084.223a4.549,4.549,0,0,1-1.434.284Zm-31.513-.933a4.58,4.58,0,0,1-1.006-1.061l.2-.135a4.363,4.363,0,0,0,.954,1.006Zm34.215-.08-.151-.186a4.313,4.313,0,0,0,.925-1.032l.2.129a4.615,4.615,0,0,1-.973,1.086Zm-35.842-2.3a4.566,4.566,0,0,1-.174-1.252v-.191h.238V1139a4.324,4.324,0,0,0,.165,1.187Zm37.4-.125-.231-.059a4.363,4.363,0,0,0,.132-1.068v-.321h.238V1139a4.565,4.565,0,0,1-.141,1.124Zm-37.334-2.752h-.238v-1.431h.238Zm37.478-.127h-.238v-1.43h.238Zm-37.478-2.734h-.238v-1.431h.238Zm37.478-.127h-.238v-1.43h.238Zm-37.478-2.734h-.238v-1.431h.238Zm37.478-.127h-.238v-1.43h.238Zm-37.478-2.734h-.238v-1.43h.238Zm37.478-.127h-.238v-1.431h.238Zm-37.478-2.734h-.238v-1.43h.238Zm37.478-.127h-.238v-1.431h.238Zm-37.478-2.734h-.238v-.954a4.624,4.624,0,0,1,.026-.488l.237.024a4.488,4.488,0,0,0-.025.464Zm37.478-.127h-.238v-.827a4.451,4.451,0,0,0-.039-.586l.236-.032a4.8,4.8,0,0,1,.041.618Zm-37.084-2.627-.217-.1a4.581,4.581,0,0,1,.813-1.215l.175.162a4.305,4.305,0,0,0-.774,1.145Zm36.4-.111a4.345,4.345,0,0,0-.8-1.13l.171-.167a4.587,4.587,0,0,1,.847,1.192Zm-34.538-1.892-.114-.21a4.588,4.588,0,0,1,1.379-.487l.043.235a4.309,4.309,0,0,0-1.311.46Zm32.614-.058a4.316,4.316,0,0,0-1.319-.424l.035-.235a4.532,4.532,0,0,1,1.392.448Zm-2.729-.477h-1.43v-.238h1.43Zm-2.861,0h-1.43v-.238h1.43Zm-2.861,0h-1.431v-.238h1.431Zm-2.861,0h-1.431v-.238h1.431Zm-2.861,0h-1.43v-.238h1.43Zm-2.861,0h-1.43v-.238h1.43Zm-2.861,0h-1.43v-.238h1.43Zm-2.861,0h-1.43v-.238h1.43Zm-2.861,0h-1.431v-.238h1.431Zm-2.861,0h-1.43v-.238h1.43Z" transform="translate(-1008.942 -1010.968)" fill="#263238"/>
  <rect id="Rectangle_1827" data-name="Rectangle 1827" width="37.475" height="26.5" rx="13.25" transform="translate(102.933 101.968)" fill="#dc2626"/>
  <rect id="Rectangle_1828" data-name="Rectangle 1828" width="4.058" height="8.24" transform="translate(109.45 117.448)" fill="#fff"/>
  <rect id="Rectangle_1829" data-name="Rectangle 1829" width="4.058" height="7.976" transform="translate(116.245 117.713)" fill="#fff"/>
  <rect id="Rectangle_1830" data-name="Rectangle 1830" width="4.058" height="12.143" transform="translate(123.04 113.546)" fill="#fff"/>
  <rect id="Rectangle_1831" data-name="Rectangle 1831" width="4.058" height="15.704" transform="translate(129.835 109.984)" fill="#fff"/>
  <rect id="Rectangle_1832" data-name="Rectangle 1832" width="21.772" height="0.952" transform="translate(110.785 105.701)" fill="#fff"/>
  <path id="Path_6843" data-name="Path 6843" d="M419.52,735.779a11.3,11.3,0,0,0-4.155-5.966l-.8-.593.684,14.137,5.283-4.087Z" transform="translate(-375.026 -659.68)" fill="#dc2626"/>
  <path id="Path_6844" data-name="Path 6844" d="M442.984,848.2l-1.174-2.3a2.332,2.332,0,0,0-1.458-1.187l-3.453-.954-8.884-5.672-1-3.485-5.283,4.087.048.993a5.224,5.224,0,0,0,3.147,4.544l8.627,3.719,4.1.1c1.322.456,1.778,1.594,2.6,1.184.305-.153-.889-2.118-.889-2.118l1.982,2.187Z" transform="translate(-381.513 -755.01)" fill="#ffbc96"/>
  <rect id="Rectangle_1833" data-name="Rectangle 1833" width="1.794" height="0.274" transform="translate(45.237 84.358) rotate(-49.66)" fill="#d28572"/>
  <path id="Path_6845" data-name="Path 6845" d="M482.57,1031.529l6.464-.572a7.624,7.624,0,0,1,8.072,7.495l1.46,31.832-8.915.279Z" transform="translate(-436.551 -932.617)" fill="#2c3234"/>
  <path id="Path_6846" data-name="Path 6846" d="M564.34,1435.006l.274,8.792h13.211l-6.515-5.421-.41-4.237Z" transform="translate(-510.523 -1297.377)" fill="#263238"/>
  <rect id="Rectangle_1834" data-name="Rectangle 1834" width="3.508" height="0.546" transform="translate(57.839 142.929) rotate(-37.61)" fill="#fff"/>
  <path id="Path_6847" data-name="Path 6847" d="M532.81,1435.006l.273,8.792H546.3l-6.515-5.421-.41-4.237Z" transform="translate(-482 -1297.377)" fill="#39444a"/>
  <rect id="Rectangle_1835" data-name="Rectangle 1835" width="3.508" height="0.546" transform="translate(54.832 142.928) rotate(-37.61)" fill="#fff"/>
  <path id="Path_6848" data-name="Path 6848" d="M254.156,1034.8H243.222l-7.793-23.978-1.091-3.358-15.581-.068a4.34,4.34,0,0,1-2.67-1.119,6.34,6.34,0,0,1-2.118-5.737l1.375-9.751,23.147,3.01a10.394,10.394,0,0,1,8.838,8.19Z" transform="translate(-193.505 -896.306)" fill="#303f46"/>
  <path id="Path_6849" data-name="Path 6849" d="M431.392,1165.64,429.271,1169l-1.091-3.358Z" transform="translate(-387.348 -1054.482)" fill="#2c3234"/>
  <path id="Path_6850" data-name="Path 6850" d="M214.2,744.618c-.113.451-.23.9-.35,1.356l-.82,3.348-10.8-.448-7.774-.322a3.338,3.338,0,0,1-3.131-4.019l3.624-17.443a6.622,6.622,0,0,1,5.861-5.558l8.869-.913,2.869.82c2.808,1.5,2.808,4.228,2.94,6.014A49.366,49.366,0,0,1,214.2,744.618Z" transform="translate(-173.019 -651.9)" fill="#dc2626"/>
  <path id="Path_6851" data-name="Path 6851" d="M248.767,852.761c-.112.451,7.091,1.46,6.971,1.914l-.82,3.348-10.8-.448c-3.772-2.846-5.183-9.036-6.56-16.8Z" transform="translate(-214.906 -760.601)" fill="#1b1b43" opacity="0.3"/>
  <path id="Path_6852" data-name="Path 6852" d="M331.8,773.53a6.47,6.47,0,0,0,1.614,1.279,5.319,5.319,0,0,0,1.928.651,3.258,3.258,0,0,0,1.962-.286,2,2,0,0,0,1.049-1.612l.107.008a2.2,2.2,0,0,1-.272,1.04,2.072,2.072,0,0,1-.771.772,3.374,3.374,0,0,1-2.113.349,5.275,5.275,0,0,1-2-.726,5.678,5.678,0,0,1-1.58-1.41Z" transform="translate(-300.086 -699.764)" fill="#263238"/>
  <path id="Path_6853" data-name="Path 6853" d="M440.335,789.551l-.2-.014a46.786,46.786,0,0,0-.591-10.046l.2-.031A46.88,46.88,0,0,1,440.335,789.551Z" transform="translate(-397.624 -705.129)" fill="#263238"/>
  <rect id="Rectangle_1836" data-name="Rectangle 1836" width="10.16" height="2.005" transform="translate(50.901 94.12)" fill="#263238"/>
  <path id="Path_6854" data-name="Path 6854" d="M631.09,837.7H610.68l9.386-17.951h20.41Z" transform="translate(-552.444 -741.577)" fill="#263238"/>
  <path id="Path_6855" data-name="Path 6855" d="M249.916,558.161c-2.392-2.357-6.9-1.367-6.834,2.6-4.921,1.3-5.2,6.7-3.212,9.465l1.708.137.376-2.016.991,2.05,4.784.307Z" transform="translate(-215.952 -503.792)" fill="#263238"/>
  <path id="Path_6856" data-name="Path 6856" d="M331.913,662.57V670.1a1.724,1.724,0,0,1-.008.2,2.529,2.529,0,0,1-3.153,2.25,5.084,5.084,0,0,1-3.815-4.965l.038-5.016Z" transform="translate(-293.951 -599.386)" fill="#ffbc96"/>
  <path id="Path_6857" data-name="Path 6857" d="M351.4,689.817v4.276a1.717,1.717,0,0,1-.008.2c-2.015-.331-4.344-2.662-4.913-5.2Z" transform="translate(-313.439 -623.377)" fill="#263238"/>
  <path id="Path_6858" data-name="Path 6858" d="M335.384,605.1a13.59,13.59,0,0,1-.429,1.794c-.6,1.907-1.681,3.5-3.613,3.219-4.544-.65-7.072-5.33-7.072-5.33l3.108-3.554,2.086-2.8,6.252,2.7A23.553,23.553,0,0,1,335.384,605.1Z" transform="translate(-293.347 -541.353)" fill="#ffbc96"/>
  <path id="Path_6859" data-name="Path 6859" d="M309.038,571.583c1.994-.064,3.536-1.079,4.2-3.963,0,0,4.647,4.005,6.924,1.867,1.907-1.793-1.328-5.918-6.685-6.409a7.586,7.586,0,0,0-5.425,1.656c-2.6,2.08-2.845,6.919-.419,8.593Z" transform="translate(-276.771 -509.355)" fill="#263238"/>
  <path id="Path_6860" data-name="Path 6860" d="M313.318,568.369a2.124,2.124,0,0,1,.177-1.442,3.193,3.193,0,0,1,.936-1.152,3.3,3.3,0,0,1,1.335-.627,2.419,2.419,0,0,1,1.444.111,7.905,7.905,0,0,0-1.24.5,6.6,6.6,0,0,0-1.044.668,6.043,6.043,0,0,0-.895.846A4.973,4.973,0,0,0,313.318,568.369Z" transform="translate(-283.386 -511.198)" fill="#ffa121"/>
  <ellipse id="Ellipse_227" data-name="Ellipse 227" cx="1.554" cy="1.879" rx="1.554" ry="1.879" transform="translate(29.531 61.377) rotate(-21.82)" fill="#ffbc96"/>
  <path id="Path_6861" data-name="Path 6861" d="M326.861,649.4a2.217,2.217,0,0,0-.06-.937,2.556,2.556,0,0,0-.491-.8l.067-.083a1.365,1.365,0,0,1,.587,1.853Z" transform="translate(-295.192 -585.816)" fill="#263238"/>
  <path id="Path_6862" data-name="Path 6862" d="M401.6,651.291a.464.464,0,1,1-.462-.511A.488.488,0,0,1,401.6,651.291Z" transform="translate(-362.465 -588.72)" fill="#263238"/>
  <path id="Path_6863" data-name="Path 6863" d="M428.073,655.572a.413.413,0,1,1-.352-.5A.434.434,0,0,1,428.073,655.572Z" transform="translate(-386.513 -592.598)" fill="#263238"/>
  <path id="Path_6864" data-name="Path 6864" d="M392.311,639.4c.018.239-.363.261-.927.278s-.954.191-.954.04.412-.539.967-.633C391.967,638.991,392.289,639.118,392.311,639.4Z" transform="translate(-353.198 -578.114)" fill="#263238"/>
  <path id="Path_6865" data-name="Path 6865" d="M428.961,642.319c-.042.236.239.3.655.369s.685.286.706.135a1.014,1.014,0,0,0-.645-.725C429.275,641.946,429.01,642.04,428.961,642.319Z" transform="translate(-388.05 -580.801)" fill="#263238"/>
  <path id="Path_6866" data-name="Path 6866" d="M421.077,664.81a3.977,3.977,0,0,0,.347.36l.184.172a1.066,1.066,0,0,1,.191.218.382.382,0,0,1,.058.181.361.361,0,0,1-.045.191.689.689,0,0,1-.22.222,1.376,1.376,0,0,1-.511.185l-.04-.1a3.789,3.789,0,0,0,.407-.278.532.532,0,0,0,.127-.153c.022-.046.015-.061-.01-.114-.061-.1-.216-.233-.318-.37a1.573,1.573,0,0,1-.268-.466Z" transform="translate(-380.834 -601.412)" fill="#263238"/>
  <path id="Path_6867" data-name="Path 6867" d="M396.861,682.46a3.46,3.46,0,0,0,.92.8,1.927,1.927,0,0,0,1.162.205l.029.1a1.435,1.435,0,0,1-.661.125,1.505,1.505,0,0,1-.659-.191,2.115,2.115,0,0,1-.881-.982Z" transform="translate(-358.933 -617.379)" fill="#263238"/>
  <circle id="Ellipse_228" data-name="Ellipse 228" cx="1.128" cy="1.128" r="1.128" transform="translate(35.16 62.535)" fill="#fe5b52" opacity="0.2"/>
  <path id="Path_6868" data-name="Path 6868" d="M434.078,668.42a13.592,13.592,0,0,1-.429,1.794,1.128,1.128,0,0,1,.429-1.794Z" transform="translate(-392.04 -604.678)" fill="#fe5b52" opacity="0.2"/>
  <path id="Path_6869" data-name="Path 6869" d="M244.075,808.29l-6.515,3.1,2.044,4.844,6.831-3.151Z" transform="translate(-214.906 -731.209)" fill="#dc2626"/>
  <path id="Path_6870" data-name="Path 6870" d="M556.154,981.789c-.18-.1-.294-.152-.294-.152l.066-.128s.12.057.295.152Z" transform="translate(-502.852 -887.911)" fill="#c5c5ff"/>
  <path id="Path_6871" data-name="Path 6871" d="M290.3,871.21c-.211.416-1.823-.319-2.575-.689.582.322,1.585.954,1.144,1.3-.358.276-1.151-.311-3.748-1.389.394.191,2.715,1.29,2.129,1.709-.637.454-3.37-.546-3.37-.546l-2.37,1.273h-2.739l-9.836.063a7.156,7.156,0,0,1-1.823-.23,8.168,8.168,0,0,1-3.2-1.656,8,8,0,0,1-1.517-1.7,9.077,9.077,0,0,1-.812-1.526L259,861.682l6.831-3.152,3.564,7.235,11.754,2.554,3.28-.82a3.449,3.449,0,0,1,2.324.5C288.266,868.926,290.5,870.815,290.3,871.21Z" transform="translate(-234.301 -776.658)" fill="#ffbc96"/>
  <path id="Path_6872" data-name="Path 6872" d="M299.583,968.037a2.956,2.956,0,0,1-.178,1.016,8.165,8.165,0,0,1-3.2-1.656,8.005,8.005,0,0,1-1.517-1.7,3.008,3.008,0,0,1,4.893,2.338Z" transform="translate(-266.588 -873.006)" fill="#fe5b52" opacity="0.2"/>
  <path id="Path_6873" data-name="Path 6873" d="M491.07,952.378a22.012,22.012,0,0,1,2.479-.681,8.844,8.844,0,0,1,1.284-.183,3.815,3.815,0,0,1,.659.017c.11.022.219.051.329.076a2.456,2.456,0,0,1,.309.118,10.643,10.643,0,0,1,2.17,1.414,24.866,24.866,0,0,1,1.927,1.716l.029.028.006.034a.515.515,0,0,1-.065.37.483.483,0,0,1-.319.191,1.406,1.406,0,0,1-.613-.06,6.152,6.152,0,0,1-1.061-.445c-.335-.179-.668-.365-.984-.565s-.634-.408-.954-.613l.145-.231a17.187,17.187,0,0,1,1.621,1.075,4.374,4.374,0,0,1,.733.673.953.953,0,0,1,.142.241.44.44,0,0,1,.032.166.32.32,0,0,1-.07.191.5.5,0,0,1-.277.154,1.538,1.538,0,0,1-.263.038H498.3l-.03-.012-2.967-1.24.089-.208a10.393,10.393,0,0,1,1.365.726,1.836,1.836,0,0,1,.59.549.321.321,0,0,1,.024.261.35.35,0,0,1-.175.181.963.963,0,0,1-.409.1,5.725,5.725,0,0,1-1.526-.235,15.133,15.133,0,0,1-1.46-.459l.036-.1c.477.16.967.3,1.459.42a5.253,5.253,0,0,0,1.481.191c.233-.01.51-.112.4-.265a1.739,1.739,0,0,0-.528-.466,10.352,10.352,0,0,0-1.335-.7l.089-.208,2.978,1.217-.056-.01a1.458,1.458,0,0,0,.214-.031.272.272,0,0,0,.14-.067c.041-.016-.014-.163-.108-.274a4.1,4.1,0,0,0-.689-.624,16.721,16.721,0,0,0-1.6-1.049l.144-.231c.315.2.62.419.94.609s.638.381.964.56a5.816,5.816,0,0,0,1.009.43,1.189,1.189,0,0,0,.494.058l.053-.01a.4.4,0,0,0,.04-.021c.031-.009.041-.033.062-.05a.274.274,0,0,0,.03-.173l.034.063c-.6-.6-1.24-1.168-1.9-1.709a10.205,10.205,0,0,0-2.1-1.41l-.286-.114c-.1-.024-.2-.051-.3-.073a3.643,3.643,0,0,0-.622-.023,8.825,8.825,0,0,0-1.261.153,22.092,22.092,0,0,0-2.479.621Z" transform="translate(-444.24 -860.769)" fill="#d28572"/>
  <path id="Path_6874" data-name="Path 6874" d="M258.606,798.2l-.086-.186,6.74-3.11-2.807-6.571.189-.08L265.527,795Z" transform="translate(-233.867 -713.08)" fill="#263238"/>
  <rect id="Rectangle_1837" data-name="Rectangle 1837" width="0.358" height="30.798" transform="translate(25.345 113.892)" fill="#dfdfdf"/>
  <rect id="Rectangle_1838" data-name="Rectangle 1838" width="21.458" height="4.237" rx="2.118" transform="translate(14.796 111.022)" fill="#455a64"/>
  <path id="Path_6875" data-name="Path 6875" d="M194.876,1501.22h8.117a3.185,3.185,0,0,1,3.185,3.185v.35H191.69v-.35A3.185,3.185,0,0,1,194.876,1501.22Z" transform="translate(-173.41 -1358.06)" fill="#455a64"/>
  <rect id="Rectangle_1839" data-name="Rectangle 1839" width="0.358" height="57.208" transform="translate(46.059 98.192) rotate(-32.25)" fill="#e0e0e0"/>
  <rect id="Rectangle_1840" data-name="Rectangle 1840" width="57.208" height="0.358" transform="translate(46.051 146.382) rotate(-57.74)" fill="#e0e0e0"/>
  <rect id="Rectangle_1841" data-name="Rectangle 1841" width="53.487" height="4.034" transform="translate(34.727 96.125)" fill="#ae7461"/>
  <path id="Path_6876" data-name="Path 6876" d="M305.147,121.545a11.177,11.177,0,1,1,11.177-11.177A11.177,11.177,0,0,1,305.147,121.545Zm0-22.116a10.939,10.939,0,1,0,10.939,10.939A10.939,10.939,0,0,0,305.147,99.428Z" transform="translate(-265.936 -89.731)" fill="#263238"/>
  <circle id="Ellipse_229" data-name="Ellipse 229" cx="12.162" cy="12.162" r="12.162" transform="translate(34.608 4.095)" fill="#dc2626"/>
  <path id="Path_6877" data-name="Path 6877" d="M426.523,120.077l-6.743-5.286.221-.281,6.513,5.106,3.631-3.075.231.273Z" transform="translate(-379.749 -103.59)" fill="#fff"/>
  <path id="Path_6878" data-name="Path 6878" d="M83.835,445.5H77.66a1.8,1.8,0,0,0-1.8,1.8v6.176a1.8,1.8,0,0,0,1.8,1.8h4.407l1.9,2.622v-2.629a1.8,1.8,0,0,0,1.669-1.793V447.3A1.8,1.8,0,0,0,83.835,445.5Z" transform="translate(-68.626 -403.016)" fill="#fff"/>
  <path id="Path_6879" data-name="Path 6879" d="M82.954,457.134l-2.079-2.871H76.529a1.921,1.921,0,0,1-1.919-1.919v-6.176a1.921,1.921,0,0,1,1.919-1.919H82.7a1.922,1.922,0,0,1,1.919,1.919v6.176a1.924,1.924,0,0,1-1.669,1.9Zm-6.426-12.646a1.682,1.682,0,0,0-1.68,1.68v6.176a1.681,1.681,0,0,0,1.68,1.68H81l1.717,2.375v-2.373l.111-.008a1.685,1.685,0,0,0,1.558-1.675v-6.176a1.683,1.683,0,0,0-1.68-1.68Z" transform="translate(-67.495 -401.885)" fill="#dc2626"/>
  <path id="Path_6880" data-name="Path 6880" d="M102.332,470.763l-2.472-3.57.587-.407,1.82,2.627,2.74-4.9.625.349Z" transform="translate(-90.337 -420.213)" fill="#dc2626"/>
  <rect id="Rectangle_1842" data-name="Rectangle 1842" width="146.519" height="0.358" transform="translate(4.81 146.338)" fill="#263238"/>
</svg>
