<svg xmlns="http://www.w3.org/2000/svg" xmlns:xlink="http://www.w3.org/1999/xlink" width="561.3" height="370.039" viewBox="0 0 561.3 370.039">
  <defs>
    <filter id="Rectangle_1594" x="12.343" y="336.332" width="548.957" height="33.707" filterUnits="userSpaceOnUse">
      <feOffset dy="3" input="SourceAlpha"/>
      <feGaussianBlur stdDeviation="3" result="blur"/>
      <feFlood flood-opacity="0.522"/>
      <feComposite operator="in" in2="blur"/>
      <feComposite in="SourceGraphic"/>
    </filter>
  </defs>
  <g id="Learning" transform="translate(0.024 0.002)">
    <g id="Layer_2" data-name="Layer 2" transform="translate(-0.024 -0.002)">
      <g id="OBJECTS">
        <path id="Path_6484" data-name="Path 6484" d="M495.425,78.739C486.039,69.8,472.237,66.363,459,67.605c-9.469.92-19.324,3.975-26.685,9.588A67.684,67.684,0,0,1,433.443,64.9c.083-.442-.267-.755-.745-.681C421.149,66,410.291,73.7,403.473,83c-12.68,17.308-1.923,33.568,16.857,38.647,13.747,3.681,30.522,3.543,41.408,13.931,8.281,7.913,10.591,18.836,11.87,29.363.35,2.917-.248,13.48,2.5,14.888,3.635,1.84,10.462-3.8,11.152-6.653a14.134,14.134,0,0,0,0-5.383c0-3.9-1.242-7.9-1.316-11.833-.11-5.733,1.638-11.327,3.975-16.563,4.674-10.545,11.962-20.244,14.585-31.543C506.973,97.143,503.679,86.579,495.425,78.739Z" transform="translate(-39.665 -5.124)" fill="#263238"/>
        <path id="Path_6485" data-name="Path 6485" d="M501.22,79.567a37.127,37.127,0,0,0-6.625-5,44.168,44.168,0,0,1,3.313,23.078c-2.006,17.483-13.333,32.059-27.347,42.079,5.889,7.509,7.757,16.922,8.861,26.041.35,2.917-.248,13.48,2.5,14.888,3.635,1.84,10.462-3.8,11.152-6.653a14.133,14.133,0,0,0,0-5.383c0-3.9-1.242-7.9-1.316-11.833-.11-5.733,1.638-11.327,3.975-16.563,4.674-10.545,11.962-20.244,14.585-31.543C512.768,97.97,509.474,87.406,501.22,79.567Z" transform="translate(-45.723 -5.951)" fill="#263238" opacity="0.3"/>
        <path id="Path_6486" data-name="Path 6486" d="M321.425,203.345a67.319,67.319,0,0,0,25.654,31.7c10.867,7.095,23.381,10.886,36.052,13.342q-.156,3.984-.175,7.95,0,6.846.258,13.545c1.067,24.2,4.03,49.146,10.122,72.62,2.208,8.548,12.5,8,19.876,9.018a263.808,263.808,0,0,0,29.013,2.208,236.484,236.484,0,0,0,55.891-4.914c11.741-2.512,23.262-6.561,33.531-12.882,17.023-10.425,30.117-26.574,33.531-46.6a92.882,92.882,0,0,0-11.438-61.826,91.869,91.869,0,0,0-45.364-38.647c-22.562-9.008-47.536-7.444-71.212-6.257a239.694,239.694,0,0,1-25.194.175c-15.707-.856-33.062-3.892-45.024-14.962-5.521-5.116-11.373-13.444-11.659-21.219-.184-4.9,1.9-9.653,4.435-13.729.8-1.288,7.048-10.674,8.484-10.177l.828.294c1.969.681,3.745,1.077,5.723.322a.607.607,0,0,0,.267-1.012c-1.067-1.012-2.218-1.932-3.322-2.889,2.586-1.4,6.119-2.595,8.281-4.757a.469.469,0,0,0,.129-.212,1.012,1.012,0,0,0,.12-.534c-.147-1.923-3.368-1.583-4.555-1.445a62.478,62.478,0,0,0-12.063,2.761A69.279,69.279,0,0,0,343.205,126C319.925,143.81,310.714,176.025,321.425,203.345Zm186.334,123.67q.414-2.9.81-5.788,1.527-11.143,2.76-22.314,1.38-11.829,2.328-23.713c.239-3.037.46-6.064.672-9.1a27.979,27.979,0,0,1,2.715,1.84,29.179,29.179,0,0,1,8.714,10.637c7.518,16.121-.212,34.4-13.241,44.978A52.16,52.16,0,0,1,507.759,327.015Z" transform="translate(-35.284 -8.967)" fill="#f5ae84"/>
        <path id="Path_6487" data-name="Path 6487" d="M487.855,342.443c3.681-2.126,7.941-3.156,11.7-5.245a45.669,45.669,0,0,0,8.41-5.99q.4-2.761.782-5.595,1.527-11.143,2.76-22.314,1.38-11.829,2.328-23.713c.239-3.037.46-6.064.672-9.1a27.972,27.972,0,0,1,2.715,1.84,29.179,29.179,0,0,1,8.714,10.637,33.134,33.134,0,0,1,1.785,4.84c6.9-5.125,15.192-8.521,23.4-10.692a72.9,72.9,0,0,1,15.422-2.494,93.857,93.857,0,0,0-12.6-42.723,91.869,91.869,0,0,0-45.364-38.647c-22.562-9.008-47.536-7.444-71.212-6.257a239.7,239.7,0,0,1-25.194.175c-15.707-.856-33.062-3.892-45.024-14.962a44.756,44.756,0,0,1-4.555-4.923A84.711,84.711,0,0,1,350.3,183.374a59.608,59.608,0,0,1-17.787,13.094,38.492,38.492,0,0,1-13.342,3.681,63.246,63.246,0,0,0,2.429,7.591,67.319,67.319,0,0,0,25.654,31.7c10.867,7.094,23.382,10.886,36.052,13.342q-.156,3.984-.175,7.95,0,6.846.258,13.545c1.067,24.2,4.03,49.146,10.122,72.62,2.208,8.548,12.5,8,19.876,9.018a263.786,263.786,0,0,0,29.013,2.208,245.994,245.994,0,0,0,33.439-1.325C477.6,350.807,482.573,345.47,487.855,342.443Z" transform="translate(-35.458 -13.352)" fill="#dc2626"/>
        <path id="Path_6488" data-name="Path 6488" d="M323.863,212.829c5.052-.92,9.533-4.4,13.987-6.782a63.566,63.566,0,0,0,14.263-10.214,60.271,60.271,0,0,0,14.805-23.8,44.63,44.63,0,0,1-4.352-4.739A84.711,84.711,0,0,1,350.3,183.374a59.608,59.608,0,0,1-17.787,13.094,38.491,38.491,0,0,1-13.342,3.681,63.246,63.246,0,0,0,2.429,7.591Q322.621,210.326,323.863,212.829Z" transform="translate(-31.082 -13.353)" fill="#e75549"/>
        <path id="Path_6489" data-name="Path 6489" d="M567.186,275.487a98.654,98.654,0,0,0-14.667,7.647c-3.193,2.034-6.165,4.73-9.349,6.846.221.423.442.847.644,1.27a33.141,33.141,0,0,1,1.785,4.84c6.9-5.125,15.192-8.521,23.4-10.692a72.893,72.893,0,0,1,15.422-2.521,94.357,94.357,0,0,0-1.38-12.146,76.007,76.007,0,0,0-15.855,4.757Z" transform="translate(-53.341 -21.611)" fill="#f9f2ff"/>
        <path id="Path_6490" data-name="Path 6490" d="M483.581,145.171a12.321,12.321,0,0,0-8.1-.718c-1.445-10.177-4.831-20.658-12.579-27.421a28.626,28.626,0,0,0-24.366-6.3c-23.115,4.849-25.967,30.761-25.829,50.2q.064,9.3.469,18.6a6.441,6.441,0,0,0,.791,3.4c1.187,1.739,3.681,1.84,5.751,1.84l55.412-.837a2.66,2.66,0,0,0,1.288-.23c.856-.469.92-1.656.92-2.641l-.5-14.87c5.834-.23,11.916-3.994,12.882-9.745a10.637,10.637,0,0,0-3.81-9.827,10.849,10.849,0,0,0-2.337-1.445Z" transform="translate(-40.631 -8.791)" fill="#f5ae84"/>
        <path id="Path_6491" data-name="Path 6491" d="M489.484,146.764a10.848,10.848,0,0,0-2.346-1.454,12.321,12.321,0,0,0-8.1-.718c-1.445-10.177-4.831-20.658-12.579-27.421a27.751,27.751,0,0,0-9.2-5.282c.828,1.527,1.546,3.037,2.153,4.389a106.232,106.232,0,0,1,7.536,24.633,152.932,152.932,0,0,1,1.693,43.321l10.03-.156a2.659,2.659,0,0,0,1.288-.23c.856-.469.92-1.656.92-2.641l-.5-14.87c5.834-.23,11.916-3.994,12.882-9.745a10.637,10.637,0,0,0-3.782-9.827Z" transform="translate(-44.364 -8.93)" fill="#4a1e43" opacity="0.3"/>
        <path id="Path_6492" data-name="Path 6492" d="M482.8,186.855q-16.425-.92-32.878-.709a8.419,8.419,0,0,1-3.037,0q-16.443-.193-32.868.709a303.617,303.617,0,0,0,22.029,37.727c5.061-9.423,8.778-19.324,12.358-29.344,3.579,10.021,7.306,19.922,12.367,29.344A304.746,304.746,0,0,0,482.8,186.855Z" transform="translate(-40.631 -14.855)" fill="#e75549"/>
        <path id="Path_6493" data-name="Path 6493" d="M477.389,185.193l-.46-13.968h0c-.221-1.518-.478-3-.764-4.389a3.442,3.442,0,0,0-.515-1.408,2.623,2.623,0,0,0-2.862-.672,8.908,8.908,0,0,0-1.767.847c-.313.175-.635.368-.966.525-3.773,1.84-8.051.377-12.2-1.021l-1.187-.4a57.713,57.713,0,0,0-34.8-.166l-.3.092a73.483,73.483,0,0,0-8.852,3.193h0c.064,5.355.212,10.665.432,15.772a6.377,6.377,0,0,0,.8,3.423c1.1,1.61,3.2,1.886,5.383,1.886h.432l55.422-.828a2.76,2.76,0,0,0,1.316-.248C477.389,187.41,477.435,186.2,477.389,185.193Z" transform="translate(-40.442 -12.926)" fill="#263238"/>
        <path id="Path_6494" data-name="Path 6494" d="M477.386,171.457h0c-.221-1.518-.478-3-.764-4.389a3.442,3.442,0,0,0-.515-1.408,1.785,1.785,0,0,0-.525-.46c-16.747,7.048-33.558,13.968-50.259,21.164-2.31.994-4.656,1.914-7,2.825.46,0,.92.055,1.417.055h.432l55.422-.828a2.761,2.761,0,0,0,1.316-.248c.92-.5.975-1.712.92-2.714Z" transform="translate(-40.914 -13.186)" fill="#4a1e43" opacity="0.3"/>
        <path id="Path_6495" data-name="Path 6495" d="M508.828,231.617a5.1,5.1,0,0,0-.552-1.178,4.849,4.849,0,0,0-4-2.42,3.728,3.728,0,0,0-3.681,4.021,1.73,1.73,0,0,1,0,.92,1.021,1.021,0,0,1-1.307.331c-1.537-.6-1.767-2.687-1.454-4.306.773-4.067,3.267-7.481,6.046-10.435,1.9-2.015,7.361-5.7,4.159-8.953a4.6,4.6,0,0,0-4.6-.92,10.25,10.25,0,0,0-4.076,2.687,26.851,26.851,0,0,0-7.619,22.434c.432,3.193,1.647,6.552,4.389,8.282a7.8,7.8,0,0,0,6.91.478,9.938,9.938,0,0,0,5.089-4.849A8.079,8.079,0,0,0,508.828,231.617Z" transform="translate(-47.405 -16.636)" fill="#263238"/>
        <path id="Path_6496" data-name="Path 6496" d="M477.639,234.21a2.76,2.76,0,0,0-.847-.92c-1.408-.985-3.681-.709-5.328.175a11.088,11.088,0,0,0-4.141,3.9c-1.748,2.825-2.411,6.644-5.328,8.226-2.668,1.435-6.027.258-8.484-1.509a20.151,20.151,0,0,1-6.506-7.886,11.374,11.374,0,0,0-1.629-2.972,2.853,2.853,0,0,0-3.046-.975,2.917,2.917,0,0,0-1.371,1.316,7.361,7.361,0,0,0,.322,7.2,17.024,17.024,0,0,0,5.346,5.245,50.674,50.674,0,0,0,13.223,6.441,11.217,11.217,0,0,0,5.006.718c4.831-.709,6.782-9.036,9.91-12.266a16.564,16.564,0,0,0,2.549-2.954,3.883,3.883,0,0,0,.322-3.745Z" transform="translate(-42.729 -18.53)" fill="#263238"/>
        <path id="Path_6497" data-name="Path 6497" d="M540.764,233.8l-.193-1.942-.773-7.693a8.116,8.116,0,0,0-1.215-4.187c-1.362-1.84-3.984-2.2-5.429-3.92-3.165-3.782,3.975-13.6-3-14.207-2.273-.193-4.389,1.251-5.889,2.981-1.96,2.273-3.248,5.4-2.475,8.282.975,3.681,4.7,5.723,7.361,8.429,2.356,2.411,3.984,5.88,3.138,9.137-.653,2.5-2.6,4.417-4.1,6.524s-2.576,4.969-1.3,7.214a5.135,5.135,0,0,0,4.463,2.365,9.073,9.073,0,0,0,4.941-1.712,10.287,10.287,0,0,0,4.334-5.466,15.476,15.476,0,0,0,.138-5.806Z" transform="translate(-51.616 -16.111)" fill="#263238"/>
        <path id="Path_6498" data-name="Path 6498" d="M424.487,218.544c-.368-2.227-2.668-2.853-4.076-4.242-1.6-1.592-1.638-3.865-4.168-4.454-3.018-.709-5.328,1.445-6.368,4.095-.92,1.61-1.84,3.773-.175,5.227a3.855,3.855,0,0,0,2.07.837,18.547,18.547,0,0,1,5.171,1.123c1.7.791,3.745,2.889,5.834,1.675A4.205,4.205,0,0,0,424.487,218.544Z" transform="translate(-39.399 -16.74)" fill="#263238"/>
        <path id="Path_6499" data-name="Path 6499" d="M439.309,252.657a2.875,2.875,0,0,0-.175-.653c-.736-1.758-3.055-2.116-4.969-2.015-3.561.175-7.711-.8-7.426-5.282.092-1.546.644-3.027.837-4.6.653-5.043-2.678-9.929-6.966-12.661-1.932-1.242-4.26-2.162-6.487-1.638s-4.067,3.027-3.184,5.144c.791,1.914,3.138,2.549,4.757,3.846,2.981,2.4,3.184,6.809,2.889,10.628s-.69,8.042,1.62,11.042a9.2,9.2,0,0,0,7.573,3.3,17.8,17.8,0,0,0,8.107-2.54C437.662,256.283,439.567,254.5,439.309,252.657Z" transform="translate(-39.747 -18.013)" fill="#263238"/>
        <path id="Path_6500" data-name="Path 6500" d="M401.657,249.112c-.736-1.748-3.018-2.043-4.8-2.825a3.763,3.763,0,0,1-2-1.675,3.839,3.839,0,0,1,.92-4.067c.985-1.123,2.218-1.942,3.23-3.009a7.1,7.1,0,0,0,1.84-6.754c-1.73-5.631-7.444-3.589-8.916.837-.58,1.73-.975,3.607-2.181,4.978-1.84,2.089-4.95,2.4-7.361,3.819a7.085,7.085,0,0,0-3.589,5.631,5.171,5.171,0,0,0,3.754,5.2c1.84.414,3.856-.433,5.751-.12,2.76.46,4.7,3.267,7.463,3.865a5.236,5.236,0,0,0,5.99-3.929,3.359,3.359,0,0,0-.1-1.951Z" transform="translate(-36.591 -18.148)" fill="#263238"/>
        <path id="Path_6501" data-name="Path 6501" d="M396.008,199.056a5.916,5.916,0,0,0-2.172-1.316c-2.963-1.012-6.34.3-8.548,2.54s-3.441,5.227-4.454,8.189-1.84,6.036-3.451,8.732a16.637,16.637,0,0,1-9.855,7.518,15.275,15.275,0,0,1-12.183-1.923c-2.374-1.564-4.371-4.6-3.037-7.15,1.077-2.024,3.681-2.54,5.861-3.165s4.7-2.153,4.509-4.435a3.616,3.616,0,0,0-2.586-2.926,7.582,7.582,0,0,0-4.076.064c-6.533,1.573-12.119,8.042-10.932,14.649.755,4.2,3.92,7.573,7.426,10,4.6,3.165,10.122,5.171,15.643,4.849s11.088-3.165,13.941-7.95c1.509-2.512,2.227-5.4,3.368-8.088a12.965,12.965,0,0,1,5.751-6.552c2.558-1.527,5.457-2.954,6.579-5.917A6.772,6.772,0,0,0,396.008,199.056Z" transform="translate(-33.656 -15.756)" fill="#263238"/>
        <path id="Path_6502" data-name="Path 6502" d="M523.608,266.691a18.474,18.474,0,0,0-3.23-4.693l-.552-.709a9.137,9.137,0,0,1-2.034-4.316c-.239-1.969.46-4.279-.856-5.76-2.2-2.466-5.917.856-7.131,2.76a5.926,5.926,0,0,0-.819,4.6c1.012,3.681,5.438,4.9,6.929,8.282.681,1.564.653,3.46,1.721,4.794a3.681,3.681,0,0,0,5.2.35C524.215,270.712,524.307,268.43,523.608,266.691Z" transform="translate(-50.599 -19.983)" fill="#263238"/>
        <path id="Path_6503" data-name="Path 6503" d="M514.371,297.5c-1.1-7.573-6.23-14.594-12.312-19.066-1.261-.92-2.76-1.84-4.316-1.6-2.6.34-3.892,3.681-3.046,6.184s3.11,4.2,5.328,5.613,4.6,2.76,6.027,4.987c2.07,3.193,1.647,7.361.837,11.042-.377,1.767-.718,3.92.626,5.125a3.3,3.3,0,0,0,4.1-.156,7.3,7.3,0,0,0,2.2-3.791,19.794,19.794,0,0,0,.552-8.337Z" transform="translate(-47.725 -22.095)" fill="#263238"/>
        <path id="Path_6504" data-name="Path 6504" d="M523.386,320.1a3.083,3.083,0,0,0-1.942-2.76,3.68,3.68,0,0,0-2.991.856,15.5,15.5,0,0,0-3.607,3.938,10.305,10.305,0,0,0-1.942,4.49,4.665,4.665,0,0,0,1.711,4.38c4.665,3.248,8.548-6.2,8.815-9.4a6.691,6.691,0,0,0-.046-1.5Z" transform="translate(-50.92 -25.328)" fill="#263238"/>
        <path id="Path_6505" data-name="Path 6505" d="M572.717,244.048c-.975-1.638-3.487-1.573-4.785-2.972-1.527-1.629-.672-4.233-.837-6.441a6.137,6.137,0,0,0-2.273-4.4c-1.84-1.435-6.662-1.923-6.064,1.693.166,1.012.718,1.923.92,2.926.368,1.9-.57,3.754-1.215,5.521s-.92,4.086.451,5.438a5.9,5.9,0,0,0,2.705,1.27l3.46.92c1.794.5,3.681.985,5.521.377S573.637,245.659,572.717,244.048Z" transform="translate(-54.519 -18.292)" fill="#263238"/>
        <path id="Path_6506" data-name="Path 6506" d="M508.753,195.379a1.831,1.831,0,0,0-.046-.239c-.368-1.555-2.227-2.4-3.865-2.448s-3.451.469-5.153.23a23.585,23.585,0,0,1-3.681-1.187c-1.942-.617-5.383-.442-5.19,2.392a18.322,18.322,0,0,0,.727,2.761c.212.92.184,1.923.35,2.871a3.377,3.377,0,0,0,1.408,2.411,3.488,3.488,0,0,0,3.423-.313,33.682,33.682,0,0,1,3.027-1.932c1.711-.755,3.681-.543,5.521-.92S508.993,197.228,508.753,195.379Z" transform="translate(-47.342 -15.281)" fill="#263238"/>
        <path id="Path_6507" data-name="Path 6507" d="M386.572,187.462a2.639,2.639,0,0,0-.166-.368,3.441,3.441,0,0,0-2.76-1.435c-1.224-.074-2.457.193-3.681.046-1.564-.2-2.963-1.077-4.5-1.435s-3.5,0-4.049,1.5c-.626,1.665.92,3.267,1.656,4.877,1.049,2.227.6,4.831.847,7.269a4.9,4.9,0,0,0,1.472,3.359c4.067,3.322,6.128-6.782,7.785-8.6.736-.819,1.693-1.408,2.457-2.208A3.147,3.147,0,0,0,386.572,187.462Z" transform="translate(-35.778 -14.698)" fill="#263238"/>
        <path id="Path_6508" data-name="Path 6508" d="M383.129,253.929a73.843,73.843,0,0,1,2.622-9.091,71.936,71.936,0,0,1,2.761-6.745h-3.883a70.439,70.439,0,0,1-47.849-21.017,75.075,75.075,0,0,1-19.646-36.807,65.405,65.405,0,0,0,4.26,28.525,67.319,67.319,0,0,0,25.654,31.7c10.867,7.094,23.381,10.886,36.052,13.342Z" transform="translate(-31.133 -14.389)" fill="#4a1e43" opacity="0.3"/>
        <path id="Path_6509" data-name="Path 6509" d="M538.98,256.552a68.027,68.027,0,0,0-23.28-8.162c3.579,15.643,5.346,31.8,6.837,47.72q1.417,15.174,2.006,30.366l.644.064c.727-5.521,1.417-11.143,2.024-16.729q1.38-11.829,2.328-23.713c.239-3.037.46-6.064.672-9.1a27.972,27.972,0,0,1,2.715,1.84,29.179,29.179,0,0,1,8.7,10.6c5.659,12.137,2.669,25.507-4.72,35.887a29.345,29.345,0,0,0,11.7-6.441c11.419-10.287,15.983-28.4,10.122-42.723C555.083,267.281,547.142,261.116,538.98,256.552Z" transform="translate(-51.148 -19.827)" fill="#4a1e43" opacity="0.3"/>
        <path id="Path_6510" data-name="Path 6510" d="M339.221,362.907c-5.337.258-10.674.276-16,0-4.96-.248-10.361-.331-15.036-2.162-6.533-2.558-9.469-9.441-4.7-15.192,2.761-3.359,6.8-5.466,10.536-7.564,6.846-3.855,12.284-8.042,14.511-15.9,1.988-7.021,1.435-16.379-5.889-20.161-6.588-3.4-13.8,1.095-17.7,6.441-5.411,7.361-7.6,19.047-17.069,22.6-8.484,3.184-17.6-2.319-26.188.92a10.5,10.5,0,0,0-5.99,5.162c-1.684,3.681-.451,7.582-.2,11.373.819,12.5-15.2,12.459-23.924,13.14q-18.2,1.426-36.485,1.067a.607.607,0,0,0,0,1.215q15.9.285,31.773-.727c7.7-.506,17.281-.147,24.237-4.095a10.655,10.655,0,0,0,5.181-6.046c1.3-4.27-.745-8.622-.175-12.928,1.445-11.042,16.158-7.6,23.4-7.058,8.613.653,14.594-3.257,18.946-10.508,4.6-7.72,8.429-20.676,19.563-20.52,6.386.092,10.122,6.441,10.37,12.155a23.777,23.777,0,0,1-4.325,14.723C319.1,335.541,310.3,337.51,304.3,343c-2.761,2.549-5.107,6.174-4.509,10.122s3.625,6.828,7.012,8.4c4.306,2.006,9.386,2.2,14.051,2.512a160.913,160.913,0,0,0,18.4.138C339.994,364.085,340,362.87,339.221,362.907Z" transform="translate(-19.717 -24.007)" fill="#263238"/>
        <g transform="matrix(1, 0, 0, 1, 0, 0)" filter="url(#Rectangle_1594)">
          <rect id="Rectangle_1594-2" data-name="Rectangle 1594" width="530.957" height="15.707" rx="3.9" transform="translate(21.34 342.33)" fill="#ae7461"/>
        </g>
        <rect id="Rectangle_1595" data-name="Rectangle 1595" width="165.142" height="13.361" rx="3.9" transform="translate(309.773 334.704)" fill="#263238"/>
        <path id="Path_6511" data-name="Path 6511" d="M493.338,369.2c-32.9,1.049-65.755,3.119-98.605,5.227-13.158.847-26.28,1.5-39.383,2.981l-.81.092H508.677a2.374,2.374,0,0,0,2.365-2.374V368.68Q502.19,368.91,493.338,369.2Z" transform="translate(-36.172 -29.431)" fill="#090a0a" opacity="0.3"/>
        <rect id="Rectangle_1596" data-name="Rectangle 1596" width="139.037" height="100.786" rx="3.9" transform="translate(317.367 241.813)" fill="#263238"/>
        <path id="Path_6512" data-name="Path 6512" d="M433.318,324.447c-26.611,9.377-53.517,17.851-80.248,26.86v13.149a2.374,2.374,0,0,0,2.365,2.374H489.779a2.383,2.383,0,0,0,2.374-2.374V303.55C472.5,310.479,452.927,317.527,433.318,324.447Z" transform="translate(-35.704 -24.231)" fill="#090a0a" opacity="0.3"/>
        <path id="Path_6513" data-name="Path 6513" d="M449.039,314.225c-.11-1.417-.212-4.776-2.144-5.006-1.518-.184-3.579.92-4.932,1.573H441.9a15.066,15.066,0,0,0-.828-2.043c1.417-.488,3.423-1.141,4.306-2.273a1.785,1.785,0,0,0,0-2.052,18.4,18.4,0,0,0-4.306-5.254c-1.086-.92-3.524-3.23-5.052-2.024-1.1.856-1.758,2.76-2.236,4.178a17.3,17.3,0,0,0-1.84-.755c.653-1.343,1.6-3.221,1.435-4.6a1.758,1.758,0,0,0-1.435-1.463,18.026,18.026,0,0,0-6.754-.672c-1.417.11-4.776.2-5.015,2.135-.175,1.445.81,3.368,1.463,4.711a15.646,15.646,0,0,0-2.291,1.04h0a1.088,1.088,0,0,0-.1-.322c-.488-1.417-1.159-3.681-2.374-4.6-1.527-1.205-3.966,1.1-5.052,2.024a18.246,18.246,0,0,0-4.306,5.254,1.767,1.767,0,0,0,0,2.052c.92,1.205,3.193,1.886,4.6,2.374a.933.933,0,0,1,.258.083,15.165,15.165,0,0,0-.92,2.273l-.12-.064c-1.353-.653-3.414-1.758-4.932-1.573-1.942.23-2.034,3.589-2.144,5.006a18.4,18.4,0,0,0,.672,6.754,1.758,1.758,0,0,0,1.472,1.435c1.518.184,3.579-.92,4.932-1.574l.212-.11a17.007,17.007,0,0,0,.856,2.034c-1.408.488-3.368,1.141-4.233,2.254-1.205,1.537,1.1,3.975,2.024,5.061a18.4,18.4,0,0,0,5.254,4.3,1.767,1.767,0,0,0,2.052,0c1.123-.92,1.785-2.889,2.273-4.3a16.177,16.177,0,0,0,1.84.745c-.653,1.334-1.546,3.147-1.38,4.527.239,1.932,3.6,2.034,5.015,2.144a18.4,18.4,0,0,0,6.754-.672,1.776,1.776,0,0,0,1.435-1.472c.166-1.417-.782-3.3-1.435-4.647a14.515,14.515,0,0,0,1.748-.718l.055.175c.5,1.417,1.169,3.681,2.374,4.6a1.767,1.767,0,0,0,2.052,0,18.4,18.4,0,0,0,5.254-4.3c.92-1.086,3.23-3.524,2.024-5.061-.92-1.215-3.184-1.886-4.6-2.374h-.083c.2-.414.4-.828.57-1.261s.267-.653.386-.994l.175.092c1.353.653,3.414,1.757,4.932,1.573a1.767,1.767,0,0,0,1.472-1.435,18.4,18.4,0,0,0,.681-6.782ZM426.955,324.76a7.941,7.941,0,1,1,4.1-.92,9.312,9.312,0,0,1-4.113.929Z" transform="translate(-39.329 -23.45)" fill="#455a64"/>
        <path id="Path_6514" data-name="Path 6514" d="M524.931,222.106c5.714-2.825,13-1.629,17.934,2.411a21.637,21.637,0,0,1,7.472,16.913c0,3.027-.6,6.285.92,8.926,1.739,3.092,5.585,4.178,8.42,6.3a13.158,13.158,0,0,1,4.3,14.723c-.58,1.537-1.463,3.018-1.472,4.665,0,3.552,3.681,5.7,6.2,8.282,4.371,4.509,5.024,11.962,2.181,17.529s-8.732,9.321-14.934,10.333c-11.723,1.914-31.221-6.3-25.829-21.219.8-2.208,2.172-4.38,1.84-6.7-.442-3.2-3.736-5.015-6.367-6.874-4.021-2.853-7.361-7.361-6.947-12.3.34-4.251,3.368-8.015,3.359-12.284,0-3.727-2.319-6.929-3.892-10.352a18.732,18.732,0,0,1-.8-2.015,15.643,15.643,0,0,1,7.619-18.339Z" transform="translate(-51.223 -17.606)" fill="#455a64"/>
        <path id="Path_6515" data-name="Path 6515" d="M571.027,284.689c-2.475-2.549-6.239-4.693-6.2-8.281,0-1.647.92-3.129,1.472-4.665A13.158,13.158,0,0,0,562,257.02c-2.834-2.126-6.68-3.211-8.419-6.3-1.491-2.641-.92-5.9-.92-8.926A21.873,21.873,0,0,0,546.1,225.67c2.07,15.146,2.76,30.559,3.322,45.788.525,13.655.764,27.32.92,40.984a25.635,25.635,0,0,0,7.858.064c6.2-1.012,12.091-4.739,14.934-10.333S575.4,289.2,571.027,284.689Z" transform="translate(-53.575 -18.014)" fill="#2f3e45" opacity="0.3"/>
        <path id="Path_6516" data-name="Path 6516" d="M607.179,237.416c-5.282-2.613-12.027-1.5-16.563,2.227a19.958,19.958,0,0,0-6.9,15.643c0,2.807.543,5.815-.828,8.282-1.61,2.862-5.162,3.865-7.785,5.834a12.165,12.165,0,0,0-3.975,13.6c.534,1.417,1.343,2.761,1.362,4.316,0,3.285-3.451,5.273-5.733,7.628-4.049,4.168-4.656,11.042-2.024,16.2s8.079,8.622,13.8,9.561c10.849,1.767,28.875-5.834,23.924-19.627-.736-2.034-2.006-4.049-1.712-6.193.4-2.954,3.46-4.6,5.889-6.358,3.681-2.632,6.782-6.828,6.441-11.373-.313-3.929-3.119-7.417-3.1-11.364,0-3.441,2.144-6.441,3.6-9.57.276-.617.534-1.233.745-1.84a14.447,14.447,0,0,0-7.14-16.968Z" transform="translate(-54.935 -18.837)" fill="#2f3e45"/>
        <path id="Path_6517" data-name="Path 6517" d="M610.381,268.062a10.169,10.169,0,0,1,.626-3.322c-4.932,6.441-9.947,12.882-14.879,19.323-6.183,8.042-12.367,16.085-18.449,24.2-2.641,3.533-5.337,7.067-8.2,10.453a20.106,20.106,0,0,0,9.515,4.233c10.849,1.767,28.875-5.834,23.924-19.627-.736-2.034-2.006-4.049-1.711-6.193.4-2.954,3.46-4.6,5.889-6.358,3.681-2.632,6.782-6.828,6.441-11.373C613.206,275.5,610.363,272.009,610.381,268.062Z" transform="translate(-55.441 -21.133)" fill="#1d2224" opacity="0.3"/>
        <path id="Path_6518" data-name="Path 6518" d="M601.4,250.762c-7.159,13.867-12.468,28.525-17.483,43.321-5.273,15.643-10.554,31.359-15.081,47.269a.607.607,0,0,0,1.169.322c4.426-15.551,9.579-30.881,14.723-46.2,5.052-15.026,10.389-29.988,17.676-44.094C602.811,250.679,601.762,250.035,601.4,250.762Z" transform="translate(-55.389 -19.991)" fill="#fff"/>
        <path id="Path_6519" data-name="Path 6519" d="M534.233,239.423c-.35-.7-1.4-.083-1.049.617a295.567,295.567,0,0,1,31.185,105.58c.074.773,1.288.773,1.215,0a297.212,297.212,0,0,0-31.35-106.2Z" transform="translate(-52.538 -19.087)" fill="#fff"/>
        <path id="Path_6520" data-name="Path 6520" d="M586.513,336.506c-3.046-3.165-8.659-1.675-12.505-1.491-5.705.276-11.4,0-17.106-.138-1.914-.055-3.993-.055-5.521,1.113-2.7,2.08-2.282,7.067-2.254,10.122.064,7.739,1.84,16.618,8.171,21.753a20.9,20.9,0,0,0,22.609,0c4.481-3.681,6.717-9.2,7.555-14.806a67.567,67.567,0,0,0,.561-10.2C588.022,340.739,588.1,338.172,586.513,336.506Z" transform="translate(-53.813 -26.702)" fill="#dc2626"/>
        <path id="Path_6521" data-name="Path 6521" d="M588.5,336.506c-3.046-3.165-8.659-1.675-12.505-1.491-.681,0-1.353.064-2.034.083.12,10.794.184,21.6.442,32.39,0,1.2.055,2.4.092,3.6a14.842,14.842,0,0,0,7.407-3.2c4.481-3.681,6.717-9.2,7.555-14.805a67.566,67.566,0,0,0,.561-10.2C590.008,340.739,590.091,338.172,588.5,336.506Z" transform="translate(-55.799 -26.702)" fill="#4a1e43" opacity="0.3"/>
        <path id="Path_6522" data-name="Path 6522" d="M583.993,364.79q-12.063-.34-24.127-.175c-3.46.055-6.92.055-10.37.147-2.411.074-4.113.92-3.083,3.589,1.555,4.058,3.791,5.328,7.932,5.779a137.624,137.624,0,0,0,22.793.368c5.457-.3,10.729-.34,12.956-6.147C591.787,363.934,587.057,364.882,583.993,364.79Z" transform="translate(-53.575 -29.102)" fill="#dc2626"/>
        <path id="Path_6523" data-name="Path 6523" d="M586.549,364.8c-2.76-.083-5.613-.129-8.429-.166,0,2.917,0,5.843.083,8.76v1.187l1.463-.074c5.457-.3,10.729-.34,12.956-6.147C594.343,363.94,589.613,364.888,586.549,364.8Z" transform="translate(-56.131 -29.107)" fill="#4a1e43" opacity="0.3"/>
        <path id="Path_6524" data-name="Path 6524" d="M171.953,11.139a2.162,2.162,0,0,0-1.84-.8,62.57,62.57,0,0,0-11.143,0,2.356,2.356,0,0,0-1.353.423,2.383,2.383,0,0,0-.4,2.144q1.73,11.824,3.4,23.786a1.721,1.721,0,0,0,.478,1.15,1.693,1.693,0,0,0,1.132.239l6.349-.138a1.84,1.84,0,0,0,1.169-.285,1.886,1.886,0,0,0,.506-1.408c.57-7.95,1.159-15.882,1.84-23.814a2.162,2.162,0,0,0-.138-1.3Z" transform="translate(-15.126 -0.803)" fill="#dc2626"/>
        <path id="Path_6525" data-name="Path 6525" d="M222.6,9.549c-.156-.653-.856-.994-1.472-1.233a58.486,58.486,0,0,0-10.4-2.954,2.172,2.172,0,0,0-1.371.055c-.663.331-.828,1.205-.92,1.96l-2.926,23.8a1.84,1.84,0,0,0,.156,1.242,1.656,1.656,0,0,0,.994.534l5.963,1.509a1.84,1.84,0,0,0,1.169,0,1.9,1.9,0,0,0,.828-1.224c2.558-7.518,5.125-15.017,7.794-22.489a2.3,2.3,0,0,0,.184-1.205Z" transform="translate(-19.801 -0.419)" fill="#dc2626"/>
        <path id="Path_6526" data-name="Path 6526" d="M267.3,27.21c.064-.672-.5-1.233-1.021-1.666a62.055,62.055,0,0,0-9.2-6.331,2.236,2.236,0,0,0-1.353-.414c-.755.092-1.215.856-1.546,1.537L243.505,41.813a1.73,1.73,0,0,0-.267,1.224,1.721,1.721,0,0,0,.8.837l5.309,3.487a1.951,1.951,0,0,0,1.132.423,1.914,1.914,0,0,0,1.215-.874c4.969-6.23,9.947-12.431,15.017-18.578a2.18,2.18,0,0,0,.589-1.123Z" transform="translate(-23.494 -1.499)" fill="#dc2626"/>
        <path id="Path_6527" data-name="Path 6527" d="M297.507,76.559a2.153,2.153,0,0,0-.12-1.96,61.892,61.892,0,0,0-5.088-9.919,2.3,2.3,0,0,0-1-1,2.356,2.356,0,0,0-2.089.626L269.6,78.178a1.3,1.3,0,0,0-.506,2.07l3.037,5.585a1.951,1.951,0,0,0,.791.92,1.914,1.914,0,0,0,1.491-.193c7.361-3.138,14.64-6.257,22-9.284A2.172,2.172,0,0,0,297.507,76.559Z" transform="translate(-26.005 -5.078)" fill="#dc2626"/>
        <path id="Path_6528" data-name="Path 6528" d="M328.458,117.852a2.171,2.171,0,0,0,.552-1.84,61.281,61.281,0,0,0-1.426-11.042,2.319,2.319,0,0,0-.589-1.288,2.383,2.383,0,0,0-2.181-.12L301.69,110a1.3,1.3,0,0,0-1.178,1.776l.966,6.276a1.84,1.84,0,0,0,.432,1.123,1.9,1.9,0,0,0,1.463.322c7.95-.469,15.891-.92,23.851-1.261a2.162,2.162,0,0,0,1.233-.386Z" transform="translate(-29.068 -8.249)" fill="#dc2626"/>
        <path id="Path_6529" data-name="Path 6529" d="M105.187,4.279c.166-.663.92-1,1.518-1.242A62.268,62.268,0,0,1,117.462.083a2.291,2.291,0,0,1,1.408.055c.681.331.856,1.205.92,1.96q1.509,11.916,3.018,23.8a1.84,1.84,0,0,1-.156,1.242,1.748,1.748,0,0,1-1.031.534l-6.165,1.537a1.435,1.435,0,0,1-2.061-1.2C110.754,20.5,108.1,13,105.344,5.53a2.208,2.208,0,0,1-.156-1.251Z" transform="translate(-10.125 0.002)" fill="#dc2626"/>
        <path id="Path_6530" data-name="Path 6530" d="M65.37,33.35c-.064-.672.506-1.233,1.031-1.666a61.578,61.578,0,0,1,9.2-6.331,2.218,2.218,0,0,1,1.353-.414c.755.092,1.205.856,1.546,1.537L89.165,48a1.73,1.73,0,0,1,.267,1.224,1.7,1.7,0,0,1-.791.837q-2.659,1.693-5.319,3.46a1.923,1.923,0,0,1-1.123.423,1.84,1.84,0,0,1-1.215-.874c-4.978-6.248-9.956-12.431-15.036-18.6A2.135,2.135,0,0,1,65.37,33.35Z" transform="translate(-5.196 -1.989)" fill="#dc2626"/>
        <path id="Path_6531" data-name="Path 6531" d="M21.715,72.559a2.181,2.181,0,0,1,.12-1.96,62.212,62.212,0,0,1,5.1-9.91,2.273,2.273,0,0,1,.994-1,2.374,2.374,0,0,1,2.089.617L49.568,74.188a1.758,1.758,0,0,1,.81.92,1.721,1.721,0,0,1-.313,1.113L47.028,81.8a1.84,1.84,0,0,1-.791.92,1.9,1.9,0,0,1-1.481-.2c-7.361-3.138-14.64-6.248-22.01-9.275a2.227,2.227,0,0,1-1.031-.681Z" transform="translate(-1.697 -4.759)" fill="#dc2626"/>
        <path id="Path_6532" data-name="Path 6532" d="M.559,120.563a2.153,2.153,0,0,1-.552-1.84A61.375,61.375,0,0,1,1.434,107.68a2.218,2.218,0,0,1,.6-1.279,2.337,2.337,0,0,1,2.172-.12l23.124,6.441a1.3,1.3,0,0,1,1.2,1.684l-.985,6.322a1.84,1.84,0,0,1-.432,1.123,1.9,1.9,0,0,1-1.463.313c-7.95-.469-15.891-.92-23.851-1.261a2.162,2.162,0,0,1-1.233-.34Z" transform="translate(0.024 -8.466)" fill="#dc2626"/>
        <path id="Path_6533" data-name="Path 6533" d="M273.814,198.611c6.1-7.223,8.438-17,7.8-26.308a41.987,41.987,0,0,0-9.772-24.458c4.03-16.351-1.675-34.175-15.643-44.168a40.791,40.791,0,0,0-10.38-5.355,29.317,29.317,0,0,0-21.7-23.151,29.666,29.666,0,0,0-11.861-.4,30.448,30.448,0,0,0-8.282-17.17c-10.729-11.042-29.317-11.272-40.6-.847a31.286,31.286,0,0,0-7.076,9.616,31.5,31.5,0,0,0-7.085-9.616c-11.272-10.425-29.869-10.186-40.6.847a30.494,30.494,0,0,0-8.281,17.17,29.7,29.7,0,0,0-11.833.432A29.289,29.289,0,0,0,66.777,98.331a40.643,40.643,0,0,0-10.38,5.355c-14,9.984-19.692,27.807-15.643,44.168a41.987,41.987,0,0,0-9.763,24.458c-.635,9.3,1.7,19.084,7.8,26.308.5.58,1.021,1.141,1.555,1.684-3.809,9.892-4.6,20.833-.92,31.083,5.88,16.4,22.369,28.433,39.687,27.522-.258,9.671,1.84,19.756,7.177,27.605,6.119,9.008,16.563,14.244,27.255,15.321a40.165,40.165,0,0,0,30.761-10.122,49.026,49.026,0,0,0,11.962-16.48,48.769,48.769,0,0,0,11.962,16.48,40.147,40.147,0,0,0,30.752,10.122c10.674-1.077,21.164-6.312,27.255-15.321,5.355-7.9,7.435-17.98,7.177-27.605,17.327.92,33.816-11.125,39.687-27.522,3.681-10.251,2.908-21.164-.92-31.083A17.474,17.474,0,0,0,273.814,198.611Z" transform="translate(-2.444 -3.92)" fill="#f0aac0"/>
        <path id="Path_6534" data-name="Path 6534" d="M284.8,202.923c6.1-7.223,8.438-17,7.8-26.308a41.987,41.987,0,0,0-9.772-24.458c4.03-16.351-1.675-34.175-15.643-44.168a40.541,40.541,0,0,0-9-4.849c.432,11.723-1.288,23.473-6.441,34.147a57.97,57.97,0,0,1-5.457,9.036,58.348,58.348,0,0,1,3.211,13.6,63.9,63.9,0,0,1-12.57,45.511c-6.634,8.64-15.836,15.643-26.032,18.127-.478,12.321-3.322,24.458-10,34.966-6.984,11.042-19.379,21.164-32.4,23.492a48.419,48.419,0,0,0,10.812,14.023,40.147,40.147,0,0,0,30.752,10.122c10.674-1.077,21.164-6.312,27.255-15.321,5.355-7.9,7.435-17.98,7.177-27.605,17.327.92,33.816-11.125,39.687-27.522,3.681-10.251,2.908-21.164-.92-31.083C283.788,204.064,284.3,203.5,284.8,202.923Z" transform="translate(-16.908 -8.232)" fill="#4a1e43" opacity="0.3"/>
        <path id="Path_6535" data-name="Path 6535" d="M113.2,244.28h0a10.913,10.913,0,0,1-5.024-11.1.975.975,0,0,0-.81-1.1.81.81,0,0,0-.966.681,13.167,13.167,0,0,0,.359,5.9,41.518,41.518,0,0,0-22.765,39.724.92.92,0,0,0,.92.865h.074a.819.819,0,0,0,.782-.92,39.356,39.356,0,0,1,21.569-37.966,12.735,12.735,0,0,0,4.849,5.475.819.819,0,0,0,.856.046.975.975,0,0,0,.506-.819A.92.92,0,0,0,113.2,244.28Z" transform="translate(-6.676 -18.524)" fill="#263238"/>
        <path id="Path_6536" data-name="Path 6536" d="M90.157,216.03a1.141,1.141,0,0,0,0,.248,15.008,15.008,0,0,0-4.481,2.374,1.018,1.018,0,0,0,.193,1.693.764.764,0,0,0,.791-.129,13.26,13.26,0,0,1,11.962-2.291.856.856,0,0,0,.847-.193.985.985,0,0,0,.267-.92.92.92,0,0,0-.626-.626,15.238,15.238,0,0,0-7.159-.34,17.787,17.787,0,0,1,16.305-16.7.92.92,0,0,0,.856-1.049.81.81,0,0,0-.92-.773,19.729,19.729,0,0,0-13.434,6.828,33.218,33.218,0,0,0-33.181-8.061,33.522,33.522,0,0,0-21.928,24.734.92.92,0,0,0,.322.828,1,1,0,0,0,.663.258.92.92,0,0,0,.276-.046.819.819,0,0,0,.543-.635,31.737,31.737,0,0,1,20.695-23.437A31.359,31.359,0,0,1,93.7,205.558a20.124,20.124,0,0,0-3.543,10.471Z" transform="translate(-3.142 -15.533)" fill="#263238"/>
        <path id="Path_6537" data-name="Path 6537" d="M113.713,142.2a.8.8,0,0,0-.5-1.077.92.92,0,0,0-1.242.534,24.467,24.467,0,0,0-1.5,6.542.856.856,0,0,0-.423.055,26.832,26.832,0,0,0-9.873,6.754A40.865,40.865,0,0,0,41.5,156.646.957.957,0,0,0,42,158.22a.828.828,0,0,0,.8-.267A39.006,39.006,0,0,1,98.99,156.4a26.446,26.446,0,0,0-4.96,9.726.92.92,0,0,0,.212.856.994.994,0,0,0,.7.285h.239a.92.92,0,0,0,.607-.626,24.679,24.679,0,0,1,14.6-16.563,24.145,24.145,0,0,0,2.53,10.95.819.819,0,0,0,.681.478,1,1,0,0,0,.856-.442.92.92,0,0,0,.055-.92,22.314,22.314,0,0,1-.8-17.943Z" transform="translate(-3.271 -11.258)" fill="#263238"/>
        <path id="Path_6538" data-name="Path 6538" d="M66.575,106.42a28.093,28.093,0,0,1,26.887,1.518,20.9,20.9,0,0,0-2.678,16.618.847.847,0,0,0,.847.663.736.736,0,0,0,.248,0,.92.92,0,0,0,.663-1.1,19,19,0,0,1,2.76-15.578.975.975,0,0,0,.377-.515,19.2,19.2,0,0,1,3.368-3.533.782.782,0,0,0,.3-.745.96.96,0,0,0-1.537-.58,21.017,21.017,0,0,0-3.257,3.322,29.951,29.951,0,0,0-28.829-1.638.819.819,0,0,0-.386,1.132.92.92,0,0,0,1.233.432Z" transform="translate(-5.187 -8.135)" fill="#263238"/>
        <path id="Path_6539" data-name="Path 6539" d="M146.107,102.284a.969.969,0,0,0-.975-1.325.764.764,0,0,0-.626.5,22.811,22.811,0,0,0-1.84,6.993c-10.674.653-20.888-3.331-27.347-10.692A28.35,28.35,0,0,1,110.4,68.532a.966.966,0,0,0-.534-1.279.782.782,0,0,0-1.067.432,30.145,30.145,0,0,0,4.251,30.2c6.625,8.282,17.906,13.057,29.51,12.395a22.25,22.25,0,0,0,3.819,12.79.92.92,0,0,0,.755.4,1.1,1.1,0,0,0,.561-.166.837.837,0,0,0,.239-1.2A20.621,20.621,0,0,1,146.107,102.284Z" transform="translate(-10.338 -5.361)" fill="#263238"/>
        <path id="Path_6540" data-name="Path 6540" d="M143.493,224.678a.92.92,0,0,0-1.251.285,11.686,11.686,0,0,1-7.407,5.392.819.819,0,0,0-.626.58.92.92,0,0,0,.23.92.847.847,0,0,0,.856.248,13.729,13.729,0,0,0,3.4-1.307,44.674,44.674,0,0,1-10.315,42.769,15.012,15.012,0,0,0-1.573-1.758.92.92,0,0,0-.92-.212.975.975,0,0,0-.663.7.828.828,0,0,0,.258.819,12.415,12.415,0,0,1,1.84,2.236,1.077,1.077,0,0,0,.175.276,11.962,11.962,0,0,1,1.785,5.521.92.92,0,0,0,.515.764,1.068,1.068,0,0,0,.442.1.975.975,0,0,0,.525-.156.81.81,0,0,0,.34-.755,13.949,13.949,0,0,0-1.785-5.963A46.459,46.459,0,0,0,140.3,230.052a.782.782,0,0,0-.138-.276,13.637,13.637,0,0,0,3.561-3.911h0a.847.847,0,0,0-.23-1.187Z" transform="translate(-12.063 -17.924)" fill="#263238"/>
        <path id="Path_6541" data-name="Path 6541" d="M224.607,238.658a13.039,13.039,0,0,0,.359-5.9.782.782,0,0,0-.5-.635.966.966,0,0,0-1.251,1.1,10.913,10.913,0,0,1-5.024,11.1.865.865,0,0,0-.423.791.92.92,0,0,0,.506.819.819.819,0,0,0,.856-.046,12.735,12.735,0,0,0,4.849-5.475,39.337,39.337,0,0,1,21.56,37.966.828.828,0,0,0,.791.92h.074a.92.92,0,0,0,.92-.865,41.527,41.527,0,0,0-22.719-39.77Z" transform="translate(-21.072 -18.525)" fill="#263238"/>
        <path id="Path_6542" data-name="Path 6542" d="M266.275,196.04a33.218,33.218,0,0,0-33.181,8.061,19.728,19.728,0,0,0-13.434-6.828.828.828,0,0,0-.92.773.92.92,0,0,0,.856,1.049,17.787,17.787,0,0,1,16.315,16.7,15.4,15.4,0,0,0-7.168.34.865.865,0,0,0-.617.626.92.92,0,0,0,.267.92.856.856,0,0,0,.847.193,13.26,13.26,0,0,1,11.962,2.291.764.764,0,0,0,.791.129.975.975,0,0,0,.552-.773.92.92,0,0,0-.368-.92,14.953,14.953,0,0,0-4.472-2.374.755.755,0,0,0,0-.248,19.959,19.959,0,0,0-3.543-10.472,31.368,31.368,0,0,1,31.552-7.766,31.746,31.746,0,0,1,20.676,23.437.819.819,0,0,0,.819.681h.193a.92.92,0,0,0,.745-1.1,33.512,33.512,0,0,0-21.872-24.716Z" transform="translate(-21.461 -15.529)" fill="#263238"/>
        <path id="Path_6543" data-name="Path 6543" d="M231.764,166.609a.856.856,0,0,0,.607.626,1.058,1.058,0,0,0,.239,0,.994.994,0,0,0,.7-.285.92.92,0,0,0,.212-.856,26.584,26.584,0,0,0-4.96-9.726,39.006,39.006,0,0,1,56.2,1.537.81.81,0,0,0,.8.267.975.975,0,0,0,.709-.653.92.92,0,0,0-.2-.92,40.865,40.865,0,0,0-58.707-1.629,26.906,26.906,0,0,0-9.873-6.754.92.92,0,0,0-.423-.055,24.467,24.467,0,0,0-1.5-6.542.92.92,0,0,0-.718-.589.975.975,0,0,0-.92.322.819.819,0,0,0-.11.81,22.314,22.314,0,0,1-.81,17.943h0a.92.92,0,0,0,.451,1.261.819.819,0,0,0,1.141-.377,24.155,24.155,0,0,0,2.54-10.95,24.7,24.7,0,0,1,14.621,16.572Z" transform="translate(-20.921 -11.255)" fill="#263238"/>
        <path id="Path_6544" data-name="Path 6544" d="M235.319,107.99a1.04,1.04,0,0,0,.386.515,19,19,0,0,1,2.705,15.569.865.865,0,0,0,.23.856.984.984,0,0,0,.681.276.773.773,0,0,0,.248,0,.828.828,0,0,0,.6-.626,20.86,20.86,0,0,0-2.678-16.646,28.093,28.093,0,0,1,26.887-1.518.92.92,0,0,0,1.27-.469.819.819,0,0,0-.4-1.132,29.933,29.933,0,0,0-28.82,1.638,21.016,21.016,0,0,0-3.257-3.322h0a.97.97,0,0,0-1.546.58.791.791,0,0,0,.313.745A19.148,19.148,0,0,1,235.319,107.99Z" transform="translate(-22.446 -8.131)" fill="#263238"/>
        <path id="Path_6545" data-name="Path 6545" d="M217.25,97.866a30.126,30.126,0,0,0,4.26-30.2.791.791,0,0,0-1.077-.432.975.975,0,0,0-.534,1.279A28.332,28.332,0,0,1,215,97.737c-6.441,7.361-16.673,11.336-27.347,10.692a22.811,22.811,0,0,0-1.84-6.993.764.764,0,0,0-.635-.5.969.969,0,0,0-.966,1.325,20.649,20.649,0,0,1-1.84,19.811.837.837,0,0,0,.239,1.2,1.086,1.086,0,0,0,.561.166.92.92,0,0,0,.755-.4,22.388,22.388,0,0,0,3.819-12.79C199.353,110.923,210.634,106.193,217.25,97.866Z" transform="translate(-17.698 -5.359)" fill="#263238"/>
        <path id="Path_6546" data-name="Path 6546" d="M206.378,271.607a.92.92,0,0,0-.865.212,15.011,15.011,0,0,0-1.573,1.758,44.7,44.7,0,0,1-10.324-42.769,13.866,13.866,0,0,0,3.4,1.307.856.856,0,0,0,.865-.248.92.92,0,0,0,.23-.92.819.819,0,0,0-.626-.58,11.668,11.668,0,0,1-7.407-5.392.92.92,0,0,0-1.261-.285.856.856,0,0,0-.3,1.215,13.738,13.738,0,0,0,3.552,3.911,1.288,1.288,0,0,0-.138.276,46.478,46.478,0,0,0,10.978,45.088,14.06,14.06,0,0,0-1.776,5.963.819.819,0,0,0,.791.92h.064a.92.92,0,0,0,.92-.865,11.963,11.963,0,0,1,1.794-5.521,1.168,1.168,0,0,0,.147-.23,12.415,12.415,0,0,1,1.9-2.282.847.847,0,0,0,.258-.819A.994.994,0,0,0,206.378,271.607Z" transform="translate(-18.161 -17.924)" fill="#263238"/>
        <path id="Path_6547" data-name="Path 6547" d="M167.53,70.409a.925.925,0,1,0-1.84-.055c-.782,64.476-.626,129.6-.377,184.788q.129,26.1.267,52.192a.92.92,0,0,0,.92.985h0a.92.92,0,0,0,.92-.985c-.322-60.529-.663-123.128-.34-184.779C167.171,104.833,167.328,87.267,167.53,70.409Z" transform="translate(-15.836 -5.535)" fill="#263238"/>
        <rect id="Rectangle_1597" data-name="Rectangle 1597" width="79.917" height="13.361" rx="3.9" transform="translate(111.713 301.918)" fill="#263238"/>
        <path id="Path_6548" data-name="Path 6548" d="M206.541,328.11H190.724a85.764,85.764,0,0,1-3.184,13.361h19a2.374,2.374,0,0,0,2.365-2.374v-8.622A2.365,2.365,0,0,0,206.541,328.11Z" transform="translate(-18.095 -26.192)" fill="#1d262a" opacity="0.3"/>
        <rect id="Rectangle_1598" data-name="Rectangle 1598" width="66.988" height="13.361" rx="3.9" transform="translate(118.104 317.092)" fill="#263238"/>
        <path id="Path_6549" data-name="Path 6549" d="M199.479,344.6H186.32a76.034,76.034,0,0,1-6.22,13.361h19.379a2.365,2.365,0,0,0,2.374-2.365v-8.622A2.374,2.374,0,0,0,199.479,344.6Z" transform="translate(-17.379 -27.508)" fill="#1d262a" opacity="0.3"/>
        <rect id="Rectangle_1599" data-name="Rectangle 1599" width="56.121" height="13.361" rx="3.9" transform="translate(123.487 332.275)" fill="#263238"/>
        <path id="Path_6550" data-name="Path 6550" d="M192.975,361.1H177.9a66.106,66.106,0,0,1-6.607,8.751,57.881,57.881,0,0,1-4.656,4.6h26.335a2.374,2.374,0,0,0,2.365-2.374v-8.622A2.365,2.365,0,0,0,192.975,361.1Z" transform="translate(-16.114 -28.825)" fill="#1d262a" opacity="0.3"/>
      </g>
    </g>
  </g>
</svg>
