<svg xmlns="http://www.w3.org/2000/svg" width="586.288" height="591.853" viewBox="0 0 586.288 591.853">
  <g id="Layer_2" data-name="Layer 2" transform="translate(0)">
    <g id="Background_Complete" data-name="Background Complete" transform="translate(166.465)">
      <path id="Path_9382" data-name="Path 9382" d="M167.71,93.347h72.728V0H186.445L167.71,17.785Z" transform="translate(-58.284)" fill="#ebebeb"/>
      <path id="Path_9383" data-name="Path 9383" d="M224.545,0,205.81,17.785h18.735Z" transform="translate(-96.384)" fill="#dbdbdb"/>
      <rect id="Rectangle_2346" data-name="Rectangle 2346" width="40.431" height="2.395" transform="translate(134.623 15.674)" fill="#dbdbdb"/>
      <rect id="Rectangle_2347" data-name="Rectangle 2347" width="40.431" height="2.395" transform="translate(134.623 21.725)" fill="#dbdbdb"/>
      <rect id="Rectangle_2348" data-name="Rectangle 2348" width="40.431" height="2.395" transform="translate(134.623 27.762)" fill="#dbdbdb"/>
      <rect id="Rectangle_2349" data-name="Rectangle 2349" width="59.236" height="2.395" transform="translate(115.818 33.813)" fill="#dbdbdb"/>
      <rect id="Rectangle_2350" data-name="Rectangle 2350" width="59.236" height="2.395" transform="translate(115.818 39.864)" fill="#dbdbdb"/>
      <rect id="Rectangle_2351" data-name="Rectangle 2351" width="59.236" height="2.395" transform="translate(115.818 45.915)" fill="#dbdbdb"/>
      <rect id="Rectangle_2352" data-name="Rectangle 2352" width="59.236" height="2.395" transform="translate(115.818 51.966)" fill="#dbdbdb"/>
      <rect id="Rectangle_2353" data-name="Rectangle 2353" width="59.236" height="2.395" transform="translate(115.818 58.018)" fill="#dbdbdb"/>
      <rect id="Rectangle_2354" data-name="Rectangle 2354" width="59.236" height="2.395" transform="translate(115.818 64.069)" fill="#dbdbdb"/>
      <rect id="Rectangle_2355" data-name="Rectangle 2355" width="59.236" height="2.395" transform="translate(115.818 70.106)" fill="#dbdbdb"/>
      <rect id="Rectangle_2356" data-name="Rectangle 2356" width="59.236" height="2.395" transform="translate(115.818 76.157)" fill="#dbdbdb"/>
      <rect id="Rectangle_2357" data-name="Rectangle 2357" width="59.236" height="2.395" transform="translate(115.818 82.208)" fill="#dbdbdb"/>
      <ellipse id="Ellipse_368" data-name="Ellipse 368" cx="12.754" cy="12.754" rx="12.754" ry="12.754" transform="matrix(-0.923, -0.385, 0.385, -0.923, 116.292, 106.737)" fill="#c7c7c7"/>
      <rect id="Rectangle_2358" data-name="Rectangle 2358" width="12.641" height="11.479" transform="translate(103.106 86.842)" fill="#fff"/>
      <path id="Path_9384" data-name="Path 9384" d="M215.46,66.779h1.29v-5.13a3.77,3.77,0,0,1,7.539,0v5.13h1.29v-5.13a5.059,5.059,0,0,0-10.118,0Z" transform="translate(-111.093 23.606)" fill="#fff"/>
      <path id="Path_9385" data-name="Path 9385" d="M218.729,66.006l-.539,2.508h2.253l-.539-2.508a1.119,1.119,0,0,0,.539-.949,1.134,1.134,0,0,0-2.253,0,1.119,1.119,0,0,0,.539.949Z" transform="translate(-109.826 26.717)" fill="#c7c7c7"/>
      <path id="Path_9386" data-name="Path 9386" d="M194.348,94.686l-.2,72.628a7.341,7.341,0,0,0,7.327,7.369l115.2.312a7.369,7.369,0,0,0,7.369-7.341l.184-72.628a6.845,6.845,0,0,0-6.873-6.859l-116.205-.3A6.831,6.831,0,0,0,194.348,94.686Z" transform="translate(-179.544 36.654)" fill="#ebebeb"/>
      <path id="Path_9387" data-name="Path 9387" d="M263.17,138.726a6.76,6.76,0,1,0,6.788-6.746,6.76,6.76,0,0,0-6.788,6.746Z" transform="translate(-229.816 55.054)" fill="#dbdbdb"/>
      <path id="Path_9388" data-name="Path 9388" d="M269.04,138.7a6.76,6.76,0,1,0,6.774-6.7A6.76,6.76,0,0,0,269.04,138.7Z" transform="translate(-244.004 55.062)" fill="#dc2626"/>
      <rect id="Rectangle_2359" data-name="Rectangle 2359" width="24.375" height="16.85" rx="4.2" transform="translate(133.709 154.129) rotate(-179.85)" fill="#263238"/>
      <path id="Path_9389" data-name="Path 9389" d="M268.786,105.92h11.04a4.62,4.62,0,0,0,4.634-4.606h0a4.634,4.634,0,0,0-4.606-4.634H268.814a4.634,4.634,0,0,0-4.634,4.62h0a4.606,4.606,0,0,0,4.606,4.62Z" transform="translate(-239.017 40.329)" fill="#fff"/>
      <rect id="Rectangle_2360" data-name="Rectangle 2360" width="61.674" height="3.033" transform="translate(133.613 191.003) rotate(-179.85)" fill="#dbdbdb"/>
      <rect id="Rectangle_2361" data-name="Rectangle 2361" width="43.662" height="3.033" transform="translate(133.595 197.734) rotate(-179.85)" fill="#dbdbdb"/>
      <rect id="Rectangle_2362" data-name="Rectangle 2362" width="30.766" height="3.033" transform="translate(80.433 140.173) rotate(-179.85)" fill="#dbdbdb"/>
      <rect id="Rectangle_2363" data-name="Rectangle 2363" width="0.425" height="4.606" transform="translate(130.896 171.672)" fill="#c7c7c7"/>
      <rect id="Rectangle_2364" data-name="Rectangle 2364" width="4.606" height="0.425" transform="translate(128.799 173.755)" fill="#c7c7c7"/>
      <rect id="Rectangle_2365" data-name="Rectangle 2365" width="4.62" height="0.425" transform="translate(132.59 175.735) rotate(-135)" fill="#c7c7c7"/>
      <rect id="Rectangle_2366" data-name="Rectangle 2366" width="0.425" height="4.62" transform="translate(129.609 175.769) rotate(-135)" fill="#c7c7c7"/>
      <rect id="Rectangle_2367" data-name="Rectangle 2367" width="0.425" height="4.606" transform="translate(125.341 171.672)" fill="#c7c7c7"/>
      <rect id="Rectangle_2368" data-name="Rectangle 2368" width="4.606" height="0.425" transform="translate(123.258 173.755)" fill="#c7c7c7"/>
      <rect id="Rectangle_2369" data-name="Rectangle 2369" width="4.606" height="0.425" transform="translate(127.042 175.756) rotate(-135)" fill="#c7c7c7"/>
      <rect id="Rectangle_2370" data-name="Rectangle 2370" width="0.425" height="4.606" transform="matrix(-0.707, -0.707, 0.707, -0.707, 124.078, 175.745)" fill="#c7c7c7"/>
      <rect id="Rectangle_2371" data-name="Rectangle 2371" width="0.425" height="4.606" transform="translate(119.8 171.672)" fill="#c7c7c7"/>
      <rect id="Rectangle_2372" data-name="Rectangle 2372" width="4.606" height="0.425" transform="translate(117.702 173.755)" fill="#c7c7c7"/>
      <path id="Path_9390" data-name="Path 9390" d="M213.569,125.067l.3-.3-3.259-3.259-.3.3Z" transform="translate(-92.083 50.686)" fill="#c7c7c7"/>
      <path id="Path_9391" data-name="Path 9391" d="M210.608,125.067l3.259-3.259-.3-.3-3.259,3.259Z" transform="translate(-92.083 50.686)" fill="#c7c7c7"/>
      <rect id="Rectangle_2373" data-name="Rectangle 2373" width="0.425" height="4.606" transform="translate(114.245 171.672)" fill="#c7c7c7"/>
      <rect id="Rectangle_2374" data-name="Rectangle 2374" width="4.606" height="0.425" transform="translate(112.161 173.755)" fill="#c7c7c7"/>
      <path id="Path_9392" data-name="Path 9392" d="M217.494,125.067l.3-.3-3.259-3.259-.312.3Z" transform="translate(-101.548 50.686)" fill="#c7c7c7"/>
      <path id="Path_9393" data-name="Path 9393" d="M214.532,125.067l3.259-3.259-.3-.3-3.274,3.259Z" transform="translate(-101.548 50.686)" fill="#c7c7c7"/>
      <rect id="Rectangle_2375" data-name="Rectangle 2375" width="0.425" height="4.606" transform="translate(102.142 171.672)" fill="#c7c7c7"/>
      <rect id="Rectangle_2376" data-name="Rectangle 2376" width="4.606" height="0.425" transform="translate(100.045 173.755)" fill="#c7c7c7"/>
      <path id="Path_9394" data-name="Path 9394" d="M226.029,125.067l.3-.3-3.259-3.259-.3.3Z" transform="translate(-122.201 50.686)" fill="#c7c7c7"/>
      <path id="Path_9395" data-name="Path 9395" d="M223.068,125.067l3.259-3.259-.3-.3-3.259,3.259Z" transform="translate(-122.201 50.686)" fill="#c7c7c7"/>
      <rect id="Rectangle_2377" data-name="Rectangle 2377" width="0.425" height="4.606" transform="translate(96.587 171.672)" fill="#c7c7c7"/>
      <rect id="Rectangle_2378" data-name="Rectangle 2378" width="4.606" height="0.425" transform="translate(94.504 173.755)" fill="#c7c7c7"/>
      <path id="Path_9396" data-name="Path 9396" d="M229.939,125.067l.312-.3-3.274-3.259-.3.3Z" transform="translate(-131.666 50.686)" fill="#c7c7c7"/>
      <path id="Path_9397" data-name="Path 9397" d="M226.978,125.067l3.274-3.259-.312-.3-3.259,3.259Z" transform="translate(-131.666 50.686)" fill="#c7c7c7"/>
      <rect id="Rectangle_2379" data-name="Rectangle 2379" width="0.425" height="4.606" transform="translate(91.032 171.672)" fill="#c7c7c7"/>
      <rect id="Rectangle_2380" data-name="Rectangle 2380" width="4.606" height="0.425" transform="translate(88.949 173.755)" fill="#c7c7c7"/>
      <path id="Path_9398" data-name="Path 9398" d="M233.859,125.067l.3-.3L230.9,121.51l-.3.3Z" transform="translate(-141.127 50.686)" fill="#c7c7c7"/>
      <path id="Path_9399" data-name="Path 9399" d="M230.9,125.067l3.259-3.259-.3-.3-3.259,3.259Z" transform="translate(-141.127 50.686)" fill="#c7c7c7"/>
      <rect id="Rectangle_2381" data-name="Rectangle 2381" width="0.425" height="4.606" transform="translate(85.491 171.672)" fill="#c7c7c7"/>
      <rect id="Rectangle_2382" data-name="Rectangle 2382" width="4.606" height="0.425" transform="translate(83.408 173.755)" fill="#c7c7c7"/>
      <path id="Path_9400" data-name="Path 9400" d="M237.769,125.067l.312-.3-3.259-3.259-.312.3Z" transform="translate(-150.592 50.686)" fill="#c7c7c7"/>
      <path id="Path_9401" data-name="Path 9401" d="M234.822,125.067l3.259-3.259-.312-.3-3.259,3.259Z" transform="translate(-150.592 50.686)" fill="#c7c7c7"/>
      <rect id="Rectangle_2383" data-name="Rectangle 2383" width="0.425" height="4.606" transform="translate(73.374 171.672)" fill="#c7c7c7"/>
      <rect id="Rectangle_2384" data-name="Rectangle 2384" width="4.606" height="0.425" transform="translate(71.291 173.755)" fill="#c7c7c7"/>
      <path id="Path_9402" data-name="Path 9402" d="M246.319,125.067l.3-.3-3.259-3.259-.3.3Z" transform="translate(-171.244 50.686)" fill="#c7c7c7"/>
      <path id="Path_9403" data-name="Path 9403" d="M243.358,125.067l3.259-3.259-.3-.3-3.259,3.259Z" transform="translate(-171.244 50.686)" fill="#c7c7c7"/>
      <rect id="Rectangle_2385" data-name="Rectangle 2385" width="0.425" height="4.606" transform="translate(67.833 171.672)" fill="#c7c7c7"/>
      <rect id="Rectangle_2386" data-name="Rectangle 2386" width="4.606" height="0.425" transform="translate(65.736 173.755)" fill="#c7c7c7"/>
      <path id="Path_9404" data-name="Path 9404" d="M250.239,125.067l.3-.3-3.259-3.259-.3.3Z" transform="translate(-180.72 50.686)" fill="#c7c7c7"/>
      <path id="Path_9405" data-name="Path 9405" d="M247.278,125.067l3.259-3.259-.3-.3-3.259,3.259Z" transform="translate(-180.72 50.686)" fill="#c7c7c7"/>
      <rect id="Rectangle_2387" data-name="Rectangle 2387" width="0.425" height="4.606" transform="translate(62.278 171.672)" fill="#c7c7c7"/>
      <rect id="Rectangle_2388" data-name="Rectangle 2388" width="4.606" height="0.425" transform="translate(60.195 173.755)" fill="#c7c7c7"/>
      <path id="Path_9406" data-name="Path 9406" d="M254.164,125.067l.3-.3L251.2,121.51l-.312.3Z" transform="translate(-190.185 50.686)" fill="#c7c7c7"/>
      <path id="Path_9407" data-name="Path 9407" d="M251.2,125.067l3.259-3.259-.3-.3-3.274,3.259Z" transform="translate(-190.185 50.686)" fill="#c7c7c7"/>
      <rect id="Rectangle_2389" data-name="Rectangle 2389" width="0.425" height="4.606" transform="translate(56.737 171.672)" fill="#c7c7c7"/>
      <rect id="Rectangle_2390" data-name="Rectangle 2390" width="4.606" height="0.425" transform="translate(54.64 173.755)" fill="#c7c7c7"/>
      <path id="Path_9408" data-name="Path 9408" d="M258.069,125.067l.3-.3-3.259-3.259-.3.3Z" transform="translate(-199.646 50.686)" fill="#c7c7c7"/>
      <path id="Path_9409" data-name="Path 9409" d="M255.108,125.067l3.259-3.259-.3-.3-3.259,3.259Z" transform="translate(-199.646 50.686)" fill="#c7c7c7"/>
      <rect id="Rectangle_2391" data-name="Rectangle 2391" width="0.425" height="4.606" transform="translate(44.621 171.672)" fill="#c7c7c7"/>
      <rect id="Rectangle_2392" data-name="Rectangle 2392" width="4.606" height="0.425" transform="translate(42.537 173.755)" fill="#c7c7c7"/>
      <path id="Path_9410" data-name="Path 9410" d="M266.609,125.067l.312-.3-3.259-3.259-.312.3Z" transform="translate(-220.302 50.686)" fill="#c7c7c7"/>
      <path id="Path_9411" data-name="Path 9411" d="M263.662,125.067l3.259-3.259-.312-.3-3.259,3.259Z" transform="translate(-220.302 50.686)" fill="#c7c7c7"/>
      <rect id="Rectangle_2393" data-name="Rectangle 2393" width="0.425" height="4.606" transform="translate(39.08 171.672)" fill="#c7c7c7"/>
      <rect id="Rectangle_2394" data-name="Rectangle 2394" width="4.606" height="0.425" transform="translate(36.982 173.755)" fill="#c7c7c7"/>
      <path id="Path_9412" data-name="Path 9412" d="M270.529,125.067l.3-.3-3.259-3.259-.3.3Z" transform="translate(-229.763 50.686)" fill="#c7c7c7"/>
      <path id="Path_9413" data-name="Path 9413" d="M267.568,125.067l3.259-3.259-.3-.3-3.259,3.259Z" transform="translate(-229.763 50.686)" fill="#c7c7c7"/>
      <rect id="Rectangle_2395" data-name="Rectangle 2395" width="0.425" height="4.606" transform="translate(33.525 171.672)" fill="#c7c7c7"/>
      <rect id="Rectangle_2396" data-name="Rectangle 2396" width="4.606" height="0.425" transform="translate(31.441 173.755)" fill="#c7c7c7"/>
      <path id="Path_9414" data-name="Path 9414" d="M274.439,125.067l.312-.3-3.274-3.259-.3.3Z" transform="translate(-239.229 50.686)" fill="#c7c7c7"/>
      <path id="Path_9415" data-name="Path 9415" d="M271.478,125.067l3.274-3.259-.312-.3-3.259,3.259Z" transform="translate(-239.229 50.686)" fill="#c7c7c7"/>
      <rect id="Rectangle_2397" data-name="Rectangle 2397" width="0.425" height="4.606" transform="translate(27.969 171.672)" fill="#c7c7c7"/>
      <rect id="Rectangle_2398" data-name="Rectangle 2398" width="4.606" height="0.425" transform="translate(25.886 173.755)" fill="#c7c7c7"/>
      <path id="Path_9416" data-name="Path 9416" d="M278.359,125.067l.3-.3L275.4,121.51l-.3.3Z" transform="translate(-248.69 50.686)" fill="#c7c7c7"/>
      <path id="Path_9417" data-name="Path 9417" d="M275.4,125.067l3.259-3.259-.3-.3-3.259,3.259Z" transform="translate(-248.69 50.686)" fill="#c7c7c7"/>
      <ellipse id="Ellipse_369" data-name="Ellipse 369" cx="12.754" cy="12.754" rx="12.754" ry="12.754" transform="translate(4.096 225.905) rotate(-99.24)" fill="#c7c7c7"/>
      <rect id="Rectangle_2399" data-name="Rectangle 2399" width="12.641" height="11.479" transform="translate(8.285 208.064)" fill="#fff"/>
      <path id="Path_9418" data-name="Path 9418" d="M282.37,152.319h1.29v-5.13a3.77,3.77,0,0,1,7.539,0v5.13h1.29v-5.13a5.059,5.059,0,0,0-10.118,0Z" transform="translate(-272.823 59.288)" fill="#fff"/>
      <path id="Path_9419" data-name="Path 9419" d="M285.641,151.65l-.539,2.508h2.253l-.539-2.508a1.119,1.119,0,0,0,.539-.949,1.134,1.134,0,1,0-2.253,0,1.119,1.119,0,0,0,.538.949Z" transform="translate(-271.559 62.337)" fill="#c7c7c7"/>
      <rect id="Rectangle_2400" data-name="Rectangle 2400" width="87.225" height="63.275" transform="translate(219.144 40.922) rotate(-9.5)" fill="#ebebeb"/>
      <rect id="Rectangle_2401" data-name="Rectangle 2401" width="79.984" height="56.02" transform="translate(223.305 43.89) rotate(-9.5)" fill="#fff"/>
      <path id="Path_9420" data-name="Path 9420" d="M100.737,35.453a6.618,6.618,0,1,1-7.568-5.428,6.618,6.618,0,0,1,7.568,5.428Z" transform="translate(194.859 12.489)" fill="#dbdbdb"/>
      <path id="Path_9421" data-name="Path 9421" d="M146.485,64.061,102.61,71.4,119.573,38Z" transform="translate(127.925 15.851)" fill="#dbdbdb"/>
      <path id="Path_9422" data-name="Path 9422" d="M126.692,59.175,90.47,65.241,105.336,42.85Z" transform="translate(164.922 17.874)" fill="#ebebeb"/>
      <rect id="Rectangle_2402" data-name="Rectangle 2402" width="79.984" height="12.074" transform="translate(311.428 85.949) rotate(170.5)" fill="#ebebeb"/>
      <rect id="Rectangle_2403" data-name="Rectangle 2403" width="87.225" height="63.275" transform="translate(253.11 45.377)" fill="#ebebeb"/>
      <rect id="Rectangle_2404" data-name="Rectangle 2404" width="79.983" height="56.019" transform="translate(256.724 49.005)" fill="#fff"/>
      <path id="Path_9423" data-name="Path 9423" d="M78.514,47.762A6.632,6.632,0,1,1,71.9,41.13a6.632,6.632,0,0,1,6.618,6.632Z" transform="translate(248.839 17.157)" fill="#dbdbdb"/>
      <path id="Path_9424" data-name="Path 9424" d="M128.194,74.463H83.71L105.945,44.32Z" transform="translate(173 18.488)" fill="#dbdbdb"/>
      <path id="Path_9425" data-name="Path 9425" d="M108.128,71.377H71.41L89.762,51.75Z" transform="translate(210.496 21.587)" fill="#ebebeb"/>
      <rect id="Rectangle_2405" data-name="Rectangle 2405" width="79.983" height="12.074" transform="translate(256.724 92.95)" fill="#ebebeb"/>
      <rect id="Rectangle_2406" data-name="Rectangle 2406" width="125.048" height="173.047" transform="translate(205.182 345.512)" fill="#ebebeb"/>
      <rect id="Rectangle_2407" data-name="Rectangle 2407" width="137.165" height="6.42" transform="translate(199.131 339.093)" fill="#dbdbdb"/>
      <rect id="Rectangle_2408" data-name="Rectangle 2408" width="43.138" height="6.42" transform="translate(155.994 339.093)" fill="#ebebeb"/>
      <rect id="Rectangle_2409" data-name="Rectangle 2409" width="42.372" height="173.047" transform="translate(162.824 345.512)" fill="#dbdbdb"/>
      <path id="Path_9426" data-name="Path 9426" d="M72.7,316.675h98.208v-55.5H72.7Zm97.783-.354H73.026V261.534h97.457Z" transform="translate(145.889 108.948)" fill="#c7c7c7"/>
      <rect id="Rectangle_2410" data-name="Rectangle 2410" width="19.103" height="10.983" transform="translate(262.307 386.354)" fill="#c7c7c7"/>
      <path id="Path_9427" data-name="Path 9427" d="M101.53,282.769h19.457V273.09H101.53Zm19.1-.354H101.9v-8.97h18.735Z" transform="translate(154.953 113.916)" fill="#c7c7c7"/>
      <path id="Path_9428" data-name="Path 9428" d="M72.7,365.835h98.208v-55.5H72.7Zm97.783-.354H73.026V310.694h97.457Z" transform="translate(145.889 129.454)" fill="#c7c7c7"/>
      <rect id="Rectangle_2411" data-name="Rectangle 2411" width="19.103" height="10.983" transform="translate(262.307 456.021)" fill="#c7c7c7"/>
      <path id="Path_9429" data-name="Path 9429" d="M101.53,331.929h19.457V322.25H101.53Zm19.1-.354H101.9V322.6h18.735Z" transform="translate(154.953 134.423)" fill="#c7c7c7"/>
    </g>
    <g id="Floor" transform="translate(12.12 517.907)">
      <path id="Path_9430" data-name="Path 9430" d="M570.726,366.154l-70.3-.34-70.318-.128-140.623-.227-140.608.227-70.318.128-70.3.34,70.3.354,70.318.128,140.608.227,140.623-.227,70.318-.128Z" transform="translate(-8.25 -365.46)" fill="#263238"/>
    </g>
    <g id="Shadows" transform="translate(22.706 543.756)">
      <ellipse id="Ellipse_370" data-name="Ellipse 370" cx="62.751" cy="12.046" rx="62.751" ry="12.046" transform="translate(415.788 12.953)" fill="#ebebeb"/>
      <ellipse id="Ellipse_371" data-name="Ellipse 371" cx="245.193" cy="24.049" rx="245.193" ry="24.049" transform="translate(0)" fill="#ebebeb"/>
    </g>
    <g id="Character" transform="translate(0 68.572)">
      <path id="Path_9431" data-name="Path 9431" d="M246.5,252.65l4.138,24.772,27.974,151.109h4.506L262.783,277.422l-3.018-24.772Z" transform="translate(-46.156 36.817)" fill="#c7c7c7"/>
      <path id="Path_9432" data-name="Path 9432" d="M274.114,252.65H260.85l4.138,24.772h12.145Z" transform="translate(-60.506 36.817)" fill="#a6a6a6"/>
      <path id="Path_9433" data-name="Path 9433" d="M308.5,428.531h4.506l27.974-151.109,4.138-24.772H331.854l-3.018,24.772Z" transform="translate(-196.018 36.817)" fill="#c7c7c7"/>
      <path id="Path_9434" data-name="Path 9434" d="M311.518,252.65,308.5,277.422h12.145l4.138-24.772Z" transform="translate(-175.682 36.817)" fill="#a1a1a1"/>
      <path id="Path_9435" data-name="Path 9435" d="M367.73,428.531h4.506l27.989-151.109,4.124-24.772H391.084l-3,24.772Z" transform="translate(-339.185 36.817)" fill="#c7c7c7"/>
      <path id="Path_9436" data-name="Path 9436" d="M367.73,277.422h12.145L384,252.65H370.734Z" transform="translate(-318.835 36.817)" fill="#a1a1a1"/>
      <path id="Path_9437" data-name="Path 9437" d="M264.374,333.133H469.406v-21.6H392.654L352.69,87.6H243.84Z" transform="translate(-228.673 -32.031)" fill="#979898"/>
      <path id="Path_9438" data-name="Path 9438" d="M244.62,245.62H448.772v21.6H243.84Z" transform="translate(-208.04 33.885)" fill="#656f74"/>
      <path id="Path_9439" data-name="Path 9439" d="M401.164,333.133h11.181L391.273,87.6H380.63Z" transform="translate(-365.463 -32.031)" fill="#656f74"/>
      <path id="Path_9440" data-name="Path 9440" d="M346.138,72.61C349.284,69.1,362.166,59.43,373.4,54.1c5.428-2.579,21.781-8.347,24.091-4.336s-2.324,6.122-2.324,6.122,7.27-1.417,9.226,2.834-5.385,7.3-5.385,7.3,7.582-.893,9.226,3.472S402,75.7,402,75.7s6.887-1.134,6.731,3.033c-.2,5.017-13.137,5.669-18.99,8.857-1.332.709-25.891,16.439-25.891,16.439Z" transform="translate(-312.974 -48.388)" fill="#eb9481"/>
      <path id="Path_9441" data-name="Path 9441" d="M372.216,67.934c-9.509.51-13.576,2.381-21.257,7.808-.142.113-.34-.085-.184-.213,7-5.994,11.762-9.084,21.413-8.064C372.768,67.523,372.74,67.906,372.216,67.934Z" transform="translate(-283.344 -40.51)" fill="#263238"/>
      <path id="Path_9442" data-name="Path 9442" d="M375.4,60.872c-9.835,1.417-14.271,3.387-22.674,8.5-.113,0-.255-.128-.142-.213,7.851-5.669,12.754-8.659,22.674-8.772C375.7,60.376,375.838,60.8,375.4,60.872Z" transform="translate(-288.979 -43.381)" fill="#263238"/>
      <path id="Path_9443" data-name="Path 9443" d="M378.223,53.875c-9.424,2.041-14.37,4.01-21.923,10a.175.175,0,1,1-.241-.255c7.086-6.873,13.279-9.381,22.079-10.033C378.733,53.549,378.818,53.748,378.223,53.875Z" transform="translate(-296.847 -46.22)" fill="#263238"/>
      <path id="Path_9444" data-name="Path 9444" d="M360.078,99.252s11.833-1.5,16.892-3.316,21.413-15.489,18.664-19.188c-3.557-4.776-14.554,1.261-19.556,4.917,0,0-8.219-11.054-17.006-8.5S360.078,99.252,360.078,99.252Z" transform="translate(-313.323 -38.213)" fill="#eb9481"/>
      <path id="Path_9445" data-name="Path 9445" d="M391.739,75.89c-6.391-2.027-12.641,3.2-17.757,6.391a.553.553,0,0,1-.85-.312c-3.755-4.407-10.331-9.523-16.41-8.928a.142.142,0,1,1,0-.283c6.434-1.516,13.307,2.99,17.1,8.078,5.2-3.359,11.691-8.333,17.983-5.017C391.8,75.847,391.782,75.9,391.739,75.89Z" transform="translate(-310.845 -38.347)" fill="#263238"/>
      <path id="Path_9446" data-name="Path 9446" d="M369.563,59.131c-4.251-1.885-20.761-6.9-33.133-7.227-6.009-.156-23.3,1.219-23.765,5.824s4.62,4.634,4.62,4.634-7.227,1.686-7.284,6.349,7.823,4.592,7.823,4.592-7.284,2.253-7,6.916,8.205,3.146,8.205,3.146-6.76,1.757-4.9,5.5c2.211,4.507,14.313-.142,20.931.368,1.516.113,30.355,4.507,30.355,4.507Z" transform="translate(-222.588 -46.926)" fill="#eb9481"/>
      <path id="Path_9447" data-name="Path 9447" d="M329.936,75.217c8.9-3.387,13.378-3.33,22.575-1.417.17,0,.269-.213.085-.269-8.829-2.636-14.441-3.515-22.844,1.332C329.326,75.089,329.511,75.387,329.936,75.217Z" transform="translate(-233.368 -38.794)" fill="#263238"/>
      <path id="Path_9448" data-name="Path 9448" d="M329.993,67.979c9.552-2.721,14.412-2.707,24.191-1.417a.12.12,0,1,0,0-.241c-9.481-2.012-15.107-2.834-24.29,1.2C329.512,67.6,329.554,68.05,329.993,67.979Z" transform="translate(-235.155 -41.603)" fill="#263238"/>
      <path id="Path_9449" data-name="Path 9449" d="M329.681,59.929c9.438-1.956,14.767-2.168,24.091.241a.184.184,0,0,0,.1-.34c-9.268-3.387-15.929-3.16-24.233-.184C329.086,59.844,329.086,60.056,329.681,59.929Z" transform="translate(-234.233 -44.649)" fill="#263238"/>
      <path id="Path_9450" data-name="Path 9450" d="M350.392,90.8s-11.436,3.429-16.793,3.826-25.863-5.456-24.842-9.92c1.3-5.81,13.8-4.762,19.84-3.458,0,0,3-13.434,12.145-14.625S350.392,90.8,350.392,90.8Z" transform="translate(-201.603 -40.799)" fill="#eb9481"/>
      <path id="Path_9451" data-name="Path 9451" d="M315.64,83.352c5.017-4.436,12.853-2.2,18.834-1.417a.553.553,0,0,0,.638-.638c1.644-5.555,5.569-12.9,11.337-14.823a.142.142,0,1,0,0-.283c-6.49,1.233-10.94,8.134-12.343,14.327-6.108-.949-14.072-2.834-18.423,2.735Z" transform="translate(-207.608 -40.962)" fill="#263238"/>
      <path id="Path_9452" data-name="Path 9452" d="M292.783,144.295c32.424-8.744,83.469-38.064,78.793-52.179-4.563-13.718-23.695-28.059-48.183-35.684-3.571-1.12-2.834,6.377-4.478,19.429-.808,6.193-11.663,22.83-6.42,22.8a21.682,21.682,0,0,1,7.936,1.771c1.913.737-21.087,16.085-33.941,25.735C269.131,139.094,278.895,147.979,292.783,144.295Z" transform="translate(-178.402 -45.078)" fill="#eb9481"/>
      <path id="Path_9453" data-name="Path 9453" d="M365.045,118.014l-35.939-22.5s-21.583,13.123-26.926,20.378-1.134,15.135,15.589,15.163C336.985,131.066,365.045,118.014,365.045,118.014Z" transform="translate(-203.898 -28.732)" fill="#dc2626"/>
      <g id="Group_2716" data-name="Group 2716" transform="translate(96.127 70.633)" opacity="0.1">
        <path id="Path_9454" data-name="Path 9454" d="M318.68,100.3h18.664l-3.288-2.069H321.84Z" transform="translate(-298.796 -98.23)"/>
        <path id="Path_9455" data-name="Path 9455" d="M311,105.1h39.028l-3.3-2.069H313.763Z" transform="translate(-300.597 -96.228)"/>
        <path id="Path_9456" data-name="Path 9456" d="M303.37,109.889h57.366l-3.3-2.069H305.34A25.838,25.838,0,0,0,303.37,109.889Z" transform="translate(-300.492 -94.23)"/>
        <path id="Path_9457" data-name="Path 9457" d="M302.8,114.689H358.75c1.97-.765,3.7-1.417,5.1-2.069H303.07A7.085,7.085,0,0,0,302.8,114.689Z" transform="translate(-302.8 -92.227)"/>
        <path id="Path_9458" data-name="Path 9458" d="M315.95,117.42a10.685,10.685,0,0,0,2.834,2.055h30.1c2.523-.624,5.017-1.318,7.44-2.055Z" transform="translate(-313.908 -90.225)"/>
      </g>
      <path id="Path_9459" data-name="Path 9459" d="M337.781,119.5c-14.483-8.829-28.81-18.805-31.177-20.761-.113-.085,0-.227.128-.184a312.667,312.667,0,0,1,31.177,20.775.113.113,0,0,1-.128.17Z" transform="translate(-186.073 -27.466)" fill="#263238"/>
      <path id="Path_9460" data-name="Path 9460" d="M336.417,127.181a81.812,81.812,0,0,0,20.832-3.387c-9.4-6.306-20.563-13.746-28.74-19a43.747,43.747,0,0,0-7.7,7.242C315.486,119.259,319.68,127.167,336.417,127.181Z" transform="translate(-222.518 -24.86)" fill="#263238"/>
      <path id="Path_9461" data-name="Path 9461" d="M363.571,435.5c-3.982.368-112.549-25.508-115.979-29.009-.411-.383,1.715-10.26,4.861-23.709v-.269c1.956-8.5,33.586-77.532,33.586-77.532L356.4,324.607l-31.886,64.012s13.25,9.566,24.6,18.635h0c7.015,5.583,13.052,10.586,14.341,12.2C366.774,423.736,367.553,435.144,363.571,435.5Z" transform="translate(-130.774 58.646)" fill="#eb9481"/>
      <path id="Path_9462" data-name="Path 9462" d="M363.567,420.922c-3.982.383-112.549-25.508-115.979-28.98-.411-.411,1.729-10.26,4.861-23.723v-.255c.723-3.189,5.6-14.781,11.337-28.074,11.578,3.118,53.086,14.327,68.164,19l-7.44,15.163s13.236,9.566,24.6,18.65h0c7.015,5.569,13.066,10.586,14.341,12.2C366.769,409.188,367.563,420.6,363.567,420.922Z" transform="translate(-130.77 73.209)" fill="#ebebeb"/>
      <path id="Path_9463" data-name="Path 9463" d="M363.755,416.891c-4.1.354-112.747-25.792-116.205-29.42-1.346-1.417,1.063-18.508,7-36.661l70.021,16.935s35.769,28.343,39.2,32.693S367.865,416.537,363.755,416.891Z" transform="translate(-130.604 77.764)" fill="#263238"/>
      <path id="Path_9464" data-name="Path 9464" d="M359.328,401.769c-18.1-4.832-91.575-22.674-109.842-26.019-.142,0-.17.085,0,.128,17.842,5.173,91.462,22.362,109.8,26.189C359.64,402.151,359.711,401.868,359.328,401.769Z" transform="translate(-126.688 88.167)" fill="#455a64"/>
      <path id="Path_9465" data-name="Path 9465" d="M271.847,382.03a15.107,15.107,0,0,0-11.961,1.828,14.6,14.6,0,0,0-6.42,8.744.114.114,0,0,0,.227,0,17.374,17.374,0,0,1,18.1-10.388.128.128,0,0,0,.057-.184Z" transform="translate(-44.775 90.574)" fill="#455a64"/>
      <path id="Path_9466" data-name="Path 9466" d="M295.307,365.29c-7.27-1.856-16.34-1.318-22.306,3.557-.227.184,0,.51.283.453a103.08,103.08,0,0,1,21.923-3.075.482.482,0,0,0,.1-.935Z" transform="translate(-96.096 83.393)" fill="#455a64"/>
      <path id="Path_9467" data-name="Path 9467" d="M291.689,367.821c-7.256-1.856-16.325-1.318-22.292,3.543-.241.2,0,.524.283.453a104.67,104.67,0,0,1,21.923-3.075.468.468,0,0,0,.085-.921Z" transform="translate(-87.391 84.448)" fill="#455a64"/>
      <path id="Path_9468" data-name="Path 9468" d="M288.045,370.29c-7.256-1.856-16.34-1.318-22.292,3.557-.241.184,0,.51.283.453a102.829,102.829,0,0,1,22.008-3.033.489.489,0,0,0,0-.978Z" transform="translate(-78.716 85.478)" fill="#455a64"/>
      <path id="Path_9469" data-name="Path 9469" d="M284.514,372.819c-7.27-1.842-16.34-1.318-22.306,3.557-.227.2,0,.51.283.453a104.01,104.01,0,0,1,21.937-3.075.482.482,0,0,0,.085-.935Z" transform="translate(-70.013 86.535)" fill="#455a64"/>
      <path id="Path_9470" data-name="Path 9470" d="M325.287,364.4c-8.177-1.956-11.224,10.77-3.018,12.754S333.492,366.341,325.287,364.4Z" transform="translate(-193.688 83.348)" fill="#455a64"/>
      <path id="Path_9471" data-name="Path 9471" d="M282.821,363.845c-5.144,4.124-11.918,5.881-17.969,8.219-.624.241-1.134-.354-1.162-.907a.2.2,0,0,1-.184-.269,39.425,39.425,0,0,1,11.11-17.006c3.047-2.636,8.4-4.506,11.337-.553C288.773,357.028,285.839,361.436,282.821,363.845Zm1.8-5.966c1.176-8.106-7.44-3.727-9.608-1.7a42.085,42.085,0,0,0-3.84,4.251c-2.508,3.1-4.535,6.5-6.717,9.821,2.905-1.332,5.9-2.409,8.857-3.628,3.514-1.474,10.657-4.308,11.309-8.744Z" transform="translate(-74.215 77.866)" fill="#455a64"/>
      <path id="Path_9472" data-name="Path 9472" d="M279.232,358.5c1.729-4.634,7.4-4.351,11.068-2.693a39.383,39.383,0,0,1,15.475,13.222.2.2,0,0,1-.1.3.907.907,0,0,1-.864,1.19c-6.476-.524-13.449-.3-19.571-2.834C281.669,366.249,277.616,362.862,279.232,358.5Zm15.929,9.211c3.174.34,6.349.524,9.509.978-3.019-2.565-5.924-5.258-9.2-7.525a42.523,42.523,0,0,0-4.9-3c-2.65-1.332-12.159-3.089-8.73,4.351C283.724,366.6,291.377,367.3,295.161,367.709Z" transform="translate(-114.713 79.387)" fill="#455a64"/>
      <path id="Path_9473" data-name="Path 9473" d="M347.727,432.431l-74.726-20s65.684-136.173,60.356-143.669c-2.65-3.741-72.671-6.9-94.4-26.472-28.215-25.423-7.681-62.354-7.681-62.354h78.311s-1.417,16.325,1.545,18.89c1.97,1.7,94.948,12.315,104.273,44.087C426.818,281.861,347.727,432.431,347.727,432.431Z" transform="translate(-147.78 6.487)" fill="#455a64"/>
      <path id="Path_9474" data-name="Path 9474" d="M338.815,356.125a47,47,0,0,0-6.136-2.31c-2.168-.751-4.336-1.5-6.519-2.225-4.251-1.417-8.6-2.749-12.938-4-8.744-2.522-17.5-5-26.3-7.284-4.591-1.19-14.426-3.784-15.036-3.7-.3,0-.368.539-.1.624,8.5,3.1,17.133,5.754,25.778,8.432s17.261,5.328,26,7.582c2.409.624,4.847,1.19,7.284,1.786a55.394,55.394,0,0,0,7.738,1.7C338.843,356.748,339.084,356.266,338.815,356.125Z" transform="translate(-137.564 71.84)" fill="#263238"/>
      <path id="Path_9475" data-name="Path 9475" d="M385.512,261.067c-1.53-1.417-3.883-1.63-5.853-2.012l-33.714-6.689c-10.515-2.083-21.087-3.982-31.546-6.335-8.659-1.941-17.459-4.464-24.842-9.424A36.377,36.377,0,0,1,274.763,216c-2.381-8.375-2.31-17.3-1.219-25.877.255-2.1.709-4.181,1.162-6.25a.128.128,0,0,0-.241,0c-3.344,15.957-4.152,34.578,7.482,47.715,5.669,6.405,13.6,10.317,21.753,12.924,9.183,2.962,18.834,4.507,28.343,6.391l33.728,6.661c5.4,1.063,10.9,1.941,16.255,3.231a5.47,5.47,0,0,1,2.905,1.417,4.252,4.252,0,0,1,.368,3.926c-.624,2.65-1.417,5.272-2.267,7.851C376.244,294.88,328.6,393.782,327.31,396.063c-.142.241.241.439.383.2,10.912-18.168,46.411-94.523,53.851-114.25a128.367,128.367,0,0,0,4.9-15.376C386.83,264.666,387.184,262.526,385.512,261.067Z" transform="translate(-186.358 8.093)" fill="#263238"/>
      <path id="Path_9476" data-name="Path 9476" d="M293.042,430.06c-3.727,1.488-115.185,7.171-119.451,4.762-.51-.255-1.247-10.331-2.012-24.091l-.567-13.009c-.184-4.393-57.564-68.349-57.564-68.349l80-4.832,48.92,71.509s15.39,5.456,28.839,10.969h0c8.29,3.387,15.5,6.49,17.19,7.7C292.815,417.887,296.755,428.643,293.042,430.06Z" transform="translate(130.997 66.806)" fill="#eb9481"/>
      <path id="Path_9477" data-name="Path 9477" d="M113.443,363.523c8.319,9.92,14.554,17.757,14.611,19.2l.581,13.009c.751,13.789,1.488,23.865,2,24.091,4.251,2.409,115.723-3.274,119.451-4.762s-.227-12.187-4.62-15.319c-1.672-1.19-8.885-4.251-17.176-7.681h0C214.84,386.552,199.45,381.1,199.45,381.1L185.278,360.42Z" transform="translate(173.956 81.772)" fill="#ebebeb"/>
      <path id="Path_9478" data-name="Path 9478" d="M236.576,409.917c-3.84,1.488-115.454,6.916-119.833,4.436-1.672-.935-4.181-18.054-3.585-37.172l71.962-3.4s42.287,17.119,46.766,20.35S240.416,408.429,236.576,409.917Z" transform="translate(187.945 87.345)" fill="#263238"/>
      <path id="Path_9479" data-name="Path 9479" d="M228.056,396.18c-18.735.453-94.254,4.039-112.733,5.909-.142,0-.142.113,0,.113,18.579,0,94.055-4.251,112.733-5.669C228.467,396.463,228.453,396.18,228.056,396.18Z" transform="translate(194.652 96.689)" fill="#455a64"/>
      <path id="Path_9480" data-name="Path 9480" d="M137.224,385.56a15.05,15.05,0,0,0-10.969,5.1,14.667,14.667,0,0,0-3.7,10.2c0,.1.213.1.227,0A17.388,17.388,0,0,1,137.239,385.8a.121.121,0,0,0-.014-.241Z" transform="translate(275.265 92.259)" fill="#455a64"/>
      <path id="Path_9481" data-name="Path 9481" d="M166.311,374.9c-7.5.255-16.042,3.33-20.407,9.679-.17.241.184.482.4.354a102.981,102.981,0,0,1,20.18-9.112.468.468,0,0,0-.17-.921Z" transform="translate(212.72 87.81)" fill="#455a64"/>
      <path id="Path_9482" data-name="Path 9482" d="M162.2,376.29c-7.5.255-16.056,3.33-20.407,9.679-.17.241.184.482.4.354a103.819,103.819,0,0,1,20.137-9.112.468.468,0,0,0-.128-.921Z" transform="translate(222.725 88.392)" fill="#455a64"/>
      <path id="Path_9483" data-name="Path 9483" d="M158.047,377.68c-7.482.269-16.042,3.33-20.393,9.679-.17.241.184.482.4.354a103.82,103.82,0,0,1,20.18-9.112.482.482,0,0,0-.184-.921Z" transform="translate(232.761 88.972)" fill="#455a64"/>
      <path id="Path_9484" data-name="Path 9484" d="M153.894,379.08c-7.5.255-16.042,3.316-20.407,9.665-.17.255.184.482.411.368a102.539,102.539,0,0,1,20.166-9.126.468.468,0,0,0-.17-.907Z" transform="translate(242.809 89.556)" fill="#455a64"/>
      <path id="Path_9485" data-name="Path 9485" d="M193.511,387.643c-8.4.439-7.752,13.491.666,13.066S201.915,387.218,193.511,387.643Z" transform="translate(120.374 93.124)" fill="#455a64"/>
      <path id="Path_9486" data-name="Path 9486" d="M156.245,371.87c-3.784,5.4-9.778,8.985-14.937,12.938a.907.907,0,0,1-1.417-.539c-.128,0-.255,0-.241-.213a39.241,39.241,0,0,1,5.867-19.471c2.182-3.387,6.8-6.689,10.756-3.727C160.043,363.665,158.456,368.71,156.245,371.87Zm0-6.221c-1.134-8.12-8.191-1.5-9.693,1.049a43.61,43.61,0,0,0-2.494,5.187,118.193,118.193,0,0,0-3.67,11.337c2.409-2.1,4.974-3.968,7.468-5.966,3-2.423,9.07-7.142,8.432-11.606Z" transform="translate(229.843 81.475)" fill="#455a64"/>
      <path id="Path_9487" data-name="Path 9487" d="M151.727,376.146c.34-4.917,5.867-6.25,9.849-5.669a39.326,39.326,0,0,1,18.564,8.333.2.2,0,0,1,0,.312.921.921,0,0,1-.5,1.417c-6.363,1.3-13,3.486-19.571,2.834C156.248,382.906,151.387,380.794,151.727,376.146Zm17.87,4.365c3.146-.567,6.235-1.29,9.4-1.729a117.63,117.63,0,0,0-10.94-4.634,42.409,42.409,0,0,0-5.555-1.516c-2.919-.539-12.527.453-7.086,6.632C158.317,382.608,165.856,381.191,169.6,380.511Z" transform="translate(190.983 85.915)" fill="#455a64"/>
      <path id="Path_9488" data-name="Path 9488" d="M467.3,441.406l-89.365,10.94s-88.4-105.761-95.529-112.79c-22.136-21.838-101.51-59.52-125.176-94.523-21.257-31.475.269-65.1.269-65.1h87.267a180.116,180.116,0,0,1-8.9,27.223s72.472,54.574,111.118,93.531C371.882,325.867,467.3,441.406,467.3,441.406Z" transform="translate(-90.534 6.483)" fill="#455a64"/>
      <path id="Path_9489" data-name="Path 9489" d="M328.995,195.241a41.835,41.835,0,0,0-7.454,2.154c-2.537.879-5.031,1.885-7.468,2.99a145.458,145.458,0,0,0-14.03,7.4c-.142.085,0,.283.128.213,4.79-2.31,9.736-4.379,14.667-6.335l7.086-2.834a76.073,76.073,0,0,0,7.213-2.933A.344.344,0,0,0,328.995,195.241Z" transform="translate(-168.16 12.869)" fill="#263238"/>
      <path id="Path_9490" data-name="Path 9490" d="M315.513,180.094c-1.12,3.94-2.112,7.936-3.373,11.847-.581,1.786-1.148,3.614-1.885,5.343-.624,1.417-1.545,3.132-3.259,3.415-2,.326-2.508-1.417-2.3-3.019a53.872,53.872,0,0,1,1.162-5.4c.482-2.055,2.834-12.032,2.834-12.088a.515.515,0,0,0-.085-.312.17.17,0,0,0-.184,0,87.174,87.174,0,0,0-3.33,9.764c-.539,1.9-1.063,3.812-1.6,5.669a9.084,9.084,0,0,0-.51,4.421,3.387,3.387,0,0,0,3.047,2.636,3.307,3.307,0,0,0-.213.383c-.2.383-.326.794-.5,1.19a12.766,12.766,0,0,0-.439,1.233,4.653,4.653,0,0,0-.128.609c0,.227,0,.453,0,.694a.328.328,0,1,0,.609.241,4.8,4.8,0,0,1,.383-.553,3.925,3.925,0,0,0,.312-.652q.212-.6.383-1.19c.113-.411.241-.808.34-1.2s0-.5.085-.737a4.507,4.507,0,0,0,2.324-.808,7.539,7.539,0,0,0,2.48-3.571c.652-1.63,1.176-3.33,1.686-5.017a74.245,74.245,0,0,0,2.919-12.754.389.389,0,0,0-.765-.142Z" transform="translate(-159.255 6.419)" fill="#455a64"/>
      <path id="Path_9491" data-name="Path 9491" d="M369.615,185.742c-.411,1.97-.694,3.954-1.219,5.9s-1.077,3.812-1.757,5.669a20.533,20.533,0,0,1-2.579,5.059,19.175,19.175,0,0,1-3.982,3.812,32.765,32.765,0,0,1-9.495,4.932,45.36,45.36,0,0,1-5.243,1.417c-.921.17-1.856.312-2.834.4a5.809,5.809,0,0,0-2.253.453.453.453,0,0,0,0,.779,8.319,8.319,0,0,0,4.138.255,31.285,31.285,0,0,0,4.436-.652,31.843,31.843,0,0,0,8.5-3.274,26.23,26.23,0,0,0,7.086-5.5,19.84,19.84,0,0,0,3.968-8.064,39.681,39.681,0,0,0,1.545-11.082.2.2,0,0,0-.312-.1Z" transform="translate(-265.508 8.89)" fill="#455a64"/>
      <path id="Path_9492" data-name="Path 9492" d="M238.173,355.164a58.708,58.708,0,0,0-7.227.3c-2.523.17-5.059.326-7.582.524-4.96.411-9.92.864-14.88,1.417-9.92,1.134-19.939,2.31-29.887,3.685-5.187.723-16.311,2.211-16.892,2.537a.326.326,0,0,0,.156.609c9.92-.51,19.84-1.417,29.831-2.409s19.84-1.913,29.76-3.3c2.735-.368,5.456-.822,8.177-1.233a68.029,68.029,0,0,0,8.616-1.5C238.456,355.731,238.513,355.192,238.173,355.164Z" transform="translate(118.95 79.575)" fill="#263238"/>
      <path id="Path_9493" data-name="Path 9493" d="M256.277,278.255c4.634,2.976,9.1,6.179,13.6,9.353a131.247,131.247,0,0,1,12.329,9.126,63.774,63.774,0,0,1,5.442,5.8l5.329,6.15q5.328,6.165,10.586,12.386,2.976,3.529,5.924,7.086c2.041,2.452,3.94,5.031,5.994,7.482.128.142-.1.354-.227.213-3.642-4.11-7.483-8.021-11.11-12.131s-7.27-8.234-10.841-12.386-6.8-8.177-10.473-11.989a84.219,84.219,0,0,0-12.216-9.58c-4.974-3.543-9.92-7.086-14.781-10.784C255.427,278.637,255.81,277.929,256.277,278.255Z" transform="translate(-91.546 47.463)" fill="#263238"/>
      <path id="Path_9494" data-name="Path 9494" d="M234.1,199.613c14.894,10.458,30.327,22.15,44.328,33.77s27.889,23.482,41.451,35.627q5.669,5.13,11.337,10.359c3.77,3.515,7.454,7.908,11.224,11.436.213.184-.1.482-.312.3-6.8-6.122-13.86-12.754-20.761-18.763s-13.746-11.9-20.648-17.813Q279.9,236.714,258.6,219.5c-7.893-6.377-17.091-12.839-24.814-19.429C233.488,199.854,233.828,199.429,234.1,199.613Z" transform="translate(-87.363 14.675)" fill="#263238"/>
      <path id="Path_9495" data-name="Path 9495" d="M219.9,189.451c.85-2.522,1.757-5.017,2.678-7.5,0-.142.283-.071.241,0-3.515,10.373-7.086,21-7.482,32.056A41.4,41.4,0,0,0,217.6,229.6a40.842,40.842,0,0,0,7.95,12.981c6.944,7.837,15.787,14,24.091,20.251q13.6,10.2,27.634,19.84c9.339,6.405,18.9,12.5,28.555,18.423S325.292,312.331,334.9,318.1a77.859,77.859,0,0,1,13.009,9.637c4.01,3.77,7.624,7.95,11.238,12.088q11.649,13.335,23.085,26.826,22.915,26.926,44.966,54.659c1.8,2.253,3.585,4.521,5.385,6.788.085.113,0,.269-.17.156q-22.674-27.762-45.83-55.141-11.521-13.576-23.156-27.067c-7.426-8.5-14.582-17.686-24.091-24.091-4.577-3.132-9.452-5.768-14.271-8.5s-10.005-5.768-14.965-8.744q-14.752-8.885-29.08-18.423c-9.481-6.349-18.834-12.853-28-19.642q-6.887-5.1-13.633-10.345a132.717,132.717,0,0,1-11.224-9.481,50.6,50.6,0,0,1-8.985-11.337,37.4,37.4,0,0,1-4.464-14.37C213.65,210.4,216.484,199.541,219.9,189.451Z" transform="translate(-150.286 7.293)" fill="#263238"/>
      <path id="Path_9496" data-name="Path 9496" d="M408.12,228.013c-1.559,2.976-110.537,28.159-111.3,27.663-1.885-1.346-8.149-101.212,20.605-145.838,5.073-7.865,17.374-9.325,23.695-7.681,3.16.822,16.155,11.89,22.107,22.958S409.1,226.114,408.12,228.013Z" transform="translate(-239.789 -26.21)" fill="#dc2626"/>
      <g id="Group_2717" data-name="Group 2717" transform="translate(55.144 77.435)" opacity="0.1">
        <path id="Path_9497" data-name="Path 9497" d="M338.36,105.1h25.1c-.992-.822-1.913-1.516-2.721-2.069H342.1a18.122,18.122,0,0,0-3.741,2.069Z" transform="translate(-311.817 -103.03)"/>
        <path id="Path_9498" data-name="Path 9498" d="M333.26,109.889h37.993c-.666-.723-1.346-1.417-2.012-2.069h-34.72C334.082,108.5,333.671,109.18,333.26,109.889Z" transform="translate(-312.386 -101.032)"/>
        <path id="Path_9499" data-name="Path 9499" d="M329.23,114.689h47.3c-.51-.709-1.049-1.417-1.587-2.069h-44.7C329.9,113.3,329.57,113.995,329.23,114.689Z" transform="translate(-311.955 -99.03)"/>
        <path id="Path_9500" data-name="Path 9500" d="M326.25,119.475h54.461l-.5-.978c-.2-.354-.4-.723-.609-1.077H327.086C326.8,118.1,326.519,118.78,326.25,119.475Z" transform="translate(-311.909 -97.027)"/>
        <path id="Path_9501" data-name="Path 9501" d="M323.92,124.279h60.228c-.354-.737-.68-1.417-.978-2.069H324.629C324.388,122.89,324.147,123.585,323.92,124.279Z" transform="translate(-312.044 -95.029)"/>
        <path id="Path_9502" data-name="Path 9502" d="M321.7,129.079h65.472l-.95-2.069H322.309C322.1,127.69,321.9,128.413,321.7,129.079Z" transform="translate(-311.922 -93.027)"/>
        <path id="Path_9503" data-name="Path 9503" d="M319.51,133.869h70.361c-.312-.709-.624-1.417-.935-2.069H320.02Z" transform="translate(-311.517 -91.029)"/>
        <path id="Path_9504" data-name="Path 9504" d="M317.33,138.669h74.995c-.312-.694-.638-1.417-.935-2.069H317.783C317.684,137.28,317.472,137.975,317.33,138.669Z" transform="translate(-310.882 -89.027)"/>
        <path id="Path_9505" data-name="Path 9505" d="M315.17,143.469h79.36c-.312-.694-.609-1.417-.921-2.069H315.553C315.411,142.08,315.283,142.775,315.17,143.469Z" transform="translate(-310.026 -87.024)"/>
        <path id="Path_9506" data-name="Path 9506" d="M313,148.259h83.611c-.312-.694-.609-1.417-.921-2.069H313.425Z" transform="translate(-309.032 -85.026)"/>
        <path id="Path_9507" data-name="Path 9507" d="M310.91,153.059H398.4c-.3-.68-.609-1.417-.907-2.069H311.179C311.08,151.684,311,152.421,310.91,153.059Z" transform="translate(-307.863 -83.024)"/>
        <path id="Path_9508" data-name="Path 9508" d="M308.8,157.849h91.306c-.3-.694-.6-1.417-.907-2.069H309.041C308.956,156.474,308.885,157.155,308.8,157.849Z" transform="translate(-306.575 -81.026)"/>
        <path id="Path_9509" data-name="Path 9509" d="M306.7,162.609h94.948c-.283-.68-.6-1.417-.893-2.069H306.9C306.828,161.291,306.771,161.971,306.7,162.609Z" transform="translate(-305.141 -79.04)"/>
        <path id="Path_9510" data-name="Path 9510" d="M304.61,167.449h98.449c-.283-.68-.6-1.417-.893-2.069H304.723C304.723,166.074,304.652,166.755,304.61,167.449Z" transform="translate(-303.59 -77.021)"/>
        <path id="Path_9511" data-name="Path 9511" d="M302.54,172.239H404.347l-.879-2.069H302.653C302.611,170.864,302.583,171.559,302.54,172.239Z" transform="translate(-301.945 -75.023)"/>
        <path id="Path_9512" data-name="Path 9512" d="M300.49,177.039H405.5l-.879-2.069H300.561C300.533,175.664,300.5,176.43,300.49,177.039Z" transform="translate(-300.192 -73.021)"/>
        <path id="Path_9513" data-name="Path 9513" d="M298.48,181.829H406.551l-.864-2.069H298.522Z" transform="translate(-298.395 -71.023)"/>
        <path id="Path_9514" data-name="Path 9514" d="M296.54,186.609H407.445c-.241-.652-.524-1.417-.808-2.069H296.554C296.54,185.263,296.54,185.957,296.54,186.609Z" transform="translate(-296.54 -69.029)"/>
        <path id="Path_9515" data-name="Path 9515" d="M294.94,189.36v2.069H408.113a5.669,5.669,0,0,0-.51-2.027Z" transform="translate(-294.94 -67.019)"/>
        <path id="Path_9516" data-name="Path 9516" d="M305.24,194.15v2.069h90.7c2.834-.723,5.4-1.417,7.794-2.069Z" transform="translate(-305.155 -65.02)"/>
        <path id="Path_9517" data-name="Path 9517" d="M324,199a16.387,16.387,0,0,0,.085,2.069h63.091c2.834-.694,5.669-1.417,8.5-2.069Z" transform="translate(-323.688 -62.997)"/>
        <path id="Path_9518" data-name="Path 9518" d="M343.96,203.74c0,.723.1,1.417.156,2.069h34.011l8.857-2.069Z" transform="translate(-343.28 -61.02)"/>
        <path id="Path_9519" data-name="Path 9519" d="M364.84,208.54a13.467,13.467,0,0,0,.369,2.069h2.834c2.126-.425,5.428-1.148,9.58-2.069Z" transform="translate(-363.508 -59.018)"/>
      </g>
      <path id="Path_9520" data-name="Path 9520" d="M429.433,148.426c-19.613-1.587-52.08-8.616-69.752-18.423-10.6-5.909-12.2-13.86-12.754-19.415-1.417-14.384,22.547-37.7,35.117-46.4,1.672-1.148,4.081,7.3,11.691,16.779,6.462,7.978,18.621,17.006,16.779,18.593-2.678,2.267-15.163,10.869-14.568,11.9,1.006,1.771,12.6,6.675,29.93,15.093C449.132,137.825,443.321,149.545,429.433,148.426Z" transform="translate(-346.867 -41.84)" fill="#eb9481"/>
      <path id="Path_9521" data-name="Path 9521" d="M345.9,127.3l33.615-25.849s22.745,10.983,28.74,17.7,2.593,14.965-14.072,16.581C375.061,137.658,345.9,127.3,345.9,127.3Z" transform="translate(-314.9 -26.254)" fill="#dc2626"/>
      <path id="Path_9522" data-name="Path 9522" d="M365.317,127.252c12.754-11.252,26.444-22.008,29.009-23.737.113-.071.213.1.128.184a310.913,310.913,0,0,1-29.009,23.737C365.346,127.507,365.232,127.337,365.317,127.252Z" transform="translate(-325.861 -25.399)" fill="#263238"/>
      <path id="Path_9523" data-name="Path 9523" d="M363.4,123.79a18.054,18.054,0,0,1,7.086,2.834,13.7,13.7,0,0,1,2.721,2.636,12.9,12.9,0,0,1,1.077,1.531,11.33,11.33,0,0,1,.794,1.616c0,.128-.128.2-.213.113-.411-.411-.751-.893-1.162-1.3s-.822-.85-1.247-1.247a29.037,29.037,0,0,0-2.834-2.338,20.322,20.322,0,0,0-6.306-3.514.184.184,0,0,1,.085-.326Z" transform="translate(-303.569 -16.935)" fill="#263238"/>
      <g id="Group_2718" data-name="Group 2718" transform="translate(32.527 77.435)" opacity="0.1">
        <path id="Path_9524" data-name="Path 9524" d="M362.18,105.1h14c-1.417-.765-2.834-1.417-3.94-2.069h-7.369Z" transform="translate(-335.68 -103.03)"/>
        <path id="Path_9525" data-name="Path 9525" d="M353.9,109.889h34.564c-1.077-.694-2.211-1.417-3.344-2.069H356.593Z" transform="translate(-336.228 -101.032)"/>
        <path id="Path_9526" data-name="Path 9526" d="M347.72,114.689h52.165l-.156-.184a19.956,19.956,0,0,0-1.984-1.885H350.4Z" transform="translate(-338.891 -99.03)"/>
        <path id="Path_9527" data-name="Path 9527" d="M345.89,119.475h63.544a6.687,6.687,0,0,0-.085-2.055h-60.8Z" transform="translate(-345.89 -97.027)"/>
        <path id="Path_9528" data-name="Path 9528" d="M347.75,122.21c2.523.68,5.343,1.417,8.333,2.069h39.311a14.17,14.17,0,0,0,3.1-2.069Z" transform="translate(-337.547 -95.029)"/>
      </g>
      <path id="Path_9529" data-name="Path 9529" d="M362.654,125.669c-5.669,2.352-17.119-4.9-22.292-11.479-.354-.453-1.6-20.634-2.267-24.616-.142-.808,25.934,1.9,25.934,1.9a64.777,64.777,0,0,0,.142,15.589C364.283,107.7,368.081,123.373,362.654,125.669Z" transform="translate(-258.405 -31.27)" fill="#eb9481"/>
      <path id="Path_9530" data-name="Path 9530" d="M364.474,108.7a.354.354,0,0,0,.071.255h-.128a14.017,14.017,0,0,1-2.409.553c-13.6,1.956-20.96-13.945-23.3-20.152,4.251-.113,25.183,2.055,25.183,2.055a63.631,63.631,0,0,0,.128,15.589,2.391,2.391,0,0,0,.113.553A6.049,6.049,0,0,0,364.474,108.7Z" transform="translate(-258.256 -31.302)" fill="#263238"/>
      <path id="Path_9531" data-name="Path 9531" d="M329.147,58.07s8.5,3.429,10.147,12.017-.227,17.629-.964,18.068S329.147,58.07,329.147,58.07Z" transform="translate(-220.108 -44.349)" fill="#263238"/>
      <path id="Path_9532" data-name="Path 9532" d="M330.455,71.409c-2.721,8.97,2.055,34.847,8.5,40.6,9.254,8.361,24.389,9.126,31.475-2,6.873-10.77,0-44.4-7.086-49.6C352.789,52.689,334.465,58.159,330.455,71.409Z" transform="translate(-254.181 -44.849)" fill="#eb9481"/>
      <path id="Path_9533" data-name="Path 9533" d="M329.767,74.117a39.971,39.971,0,0,1,.992,7.227c.184,2.508.2,5.017.184,7.525,0,.142-.213.128-.213,0,0-2.466-.184-4.932-.4-7.383s-.6-4.889-.737-7.341C329.6,73.99,329.753,73.99,329.767,74.117Z" transform="translate(-211.744 -37.694)" fill="#263238"/>
      <path id="Path_9534" data-name="Path 9534" d="M354.38,95.61h0" transform="translate(-270.298 -28.69)" fill="none" stroke="#f5a79e" stroke-linecap="round" stroke-linejoin="round" stroke-width="0"/>
      <path id="Path_9535" data-name="Path 9535" d="M342.5,78.16s-.128.1-.1.17c.368,1.743.5,3.784-.978,4.648v.1C343.32,82.454,343.122,79.733,342.5,78.16Z" transform="translate(-240.489 -35.969)" fill="#263238"/>
      <path id="Path_9536" data-name="Path 9536" d="M343.294,77.072c-2.834.283-2.055,5.952.581,5.669S345.674,76.831,343.294,77.072Z" transform="translate(-243.169 -36.426)" fill="#263238"/>
      <path id="Path_9537" data-name="Path 9537" d="M333.09,77.39s.142,0,.156.128c.184,1.771.709,3.755,2.367,4.11v.1C333.642,81.726,332.99,79.091,333.09,77.39Z" transform="translate(-221.345 -36.29)" fill="#263238"/>
      <path id="Path_9538" data-name="Path 9538" d="M333.345,75.954c2.834-.609,3.812,5.017,1.219,5.584S331.006,76.464,333.345,75.954Z" transform="translate(-220.296 -36.908)" fill="#263238"/>
      <path id="Path_9539" data-name="Path 9539" d="M343.78,76.746a19.214,19.214,0,0,0,2.083-1.077,3.769,3.769,0,0,0,1.913-1.516,1.2,1.2,0,0,0-.4-1.417,2.99,2.99,0,0,0-3.033.113,4.393,4.393,0,0,0-2.253,2.239,1.29,1.29,0,0,0,1.686,1.658Z" transform="translate(-246.249 -38.381)" fill="#263238"/>
      <path id="Path_9540" data-name="Path 9540" d="M336.916,74.723a21.471,21.471,0,0,1-2.338-.269,3.756,3.756,0,0,1-2.381-.737,1.219,1.219,0,0,1-.142-1.417,3.018,3.018,0,0,1,2.834-.964,4.436,4.436,0,0,1,2.834,1.29,1.29,1.29,0,0,1-.808,2.1Z" transform="translate(-222.068 -38.838)" fill="#263238"/>
      <path id="Path_9541" data-name="Path 9541" d="M339.271,89.845c.482.354.978.864,1.616.822a4.493,4.493,0,0,0,1.828-.694h.085a2.381,2.381,0,0,1-2.083,1.275,1.9,1.9,0,0,1-1.6-1.417C339.073,89.859,339.2,89.8,339.271,89.845Z" transform="translate(-237.078 -31.102)" fill="#263238"/>
      <path id="Path_9542" data-name="Path 9542" d="M333.731,91.917a6.065,6.065,0,0,0,4.365,2.112,7.468,7.468,0,0,0,2.168-.213,1.629,1.629,0,0,0,.4-.1l.383-.113a.453.453,0,0,0,.3-.439h0V92.98h0v-.142c-.156-1.417-.567-3.4-.567-3.4.524.184,3.2.964,3.061.255a90.555,90.555,0,0,0-4.847-17.757.162.162,0,1,0-.312.085c.893,5.669,2.834,11.039,3.77,16.666a10.331,10.331,0,0,0-2.934-.468c-.184.085.879,3.925.893,4.535h0a8.375,8.375,0,0,1-6.462-1.063C333.731,91.591,333.618,91.718,333.731,91.917Z" transform="translate(-230.432 -38.615)" fill="#263238"/>
      <path id="Path_9543" data-name="Path 9543" d="M342.91,87.295a7.17,7.17,0,0,1-2.537,2.593,3.245,3.245,0,0,1-1.942.4c-1.417-.17-1.672-1.417-1.573-2.593a7.738,7.738,0,0,1,.4-1.771A9.268,9.268,0,0,0,342.91,87.295Z" transform="translate(-233.971 -32.732)" fill="#263238"/>
      <path id="Path_9544" data-name="Path 9544" d="M342.164,89.373a3.245,3.245,0,0,1-1.942.4c-1.417-.17-1.672-1.417-1.573-2.593A3.316,3.316,0,0,1,342.164,89.373Z" transform="translate(-235.761 -32.217)" fill="#ff98b9"/>
      <path id="Path_9545" data-name="Path 9545" d="M340.522,94.838c2.962.425,4.889-8.6,5.3-12.017.354-3-.142-12.3-.1-12.953s13.619,6.165,20.421,2.976,10.572-10.359,10.2-13.364-10.4-9.2-18.139-8.389-16.581,12.173-16.581,12.173,2.834-4.762,2.693-5.088-4.818,2.423-5.173,6.094c0,0,.283-4.577-.1-4.606s-3.642,4.379-2.324,7.086c0,0-3.855,4.549-3.6,8.843S337.036,94.342,340.522,94.838Z" transform="translate(-262.151 -47.29)" fill="#263238"/>
      <path id="Path_9546" data-name="Path 9546" d="M365.233,65.756a23.964,23.964,0,0,1-6.363,3.472,16.283,16.283,0,0,1-7.879,0,24.63,24.63,0,0,1-7.369-2.948c-2.012-1.19-3.883-2.707-5.995-3.727-.524-.241-.964.524-.609.921a26.033,26.033,0,0,0,14.441,7.511,14.937,14.937,0,0,0,13.817-5.144S365.276,65.742,365.233,65.756Z" transform="translate(-256.408 -42.498)" fill="#263238"/>
      <path id="Path_9547" data-name="Path 9547" d="M348.073,88.488a7.6,7.6,0,0,0,5.357-9.3h0a7.582,7.582,0,1,0-7.227,9.552,8.5,8.5,0,0,0,1.871-.255Zm4.379-9.041a6.576,6.576,0,1,1-8.049-4.634,5.782,5.782,0,0,1,1.616-.227,6.576,6.576,0,0,1,6.434,4.861Z" transform="translate(-247.141 -37.879)" fill="#ffc727"/>
      <path id="Path_9548" data-name="Path 9548" d="M334.655,87.042c3.089-.411,5.158-4.11,4.606-8.262a9.028,9.028,0,0,0-2.268-5.045,4.719,4.719,0,0,0-8.021,1.049,9.027,9.027,0,0,0-.907,5.47c.51,3.911,3.189,6.859,6.094,6.816Zm1.6-12.613a8.078,8.078,0,0,1,2.012,4.478c.468,3.6-1.219,6.788-3.741,7.086s-4.988-2.324-5.456-5.924a8.078,8.078,0,0,1,.779-4.847,4.081,4.081,0,0,1,2.962-2.267h.383a4.252,4.252,0,0,1,3.061,1.474Z" transform="translate(-217.837 -38.559)" fill="#ffc727"/>
      <path id="Path_9549" data-name="Path 9549" d="M336.141,78.89l-.751-.68c1.006-1.105,3.486-2.735,5.584-1.02l-.652.794C338.451,76.424,336.226,78.791,336.141,78.89Z" transform="translate(-229.98 -36.685)" fill="#ffc727"/>
      <path id="Path_9550" data-name="Path 9550" d="M349.71,84.555l-.95-.354c.156-.439,1.63-4.365,3.826-5.017s15.7-1.12,16.283-1.134v1.02c-3.911.128-14.441.609-16.028,1.077S350.106,83.478,349.71,84.555Z" transform="translate(-276.823 -36.015)" fill="#ffc727"/>
      <path id="Path_9551" data-name="Path 9551" d="M365.963,83.892s-6.037-8.234-9.792-6.065.921,14.171,5.413,15.759a4.535,4.535,0,0,0,6.079-2.608Z" transform="translate(-284.177 -36.259)" fill="#eb9481"/>
      <path id="Path_9552" data-name="Path 9552" d="M356.567,80.14c-.071,0-.085.1,0,.113,3.16,1.2,4.875,4.067,6.094,7.086a2.508,2.508,0,0,0-3.77-.6.1.1,0,0,0,.085.156,2.834,2.834,0,0,1,3.1.907,13.6,13.6,0,0,1,1.516,2.452c.156.283.652.113.539-.2h0C364.078,85.95,360.846,80.438,356.567,80.14Z" transform="translate(-283.085 -35.143)" fill="#263238"/>
      <path id="Path_9553" data-name="Path 9553" d="M362.148,77.971a3.16,3.16,0,0,1,2.99-.411c.142,0,.156.128,0,.085a3.217,3.217,0,0,0-1.828,0c-.51.156-1.9.737-1.9,3.67a19.639,19.639,0,0,0,1.885,6.661s-.085.142-.113,0a21.257,21.257,0,0,1-1.644-4.039C361.2,82.364,360.617,79.275,362.148,77.971Z" transform="translate(-290.749 -36.304)" fill="#263238"/>
      <path id="Path_9554" data-name="Path 9554" d="M336.391,109.218c.992,1.105,1.9,2.3,2.948,3.359a43.47,43.47,0,0,0,3.373,3.061,41.681,41.681,0,0,0,7.4,4.818,14.639,14.639,0,0,0,9.013,2.012,7.936,7.936,0,0,0,6.207-5.343c1.3-3.543.425-7.312-.453-11.011,0-.128.184-.184.227,0,.978,3.812,1.715,6.944,1.049,10.515a8.5,8.5,0,0,1-4.917,6.462c-6.278,2.608-12.981-1.913-17.629-5.8a42.428,42.428,0,0,1-3.855-3.628,31.913,31.913,0,0,1-3.543-4.251C336.136,109.232,336.306,109.119,336.391,109.218Z" transform="translate(-256.546 -24.357)" fill="#263238"/>
    </g>
    <g id="Table" transform="translate(27.964 291.066)">
      <rect id="Rectangle_2412" data-name="Rectangle 2412" width="508.101" height="18.069" fill="#825958"/>
      <rect id="Rectangle_2413" data-name="Rectangle 2413" width="508.101" height="7.057" transform="translate(0 11.025)" fill="#ae7461"/>
      <path id="Path_9555" data-name="Path 9555" d="M75.734,471.676h7.312L61.79,218.15H43.14Z" transform="translate(414.142 -200.067)" fill="#ae7461"/>
      <path id="Path_9556" data-name="Path 9556" d="M57.14,218.15l2.182,16.963h17.87L75.775,218.15Z" transform="translate(400.156 -200.067)" fill="#825958"/>
      <path id="Path_9557" data-name="Path 9557" d="M365.422,471.676H358.11L379.367,218.15h18.65Z" transform="translate(-347.184 -200.067)" fill="#ae7461"/>
      <path id="Path_9558" data-name="Path 9558" d="M378.172,218.15l-2.182,16.963H358.12l1.417-16.963Z" transform="translate(-327.354 -200.067)" fill="#825958"/>
    </g>
    <g id="Device" transform="translate(143.531 172.877)">
      <path id="Path_9559" data-name="Path 9559" d="M335.539,207.92H257.03v-6.094l78.509-2.537Z" transform="translate(-257.03 -89.745)" fill="#455a64"/>
      <path id="Path_9560" data-name="Path 9560" d="M266.075,210.677H214.35c-4.421,0,1.97-12.584,18.1-17.4S271.163,205.986,266.075,210.677Z" transform="translate(-125.878 -92.601)" fill="#37474f"/>
      <path id="Path_9561" data-name="Path 9561" d="M221.618,209.352a38.931,38.931,0,0,1,3.387-7.61,20.821,20.821,0,0,1,2.409-3.288,28.2,28.2,0,0,1,3.047-2.834,10.741,10.741,0,0,0-3.826,2.083,13.492,13.492,0,0,0-2.834,3.359,16.2,16.2,0,0,0-1.7,4.025,13.037,13.037,0,0,0-.482,4.266Z" transform="translate(-101.743 -91.276)" fill="#263238"/>
      <path id="Path_9562" data-name="Path 9562" d="M213.5,196.86c2.721,1.771,5.456,3.359,7.993,5.187a28.085,28.085,0,0,1,3.6,2.948,9.92,9.92,0,0,1,2.593,3.84,7.086,7.086,0,0,0-1.757-4.563,16.311,16.311,0,0,0-3.614-3.373,26.115,26.115,0,0,0-4.251-2.437A22.9,22.9,0,0,0,213.5,196.86Z" transform="translate(-87.488 -90.759)" fill="#263238"/>
      <path id="Path_9563" data-name="Path 9563" d="M299.034,215.705H173.15l20.024-93.715H319.059Z" transform="translate(-121.68 -121.99)" fill="#455a64"/>
      <path id="Path_9564" data-name="Path 9564" d="M295.744,215.705H169.86l20.01-93.715h125.9Z" transform="translate(-113.727 -121.99)" fill="#37474f"/>
      <path id="Path_9565" data-name="Path 9565" d="M231.7,170.6H228.74l4.492-21.03h2.948Z" transform="translate(-117.58 -110.485)" fill="#263238"/>
      <path id="Path_9566" data-name="Path 9566" d="M227.592,170.6H224.63l4.492-21.03h2.948Z" transform="translate(-107.645 -110.485)" fill="#263238"/>
      <path id="Path_9567" data-name="Path 9567" d="M223.468,170.6H220.52L225,149.57h2.948Z" transform="translate(-97.697 -110.485)" fill="#263238"/>
      <path id="Path_9568" data-name="Path 9568" d="M219.358,170.6H216.41l4.478-21.03h2.948Z" transform="translate(-87.762 -110.485)" fill="#263238"/>
      <path id="Path_9569" data-name="Path 9569" d="M215.248,170.6H212.3l4.478-21.03h2.948Z" transform="translate(-77.828 -110.485)" fill="#263238"/>
      <path id="Path_9570" data-name="Path 9570" d="M211.138,170.6H208.19l4.478-21.03h2.948Z" transform="translate(-67.893 -110.485)" fill="#263238"/>
      <path id="Path_9571" data-name="Path 9571" d="M207.028,170.6H204.08l4.478-21.03h2.948Z" transform="translate(-57.959 -110.485)" fill="#263238"/>
      <path id="Path_9572" data-name="Path 9572" d="M271.035,207.392H209.12v-4.8l61.915-2Z" transform="translate(-124.63 -89.203)" fill="#455a64"/>
      <path id="Path_9573" data-name="Path 9573" d="M250.5,220.849H217.264L197.24,168.33h33.246Z" transform="translate(-87.256 -102.66)" fill="#455a64"/>
      <path id="Path_9574" data-name="Path 9574" d="M246.636,220.849H213.4L193.38,168.33h33.246Z" transform="translate(-77.926 -102.66)" fill="#263238"/>
    </g>
    <g id="Shield" transform="translate(318.307 63.19)">
      <path id="Path_9575" data-name="Path 9575" d="M114.61,78.984s7.709,61.773,20.393,75.661c15.178,16.651,26.274,14.242,32.41,22.844h0c6.165-8.6,17.2-6.193,32.367-22.844,12.683-13.888,20.393-75.661,20.393-75.661C186.756,62.758,167.356,44.59,167.356,44.59h0C166.817,45.171,147.5,63.027,114.61,78.984Z" transform="translate(-114.61 -44.59)" fill="#455a64"/>
      <path id="Path_9576" data-name="Path 9576" d="M114.667,44.6V177.489h0c6.165-8.6,17.2-6.193,32.367-22.844,12.683-13.888,20.393-75.661,20.393-75.661C134.011,62.758,114.61,44.59,114.61,44.59Z" transform="translate(-61.864 -44.59)" opacity="0.2"/>
      <path id="Path_9577" data-name="Path 9577" d="M151.84,78.98s7.709,61.773,20.393,75.661c15.178,16.651,26.274,14.242,32.41,22.844V44.6C204.047,45.167,184.732,63.023,151.84,78.98Z" transform="translate(-151.84 -44.586)" opacity="0.1"/>
      <path id="Path_9578" data-name="Path 9578" d="M120.35,80.921s6.519,52.179,17.232,63.927c12.868,14.171,22.207,12.031,27.393,19.3,5.2-7.27,14.54-5.2,27.407-19.3,10.714-11.748,17.2-63.927,17.2-63.927-28.215-13.7-44.611-29.051-44.611-29.051S148.579,67.218,120.35,80.921Z" transform="translate(-112.159 -41.553)" fill="#455a64"/>
      <rect id="Rectangle_2414" data-name="Rectangle 2414" width="26.77" height="24.29" transform="translate(39.425 59.038)" fill="#fff"/>
      <path id="Path_9579" data-name="Path 9579" d="M144.282,98H147V87.158a7.993,7.993,0,1,1,15.971,0V98H165.7V87.158a10.714,10.714,0,1,0-21.413,0Z" transform="translate(-102.179 -31.465)" fill="#fff"/>
      <path id="Path_9580" data-name="Path 9580" d="M151.179,96.3l-1.12,5.314h4.747l-1.12-5.314a2.374,2.374,0,1,0-2.508,0Z" transform="translate(-99.496 -24.86)" fill="#37474f"/>
    </g>
    <g id="Letter" transform="translate(445.991 169.263)">
      <path id="Path_9581" data-name="Path 9581" d="M35.44,215.632h77.5V150.062L74.2,125.46l-38.759,24.6Z" transform="translate(-22.87 -116.929)" fill="#dc2626"/>
      <path id="Path_9582" data-name="Path 9582" d="M35.44,215.632h77.5V150.062L74.2,125.46l-38.759,24.6Z" transform="translate(-22.87 -116.929)" opacity="0.2"/>
      <path id="Path_9583" data-name="Path 9583" d="M38.52,207.714h68.774V119.44H56.234L38.52,136.261Z" transform="translate(-21.585 -119.44)" fill="#ebebeb"/>
      <path id="Path_9584" data-name="Path 9584" d="M92.264,119.44,74.55,136.261H92.264Z" transform="translate(-57.615 -119.44)" fill="#dbdbdb"/>
      <rect id="Rectangle_2415" data-name="Rectangle 2415" width="38.234" height="2.267" transform="translate(40.757 14.809)" fill="#dbdbdb"/>
      <rect id="Rectangle_2416" data-name="Rectangle 2416" width="38.234" height="2.267" transform="translate(40.757 20.52)" fill="#dbdbdb"/>
      <rect id="Rectangle_2417" data-name="Rectangle 2417" width="38.234" height="2.267" transform="translate(40.757 26.26)" fill="#dbdbdb"/>
      <rect id="Rectangle_2418" data-name="Rectangle 2418" width="56.019" height="2.267" transform="translate(22.972 31.971)" fill="#dbdbdb"/>
      <rect id="Rectangle_2419" data-name="Rectangle 2419" width="56.019" height="2.267" transform="translate(22.972 37.696)" fill="#dbdbdb"/>
      <rect id="Rectangle_2420" data-name="Rectangle 2420" width="56.019" height="2.267" transform="translate(22.972 43.407)" fill="#dbdbdb"/>
      <rect id="Rectangle_2421" data-name="Rectangle 2421" width="56.019" height="2.267" transform="translate(22.972 49.146)" fill="#dbdbdb"/>
      <rect id="Rectangle_2422" data-name="Rectangle 2422" width="56.019" height="2.267" transform="translate(22.972 54.857)" fill="#dbdbdb"/>
      <rect id="Rectangle_2423" data-name="Rectangle 2423" width="56.019" height="2.267" transform="translate(22.972 60.583)" fill="#dbdbdb"/>
      <rect id="Rectangle_2424" data-name="Rectangle 2424" width="56.019" height="2.267" transform="translate(22.972 66.294)" fill="#dbdbdb"/>
      <rect id="Rectangle_2425" data-name="Rectangle 2425" width="56.019" height="2.267" transform="translate(22.972 72.033)" fill="#dbdbdb"/>
      <rect id="Rectangle_2426" data-name="Rectangle 2426" width="56.019" height="2.267" transform="translate(22.972 77.744)" fill="#dbdbdb"/>
      <path id="Path_9585" data-name="Path 9585" d="M35.44,154.4v49.161h77.5V154.4c-3.316,1.885-6.59,3.869-9.92,5.8s-6.561,3.94-9.821,5.938q-5.413,3.288-10.813,6.731l-.113-.071.085.085-8.177,5.045c-2.693-1.7-5.413-3.415-8.12-5.088l.1-.085h-.128c-3.614-2.253-7.242-4.507-10.884-6.717-3.259-2-6.519-3.982-9.807-5.938S38.77,156.285,35.44,154.4Z" transform="translate(-22.87 -104.857)" fill="#dc2626"/>
      <path id="Path_9586" data-name="Path 9586" d="M35.48,154.413c3.132,2.211,6.32,4.251,9.481,6.476s6.363,4.251,9.566,6.335,6.646,4.351,10.048,6.462l.3.213,8.928,5.669.439.255.439-.255,8.914-5.669.255-.213q5.031-3.231,10.062-6.519,4.776-3.118,9.551-6.32c3.146-2.168,6.349-4.251,9.466-6.476-3.316,1.885-6.59,3.869-9.92,5.8s-6.561,3.94-9.821,5.938q-5.357,3.33-10.756,6.774h0l-8.205,5.059c-2.693-1.7-5.413-3.415-8.12-5.088h0c-3.614-2.253-7.242-4.507-10.884-6.717-3.259-2-6.519-3.982-9.807-5.938S38.81,156.3,35.48,154.413Z" transform="translate(-22.91 -104.869)" fill="#fff"/>
      <path id="Path_9587" data-name="Path 9587" d="M35.57,167.38l.085.085,1.233,1.035q2.905,2.466,5.952,4.733c2.466,1.885,5,3.7,7.539,5.484s5.1,3.5,7.723,5.187,5.258,3.316,7.993,4.818c-2.352-2.069-4.79-3.982-7.256-5.853s-5-3.7-7.539-5.484-5.116-3.514-7.738-5.2c-2.083-1.332-4.251-2.65-6.363-3.883l-1.516-.85Z" transform="translate(23.794 -99.442)" fill="#fff"/>
      <path id="Path_9588" data-name="Path 9588" d="M68.45,188.722c2.735-1.5,5.385-3.146,7.993-4.818s5.187-3.429,7.752-5.187,5.059-3.6,7.525-5.484c2.012-1.516,4.01-3.075,5.938-4.719l1.233-1.049.1-.085h-.128l-1.5.864c-2.168,1.233-4.251,2.551-6.377,3.883-2.622,1.686-5.173,3.429-7.723,5.2s-5.059,3.6-7.539,5.484S70.8,186.681,68.45,188.722Z" transform="translate(-55.696 -99.442)" fill="#fff"/>
      <circle id="Ellipse_372" data-name="Ellipse 372" cx="12.754" cy="12.754" r="12.754" transform="translate(0 85.765)" fill="#37474f"/>
      <rect id="Rectangle_2427" data-name="Rectangle 2427" width="12.641" height="11.479" transform="translate(6.434 95.303)" fill="#fff"/>
      <path id="Path_9589" data-name="Path 9589" d="M86.43,192.175h1.29v-5.116a3.77,3.77,0,1,1,7.539,0v5.116h1.29v-5.116a5.059,5.059,0,1,0-10.118,0Z" transform="translate(-78.735 -93.344)" fill="#fff"/>
      <path id="Path_9590" data-name="Path 9590" d="M89.694,191.439l-.524,2.522h2.239l-.524-2.522a1.12,1.12,0,1,0-1.19,0Z" transform="translate(-77.479 -90.269)" fill="#37474f"/>
    </g>
    <g id="Password" transform="translate(400.132 135.889)">
      <rect id="Rectangle_2428" data-name="Rectangle 2428" width="130.122" height="19.727" transform="translate(0.709 2.891)" fill="#fff"/>
      <path id="Path_9591" data-name="Path 9591" d="M38.54,118.56H170.079V97.43H38.54Zm130.122-1.417H39.957v-18.3h128.7Z" transform="translate(-38.54 -95.248)" fill="#ebebeb"/>
      <circle id="Ellipse_373" data-name="Ellipse 373" cx="12.754" cy="12.754" r="12.754" transform="translate(121.548)" fill="#37474f"/>
      <rect id="Rectangle_2429" data-name="Rectangle 2429" width="12.641" height="11.479" transform="translate(127.982 9.523)" fill="#fff"/>
      <path id="Path_9592" data-name="Path 9592" d="M32.995,108.184H34.27v-5.116a3.784,3.784,0,1,1,7.553,0v5.116h1.318v-5.116a5.059,5.059,0,1,0-10.1,0Z" transform="translate(96.248 -95.118)" fill="#fff"/>
      <path id="Path_9593" data-name="Path 9593" d="M36.284,107.369l-.524,2.508h2.282l-.524-2.508a1.134,1.134,0,0,0,.524-.949,1.12,1.12,0,0,0-2.239,0A1.134,1.134,0,0,0,36.284,107.369Z" transform="translate(97.437 -91.965)" fill="#37474f"/>
      <rect id="Rectangle_2430" data-name="Rectangle 2430" width="1.417" height="9.027" transform="translate(108.269 8.545)" fill="#37474f"/>
      <rect id="Rectangle_2431" data-name="Rectangle 2431" width="9.027" height="1.417" transform="translate(104.457 12.357)" fill="#37474f"/>
      <rect id="Rectangle_2432" data-name="Rectangle 2432" width="9.027" height="1.417" transform="translate(111.658 16.761) rotate(-135)" fill="#37474f"/>
      <rect id="Rectangle_2433" data-name="Rectangle 2433" width="1.417" height="9.027" transform="translate(106.287 16.761) rotate(-135)" fill="#37474f"/>
      <rect id="Rectangle_2434" data-name="Rectangle 2434" width="1.417" height="9.027" transform="translate(92.936 8.545)" fill="#37474f"/>
      <rect id="Rectangle_2435" data-name="Rectangle 2435" width="9.027" height="1.417" transform="translate(89.138 12.357)" fill="#37474f"/>
      <rect id="Rectangle_2436" data-name="Rectangle 2436" width="9.027" height="1.417" transform="translate(96.348 16.77) rotate(-135)" fill="#37474f"/>
      <rect id="Rectangle_2437" data-name="Rectangle 2437" width="1.417" height="9.027" transform="translate(90.967 16.76) rotate(-135)" fill="#37474f"/>
      <rect id="Rectangle_2438" data-name="Rectangle 2438" width="1.417" height="9.027" transform="translate(77.602 8.545)" fill="#37474f"/>
      <rect id="Rectangle_2439" data-name="Rectangle 2439" width="9.027" height="1.417" transform="translate(73.805 12.357)" fill="#37474f"/>
      <rect id="Rectangle_2440" data-name="Rectangle 2440" width="9.027" height="1.417" transform="translate(81.013 16.754) rotate(-135)" fill="#37474f"/>
      <rect id="Rectangle_2441" data-name="Rectangle 2441" width="1.417" height="9.027" transform="translate(75.632 16.744) rotate(-135)" fill="#37474f"/>
      <rect id="Rectangle_2442" data-name="Rectangle 2442" width="1.417" height="9.027" transform="translate(62.283 8.545)" fill="#37474f"/>
      <rect id="Rectangle_2443" data-name="Rectangle 2443" width="9.027" height="1.417" transform="translate(58.485 12.357)" fill="#37474f"/>
      <rect id="Rectangle_2444" data-name="Rectangle 2444" width="9.027" height="1.417" transform="translate(65.678 16.753) rotate(-135)" fill="#37474f"/>
      <rect id="Rectangle_2445" data-name="Rectangle 2445" width="1.417" height="9.027" transform="translate(60.307 16.753) rotate(-135)" fill="#37474f"/>
      <rect id="Rectangle_2446" data-name="Rectangle 2446" width="1.417" height="9.027" transform="translate(46.95 8.545)" fill="#37474f"/>
      <rect id="Rectangle_2447" data-name="Rectangle 2447" width="9.027" height="1.417" transform="translate(43.152 12.357)" fill="#37474f"/>
      <rect id="Rectangle_2448" data-name="Rectangle 2448" width="9.027" height="1.417" transform="translate(50.354 16.761) rotate(-135)" fill="#37474f"/>
      <rect id="Rectangle_2449" data-name="Rectangle 2449" width="1.417" height="9.027" transform="translate(44.973 16.751) rotate(-135)" fill="#37474f"/>
      <rect id="Rectangle_2450" data-name="Rectangle 2450" width="1.417" height="9.027" transform="translate(31.631 8.545)" fill="#37474f"/>
      <rect id="Rectangle_2451" data-name="Rectangle 2451" width="9.027" height="1.417" transform="translate(27.818 12.357)" fill="#37474f"/>
      <rect id="Rectangle_2452" data-name="Rectangle 2452" width="9.027" height="1.417" transform="translate(35.019 16.76) rotate(-135)" fill="#37474f"/>
      <rect id="Rectangle_2453" data-name="Rectangle 2453" width="1.417" height="9.027" transform="translate(29.648 16.76) rotate(-135)" fill="#37474f"/>
    </g>
    <g id="Plant" transform="translate(404.709 293.9)">
      <path id="Path_9594" data-name="Path 9594" d="M0,338.911s31.4-7.086,48.622-22.986S75.463,271.64,75.463,271.64a270.064,270.064,0,0,0-35.23,9.254c-2.834,3-8.163,9.2-10.657,15.064a71.084,71.084,0,0,1-.085-10.77,47.248,47.248,0,0,0-11.181,6.8C4.025,304.475,0,338.911,0,338.911Z" transform="translate(106.116 -180.589)" fill="#455a64"/>
      <path id="Path_9595" data-name="Path 9595" d="M79.126,284.1c4.251-2.962,8.645-5.81,12.91-8.8a.255.255,0,0,0-.269-.425c-8.092,4.832-16.07,10.005-23.794,15.418-2.693,1.885-5.328,3.84-7.95,5.853l.553-.935c.935-1.573,1.941-3.132,2.933-4.677a68.029,68.029,0,0,1,6.661-8.9.105.105,0,0,0-.156-.142c-2.437,2.834-4.875,5.669-7.086,8.6a52.17,52.17,0,0,0-2.99,4.407c-.482.779-.964,1.559-1.417,2.367l-.482.808c-4.053,3.189-8.007,6.519-11.791,10.033q-3.486,3.245-6.746,6.746c1.219-3.8,2.282-7.653,3.685-11.337,0-.128-.156-.184-.213,0-1.417,3.925-2.834,7.865-3.911,11.9-2.409,2.593-4.719,5.286-6.873,8.092a.942.942,0,0,1,.1-.51c.368-1.488.737-2.962,1.134-4.436.765-2.834,1.6-5.669,2.551-8.5a48.962,48.962,0,0,1,8.5-15.929c.085-.113,0-.255-.156-.156-6.136,7.27-9.736,15.971-12.031,25.126-.34,1.332-.652,2.678-.964,4.025-.156.709-.34,1.417-.468,2.168-.949,1.29-1.885,2.579-2.834,3.911a136.387,136.387,0,0,0-13.293,26.061A300.649,300.649,0,0,0,4.67,386.263c0,.213.255.283.326.085,6.136-18.423,12.414-37.03,22.929-53.469q3.33-5.187,7.171-10.033a59.037,59.037,0,0,0,15.277-3.033,68.219,68.219,0,0,0,15.319-7.4,93.856,93.856,0,0,0,7.837-5.924.113.113,0,1,0-.128-.17A63.148,63.148,0,0,1,59,315.038a79.206,79.206,0,0,1-15.844,5.314c-2.324.5-4.677.879-7.086,1.19a132.192,132.192,0,0,1,9.268-10.26c1.049-1.063,2.154-2.069,3.245-3.089a74.136,74.136,0,0,1,11.606-6.661c5.144-2.48,10.218-5.116,15.305-7.709,2.834-1.417,5.739-2.962,8.63-4.379.128,0,0-.241-.113-.17-5.158,2.494-10.4,4.818-15.589,7.213-4.9,2.239-9.92,4.492-14.568,7.086l-.6.354c4.251-3.713,8.659-7.242,13.165-10.643Q72.693,288.58,79.126,284.1Z" transform="translate(82.839 -179.247)" fill="#fff"/>
      <path id="Path_9596" data-name="Path 9596" d="M30.286,292.813c-2.551,1.12-5.158,2.112-7.681,3.3a84.163,84.163,0,0,0-7.539,4.053c-.113.071,0,.213.1.17,2.508-1.2,5.045-2.324,7.525-3.571s5.045-2.65,7.653-3.784C30.428,292.969,30.428,292.756,30.286,292.813Z" transform="translate(129.893 -171.761)" fill="#fff"/>
      <path id="Path_9597" data-name="Path 9597" d="M67.729,207.39a44.866,44.866,0,0,1,9.4,26.089c.1,2.834-.34,6.746-.666,11.337,11.706,6.25,20.492,17.516,20.492,17.516-6.646-4-15.787-5.669-20.7-4.96a61.517,61.517,0,0,0,1.19,9.4c2.182-.128,6.377.17,13.321,2.636a29.873,29.873,0,0,0-12,2.381c5.6,17.813,22.235,36.123,68.207,43.931a96.479,96.479,0,0,0-8.149-64.678C125.038,223.928,67.729,207.39,67.729,207.39Z" transform="translate(-63.676 -207.39)" fill="#455a64"/>
      <path id="Path_9598" data-name="Path 9598" d="M139.7,388.373q-1.19-11.422-2.976-22.773a455.535,455.535,0,0,0-9.268-44.994,180.929,180.929,0,0,0-6.632-20.492,32.216,32.216,0,0,0,.17-3.685c0-1.417,0-2.948,0-4.421,0-2.934-.17-5.881-.425-8.815a105.8,105.8,0,0,0-2.834-17.232c-.85-3.274-1.828-6.491-2.834-9.736,0-.128-.255-.071-.213,0a126.909,126.909,0,0,1,3.4,17.2,159.717,159.717,0,0,1,1.531,17.246c0,1.587.1,3.16.1,4.747v2.026a147.523,147.523,0,0,0-7.752-16.028,193.371,193.371,0,0,0-15.73-23.539,9.836,9.836,0,0,0-.368-2.565c-.227-1.034-.439-2.055-.666-3.075-.482-2.112-1.006-4.251-1.573-6.264-1.148-4.166-2.65-8.191-3.954-12.315,0-.128-.241,0-.213,0,1.219,4.067,2.027,8.29,2.962,12.428l1.417,6.15c.227,1.035.439,2.055.652,3.089v.227c-1.856-2.338-3.755-4.662-5.669-6.93-8.772-10.288-18.423-19.84-28.074-29.221-1.19-1.148-2.423-2.282-3.628-3.429a.105.105,0,1,0-.142.156c9.254,9.665,18.423,19.429,27,29.647,2.055,2.437,4.067,4.889,6.051,7.383-1.035-.709-2.1-1.417-3.132-2.083-2.664-1.743-5.385-3.444-8.163-5.017s-5.669-3.089-8.5-4.507-6.094-2.65-8.942-4.251c-.113,0-.227.142-.1.2a66.38,66.38,0,0,1,8.389,4.648c2.834,1.658,5.584,3.33,8.333,5.073s5.413,3.4,8.106,5.144c2.239,1.417,4.436,3.033,6.746,4.379a217.419,217.419,0,0,1,14.738,21.427,163.213,163.213,0,0,1,7.61,14.441l-1.658-.723-4.251-1.871c-2.693-1.19-5.413-2.367-8.12-3.543-5.158-2.239-10.4-4.251-15.447-6.76a69.2,69.2,0,0,1-8.262-4.592c-.113-.071-.213.113-.1.2,9.495,6.561,20.109,11.139,30.5,15.8l4.521,2c1.233.553,2.48,1.162,3.77,1.644a161.169,161.169,0,0,1,7.766,21.257,437.283,437.283,0,0,1,10,44.541c2.636,15.008,4.407,30.128,5.8,45.348.17,1.885.34,3.784.553,5.669a.609.609,0,0,0,1.2,0C141.318,403.749,140.511,396,139.7,388.373Z" transform="translate(-40.517 -203.819)" fill="#fff"/>
      <path id="Path_9599" data-name="Path 9599" d="M80.222,252.092c-.836-4.662-2.083-9.24-3.344-13.8a.1.1,0,0,0-.2,0c1.162,4.492,1.984,9.07,2.834,13.619s1.616,9.325,2.267,14c0,.071.142.071.128,0A123.292,123.292,0,0,0,80.222,252.092Z" transform="translate(-8.996 -194.542)" fill="#fff"/>
      <path id="Path_9600" data-name="Path 9600" d="M112.242,260.125a81.32,81.32,0,0,0-9.991-5.669c-1.672-.865-3.373-1.686-5.073-2.508s-3.557-1.559-5.3-2.437a.113.113,0,0,0-.1.2c1.672.836,3.274,1.856,4.917,2.834s3.4,1.871,5.116,2.834c3.359,1.8,6.661,3.8,10.189,5.258a.282.282,0,1,0,.241-.51Z" transform="translate(-60.828 -189.821)" fill="#fff"/>
      <path id="Path_9601" data-name="Path 9601" d="M10.79,304.145S39.855,297.2,53.2,277.7c12.754-18.621,16.864-50.379,17.19-53.171-.524,2.565-6.519,30.313-26.316,43.237C28.929,277.63,14.29,285.807,10.79,304.145Z" transform="translate(95.893 -200.24)" fill="#263238" opacity="0.1"/>
      <path id="Path_9602" data-name="Path 9602" d="M44.51,245.279A37,37,0,0,0,33.8,262.923s0,.1.085,0a43.435,43.435,0,0,1,10.77-17.516C44.751,245.336,44.609,245.18,44.51,245.279Z" transform="translate(88.999 -191.598)" fill="#263238"/>
      <path id="Path_9603" data-name="Path 9603" d="M11.343,304.2s29.065-6.944,42.415-26.444c12.754-18.621,16.864-50.379,17.19-53.171a.977.977,0,0,0,0-.184s-13.93,19.84-28.584,24.871S7.135,271.8,11.343,304.2Z" transform="translate(95.339 -200.294)" fill="#455a64"/>
      <path id="Path_9604" data-name="Path 9604" d="M81.162,232.129a118.855,118.855,0,0,1-8.985,15.433,61.942,61.942,0,0,1-11.961,12.315c-3.954,3.132-8.12,5.966-12.117,9.041l.085-.142c.751-1.105,1.559-2.2,2.381-3.245,1.672-2.14,3.486-4.138,5.314-6.122,3.614-3.925,7.3-7.766,10.544-12a46.1,46.1,0,0,0,4.662-7.511c0-.128-.156-.2-.213,0-4.7,9.821-14.171,16.113-20.846,24.4a45.137,45.137,0,0,0-2.693,3.67,15.956,15.956,0,0,0-1.672,2.962,60.782,60.782,0,0,0-9.92,10.019,39.808,39.808,0,0,1,1.162-5.669,28.668,28.668,0,0,1,3.075-7.355c.071-.128-.1-.241-.17-.128a35,35,0,0,0-3.4,7.312,25.863,25.863,0,0,0-1.049,6.278h0a53.258,53.258,0,0,0-3.925,6.108c.113-.624.227-1.247.354-1.871.581-2.834,1.219-5.782,1.97-8.645a51.726,51.726,0,0,1,6.986-16.368c.085-.113-.1-.241-.17-.128a62.057,62.057,0,0,0-7.752,16.028c-.921,2.834-1.672,5.754-2.324,8.687-.312,1.417-.609,2.834-.879,4.251-.142.751-.3,1.516-.425,2.282a104.871,104.871,0,0,0-6.7,19.6A287.679,287.679,0,0,0,16.3,348.178a304.214,304.214,0,0,0-2.012,39.028c0,1.63.128,3.259.213,4.889a.34.34,0,1,0,.68,0c.283-6.448.453-12.9.836-19.344s.935-12.9,1.63-19.316a346.955,346.955,0,0,1,5.98-37.568c2.367-10.629,5.413-21.328,11.224-30.639a57.805,57.805,0,0,1,10.487-12.471c4.081-3.656,8.5-6.859,12.839-10.246a70.6,70.6,0,0,0,11.762-11.337,93.687,93.687,0,0,0,9.325-14.951c.68-1.318,1.417-2.622,2.083-3.94C81.4,232.129,81.219,231.973,81.162,232.129Z" transform="translate(80.01 -197.097)" fill="#fff"/>
      <path id="Path_9605" data-name="Path 9605" d="M24.282,235.145a100.617,100.617,0,0,1-6.476,11.337.077.077,0,1,0,.128.085A78.464,78.464,0,0,0,24.48,235.23C24.537,235.088,24.339,234.975,24.282,235.145Z" transform="translate(131.873 -195.848)" fill="#fff"/>
      <path id="Path_9606" data-name="Path 9606" d="M72.4,271.64s-.453,41.31,24.247,53.228,37.937,2,54.73,5.995h0c-.652-.978-12.641-18.2-31.687-22.943C100.063,303,78.353,288.844,72.4,271.64Z" transform="translate(-72.4 -180.589)" fill="#455a64"/>
      <path id="Path_9607" data-name="Path 9607" d="M72.4,271.64s-.453,41.31,24.247,53.228,37.937,2,54.73,5.995h0a93.912,93.912,0,0,0-28.088-8.29C107.687,320.673,77.927,310.526,72.4,271.64Z" transform="translate(-72.4 -180.589)" opacity="0.1"/>
      <path id="Path_9608" data-name="Path 9608" d="M127.456,324.157a41.621,41.621,0,0,0-9.821-6.646c-.524-.255-1.077-.453-1.616-.694-.255-.326-.539-.638-.822-.949-.737-.765-1.516-1.5-2.324-2.2a34.333,34.333,0,0,0-4.974-3.6c-4.1-2.409-8.5-4.1-12.754-6.335a.114.114,0,1,0-.113.2c2.069,1.063,4.081,2.253,6.094,3.43s3.954,2.225,5.853,3.458a41.094,41.094,0,0,1,4.889,3.67c.439.383.85.794,1.275,1.2a67.626,67.626,0,0,0-8.347-2.211c-4.521-.921-9.1-1.559-13.6-2.523a64.891,64.891,0,0,1-6.561-1.771c-2.055-1.644-4.1-3.288-6.037-5.073a50.394,50.394,0,0,1-6.377-7.086c-.085-.113-.269,0-.184.113A75.591,75.591,0,0,0,82.15,308.313c-1.063-.4-2.112-.836-3.16-1.3a50.9,50.9,0,0,1-21.044-17.516c0-.113-.255,0-.184.113a57.833,57.833,0,0,0,17.006,16.354,51.161,51.161,0,0,0,10.756,5.088,98.118,98.118,0,0,0,13.378,3.16,93.894,93.894,0,0,1,13.08,3.118,39.338,39.338,0,0,1,10.983,5.768,51.2,51.2,0,0,1,14.781,18.366c4.677,9.381,6.916,19.84,8.163,30.213,0,.439.737.439.694,0C145.482,354.285,140.848,336.217,127.456,324.157Z" transform="translate(-46.863 -173.161)" fill="#fff"/>
      <path id="Path_9609" data-name="Path 9609" d="M102.8,307.28a14.171,14.171,0,0,0-5.088-4.606,18.72,18.72,0,0,1-6.037-5c-.085-.1-.269,0-.184.113a20.194,20.194,0,0,0,5.343,4.776,18.72,18.72,0,0,1,5.81,4.818C102.7,307.464,102.859,307.379,102.8,307.28Z" transform="translate(-50.863 -169.747)" fill="#fff"/>
      <path id="Path_9610" data-name="Path 9610" d="M39.22,335.46l1.134,22.717,3.444,69.4H95.608l3.444-69.4,1.134-22.717Z" transform="translate(25.813 -153.967)" fill="#dc2626"/>
      <rect id="Rectangle_2454" data-name="Rectangle 2454" width="68.221" height="21.668" transform="translate(61.405 172.012)" fill="#dc2626"/>
    </g>
  </g>
</svg>
