<svg xmlns="http://www.w3.org/2000/svg" xmlns:xlink="http://www.w3.org/1999/xlink" width="148.924" height="147.324" viewBox="0 0 148.924 147.324">
  <defs>
    <linearGradient id="linear-gradient" x1="1.03" y1="1.169" x2="-0.354" y2="-0.453" gradientUnits="objectBoundingBox">
      <stop offset="0" stop-color="#aa80f9"/>
      <stop offset="1" stop-color="#6165d7"/>
    </linearGradient>
    <linearGradient id="linear-gradient-2" x1="0.25" y1="0.14" x2="1.148" y2="1.421" gradientUnits="objectBoundingBox">
      <stop offset="0" stop-color="#e38ddd"/>
      <stop offset="1" stop-color="#9571f6"/>
    </linearGradient>
    <clipPath id="clip-path">
      <path id="Path_10075" data-name="Path 10075" d="M301.425,165.7c-.037,2.327-.33,4.236-.474,6.507,9.138-3.553,18.6-5.3,27.869-8.892-9.452-8.653-16.676-11.463-17.392-26.3-.336-6.965,1.042-20.79-3.546-26.207-5.226-6.168-9.738-2.718-10.433-9.533-1.087-10.648-9.284-19.636-21.506-11.127-12.062,8.4.112,44.561,10.918,52.019C294.786,150.35,301.623,153.548,301.425,165.7Z" transform="translate(-270.94 -86.761)" fill="url(#linear-gradient)"/>
    </clipPath>
    <clipPath id="clip-path-2">
      <path id="Path_10081" data-name="Path 10081" d="M48.823,702.6c4.859,10.906,10.9,6.98,18.842,2.3.925,11.082,2.234,21.836,3.6,32.749-5.358,3.052-9.253,5.135-13.943-.7-5.3-6.6-8.145-10.583-17.469-10.418s-17.538-4.887-16.471-14.148c1.121-9.745-9.323-19.776-3.213-28.053C30.813,669.915,43.764,691.244,48.823,702.6Z" transform="translate(-18.238 -679.498)" fill="url(#linear-gradient-2)"/>
    </clipPath>
    <linearGradient id="linear-gradient-3" x1="0.541" y1="0.832" x2="0.474" y2="0.218" gradientUnits="objectBoundingBox">
      <stop offset="0.49" stop-color="#ebeff2"/>
      <stop offset="1" stop-color="#fff"/>
    </linearGradient>
    <linearGradient id="linear-gradient-4" x1="5.069" y1="-8.475" x2="-11.794" y2="24.642" gradientUnits="objectBoundingBox">
      <stop offset="0" stop-color="#ff9085"/>
      <stop offset="1" stop-color="#fb6fbb"/>
    </linearGradient>
    <linearGradient id="linear-gradient-5" x1="5.476" y1="-3.897" x2="-10.94" y2="10.604" xlink:href="#linear-gradient-4"/>
    <linearGradient id="linear-gradient-6" x1="5.968" y1="-2.918" x2="-10.209" y2="7.188" xlink:href="#linear-gradient-4"/>
    <linearGradient id="linear-gradient-7" x1="6.833" y1="-4.916" x2="-9.407" y2="8.966" xlink:href="#linear-gradient-4"/>
    <linearGradient id="linear-gradient-8" x1="7.232" y1="-3.288" x2="-8.72" y2="5.682" xlink:href="#linear-gradient-4"/>
    <linearGradient id="linear-gradient-9" x1="7.81" y1="-3.239" x2="-8.003" y2="4.844" xlink:href="#linear-gradient-4"/>
    <linearGradient id="linear-gradient-10" x1="3.304" y1="-8.349" x2="0.46" y2="0.627" gradientUnits="objectBoundingBox">
      <stop offset="0" stop-color="#dc2626"/>
      <stop offset="1" stop-color="#c72032"/>
    </linearGradient>
    <linearGradient id="linear-gradient-11" x1="2.752" y1="-2.589" x2="-0.089" y2="1.308" xlink:href="#linear-gradient-10"/>
    <linearGradient id="linear-gradient-12" x1="2.247" y1="-1.161" x2="-0.606" y2="1.552" xlink:href="#linear-gradient-10"/>
    <linearGradient id="linear-gradient-13" x1="1.971" y1="-1.393" x2="-0.901" y2="2.302" xlink:href="#linear-gradient-10"/>
    <linearGradient id="linear-gradient-14" x1="1.42" y1="-0.263" x2="-1.468" y2="2.132" xlink:href="#linear-gradient-10"/>
    <linearGradient id="linear-gradient-15" x1="0.974" y1="0.148" x2="-1.932" y2="2.303" xlink:href="#linear-gradient-10"/>
    <linearGradient id="linear-gradient-16" x1="0.469" y1="-0.19" x2="0.567" y2="2.012" xlink:href="#linear-gradient"/>
    <linearGradient id="linear-gradient-17" x1="3.013" y1="-7.508" x2="-3.944" y2="14.664" xlink:href="#linear-gradient-4"/>
    <linearGradient id="linear-gradient-18" x1="1.833" y1="-3.712" x2="-5.156" y2="18.368" xlink:href="#linear-gradient-4"/>
    <linearGradient id="linear-gradient-19" x1="1.87" y1="-3.78" x2="-5.191" y2="18.276" xlink:href="#linear-gradient-4"/>
    <linearGradient id="linear-gradient-20" x1="0.837" y1="-0.545" x2="-6.255" y2="21.448" xlink:href="#linear-gradient-4"/>
    <linearGradient id="linear-gradient-21" x1="1.006" y1="-1.054" x2="-6.151" y2="20.946" xlink:href="#linear-gradient-4"/>
    <linearGradient id="linear-gradient-22" x1="-26.351" y1="-2.243" x2="-24.244" y2="-3.135" xlink:href="#linear-gradient"/>
    <linearGradient id="linear-gradient-23" x1="-6.756" y1="-1.179" x2="-5.646" y2="-1.179" gradientUnits="objectBoundingBox">
      <stop offset="0" stop-color="#ebeff2"/>
      <stop offset="1" stop-color="#fff"/>
    </linearGradient>
    <linearGradient id="linear-gradient-24" x1="-8" y1="-1.959" x2="-6.718" y2="-1.959" xlink:href="#linear-gradient-23"/>
    <linearGradient id="linear-gradient-25" x1="-6.622" y1="-1.68" x2="-6.92" y2="-1.129" xlink:href="#linear-gradient-23"/>
    <linearGradient id="linear-gradient-26" x1="-9.565" y1="-1.495" x2="-8.426" y2="-3.37" gradientUnits="objectBoundingBox">
      <stop offset="0" stop-color="#444b8c"/>
      <stop offset="1" stop-color="#26264f"/>
    </linearGradient>
    <linearGradient id="linear-gradient-27" x1="0" y1="0.5" x2="1" y2="0.5" xlink:href="#linear-gradient-4"/>
    <linearGradient id="linear-gradient-28" x1="0.374" y1="1.075" x2="0.618" y2="-0.112" gradientUnits="objectBoundingBox">
      <stop offset="0" stop-color="#1a2124"/>
      <stop offset="1" stop-color="#232e33"/>
    </linearGradient>
    <linearGradient id="linear-gradient-29" x1="0.298" y1="1.036" x2="0.602" y2="-0.065" xlink:href="#linear-gradient-28"/>
    <linearGradient id="linear-gradient-30" x1="0.2" y1="0.998" x2="0.68" y2="-0.019" xlink:href="#linear-gradient-28"/>
    <linearGradient id="linear-gradient-31" x1="0.107" y1="0.982" x2="0.781" y2="0.001" xlink:href="#linear-gradient-28"/>
    <linearGradient id="linear-gradient-32" x1="0.071" y1="0.982" x2="1.042" y2="0.05" xlink:href="#linear-gradient-28"/>
    <linearGradient id="linear-gradient-33" x1="2.618" y1="-6.699" x2="-1.041" y2="5.732" gradientUnits="objectBoundingBox">
      <stop offset="0" stop-color="#2f3e45"/>
      <stop offset="1" stop-color="#455a64"/>
    </linearGradient>
    <linearGradient id="linear-gradient-34" x1="2.367" y1="-3.697" x2="-1.441" y2="4.856" xlink:href="#linear-gradient-33"/>
    <linearGradient id="linear-gradient-35" x1="2.025" y1="-1.434" x2="-1.934" y2="3.572" xlink:href="#linear-gradient-33"/>
    <linearGradient id="linear-gradient-36" x1="1.67" y1="-0.523" x2="-2.445" y2="3.055" xlink:href="#linear-gradient-33"/>
    <linearGradient id="linear-gradient-37" x1="1.059" y1="0.242" x2="-2.167" y2="2.281" xlink:href="#linear-gradient-33"/>
    <linearGradient id="linear-gradient-38" y1="0.5" x2="1" y2="0.5" gradientUnits="objectBoundingBox">
      <stop offset="0" stop-color="#26264f"/>
      <stop offset="1" stop-color="#232e33"/>
    </linearGradient>
    <linearGradient id="linear-gradient-39" x1="0.002" y1="0.5" x2="1.002" y2="0.5" gradientUnits="objectBoundingBox">
      <stop offset="0" stop-color="#26264f"/>
      <stop offset="1" stop-color="#444b8c"/>
    </linearGradient>
  </defs>
  <g id="Update" transform="translate(-0.047 -40.537)">
    <g id="Layer_2" data-name="Layer 2" transform="translate(0.047 40.537)">
      <g id="Illustration" transform="translate(0 0)">
        <path id="Path_10069" data-name="Path 10069" d="M134.512,44.523C132.241,41.408,112.8,15.646,81.292,16.9c-1.574.063-32.306,1.689-43.64,21.884-8.384,14.938.492,28.192-9.734,38.369-8.913,8.868-19.866,3-25.343,10.17C-5.767,98.247,7.521,127.749,27.932,144.2c21.079,16.989,61.4,29.453,92.746,6.787C155.865,125.541,155.508,73.329,134.512,44.523Z" transform="translate(-0.047 -15.97)" fill="#f4f7fa"/>
        <path id="Path_10070" data-name="Path 10070" d="M301.425,165.7c-.037,2.327-.33,4.236-.474,6.507,9.138-3.553,18.6-5.3,27.869-8.892-9.452-8.653-16.676-11.463-17.392-26.3-.336-6.965,1.042-20.79-3.546-26.207-5.226-6.168-9.738-2.718-10.433-9.533-1.087-10.648-9.284-19.636-21.506-11.127-12.062,8.4.112,44.561,10.918,52.019C294.786,150.35,301.623,153.548,301.425,165.7Z" transform="translate(-256.686 -82.196)" fill="#2f3e45"/>
        <g id="Group_2835" data-name="Group 2835" transform="translate(14.253 4.565)" clip-path="url(#clip-path)">
          <g id="Group_2834" data-name="Group 2834" transform="translate(0.627 -6.698)" opacity="0.7">
            <path id="Path_10071" data-name="Path 10071" d="M326.486,45.8l-.184.105c-1.779-3.147-3.828-6.192-5.81-9.137l-.752-1.119c-1.591-2.371-2.972-4.52-4.19-6.419-.684-1.062-1.331-2.071-1.966-3.042-1.943-2.97-3.308-5.045-3.987-6.076l-.448-.684c-5.324-8.145-9.562-21.172-11.839-28.171-.246-.757-.466-1.434-.659-2.015A149.183,149.183,0,0,0,282.86-40.431l.181-.109a149.136,149.136,0,0,1,13.81,29.723c.193.579.413,1.258.659,2.016,2.274,6.989,6.509,20,11.815,28.12l.448.681c.679,1.032,2.044,3.1,3.987,6.077.635.971,1.284,1.981,1.967,3.044,1.218,1.894,2.6,4.044,4.188,6.413l.752,1.119C322.65,39.6,324.7,42.65,326.486,45.8Z" transform="translate(-282.86 40.54)" fill="#fcfdfe"/>
            <path id="Path_10072" data-name="Path 10072" d="M835.8,491.546l-.182.105c-3.262-5.55-4.859-13.383-4.616-22.653a81,81,0,0,1,4.126-23.228l.2.069C830.642,459.487,828.789,479.61,835.8,491.546Z" transform="translate(-802.143 -420.182)" fill="#fcfdfe"/>
            <path id="Path_10073" data-name="Path 10073" d="M561.879,80.878l-.21.013a133.762,133.762,0,0,1,.345-16.632c.233-3.727.474-7.581.489-11.379h.21c-.015,3.8-.256,7.661-.489,11.391A133.73,133.73,0,0,0,561.879,80.878Z" transform="translate(-546.863 -47.965)" fill="#fcfdfe"/>
            <path id="Path_10074" data-name="Path 10074" d="M320.642,687.9c-5.027-5.883-14.425-11.48-20.112-11.978l.018-.21c5.735.5,15.2,6.133,20.254,12.049Z" transform="translate(-299.6 -638.024)" fill="#fcfdfe"/>
          </g>
        </g>
        <path id="Path_10076" data-name="Path 10076" d="M48.823,702.6c4.859,10.906,10.9,6.98,18.842,2.3.925,11.082,2.234,21.836,3.6,32.749-5.358,3.052-9.253,5.135-13.943-.7-5.3-6.6-8.145-10.583-17.469-10.418s-17.538-4.887-16.471-14.148c1.121-9.745-9.323-19.776-3.213-28.053C30.813,669.915,43.764,691.244,48.823,702.6Z" transform="translate(-17.281 -643.745)" fill="#455a64"/>
        <g id="Group_2837" data-name="Group 2837" transform="translate(0.957 35.753)" clip-path="url(#clip-path-2)">
          <g id="Group_2836" data-name="Group 2836" transform="translate(3.259 -6.176)" opacity="0.5">
            <path id="Path_10077" data-name="Path 10077" d="M126.121,727.86c-9.795-2.326-17.889-4.536-25.5-9.963-7.281-5.193-11.69-11.55-14.742-21.261a74.49,74.49,0,0,0-5.7-13.109l.187-.1a74.738,74.738,0,0,1,5.714,13.143c3.038,9.662,7.423,15.989,14.663,21.152,7.576,5.408,15.653,7.61,25.425,9.933Z" transform="translate(-80.18 -677.047)" fill="#fcfdfe"/>
            <path id="Path_10078" data-name="Path 10078" d="M797.359,1650.1l-.189-.095a32.008,32.008,0,0,1,5.355-7.725,20.679,20.679,0,0,1,3.687-2.979l.118.176a20.483,20.483,0,0,0-3.651,2.947A31.894,31.894,0,0,0,797.359,1650.1Z" transform="translate(-759.445 -1582.622)" fill="#fcfdfe"/>
            <path id="Path_10079" data-name="Path 10079" d="M129.795,1377.269c-7.393-1.77-15.854-.715-23.826,2.97l-.089-.192c8.015-3.705,16.525-4.765,23.964-2.983Z" transform="translate(-104.528 -1333.385)" fill="#fcfdfe"/>
            <path id="Path_10080" data-name="Path 10080" d="M242.4,591.739l-.2.07c-.374-1.068-.931-11.846-1.094-15.124-.335-6.782-.607-14.089-.481-14.575l.2.053c-.105.4.119,7.051.488,14.512C241.651,583.414,242.111,590.911,242.4,591.739Z" transform="translate(-232.154 -562.11)" fill="#fcfdfe"/>
          </g>
        </g>
        <path id="Path_10082" data-name="Path 10082" d="M155.341,334.844l-4.026.753a7.99,7.99,0,0,0-6.524,7.854l1.674-1.5L47,339.158v-2.124a7.99,7.99,0,0,1,7.674-7.984Z" transform="translate(-44.529 -311.737)" fill="#d8dee8"/>
        <path id="Path_10083" data-name="Path 10083" d="M189.92,329.059a18.622,18.622,0,0,1,4.009.372c3.813,1.26,6.539,4.388,6.539,8.235l.046,96.206a9.509,9.509,0,0,0,10.5,9.452l98.544-10.334h0a9.508,9.508,0,0,1-9.124-9.5V341.11a7.991,7.991,0,0,0-7.674-7.984Z" transform="translate(-179.93 -311.745)" fill="url(#linear-gradient-3)"/>
        <g id="Group_2838" data-name="Group 2838" transform="translate(33.413 105.432)" opacity="0.5">
          <path id="Path_10084" data-name="Path 10084" d="M635.08,2183.666l33.4-2.568v-1.2l-33.4,2.515Z" transform="translate(-635.08 -2172.768)" fill="#7e8182"/>
          <path id="Path_10085" data-name="Path 10085" d="M635.08,2229.291l33.4-2.674v-1.2l-33.4,2.621Z" transform="translate(-635.08 -2215.892)" fill="#7e8182"/>
          <path id="Path_10086" data-name="Path 10086" d="M1208.19,2123.179l3.248-.239v-1.82l-3.248.231Z" transform="translate(-1178.035 -2117.08)" fill="#e36669"/>
          <path id="Path_10087" data-name="Path 10087" d="M1097.12,2086.443l3.3-.243v-4.311l-3.3.224Z" transform="translate(-1072.809 -2079.914)" fill="#e36669"/>
          <path id="Path_10088" data-name="Path 10088" d="M984.31,2059.566l3.35-.247v-6.259l-3.35.219Z" transform="translate(-965.935 -2052.601)" fill="#e36669"/>
          <path id="Path_10089" data-name="Path 10089" d="M869.73,2097.8l3.4-.25v-4.6l-3.4.23Z" transform="translate(-857.384 -2090.392)" fill="#e36669"/>
          <path id="Path_10090" data-name="Path 10090" d="M753.34,2059.617l3.456-.254v-7.193l-3.456.222Z" transform="translate(-747.118 -2051.758)" fill="#e36669"/>
          <path id="Path_10091" data-name="Path 10091" d="M635.08,2052.657l3.512-.259v-8.059l-3.512.222Z" transform="translate(-635.08 -2044.34)" fill="#e36669"/>
        </g>
        <g id="Group_2839" data-name="Group 2839" transform="translate(33.413 86.889)" opacity="0.7">
          <path id="Path_10092" data-name="Path 10092" d="M635.08,1846.829l33.4-1.782v-1.2l-33.4,1.729Z" transform="translate(-635.08 -1835.856)" fill="#d8dee8"/>
          <path id="Path_10093" data-name="Path 10093" d="M635.08,1892.456l33.4-1.888v-1.2l-33.4,1.835Z" transform="translate(-635.08 -1878.981)" fill="#d8dee8"/>
          <path id="Path_10094" data-name="Path 10094" d="M1208.19,1784.142l3.248-.162v-1.82l-3.248.154Z" transform="translate(-1178.035 -1777.411)" fill="url(#linear-gradient-4)"/>
          <path id="Path_10095" data-name="Path 10095" d="M1097.12,1744.795l3.3-.165v-4.31l-3.3.146Z" transform="translate(-1072.809 -1737.773)" fill="url(#linear-gradient-5)"/>
          <path id="Path_10096" data-name="Path 10096" d="M984.31,1715.267l3.35-.167v-6.26l-3.35.139Z" transform="translate(-965.935 -1707.949)" fill="url(#linear-gradient-6)"/>
          <path id="Path_10097" data-name="Path 10097" d="M869.73,1750.8l3.4-.17v-4.6l-3.4.15Z" transform="translate(-857.384 -1743.182)" fill="url(#linear-gradient-7)"/>
          <path id="Path_10098" data-name="Path 10098" d="M753.34,1709.886l3.456-.173v-7.193l-3.456.14Z" transform="translate(-747.118 -1701.962)" fill="url(#linear-gradient-8)"/>
          <path id="Path_10099" data-name="Path 10099" d="M635.08,1700.144l3.512-.175v-8.059l-3.512.139Z" transform="translate(-635.08 -1691.91)" fill="url(#linear-gradient-9)"/>
        </g>
        <path id="Path_10100" data-name="Path 10100" d="M635.08,712.491l33.4.826v-1.2l-33.4-.879Z" transform="translate(-601.667 -675.95)" fill="#7e8182"/>
        <path id="Path_10101" data-name="Path 10101" d="M635.08,760.031l33.4.719v-1.2l-33.4-.773Z" transform="translate(-601.667 -720.989)" fill="#7e8182"/>
        <path id="Path_10102" data-name="Path 10102" d="M638.592,645.781l-3.512-.1v-1.9l3.512.108Z" transform="translate(-601.667 -612.04)" opacity="0.7" fill="url(#linear-gradient-10)"/>
        <path id="Path_10103" data-name="Path 10103" d="M756.8,603.56l-3.456-.1V599.03l3.456.118Z" transform="translate(-713.705 -569.644)" opacity="0.7" fill="url(#linear-gradient-11)"/>
        <path id="Path_10104" data-name="Path 10104" d="M873.133,572.564l-3.4-.1V566.13l3.4.125Z" transform="translate(-823.971 -538.475)" opacity="0.7" fill="url(#linear-gradient-12)"/>
        <path id="Path_10105" data-name="Path 10105" d="M987.66,607.361l-3.35-.1V602.68l3.35.115Z" transform="translate(-932.522 -573.102)" opacity="0.7" fill="url(#linear-gradient-13)"/>
        <path id="Path_10106" data-name="Path 10106" d="M1100.419,566.051l-3.3-.094V558.9l3.3.124Z" transform="translate(-1039.396 -531.626)" opacity="0.7" fill="url(#linear-gradient-14)"/>
        <path id="Path_10107" data-name="Path 10107" d="M1211.438,556.117l-3.248-.092V548.24l3.248.126Z" transform="translate(-1144.622 -521.527)" opacity="0.7" fill="url(#linear-gradient-15)"/>
        <g id="Group_2840" data-name="Group 2840" transform="translate(74.46 67.802)" opacity="0.3">
          <path id="Path_10108" data-name="Path 10108" d="M2019.03,1373.313l1.9-.08V1356.74l-1.9.035Z" transform="translate(-1987.259 -1355.289)" fill="#e36669"/>
          <path id="Path_10109" data-name="Path 10109" d="M1954.49,1523.786l1.914-.08v-8.287l-1.914.059Z" transform="translate(-1926.115 -1505.62)" fill="#e36669"/>
          <path id="Path_10110" data-name="Path 10110" d="M1889.34,1347.47l1.933-.081V1329.16l-1.933.032Z" transform="translate(-1864.393 -1329.16)" fill="#e36669"/>
          <path id="Path_10111" data-name="Path 10111" d="M1823.57,1397.562l1.95-.082v-15.6l-1.95.039Z" transform="translate(-1802.084 -1379.106)" fill="#e36669"/>
          <path id="Path_10112" data-name="Path 10112" d="M1757.15,1605.536l1.97-.083v-4.2l-1.97.071Z" transform="translate(-1739.159 -1586.934)" fill="#e36669"/>
          <path id="Path_10113" data-name="Path 10113" d="M1690.09,1505.27l1.989-.083v-9.927l-1.989.056Z" transform="translate(-1675.627 -1486.52)" fill="#e36669"/>
          <path id="Path_10114" data-name="Path 10114" d="M1622.38,1427.98l2.009-.084V1413.52l-2.009.045Z" transform="translate(-1611.479 -1409.081)" fill="#e36669"/>
          <path id="Path_10115" data-name="Path 10115" d="M1554,1499.99l2.028-.085V1489.37l-2.028.056Z" transform="translate(-1546.698 -1480.94)" fill="#e36668"/>
          <path id="Path_10116" data-name="Path 10116" d="M1484.95,1396.868l2.048-.086V1380.36l-2.048.04Z" transform="translate(-1481.281 -1377.666)" fill="#e36668"/>
          <path id="Path_10117" data-name="Path 10117" d="M1415.21,1365.171l2.069-.086V1346.74l-2.069.036Z" transform="translate(-1415.21 -1345.815)" fill="#e36668"/>
        </g>
        <path id="Path_10118" data-name="Path 10118" d="M1415.21,1691.218l33.667-1.538v-1.76l-33.667,1.455Z" transform="translate(-1340.75 -1601.241)" fill="#d8dee8" opacity="0.3"/>
        <path id="Path_10119" data-name="Path 10119" d="M1415.21,1764.118l23.437-1.151v-.787l-23.437,1.125Z" transform="translate(-1340.75 -1671.594)" fill="#d8dee8" opacity="0.3"/>
        <path id="Path_10120" data-name="Path 10120" d="M1415.21,1183.617l33.667-.349V1179.9l-33.667.189Z" transform="translate(-1340.75 -1119.951)" fill="#d8dee8" opacity="0.5"/>
        <path id="Path_10121" data-name="Path 10121" d="M1493.77,557.115a13.1,13.1,0,0,0,13.089,13,12.5,12.5,0,0,0,12.634-12.482,13.124,13.124,0,0,0-12.634-12.987A12.489,12.489,0,0,0,1493.77,557.115Z" transform="translate(-1415.176 -515.976)" fill="#d8dee8"/>
        <path id="Path_10122" data-name="Path 10122" d="M1508.153,569.784a11.72,11.72,0,0,1,8.26-10.839,12.108,12.108,0,0,1,4.066-.541,12.38,12.38,0,0,1,11.929,12.252,11.793,11.793,0,0,1-11.929,11.774,12.361,12.361,0,0,1-12.334-12.26C1508.143,570.04,1508.149,569.912,1508.153,569.784Z" transform="translate(-1428.795 -529.015)" fill="#fff" opacity="0.35"/>
        <path id="Path_10123" data-name="Path 10123" d="M1508.153,569.784a11.72,11.72,0,0,1,8.26-10.839,12.108,12.108,0,0,1,4.066-.541,12.38,12.38,0,0,1,11.929,12.252,11.793,11.793,0,0,1-11.929,11.774,12.361,12.361,0,0,1-12.334-12.26C1508.143,570.04,1508.149,569.912,1508.153,569.784Z" transform="translate(-1428.795 -529.015)" opacity="0.7" fill="url(#linear-gradient-16)"/>
        <path id="Path_10124" data-name="Path 10124" d="M1508.3,579.689a11.72,11.72,0,0,1,8.261-10.839l4.066,11.47Z" transform="translate(-1428.942 -538.919)" fill="#fff"/>
        <path id="Path_10125" data-name="Path 10125" d="M1448.7,1854.006l-33.495,2.681v-21.079l.338-.017v20.743l33.157-2.64Z" transform="translate(-1340.75 -1741.141)" fill="#d8dee8"/>
        <path id="Path_10126" data-name="Path 10126" d="M1501.648,1906.363l-.238-.211,7.006-7.439,6.748,1.883,6.531-5.987,6.453,2.914-.141.288-6.268-2.827-6.506,5.968-6.73-1.874Z" transform="translate(-1422.414 -1797.056)" fill="#d8dee8"/>
        <path id="Path_10127" data-name="Path 10127" d="M1484.071,2055.152a1.239,1.239,0,0,1-1.149,1.2,1.044,1.044,0,0,1-1.152-1.037,1.24,1.24,0,0,1,1.152-1.2A1.042,1.042,0,0,1,1484.071,2055.152Z" transform="translate(-1403.807 -1946.032)" opacity="0.7" fill="url(#linear-gradient-17)"/>
        <path id="Path_10128" data-name="Path 10128" d="M1616.148,1915.439a1.209,1.209,0,0,1-1.128,1.18,1.04,1.04,0,0,1-1.131-1.039,1.208,1.208,0,0,1,1.131-1.18A1.039,1.039,0,0,1,1616.148,1915.439Z" transform="translate(-1528.976 -1813.67)" opacity="0.7" fill="url(#linear-gradient-18)"/>
        <path id="Path_10129" data-name="Path 10129" d="M1744.613,1951.314a1.2,1.2,0,0,1-1.1,1.172,1.021,1.021,0,0,1-1.11-1.026,1.2,1.2,0,0,1,1.11-1.172,1.021,1.021,0,0,1,1.1,1.027Z" transform="translate(-1650.723 -1847.667)" opacity="0.7" fill="url(#linear-gradient-19)"/>
        <path id="Path_10130" data-name="Path 10130" d="M1868.805,1837.913a1.168,1.168,0,0,1-1.087,1.152,1.016,1.016,0,0,1-1.09-1.026,1.169,1.169,0,0,1,1.09-1.153,1.017,1.017,0,0,1,1.087,1.027Z" transform="translate(-1768.416 -1740.234)" opacity="0.7" fill="url(#linear-gradient-20)"/>
        <path id="Path_10131" data-name="Path 10131" d="M1990.017,1892.631a1.161,1.161,0,0,1-1.068,1.147,1,1,0,0,1-1.071-1.013,1.16,1.16,0,0,1,1.071-1.147,1,1,0,0,1,1.068,1.013Z" transform="translate(-1883.286 -1792.086)" opacity="0.7" fill="url(#linear-gradient-21)"/>
        <g id="Group_2845" data-name="Group 2845" transform="translate(38.931 45.836)">
          <path id="Path_10132" data-name="Path 10132" d="M752.326,897.537l-1.727.036a1.954,1.954,0,0,1-2.064-1.888v-1.81a2.424,2.424,0,0,0-1.568-2.271,10.514,10.514,0,0,1-6.941-11.049,11.053,11.053,0,0,1,10.135-9.352,11.727,11.727,0,0,1,8.787,2.728,10.353,10.353,0,0,1,3.689,7.844,10.623,10.623,0,0,1-6.735,9.71,2.486,2.486,0,0,0-1.537,2.3v1.8A2.03,2.03,0,0,1,752.326,897.537Zm-.849-25.776a11.917,11.917,0,0,0-1.244.05,10.411,10.411,0,0,0-9.542,8.811,9.911,9.911,0,0,0,6.534,10.413,3.027,3.027,0,0,1,1.965,2.829v1.809a1.333,1.333,0,0,0,1.407,1.289l1.727-.035a1.39,1.39,0,0,0,1.4-1.339v-1.8a3.1,3.1,0,0,1,1.931-2.861,10.013,10.013,0,0,0,6.355-9.155,9.757,9.757,0,0,0-3.483-7.4A10.952,10.952,0,0,0,751.477,871.761Z" transform="translate(-739.952 -871.149)" fill="#d4d4d4"/>
          <path id="Path_10133" data-name="Path 10133" d="M910.633,1395.828l-4.383.118a.308.308,0,0,1-.328-.3.328.328,0,0,1,.328-.316l3.736-.1v-.258l-4.985.129v-.889l4.983-.886v-.21l-4.327.1v.215a.327.327,0,0,1-.328.316.308.308,0,0,1-.328-.3v-.828l5.63-.127v1.335l-3.38.6,3.38-.084Z" transform="translate(-896.316 -1365.069)" fill="#d4d4d4"/>
          <path id="Path_10134" data-name="Path 10134" d="M915.691,1463.346a2.241,2.241,0,0,1-2.391-2.168.328.328,0,0,1,.328-.316.307.307,0,0,1,.328.3,1.627,1.627,0,0,0,1.736,1.575,1.737,1.737,0,0,0,1.728-1.671.326.326,0,0,1,.325-.316.3.3,0,0,1,.324.3A2.4,2.4,0,0,1,915.691,1463.346Z" transform="translate(-904.179 -1429.725)" fill="#d4d4d4"/>
          <path id="Path_10135" data-name="Path 10135" d="M915.709,1136.67h0a.312.312,0,0,1-.316-.247l-2.067-11.09a.31.31,0,0,1,.267-.356.324.324,0,0,1,.379.248l1.757,9.447,1.947-9.471a.325.325,0,0,1,.379-.243.3.3,0,0,1,.257.356l-2.278,11.1A.329.329,0,0,1,915.709,1136.67Z" transform="translate(-904.198 -1111.597)" fill="#d4d4d4"/>
        </g>
        <path id="Path_10136" data-name="Path 10136" d="M1822.431,907.71s9.045,8.161,3.785,23.455a1.948,1.948,0,0,1-3.325.624l-6.221-7.307a5.458,5.458,0,0,1-1.257-4.236l1.011-7.835Z" transform="translate(-1719.853 -859.95)" fill="#2b363a"/>
        <path id="Path_10137" data-name="Path 10137" d="M1157.843,658.167s-11.284-4.591-22.764,6.8a1.946,1.946,0,0,0,.885,3.262l9.287,2.42a5.458,5.458,0,0,0,4.36-.712l6.614-4.32Z" transform="translate(-1074.814 -622.671)" fill="#2b363a"/>
        <path id="Path_10138" data-name="Path 10138" d="M1835.442,887s9.045,8.161,3.785,23.454a1.948,1.948,0,0,1-3.325.624l-6.221-7.307a5.457,5.457,0,0,1-1.257-4.235l1.01-7.835Z" transform="translate(-1732.179 -840.329)" fill="#34444b"/>
        <path id="Path_10139" data-name="Path 10139" d="M1170.855,637.424s-11.284-4.591-22.763,6.8a1.946,1.946,0,0,0,.885,3.262l9.286,2.42a5.457,5.457,0,0,0,4.36-.712l6.614-4.32Z" transform="translate(-1087.142 -603.019)" fill="#34444b"/>
        <path id="Path_10140" data-name="Path 10140" d="M1481.4,10.7c10.039-12.65,29.205-10.592,29.218-10.57.025,0,10.219,16.364,3.2,30.906-6.366,13.193-22.555,24.05-25.677,26.055-.336.216-.885.521-1.133.21A29.728,29.728,0,0,0,1469.4,46.263c-.378-.08-.33-.7-.284-1.083C1469.555,41.548,1472.277,22.2,1481.4,10.7Z" transform="translate(-1391.786 0.003)" fill="#2f3e45"/>
        <g id="Group_2841" data-name="Group 2841" transform="translate(87.081 4.3)" opacity="0.3">
          <path id="Path_10141" data-name="Path 10141" d="M1666.79,104.574c5.624-7.027,11.839-5.083,17.337-11.272,2.007-2.262,4.086-5.792,4.837-11.582,2.552,5.79,5.913,16.7,1.067,26.742-6.366,13.193-22.555,24.05-25.677,26.055-.335.216-.885.521-1.133.21a31.148,31.148,0,0,0-8.141-7.314,20.649,20.649,0,0,0,4.85-5.087C1664.35,115.68,1661.666,110.977,1666.79,104.574Z" transform="translate(-1655.08 -81.72)" fill="#242424"/>
        </g>
        <path id="Path_10142" data-name="Path 10142" d="M1860.462,10.368c-4.731-2.968-10.432-5.5-15.332-5.951C1853.758-.421,1863.8-.1,1866.3.083a1.114,1.114,0,0,1,.886.556c1.248,2.17,5.909,11.069,5.31,20.941C1870.34,17.8,1865.193,13.336,1860.462,10.368Z" transform="translate(-1748.049 0)" fill="#dc2626"/>
        <path id="Path_10143" data-name="Path 10143" d="M2237.328,81.73l.036.081c.02.046.041.093.061.139s.041.094.061.142l.059.135c.021.053.043.1.064.152l.052.132.068.163c.018.042.035.085.052.128l.071.173c.017.041.033.082.052.124.025.061.05.122.074.184l.047.12c.025.064.053.128.076.194l.046.117.077.2.043.115c.027.07.052.14.079.21l.041.112c.027.073.053.146.081.22l.039.109c.027.076.053.153.082.229l.037.105c.027.079.055.158.083.238l.035.105c.028.081.056.163.083.246.011.034.023.067.033.1.028.084.056.168.084.254l.032.1.083.263.03.1c.028.089.057.179.084.27l.028.093q.042.138.083.277l.027.091q.042.142.083.286c.009.029.017.058.025.087.028.1.052.2.083.295.008.028.016.056.023.084l.081.3c.007.027.015.053.022.082q.041.153.081.308l.021.081c.026.105.052.21.078.316l.019.077c.026.105.052.213.077.322l.017.075c.025.109.052.219.075.329l.016.071q.037.168.073.337l.014.068.07.344.013.064c.024.116.046.234.068.351,0,.021.008.041.011.062.022.119.044.238.065.358,0,.019.007.038.01.057.021.121.043.243.063.365,0,.018.006.037.009.053.021.123.04.247.059.371,0,.017.005.033.008.053q.029.189.055.38l.007.045q.027.193.052.388a.288.288,0,0,0,.005.041c.016.132.032.263.048.4a.106.106,0,0,0,0,.034c.016.135.03.27.044.406l0,.027q.021.208.039.416V94.5c.012.142.024.283.035.426v.01a30.263,30.263,0,0,1,.035,4.083,30.078,30.078,0,0,0-6.906-7.522A22.166,22.166,0,0,0,2237.328,81.73Z" transform="translate(-2116.363 -77.43)" opacity="0.3" fill="url(#linear-gradient-22)"/>
        <ellipse id="Ellipse_385" data-name="Ellipse 385" cx="11.727" cy="13.022" rx="11.727" ry="13.022" transform="translate(85.85 28.209) rotate(-57.9)" fill="url(#linear-gradient-23)"/>
        <path id="Path_10144" data-name="Path 10144" d="M1817.774,361.656c4.59-5.735,9.572-5.5,14.237-8.576,3.118,4.01,3.731,9.366,1.116,13.536-3.442,5.487-11.17,6.836-17.263,3.015a14.634,14.634,0,0,1-1.414-1.01A16.312,16.312,0,0,1,1817.774,361.656Z" transform="translate(-1718.983 -334.502)" fill="url(#linear-gradient-24)"/>
        <ellipse id="Ellipse_386" data-name="Ellipse 386" cx="10.749" cy="11.936" rx="10.749" ry="11.936" transform="translate(87.289 27.957) rotate(-57.9)" fill="url(#linear-gradient-25)"/>
        <ellipse id="Ellipse_387" data-name="Ellipse 387" cx="9.364" cy="10.397" rx="9.364" ry="10.397" transform="translate(89.329 27.602) rotate(-57.9)" fill="#dc2626"/>
        <ellipse id="Ellipse_388" data-name="Ellipse 388" cx="3.2" cy="10.83" rx="3.2" ry="10.83" transform="translate(75.498 48.755) rotate(-57.9)" fill="#dc2626"/>
        <path id="Path_10145" data-name="Path 10145" d="M1455.229,919.48l3.938,2.47a6.075,6.075,0,0,1,2.754,6.2l-.408,2.311a1.218,1.218,0,0,1-1.846.82l-13.057-8.191a1.217,1.217,0,0,1-.066-2.018l1.9-1.373A6.074,6.074,0,0,1,1455.229,919.48Z" transform="translate(-1369.956 -870.22)" fill="#34444b"/>
        <ellipse id="Ellipse_389" data-name="Ellipse 389" cx="3.02" cy="8.938" rx="3.02" ry="8.938" transform="translate(74.331 54.251) rotate(-57.9)" fill="#2b363a"/>
        <path id="Path_10146" data-name="Path 10146" d="M1475.468,995.282c-.674,1.074,1.357,3.56,4.535,5.554s6.3,2.739,6.974,1.666-1.357-3.56-4.535-5.554S1476.141,994.209,1475.468,995.282Z" transform="translate(-1397.715 -942.449)" fill="#dc2626"/>
        <g id="Group_2842" data-name="Group 2842" transform="translate(96.209 19.769)" opacity="0.3">
          <path id="Path_10147" data-name="Path 10147" d="M1831.142,383.1c3.9-4.877,8.091-5.434,12.126-7.386a9.453,9.453,0,0,1,1,10.951c-2.748,4.381-8.919,5.458-13.785,2.407a11.507,11.507,0,0,1-1.926-1.515A16.219,16.219,0,0,1,1831.142,383.1Z" transform="translate(-1828.56 -375.71)" fill="url(#linear-gradient-26)"/>
        </g>
        <path id="Path_10148" data-name="Path 10148" d="M258.308,1078.119l88.192-9.5c.012-25.556-5.8-37.524-11.533-43.686-1.823-1.959-7.5-7.488-6.668-13.9.481-3.683,2.953-6.439,5.017-8.218,1.651-2.968-9.65-9.506-11.509-7.219-4.725.54-11.62,2.112-16.673,7.391-6.441,6.729-3.736,13.057-9.022,20.362-7.489,10.35-19.152,6.255-28.529,13.9C261.44,1042.256,255.542,1052.9,258.308,1078.119Z" transform="translate(-244.055 -942.766)" opacity="0.32" fill="url(#linear-gradient-27)"/>
        <path id="Path_10149" data-name="Path 10149" d="M185.266,2342.694l-13.192,2.543c-2.669.263-6.2-2.608-6.2-5.044v-4.662a5.182,5.182,0,0,1,4.841-4.844l14.556-1.3a4.084,4.084,0,0,1,4.713,3.919v4.585A5.12,5.12,0,0,1,185.266,2342.694Z" transform="translate(-157.145 -2206.804)" fill="url(#linear-gradient-28)"/>
        <path id="Path_10150" data-name="Path 10150" d="M740.154,2167.662l-12.688,2.457c-2.565.252-5.946-2.558-5.946-4.946v-11.688a4.988,4.988,0,0,1,4.65-4.716l13.986-1.18c2.506-.21,6.874,1.725,6.874,4.076l-2.346,11.295A4.963,4.963,0,0,1,740.154,2167.662Z" transform="translate(-683.559 -2034.575)" fill="url(#linear-gradient-29)"/>
        <path id="Path_10151" data-name="Path 10151" d="M1273.274,1841.167l-11.733,2.477c-2.466.243-6.19-2.611-6.19-4.953V1811.35a4.77,4.77,0,0,1,4.472-4.566l13.451-.983c2.41-.176,7.139,1.757,7.139,4.062l-2.781,26.7A4.818,4.818,0,0,1,1273.274,1841.167Z" transform="translate(-1189.301 -1710.775)" fill="url(#linear-gradient-30)"/>
        <path id="Path_10152" data-name="Path 10152" d="M1786.114,1527.019l-10.786,2.473c-2.372.234-6.458-2.635-6.458-4.932v-42.4a4.566,4.566,0,0,1,4.3-4.425l12.944-.8c2.32-.144,6.6,1.7,6.6,3.965l-2.4,41.608A4.679,4.679,0,0,1,1786.114,1527.019Z" transform="translate(-1675.802 -1399.221)" fill="url(#linear-gradient-31)"/>
        <path id="Path_10153" data-name="Path 10153" d="M2225.5,721.76l-9.6-24.433c-.2-.421-3.4-1.626-3.808-1.618a1.176,1.176,0,0,0-1.047.68l-12.662,26.781a1.094,1.094,0,0,0,.246,1.3c.2.183,3.045,1.291,3.045,1.291v58.427c0,1.021,3.144,2.913,4.18,2.811l14.64-2.815a2.058,2.058,0,0,0,1.827-2V723.529l2.165-.115A1.177,1.177,0,0,0,2225.5,721.76Z" transform="translate(-2082.609 -659.104)" fill="url(#linear-gradient-32)"/>
        <path id="Path_10154" data-name="Path 10154" d="M240.486,2365.226l-14.555,1.433c-2.67.263-4.841-1.5-4.841-3.936v-4.662a5.183,5.183,0,0,1,4.841-4.845l14.555-1.3a4.084,4.084,0,0,1,4.714,3.92v4.585A5.12,5.12,0,0,1,240.486,2365.226Z" transform="translate(-209.46 -2228.149)" fill="url(#linear-gradient-33)"/>
        <path id="Path_10155" data-name="Path 10155" d="M795.326,2190.2l-13.986,1.376a4.007,4.007,0,0,1-4.65-3.867v-11.69a4.989,4.989,0,0,1,4.65-4.717l13.986-1.179a3.982,3.982,0,0,1,4.531,3.873v11.5A4.967,4.967,0,0,1,795.326,2190.2Z" transform="translate(-735.826 -2055.928)" fill="url(#linear-gradient-34)"/>
        <path id="Path_10156" data-name="Path 10156" d="M1328.483,1863.723l-13.45,1.324a3.887,3.887,0,0,1-4.472-3.8v-27.341a4.771,4.771,0,0,1,4.472-4.566l13.45-.983a3.912,3.912,0,0,1,4.357,3.854v26.91A4.816,4.816,0,0,1,1328.483,1863.723Z" transform="translate(-1241.606 -1732.144)" fill="url(#linear-gradient-35)"/>
        <path id="Path_10157" data-name="Path 10157" d="M1841.315,1549.57l-12.944,1.274a3.77,3.77,0,0,1-4.3-3.736v-42.394a4.566,4.566,0,0,1,4.3-4.425l12.944-.8a3.85,3.85,0,0,1,4.195,3.836v41.738A4.676,4.676,0,0,1,1841.315,1549.57Z" transform="translate(-1728.097 -1420.585)" fill="url(#linear-gradient-36)"/>
        <path id="Path_10158" data-name="Path 10158" d="M2280.74,744.329l-12.388-25.438a1.148,1.148,0,0,0-2.064.067l-12.661,26.782a1.09,1.09,0,0,0,1.052,1.578l2.239-.119V806.76a1.66,1.66,0,0,0,1.879,1.663l16.943-1.667a2.058,2.058,0,0,0,1.827-2V746.1l2.165-.115A1.174,1.174,0,0,0,2280.74,744.329Z" transform="translate(-2134.944 -680.485)" fill="url(#linear-gradient-37)"/>
        <path id="Path_10159" data-name="Path 10159" d="M445.084,2744.787a7.85,7.85,0,0,0-.474,1.319v.006a.69.69,0,0,0,.7.656,21.829,21.829,0,0,0,4.08-.531c1.45-.451-3.528-1.617-3.528-1.617Z" transform="translate(-421.219 -2600.209)" fill="#263238"/>
        <path id="Path_10160" data-name="Path 10160" d="M454.22,2711.7l.081,1.908s.29.46,1-.125l.385-2.028Z" transform="translate(-430.323 -2568.784)" fill="#ffbc96"/>
        <path id="Path_10161" data-name="Path 10161" d="M419.872,2025.674a6.686,6.686,0,0,0-2.13,1.889c-2.213,3.026-.856,6.314-.967,11.523-.155,7.232-2.924,8.165-2.605,15.02a26.05,26.05,0,0,0,1.484,7.488l2.683-.356a59.073,59.073,0,0,1,4.889-18.813c3.534-7.84,7.535-11.871,5.939-14.911C427.845,2025,423.082,2023.9,419.872,2025.674Z" transform="translate(-392.356 -1918.267)" fill="#263238"/>
        <path id="Path_10162" data-name="Path 10162" d="M445.635,2027.52c-1.319-2.514-6.081-3.617-9.292-1.841-.118.065-.229.135-.338.2,2.334,3.965,2.375,6.682,1.854,8.524-.534,1.882-1.649,2.817-1.911,5.536-.292,3.025.928,3.538.461,6-.587,3.094-2.661,3.031-3.23,6.063-.54,2.881,1.082,4.268.066,6.129a3.919,3.919,0,0,1-1.716,1.573c.2.721.4,1.358.6,1.9l2.683-.356a59.073,59.073,0,0,1,4.889-18.813C443.229,2034.589,447.231,2030.56,445.635,2027.52Z" transform="translate(-408.827 -1918.271)" fill="#1a1d1e" opacity="0.3"/>
        <path id="Path_10163" data-name="Path 10163" d="M731.994,2758.988a7.886,7.886,0,0,0-.474,1.318.023.023,0,0,1,0,.006.69.69,0,0,0,.7.656,21.673,21.673,0,0,0,4.08-.531c1.449-.45-3.528-1.617-3.528-1.617Z" transform="translate(-693.033 -2613.662)" fill="#263238"/>
        <path id="Path_10164" data-name="Path 10164" d="M733,2726.055l.484,1.951s.29.46,1-.125l-.02-2.071Z" transform="translate(-694.435 -2582.388)" fill="#ffbc96"/>
        <path id="Path_10165" data-name="Path 10165" d="M590.033,1999.025c-2.149,2.217.566,10.049,1.962,14.078a14.609,14.609,0,0,1,.684,2.7,17.349,17.349,0,0,1,.047,4.332,31.037,31.037,0,0,0,.474,6.612,21.583,21.583,0,0,0,3.157,7.993l2.439-.425c.029-3.522.123-9.26.461-16.367.552-11.62,1.535-22.223.33-22.461-.4-.078-.492,1.073-1.714,2.126C595.074,2000.022,591.674,1997.332,590.033,1999.025Z" transform="translate(-558.234 -1890.484)" fill="#263238"/>
        <path id="Path_10166" data-name="Path 10166" d="M269.933,1539.28c-2.764.165-12,1.009-17.406,7.114-1.278,1.444-4.415,4.988-2.916,8.095,1.444,2.995,6.816,4.8,13.185,3.8l1.286-1.627c-3.52-.359-5.957-2.009-6.11-3.729-.134-1.5,1.508-2.716,2.331-3.323a12.077,12.077,0,0,1,7.558-1.966Q268.894,1543.461,269.933,1539.28Z" transform="translate(-236.103 -1458.289)" fill="#dc2626"/>
        <ellipse id="Ellipse_390" data-name="Ellipse 390" cx="2.321" cy="3.315" rx="2.321" ry="3.315" transform="matrix(0.841, -0.541, 0.541, 0.841, 52.068, 63.945)" fill="#1e1e1e"/>
        <path id="Path_10167" data-name="Path 10167" d="M816.2,1222.81l10.745-11.01a.625.625,0,0,1,.537-.183,3.519,3.519,0,0,1,3.21,3.55.635.635,0,0,1-.321.573l-13.5,7.634Z" transform="translate(-773.257 -1147.86)" fill="url(#linear-gradient-38)"/>
        <path id="Path_10168" data-name="Path 10168" d="M813.81,1418.285a.577.577,0,0,1-.031.79c-.211.135-.538,0-.732-.3a.576.576,0,0,1,.032-.789C813.289,1417.851,813.619,1417.985,813.81,1418.285Z" transform="translate(-770.141 -1343.327)" fill="url(#linear-gradient-39)"/>
        <path id="Path_10169" data-name="Path 10169" d="M971.43,1309.206l-1.92-1.448s.956-.284.616-1.7.587-1.143.617,0a6.44,6.44,0,0,0,.329,1.929l1.171.842Z" transform="translate(-918.501 -1236.425)" fill="#ffbc96"/>
        <path id="Path_10170" data-name="Path 10170" d="M669.682,1428.248a2.462,2.462,0,0,0,.158-1.793c-.2-.769-.276-.885-.424-1.045l-.21-.21-.026-.018a2.915,2.915,0,0,0-.789-.242c-.364-.01-1.073,1.311-1.45,3.33-.033.073-.065.146-.1.22-.06.137-.1.239-.105.246a4.089,4.089,0,0,1-.867,1.1c-.964.822-3.182,1.309-3.163,1.67.017.335,1.963.565,3.888.526,1.36-.029,3.672-.216,3.713-.7s-2.275-.7-2-2.315C668.339,1428.86,669.369,1428.807,669.682,1428.248Z" transform="translate(-627.841 -1349.964)" fill="#ffbc96"/>
        <path id="Path_10171" data-name="Path 10171" d="M721.576,1376.978a2.391,2.391,0,0,1-.775,1.276,1.048,1.048,0,0,0-.283.19.309.309,0,0,0-.052.065c-.229.356.279.964.117,1.109-.117.105-.5-.165-.574-.068s.226.388.143.5c-.062.083-.257-.053-.427.056-.085.053-.078.116-.2.316a2,2,0,0,1-.221.3c-.3.311-.937.3-1.019.124-.023-.048.013-.075.013-.219a1.125,1.125,0,0,0-.053-.3,2.906,2.906,0,0,0-.592-.752,2.062,2.062,0,0,1-.553-1.052c-.006-.046-.009-.08-.011-.105a2.368,2.368,0,0,1,.428-1.521c.509-.605,1.2-.092,2-.621.921-.611.745-1.793,1.171-1.816C721.155,1374.43,721.856,1375.837,721.576,1376.978Z" transform="translate(-679.354 -1302.135)" fill="#263238"/>
        <path id="Path_10172" data-name="Path 10172" d="M771.174,1466.51c-.1-.244-.415-.113-.481.158a.5.5,0,0,0,.392.62C771.351,1467.3,771.31,1466.84,771.174,1466.51Z" transform="translate(-730.132 -1389.226)" fill="#ffbc96"/>
        <path id="Path_10173" data-name="Path 10173" d="M381.011,1375.011c1.192-.866,3.088-1.028,6.885-1.3a61.9,61.9,0,0,1,7.086-.022c3.446.15,4.713.421,6.9-.13,1.542-.386,3.306-.83,3.821-2.157.567-1.456-.526-3.587-2.747-5.238q.671-.543,1.341-1.089a9.034,9.034,0,0,1,5.235,3.281,8.356,8.356,0,0,1,1.355,7.791c-.913,2.346-2.955,3.5-6.03,5.248-3.445,1.953-4.179,1.361-5.624,2.837-1.093,1.118-1.637,3.459-2.68,8.095-.588,2.612-1,4.806-1.969,8.155-.929,3.2-1.263,3.631-1.622,3.958-1.721,1.573-3.563.413-8.655,1.142-3.25.466-3.224,1.039-6.107,1.23-2.663.177-5.461.363-7.117-1.494a5.585,5.585,0,0,1-1.142-4.13c.287-2.4,2.034-3.439,3.736-5.577,1.526-1.922,2.226-4.181,3.625-8.7C379.7,1379.177,378.59,1376.771,381.011,1375.011Z" transform="translate(-350.443 -1293.255)" fill="#dc2626"/>
        <path id="Path_10174" data-name="Path 10174" d="M411.222,1501.06a8.53,8.53,0,0,1-1.469,3.04c-2.368,3.085-6.643,4-8.875,4.481-4.051.869-6.515.189-7.293,1.67-.732,1.394,1.184,2.508.967,5.009-.263,3.015-3.193,3.113-5.008,6.942-1.864,3.931-.23,6.9-2.108,8-1.271.74-2.168-.531-5.008-.789-5.175-.473-7.822,3.233-10.281,1.933a3.908,3.908,0,0,1-1.786-2.775,4.782,4.782,0,0,0-.41,1.458,5.584,5.584,0,0,0,1.142,4.13c1.656,1.856,4.454,1.671,7.117,1.494,2.882-.191,2.857-.765,6.107-1.23,5.092-.729,6.934.431,8.655-1.142.359-.328.693-.757,1.622-3.958.973-3.35,1.382-5.543,1.969-8.155,1.043-4.636,1.587-6.977,2.68-8.095,1.444-1.477,2.179-.884,5.624-2.837,3.075-1.743,5.117-2.9,6.03-5.248A7.265,7.265,0,0,0,411.222,1501.06Z" transform="translate(-350.453 -1422.08)" fill="#c72032" opacity="0.3"/>
      </g>
    </g>
  </g>
</svg>
