<svg width="800" height="800" viewBox="0 0 800 800" fill="none" xmlns="http://www.w3.org/2000/svg">
<path d="M250 698.002H175C168.369 698.002 162.011 695.367 157.322 690.68C152.634 685.99 150 679.632 150 673.002C150 666.37 152.634 660.012 157.322 655.325C162.011 650.635 168.369 648.002 175 648.002H230.75L250 590.002C252.257 583.83 256.855 578.795 262.797 575.99C268.74 573.182 275.548 572.827 281.75 575.002C288 577.112 293.162 581.607 296.112 587.507C299.062 593.407 299.562 600.235 297.5 606.502L272.5 681.502C270.815 686.177 267.772 690.242 263.765 693.182C259.757 696.122 254.965 697.8 250 698.002Z" fill="#FF8F00"/>
<path d="M150 723C140.111 723 130.444 720.068 122.221 714.575C113.999 709.08 107.59 701.273 103.806 692.135C100.022 683 99.0315 672.945 100.961 663.248C102.89 653.548 107.652 644.638 114.645 637.645C121.637 630.653 130.546 625.89 140.245 623.963C149.944 622.033 159.998 623.023 169.134 626.808C178.27 630.593 186.079 637 191.573 645.223C197.067 653.445 200 663.113 200 673C200 686.263 194.732 698.98 185.355 708.357C175.978 717.732 163.261 723 150 723Z" fill="#1565C0"/>
<path d="M225 198.001C221.692 197.988 218.42 197.318 215.373 196.03C212.327 194.743 209.565 192.864 207.25 190.501L164.75 148.001H125C118.37 148.001 112.011 145.367 107.322 140.679C102.634 135.991 100 129.632 100 123.001C100 116.371 102.634 110.012 107.322 105.324C112.011 100.635 118.37 98.0014 125 98.0014H175C178.29 97.9824 181.552 98.6129 184.598 99.8571C187.644 101.101 190.414 102.934 192.75 105.251L242.75 155.251C246.276 158.748 248.68 163.216 249.657 168.084C250.633 172.953 250.137 178.002 248.234 182.588C246.33 187.175 243.103 191.09 238.965 193.835C234.827 196.58 229.966 198.03 225 198.001Z" fill="#FF8F00"/>
<path d="M100 173.001C90.111 173.001 80.444 170.069 72.2215 164.574C63.999 159.08 57.5905 151.271 53.806 142.135C50.0217 132.999 49.0315 122.946 50.9607 113.246C52.89 103.547 57.652 94.6385 64.6447 87.6457C71.6372 80.6532 80.5465 75.891 90.2455 73.9617C99.9445 72.0325 109.998 73.0227 119.134 76.8072C128.27 80.5914 136.079 87.0002 141.573 95.2225C147.067 103.445 150 113.112 150 123.001C150 136.262 144.732 148.98 135.355 158.356C125.978 167.733 113.261 173.001 100 173.001Z" fill="#1565C0"/>
<path d="M548.75 173.001H598.75L623.75 123.001H673.75" fill="#F57C00"/>
<path d="M600 198.001H550C543.37 198.001 537.01 195.367 532.323 190.679C527.635 185.99 525 179.631 525 173.001C525 166.371 527.635 160.012 532.323 155.323C537.01 150.635 543.37 148.001 550 148.001H584.5L602.75 111.751C604.828 107.628 608.005 104.161 611.933 101.734C615.86 99.3072 620.383 98.015 625 98.001H675C681.63 98.001 687.99 100.635 692.677 105.323C697.365 110.012 700 116.371 700 123.001C700 129.631 697.365 135.99 692.677 140.679C687.99 145.367 681.63 148.001 675 148.001H639.25L621.25 184.001C619.285 188.023 616.278 191.444 612.54 193.907C608.803 196.37 604.47 197.784 600 198.001Z" fill="#F57C00"/>
<path d="M701.25 177.252C691.36 177.252 681.692 174.32 673.47 168.826C665.25 163.332 658.84 155.523 655.055 146.386C651.272 137.25 650.28 127.197 652.21 117.498C654.14 107.799 658.902 98.8895 665.895 91.897C672.887 84.9042 681.795 80.1422 691.495 78.213C701.195 76.2837 711.247 77.2737 720.385 81.0582C729.52 84.8425 737.33 91.2512 742.822 99.4737C748.317 107.696 751.25 117.363 751.25 127.252C751.25 140.513 745.982 153.231 736.605 162.607C727.227 171.984 714.51 177.252 701.25 177.252Z" fill="#1565C0"/>
<path d="M706.75 620.002L606.75 520.002L575 479.002C572.787 476.337 570.045 474.16 566.945 472.61C563.847 471.06 560.46 470.172 557 470.002C553.562 469.815 550.12 470.34 546.895 471.542C543.667 472.747 540.725 474.607 538.25 477.002L459 555.502C456.637 557.817 454.76 560.577 453.472 563.625C452.185 566.672 451.515 569.945 451.5 573.252C451.482 576.542 452.112 579.802 453.355 582.85C454.6 585.895 456.432 588.665 458.75 591.002L597 730.002C611.052 744.07 630.115 751.985 650 752.002C669.885 751.985 688.947 744.07 703 730.002L707.25 725.752C721.152 711.632 728.905 692.587 728.81 672.772C728.717 652.96 720.785 633.987 706.75 620.002Z" fill="#304046"/>
<path d="M398.75 648C550.627 648 673.75 524.88 673.75 373C673.75 221.123 550.627 98.001 398.75 98.001C246.872 98.001 123.75 221.123 123.75 373C123.75 524.88 246.872 648 398.75 648Z" fill="#01579B"/>
<path d="M398.75 548C495.4 548 573.75 469.65 573.75 373C573.75 276.352 495.4 198.001 398.75 198.001C302.1 198.001 223.75 276.352 223.75 373C223.75 469.65 302.1 548 398.75 548Z" fill="#BBDEFB"/>
<path d="M250 700H175C168.37 700 162.011 697.368 157.322 692.678C152.634 687.99 150 681.63 150 675C150 668.37 152.634 662.01 157.322 657.323C162.011 652.635 168.37 650 175 650H232L251.25 592C253.373 585.703 257.91 580.503 263.862 577.55C266.812 576.088 270.02 575.22 273.303 574.998C276.585 574.773 279.88 575.2 283 576.25C286.12 577.3 289 578.955 291.48 581.12C293.96 583.283 295.988 585.915 297.45 588.863C298.913 591.813 299.78 595.02 300.003 598.303C300.228 601.585 299.8 604.883 298.75 608L273.75 683C272.073 687.965 268.878 692.278 264.615 695.33C260.355 698.38 255.24 700.013 250 700Z" fill="#FF8F00"/>
<path d="M150 725C140.111 725 130.444 722.068 122.221 716.573C113.999 711.08 107.59 703.27 103.806 694.135C100.022 684.998 99.0315 674.945 100.961 665.245C102.89 655.548 107.652 646.638 114.645 639.645C121.637 632.653 130.546 627.89 140.245 625.96C149.944 624.033 159.998 625.023 169.134 628.805C178.27 632.59 186.079 639 191.573 647.223C197.067 655.445 200 665.11 200 675C200 688.26 194.732 700.978 185.355 710.355C175.978 719.733 163.261 725 150 725Z" fill="#0277BD"/>
<path d="M225 200C221.71 200.019 218.448 199.389 215.402 198.145C212.356 196.9 209.586 195.067 207.25 192.75L164.75 150H125C118.37 150 112.011 147.366 107.322 142.678C102.634 137.99 100 131.631 100 125C100 118.37 102.634 112.011 107.322 107.323C112.011 102.634 118.37 100 125 100H175C178.29 99.9814 181.552 100.612 184.598 101.856C187.644 103.1 190.414 104.933 192.75 107.25L242.75 157.25C245.093 159.574 246.953 162.339 248.222 165.386C249.492 168.432 250.145 171.7 250.145 175C250.145 178.301 249.492 181.568 248.222 184.615C246.953 187.661 245.093 190.426 242.75 192.75C240.414 195.067 237.644 196.9 234.598 198.145C231.552 199.389 228.29 200.019 225 200Z" fill="#FF8F00"/>
<path d="M100 175C90.111 175 80.444 172.067 72.2215 166.573C63.999 161.079 57.5905 153.27 53.806 144.134C50.0217 134.998 49.0315 124.944 50.9607 115.245C52.89 105.546 57.652 96.6372 64.6447 89.6447C71.6372 82.652 80.5465 77.89 90.2455 75.9607C99.9445 74.0315 109.998 75.0217 119.134 78.806C128.27 82.5905 136.079 88.999 141.573 97.2215C147.067 105.444 150 115.111 150 125C150 138.261 144.732 150.978 135.355 160.355C125.978 169.732 113.261 175 100 175Z" fill="#0277BD"/>
<path d="M125 375C125 447.935 153.973 517.883 205.546 569.455C257.118 621.028 327.065 650 400 650V100C327.065 100 257.118 128.973 205.546 180.546C153.973 232.118 125 302.065 125 375Z" fill="#0277BD"/>
<path d="M225 375C225 421.413 243.437 465.925 276.257 498.742C309.075 531.562 353.587 550 400 550V200C353.587 200 309.075 218.437 276.257 251.257C243.437 284.075 225 328.587 225 375Z" fill="#E3F2FD"/>
<path d="M706.75 620L621.5 533.5C655.91 487.03 674.645 430.82 675 373C675.265 314.003 656.637 256.47 621.842 208.825C587.045 161.18 537.91 125.927 481.63 108.227C425.35 90.5268 364.88 91.31 309.077 110.462C253.275 129.613 205.068 166.127 171.518 214.657C137.968 263.188 120.835 321.183 122.63 380.155C124.424 439.125 145.051 495.973 181.49 542.373C217.929 588.773 268.265 622.288 325.13 638.01C381.995 653.735 442.4 650.84 497.5 629.75L597.5 729.75C604.487 736.745 612.79 742.293 621.927 746.068C631.067 749.843 640.862 751.775 650.75 751.75C660.637 751.775 670.432 749.843 679.57 746.068C688.71 742.293 697.012 736.745 704 729.75L708.25 725.5C721.945 711.263 729.47 692.195 729.187 672.443C728.907 652.688 720.845 633.843 706.75 620ZM174.999 373C174.999 328.5 188.195 284.998 212.919 247.997C237.642 210.996 272.782 182.157 313.895 165.127C355.01 148.097 400.25 143.642 443.895 152.323C487.54 161.005 527.632 182.434 559.097 213.901C590.565 245.368 611.995 285.46 620.675 329.105C629.357 372.75 624.902 417.99 607.872 459.103C590.842 500.218 562.002 535.358 525.002 560.08C488.002 584.805 444.5 598 400 598C340.325 598 283.095 574.295 240.9 532.1C198.705 489.903 174.999 432.673 174.999 373ZM671 690.25L666.5 694.75C664.162 697.068 661.392 698.9 658.347 700.145C655.3 701.388 652.04 702.02 648.75 702C645.46 702.02 642.197 701.388 639.152 700.145C636.105 698.9 633.335 697.068 631 694.75L543.5 606.25C559.652 596.243 574.732 584.598 588.5 571.5L671 655.25C675.58 659.923 678.145 666.205 678.145 672.75C678.145 679.293 675.58 685.578 671 690.25Z" fill="#263238"/>
</svg>
