<svg width="720" height="734" viewBox="0 0 720 734" fill="none" xmlns="http://www.w3.org/2000/svg">
<g clip-path="url(#clip0_27_2332)">
<path d="M707.368 0H12.6316C5.65535 0 0 5.62711 0 12.5685V721.432C0 728.373 5.65535 734 12.6316 734H707.368C714.345 734 720 728.373 720 721.432V12.5685C720 5.62711 714.345 0 707.368 0Z" fill="white" fill-opacity="0.8"/>
<g opacity="0.4">
<path d="M689.805 497.467C704.48 425.429 699.18 358.847 661.577 295.468C634.786 250.321 588.253 212.594 535.02 211.599C484.813 210.653 439.618 241.538 390.013 249.344C308.41 262.187 224.067 211.701 144.81 234.761C102.397 247.129 67.9078 279.996 48.4373 319.038C28.9668 358.079 23.4563 402.759 26.5177 446.099C31.9658 523.105 66.5154 599.689 125.535 649.509H606.265C646.652 603.271 680.308 544.066 689.805 497.467Z" fill="#E0E0E0"/>
</g>
<path d="M287.714 565.869H259.113C254.565 565.869 250.879 569.556 250.879 574.103C250.879 578.651 254.565 582.337 259.113 582.337H287.714C292.261 582.337 295.948 578.651 295.948 574.103C295.948 569.556 292.261 565.869 287.714 565.869Z" fill="#E0E0E0"/>
<path d="M338.85 565.869H310.249C305.702 565.869 302.015 569.556 302.015 574.103C302.015 578.651 305.702 582.337 310.249 582.337H338.85C343.397 582.337 347.084 578.651 347.084 574.103C347.084 569.556 343.397 565.869 338.85 565.869Z" fill="#E0E0E0"/>
<path d="M312.921 543.249H284.32C279.772 543.249 276.086 546.935 276.086 551.483C276.086 556.03 279.772 559.717 284.32 559.717H312.921C317.468 559.717 321.155 556.03 321.155 551.483C321.155 546.935 317.468 543.249 312.921 543.249Z" fill="#E0E0E0"/>
<path d="M535.908 173.537C535.908 170.819 534.828 168.213 532.906 166.291C530.984 164.369 528.378 163.289 525.66 163.289H184.539C181.821 163.289 179.214 164.369 177.292 166.291C175.37 168.213 174.291 170.819 174.291 173.537V181.94H535.908V173.537Z" fill="white"/>
<path d="M536.486 182.578H173.784V173.639C173.786 170.777 174.924 168.034 176.948 166.01C178.971 163.987 181.715 162.849 184.576 162.847H525.698C528.558 162.85 531.301 163.989 533.323 166.012C535.345 168.035 536.482 170.778 536.485 173.639L536.486 182.578ZM174.868 181.496H535.402V173.636C535.4 171.063 534.377 168.595 532.558 166.775C530.738 164.955 528.271 163.93 525.698 163.927H184.576C182.002 163.93 179.534 164.954 177.714 166.774C175.894 168.594 174.87 171.062 174.867 173.636L174.868 181.496Z" fill="#263238"/>
<path d="M174.291 182.019V399.623C174.291 402.341 175.37 404.948 177.292 406.87C179.214 408.792 181.821 409.872 184.539 409.872H525.66C528.378 409.872 530.984 408.792 532.906 406.87C534.828 404.948 535.908 402.341 535.908 399.623V182.019H174.291Z" fill="white"/>
<path d="M525.698 410.403H184.576C181.713 410.4 178.968 409.261 176.945 407.236C174.921 405.211 173.784 402.465 173.784 399.602V181.451H536.486V399.602C536.486 402.464 535.35 405.21 533.327 407.235C531.304 409.26 528.56 410.399 525.698 410.403ZM174.862 182.534V399.602C174.865 402.176 175.889 404.643 177.709 406.463C179.529 408.283 181.996 409.307 184.57 409.31H525.698C528.271 409.307 530.738 408.283 532.557 406.463C534.376 404.643 535.4 402.175 535.402 399.602V182.534H174.862Z" fill="#263238"/>
<path d="M192.159 176.279C194.168 176.098 195.649 174.323 195.468 172.314C195.287 170.306 193.512 168.824 191.504 169.005C189.495 169.186 188.013 170.961 188.194 172.97C188.376 174.979 190.151 176.46 192.159 176.279Z" fill="white"/>
<path d="M191.817 176.877C190.985 176.878 190.172 176.632 189.48 176.17C188.788 175.709 188.248 175.053 187.929 174.285C187.61 173.517 187.526 172.671 187.688 171.856C187.85 171.04 188.25 170.29 188.838 169.702C189.425 169.113 190.174 168.712 190.99 168.55C191.806 168.387 192.651 168.47 193.419 168.788C194.188 169.106 194.845 169.645 195.307 170.337C195.769 171.028 196.016 171.841 196.016 172.673C196.016 173.787 195.574 174.855 194.786 175.644C193.999 176.432 192.931 176.875 191.817 176.877ZM191.817 169.57C191.202 169.569 190.6 169.75 190.088 170.091C189.576 170.433 189.177 170.918 188.941 171.486C188.706 172.054 188.644 172.679 188.763 173.283C188.883 173.886 189.179 174.44 189.614 174.875C190.049 175.31 190.603 175.606 191.207 175.726C191.81 175.846 192.435 175.784 193.003 175.548C193.572 175.312 194.057 174.913 194.398 174.401C194.739 173.889 194.921 173.288 194.92 172.673C194.919 171.85 194.591 171.062 194.01 170.48C193.428 169.898 192.639 169.571 191.817 169.57Z" fill="#263238"/>
<path d="M206.417 176.28C208.426 176.099 209.907 174.324 209.726 172.315C209.545 170.307 207.77 168.825 205.761 169.006C203.753 169.187 202.271 170.962 202.452 172.971C202.633 174.979 204.408 176.461 206.417 176.28Z" fill="white"/>
<path d="M206.076 176.877C205.244 176.878 204.431 176.632 203.739 176.17C203.047 175.709 202.508 175.053 202.189 174.285C201.87 173.517 201.786 172.671 201.947 171.856C202.109 171.04 202.509 170.29 203.097 169.702C203.685 169.113 204.434 168.712 205.249 168.55C206.065 168.387 206.91 168.47 207.679 168.788C208.447 169.106 209.104 169.645 209.566 170.337C210.028 171.028 210.275 171.841 210.275 172.673C210.275 173.787 209.833 174.855 209.046 175.644C208.258 176.432 207.19 176.875 206.076 176.877ZM206.076 169.57C205.461 169.569 204.859 169.75 204.348 170.091C203.836 170.433 203.437 170.918 203.201 171.486C202.965 172.054 202.903 172.679 203.023 173.283C203.142 173.886 203.439 174.44 203.873 174.875C204.308 175.31 204.863 175.606 205.466 175.726C206.069 175.846 206.695 175.784 207.263 175.548C207.831 175.312 208.316 174.913 208.657 174.401C208.998 173.889 209.18 173.288 209.179 172.673C209.178 171.85 208.85 171.062 208.269 170.48C207.687 169.898 206.899 169.571 206.076 169.57Z" fill="#263238"/>
<path d="M220.675 176.278C222.683 176.097 224.165 174.322 223.984 172.313C223.803 170.305 222.028 168.823 220.019 169.004C218.011 169.185 216.529 170.96 216.71 172.969C216.891 174.978 218.666 176.459 220.675 176.278Z" fill="white"/>
<path d="M220.334 176.877C219.502 176.878 218.689 176.632 217.997 176.17C217.305 175.709 216.765 175.053 216.446 174.285C216.127 173.517 216.044 172.671 216.205 171.856C216.367 171.04 216.767 170.29 217.355 169.702C217.942 169.113 218.691 168.712 219.507 168.55C220.323 168.387 221.168 168.47 221.937 168.788C222.705 169.106 223.362 169.645 223.824 170.337C224.286 171.028 224.533 171.841 224.533 172.673C224.533 173.787 224.091 174.855 223.303 175.644C222.516 176.432 221.448 176.875 220.334 176.877ZM220.334 169.57C219.719 169.569 219.117 169.75 218.605 170.091C218.093 170.433 217.694 170.918 217.459 171.486C217.223 172.054 217.161 172.679 217.28 173.283C217.4 173.886 217.696 174.44 218.131 174.875C218.566 175.31 219.12 175.606 219.724 175.726C220.327 175.846 220.952 175.784 221.521 175.548C222.089 175.312 222.574 174.913 222.915 174.401C223.256 173.889 223.438 173.288 223.437 172.673C223.436 171.85 223.108 171.062 222.527 170.48C221.945 169.898 221.156 169.571 220.334 169.57Z" fill="#263238"/>
<path opacity="0.4" d="M498.244 205.77H212.004V377.603H498.244V205.77Z" fill="#E0E0E0"/>
<path d="M407.145 409.278H313.694C310.239 377.008 309.354 348.079 312.445 328.845C313.103 324.261 314.252 319.761 315.874 315.423L355.226 307.411L400.974 311.51C408.663 331.399 409.888 367.198 407.145 409.278Z" fill="#455A64"/>
<path d="M358.676 316.34H357.58V353.597H358.676V316.34Z" fill="#1B1B43"/>
<path opacity="0.2" d="M400.939 311.502C400.939 311.502 364.12 337.363 312.404 328.838C313.062 324.254 314.211 319.754 315.833 315.417L355.185 307.404L400.939 311.502Z" fill="#9E9E9E"/>
<path d="M336.67 165.412C336.67 165.412 318.923 188.043 323.2 207.272L385.544 204.669C385.544 204.669 386.079 167.016 372.459 163.808L336.67 165.412Z" fill="#263238"/>
<path d="M390.36 202.498H389.281C389.281 177.833 376.452 166.496 376.324 166.388L377.038 165.556C377.154 165.672 390.36 177.336 390.36 202.498Z" fill="#263238"/>
<path d="M321.491 293.937C321.346 298.452 319.895 302.828 317.313 306.535C314.732 310.242 311.131 313.121 306.946 314.823C305.452 315.435 303.894 315.876 302.3 316.138C298.87 316.694 295.399 316.958 291.925 316.927C271.761 316.927 257.122 301.611 255.39 296.943C253.659 292.275 258.542 293.932 258.542 293.932C260.321 289.961 264.289 293.161 264.289 293.161C265.482 289.018 269.229 292.884 269.229 292.884C269.229 292.884 269.36 290.617 271.499 290.75C272.814 290.838 277.119 293.453 280.23 295.448C281.814 296.46 283.654 296.997 285.534 296.996C286.283 296.998 287.03 296.913 287.76 296.741C289.631 296.309 291.334 295.339 292.661 293.951C293.989 292.563 294.881 290.818 295.23 288.93L301.266 256.033H315.555L320.136 261.903C321.937 269.149 321.829 283.986 321.491 293.937Z" fill="#FFBC96"/>
<path opacity="0.4" d="M320.041 301.384C318.925 304.427 317.181 307.202 314.924 309.529C312.667 311.857 309.947 313.684 306.939 314.893C306.167 313.044 305.955 311.01 306.328 309.042C306.701 307.074 307.644 305.258 309.038 303.821C310.433 302.383 312.219 301.385 314.174 300.952C316.13 300.519 318.17 300.669 320.041 301.384Z" fill="#FE5B52"/>
<path d="M352.383 193.068L323.016 199.056C317.729 200.132 312.872 202.73 309.043 206.531C305.214 210.331 302.579 215.169 301.463 220.447L293.468 258.231L320.164 261.961L352.383 193.068Z" fill="#DC2626"/>
<path d="M362.626 193.068L391.994 199.056C397.28 200.132 402.137 202.73 405.966 206.531C409.796 210.331 412.43 215.169 413.546 220.447L417.18 247.28L391.28 251.811L362.626 193.068Z" fill="#DC2626"/>
<path d="M320.118 261.962C320.118 261.962 318.694 305.049 315.845 315.376C315.845 315.376 355.733 329.262 400.952 311.457L397.392 232.054L362.579 193.065H352.344L317.624 238.112L320.118 261.962Z" fill="#DC2626"/>
<path d="M451.362 194.161C451.528 196.977 446.891 205.5 443.331 211.606C440.708 216.093 439.036 221.072 438.422 226.233C433.829 264.807 430.795 297.08 417.383 306.119C414.107 308.293 410.124 309.132 406.249 308.464C403.393 308.102 400.714 306.878 398.57 304.957C384.434 292.377 391.293 251.853 391.293 251.853L408.827 248.829C408.827 248.829 412.772 215.713 415.235 204.317C417.697 192.921 421.648 198.978 421.648 198.978C423.06 195.41 426.982 197.554 426.982 197.554C429.832 192.93 433.395 196.48 433.395 196.48C435.53 192.22 441.592 199.693 441.592 199.693C445.484 197.896 451.006 188.244 451.362 194.161Z" fill="#FFBC96"/>
<path d="M321.28 225.779L319.557 261.926L320.651 261.978L322.375 225.831L321.28 225.779Z" fill="#1B1B43"/>
<path d="M390.789 252.49L388.549 223.697L389.64 223.613L391.783 251.206L408.73 248.288L408.918 249.367L390.789 252.49Z" fill="#1B1B43"/>
<path d="M412.415 218.115L404.389 278.751L405.476 278.895L413.502 218.259L412.415 218.115Z" fill="#D28572"/>
<path opacity="0.4" d="M417.353 306.117C414.078 308.292 410.094 309.131 406.22 308.462C403.363 308.1 400.685 306.877 398.541 304.955C399.436 303.154 400.843 301.657 402.586 300.651C404.328 299.646 406.328 299.176 408.335 299.301C410.343 299.426 412.269 300.14 413.873 301.354C415.477 302.568 416.688 304.228 417.353 306.126V306.117Z" fill="#FE5B52"/>
<path d="M422.154 198.868L421.071 199.035L422.085 205.593L423.168 205.426L422.154 198.868Z" fill="#D28572"/>
<path d="M427.598 197.392L426.557 197.734L428.667 204.156L429.708 203.814L427.598 197.392Z" fill="#D28572"/>
<path d="M433.933 195.841L432.901 196.208L435.283 202.902L436.316 202.534L433.933 195.841Z" fill="#D28572"/>
<path d="M379.022 221.445H369.982C368.961 221.445 368.133 222.273 368.133 223.294V223.567C368.133 224.589 368.961 225.417 369.982 225.417H379.022C380.043 225.417 380.871 224.589 380.871 223.567V223.294C380.871 222.273 380.043 221.445 379.022 221.445Z" fill="#CBCBFF"/>
<path d="M356.563 212.965C351.895 212.886 347.387 211.248 343.756 208.312L344.491 207.501C344.929 207.904 355.65 217.298 368.634 207.471L369.295 208.347C365.684 211.262 361.203 212.887 356.563 212.965Z" fill="#1B1B43"/>
<path d="M275.894 298.78C273.052 297.491 270.543 295.567 268.561 293.157L269.38 292.43C271.252 294.706 273.615 296.529 276.293 297.76L275.894 298.78Z" fill="#D28572"/>
<path d="M269.614 300.309C267.031 298.507 264.942 296.085 263.539 293.266L264.499 292.73C265.812 295.39 267.771 297.678 270.197 299.385L269.614 300.309Z" fill="#D28572"/>
<path d="M265.215 302.371C262.212 300.016 259.661 297.137 257.685 293.872L258.606 293.28C260.513 296.43 262.973 299.21 265.869 301.485L265.215 302.371Z" fill="#D28572"/>
<path d="M345.425 175.983H367.679V194.766C367.679 197.717 366.507 200.548 364.42 202.635C362.333 204.722 359.502 205.895 356.551 205.895C353.6 205.894 350.77 204.721 348.684 202.634C346.597 200.547 345.425 197.717 345.425 194.766V175.983Z" fill="#FFBC96"/>
<path d="M345.425 177.912C352.307 189.476 359.689 190.426 367.712 178.004L345.425 177.912Z" fill="#D28572"/>
<path d="M341.147 141.191H372.019V167.233C372.019 171.327 370.392 175.254 367.497 178.149C364.602 181.044 360.675 182.671 356.581 182.671C352.486 182.671 348.559 181.044 345.664 178.149C342.769 175.254 341.143 171.327 341.143 167.233V141.191H341.147Z" fill="#FFBC96"/>
<path d="M356.29 167.665C354.484 165.96 353.804 164.596 354.208 163.544C354.446 163.115 354.791 162.756 355.21 162.501C355.629 162.247 356.107 162.106 356.598 162.093L356.558 158.727H357.654L357.707 163.135H357.173C356.638 163.135 355.459 163.363 355.244 163.932C355.139 164.204 355.109 165.028 357.046 166.86L356.29 167.665Z" fill="#263238"/>
<path d="M362.059 170.998C362.459 170.389 362.797 169.741 363.067 169.064C359.329 169.375 351.403 169.375 351.403 169.375C351.596 170.069 351.892 170.729 352.28 171.335C355.544 171.491 358.814 171.378 362.059 170.998Z" fill="white"/>
<path d="M352.255 171.35C352.751 172.176 353.448 172.863 354.281 173.347C355.114 173.831 356.057 174.095 357.02 174.116C358.051 174.077 359.054 173.771 359.93 173.227C360.807 172.684 361.528 171.922 362.021 171.017C358.781 171.395 355.514 171.506 352.255 171.35Z" fill="#263238"/>
<path d="M371.787 157.598C371.787 158.189 372.334 145.268 352.202 142.529C352.202 142.529 340.832 149.038 342.12 158.418L335.957 157.239C333.573 150.734 334.392 133.342 348.366 134.574C348.366 134.574 351.377 130.269 356.308 130.191C381.376 129.78 377.419 157.573 376.817 158.376L371.787 157.598Z" fill="#263238"/>
<path d="M379.751 163.526C380.93 159.947 379.48 156.254 376.513 155.276C373.546 154.299 370.185 156.407 369.006 159.986C367.827 163.565 369.276 167.258 372.243 168.236C375.21 169.213 378.572 167.105 379.751 163.526Z" fill="#FFBC96"/>
<path d="M373.623 163.709L372.536 163.573C372.724 162.061 373.812 159.165 376.564 159.002L376.631 160.093C374.087 160.264 373.627 163.675 373.623 163.709Z" fill="#263238"/>
<path d="M340.734 168.245C343.701 167.268 345.151 163.574 343.972 159.995C342.793 156.417 339.432 154.308 336.465 155.286C333.498 156.263 332.048 159.957 333.227 163.535C334.406 167.114 337.767 169.223 340.734 168.245Z" fill="#FFBC96"/>
<path d="M339.423 163.709C339.401 163.568 338.945 160.242 336.416 160.093L336.482 159.002C339.234 159.164 340.322 162.071 340.509 163.573L339.423 163.709Z" fill="#263238"/>
<path d="M364.55 155.423C364.526 155.746 364.409 156.055 364.212 156.312C364.015 156.569 363.747 156.764 363.442 156.871C363.136 156.979 362.806 156.995 362.491 156.917C362.176 156.84 361.891 156.672 361.67 156.435C361.45 156.198 361.303 155.902 361.248 155.583C361.193 155.263 361.232 154.935 361.361 154.638C361.49 154.34 361.703 154.087 361.973 153.909C362.244 153.731 362.561 153.636 362.885 153.635C363.111 153.643 363.334 153.695 363.541 153.789C363.747 153.884 363.933 154.017 364.088 154.183C364.243 154.35 364.363 154.544 364.442 154.757C364.521 154.97 364.558 155.196 364.55 155.423Z" fill="#263238"/>
<path d="M365.945 149.49L361.057 148.902C360.503 148.835 360 149.23 359.934 149.784C359.867 150.338 360.262 150.841 360.816 150.908L365.703 151.496C366.257 151.563 366.76 151.168 366.827 150.614C366.894 150.06 366.499 149.557 365.945 149.49Z" fill="#263238"/>
<path d="M348.495 155.423C348.519 155.746 348.637 156.055 348.833 156.312C349.03 156.569 349.298 156.764 349.604 156.871C349.909 156.979 350.24 156.995 350.554 156.917C350.869 156.84 351.154 156.672 351.375 156.435C351.596 156.198 351.742 155.902 351.797 155.583C351.852 155.263 351.813 154.935 351.684 154.638C351.555 154.34 351.343 154.087 351.072 153.909C350.801 153.731 350.485 153.636 350.161 153.635C349.934 153.643 349.711 153.695 349.504 153.789C349.298 153.884 349.112 154.017 348.957 154.183C348.803 154.35 348.682 154.544 348.603 154.757C348.524 154.97 348.487 155.196 348.495 155.423Z" fill="#263238"/>
<path d="M347.302 151.504L352.19 150.916C352.744 150.849 353.139 150.346 353.072 149.792C353.006 149.238 352.502 148.843 351.949 148.91L347.061 149.498C346.507 149.564 346.112 150.067 346.179 150.621C346.245 151.175 346.748 151.57 347.302 151.504Z" fill="#263238"/>
<path opacity="0.4" d="M365.963 166.11C367.943 166.11 369.548 164.504 369.548 162.524C369.548 160.544 367.943 158.938 365.963 158.938C363.983 158.938 362.377 160.544 362.377 162.524C362.377 164.504 363.983 166.11 365.963 166.11Z" fill="#FE5B52"/>
<path opacity="0.4" d="M347.084 166.11C349.064 166.11 350.669 164.504 350.669 162.524C350.669 160.544 349.064 158.938 347.084 158.938C345.103 158.938 343.498 160.544 343.498 162.524C343.498 164.504 345.103 166.11 347.084 166.11Z" fill="#FE5B52"/>
<path d="M245.443 221.878H158.236C149.721 221.878 142.818 228.78 142.818 237.295V261.497C142.818 270.012 149.721 276.915 158.236 276.915H245.443C253.957 276.915 260.86 270.012 260.86 261.497V237.295C260.86 228.78 253.957 221.878 245.443 221.878Z" fill="white"/>
<path d="M255.313 277.542H148.308C146.706 277.539 145.17 276.902 144.037 275.769C142.904 274.636 142.266 273.099 142.264 271.497V227.494C142.266 225.891 142.904 224.355 144.037 223.222C145.17 222.089 146.706 221.451 148.308 221.449H255.313C256.915 221.451 258.452 222.089 259.585 223.222C260.718 224.355 261.355 225.891 261.358 227.494V271.497C261.355 273.099 260.718 274.636 259.585 275.769C258.452 276.902 256.915 277.539 255.313 277.542ZM148.308 222.505C146.985 222.505 145.716 223.03 144.78 223.965C143.843 224.901 143.317 226.169 143.316 227.492V271.497C143.319 272.819 143.847 274.086 144.782 275.02C145.718 275.955 146.986 276.48 148.308 276.481H255.313C256.636 276.48 257.904 275.954 258.84 275.019C259.776 274.084 260.303 272.816 260.306 271.493V227.494C260.304 226.17 259.778 224.902 258.842 223.967C257.905 223.031 256.636 222.506 255.313 222.506L148.308 222.505Z" fill="#263238"/>
<path d="M247.69 235.442H155.917V236.538H247.69V235.442Z" fill="#E0E0FF"/>
<path d="M247.69 248.903H155.917V249.999H247.69V248.903Z" fill="#E0E0FF"/>
<path d="M247.69 262.367H155.917V263.463H247.69V262.367Z" fill="#E0E0FF"/>
<path d="M157.453 263.539L156.596 262.859L163.14 254.609L174.406 258.458L184.097 247.927L193.955 255.869L205.527 242.917L216.02 255.028L225.4 230.759L235.127 246.044L246.436 229.737L247.338 230.359L235.093 248.024L225.646 233.173L216.394 257.123L205.518 244.574L194.082 257.378L184.211 249.427L174.73 259.723L163.527 255.896L157.453 263.539Z" fill="#E0E0E0"/>
<path d="M453.35 127.57L448.068 84.8418C439.842 85.8606 432.085 89.2326 425.728 94.5527C419.371 99.8729 414.686 106.915 412.234 114.833C409.782 122.752 409.668 131.209 411.906 139.191C414.144 147.172 418.639 154.338 424.85 159.827C431.061 165.316 438.725 168.895 446.921 170.135C455.117 171.375 463.497 170.222 471.053 166.815C478.61 163.409 485.023 157.893 489.521 150.93C494.019 143.968 496.412 135.855 496.412 127.566C496.412 126.308 496.346 125.063 496.237 123.831L453.35 127.57Z" fill="white"/>
<path d="M453.309 171.178C442.168 171.241 431.426 167.037 423.288 159.427C415.15 151.818 410.234 141.382 409.549 130.262C408.865 119.142 412.464 108.182 419.607 99.6319C426.751 91.0823 436.897 85.5921 447.962 84.2888L448.504 84.2227L453.791 126.96L496.695 123.225L496.742 123.772C496.865 125.127 496.917 126.367 496.917 127.55C496.911 139.115 492.315 150.205 484.139 158.385C475.963 166.565 464.875 171.166 453.309 171.178ZM447.562 85.446C439.472 86.5487 431.871 89.9574 425.666 95.2649C419.462 100.572 414.916 107.554 412.574 115.376C410.231 123.198 410.19 131.528 412.456 139.373C414.722 147.217 419.198 154.243 425.35 159.611C431.502 164.979 439.07 168.463 447.149 169.645C455.228 170.827 463.476 169.658 470.909 166.277C478.341 162.896 484.643 157.447 489.061 150.581C493.479 143.715 495.826 135.721 495.823 127.556C495.823 126.561 495.779 125.531 495.7 124.418L452.822 128.148L447.562 85.446Z" fill="#263238"/>
<path d="M475.801 118.843L518.686 115.127C518.021 107.322 515.225 99.8498 510.604 93.5254L475.801 118.843Z" fill="#263238"/>
<path d="M488.11 102.295C484.119 96.8025 478.884 92.3331 472.834 89.2528C466.783 86.1725 460.089 84.5689 453.3 84.5733C451.534 84.576 449.77 84.6856 448.018 84.9014L453.3 127.625L488.11 102.295Z" fill="#E0E0E0"/>
<path d="M452.858 128.596L447.396 84.404L447.94 84.3379C455.664 83.3693 463.506 84.4923 470.647 87.5896C477.789 90.687 483.967 95.645 488.538 101.946L488.862 102.384L452.858 128.596ZM448.62 85.369L453.718 126.62L487.324 102.157C483.359 96.8721 478.221 92.5807 472.314 89.6203C466.408 86.66 459.895 85.1116 453.288 85.0971C451.728 85.0989 450.17 85.1881 448.62 85.3641V85.369Z" fill="#263238"/>
<path d="M549.174 250.463H494.905C484.416 250.463 475.912 258.966 475.912 269.456V331.36C475.912 341.849 484.416 350.353 494.905 350.353H549.174C559.664 350.353 568.167 341.849 568.167 331.36V269.456C568.167 258.966 559.664 250.463 549.174 250.463Z" fill="white"/>
<path d="M561.403 350.85H482.749C480.807 350.849 478.944 350.077 477.57 348.704C476.196 347.33 475.423 345.468 475.42 343.526V257.232C475.424 255.29 476.197 253.428 477.571 252.056C478.945 250.683 480.807 249.91 482.749 249.908H561.403C563.344 249.911 565.206 250.683 566.579 252.056C567.952 253.429 568.724 255.291 568.727 257.232V343.526C568.724 345.468 567.952 347.329 566.579 348.702C565.206 350.075 563.344 350.847 561.403 350.85ZM482.749 250.942C481.086 250.943 479.49 251.604 478.314 252.78C477.137 253.955 476.475 255.55 476.472 257.214V343.526C476.475 345.189 477.137 346.784 478.314 347.96C479.49 349.136 481.086 349.797 482.749 349.798H561.403C563.066 349.796 564.66 349.134 565.835 347.958C567.011 346.783 567.673 345.189 567.675 343.526V257.232C567.676 256.407 567.515 255.59 567.2 254.828C566.886 254.065 566.424 253.372 565.842 252.788C565.259 252.204 564.568 251.74 563.806 251.423C563.044 251.106 562.228 250.943 561.403 250.942H482.749Z" fill="#263238"/>
<path d="M557.664 264.768H486.437V265.92H557.664V264.768Z" fill="#263238" fill-opacity="0.4"/>
<path d="M557.664 282.335H486.437V283.487H557.664V282.335Z" fill="#263238" fill-opacity="0.4"/>
<path d="M557.664 299.903H486.437V301.056H557.664V299.903Z" fill="#263238" fill-opacity="0.4"/>
<path d="M557.664 317.346H486.437V318.498H557.664V317.346Z" fill="#263238" fill-opacity="0.4"/>
<path d="M557.664 334.914H486.437V336.066H557.664V334.914Z" fill="#263238" fill-opacity="0.4"/>
<path d="M492.503 288.386H486.437V336.107H492.503V288.386Z" fill="#DC2626"/>
<path d="M505.712 306.118H499.645V336.109H505.712V306.118Z" fill="#EBEBEB"/>
<path d="M518.858 295.119H512.791V336.125H518.858V295.119Z" fill="#DC2626"/>
<path d="M532.065 287.699H525.999V336.109H532.065V287.699Z" fill="#EBEBEB"/>
<path d="M545.274 278.775H539.207V336.122H545.274V278.775Z" fill="#DC2626"/>
<path d="M558.419 269.254H552.352V336.116H558.419V269.254Z" fill="#EBEBEB"/>
<path d="M299.427 90.8447H245.693C244.855 90.8447 244.025 91.0099 243.25 91.3309C242.476 91.6519 241.772 92.1223 241.179 92.7154C240.586 93.3084 240.116 94.0125 239.796 94.7872C239.475 95.562 239.311 96.3924 239.311 97.2308V118.973C239.311 119.811 239.475 120.642 239.796 121.417C240.116 122.191 240.586 122.895 241.179 123.488C241.772 124.081 242.476 124.552 243.25 124.873C244.025 125.194 244.855 125.359 245.693 125.359H282.386L296.492 137.414V125.363H299.431C301.125 125.363 302.749 124.69 303.947 123.492C305.144 122.295 305.817 120.67 305.817 118.977V97.2308C305.817 96.3919 305.652 95.5612 305.331 94.7861C305.009 94.0111 304.539 93.3069 303.945 92.7139C303.352 92.1208 302.647 91.6505 301.872 91.3298C301.097 91.0091 300.266 90.8442 299.427 90.8447Z" fill="white"/>
<path d="M297.046 138.648L282.149 125.936H245.674C243.829 125.933 242.06 125.199 240.755 123.895C239.45 122.59 238.716 120.821 238.714 118.975V97.2075C238.716 95.3622 239.45 93.5931 240.755 92.2882C242.06 90.9834 243.829 90.2493 245.674 90.2471H299.409C301.253 90.2506 303.021 90.9854 304.324 92.2902C305.627 93.595 306.36 95.3633 306.361 97.2075V118.958C306.36 120.802 305.627 122.571 304.324 123.875C303.021 125.18 301.253 125.915 299.409 125.919H297.056L297.046 138.648ZM245.674 91.4006C244.135 91.4029 242.659 92.0154 241.57 93.1038C240.482 94.1923 239.869 95.668 239.866 97.2075V118.958C239.867 120.499 240.48 121.975 241.569 123.065C242.657 124.155 244.134 124.768 245.674 124.77H282.578L295.903 136.136V124.739H299.411C300.951 124.737 302.427 124.124 303.516 123.034C304.605 121.945 305.217 120.468 305.219 118.928V97.2075C305.217 95.6671 304.605 94.1902 303.516 93.1007C302.427 92.0111 300.951 91.398 299.411 91.3957L245.674 91.4006Z" fill="#263238"/>
<path d="M290.467 99.6289H247.458V100.725H290.467V99.6289Z" fill="#E0E0E0"/>
<path d="M296.221 107.046H247.458V108.142H296.221V107.046Z" fill="#E0E0E0"/>
<path d="M281.7 114.46H247.458V115.556H281.7V114.46Z" fill="#E0E0E0"/>
<path d="M285.071 463.167H269.729V649.456H285.071V463.167Z" fill="#AE7461"/>
<path d="M441.214 463.167H425.873V649.456H441.214V463.167Z" fill="#AE7461"/>
<path opacity="0.3" d="M285.071 462.751H269.729V495.586H285.071V462.751Z" fill="#1B1B43"/>
<path opacity="0.3" d="M441.214 462.751H425.873V495.586H441.214V462.751Z" fill="#1B1B43"/>
<path d="M527.746 456.855H183.195V472.294H527.746V456.855Z" fill="#AE7461"/>
<path d="M487.225 451.549H447.324V456.839H487.225V451.549Z" fill="#263238"/>
<path d="M453.26 456.933H447.355L423.843 394.888C423.685 394.47 423.631 394.02 423.685 393.577C423.739 393.133 423.9 392.709 424.154 392.342C424.407 391.974 424.747 391.674 425.142 391.466C425.538 391.258 425.978 391.15 426.425 391.149C426.984 391.151 427.529 391.323 427.988 391.641C428.447 391.96 428.799 392.411 428.996 392.934L453.26 456.933Z" fill="#263238"/>
<path d="M232.828 456.869H272.729V451.579H232.828V456.869Z" fill="#263238"/>
<path d="M266.849 456.933H272.749L296.269 394.888C296.427 394.47 296.481 394.02 296.427 393.577C296.373 393.133 296.212 392.709 295.958 392.342C295.704 391.974 295.365 391.674 294.97 391.466C294.574 391.258 294.134 391.15 293.687 391.149C293.127 391.15 292.58 391.321 292.118 391.639C291.657 391.958 291.304 392.409 291.106 392.934L266.849 456.933Z" fill="#263238"/>
<path d="M154.403 385.393L176.171 388.892L176.416 376.964L176.644 365.086L176.846 354.935L170.81 352.085L160.465 364.208L154.403 385.393Z" fill="#D28572"/>
<path d="M167.475 364.98C169.836 369.395 172.832 373.438 176.369 376.981L176.596 365.103L167.475 364.98Z" fill="#925D4F"/>
<path d="M191.712 350.367C191.967 350.508 198.608 360.672 195.622 361.593C193.421 362.155 191.14 362.347 188.876 362.159L191.712 350.367Z" fill="#925D4F"/>
<path d="M193.89 341.693L191.155 366.967C191.039 368.018 190.638 369.018 189.994 369.857C189.35 370.696 188.488 371.343 187.503 371.727C186.099 372.273 184.537 372.249 183.151 371.661L167.486 365.027L165.377 350.777L178.041 337.514L193.89 341.693Z" fill="#D28572"/>
<path d="M156.247 371.581L148.76 388.202L177.799 392.765L179.806 379.799L156.247 371.581Z" fill="#E75549"/>
<path d="M175.36 350.758C175.36 350.758 188.198 348.588 193.91 341.706C193.91 341.706 196.027 328.398 176.451 326.636C155.214 324.725 135.296 354.777 135.296 354.777L161.241 377.439L175.36 350.758Z" fill="#263238"/>
<path d="M177.122 356.976C179.301 355.856 179.882 352.644 178.421 349.802C176.96 346.961 174.009 345.565 171.831 346.685C169.652 347.805 169.071 351.017 170.532 353.859C171.993 356.701 174.944 358.096 177.122 356.976Z" fill="#D28572"/>
<path d="M175.416 353.97C175.277 352.844 174.759 351.799 173.946 351.007C173.768 350.885 173.566 350.803 173.353 350.767C173.141 350.73 172.923 350.741 172.714 350.796L172.478 349.727C172.833 349.636 173.204 349.623 173.564 349.688C173.925 349.753 174.267 349.895 174.568 350.104C175.624 351.077 176.305 352.389 176.492 353.812L175.416 353.97Z" fill="#1B1B43"/>
<path opacity="0.3" d="M184.637 361.269C186.983 361.269 188.884 359.368 188.884 357.022C188.884 354.677 186.983 352.775 184.637 352.775C182.292 352.775 180.391 354.677 180.391 357.022C180.391 359.368 182.292 361.269 184.637 361.269Z" fill="#BE443D"/>
<path d="M187.299 425.404C186.468 428.58 184.917 431.523 182.766 434.003C180.614 436.483 177.921 438.435 174.894 439.707C174.527 439.86 174.15 440.001 173.768 440.145C173.386 440.29 173.033 440.417 172.672 440.548C166.861 442.802 161.635 446.34 157.385 450.899C153.134 455.457 149.969 460.916 148.125 466.87C147.915 467.572 147.74 468.242 147.599 468.865C130.606 470.471 113.523 466.94 98.5586 458.73C98.5586 458.73 112.151 410.514 142.142 387.589C145.568 384.983 149.571 383.241 153.813 382.51C158.055 381.779 162.41 382.081 166.511 383.39C173.805 385.702 180.167 390.287 184.666 396.475L185.205 397.219L187.835 416.567C188.247 419.518 188.064 422.521 187.297 425.4L187.299 425.404Z" fill="#DC2626"/>
<path d="M187.281 425.483C186.45 428.66 184.899 431.602 182.748 434.082C180.597 436.563 177.904 438.514 174.877 439.786C174.509 439.939 174.131 440.08 173.75 440.225C173.369 440.369 173.015 440.496 172.654 440.627C168.858 431.321 165.75 416.52 165.75 416.52L184.016 418.939L187.281 425.483Z" fill="#BE443D"/>
<path d="M226.754 404.775C226.754 404.775 242.796 387.623 247.851 388.885C250.043 389.432 243.468 396.283 243.468 396.283C243.468 396.283 249.741 396.406 259.792 391.211C260.051 391.077 260.336 390.997 260.628 390.978C260.92 390.959 261.213 391 261.488 391.1C261.763 391.199 262.015 391.355 262.227 391.557C262.439 391.759 262.607 392.002 262.72 392.272C262.866 392.624 262.914 393.008 262.86 393.386C262.806 393.763 262.651 394.118 262.412 394.415C260.282 397.045 253.943 404.145 245.112 407.241L241.365 412.062L231.962 416.533L226.754 404.775Z" fill="#D28572"/>
<path d="M241.367 412.168L220.381 449.58C219.227 451.643 217.592 453.398 215.616 454.695C213.639 455.992 211.379 456.793 209.027 457.03C206.675 457.268 204.301 456.934 202.105 456.059C199.909 455.183 197.957 453.791 196.414 452L165.73 416.552L185.17 397.31L206.494 426.503L226.767 404.859L241.367 412.168Z" fill="#DC2626"/>
<path d="M212.445 437.229C200.137 418.013 183.791 395.264 175.017 387.764L175.73 386.932C185.874 395.588 204.148 422.243 213.365 436.633L212.445 437.229Z" fill="#263238"/>
<path d="M208.109 458.08C205.679 458.036 203.298 457.386 201.183 456.19C194.472 452.561 166.528 418.301 165.341 416.846L166.191 416.153C166.48 416.508 195.183 451.701 201.696 455.225C209.117 459.232 214.153 455.593 216.498 453.06C220.228 449.031 240.685 412.221 240.892 411.857L241.847 412.388C241.005 413.909 221.122 449.689 217.3 453.813C216.157 455.134 214.746 456.196 213.162 456.932C211.578 457.667 209.855 458.058 208.109 458.08Z" fill="#263238"/>
<path d="M173.638 606.297L154.742 643.554L158.871 644.137L165.723 634.41L187.2 649.571L199.794 649.519C199.794 649.519 202.349 646.985 195.809 640.186C191.992 636.306 188.977 631.711 186.938 626.664C184.898 621.617 183.873 616.218 183.922 610.775V609.832L178.772 604.566L173.638 606.297Z" fill="#263238"/>
<path d="M174.39 617.887L170.227 649.446H174.39L179.808 638.856L199.822 649.043H215.685C215.685 649.043 217.877 646.172 210.419 640.36C206.096 637.052 202.467 632.925 199.741 628.213C197.014 623.502 195.243 618.299 194.529 612.903L194.407 611.965L188.573 607.485L174.39 617.887Z" fill="#263238"/>
<path d="M196.619 621.727L225.952 518.593C227.092 514.567 226.776 510.268 225.06 506.453C223.343 502.637 220.335 499.549 216.566 497.732L190.158 485.021L188.584 607.468L196.619 621.727Z" fill="#455A64"/>
<path d="M98.5549 458.794L92.6464 486.921C91.8387 490.769 91.8994 494.748 92.8241 498.569C93.7487 502.391 95.5141 505.958 97.9916 509.01C100.469 512.063 103.596 514.525 107.145 516.216C110.695 517.908 114.576 518.786 118.508 518.788H173.805C168.274 545.815 171.868 582.994 173.805 621.247L196.634 621.796L212.379 523.473C213.654 515.496 212.14 507.324 208.093 500.333C204.046 493.342 197.713 487.959 190.16 485.093L147.595 468.941L98.5549 458.794Z" fill="#455A64"/>
<path opacity="0.4" d="M190.027 621.793L188.94 621.652C189.062 620.728 200.941 528.767 197.707 511.878C194.362 494.433 160.725 489.396 142.658 486.691C141.048 486.446 139.589 486.227 138.249 486.016C133.718 485.298 130.504 483.343 128.68 480.208C125.081 474.028 128.191 465.55 128.325 465.195L129.351 465.576C129.321 465.659 126.283 473.93 129.627 479.659C131.279 482.495 134.239 484.27 138.419 484.924C139.735 485.135 141.211 485.363 142.802 485.595C161.141 488.343 195.278 493.454 198.765 511.662C200.136 518.838 199.081 539.553 195.622 573.234C193.074 598.321 190.053 621.578 190.027 621.793Z" fill="#263238"/>
<path d="M111.089 523.173L107.311 545.024L89.2169 649.602H81.6123L99.7065 545.024L103.484 523.173H111.089Z" fill="#E0E0E0"/>
<path d="M161.503 649.6H153.898L135.809 545.022L132.026 523.171H139.631L143.414 545.022L161.503 649.6Z" fill="#E0E0E0"/>
<path opacity="0.3" d="M111.085 523.173L107.308 545.024H99.7031L103.481 523.173H111.085Z" fill="#9F9393"/>
<path opacity="0.3" d="M143.414 545.024H135.81L132.027 523.173H139.632L143.414 545.024Z" fill="#9F9393"/>
<path d="M155.151 529.2H83.9839V518.791H155.151C155.834 518.791 156.511 518.926 157.143 519.187C157.774 519.449 158.348 519.833 158.831 520.316C159.314 520.8 159.697 521.374 159.959 522.006C160.22 522.637 160.354 523.314 160.354 523.998C160.353 525.378 159.805 526.701 158.829 527.676C157.854 528.652 156.53 529.2 155.151 529.2Z" fill="#455A64"/>
<path d="M94.0666 529.23H84.0252L50.0889 446.066C49.6344 444.951 49.6252 443.703 50.0631 442.581C50.5009 441.459 51.3526 440.548 52.4425 440.035C53.0203 439.762 53.6478 439.61 54.2864 439.588C54.9251 439.566 55.5615 439.674 56.1569 439.906C56.7522 440.138 57.2939 440.49 57.7489 440.938C58.2039 441.387 58.5625 441.924 58.8029 442.516L94.0666 529.23Z" fill="#455A64"/>
<path d="M556.281 349.666C556.022 349.797 548.982 359.607 551.898 360.65C554.062 361.307 556.318 361.603 558.578 361.527L556.281 349.666Z" fill="#D28572"/>
<path d="M591.804 386.149L568.362 388.927L568.796 377.041L569.234 365.21L569.611 355.098L576.224 352.455L586.564 364.86L591.804 386.149Z" fill="#FFBC96"/>
<path d="M579.028 365.293C576.221 369.655 572.788 373.582 568.841 376.949L569.28 365.113L579.028 365.293Z" fill="#D28572"/>
<path d="M554.507 340.945L556.138 366.171C556.205 367.222 556.559 368.234 557.162 369.097C557.765 369.96 558.594 370.64 559.557 371.064C560.928 371.668 562.481 371.712 563.884 371.186L579.716 365.273L582.433 351.206L570.433 337.478L554.507 340.945Z" fill="#FFBC96"/>
<path d="M572.789 351.152C572.789 351.152 568.901 343.604 564.851 342.451C564.851 342.451 549.264 347.532 545.833 335.578C551.647 335.409 557.298 333.613 562.142 330.393C569.686 325.127 577.523 327.649 582.96 332.585C582.96 332.585 600.716 333.462 586.721 364.802C586.721 364.802 583.213 365.968 574.237 353.449L572.789 351.152Z" fill="#263238"/>
<path d="M577.166 353.813C575.593 356.574 572.612 357.837 570.513 356.641C568.414 355.444 567.993 352.257 569.567 349.474C571.14 346.692 574.121 345.451 576.221 346.647C578.321 347.843 578.74 351.057 577.166 353.813Z" fill="#FFBC96"/>
<path opacity="0.4" d="M563.663 360.116C566.044 360.116 567.975 358.154 567.975 355.733C567.975 353.313 566.044 351.351 563.663 351.351C561.281 351.351 559.35 353.313 559.35 355.733C559.35 358.154 561.281 360.116 563.663 360.116Z" fill="#FE5B52"/>
<path d="M572.081 353.547C571.882 352.439 572.099 351.296 572.689 350.337C573.279 349.378 574.202 348.67 575.281 348.349L575.584 349.405C574.766 349.662 574.07 350.208 573.625 350.94C573.179 351.672 573.016 352.541 573.164 353.385L572.081 353.547Z" fill="#1B1B43"/>
<path d="M568.362 388.946L568.626 376.73L589.267 371.43L595.294 386.591L568.362 388.946Z" fill="#DC2626" fill-opacity="0.68"/>
<path d="M571.581 383.972C561.224 394.054 553.684 409.176 544.187 424.517C544.187 424.517 511.996 432.844 502.773 442.05L519.347 450.453L575.965 434.743L571.581 383.972Z" fill="#DC2626"/>
<path d="M487.889 612.748L474.973 649.422L434.575 639.338C434.575 639.338 440.86 630.743 459.823 633.202L469.905 604.864L487.889 612.748Z" fill="#263238"/>
<path d="M568.672 467.804L510.322 486.77C503.581 488.96 497.504 492.82 492.656 497.991C487.808 503.162 484.348 509.476 482.598 516.344L459.086 613.548L490.865 621.767C504.368 589.672 515.359 556.576 523.739 522.779L568.672 467.804Z" fill="#455A64"/>
<path d="M547.449 615.571L552.197 649.542H508C508 649.542 512.02 639.679 531.012 637.487L529.916 617.031L547.449 615.571Z" fill="#263238"/>
<path d="M621.54 458.146L627.449 486.273C630.898 502.702 618.572 519.06 601.789 519.06H548.644C551.629 546.367 554.504 582.345 552.589 620.598L523.484 621.145L507.735 522.824C506.458 514.845 507.971 506.67 512.019 499.676C516.068 492.683 522.403 487.299 529.958 484.432L568.654 467.828L621.54 458.146Z" fill="#455A64" stroke="#263238"/>
<path d="M623.421 467.3C618.639 421.579 611.787 378.439 577.348 380.42C575.302 380.558 573.378 381.441 571.939 382.901C569.013 385.829 566.757 389.357 565.327 393.241C563.897 397.125 563.326 401.274 563.655 405.4L568.63 467.853C568.63 467.853 595.478 472.784 623.421 467.3Z" fill="#DC2626"/>
<path d="M502.783 441.688C502.783 441.688 482.51 445.523 479.222 457.029H507.99L513.468 453.193L502.783 441.688Z" fill="#FFBC96"/>
<path d="M577.57 390.48L551.266 431.295L502.773 441.704L507.98 457.045L548.636 456.84C559.55 456.625 568.891 450.918 574.964 441.845L597.564 409.378L577.57 390.48Z" fill="#DC2626"/>
<path d="M502.908 442.213L502.681 441.14L550.871 430.795C552.155 427.17 553.43 423.418 554.667 419.783C559.729 404.88 564.511 390.814 570.447 383.126L571.323 383.792C565.507 391.335 560.751 405.327 555.719 420.138C554.452 423.868 553.147 427.731 551.817 431.447L551.717 431.736L551.42 431.802L502.908 442.213Z" fill="#263238"/>
<path d="M531.82 457.7C520.545 457.7 508.838 457.502 507.953 457.485V456.39C508.347 456.39 547.53 457.065 552.342 455.996L552.487 455.961C558.23 454.679 563.58 452.029 568.078 448.235C572.577 444.441 576.093 439.616 578.325 434.171L583.756 420.964L584.772 421.402L579.336 434.609C577.038 440.209 573.422 445.171 568.796 449.075C564.17 452.978 558.67 455.707 552.763 457.03L552.614 457.065C550.36 457.564 541.239 457.7 531.82 457.7Z" fill="#263238"/>
<path d="M633.289 649.595H640.893L619.022 523.169H611.418L633.289 649.595Z" fill="#E0E0E0"/>
<path d="M568.608 649.595H561.004L582.875 523.169H590.479L568.608 649.595Z" fill="#E0E0E0"/>
<path opacity="0.3" d="M590.465 523.169L586.686 545.024H579.082L582.859 523.169H590.465Z" fill="#CCC8C8"/>
<path opacity="0.3" d="M622.794 545.024H615.189L611.407 523.169H619.011L622.794 545.024Z" fill="#CCC8C8"/>
<path d="M567.336 529.2H638.503V518.791H567.336C565.955 518.791 564.631 519.34 563.654 520.316C562.678 521.293 562.129 522.617 562.129 523.998C562.131 525.378 562.68 526.701 563.656 527.677C564.633 528.652 565.956 529.2 567.336 529.2Z" fill="#455A64"/>
<path d="M628.481 529.232H638.522L672.443 446.063C672.899 444.949 672.909 443.701 672.472 442.579C672.035 441.457 671.184 440.545 670.094 440.032C669.516 439.759 668.888 439.606 668.248 439.584C667.609 439.562 666.972 439.67 666.376 439.902C665.78 440.134 665.238 440.486 664.782 440.935C664.326 441.384 663.967 441.921 663.726 442.513L628.481 529.232Z" fill="#455A64"/>
<path d="M709 649.003H11V650.099H709V649.003Z" fill="#1B1B43"/>
</g>
<defs>
<clipPath id="clip0_27_2332">
<rect width="720" height="734" fill="white"/>
</clipPath>
</defs>
</svg>
