<svg xmlns="http://www.w3.org/2000/svg" xmlns:xlink="http://www.w3.org/1999/xlink" width="720" height="734" viewBox="0 0 720 734">
  <defs>
    <filter id="Rectangle_152" x="0" y="0" width="720" height="734" filterUnits="userSpaceOnUse">
      <feOffset dx="5" dy="20" input="SourceAlpha"/>
      <feGaussianBlur stdDeviation="25" result="blur"/>
      <feFlood flood-opacity="0.251"/>
      <feComposite operator="in" in2="blur"/>
      <feComposite in="SourceGraphic"/>
    </filter>
  </defs>
  <g id="Group_2400" data-name="Group 2400" transform="translate(-841 -2781)">
    <g transform="matrix(1, 0, 0, 1, 841, 2781)" filter="url(#Rectangle_152)">
      <rect id="Rectangle_152-2" data-name="Rectangle 152" width="570" height="584" rx="10" transform="translate(70 55)" fill="rgba(255,255,255,0.8)"/>
    </g>
    <g id="Self-Paced_Training" data-name="Self-Paced Training" transform="translate(911.812 2840.679)">
      <g id="Layer_2" data-name="Layer 2">
        <g id="Layer_1" data-name="Layer 1">
          <path id="Path_7461" data-name="Path 7461" d="M569.146,568.769V6.137A5.72,5.72,0,0,0,564.042,0H434.665c-18.888,13.585-41.331,57.022-47.389,80.955-10.368,40.815-33.168,69.137-44.748,76.724-30.229,19.861-64.311,15-97.062,24.211-35.472,9.931-68.541,35.631-84.172,73.586C146.2,292.18,150.608,323,141.829,360.742c-8.9,38.372-40.855,68.144-71.2,82.027-32.156,14.717-63.258,25.82-69.117,67.35a172.555,172.555,0,0,0,3.754,64.827H564.042A5.72,5.72,0,0,0,569.146,568.769Z" transform="translate(0.02)" fill="#eee"/>
          <path id="Path_7462" data-name="Path 7462" d="M152.47,25.56V216.229H407.986V25.56ZM395.831,203.776H164.566V37.934H395.831Z" transform="translate(150.356 25.206)" fill="#fff"/>
          <rect id="Rectangle_1961" data-name="Rectangle 1961" width="5.958" height="177.382" transform="translate(427.595 57.379)" fill="#fff"/>
          <rect id="Rectangle_1962" data-name="Rectangle 1962" width="247.016" height="5.958" transform="translate(307.076 143.081)" fill="#fff"/>
          <ellipse id="Ellipse_255" data-name="Ellipse 255" cx="229.061" cy="15.353" rx="229.061" ry="15.353" transform="translate(78.135 518.361)" fill="#d9d9d9"/>
          <path id="Path_7463" data-name="Path 7463" d="M90.131,255.419c0,4.846-20.179,8.759-45.065,8.759S0,260.265,0,255.419s20.179-8.739,45.065-8.739S90.131,250.593,90.131,255.419Z" transform="translate(0 243.26)" fill="#cbcbcb"/>
          <path id="Path_7464" data-name="Path 7464" d="M185.93,57.151h-24.29L142.1,79.316l9.613-22.165H134.072a2.6,2.6,0,0,1-2.582-2.6V21.182a2.6,2.6,0,0,1,2.582-2.6H185.93a2.6,2.6,0,0,1,2.582,2.6V54.569A2.6,2.6,0,0,1,185.93,57.151Z" transform="translate(129.667 18.322)" fill="#5b6469"/>
          <path id="Path_7465" data-name="Path 7465" d="M145.576,36.1h-6.3V30.14h6.3Z" transform="translate(137.349 29.722)" fill="#fff"/>
          <path id="Path_7466" data-name="Path 7466" d="M150.556,36.1h-6.3V30.14h6.3Z" transform="translate(142.26 29.722)" fill="#fff"/>
          <path id="Path_7467" data-name="Path 7467" d="M155.536,36.1h-6.3V30.14h6.3Z" transform="translate(147.171 29.722)" fill="#fff"/>
          <rect id="Rectangle_1963" data-name="Rectangle 1963" width="287.95" height="179.03" rx="5.59" transform="translate(163.042 112.038)" fill="#263238"/>
          <rect id="Rectangle_1964" data-name="Rectangle 1964" width="254.523" height="140.698" transform="translate(179.487 124.233)" fill="#ebebeb"/>
          <rect id="Rectangle_1965" data-name="Rectangle 1965" width="82.305" height="104.252" transform="translate(333.929 146.06)" fill="#f3f3f3"/>
          <rect id="Rectangle_1966" data-name="Rectangle 1966" width="66.794" height="10.387" transform="translate(341.675 155.892)" fill="#dc2626"/>
          <rect id="Rectangle_1967" data-name="Rectangle 1967" width="66.794" height="10.387" transform="translate(341.675 175.137)" fill="rgba(38,50,56,0.43)"/>
          <rect id="Rectangle_1968" data-name="Rectangle 1968" width="66.794" height="10.387" transform="translate(341.675 194.383)" fill="#fff"/>
          <rect id="Rectangle_1969" data-name="Rectangle 1969" width="66.794" height="10.387" transform="translate(341.675 213.629)" fill="#fff"/>
          <rect id="Rectangle_1970" data-name="Rectangle 1970" width="66.794" height="10.387" transform="translate(341.675 232.874)" fill="#fff"/>
          <path id="Path_7468" data-name="Path 7468" d="M139.983,81.378s13.565,0,15.452,8.918.218,18.769,2.522,24.986,9.514,23.575-5.958,24.568-17.875-3.436-21.748-3.595-9.454,8.957-20.656,3.734-6.316-16.942-1.47-18.372,2.939-9.772,1.788-12.552c-2.423-5.78-4.211-23.575,12.294-28.819C135.574,75.976,139.983,81.378,139.983,81.378Z" transform="translate(101.352 77.513)" fill="#263238"/>
          <path id="Path_7469" data-name="Path 7469" d="M118.333,96.15c-.993,11.917-1.807,26-6.713,36.048.556,4.826,3.218,13.9,15.651,13.665,10.527-.278,13.625-6.852,14.479-11.758a71.123,71.123,0,0,1-8.58-30.646C128.264,103.439,121.59,98.553,118.333,96.15Z" transform="translate(110.072 94.817)" fill="#d9a48d"/>
          <path id="Path_7470" data-name="Path 7470" d="M121.808,82.232s17.021.814,20.537,4.33,3.357,10.685,4.33,21.152-5.442,22.046-11.122,23.575-21.291-8.242-23.476-24.529S115.254,81.676,121.808,82.232Z" transform="translate(110.033 81.068)" fill="#f4bca3"/>
          <path id="Path_7471" data-name="Path 7471" d="M181.15,123a155.243,155.243,0,0,0,11.659-14.34c3.2-5.005,15.095-21.55,17.557-18.948s-7.786,16.266-7.786,16.266,9.931-17.756,13.406-15.889-9.275,17.617-9.275,17.617S217.5,92.7,219.343,94.8s-.358,5.4-9.236,16.346c0,0,7.607-9.434,9.454-6.455s-6.832,11.281-9.931,13.128-17.875,9.792-22.006,13.665C187.645,131.485,180.514,127.811,181.15,123Z" transform="translate(178.599 88.201)" fill="#f4bca3"/>
          <path id="Path_7472" data-name="Path 7472" d="M203.383,99.724c-.874-2.244-4.389-1.986-6.515-1.867a9.176,9.176,0,0,0-6.654,3.178c-.894,1.092-1.609,2.185-2.582,3.218-1.887,1.986-.616,3.654,0,5.8.179.616,4.31,1.231,8.3-.357a15.452,15.452,0,0,0,6.435-5.521,8.183,8.183,0,0,0,1.013-4.449Z" transform="translate(184.052 96.426)" fill="#ef8b67"/>
          <path id="Path_7473" data-name="Path 7473" d="M189.858,102.494s9.474-6.435,12.413-4.469.338,4.469-9.692,8.6c0,0-3.257,4.906-5.561,5.442a6.932,6.932,0,0,1,2.84-9.573Z" transform="translate(183.535 96.298)" fill="#f4bca3"/>
          <path id="Path_7474" data-name="Path 7474" d="M133.246,80.935s4.667,20.358-9.931,22.92a13.605,13.605,0,0,0-1.748,11.5c1.986,6.336,6.713,19.861-1.648,22.96s-14.717-1.986-11.341-15.134,3.4-20.378,5.462-29.971S120.257,76.526,133.246,80.935Z" transform="translate(106.162 78.492)" fill="#263238"/>
          <path id="Path_7475" data-name="Path 7475" d="M116.35,81.233s1.073,18.392,16.981,19.146,16.088-10.507,14.1-13.248S138.2,73.646,116.35,81.233Z" transform="translate(114.737 77.479)" fill="#263238"/>
          <path id="Path_7476" data-name="Path 7476" d="M157.6,116.807s-5.72,7.21-8.54,8.282-14.1-7.945-14.1-7.945-15.532,8.66-28.382,10.189c0,0-11.46,4.131-15.75,35.75H193.712s-.735-6.614,0-6.614,5.661,6.614,13.645,6.614h35s28.739-27.806,42.027-47.349L272.005,103.44s-41.987,45.046-45.482,45.046-30.189-22.443-31.282-23.1S166.641,124.215,157.6,116.807Z" transform="translate(89.571 102.006)" fill="#dc2626"/>
          <path id="Path_7477" data-name="Path 7477" d="M212.151,161.6H182.24s70.667-55.254,72.057-56.823v15.889C246.472,128.753,212.151,161.6,212.151,161.6Z" transform="translate(179.713 103.327)" fill="#f9f9f9" opacity="0.55"/>
          <path id="Path_7478" data-name="Path 7478" d="M311.1,69.84V92.2c-5.323,6.515-125.126,96.9-132.416,103.934H124.64C139.079,184.678,305.577,73.971,311.1,69.84Z" transform="translate(122.912 68.872)" fill="#f9f9f9" opacity="0.55"/>
          <path id="Path_7479" data-name="Path 7479" d="M233.455,62.55h28.4l-.616.516C249.324,73.2,132.559,189.126,119.45,203.248H92.3C109.8,185.174,200.763,94.169,233.455,62.55Z" transform="translate(91.02 61.683)" fill="#f9f9f9" opacity="0.55"/>
          <path id="Path_7480" data-name="Path 7480" d="M90.37,132.2V104.775c14.181-14.1,29.2-28.938,42.7-42.225h27.806C140.46,82.491,113.151,109.5,90.37,132.2Z" transform="translate(89.117 61.683)" fill="#f9f9f9" opacity="0.55"/>
          <path id="Path_7481" data-name="Path 7481" d="M149.2,148.646s-3.257-4.787-13.168-3.158-15.69,18.332-15.69,18.332h28.1S150.946,150.95,149.2,148.646Z" transform="translate(118.671 143.137)" fill="#932646"/>
          <path id="Path_7482" data-name="Path 7482" d="M174.628,148.646s3.257-4.787,13.168-3.158,15.69,18.332,15.69,18.332h-28.1S172.88,150.95,174.628,148.646Z" transform="translate(171.595 143.137)" fill="#932646"/>
          <path id="Path_7483" data-name="Path 7483" d="M161.792,122.8a32.93,32.93,0,0,0-16.981,5.66c-7.19,5.442-35.294,50.19-36.6,53.8s5.958,6.614,15.134,6.614,13.625.834,17.1-3,24.132-21.113,29.574-33.526S166.9,122.143,161.792,122.8Z" transform="translate(106.555 121.079)" fill="#dc2626" stroke="#263238" stroke-width="1"/>
          <path id="Path_7484" data-name="Path 7484" d="M179.954,122.8a32.97,32.97,0,0,1,17,5.66c7.17,5.442,35.274,50.19,36.585,53.8s-5.958,6.614-15.134,6.614-13.625.834-17.1-3-24.132-21.113-29.574-33.526S174.77,122.143,179.954,122.8Z" transform="translate(167.619 121.079)" fill="#dc2626" stroke="#263238" stroke-width="1"/>
          <path id="Path_7485" data-name="Path 7485" d="M168.8,109.48H152.32l-2.9,15.234h22.3Z" transform="translate(147.348 107.962)" fill="#ef8b67"/>
          <path id="Path_7486" data-name="Path 7486" d="M165.869,86.66h-.238c-8.957,0-21.411,5.1-21.411,19.861s3.535,33.824,21.411,33.824h.218c17.875,0,21.45-19.186,21.45-33.883S174.826,86.66,165.869,86.66Z" transform="translate(142.22 85.458)" fill="#263238"/>
          <path id="Path_7487" data-name="Path 7487" d="M154.194,237.13l-13.506,8.282s4.787,8.282,2.9,10.745-12.493,14.519-12.91,20.477,2.9,9.573,4.628,9,33.546-23.238,32.831-27.151S154.194,237.13,154.194,237.13Z" transform="translate(128.83 233.842)" fill="#263238"/>
          <path id="Path_7488" data-name="Path 7488" d="M173.759,237.13l13.506,8.282s-4.787,8.282-2.9,10.745,12.493,14.519,12.91,20.477-2.9,9.573-4.628,9-33.546-23.238-32.831-27.151S173.759,237.13,173.759,237.13Z" transform="translate(157.588 233.842)" fill="#263238"/>
          <rect id="Rectangle_1971" data-name="Rectangle 1971" width="11.957" height="226.757" transform="translate(130.191 306.957)" fill="#ae7461"/>
          <rect id="Rectangle_1972" data-name="Rectangle 1972" width="11.957" height="226.757" transform="translate(471.329 306.957)" fill="#ae7461"/>
          <rect id="Rectangle_1973" data-name="Rectangle 1973" width="397.406" height="6.018" transform="translate(108.324 306.957)" fill="#ae7461"/>
          <path id="Path_7489" data-name="Path 7489" d="M227.041,174.492c-8.6-4.945-53.149-4.945-61.749,0s-52.712,37.319-52.712,45.165,47.906,97.718,47.906,97.718l17.577-8.977s-29.256-75.235-25.7-78.512,43.814-5.74,43.814-5.74,40.239,2.483,43.794,5.74-25.7,78.512-25.7,78.512l17.577,8.977s47.906-89.892,47.906-97.718S235.621,179.437,227.041,174.492Z" transform="translate(111.019 168.414)" fill="#455a64"/>
          <path id="Path_7490" data-name="Path 7490" d="M173.246,114.362c-.735-.755-7.09-.278-10.248-.278s-9.514-.477-10.248.278-5.8,11.917-5.8,11.917l16.048,3.4,16.068-3.4S174,115.1,173.246,114.362Z" transform="translate(144.912 112.355)" fill="#e75549"/>
          <path id="Path_7491" data-name="Path 7491" d="M229.134,276.175c-4.211-5.958-36.307-29.395-36.307-29.395H167.7s-32.1,23.357-36.307,29.395-3.337,12.294,1.609,12.294h15.73a1.986,1.986,0,0,0,1.986-1.569,19.863,19.863,0,0,0,.417-4.31,1.986,1.986,0,0,0-1.708-1.986c-.973-.139-2.085-.377-2.145-.755-.159-.834.377-2.383,3.615-5.045,5.8-4.787,19.643-15.393,19.643-15.393l9.772.3,9.752-.3s13.9,10.606,19.643,15.393c3.237,2.661,3.774,4.211,3.615,5.045,0,.377-1.172.616-2.145.755a1.986,1.986,0,0,0-1.708,1.986,19.862,19.862,0,0,0,.417,4.31,1.986,1.986,0,0,0,1.986,1.569H227.6C232.57,288.469,233.345,282.213,229.134,276.175Z" transform="translate(126.92 243.358)" fill="#c1c1c1"/>
          <path id="Path_7492" data-name="Path 7492" d="M160.389,197.65H148.85l5.78,104.272h11.539l5.78-104.272Z" transform="translate(146.786 194.909)" fill="#c1c1c1"/>
          <path id="Path_7493" data-name="Path 7493" d="M170,195.39H139.12s3.158,35.492,30.884,35.492,30.865-35.492,30.865-35.492Z" transform="translate(137.191 192.681)" fill="#c1c1c1"/>
          <path id="Path_7494" data-name="Path 7494" d="M236.249,130.013c-7.945-10.447-53.943-12.493-53.943-12.493s-46.118,1.986-53.963,12.493,13.645,97,20.914,110.945S182.306,254.6,182.306,254.6s25.82.3,33.029-13.645S244.095,140.48,236.249,130.013Z" transform="translate(124.889 115.891)" fill="#dc2626" stroke="#263238" stroke-width="1"/>
          <path id="Path_7495" data-name="Path 7495" d="M178.555,170.9c-2.642-1.768-28.8-1.768-31.441,0-3.059,1.986,4.35,51.242,5.521,56.188s19.246,4.945,20.4,0S181.614,172.924,178.555,170.9Z" transform="translate(144.35 167.221)" fill="#656f74"/>
          <rect id="Rectangle_1974" data-name="Rectangle 1974" width="120.797" height="16.127" transform="translate(246.797 382.192)" fill="#656f74"/>
          <rect id="Rectangle_1975" data-name="Rectangle 1975" width="74.599" height="11.937" transform="translate(131.323 295.02)" fill="#263238"/>
          <rect id="Rectangle_1976" data-name="Rectangle 1976" width="74.599" height="11.937" transform="translate(123.14 283.084)" fill="#dc2626"/>
          <path id="Path_7496" data-name="Path 7496" d="M233.97,140.31h-4.25v2.344h3.118a6.376,6.376,0,0,1,6.376,6.376v.139a6.375,6.375,0,0,1-6.376,6.356H229.72v2.344h4.25a8.7,8.7,0,0,0,8.7-8.679v-.179A8.7,8.7,0,0,0,233.97,140.31Z" transform="translate(226.535 138.365)" fill="#455a64"/>
          <path id="Path_7497" data-name="Path 7497" d="M241.18,171.186H221.914a5.124,5.124,0,0,1-5.124-5.1v-28.4h29.494v28.441a5.1,5.1,0,0,1-5.1,5.065Z" transform="translate(213.784 135.771)" fill="#455a64"/>
          <path id="Path_7498" data-name="Path 7498" d="M229.252,166.15V138.88H218.11v24.35a4.37,4.37,0,0,0,4.369,4.389h7.031A5.184,5.184,0,0,1,229.252,166.15Z" transform="translate(215.086 136.954)" fill="#263238"/>
          <path id="Path_7499" data-name="Path 7499" d="M227.642,138.88v25.681a4.807,4.807,0,0,1-1.112,3.059h3.277a4.37,4.37,0,0,0,4.369-4.389V138.88Z" transform="translate(223.389 136.954)" fill="#eee"/>
          <rect id="Rectangle_1977" data-name="Rectangle 1977" width="65.304" height="44.172" rx="1.49" transform="translate(194.363 97.658)" fill="#263238"/>
          <rect id="Rectangle_1978" data-name="Rectangle 1978" width="59.366" height="37.141" transform="translate(197.322 101.174)" fill="#fff"/>
          <path id="Path_7500" data-name="Path 7500" d="M109.84,56.41V74.6l17.716-9.1Z" transform="translate(108.317 55.628)" fill="#dc2626"/>
          <rect id="Rectangle_1979" data-name="Rectangle 1979" width="163.121" height="9.156" transform="translate(67.529 79.942)" fill="#ae7461"/>
          <rect id="Rectangle_1980" data-name="Rectangle 1980" width="11.42" height="67.529" transform="translate(155.177 12.413)" fill="#263238"/>
          <rect id="Rectangle_1981" data-name="Rectangle 1981" width="11.42" height="59.584" transform="translate(137.798 20.358)" fill="rgba(69,90,100,0.68)"/>
          <rect id="Rectangle_1982" data-name="Rectangle 1982" width="11.42" height="59.584" transform="translate(168.956 23.467) rotate(-21.77)" fill="#455a64"/>
          <rect id="Rectangle_1983" data-name="Rectangle 1983" width="11.42" height="59.584" transform="translate(184.343 23.458) rotate(-21.77)" fill="rgba(69,90,100,0.68)"/>
          <rect id="Rectangle_1984" data-name="Rectangle 1984" width="57.439" height="10.248" transform="translate(74.977 68.522)" fill="#5b6469"/>
          <path id="Path_7501" data-name="Path 7501" d="M172.729,80.6h34.837l-14.4,17.478L224.229,80.6H234a3.059,3.059,0,0,0,3.059-3.059v-39.4A3.059,3.059,0,0,0,234,35.08H172.729a3.059,3.059,0,0,0-3.059,3.059V77.6A3.059,3.059,0,0,0,172.729,80.6Z" transform="translate(167.317 34.594)" fill="#dc2626"/>
          <path id="Path_7502" data-name="Path 7502" d="M201.521,47.816c0,5.1-6.435,6.614-6.435,8.6v.794h-6.415V55.324c0-2.741,4.886-4.31,4.886-7.349a2.483,2.483,0,0,0-2.483-2.642c-1.986,0-2.443,1.589-2.443,3.158a8.642,8.642,0,0,0,0,1.013h-6.912c0-.5-.1-.933-.1-1.43,0-4.886,4.35-7.945,10.248-7.945S201.521,43.228,201.521,47.816Zm-5.859,18.63h-7.448V59.495h7.448Z" transform="translate(179.102 39.574)" fill="#fff"/>
          <path id="Path_7503" data-name="Path 7503" d="M31.839,241.226c-6.574-2.781-11.341-5.1-10.229-15.611a15.889,15.889,0,0,1,5.958-11.44c2.9-2.443,4.369-3.357,5.263-7.408,1.37-6.137-.358-11.182,2.6-16.8,3.138-5.958,9.931-5.382,13.069-10.983,2.741-4.846,3.972-10.189,10.149-12.076,5.462-1.688,8.779,3,6.932,7.766-1.092,2.761-3.4,5.144-4.072,8.084s.735,4.866,2.105,7.249c3.277,5.621,4.965,12.413-1.39,18.133-3.813,3.436-6.713,6.4-4.806,11.917,2.185,6.435,3.317,10.368-2.5,16.028-4.35,4.23-8.4,3.972-13.287,4.211-4.389.3-10.109,2.165-13.684-.755Z" transform="translate(21.151 164.244)" fill="#2f3e45"/>
          <path id="Path_7504" data-name="Path 7504" d="M38.342,236.741c-4.707,5.045-8.739,9-15.69,3a14.141,14.141,0,0,1-4.985-11.917c0-4.131.377-5.958-2.2-9.156C11.489,213.7,5.67,211.914,3.068,205.5c-2.82-6.892,3.456-11.321,1.192-17.518-1.986-5.382-5.7-10.447-2.145-15.095,2.88-3.794,8.838-1.529,11.083,2.84,1.311,2.483,1.549,5.3,3.2,7.706a10.725,10.725,0,0,0,6.078,3.754c5.144,1.827,9.752,4.945,10.169,11.539.258,3.972.655,7.408,4.528,9.136s6.375,3.019,7.13,9.176c.6,4.767-.953,7.488-2.542,11.281s-2.82,9.375-6.137,11.48Z" transform="translate(0.626 168.589)" fill="#2f3e45"/>
          <path id="Path_7505" data-name="Path 7505" d="M29.644,229.091h-.636a.5.5,0,0,1,.119-.993c3.257.357,6.614-2.622,8.481-5.263A8.7,8.7,0,0,0,38.8,216.42l-.119-1.986c-.318-5.184-.6-9.672,3.436-13.724,4.449-4.509,5.561-7.289,5.323-13.565v-1.589a25.821,25.821,0,0,1,.139-6.217,12.871,12.871,0,0,1,1.212-3.1A9.235,9.235,0,0,0,50,172.487a.5.5,0,0,1,.5-.5h0a.516.516,0,0,1,.5.516,9.811,9.811,0,0,1-1.331,4.171,13.486,13.486,0,0,0-1.112,2.86,24.707,24.707,0,0,0-.119,5.958c0,.556,0,1.112,0,1.629.238,6.515-.973,9.593-5.6,14.28-3.734,3.754-3.476,7.825-3.158,12.969l.119,1.986a9.534,9.534,0,0,1-1.37,7.051C36.417,226.192,33.12,229.091,29.644,229.091Z" transform="translate(28.172 169.605)" fill="#fff"/>
          <path id="Path_7506" data-name="Path 7506" d="M35.863,202.261a2.681,2.681,0,0,1-1.986-1.072.5.5,0,1,1,.755-.636,1.609,1.609,0,0,0,1.668.675c2.085-.516,4.35-4.985,4.727-6.654,1.073-4.926,2.383-7.448,7.19-9.315a.5.5,0,0,1,.655.278.516.516,0,0,1-.3.655c-4.628,1.787-5.6,4.091-6.574,8.6-.338,1.47-2.681,6.693-5.462,7.388A1.985,1.985,0,0,1,35.863,202.261Z" transform="translate(33.254 182.652)" fill="#fff"/>
          <path id="Path_7507" data-name="Path 7507" d="M34.986,229.208a5.4,5.4,0,0,1-2.622-.655c-3.456-1.827-5.065-7.17-6.475-11.917a33.765,33.765,0,0,0-2.145-5.958,27.151,27.151,0,0,0-8.6-9.474c-4.846-3.555-5.958-6.237-6.892-12.056-.735-4.747-1.688-9.514-3.833-12.374a.5.5,0,1,1,.794-.6c2.284,3.019,3.277,7.945,3.972,12.83.834,5.6,1.986,7.945,6.515,11.4a28.442,28.442,0,0,1,8.878,9.792,35.591,35.591,0,0,1,2.224,6.177c1.351,4.548,2.9,9.692,5.958,11.321a5.124,5.124,0,0,0,4.111.2.5.5,0,0,1,.636.318.516.516,0,0,1-.318.636A7.943,7.943,0,0,1,34.986,229.208Z" transform="translate(4.26 173.54)" fill="#fff"/>
          <path id="Path_7508" data-name="Path 7508" d="M13.057,198.888a.417.417,0,0,1-.3-.1.5.5,0,0,1-.1-.7c1.47-1.887.576-4.886-.377-7.945-.814-2.761-1.668-5.621-.933-7.945a.5.5,0,0,1,.933.3,14.26,14.26,0,0,0,.953,7.369c.973,3.257,1.986,6.634.218,8.938a.536.536,0,0,1-.4.079Z" transform="translate(10.916 179.411)" fill="#fff"/>
          <path id="Path_7509" data-name="Path 7509" d="M25.017,200.775h-.179a10.723,10.723,0,0,1-1.788-.933,5.7,5.7,0,0,0-2.781-1.033,13.908,13.908,0,0,0-1.827,0,6.892,6.892,0,0,1-3.972-.556,22.423,22.423,0,0,1-6.753-5.958c-.318-.4-.715-1.013-1.152-1.668a11.241,11.241,0,0,0-2.2-2.82.5.5,0,0,1,.179-.973c.775.139,1.589,1.311,2.86,3.257.417.616.794,1.231,1.092,1.569a22.006,22.006,0,0,0,6.415,5.66,6.078,6.078,0,0,0,3.5.477,12.618,12.618,0,0,1,1.986,0,6.574,6.574,0,0,1,3.237,1.192,12.455,12.455,0,0,0,1.629.854.477.477,0,0,1,.278.636.5.5,0,0,1-.516.3Z" transform="translate(3.921 184.237)" fill="#fff"/>
          <path id="Path_7510" data-name="Path 7510" d="M25.462,252.187c-7.051-5.958-15.432-9.931-13.526-21.252,1.569-9.375,12.374-11.8,9-21.847-2.165-6.435-7.766-13.9-5.859-21.073,1.986-7.686,12.056-4.608,14.221-11.778,1.827-6.058-4.568-13.069,1.112-18.014,5.005-4.369,13.9-.218,16.564,4.787,3.456,6.415-2.244,11.182-1.291,17.418.6,3.972,4.469,4.628,7.309,6.971a23.118,23.118,0,0,1,6.892,9.136c3.654,10.387-6.793,14.161-9.931,22.165-3,7.527,7.19,9.931,7.945,17.478.834,8.381-8.143,15.015-15.373,16.386C37.538,253.478,29.911,255.941,25.462,252.187Z" transform="translate(11.5 154.216)" fill="#455a64"/>
          <path id="Path_7511" data-name="Path 7511" d="M23.145,246.524h-.139a.477.477,0,0,1-.338-.616,87.39,87.39,0,0,0,.894-39.961c-3.019-12.969-.278-22.046,1.986-29.335,1.311-4.35,2.443-8.1,1.827-11.42a.516.516,0,0,1,.4-.576.477.477,0,0,1,.576.4c.675,3.555-.5,7.408-1.847,11.917-2.165,7.19-4.846,16.127-1.887,28.839a88.423,88.423,0,0,1-.914,40.458.5.5,0,0,1-.556.3Z" transform="translate(21.92 162.322)" fill="#fff"/>
          <path id="Path_7512" data-name="Path 7512" d="M23.567,196a.5.5,0,0,1,0-.993c4.131-.616,8.838-4.389,9.275-9a9.222,9.222,0,0,1,.119-1.768c.179-3.019.417-6.773,2.6-8.6a5.5,5.5,0,0,1,4.29-.993.5.5,0,0,1,.417.556.477.477,0,0,1-.556.437,4.37,4.37,0,0,0-3.515.775c-1.867,1.529-1.986,5.045-2.244,7.945a7.59,7.59,0,0,1-.139,1.807c-.5,5.224-5.621,9.2-10.09,9.931Z" transform="translate(22.75 172.133)" fill="#fff"/>
          <path id="Path_7513" data-name="Path 7513" d="M27.8,196.9a7.547,7.547,0,0,1-4.906-1.748c-1.986-1.768-3.019-4.826-2.92-8.878v-1.351c.139-2.88.358-7.19-1.43-9.156a3.078,3.078,0,0,0-2.324-.993.5.5,0,1,1,.04-.993h0a4.111,4.111,0,0,1,3.019,1.331c1.986,2.244,1.847,6.832,1.688,9.931v1.351c-.1,3.734.794,6.534,2.582,8.084a7.706,7.706,0,0,0,6.534,1.331.5.5,0,0,1,.159.993,13.374,13.374,0,0,1-2.443.1Z" transform="translate(15.522 171.37)" fill="#fff"/>
          <path id="Path_7514" data-name="Path 7514" d="M25.832,209.572a4.708,4.708,0,0,1-1.807-.338.5.5,0,1,1,.377-.914c2.979,1.212,7.567-2.145,9.3-4.369a13.9,13.9,0,0,0,1.688-3.972c.894-2.7,1.827-5.521,4.35-6.137a.457.457,0,0,1,.6.358.477.477,0,0,1-.357.6c-1.986.5-2.82,3.039-3.635,5.5a14.122,14.122,0,0,1-1.867,4.191C32.923,206.553,29.169,209.572,25.832,209.572Z" transform="translate(23.345 191.131)" fill="#fff"/>
          <path id="Path_7515" data-name="Path 7515" d="M29.187,213.41a5.442,5.442,0,0,1-1.986-.338c-3.654-1.271-6.693-5.78-7.845-8.5a17.7,17.7,0,0,1-.775-5.72c-.119-3.476-.258-7.051-2.522-8.183a.5.5,0,1,1,.437-.894c2.8,1.41,2.959,5.462,3.079,9.037a16.8,16.8,0,0,0,.7,5.363c1.033,2.463,3.972,6.812,7.249,7.945a4.389,4.389,0,0,0,3.674-.258.5.5,0,0,1,.675.2.516.516,0,0,1-.2.675,5.4,5.4,0,0,1-2.483.675Z" transform="translate(15.561 187.094)" fill="#fff"/>
          <path id="Path_7516" data-name="Path 7516" d="M9.472,203.15a93.209,93.209,0,0,0-5.621,32.612c0,34.579,17.16,62.583,38.332,62.583S80.5,270.381,80.5,235.762a93.209,93.209,0,0,0-5.621-32.612Z" transform="translate(3.795 200.333)" fill="#dc2626"/>
          <path id="Path_7517" data-name="Path 7517" d="M78.088,217.986a85.406,85.406,0,0,0-3.972-14.836H8.652A85.405,85.405,0,0,0,4.68,217.986Z" transform="translate(4.615 200.333)" fill="#dc2626"/>
          <circle id="Ellipse_256" data-name="Ellipse 256" cx="19.722" cy="19.722" r="19.722" transform="translate(486.007 81.451)" fill="#fff"/>
        </g>
      </g>
    </g>
  </g>
</svg>
