<svg width="720" height="734" viewBox="0 0 720 734" fill="none" xmlns="http://www.w3.org/2000/svg">
<g clip-path="url(#clip0_26_2152)">
<path d="M707.368 0H12.6316C5.65535 0 0 5.62711 0 12.5685V721.432C0 728.373 5.65535 734 12.6316 734H707.368C714.345 734 720 728.373 720 721.432V12.5685C720 5.62711 714.345 0 707.368 0Z" fill="white" fill-opacity="0.8"/>
<path d="M719.974 726.114V7.83475C720.122 5.93719 719.529 4.05637 718.324 2.59294C717.118 1.1295 715.393 0.199126 713.517 0L549.86 0C525.968 17.3432 497.578 72.7967 489.915 103.351C476.8 155.457 447.959 191.614 433.311 201.3C395.072 226.655 351.96 220.449 310.531 232.208C265.66 244.887 223.829 277.696 204.056 326.151C184.963 373.009 190.539 412.355 179.434 460.538C168.176 509.526 127.754 547.534 89.3685 565.257C48.6924 584.046 9.34952 598.22 1.9381 651.239C-1.68287 678.881 -0.0714512 706.965 6.68677 734H713.517C715.403 733.801 717.135 732.863 718.342 731.389C719.55 729.914 720.135 728.02 719.974 726.114Z" fill="#EEEEEE"/>
<path d="M383.063 64.8096V308.226H706.282V64.8096H383.063ZM690.906 292.328H398.364V80.6067H690.906V292.328Z" fill="white"/>
<path d="M548.428 73.2529H540.892V299.706H548.428V73.2529Z" fill="white"/>
<path d="M700.906 182.664H388.44V190.27H700.906V182.664Z" fill="white"/>
<path d="M388.591 700.962C548.617 700.962 678.345 692.187 678.345 681.362C678.345 670.537 548.617 661.762 388.591 661.762C228.565 661.762 98.8374 670.537 98.8374 681.362C98.8374 692.187 228.565 700.962 388.591 700.962Z" fill="#D9D9D9"/>
<path d="M114.012 636.635C114.012 642.822 88.4867 647.817 57.0068 647.817C25.5269 647.817 0 642.822 0 636.635C0 630.448 25.5257 625.479 57.0055 625.479C88.4854 625.479 114.012 630.474 114.012 636.635Z" fill="#CBCBCB"/>
<path d="M399.219 96.3521H368.493L343.776 124.649L355.936 96.3521H333.621C332.752 96.346 331.922 95.9936 331.31 95.3718C330.698 94.75 330.354 93.9092 330.354 93.0328V50.4325C330.354 49.5562 330.698 48.7154 331.31 48.0936C331.922 47.4717 332.752 47.1193 333.621 47.1133H399.219C400.087 47.1193 400.918 47.4717 401.53 48.0936C402.142 48.7154 402.485 49.5562 402.485 50.4325V93.0558C402.479 93.9282 402.133 94.7631 401.522 95.38C400.911 95.9968 400.083 96.3461 399.219 96.3521Z" fill="#5B6469"/>
<path d="M357.89 84.0307H349.92V76.4219H357.89V84.0307Z" fill="white"/>
<path d="M370.401 84.0307H362.432V76.4219H370.401V84.0307Z" fill="white"/>
<path d="M382.913 84.0307H374.944V76.4219H382.913V84.0307Z" fill="white"/>
<path d="M563.417 143.033H213.313C209.408 143.033 206.242 146.228 206.242 150.17V364.454C206.242 368.395 209.408 371.59 213.313 371.59H563.417C567.322 371.59 570.488 368.395 570.488 364.454V150.17C570.488 146.228 567.322 143.033 563.417 143.033Z" fill="#263238"/>
<path d="M549.006 158.602H227.044V338.222H549.006V158.602Z" fill="#EBEBEB"/>
<path d="M526.521 186.466H422.408V319.558H526.521V186.466Z" fill="#F3F3F3"/>
<path d="M516.698 199.018H432.206V212.278H516.698V199.018Z" fill="#DC2626"/>
<path d="M516.698 223.587H432.206V236.847H516.698V223.587Z" fill="#263238" fill-opacity="0.43"/>
<path d="M516.698 248.157H432.206V261.418H516.698V248.157Z" fill="white"/>
<path d="M516.698 272.727H432.206V285.987H516.698V272.727Z" fill="white"/>
<path d="M516.698 297.297H432.206V310.557H516.698V297.297Z" fill="white"/>
<path d="M305.28 202.847C305.28 202.847 322.439 202.847 324.826 214.232C327.213 225.618 325.102 238.194 328.016 246.131C330.931 254.068 340.051 276.227 320.479 277.495C300.908 278.763 297.868 273.109 292.969 272.906C288.07 272.703 281.01 284.341 266.84 277.673C252.67 271.005 258.851 256.044 264.981 254.218C271.111 252.393 268.698 241.743 267.242 238.194C264.177 230.815 261.916 208.097 282.794 201.402C299.702 195.951 305.28 202.847 305.28 202.847Z" fill="#263238"/>
<path d="M288.923 243.797C287.667 259.011 286.638 276.99 280.432 289.817C281.135 295.978 284.502 307.563 300.23 307.263C313.546 306.908 317.465 298.515 318.545 292.252C312.045 280.205 308.335 266.829 307.692 253.128C301.486 253.102 293.043 246.865 288.923 243.797Z" fill="#D9A48D"/>
<path d="M293.27 208.476C293.27 208.476 314.801 209.515 319.249 214.004C323.697 218.493 323.495 227.645 324.726 241.007C325.957 254.37 317.842 269.152 310.657 271.104C303.472 273.056 283.725 260.582 280.961 239.79C278.197 218.997 284.98 207.766 293.27 208.476Z" fill="#F4BCA3"/>
<path d="M455.069 269.628C460.341 263.827 465.266 257.714 469.818 251.321C473.865 244.932 488.912 223.809 492.026 227.131C495.141 230.453 482.177 247.897 482.177 247.897C482.177 247.897 494.74 225.229 499.136 227.613C503.531 229.996 487.403 250.103 487.403 250.103C487.403 250.103 501.051 230.946 503.382 233.627C505.713 236.308 502.929 240.521 491.699 254.495C491.699 254.495 501.321 242.451 503.658 246.254C505.994 250.057 495.016 260.656 491.095 263.014C487.175 265.372 468.484 275.515 463.259 280.459C463.285 280.46 454.265 275.77 455.069 269.628Z" fill="#F4BCA3"/>
<path d="M490.091 250.413C488.985 247.548 484.539 247.877 481.849 248.029C480.245 248.081 478.668 248.468 477.219 249.167C475.771 249.865 474.481 250.859 473.432 252.086C472.302 253.48 471.397 254.876 470.166 256.194C467.779 258.73 469.387 260.859 470.166 263.599C470.393 264.385 475.618 265.171 480.665 263.143C483.977 261.606 486.796 259.164 488.805 256.095C489.758 254.363 490.202 252.393 490.087 250.415L490.091 250.413Z" fill="#EF8B67"/>
<path d="M472.328 253.786C472.328 253.786 484.313 245.57 488.03 248.08C491.748 250.59 488.458 253.786 475.77 259.059C475.77 259.059 471.65 265.323 468.736 266.007C468.154 264.972 467.786 263.829 467.652 262.646C467.518 261.464 467.622 260.266 467.957 259.125C468.293 257.985 468.853 256.924 469.604 256.006C470.355 255.089 471.281 254.333 472.328 253.786Z" fill="#F4BCA3"/>
<path d="M302.842 203.532C302.842 203.532 308.746 229.522 290.28 232.793C288.859 234.923 287.923 237.345 287.541 239.883C287.159 242.422 287.339 245.015 288.069 247.474C290.581 255.563 296.56 272.83 285.984 276.786C275.408 280.742 267.367 274.251 271.638 257.465C275.908 240.68 275.939 231.45 278.547 219.203C281.156 206.956 286.411 197.904 302.842 203.532Z" fill="#263238"/>
<path d="M292.316 202.618C292.316 202.618 293.674 226.098 313.797 227.061C333.92 228.023 334.147 213.647 331.633 210.148C329.118 206.648 319.956 192.932 292.316 202.618Z" fill="#263238"/>
<path d="M312.662 279.346C312.662 279.346 305.426 288.551 301.859 289.919C298.292 291.288 284.023 279.776 284.023 279.776C284.023 279.776 264.376 290.832 248.121 292.784C248.121 292.784 233.624 298.058 228.198 338.424H358.342C358.342 338.424 357.412 329.98 358.342 329.98C359.272 329.98 365.503 338.424 375.603 338.424H419.876C419.876 338.424 456.23 302.926 473.039 277.976L457.38 262.281C457.38 262.281 404.268 319.789 399.847 319.789C395.426 319.789 361.659 291.137 360.276 290.298C358.894 289.46 324.098 288.803 312.662 279.346Z" fill="#DC2626"/>
<path opacity="0.55" d="M495.693 338.216H457.857C457.857 338.216 547.248 267.677 549.006 265.674V285.958C539.108 296.283 495.693 338.216 495.693 338.216Z" fill="#F9F9F9"/>
<path opacity="0.55" d="M549.008 177.085V205.631C542.275 213.948 390.729 329.337 381.507 338.317H313.144C331.408 323.692 542.022 182.359 549.008 177.085Z" fill="#F9F9F9"/>
<path opacity="0.55" d="M410.448 158.602H446.373L445.594 159.26C430.522 172.198 282.819 320.194 266.236 338.222H231.893C254.029 315.148 369.094 198.968 410.448 158.602Z" fill="#F9F9F9"/>
<path opacity="0.55" d="M227.044 247.52V212.508C244.982 194.507 263.981 175.564 281.058 158.602H316.231C290.406 184.059 255.861 218.54 227.044 247.52Z" fill="#F9F9F9"/>
<path d="M338.847 372.502C338.847 372.502 334.727 366.391 322.19 368.471C309.653 370.55 302.343 391.874 302.343 391.874H337.888C337.888 391.874 341.056 375.444 338.847 372.502Z" fill="#932646"/>
<path d="M437.959 372.502C437.959 372.502 442.079 366.391 454.616 368.471C467.153 370.55 474.463 391.874 474.463 391.874H438.918C438.918 391.874 435.748 375.444 437.959 372.502Z" fill="#932646"/>
<path d="M339.449 311.346C331.765 311.707 324.33 314.208 317.968 318.572C308.873 325.519 273.323 382.646 271.671 387.255C270.019 391.864 279.207 395.699 290.815 395.699C302.422 395.699 308.05 396.763 312.446 391.869C316.841 386.974 342.972 364.915 349.856 349.068C356.739 333.221 345.91 310.507 339.449 311.346Z" fill="#DC2626" stroke="#263238"/>
<path d="M439.667 311.346C447.358 311.705 454.801 314.206 461.171 318.572C470.241 325.519 505.792 382.646 507.45 387.255C509.108 391.864 499.913 395.699 488.306 395.699C476.699 395.699 471.071 396.763 466.675 391.869C462.279 386.974 436.149 364.915 429.265 349.068C422.381 333.221 433.109 310.507 439.667 311.346Z" fill="#DC2626" stroke="#263238"/>
<path d="M399.915 277.596H379.069L375.4 297.044H403.609L399.915 277.596Z" fill="#EF8B67"/>
<path d="M389.721 219.733H389.42C378.089 219.733 362.335 226.244 362.335 245.089C362.335 263.933 366.807 288.27 389.42 288.27H389.695C412.307 288.27 416.829 263.776 416.829 245.013C416.829 226.251 401.051 219.733 389.721 219.733Z" fill="#263238"/>
<path d="M358.015 601.262L340.93 611.835C340.93 611.835 346.986 622.408 344.599 625.552C342.212 628.697 328.796 644.088 328.268 651.694C327.741 659.3 331.936 663.915 334.122 663.184C336.308 662.452 376.557 633.517 375.652 628.522C374.748 623.526 358.015 601.262 358.015 601.262Z" fill="#263238"/>
<path d="M419.142 601.262L436.226 611.835C436.226 611.835 430.171 622.408 432.558 625.552C434.945 628.697 448.361 644.088 448.889 651.694C449.416 659.3 445.22 663.915 443.034 663.184C440.848 662.452 400.6 633.517 401.504 628.522C402.409 623.526 419.142 601.262 419.142 601.262Z" fill="#263238"/>
<path d="M179.812 391.874H164.687V681.361H179.812V391.874Z" fill="#AE7461"/>
<path d="M611.339 391.874H596.213V681.361H611.339V391.874Z" fill="#AE7461"/>
<path d="M639.73 391.874H137.026V399.557H639.73V391.874Z" fill="#AE7461"/>
<path d="M427.633 437.768C416.754 431.455 360.402 431.455 349.523 437.768C338.644 444.081 282.844 485.411 282.844 495.427C282.844 505.444 343.444 620.178 343.444 620.178L365.678 608.718C365.678 608.718 328.67 512.67 333.168 508.486C337.666 504.303 388.591 501.158 388.591 501.158C388.591 501.158 439.492 504.328 443.989 508.486C448.486 512.644 411.48 608.718 411.48 608.718L433.714 620.178C433.714 620.178 494.313 505.418 494.313 495.427C494.313 485.436 438.486 444.081 427.633 437.768Z" fill="#455A64"/>
<path d="M402.457 289.435C401.528 288.471 393.489 289.08 389.494 289.08C385.499 289.08 377.459 288.471 376.531 289.435C375.602 290.399 369.194 304.649 369.194 304.649L389.494 308.99L409.819 304.649C409.819 304.649 403.411 290.377 402.457 289.435Z" fill="#E75549"/>
<path d="M450.395 663.256C445.068 655.65 404.468 625.729 404.468 625.729H372.683C372.683 625.729 332.078 655.548 326.756 663.256C321.435 670.965 322.535 678.951 328.792 678.951H348.69C349.274 678.965 349.844 678.772 350.303 678.406C350.761 678.04 351.079 677.525 351.202 676.948C351.576 675.139 351.753 673.294 351.729 671.446C351.735 670.831 351.519 670.234 351.122 669.768C350.724 669.301 350.172 668.997 349.569 668.911C348.338 668.733 346.931 668.429 346.855 667.947C346.654 666.882 347.332 664.905 351.428 661.506C358.765 655.395 376.276 641.855 376.276 641.855L388.637 642.238L400.973 641.855C400.973 641.855 418.556 655.395 425.821 661.506C429.915 664.903 430.595 666.882 430.394 667.947C430.394 668.428 428.911 668.733 427.68 668.911C427.077 668.997 426.525 669.301 426.127 669.768C425.73 670.234 425.514 670.831 425.52 671.446C425.496 673.294 425.673 675.139 426.047 676.948C426.17 677.525 426.488 678.04 426.946 678.406C427.405 678.772 427.975 678.965 428.559 678.951H448.455C454.742 678.951 455.722 670.965 450.395 663.256Z" fill="#C1C1C1"/>
<path d="M388.565 501.157H373.969L381.28 634.275H395.877L403.188 501.157H388.565Z" fill="#C1C1C1"/>
<path d="M388.585 495.429H349.523C349.523 495.429 353.518 540.739 388.59 540.739C423.662 540.739 427.633 495.429 427.633 495.429H388.585Z" fill="#C1C1C1"/>
<path d="M456.826 313.932C446.776 300.594 388.59 297.982 388.59 297.982C388.59 297.982 330.253 300.518 320.329 313.932C310.405 327.345 337.589 437.766 346.784 455.569C355.979 473.371 388.59 472.984 388.59 472.984C388.59 472.984 421.251 473.367 430.371 455.565C439.49 437.762 466.751 327.294 456.826 313.932Z" fill="#DC2626" stroke="#263238"/>
<path d="M408.463 431.66C405.121 429.403 372.032 429.403 368.691 431.66C364.821 434.195 374.194 497.077 375.675 503.392C377.156 509.706 400.02 509.705 401.48 503.392C402.94 497.079 412.332 434.244 408.463 431.66Z" fill="#656F74"/>
<path d="M464.992 487.923H312.188V508.511H464.992V487.923Z" fill="#656F74"/>
<path d="M260.484 376.634H166.119V391.873H260.484V376.634Z" fill="#263238"/>
<path d="M250.133 361.397H155.768V376.637H250.133V361.397Z" fill="#DC2626"/>
<path d="M582.521 355.768H577.145V358.76H581.089C583.228 358.76 585.28 359.618 586.792 361.144C588.305 362.671 589.155 364.741 589.155 366.9V367.077C589.148 369.232 588.296 371.296 586.784 372.817C585.272 374.338 583.224 375.192 581.089 375.192H577.145V378.184H582.521C585.435 378.184 588.23 377.018 590.294 374.941C592.357 372.863 593.519 370.045 593.526 367.104V366.876C593.526 365.417 593.242 363.973 592.689 362.625C592.136 361.277 591.325 360.053 590.303 359.021C589.281 357.99 588.068 357.171 586.733 356.613C585.398 356.055 583.966 355.768 582.521 355.768Z" fill="#455A64"/>
<path d="M575.513 391.874H551.142C549.428 391.874 547.784 391.189 546.569 389.969C545.355 388.749 544.668 387.093 544.66 385.363V349.106H581.969V385.415C581.957 387.134 581.272 388.779 580.064 389.99C578.855 391.202 577.221 391.882 575.518 391.882L575.513 391.874Z" fill="#455A64"/>
<path d="M562.071 386.956V352.142H547.977V383.228C547.973 383.962 548.114 384.69 548.39 385.37C548.667 386.05 549.073 386.667 549.587 387.188C550.1 387.709 550.711 388.122 551.383 388.404C552.055 388.686 552.775 388.831 553.503 388.831H562.397C562.199 388.225 562.089 387.593 562.071 386.956Z" fill="#263238"/>
<path d="M570.537 352.142V384.927C570.533 386.354 570.035 387.735 569.131 388.832H573.276C574.004 388.832 574.725 388.687 575.397 388.405C576.069 388.123 576.679 387.71 577.193 387.189C577.706 386.669 578.113 386.051 578.389 385.371C578.665 384.692 578.806 383.964 578.803 383.229V352.142H570.537Z" fill="#EEEEEE"/>
<path d="M326.584 124.675H247.746C246.705 124.675 245.861 125.526 245.861 126.577V179.164C245.861 180.215 246.705 181.067 247.746 181.067H326.584C327.625 181.067 328.468 180.215 328.468 179.164V126.577C328.468 125.526 327.625 124.675 326.584 124.675Z" fill="#263238"/>
<path d="M324.7 129.163H249.604V176.579H324.7V129.163Z" fill="white"/>
<path d="M275.961 143.033V166.255L298.371 154.638L275.961 143.033Z" fill="#DC2626"/>
<path d="M291.763 102.058H85.4214V113.747H291.763V102.058Z" fill="#AE7461"/>
<path d="M210.739 15.8477H196.293V102.058H210.739V15.8477Z" fill="#263238"/>
<path d="M188.755 25.9902H174.309V102.058H188.755V25.9902Z" fill="#455A64" fill-opacity="0.68"/>
<path d="M227.139 24.5518L213.723 29.959L241.677 100.601L255.093 95.1941L227.139 24.5518Z" fill="#455A64"/>
<path d="M246.602 24.5401L233.187 29.9473L261.14 100.59L274.556 95.1824L246.602 24.5401Z" fill="#455A64" fill-opacity="0.68"/>
<path d="M167.501 87.4785H94.8433V100.562H167.501V87.4785Z" fill="#5B6469"/>
<path d="M430.145 147.061H474.213L455.997 169.374L495.291 147.061H507.651C508.677 147.061 509.661 146.65 510.387 145.917C511.113 145.185 511.52 144.191 511.52 143.156V92.856C511.521 92.343 511.421 91.8349 511.227 91.3608C511.032 90.8867 510.747 90.4559 510.388 90.093C510.029 89.7301 509.602 89.4422 509.132 89.2458C508.663 89.0493 508.159 88.9482 507.651 88.9482H430.145C429.119 88.9482 428.135 89.3597 427.409 90.0921C426.684 90.8244 426.276 91.8178 426.276 92.8535V143.231C426.295 144.254 426.712 145.228 427.435 145.944C428.159 146.66 429.132 147.061 430.145 147.061Z" fill="#DC2626"/>
<path d="M481.474 111.565C481.474 118.076 473.334 120.009 473.334 122.545V123.558H465.219V121.151C465.219 117.651 471.4 115.648 471.4 111.768C471.427 111.335 471.367 110.901 471.221 110.493C471.076 110.085 470.849 109.711 470.554 109.395C470.26 109.078 469.904 108.827 469.509 108.655C469.115 108.483 468.689 108.395 468.259 108.396C465.747 108.396 465.169 110.424 465.169 112.427C465.144 112.858 465.144 113.29 465.169 113.72H456.425C456.425 113.082 456.299 112.529 456.299 111.895C456.299 105.657 461.801 101.752 469.262 101.752C476.723 101.752 481.474 105.708 481.474 111.565ZM474.063 135.349H464.641V126.475H474.063V135.349Z" fill="white"/>
<path d="M67.0306 517.64C58.7148 514.089 52.6847 511.129 54.0913 497.71C54.266 494.879 55.027 492.117 56.3252 489.601C57.6233 487.085 59.4298 484.872 61.628 483.105C65.2964 479.986 67.1546 478.819 68.2855 473.648C70.0185 465.813 67.8326 459.372 71.5744 452.2C75.5438 444.594 84.1367 445.329 88.1062 438.179C91.5734 431.992 93.1306 425.171 100.944 422.762C107.854 420.607 112.049 426.592 109.713 432.677C108.332 436.201 105.412 439.244 104.562 442.997C103.712 446.75 105.492 449.209 107.225 452.251C111.37 459.427 113.505 468.098 105.467 475.401C100.643 479.787 96.9748 483.571 99.3871 490.614C102.151 498.83 103.583 503.851 96.2247 511.076C90.7221 516.477 85.599 516.147 79.4172 516.452C73.8652 516.835 66.6296 519.216 62.1074 515.488L67.0306 517.64Z" fill="#2F3E45"/>
<path d="M49.2929 517.461C43.3387 523.902 38.2384 528.951 29.4456 521.291C27.2728 519.443 25.5674 517.099 24.4708 514.453C23.3743 511.807 22.918 508.936 23.1398 506.077C23.1398 500.803 23.6167 498.471 20.3569 494.388C15.3249 488.046 7.96404 485.766 4.6726 477.577C1.10541 468.779 9.04431 463.125 6.18044 455.213C3.66822 448.342 -1.02985 441.876 3.46709 435.942C7.11019 431.099 14.6468 433.99 17.4867 439.568C19.145 442.738 19.4461 446.334 21.5346 449.406C23.4794 451.843 26.1928 453.534 29.223 454.198C35.73 456.531 41.5589 460.511 42.0864 468.929C42.4128 474 42.915 478.387 47.8142 480.593C52.7134 482.799 55.8783 484.447 56.8333 492.307C57.5923 498.393 55.6278 501.867 53.6178 506.709C51.6078 511.551 50.0506 518.678 45.8547 521.365L49.2929 517.461Z" fill="#2F3E45"/>
<path d="M73.1352 508.991H72.3307C72.1642 508.971 72.0123 508.885 71.9087 508.752C71.805 508.619 71.758 508.449 71.7779 508.281C71.7979 508.113 71.8832 507.96 72.0151 507.855C72.147 507.751 72.3147 507.703 72.4813 507.723C76.6012 508.179 80.8477 504.376 83.2094 501.005C84.7457 498.575 85.2864 495.639 84.7172 492.815L84.5667 490.279C84.1644 483.661 83.8077 477.932 88.9131 472.759C94.5409 467.002 95.9476 463.453 95.6465 455.441V453.413C95.3881 450.769 95.4471 448.105 95.8223 445.476C96.1615 444.095 96.6769 442.765 97.3555 441.518C98.2009 440.051 98.7226 438.417 98.8848 436.728C98.8848 436.559 98.9515 436.397 99.0701 436.277C99.1887 436.157 99.3496 436.09 99.5173 436.09C99.6869 436.095 99.8477 436.167 99.9658 436.29C100.084 436.413 100.15 436.577 100.15 436.749C99.9932 438.629 99.4176 440.449 98.4661 442.073C97.8611 443.233 97.3892 444.458 97.0595 445.725C96.7054 448.245 96.6549 450.799 96.9089 453.331C96.9089 454.041 96.9089 454.751 96.9089 455.411C97.21 463.728 95.6781 467.657 89.8252 473.641C85.1018 478.433 85.4281 483.631 85.8304 490.198L85.9809 492.733C86.5881 495.847 85.9663 499.077 84.2479 501.735C81.7028 505.29 77.5322 508.991 73.1352 508.991Z" fill="white"/>
<path d="M87.4305 491.396C86.9383 491.366 86.4586 491.228 86.0247 490.992C85.5908 490.755 85.2132 490.426 84.9182 490.027C84.8488 489.967 84.7932 489.892 84.7552 489.808C84.7172 489.724 84.6978 489.633 84.6983 489.54C84.6987 489.448 84.7191 489.357 84.7579 489.273C84.7968 489.189 84.8532 489.115 84.9232 489.055C84.9933 488.996 85.0753 488.952 85.1637 488.928C85.252 488.904 85.3446 488.899 85.4349 488.914C85.5253 488.929 85.6113 488.964 85.6869 489.016C85.7626 489.068 85.8262 489.136 85.8733 489.216C86.0999 489.555 86.4218 489.818 86.7978 489.972C87.1737 490.125 87.5865 490.162 87.9832 490.077C90.6207 489.419 93.4858 483.713 93.9627 481.583C95.32 475.294 96.9771 472.074 103.058 469.691C103.135 469.658 103.218 469.642 103.302 469.643C103.386 469.643 103.468 469.66 103.546 469.693C103.623 469.726 103.692 469.774 103.751 469.835C103.809 469.895 103.855 469.967 103.886 470.045C103.944 470.207 103.936 470.385 103.865 470.541C103.794 470.698 103.666 470.82 103.507 470.882C97.6526 473.163 96.4231 476.104 95.191 481.861C94.7634 483.737 91.7996 490.405 88.2818 491.293C88.006 491.376 87.718 491.411 87.4305 491.396Z" fill="white"/>
<path d="M49.6442 514.164C48.4863 514.173 47.345 513.886 46.3275 513.328C41.9558 510.995 39.9205 504.174 38.1369 498.114C37.4705 495.498 36.5621 492.952 35.4235 490.508C32.8038 485.659 29.074 481.512 24.5449 478.413C18.4148 473.874 17.0082 470.45 15.8267 463.022C14.897 456.961 13.6915 450.876 10.9781 447.224C10.9183 447.159 10.8727 447.082 10.8442 446.997C10.8158 446.913 10.8052 446.823 10.8131 446.735C10.8209 446.646 10.8471 446.56 10.89 446.482C10.9328 446.404 10.9913 446.336 11.0617 446.282C11.1321 446.229 11.2129 446.19 11.2989 446.17C11.3848 446.15 11.474 446.148 11.5608 446.164C11.6475 446.181 11.7298 446.216 11.8025 446.266C11.8751 446.317 11.9364 446.382 11.9825 446.458C14.8717 450.313 16.1278 456.601 17.0069 462.838C18.0619 469.987 19.5192 472.981 25.2482 477.391C29.9124 480.611 33.7597 484.893 36.4785 489.892C37.655 492.428 38.5968 495.068 39.2918 497.778C41.0008 503.584 42.9602 510.151 46.8284 512.231C47.6307 512.634 48.507 512.865 49.402 512.909C50.2971 512.953 51.1915 512.809 52.0287 512.486C52.1079 512.459 52.1917 512.448 52.2751 512.454C52.3586 512.46 52.4401 512.482 52.5149 512.52C52.5898 512.558 52.6564 512.61 52.7111 512.674C52.7657 512.738 52.8072 512.812 52.8332 512.892C52.8821 513.054 52.8677 513.228 52.7928 513.379C52.7179 513.531 52.5884 513.647 52.431 513.704C51.5281 513.989 50.59 514.144 49.6442 514.164Z" fill="white"/>
<path d="M30.3248 482.953C30.1866 482.962 30.0503 482.916 29.9453 482.825C29.8111 482.723 29.7224 482.572 29.6987 482.404C29.6749 482.237 29.7181 482.067 29.8188 481.931C31.6783 479.522 30.5474 475.694 29.3419 471.788C28.3122 468.263 27.2319 464.612 28.1617 461.645C28.2331 461.517 28.3463 461.417 28.4821 461.364C28.6179 461.31 28.768 461.305 28.9069 461.35C29.0458 461.395 29.165 461.487 29.2443 461.611C29.3236 461.735 29.3581 461.882 29.3419 462.028C28.9129 465.217 29.3289 468.463 30.5474 471.436C31.7782 475.594 33.0596 479.905 30.8232 482.847C30.6743 482.946 30.4924 482.982 30.3172 482.947L30.3248 482.953Z" fill="white"/>
<path d="M36.6059 491.522H36.3794C35.5901 491.197 34.8328 490.798 34.1177 490.331C33.081 489.585 31.8672 489.13 30.5998 489.012C29.8303 488.961 29.0583 488.961 28.2887 489.012C26.5812 489.283 24.8324 489.036 23.2643 488.302C19.9365 486.376 17.0305 483.788 14.722 480.696C14.3198 480.185 13.8176 479.403 13.2648 478.566C12.5335 477.224 11.5939 476.009 10.4819 474.966C10.3382 474.917 10.2169 474.817 10.1401 474.685C10.0633 474.553 10.0362 474.397 10.0637 474.246C10.0911 474.096 10.1713 473.96 10.2897 473.864C10.408 473.768 10.5566 473.719 10.7083 473.724C11.6886 473.901 12.7183 475.398 14.3261 477.882C14.8536 478.668 15.3305 479.454 15.7074 479.885C17.9179 482.806 20.6749 485.261 23.8222 487.111C25.2057 487.752 26.7465 487.964 28.2495 487.72C29.0856 487.653 29.9256 487.653 30.7617 487.72C32.2365 487.85 33.6501 488.376 34.8564 489.242C35.5157 489.656 36.2045 490.02 36.917 490.332C36.9945 490.36 37.0654 490.404 37.1255 490.46C37.1855 490.517 37.2335 490.585 37.2665 490.661C37.2994 490.737 37.3166 490.819 37.317 490.902C37.3173 490.985 37.3009 491.067 37.2687 491.144C37.2152 491.27 37.1228 491.375 37.0052 491.444C36.8876 491.513 36.7511 491.542 36.616 491.527L36.6059 491.522Z" fill="white"/>
<path d="M46.7555 518.831C37.8362 511.224 27.2346 506.152 29.6456 491.699C31.6303 479.731 45.2982 476.635 41.0303 463.809C38.2916 455.593 31.2066 446.063 33.6188 436.906C36.1311 427.094 48.8692 431.023 51.6079 421.87C53.919 414.136 45.8295 405.185 53.0145 398.872C59.3457 393.295 70.5975 398.594 73.9674 404.983C78.3391 413.173 71.1288 419.259 72.3343 427.22C73.0933 432.291 77.9874 433.128 81.5799 436.119C85.4086 439.208 88.4065 443.219 90.298 447.783C94.9202 461.043 81.7051 465.861 77.7357 476.08C73.9408 485.689 86.8308 488.758 87.7858 498.393C88.8408 509.092 77.4852 517.562 68.3395 519.312C62.0312 520.479 52.3833 523.623 46.7555 518.831Z" fill="#455A64"/>
<path d="M57.0058 521.95H56.8299C56.7488 521.93 56.6727 521.893 56.6064 521.841C56.5402 521.79 56.4852 521.725 56.445 521.651C56.4048 521.577 56.3803 521.496 56.3729 521.412C56.3656 521.328 56.3756 521.243 56.4024 521.163C60.6794 504.475 61.0665 487.013 57.5333 470.148C53.7143 453.591 57.1816 442.003 60.0455 432.697C61.7038 427.144 63.1358 422.356 62.3566 418.118C62.3336 417.954 62.3729 417.787 62.4668 417.65C62.5606 417.514 62.7019 417.418 62.8625 417.383C62.9439 417.364 63.0281 417.363 63.1099 417.38C63.1917 417.396 63.2692 417.429 63.3377 417.477C63.4061 417.525 63.464 417.587 63.5076 417.658C63.5513 417.73 63.5797 417.81 63.5912 417.893C64.445 422.432 62.9587 427.351 61.2548 433.107C58.5161 442.286 55.1248 453.695 58.8678 469.924C62.4438 487 62.0481 504.679 57.7116 521.575C57.656 521.71 57.5556 521.823 57.4275 521.892C57.2994 521.962 57.1513 521.985 57.0083 521.957L57.0058 521.95Z" fill="white"/>
<path d="M58.589 469.974C58.4353 469.956 58.2936 469.881 58.1908 469.764C58.088 469.647 58.0312 469.497 58.0312 469.34C58.0312 469.184 58.088 469.033 58.1908 468.916C58.2936 468.8 58.4353 468.725 58.589 468.706C63.8146 467.92 69.7688 463.103 70.3216 457.217C70.2998 456.461 70.3502 455.705 70.4721 454.96C70.6985 451.105 70.9996 446.313 73.761 443.981C74.5302 443.403 75.4093 442.993 76.3431 442.775C77.277 442.556 78.2454 442.535 79.1877 442.713C79.3496 442.739 79.4952 442.828 79.5936 442.96C79.692 443.093 79.7356 443.258 79.7152 443.423C79.7093 443.507 79.6859 443.59 79.6464 443.665C79.607 443.74 79.5524 443.806 79.4861 443.859C79.4198 443.912 79.3434 443.95 79.2617 443.97C79.18 443.991 79.0949 443.995 79.0118 443.981C78.2436 443.817 77.4497 443.821 76.6831 443.992C75.9164 444.162 75.1945 444.496 74.5655 444.97C72.2038 446.922 72.0533 451.411 71.7269 455.113C71.7598 455.886 71.7008 456.661 71.5511 457.42C70.9186 464.089 64.4407 469.165 58.7876 470.098L58.589 469.974Z" fill="white"/>
<path d="M54.8008 470.149C52.5353 470.172 50.3356 469.381 48.5949 467.917C46.0827 465.66 44.776 461.756 44.9012 456.583V454.859C45.077 451.182 45.354 445.68 43.0923 443.17C42.7191 442.76 42.264 442.436 41.7573 442.217C41.2505 441.999 40.7035 441.891 40.1525 441.902C40.0637 441.908 39.9746 441.896 39.891 441.865C39.8074 441.834 39.7312 441.786 39.6673 441.724C39.6034 441.661 39.5533 441.586 39.5203 441.502C39.4872 441.419 39.472 441.329 39.4756 441.24C39.4792 441.15 39.5015 441.062 39.5411 440.981C39.5806 440.901 39.6366 440.83 39.7052 440.773C39.7739 440.716 39.8537 440.674 39.9395 440.65C40.0253 440.626 40.1151 440.621 40.2031 440.634C40.9214 440.636 41.6316 440.788 42.2889 441.08C42.9462 441.373 43.5363 441.799 44.022 442.333C46.5342 445.198 46.3584 451.055 46.1573 455.012V456.737C46.0308 461.504 47.1617 465.078 49.4234 467.057C50.5871 467.947 51.9339 468.561 53.3645 468.856C54.7951 469.15 56.2729 469.116 57.6887 468.756C57.8553 468.729 58.0256 468.77 58.1622 468.87C58.2989 468.97 58.3906 469.12 58.4173 469.288C58.444 469.457 58.4034 469.629 58.3045 469.766C58.2055 469.904 58.0564 469.997 57.8898 470.024C56.8657 470.162 55.8313 470.204 54.7995 470.151L54.8008 470.149Z" fill="white"/>
<path d="M62.2069 511.555C61.4243 511.564 60.6476 511.417 59.9211 511.123C59.8327 511.101 59.75 511.061 59.6787 511.003C59.6073 510.946 59.5491 510.874 59.5079 510.792C59.4667 510.71 59.4435 510.62 59.4399 510.528C59.4364 510.437 59.4525 510.345 59.4872 510.26C59.522 510.175 59.5745 510.099 59.6412 510.036C59.7078 509.973 59.7871 509.926 59.8736 509.897C59.9601 509.869 60.0517 509.859 60.1422 509.869C60.2327 509.879 60.32 509.909 60.398 509.957C64.1664 511.504 69.97 507.218 72.1622 504.379C73.1312 502.811 73.8516 501.1 74.2974 499.308C75.4283 495.861 76.6085 492.26 79.8 491.473C79.8796 491.446 79.9642 491.436 80.0479 491.444C80.1317 491.453 80.2125 491.48 80.2848 491.524C80.357 491.567 80.419 491.626 80.4664 491.696C80.5138 491.767 80.5454 491.847 80.559 491.93C80.5822 492.011 80.5889 492.095 80.5784 492.178C80.568 492.261 80.5407 492.341 80.4984 492.413C80.456 492.484 80.3994 492.547 80.3322 492.596C80.2649 492.644 80.1884 492.679 80.1074 492.696C77.5952 493.335 76.5402 496.576 75.5093 499.718C75.0163 501.619 74.2185 503.427 73.1476 505.068C71.1768 507.701 66.4281 511.555 62.2069 511.555Z" fill="white"/>
<path d="M56.6047 511.3C55.748 511.315 54.896 511.169 54.0925 510.869C49.4703 509.246 45.6261 503.49 44.1688 500.017C43.4483 497.654 43.1172 495.187 43.1885 492.715C43.038 488.277 42.8621 483.713 39.9983 482.268C39.9154 482.237 39.84 482.189 39.7768 482.126C39.7135 482.064 39.6639 481.989 39.6311 481.907C39.5983 481.824 39.5831 481.735 39.5864 481.646C39.5897 481.557 39.6114 481.469 39.6502 481.389C39.689 481.309 39.744 481.238 39.8116 481.181C39.8793 481.123 39.958 481.081 40.0429 481.056C40.1278 481.032 40.2168 481.025 40.3044 481.037C40.3919 481.049 40.4759 481.08 40.5511 481.127C44.0929 482.927 44.2941 488.1 44.4459 492.664C44.3727 494.979 44.6717 497.291 45.3313 499.51C46.638 502.655 50.3558 508.207 54.5011 509.653C55.2531 509.941 56.0582 510.061 56.8607 510.004C57.6631 509.947 58.4438 509.715 59.1485 509.324C59.2955 509.244 59.4676 509.226 59.6275 509.274C59.7874 509.322 59.9222 509.432 60.0024 509.579C60.0762 509.728 60.0911 509.9 60.0441 510.06C59.9972 510.22 59.8918 510.356 59.7494 510.441C58.7865 510.979 57.709 511.275 56.6085 511.303L56.6047 511.3Z" fill="white"/>
<path d="M16.7824 515.104C11.9706 528.442 9.56256 542.542 9.67203 556.737C9.67203 600.882 31.3788 636.633 58.1606 636.633C84.9424 636.633 106.63 600.933 106.63 556.737C106.74 542.542 104.332 528.442 99.5198 515.104H16.7824Z" fill="#DC2626"/>
<path d="M104.616 534.044C103.508 527.591 101.827 521.252 99.5917 515.104H16.7822C14.5472 521.252 12.8656 527.591 11.7578 534.044H104.616Z" fill="#DC2626"/>
<path d="M639.728 154.339C653.506 154.339 664.675 143.067 664.675 129.161C664.675 115.256 653.506 103.983 639.728 103.983C625.95 103.983 614.78 115.256 614.78 129.161C614.78 143.067 625.95 154.339 639.728 154.339Z" fill="white"/>
</g>
<defs>
<clipPath id="clip0_26_2152">
<rect width="720" height="734" fill="white"/>
</clipPath>
</defs>
</svg>
