<svg xmlns="http://www.w3.org/2000/svg" xmlns:xlink="http://www.w3.org/1999/xlink" width="180" height="149" viewBox="0 0 180 149">
  <defs>
    <clipPath id="clip-path">
      <rect id="Rectangle_1862" data-name="Rectangle 1862" width="180" height="149" transform="translate(159 1265)" fill="#fff" stroke="#707070" stroke-width="1" opacity="0.41"/>
    </clipPath>
  </defs>
  <g id="Mask_Group_2" data-name="Mask Group 2" transform="translate(-159 -1265)" clip-path="url(#clip-path)">
    <g id="Layer_2" data-name="Layer 2" transform="translate(135 1245.308)">
      <g id="Background_Complete" data-name="Background Complete">
        <rect id="Rectangle_1844" data-name="Rectangle 1844" width="15.208" height="0.115" transform="translate(191.382 157.751)" fill="#ebebeb"/>
        <rect id="Rectangle_1845" data-name="Rectangle 1845" width="3.99" height="0.115" transform="translate(148.103 159)" fill="#ebebeb"/>
        <rect id="Rectangle_1846" data-name="Rectangle 1846" width="8.812" height="0.115" transform="translate(182.111 153.49)" fill="#ebebeb"/>
        <rect id="Rectangle_1850" data-name="Rectangle 1850" width="3.09" height="84.565" transform="translate(65.527 65.908)" fill="#f5f5f5"/>
        <rect id="Rectangle_1851" data-name="Rectangle 1851" width="3.09" height="73.829" transform="translate(77.746 76.648)" fill="#f5f5f5"/>
        <rect id="Rectangle_1852" data-name="Rectangle 1852" width="3.09" height="63.093" transform="translate(89.85 87.384)" fill="#f5f5f5"/>
        <rect id="Rectangle_1853" data-name="Rectangle 1853" width="3.09" height="70.252" transform="translate(101.959 80.226)" fill="#f5f5f5"/>
        <rect id="Rectangle_1854" data-name="Rectangle 1854" width="3.09" height="73.829" transform="translate(114.068 76.648)" fill="#f5f5f5"/>
        <rect id="Rectangle_1855" data-name="Rectangle 1855" width="3.09" height="80.988" transform="translate(126.172 69.49)" fill="#f5f5f5"/>
        <rect id="Rectangle_1856" data-name="Rectangle 1856" width="3.09" height="77.406" transform="translate(138.281 73.067)" fill="#f5f5f5"/>
        <rect id="Rectangle_1857" data-name="Rectangle 1857" width="3.09" height="80.988" transform="translate(150.39 69.49)" fill="#f5f5f5"/>
        <rect id="Rectangle_1858" data-name="Rectangle 1858" width="3.09" height="88.142" transform="translate(162.494 62.331)" fill="#f5f5f5"/>
        <rect id="Rectangle_1859" data-name="Rectangle 1859" width="3.09" height="95.301" transform="translate(174.603 55.172)" fill="#f5f5f5"/>
        <rect id="Rectangle_1860" data-name="Rectangle 1860" width="3.09" height="102.46" transform="translate(186.708 48.018)" fill="#f5f5f5"/>
        <path id="Path_6985" data-name="Path 6985" d="M167.722,129.507a.693.693,0,0,1-.459-.193L141.387,104.1a.689.689,0,1,1,.964-.983l25.453,24.8,35.849-26.146a.689.689,0,0,1,.918.1l11.737,13.271L264.891,87.3a.689.689,0,1,1,.684,1.194l-49.065,28.121a.689.689,0,0,1-.859-.142l-11.691-13.22-35.817,26.123A.684.684,0,0,1,167.722,129.507Z" transform="translate(-76.342 -47.156)" fill="#f0f0f0"/>
        <path id="Path_6986" data-name="Path 6986" d="M135.784,186.486,113.206,97.444l1.13-4.45H113.16V67.56h-3.031V92.995h-1.176l1.13,4.45L87.5,186.486h3.127l19.5-76.906v77.374h3.031V109.581l19.5,76.906Z" transform="translate(-47.321 -36.537)" fill="#e0e0e0"/>
        <circle id="Ellipse_230" data-name="Ellipse 230" cx="17.481" cy="17.481" r="17.481" transform="translate(43.292 69.003) rotate(-76.72)" fill="#e6e6e6"/>
        <circle id="Ellipse_231" data-name="Ellipse 231" cx="14.924" cy="14.924" r="14.924" transform="translate(49.4 41.084)" fill="#f5f5f5"/>
        <circle id="Ellipse_232" data-name="Ellipse 232" cx="11.682" cy="11.682" r="11.682" transform="translate(52.642 44.326)" fill="#e6e6e6"/>
        <circle id="Ellipse_233" data-name="Ellipse 233" cx="9.574" cy="9.574" r="9.574" transform="translate(51.816 50.826) rotate(-22.5)" fill="#f5f5f5"/>
        <circle id="Ellipse_234" data-name="Ellipse 234" cx="6.645" cy="6.645" r="6.645" transform="translate(56.329 60.945) rotate(-76.72)" fill="#e6e6e6"/>
        <circle id="Ellipse_235" data-name="Ellipse 235" cx="4.771" cy="4.771" r="4.771" transform="translate(58.091 53.426) rotate(-22.5)" fill="#f5f5f5"/>
        <path id="Path_6987" data-name="Path 6987" d="M139.685,119.453a2.167,2.167,0,1,1-2.163-2.163,2.167,2.167,0,0,1,2.163,2.163Z" transform="translate(-73.198 -63.431)" fill="#e6e6e6"/>
        <path id="Path_6988" data-name="Path 6988" d="M87.9,90.58l.473,3.159L85.09,94.846l3.288,1.727,3.279-1.153L91.082,92.3Z" transform="translate(-46.017 -48.986)" fill="#e6e6e6"/>
        <line id="Line_146" data-name="Line 146" x1="23.524" y1="12.054" transform="translate(40.799 43.954)" fill="none" stroke="#e0e0e0" stroke-linecap="round" stroke-linejoin="round" stroke-width="2"/>
        <path id="Path_6989" data-name="Path 6989" d="M210.58,59.018a4.05,4.05,0,0,1,5.212-3.88,8.469,8.469,0,0,1-.092-1.24,8.573,8.573,0,0,1,8.578-8.573,8.482,8.482,0,0,1,1.575.147,7.494,7.494,0,0,1,13.9,3.807h.129a6.906,6.906,0,0,1,0,13.813H214.515A4.045,4.045,0,0,1,210.58,59.018Z" transform="translate(-113.883 -22.645)" fill="#f0f0f0"/>
        <path id="Path_6990" data-name="Path 6990" d="M367.47,64.633a1.952,1.952,0,0,1,1.952-1.952,1.9,1.9,0,0,1,.56.083,4.3,4.3,0,0,1-.046-.6,4.133,4.133,0,0,1,4.9-4.059,3.609,3.609,0,0,1,6.695,1.837h.06a3.329,3.329,0,0,1,0,6.658H369.366a1.952,1.952,0,0,1-1.9-1.965Z" transform="translate(-198.73 -30.483)" fill="#f0f0f0"/>
        <path id="Path_6991" data-name="Path 6991" d="M94.72,73.137a1.313,1.313,0,0,1,1.313-1.313,1.465,1.465,0,0,1,.377.055,2.815,2.815,0,0,1-.032-.4,2.778,2.778,0,0,1,2.755-2.755,3.214,3.214,0,0,1,.514.046,2.425,2.425,0,0,1,4.5,1.231h.041a2.241,2.241,0,0,1,0,4.477H96a1.309,1.309,0,0,1-1.277-1.341Z" transform="translate(-51.225 -36.558)" fill="#f0f0f0"/>
      </g>
      <g id="Shadow" transform="translate(25.765 160.704)">
        <ellipse id="_Path_" data-name="&lt;Path&gt;" cx="89.033" cy="5.198" rx="89.033" ry="5.198" fill="#f5f5f5"/>
      </g>
      <g id="Character_1" data-name="Character 1" transform="translate(27.431 45.14)">
        <g id="_Group_" data-name="&lt;Group&gt;">
          <path id="Path_6992" data-name="Path 6992" d="M138.38,166.141l3.15-1.8s1.212-1.869,1.575-1.956,4.358,0,4.358,0-.6,2.585-.666,3.1-3.876,0-3.876,0l-3.086,1.837Z" transform="translate(-102.268 -132.938)" fill="#ebb376"/>
          <path id="Path_6993" data-name="Path 6993" d="M69.258,352.221l-3.3-.661a.266.266,0,0,0-.253.207l-.886,3.3a.459.459,0,0,0,.335.519h.1c1.166,0,2.016-.092,3.476-.092.918,0,3.618.1,4.863.1s1.41-1.231.918-1.345a11.7,11.7,0,0,1-4.734-1.837A.725.725,0,0,0,69.258,352.221Z" transform="translate(-62.484 -235.267)" fill="#263238"/>
          <path id="Path_6994" data-name="Path 6994" d="M157.123,352.8h-3.6a.257.257,0,0,0-.253.207l-.588,2.64a.459.459,0,0,0,.34.519.343.343,0,0,0,.1,0c1.166,0,2.011-.087,3.476-.087.918,0,3.618.092,4.863.092s1.405-1.231.9-1.341a11.837,11.837,0,0,1-4.734-1.837A.725.725,0,0,0,157.123,352.8Z" transform="translate(-109.999 -235.937)" fill="#263238"/>
          <path id="Path_6995" data-name="Path 6995" d="M76.308,216.166,91.553,212.3c3.458,7.549,16.145,38.545,19.222,64.333l-5.161,1.309s-9.138-38.03-16.8-49.134c0,0-.409,16.885-1.24,19.341C86.888,250.17,71.2,277.2,71.2,277.2l-5.1-.579S78.911,249.035,79.665,245.6c.533-2.342-1.8-19.543-1.8-19.543-.409-1.538-1.024-7.884-1.024-7.884S76.381,216.483,76.308,216.166Z" transform="translate(-63.178 -159.954)" fill="#455a64"/>
          <path id="Path_6996" data-name="Path 6996" d="M114.445,241.753a42.366,42.366,0,0,1,3.375,6.162,42.429,42.429,0,0,0-4.33-11.7Z" transform="translate(-88.807 -172.89)" opacity="0.2"/>
          <path id="Path_6997" data-name="Path 6997" d="M76.308,216.166,91.553,212.3c3.458,7.549,16.145,38.545,19.222,64.333l-5.161,1.309s-9.138-38.03-16.8-49.134c0,0-.409,16.885-1.24,19.341C86.888,250.17,71.2,277.2,71.2,277.2l-5.1-.579S78.911,249.035,79.665,245.6c.533-2.342-1.8-19.543-1.8-19.543-.409-1.538-1.024-7.884-1.024-7.884S76.381,216.483,76.308,216.166Z" transform="translate(-63.178 -159.954)" opacity="0.3"/>
          <path id="Path_6998" data-name="Path 6998" d="M124.812,168.817s-6.952,4.693-8.784,4.941a15.253,15.253,0,0,1-3.793-.459c-2.36-.505-4.822-1.212-4.822-1.212l-.308-2.328-.326-2.489c.551-.184,7.742,2.755,8.816,3.214s8.022-3.674,8.022-3.674Z" transform="translate(-85.178 -135.353)" fill="#dc2626"/>
          <path id="Path_6999" data-name="Path 6999" d="M93.422,218.38l.45,1.763-4.923,1.313-.459-1.828Z" transform="translate(-75.287 -163.242)"/>
          <path id="Path_7000" data-name="Path 7000" d="M107.638,214.09l.427,1.671-7.2,1.919-.45-1.759Z" transform="translate(-81.739 -160.922)"/>
          <path id="Path_7001" data-name="Path 7001" d="M120.044,214.219l-2.291.611-.422-1.667,2.1-.533Z" transform="translate(-90.884 -160.132)"/>
          <rect id="Rectangle_1861" data-name="Rectangle 1861" width="2.93" height="2.112" transform="translate(24.829 55.275) rotate(165.77)" fill="#fff"/>
          <path id="Path_7002" data-name="Path 7002" d="M94.746,188.381,79.4,192.275c-.748-2.025-1.511-4.064-2.255-6.052-.546-1.456-1.084-2.884-1.607-4.266l-.4-1.047-.459-1.221L73.7,177.1l-.845-2.209-.4-1.033-.758-1.975L87.8,167.8C93.121,177.076,94.746,188.381,94.746,188.381Z" transform="translate(-66.201 -135.888)" fill="#dc2626"/>
          <path id="Path_7003" data-name="Path 7003" d="M82.147,167.671c1.658.79,4.716-.606,4.716-.606s1.015-1.12.409-1.616c-1.231.156-1.153-.243-1.6-.872a3.623,3.623,0,0,1-.514-1.3,7.271,7.271,0,0,1-.124-.781L80.2,160.76C81.3,162.532,83,165.889,82.147,167.671Z" transform="translate(-70.803 -132.081)" fill="#ebb376"/>
          <path id="Path_7004" data-name="Path 7004" d="M83.4,164.21a3.524,3.524,0,0,0,4,2.232,3.623,3.623,0,0,1-.514-1.3Z" transform="translate(-72.534 -133.946)" opacity="0.2"/>
          <path id="Path_7005" data-name="Path 7005" d="M92.858,145.08s1.263,3.811-.56,5.671-3.058-5.428-3.058-5.428Z" transform="translate(-75.692 -123.601)" fill="#263238"/>
          <path id="Path_7006" data-name="Path 7006" d="M82.057,154.436a3.6,3.6,0,0,0,4.312.684,4.023,4.023,0,0,0,1.947-2.222c.046-.129.087-.266.124-.409.615-2.562.23-6.8-2.567-7.939a3.9,3.9,0,0,0-5.386,3.9C80.652,151.3,80.616,152.981,82.057,154.436Z" transform="translate(-70.953 -123.153)" fill="#ebb376"/>
          <path id="Path_7007" data-name="Path 7007" d="M89.93,154.642c0,.23.119.418.276.418s.271-.188.276-.422-.124-.418-.276-.418S89.93,154.408,89.93,154.642Z" transform="translate(-76.065 -128.544)" fill="#263238"/>
          <path id="Path_7008" data-name="Path 7008" d="M95.65,154.642c0,.23.124.422.276.422s.271-.193.276-.422-.129-.422-.276-.422S95.65,154.422,95.65,154.642Z" transform="translate(-79.159 -128.544)" fill="#263238"/>
          <path id="Path_7009" data-name="Path 7009" d="M93.819,155.39a8.266,8.266,0,0,0,1.107,1.988,1.336,1.336,0,0,1-1.116.207Z" transform="translate(-78.164 -129.177)" fill="#d58745"/>
          <path id="Path_7010" data-name="Path 7010" d="M96.224,152.2a.142.142,0,0,1-.142,0,1.093,1.093,0,0,0-.969-.184.138.138,0,0,1-.1-.257h0a1.378,1.378,0,0,1,1.221.22.133.133,0,0,1,.037.188h0A.143.143,0,0,1,96.224,152.2Z" transform="translate(-78.773 -127.184)" fill="#263238"/>
          <path id="Path_7011" data-name="Path 7011" d="M88.667,152.2a.129.129,0,0,1-.073-.023.138.138,0,0,1,0-.193h0a1.378,1.378,0,0,1,1.208-.317.133.133,0,0,1,.092.165h0a.138.138,0,0,1-.17.092h0a1.1,1.1,0,0,0-.946.271A.151.151,0,0,1,88.667,152.2Z" transform="translate(-75.321 -127.144)" fill="#263238"/>
          <path id="Path_7012" data-name="Path 7012" d="M81.013,145.65l.276.528c-.918.349-.689,1.433-.459,1.919a3.428,3.428,0,0,1-.845,3.4s-.051-.459-.432-.331-.161,2.507.647,3.6a7.424,7.424,0,0,1-1.952-3.444c-.7-2.3-.868-4.211-.432-5.129Z" transform="translate(-69.385 -123.909)" fill="#263238"/>
          <path id="Path_7013" data-name="Path 7013" d="M77.572,156.324a2.755,2.755,0,0,0,1.557,1.378c.918.3,1.378-.491,1.194-1.378-.193-.776-.886-1.9-1.837-1.837a1.212,1.212,0,0,0-.914,1.837Z" transform="translate(-69.286 -128.687)" fill="#ebb376"/>
          <path id="Path_7014" data-name="Path 7014" d="M83.857,161.7c1.35.951,3.981,1.254,5.272-.459s.877-4.463.877-4.463a4.284,4.284,0,0,1-.827,1.681,1.882,1.882,0,0,0-1.97-.4,1.786,1.786,0,0,0-1.056-.661c-.6-.06-2.3.037-2.3.037-.542-.34-.565-1.874-.565-1.874l-.331.271S82.5,160.753,83.857,161.7Z" transform="translate(-72.256 -129.268)" fill="#263238"/>
          <path id="Path_7015" data-name="Path 7015" d="M84.584,142.723s3.214-1.557,2.833-3.118-1.318.22-1.318.22.432-1.189-.413-1.355-.579.542-1.038,1-4.913-.207-6.351.68-.34,3.977-.34,3.977a6.19,6.19,0,0,1,6.626-1.4Z" transform="translate(-69.374 -120.013)" fill="#263238"/>
          <path id="Path_7016" data-name="Path 7016" d="M83.857,161.7c1.35.951,3.981,1.254,5.272-.459s.877-4.463.877-4.463a4.284,4.284,0,0,1-.827,1.681,1.882,1.882,0,0,0-1.97-.4,1.786,1.786,0,0,0-1.056-.661c-.6-.06-2.3.037-2.3.037-.542-.34-.565-1.874-.565-1.874l-.331.271S82.5,160.753,83.857,161.7Z" transform="translate(-72.256 -129.268)" fill="#263238" opacity="0.2"/>
          <path id="Path_7017" data-name="Path 7017" d="M90,161.643a8.45,8.45,0,0,0-.666,1.042l-.207-.073c-.918-.335-1.249-.794-1.322-1.208a1.332,1.332,0,0,1,.051-.6A1.378,1.378,0,0,1,88,160.49a4.674,4.674,0,0,0,1.69,1.033A1.913,1.913,0,0,1,90,161.643Z" transform="translate(-74.908 -131.935)" fill="#263238"/>
          <path id="Path_7018" data-name="Path 7018" d="M89.762,161.473l-.207.3a2.926,2.926,0,0,1-1.626-1.024,1.378,1.378,0,0,1,.142-.312A4.674,4.674,0,0,0,89.762,161.473Z" transform="translate(-74.984 -131.908)" fill="#fff"/>
          <path id="Path_7019" data-name="Path 7019" d="M89.142,163.638c-.918-.335-1.249-.794-1.322-1.208a3.265,3.265,0,0,1,.96.574,1.208,1.208,0,0,1,.363.634Z" transform="translate(-74.924 -132.984)" fill="#de5753"/>
          <path id="Path_7020" data-name="Path 7020" d="M91.839,174.5l-.271,2.379,4.959,10.566-.491,1.4-1.621-.753-3.536-10.773-2.6-1.759,1.892-1.038Z" transform="translate(-75.173 -139.511)" fill="#c72032"/>
          <path id="Path_7021" data-name="Path 7021" d="M83.036,169.938l3.283,1.355.133-2.222,2.42.6.207,3.384-2.328-.951-.973,2.167L81.64,171.5Z" transform="translate(-71.582 -136.575)" fill="#e75549"/>
          <path id="Path_7023" data-name="Path 7023" d="M75.567,186.7l-.983-2.585-.845-2.209-.4-1.033a1.859,1.859,0,0,1,1.956.459C76.49,183.407,75.567,186.7,75.567,186.7Z" transform="translate(-67.093 -142.904)" opacity="0.2"/>
          <path id="Path_7024" data-name="Path 7024" d="M83.949,196.023a6.139,6.139,0,0,1-3.283,4.2c-.546-1.456-1.084-2.884-1.607-4.266l-.4-1.047L78.2,193.69l5.317.675Z" transform="translate(-69.722 -149.889)" opacity="0.2"/>
          <path id="Path_7025" data-name="Path 7025" d="M112.619,176.73c-2.36-.505-4.822-1.212-4.822-1.212l-.308-2.328S111.829,173.654,112.619,176.73Z" transform="translate(-85.562 -138.803)" opacity="0.2"/>
          <path id="Path_7026" data-name="Path 7026" d="M70.852,190.462a.689.689,0,0,1-.459-1.221c7.664-6.291,7.517-16.15,7.375-25.687-.11-7.2-.211-13.987,3.173-18.606,4.748-6.493,23.846-16.793,27.01-17.087,2.264-.225,71.313-19.415,107.511-29.531a.689.689,0,0,1,.372,1.327c-4.284,1.194-104.916,29.315-107.754,29.577-2.723.253-21.628,10.511-26.027,16.531-3.109,4.248-3.012,10.819-2.907,17.771.138,9.4.3,20.062-7.88,26.775A.68.68,0,0,1,70.852,190.462Z" transform="translate(-65.363 -98.304)" fill="#263238"/>
          <g id="Group_2342" data-name="Group 2342" transform="translate(4.754 0.009)" opacity="0.4">
            <path id="Path_7027" data-name="Path 7027" d="M215.828,99.686l-9.441,2.622c-25.967,7.246-95.971,26.725-98.313,26.941-2.723.253-21.628,10.511-26.027,16.531-3.109,4.248-3.012,10.819-2.907,17.771.138,9.4.3,20.067-7.88,26.776a.68.68,0,0,1-.459.156.689.689,0,0,1-.459-1.221c7.664-6.291,7.517-16.15,7.375-25.687-.11-7.191-.211-13.987,3.173-18.606,4.748-6.493,23.846-16.793,27.01-17.087,2.131-.211,63.3-17.192,100.692-27.625l6.819-1.906a.689.689,0,0,1,.372,1.327Z" transform="translate(-70.09 -98.324)" fill="#fff"/>
          </g>
          <path id="Path_7028" data-name="Path 7028" d="M376.351,99.681,366.91,102.3a12.307,12.307,0,0,1,2.25-2.057l6.819-1.906a.689.689,0,1,1,.372,1.327Z" transform="translate(-225.858 -98.309)" opacity="0.2"/>
          <path id="Path_7029" data-name="Path 7029" d="M81.91,194.149l3.609-.312a9.231,9.231,0,0,1,2.25-1.12c.363.073,3.958,1.837,3.958,1.837s-1.63,2.094-1.9,2.535-3.517-1.626-3.517-1.626l-3.577.381Z" transform="translate(-71.728 -149.361)" fill="#ebb376"/>
          <path id="Path_7030" data-name="Path 7030" d="M65.226,176.66c-1.639,1.176-5.91,10.718-5.455,12.2s13.744-1.433,13.744-1.433l-.588-2.489h-7.15l1.7-2.677s1.047-1.019.4-3.389C67.416,177.161,65.226,176.66,65.226,176.66Z" transform="translate(-59.737 -140.679)" fill="#dc2626"/>
        </g>
      </g>
      <g id="Character_3" data-name="Character 3" transform="translate(151.732 58.625)">
        <g id="_Group_2" data-name="&lt;Group&gt;">
          <path id="Path_7031" data-name="Path 7031" d="M365.13,173.554l-2.723-1.286a29.68,29.68,0,0,0-1.782-3.058c-.4-.418-2.356,1.217-2.356,1.5a11.32,11.32,0,0,0,1.782,3.109,5.671,5.671,0,0,0,1.648,0l2.59,1.258Z" transform="translate(-345.487 -150.098)" fill="#9f5b53"/>
          <path id="Path_7032" data-name="Path 7032" d="M385.022,134.8l.546-1.952a14.872,14.872,0,0,0,.771-3.136,15.268,15.268,0,0,0-.652-2.039,25.428,25.428,0,0,0-2.388,3.265,6.9,6.9,0,0,0,.946,1.681l-.459,2.181Z" transform="translate(-359.023 -127.67)" fill="#9f5b53"/>
          <path id="Path_7033" data-name="Path 7033" d="M384.853,156.523a15.948,15.948,0,0,1-2.663-4.936c-.606-2.379,1.226-10.1,1.226-10.1l-1.933-.514s-2.3,7.9-2.374,10.786S383.32,163.1,383.32,163.1Z" transform="translate(-356.756 -134.863)" fill="#dc2626"/>
          <path id="Path_7034" data-name="Path 7034" d="M385.4,180.926l-.294,1.249s-1.479-2.911-2.686-5.905a7.522,7.522,0,0,1,2.714,3.632A6.34,6.34,0,0,1,385.4,180.926Z" transform="translate(-358.548 -153.953)" opacity="0.2"/>
          <path id="Path_7035" data-name="Path 7035" d="M393.3,180.413a11.093,11.093,0,0,1-.193,1.589c-.211,1.143-.569,2.5-.978,3.99-.22.785-.459,1.626-.67,2.512a79.76,79.76,0,0,0-2.337,10.653l-14.533-3.449a69.8,69.8,0,0,1,3.577-12.747c.422-1.093.918-2.195,1.419-3.274a33.337,33.337,0,0,1,2.824-4.867s2.351,2.149,9.735,3.435C393.04,178.42,393.348,179.2,393.3,180.413Z" transform="translate(-354.313 -153.169)" fill="#dc2626"/>
          <path id="Path_7036" data-name="Path 7036" d="M395.7,183.294c0,.459,1.74,2.645,1.635,3.214-.2.133-.432.28-.7.459-4.918,2.861-11.37,1.405-14.235.519.422-1.093,1.378-3.113,1.874-4.192l3.453.762S393.361,182.775,395.7,183.294Z" transform="translate(-358.537 -157.685)" opacity="0.2"/>
          <path id="Path_7037" data-name="Path 7037" d="M396.856,176.73a15.319,15.319,0,0,1,4.541.969c-.321.092-1.938,5.051-4.2,4.679S394.974,177.447,396.856,176.73Z" transform="translate(-365.605 -154.189)" fill="#c72032"/>
          <path id="Path_7038" data-name="Path 7038" d="M350.661,346.323l-2.728.592-1.593-6.277,2.732-.588Z" transform="translate(-339.035 -242.527)" fill="#9f5b53"/>
          <path id="Path_7039" data-name="Path 7039" d="M342.21,352.519H345.6a.234.234,0,0,1,.234.193l.551,2.484a.4.4,0,0,1-.317.487.2.2,0,0,1-.092,0c-1.1,0-1.9-.083-3.274-.083-.85,0-3.412.087-4.592.087s-1.322-1.157-.845-1.263a10.888,10.888,0,0,0,4.463-1.74A.675.675,0,0,1,342.21,352.519Z" transform="translate(-333.991 -249.27)" fill="#263238"/>
          <path id="Path_7040" data-name="Path 7040" d="M345.52,352.75a.85.85,0,0,1-.537-.142.391.391,0,0,1-.138-.358.193.193,0,0,1,.11-.184c.312-.161,1.212.395,1.313.459a.06.06,0,0,1,.032.064.064.064,0,0,1-.05.055A3.591,3.591,0,0,1,345.52,352.75Zm-.418-.583a.169.169,0,0,0-.083,0,.113.113,0,0,0-.046.078.276.276,0,0,0,.092.239,1.346,1.346,0,0,0,.992.051A2.754,2.754,0,0,0,345.1,352.167Z" transform="translate(-338.224 -249.009)" fill="#dc2626"/>
          <path id="Path_7041" data-name="Path 7041" d="M346.9,351.906h-.032c-.285-.156-.845-.771-.79-1.065a.22.22,0,0,1,.216-.174.363.363,0,0,1,.28.083c.321.266.39,1.07.395,1.107a.078.078,0,0,1-.032.06Zm-.56-1.134h-.032c-.087,0-.092.051-.1.069-.037.179.321.647.606.863a1.575,1.575,0,0,0-.317-.886A.244.244,0,0,0,346.337,350.772Z" transform="translate(-338.89 -248.267)" fill="#dc2626"/>
          <path id="Path_7042" data-name="Path 7042" d="M365.362,225.055s-2.356,11.232-7.866,14.235a5.851,5.851,0,0,1-2.043.689s-5.588,2.3-10.419,4.468a47.8,47.8,0,0,0-6.548,3.348c-2.516,1.919,3.646,31.808,3.646,31.808l-4.188.051s-8.812-26.468-7.347-33.415,17.279-17.582,17.279-17.582l2.434-6.7Z" transform="translate(-330.432 -178.663)" fill="#303f46"/>
          <path id="Path_7043" data-name="Path 7043" d="M374.692,254.7a5.85,5.85,0,0,1-2.043.689s-5.588,2.3-10.419,4.468a30.355,30.355,0,0,1,8.651-9.427Z" transform="translate(-347.629 -194.06)" opacity="0.2"/>
          <path id="Path_7044" data-name="Path 7044" d="M427.121,346.323l-2.728.592-1.593-6.277,2.732-.588Z" transform="translate(-380.385 -242.527)" fill="#9f5b53"/>
          <path id="Path_7045" data-name="Path 7045" d="M418.67,352.519h3.393a.234.234,0,0,1,.234.193l.551,2.484a.4.4,0,0,1-.317.487.2.2,0,0,1-.092,0c-1.1,0-1.9-.083-3.274-.083-.85,0-3.412.087-4.592.087s-1.322-1.157-.845-1.263a10.888,10.888,0,0,0,4.463-1.74A.675.675,0,0,1,418.67,352.519Z" transform="translate(-375.341 -249.27)" fill="#263238"/>
          <path id="Path_7046" data-name="Path 7046" d="M421.98,352.75a.85.85,0,0,1-.537-.142.39.39,0,0,1-.138-.358.193.193,0,0,1,.11-.184c.312-.161,1.212.395,1.313.459a.06.06,0,0,1,.032.064.064.064,0,0,1-.051.055A3.59,3.59,0,0,1,421.98,352.75Zm-.418-.583a.169.169,0,0,0-.083,0,.113.113,0,0,0-.046.078.276.276,0,0,0,.092.239,1.346,1.346,0,0,0,.992.051A2.754,2.754,0,0,0,421.562,352.167Z" transform="translate(-379.575 -249.009)" fill="#dc2626"/>
          <path id="Path_7047" data-name="Path 7047" d="M423.357,351.906h-.032c-.285-.156-.845-.771-.79-1.065a.221.221,0,0,1,.216-.174.363.363,0,0,1,.28.083c.321.266.39,1.07.395,1.107a.078.078,0,0,1-.032.06Zm-.56-1.134h-.051c-.087,0-.092.051-.1.069-.037.179.321.647.606.863a1.575,1.575,0,0,0-.331-.877A.244.244,0,0,0,422.8,350.772Z" transform="translate(-380.24 -248.267)" fill="#dc2626"/>
          <path id="Path_7048" data-name="Path 7048" d="M401.237,173.563c-.684.459-3.839.285-3.839.285l-1.465,1.58-.142-2.65s-.987-.413-.716-.7a2.608,2.608,0,0,0,1.9-.634,3.568,3.568,0,0,0,.753-2.627v-.037h0l2.7-1.378,1.864-.955C401.411,168.36,400.158,171.905,401.237,173.563Z" transform="translate(-365.366 -148.643)" fill="#9f5b53"/>
          <path id="Path_7049" data-name="Path 7049" d="M403.588,169.248a5.869,5.869,0,0,1-4.358,3.407,3.567,3.567,0,0,0,.753-2.627.13.13,0,0,0,0-.041l2.7-1.378C402.683,168.954,403.716,168.881,403.588,169.248Z" transform="translate(-367.639 -149.811)" opacity="0.2"/>
          <path id="Path_7050" data-name="Path 7050" d="M405.948,156.038s1.75.918,2.333-.179-.248-1.162.611-1.557,2.08-.67,1.8-1.5-1.148-.918-.184-1.837,1.176-2.218-.266-2.466-.891-1.378-.964-1.837-.882-.781-1.759-.6-1.244-1.111-1.786-1.52-1.29.1-1.488.643-.716-.184-1.488-.271-.592.721-.831,1.479-.712.262-1.263.886S400.062,152.167,405.948,156.038Z" transform="translate(-368.286 -136.715)" fill="#263238"/>
          <path id="Path_7051" data-name="Path 7051" d="M403.758,157.134c-1.318,2.066-2.066,3.43-3.545,4.1a4.388,4.388,0,0,1-.615.225,3.689,3.689,0,0,1-4.486-4.661,9.288,9.288,0,0,1,.551-1.442c1.029-2.154,3.008-4.362,5.373-4.068a3.779,3.779,0,0,1,3.325,4.188A3.848,3.848,0,0,1,403.758,157.134Z" transform="translate(-365.334 -140.429)" fill="#9f5b53"/>
          <path id="Path_7052" data-name="Path 7052" d="M404.665,160.471c-.1.2-.3.3-.432.225s-.142-.289-.037-.487.308-.294.432-.225S404.776,160.273,404.665,160.471Z" transform="translate(-370.287 -145.134)" fill="#263238"/>
          <path id="Path_7053" data-name="Path 7053" d="M399.818,157.772a.349.349,0,0,1-.432.23c-.124-.073-.142-.294-.032-.487s.3-.3.432-.23S399.924,157.6,399.818,157.772Z" transform="translate(-367.666 -143.675)" fill="#263238"/>
          <path id="Path_7054" data-name="Path 7054" d="M399.668,159.44a8.009,8.009,0,0,1-1.878,1.162,1.3,1.3,0,0,0,.845.7Z" transform="translate(-366.86 -144.851)" fill="#892b29"/>
          <path id="Path_7055" data-name="Path 7055" d="M406.908,159.011a.142.142,0,0,1-.129-.055,1.056,1.056,0,0,0-.836-.459.133.133,0,0,1,0-.266h0a1.309,1.309,0,0,1,1.061.565.129.129,0,0,1-.023.184h0Z" transform="translate(-371.197 -144.197)" fill="#263238"/>
          <path id="Path_7056" data-name="Path 7056" d="M400.724,165.677h0a2.043,2.043,0,0,0,1.837-.308.078.078,0,0,0,0-.1.073.073,0,0,0-.1,0h0a1.956,1.956,0,0,1-1.717.276.06.06,0,0,0-.083.041h0a.064.064,0,0,0,.041.087Z" transform="translate(-368.411 -147.994)" fill="#263238"/>
          <path id="Path_7057" data-name="Path 7057" d="M399.994,154.047a.152.152,0,0,1,0-.078.129.129,0,0,1,.174-.064h0a1.318,1.318,0,0,1,.744.955.129.129,0,0,1-.115.147h0a.129.129,0,0,1-.147-.11h0a1.07,1.07,0,0,0-.606-.744A.138.138,0,0,1,399.994,154.047Z" transform="translate(-368.049 -141.851)" fill="#263238"/>
          <path id="Path_7058" data-name="Path 7058" d="M404.12,149.7c.67.083,1,.9,1,.9a15.156,15.156,0,0,1,2.342,1.1,1.58,1.58,0,0,1,.542,1.575c-.023.22-.565.422-.565.422s-.992,2.337-1.263,2.989l.138,2.158a11.443,11.443,0,0,0,4.211-4.739c1.566-3.26-4.968-6.13-4.968-6.13Z" transform="translate(-370.283 -138.648)" fill="#263238"/>
          <path id="Path_7059" data-name="Path 7059" d="M410.109,168.552a2.613,2.613,0,0,1-2,.216c-.886-.262-.836-1.176-.179-1.754.588-.51,1.768-1.006,2.452-.418a1.171,1.171,0,0,1-.276,1.956Z" transform="translate(-372.08 -148.578)" fill="#9f5b53"/>
          <path id="Path_7060" data-name="Path 7060" d="M398.835,177.729l-3.651,1.052-1.575,2.131.427-2.608s-.39-.6.257-1.543l-2.222.459-1.341,2.241,2.608-.615.179,2.608,1.52-1.791,1.244,1.961,3.7-2.346Z" transform="translate(-363.042 -154.218)" fill="#dc2626"/>
          <path id="Path_7061" data-name="Path 7061" d="M398.835,177.729l-3.651,1.052-1.575,2.131.427-2.608s-.39-.6.257-1.543l-2.222.459-1.341,2.241,2.608-.615.179,2.608,1.52-1.791,1.244,1.961,3.7-2.346Z" transform="translate(-363.042 -154.218)" opacity="0.2"/>
          <path id="Path_7062" data-name="Path 7062" d="M374.339,217.05l-.569,2.268,15.025,3.081.225-2.521Z" transform="translate(-353.87 -176.007)"/>
          <path id="Path_7063" data-name="Path 7063" d="M384.522,218.811c-.119-.165-3.462-.886-3.779-.647a13.511,13.511,0,0,0-.537,2.47,22.657,22.657,0,0,0,3.674.753C384.191,221.451,384.641,218.981,384.522,218.811Zm-.918,2.3a18.968,18.968,0,0,1-3.012-.615,11.05,11.05,0,0,1,.459-2.034,9.29,9.29,0,0,1,3.1.537c.1.142-.3,2.144-.551,2.094Z" transform="translate(-357.343 -176.584)" fill="#fff"/>
          <path id="Path_7064" data-name="Path 7064" d="M386.769,221.133l-.666-.138a.248.248,0,0,0-.285.174h0a.248.248,0,0,0,.193.312l.666.124a.248.248,0,0,0,.1-.459Z" transform="translate(-360.38 -178.138)" fill="#fff"/>
          <path id="Path_7065" data-name="Path 7065" d="M392.283,228.7s.289,16.99-.188,21.949,11.9,32.1,11.9,32.1h-4.009s-12.146-19.874-14.928-25.995-4.84-20.705-4.84-20.705Z" transform="translate(-357.358 -182.308)" fill="#303f46"/>
          <path id="Path_7066" data-name="Path 7066" d="M390.048,180.259c-.62-1.405-10.139.675-11,.432s-9.795-3.99-9.795-3.99l-.776,2.007s8.013,4.592,9.767,5.313,8.766.377,10.561-.395a2.475,2.475,0,0,0,1.24-3.366Z" transform="translate(-351.009 -154.186)" fill="#dc2626"/>
        </g>
      </g>
      <g id="Arrow" transform="translate(44.257 29.848)">
        <path id="Path_7067" data-name="Path 7067" d="M241.209,83.368,238.326,65l-15.19,10.718,5.051,2.14c-4.877,11.177-20.7,43.922-47.917,68.066-34.756,30.844-83.4,46.016-83.89,46.167l2.691,8.78c2.066-.634,51.007-15.874,87.311-48.077,28.929-25.66,45.194-59.507,50.3-71.354Z" transform="translate(-96.38 -65)" fill="#dc2626"/>
        <path id="Path_7068" data-name="Path 7068" d="M238.454,80.153,238.326,65l-15.19,10.718,5.051,2.14c-4.877,11.177-20.7,43.922-47.917,68.066-34.756,30.844-83.4,46.016-83.89,46.167l.854,5.565c2.066-.634,51.007-14.5,87.311-46.7,28.929-25.66,44.275-59.966,49.382-71.813Z" transform="translate(-96.38 -65)" fill="#fff" opacity="0.4"/>
        <path id="Path_7069" data-name="Path 7069" d="M388.8,101.688a.675.675,0,0,1-.211-.032L379.766,98.8a.69.69,0,1,1,.422-1.313l8.821,2.852a.689.689,0,0,1-.211,1.345Z" transform="translate(-249.378 -82.553)" fill="#263238"/>
        <g id="Group_2343" data-name="Group 2343" transform="translate(129.909 14.904)" opacity="0.4">
          <path id="Path_7070" data-name="Path 7070" d="M388.8,101.688a.675.675,0,0,1-.211-.032L379.766,98.8a.69.69,0,1,1,.422-1.313l8.821,2.852a.689.689,0,0,1-.211,1.345Z" transform="translate(-379.287 -97.457)" fill="#fff"/>
        </g>
      </g>
      <g id="Character_2" data-name="Character 2" transform="translate(71.232 48.683)">
        <path id="Path_7071" data-name="Path 7071" d="M169.119,192.279a.689.689,0,0,1-.689-.689c0-21.922,6.369-24.8,7.563-25.15l20.25-14.166.046-.028,77.8-46.13a.689.689,0,1,1,.7,1.185l-77.76,46.117-20.347,14.235a.661.661,0,0,1-.289.115c-.051,0-6.585,1.612-6.585,23.837a.689.689,0,0,1-.689.675Z" transform="translate(-162.32 -106.02)" fill="#263238"/>
        <g id="Group_2344" data-name="Group 2344" transform="translate(6.11)" opacity="0.4">
          <path id="Path_7072" data-name="Path 7072" d="M169.119,192.279a.689.689,0,0,1-.689-.689c0-21.922,6.369-24.8,7.563-25.15l20.25-14.166.046-.028,77.8-46.13a.689.689,0,1,1,.7,1.185l-77.76,46.117-20.347,14.235a.661.661,0,0,1-.289.115c-.051,0-6.585,1.612-6.585,23.837a.689.689,0,0,1-.689.675Z" transform="translate(-168.43 -106.02)" fill="#fff"/>
        </g>
        <path id="Path_7073" data-name="Path 7073" d="M170.417,238.543a27.087,27.087,0,0,1-6.231,2.989,3.866,3.866,0,0,1-2.062.115c-2-.634-.813-4.509.381-6.957.193-.4.386-.758.565-1.061l3.5,2.163s-2.121,3.026-1.878,3.214,3.513-1.635,3.674-1.694A14.274,14.274,0,0,1,170.417,238.543Z" transform="translate(-158.328 -175.032)" fill="#dc2626"/>
        <path id="Path_7074" data-name="Path 7074" d="M172.132,238.543a27.087,27.087,0,0,1-6.231,2.989,42.86,42.86,0,0,1-1.681-6.842c.193-.4.386-.758.565-1.061l3.5,2.163s-2.121,3.026-1.878,3.214,3.513-1.635,3.674-1.694A14.274,14.274,0,0,1,172.132,238.543Z" transform="translate(-160.044 -175.032)" opacity="0.2"/>
        <path id="Path_7075" data-name="Path 7075" d="M219,210.811l2.076-1.837a7.025,7.025,0,0,1,.68-1.515,34.483,34.483,0,0,1,4-.459,8.331,8.331,0,0,1-.225,2.521c-.3.519-3.384.739-3.384.739l-1.653,1.593Z" transform="translate(-189.669 -160.631)" fill="#eec1bb"/>
        <path id="Path_7076" data-name="Path 7076" d="M217.3,286.586c-.592,8.523-2.177,20.618-2.177,20.618l-2.039.459a105.688,105.688,0,0,1-1.584-19.52,44.961,44.961,0,0,1,.579-6.112s-7.062-2.714-11.967-5.143c-2.342-1.157-4.192-2.255-4.546-2.962-1.093-2.181,3.876-7.306,3.876-7.306.156.124,3.155,2.034,6.645,4.3,4.633,3,10.13,6.631,11.021,7.535C217.638,278.972,217.592,282.334,217.3,286.586Z" transform="translate(-176.91 -192.874)" fill="#eec1bb"/>
        <path id="Path_7077" data-name="Path 7077" d="M222.838,291.637a34.507,34.507,0,0,1-5.8,1.547,44.959,44.959,0,0,1,.579-6.112s-7.062-2.714-11.967-5.143l5.969-5.97c4.633,3,10.13,6.631,11.021,7.535C223.177,284.023,223.131,287.385,222.838,291.637Z" transform="translate(-182.449 -197.925)" opacity="0.2"/>
        <path id="Path_7078" data-name="Path 7078" d="M208.46,263.52s19.594,11.264,22.257,13.808,18.037,26.316,18.037,26.316l-1.295,1.235s-12.766-10.961-17.858-21.394l-21.123-10.208Z" transform="translate(-183.969 -191.197)" fill="#eec1bb"/>
        <path id="Path_7079" data-name="Path 7079" d="M172.718,206.443a.548.548,0,0,0,.1.055,4.133,4.133,0,0,0,1.561.51c1.6.142,2.627-.216,3.214-1.015h0c.817-1.185.8-3.081.349-5.3a8.477,8.477,0,0,0-.859-2.553s0-.032,0-.037l-.055-.092a3.077,3.077,0,0,0-2.512-1.552,6.136,6.136,0,0,0-1.345.037C168.81,197.057,169.044,204.413,172.718,206.443Z" transform="translate(-163.132 -154.917)" fill="#eec1bb"/>
        <path id="Path_7080" data-name="Path 7080" d="M176.26,217.62a4.091,4.091,0,0,0,1.557.459A3.319,3.319,0,0,0,181.031,217a4.376,4.376,0,0,1-2.806.161,2.3,2.3,0,0,0-1.965.459Z" transform="translate(-166.555 -166.039)" opacity="0.2"/>
        <path id="Path_7081" data-name="Path 7081" d="M175.279,220.346c-.381,1.226,1.194,1.883,1.194,1.883,2.755-.918,3.375-2.268,3.375-2.268-2.112-1.35-1.185-4.56-1.185-4.56l-.459.184-3.214.335s.73,1.763.813,2.158h0C176.207,220.148,175.279,220.346,175.279,220.346Z" transform="translate(-165.868 -165.173)" fill="#ebb376"/>
        <path id="Path_7082" data-name="Path 7082" d="M174.305,196.931a4.642,4.642,0,0,1-2.053,4.757s-.8,3.361-2.636,3.674c-2.5.413-5.2-2.847-4.844-6.6C165.241,193.887,172.321,192.509,174.305,196.931Z" transform="translate(-160.325 -153.74)" fill="#263238"/>
        <path id="Path_7083" data-name="Path 7083" d="M181.869,206.836c-.069-.482-.565-1.231-1.295-1.019s-.918,2.181,1.038,2.342C181.91,208.177,182.03,207.833,181.869,206.836Z" transform="translate(-168.61 -159.971)" fill="#ebb376"/>
        <path id="Path_7084" data-name="Path 7084" d="M291.753,345.936l-2.112,1.63a.248.248,0,0,0-.069.3l1.075,2.3a.409.409,0,0,0,.546.193l.078-.05c.854-.68.882-.785,1.97-1.621.666-.519,2.755-2,3.674-2.714s.34-1.717-.1-1.511a11.4,11.4,0,0,1-4.592,1.341A.693.693,0,0,0,291.753,345.936Z" transform="translate(-227.822 -234.954)" fill="#263238"/>
        <path id="Path_7085" data-name="Path 7085" d="M295.252,346.181a.074.074,0,0,1-.073,0,.064.064,0,0,1,0-.069c.041-.11.418-1.1.758-1.157a.2.2,0,0,1,.2.073.4.4,0,0,1,.106.367.854.854,0,0,1-.335.436A3.4,3.4,0,0,1,295.252,346.181Zm.1-.188a1.336,1.336,0,0,0,.753-.643.266.266,0,0,0-.073-.243c-.037-.041-.069-.046-.083-.037a.147.147,0,0,0-.078.041A2.71,2.71,0,0,0,295.348,345.992Z" transform="translate(-230.861 -235.235)" fill="#dc2626"/>
        <path id="Path_7086" data-name="Path 7086" d="M294.827,346a.073.073,0,0,1-.06-.028c0-.032-.459-.707-.363-1.111a.367.367,0,0,1,.17-.239.216.216,0,0,1,.275,0c.225.2.156,1.019.023,1.318h-.023A.083.083,0,0,1,294.827,346Zm-.308-1.13a1.58,1.58,0,0,0,.271.891,1.529,1.529,0,0,0-.046-1.052.083.083,0,0,0-.115,0l-.028.023A.239.239,0,0,0,294.519,344.869Z" transform="translate(-230.441 -235.031)" fill="#dc2626"/>
        <path id="Path_7087" data-name="Path 7087" d="M235.113,352l-2.668.055a.243.243,0,0,0-.23.2l-.5,2.5a.409.409,0,0,0,.326.459h.092c1.088-.041,1.176-.11,2.549-.138h4.56c1.166,0,1.295-1.176.817-1.272a10.964,10.964,0,0,1-4.473-1.639A.689.689,0,0,0,235.113,352Z" transform="translate(-196.543 -239.047)" fill="#263238"/>
        <path id="Path_7088" data-name="Path 7088" d="M239.578,351.951a.06.06,0,0,1-.051-.055.055.055,0,0,1,.028-.064c.1-.064.983-.634,1.295-.482a.193.193,0,0,1,.119.179.4.4,0,0,1-.133.358.812.812,0,0,1-.533.151,3.212,3.212,0,0,1-.726-.087Zm.188-.1a1.336,1.336,0,0,0,.987-.069.271.271,0,0,0,.083-.239c0-.051-.028-.078-.041-.078a.147.147,0,0,0-.087,0A2.714,2.714,0,0,0,239.766,351.855Z" transform="translate(-200.769 -238.682)" fill="#dc2626"/>
        <path id="Path_7089" data-name="Path 7089" d="M239.562,351.236a.069.069,0,0,1-.032-.06c0-.037.05-.836.367-1.107a.372.372,0,0,1,.28-.092.22.22,0,0,1,.216.17c.06.294-.459.918-.767,1.079h-.032Zm.422-1.088a1.575,1.575,0,0,0-.312.872c.285-.22.629-.689.588-.868,0,0,0-.069-.1-.064h-.032a.221.221,0,0,0-.147.06Z" transform="translate(-200.772 -237.954)" fill="#dc2626"/>
        <path id="Path_7090" data-name="Path 7090" d="M184.653,236.357l-9.721,4.082c-4.018-9.987-9.482-14.791-9.482-14.791,3.894-4.67,11.085-6.819,11.085-6.819a12.779,12.779,0,0,1,2.714,3.049,27.326,27.326,0,0,1,2.112,3.944A55.563,55.563,0,0,1,184.653,236.357Z" transform="translate(-160.709 -167.028)" fill="#dc2626"/>
        <path id="Path_7091" data-name="Path 7091" d="M169.013,197.486s3.054-3.113.129-5.161-5.827.689-5.827.689-6.948,1.745-5.423,6.36,2.5,5,.317,7.4-4.4,5.933-2.126,8.155,10.13-.156,12.485-3.573S166.635,200.7,169.013,197.486Z" transform="translate(-155.125 -152.283)" fill="#263238"/>
        <path id="Path_7092" data-name="Path 7092" d="M193.291,250.43l-10.561,3.623s2.337,11.5,4.032,13.422,13.023,10.832,14.625,10.134,12.233-10.134,12.233-10.134l-17.987-12.329Z" transform="translate(-170.054 -184.118)" fill="#303f46"/>
        <path id="Path_7093" data-name="Path 7093" d="M201.866,252.95l2.245-.744-.556-1.116-2.126.748Z" transform="translate(-180.167 -184.475)"/>
        <path id="Path_7094" data-name="Path 7094" d="M185.051,257.54l-2.3.808.308.978,2.25-.744Z" transform="translate(-170.065 -187.963)"/>
        <path id="Path_7095" data-name="Path 7095" d="M189.013,255.993l5.524-1.832-.413-1.111-5.414,1.906Z" transform="translate(-173.288 -185.535)"/>
        <path id="Path_7096" data-name="Path 7096" d="M195.822,229.354c-2.324-.271-3.632-3.765-3.632-3.765a12.709,12.709,0,0,1,1.52-.179A27.327,27.327,0,0,1,195.822,229.354Z" transform="translate(-175.17 -170.587)" opacity="0.2"/>
        <path id="Path_7097" data-name="Path 7097" d="M189.426,215.622c2.526-.377,8.174,1.671,8.665,1.644s5.969-4.326,5.969-4.326l1.424,1.254s-5.74,5.919-6.92,5.969-7.347-.395-7.347-.395a2.959,2.959,0,0,1-1.8-1.9,4.757,4.757,0,0,1,.009-2.245Z" transform="translate(-173.6 -163.843)" fill="#dc2626"/>
      </g>
    </g>
  </g>
</svg>
