<svg xmlns="http://www.w3.org/2000/svg" width="570" height="370.074" viewBox="0 0 570 370.074">
  <g id="Layer_2" data-name="Layer 2" transform="translate(0 -0.031)">
    <g id="_Layer_" data-name="&lt;Layer&gt;" transform="translate(0 0.031)">
      <path id="Path_10175" data-name="Path 10175" d="M839.35,586.588s65.485-174.059,108.686-153.161-67.9,106.167-85.458,157.486Z" transform="translate(-515.532 -265.155)" fill="#d5d6da"/>
      <path id="Path_10176" data-name="Path 10176" d="M896.57,561.66s114.9-163.821,163.821-126.815-104.4,90.438-136.151,139.33Z" transform="translate(-550.677 -263.753)" fill="#eaeaea"/>
      <path id="Path_10177" data-name="Path 10177" d="M934.489,608.2c21.354-34.193,55.3-63.151,80.01-81.4a454.619,454.619,0,0,1,49-31.782l-.683-1.474a453.669,453.669,0,0,0-49.2,31.9C988.789,543.79,954.689,572.89,933.2,607.3Z" transform="translate(-573.175 -303.146)" fill="#fff"/>
      <path id="Path_10178" data-name="Path 10178" d="M1143.495,608.74c-20.864,7.43-13.858,41.824-38.834,38.171-21.126-3.086-23.063-4.95-29.552,2.253a36.461,36.461,0,0,0-5.571,8.337c-1.794,3.642-5.4,9.124-11.543,11.022-37.472,11.609-95.724-43.182-59.208-81.276,2.635-2.751,6.732-4.163,11.289-5.478,24.733-7.118,33.8,4.41,50.446-29.78s48.082,8.487,64.787,4.915,31.03-10.706,46.083,7.022S1164.358,601.321,1143.495,608.74Z" transform="translate(-606.351 -330.844)" fill="#d5d6da"/>
      <g id="Group_2848" data-name="Group 2848" transform="translate(408.064 210.069)" opacity="0.5">
        <path id="Path_10179" data-name="Path 10179" d="M1058.65,678.49l-.93-1.188c.486-.444,50.076-44.332,160.545-59.852l.189,1.543C1108.4,634.456,1059.136,678.055,1058.65,678.49Z" transform="translate(-1057.72 -589.321)" fill="#fff"/>
        <path id="Path_10180" data-name="Path 10180" d="M1195.3,596.966c-16.01-12.473-19.695-23.414-19.845-23.873l1.366-.513c.035.108,3.727,10.972,19.328,23.125Z" transform="translate(-1130.03 -561.762)" fill="#68a1bf"/>
        <path id="Path_10181" data-name="Path 10181" d="M1230.929,596.144c-4.876-7.33-5.6-18.58-2.095-32.58a108.6,108.6,0,0,1,6.778-19.024l1.277.725c-.162.328-16,33.151-4.784,49.972Z" transform="translate(-1161.478 -544.54)" fill="#68a1bf"/>
      </g>
      <path id="Path_10182" data-name="Path 10182" d="M1170.206,403.716c2.461-3.831,4.672-3.858,6.5-2.512s2.573,3.6.116,7.434c-4.483,6.983-9.957,7.9-9.957,7.9S1165.672,410.8,1170.206,403.716Z" transform="translate(-716.606 -245.937)" fill="#eaeaea"/>
      <path id="Path_10183" data-name="Path 10183" d="M501.111,483.281s2.11-81.337-18.41-81.121,9.8,54.837,8.487,78.494Z" transform="translate(-292.087 -247.019)" fill="#d5d6da"/>
      <path id="Path_10184" data-name="Path 10184" d="M434.466,466.151s-26.068-109.6-58.255-101.958,35.227,69.868,41.72,101.989Z" transform="translate(-225.751 -223.466)" fill="#eaeaea"/>
      <path id="Path_10185" data-name="Path 10185" d="M448.2,489.747c-4.1-22.272-15.648-44.752-24.606-59.7a275.309,275.309,0,0,0-18.645-27.392l.637-.594a273.235,273.235,0,0,1,18.719,27.476c9,15.011,20.59,37.607,24.726,60.018Z" transform="translate(-248.722 -246.959)" fill="#fff"/>
      <path id="Path_10186" data-name="Path 10186" d="M177.422,509.616c-12.8-1.424-2.878,2.6-18.248,1.67-3.26,6.667-21.419-.386-27.091-10.343-7.23-12.708-7.226-9.788-29.131-7.612-15.717,1.543-16.389-13.295-22.133-24.513-.1-.208-.208-.409-.316-.613-2.23-4.163-5.231-7.766-10.062-9.741a62.15,62.15,0,0,1-14.753-8.58q-.556-.432-1.1-.891c-8.808-7.33-14.39-16.825-10.285-25.76.093-.212.2-.424.3-.633a19.583,19.583,0,0,1,3.086-4.352c13.754-14.838,25.987-8.013,40.424-4.244,7.986,2.087,20.389-7.951,32.137-12.2l.505-.181c9.317-3.237,18.175-2.65,24.02,10.741h0l.355.806c13.1,29.513,21.454,20.061,42.573,27.222,3.927,1.335,7.45,2.735,9.645,5.243C217.9,469.023,200.7,497.236,177.422,509.616Z" transform="translate(-26.367 -245.686)" fill="#eaeaea"/>
      <path id="Path_10187" data-name="Path 10187" d="M183.424,518.266l.853-1c-.409-.386-42.09-40.7-137.856-58.757l-.22,1.346C141.607,477.835,183.015,517.865,183.424,518.266Z" transform="translate(-28.376 -281.631)" fill="#fff"/>
      <path id="Path_10188" data-name="Path 10188" d="M260.334,451.965c14.4-10.22,18-19.606,18.132-20l-1.157-.505c-.035.093-3.638,9.413-17.669,19.371Z" transform="translate(-159.472 -265.016)" fill="#fff"/>
      <path id="Path_10189" data-name="Path 10189" d="M245.038,449.294c4.51-6.173,5.54-15.972,2.978-28.321a95.1,95.1,0,0,0-5.239-16.863l-1.157.579c.127.293,12.774,29.564,2.407,43.769Z" transform="translate(-148.404 -248.218)" fill="#fff"/>
      <path id="Path_10190" data-name="Path 10190" d="M252.482,311.879c-2.674-4.359-2.184-6.559-.594-7.7s3.665-.745,6.339,3.615c4.865,7.94,4.352,13.827,4.352,13.827S257.42,319.946,252.482,311.879Z" transform="translate(-153.911 -186.507)" fill="#d5d6da"/>
      <path id="Path_10191" data-name="Path 10191" d="M233.767,353.292c-4.757-1.018-5.872-2.947-5.5-4.957s2.087-3.333,6.844-2.315c8.669,1.856,12.187,6.389,12.187,6.389S242.559,355.179,233.767,353.292Z" transform="translate(-140.161 -212.323)" fill="#d5d6da"/>
      <ellipse id="Ellipse_391" data-name="Ellipse 391" cx="280.458" cy="36.357" rx="280.458" ry="36.357" transform="translate(0 297.36)" fill="#eaeaea"/>
      <path id="Path_10192" data-name="Path 10192" d="M374.693,148.5s187.755,72.263,245.972,121.086c69.964,58.676-118.053,53.722-121.275,72.858S692.2,396.54,692.2,396.54c-9.047,28.4-141.247,42.013-241.477,21.6-38.653-7.882-89.914-31.558-86.225-73.756,6.022-68.93,133.046-47.264,129.029-72.074S365.06,163.982,365.06,163.982Z" transform="translate(-223.762 -91.221)" fill="#a5aaac"/>
      <path id="Path_10193" data-name="Path 10193" d="M336.665,98.545C322.109,88.02,268.7,76.5,267.893,82.781s26.755,65.381,34.016,63.548,11.443-30.3,11.443-30.3S344.523,104.228,336.665,98.545Z" transform="translate(-164.53 -49.761)" fill="#a5aaac"/>
      <path id="Path_10194" data-name="Path 10194" d="M1149.345,672.729c.876,1.065,2.161,3.592,3.017,4.676.386.471,1.512,2.145,1.157,2.608-.332.386-1.817-.455-2.481-.957.386,4.062-.718,10.181-2.091,1.724h0c.069.872.44,5.706-.656,5.347-.968-.32-1.366-3.769-1.489-5.2h-.039c0,1.466-.046,5.015-.875,4.371-1.046-.772-1.543-4.556-1.543-4.556s.567,4.83-.741,4.086c-.733-.424-.795-3.225-.806-4.973h0v-.926a2.593,2.593,0,0,1,.042-.54,22.634,22.634,0,0,1,.69-4.772,2.923,2.923,0,0,1,2.616-2.508A4.338,4.338,0,0,1,1149.345,672.729Z" transform="translate(-701.911 -412.205)" fill="#ff7955"/>
      <path id="Path_10195" data-name="Path 10195" d="M1150.613,599.86c8.21-5.787.281-25.779,3.692-38.194a35.855,35.855,0,0,1,1.813-5.559c.552-1.289-.93-3.8-2.967-4.83-1.929-.972-6.493-.332-6.856.32-5.525,9.927-8.179,26.107-5.424,46.917C1140.871,598.537,1147.09,602.368,1150.613,599.86Z" transform="translate(-700.053 -338.303)" fill="#dc2626"/>
      <path id="Path_10196" data-name="Path 10196" d="M1189.537,868.06s-.069,2.994-1.952,3.858-7.33,1.6-5.3,3.53c1.157,1.107,6.678.386,8.237.386s3.017.729,4.17-.386c1.273-1.231,0-7.369,0-7.369a5.879,5.879,0,0,1-2.55.718A4.752,4.752,0,0,1,1189.537,868.06Z" transform="translate(-725.891 -533.178)" fill="#263238"/>
      <path id="Path_10197" data-name="Path 10197" d="M1159.684,633.79s-.386,13.5,3.63,39.444c2.894,18.719,6.308,37.577,7.982,46.62a6.721,6.721,0,0,0,6.119,5.729l1.613.069c3.237.139,5.864-2.855,5.629-6.412l-4.066-61.176-1-20.135Z" transform="translate(-712.277 -389.288)" fill="#303f46"/>
      <path id="Path_10198" data-name="Path 10198" d="M1255.41,863.3s1.084,2.758-.309,4.363-6.073,4.718-3.472,5.567c1.489.49,6.238-2.6,7.658-3.295s3.025-.671,3.65-2.2c.691-1.69-2.816-6.721-2.816-6.721a6.393,6.393,0,0,1-2.049,1.786A4.647,4.647,0,0,1,1255.41,863.3Z" transform="translate(-768.281 -528.848)" fill="#263238"/>
      <path id="Path_10199" data-name="Path 10199" d="M1202.82,637.05s.656,13.5,6.62,38.989c4.306,18.4,9.143,36.9,11.5,45.759a6.633,6.633,0,0,0,6.558,5.17l1.609-.073c3.237-.143,5.629-3.36,5.119-6.886l-8.723-60.6-2.531-19.977Z" transform="translate(-738.777 -391.291)" fill="#303f46"/>
      <path id="Path_10200" data-name="Path 10200" d="M1197.547,665.675c-.039,1.628-9.2,2.276-20.524,1.9s-20.382-2.068-20.343-3.7,9.155-2.589,20.482-2.207S1197.586,664.059,1197.547,665.675Z" transform="translate(-710.438 -406.359)" fill="#263238"/>
      <path id="Path_10201" data-name="Path 10201" d="M1194.773,538.783s-2-8.545-16.782-8.634c-21.311-.123-19.336,20.956-21.311,53,0,0,20.984-2.793,40.867,1.8C1197.547,584.948,1199.4,551.842,1194.773,538.783Z" transform="translate(-710.438 -325.631)" fill="#dc2626"/>
      <path id="Path_10202" data-name="Path 10202" d="M1200.229,537.436l-9.645,5.752s-21.134,2.064-26.744,1.069a9.194,9.194,0,0,1-7.16-5.413,30.3,30.3,0,0,1,16.134-8.433,28.577,28.577,0,0,1,2.971-.386,27.1,27.1,0,0,1,5.131.112C1193.79,531.7,1200.229,537.436,1200.229,537.436Z" transform="translate(-710.438 -325.511)" fill="#dc2626"/>
      <path id="Path_10203" data-name="Path 10203" d="M1161.31,668.763s12.272-3.889,37.692,1.451l.193,3.935-37.26,1.42Z" transform="translate(-713.281 -409.929)" fill="#303f46"/>
      <path id="Path_10204" data-name="Path 10204" d="M1258.869,596.76c-.891-10.528-7.242-38.634-8.1-40.123-.679-1.215.536-3.881,2.454-5.154,1.8-1.2,4.124-2.7,4.664-2.226,7.6,6.9,13.31,32.982,11.25,46.944Z" transform="translate(-768.11 -337.313)" fill="#dc2626"/>
      <path id="Path_10205" data-name="Path 10205" d="M1203.264,483.54a8.909,8.909,0,0,0-1.5,3.237c-.49,1.987,3.268-1.52,3.268-1.52Z" transform="translate(-738.099 -297.004)" fill="#5c305d"/>
      <path id="Path_10206" data-name="Path 10206" d="M1211.887,508.88c-1.543,2.025-4.275,1.74-6.423.721-1.729-.822-1.482-.806-1.242-1.107.586-.737,1.069-.918,1.1-1.767l.042-1.115v-.139l.054-1.454.1-2.508.247-6.6,1.929,6.636.324,1.127,1.115,3.877C1209.479,507.8,1211.875,508.876,1211.887,508.88Z" transform="translate(-739.534 -303.988)" fill="#ff7955"/>
      <path id="Path_10207" data-name="Path 10207" d="M1210.39,517.73a4.54,4.54,0,0,1-2.94,1.9v-.139l.054-1.454Z" transform="translate(-741.621 -318.004)" fill="#263238"/>
      <ellipse id="Ellipse_392" data-name="Ellipse 392" cx="6.983" cy="5.575" rx="6.983" ry="5.575" transform="translate(459.717 197.418) rotate(-64.88)" fill="#ff7955"/>
      <path id="Path_10208" data-name="Path 10208" d="M1209.644,499.038a.127.127,0,0,1-.035-.1.108.108,0,0,1,.116-.108,1.2,1.2,0,0,1,1.157.984.112.112,0,1,1-.212.073,1.893,1.893,0,0,0-.957-.818A.147.147,0,0,1,1209.644,499.038Z" transform="translate(-742.947 -306.395)" fill="#263238"/>
      <path id="Path_10209" data-name="Path 10209" d="M1202.7,495.18a.085.085,0,0,1-.039-.077.135.135,0,0,1,.089-.139.772.772,0,0,1,1.03.521.146.146,0,0,1-.046.158.081.081,0,0,1-.123-.023,1.124,1.124,0,0,0-.857-.432A.065.065,0,0,1,1202.7,495.18Z" transform="translate(-738.678 -303.987)" fill="#263238"/>
      <path id="Path_10210" data-name="Path 10210" d="M1206.1,533.116s-2.6-.864-3.287-.193-.181,3.742,1.015,4.012S1207.281,533.857,1206.1,533.116Z" transform="translate(-738.582 -327.179)" fill="#e75549"/>
      <path id="Path_10211" data-name="Path 10211" d="M1207.533,527.39s3.387-1.289,4.047-2.577,4.17,1.69,4.109,2.577-6.381,5.826-6.794,5.2S1206.7,528.216,1207.533,527.39Z" transform="translate(-741.538 -322.158)" fill="#e75549"/>
      <path id="Path_10212" data-name="Path 10212" d="M1200.958,527.715a4.184,4.184,0,0,1-.262-2.087s.158-.648-.359-.6a10.934,10.934,0,0,0-3.573,2.8c-.251.644-.289,3.669.621,3.893s3.086-3.029,3.357-3.349a.942.942,0,0,0,.216-.656Z" transform="translate(-734.963 -322.484)" fill="#e75549"/>
      <path id="Path_10213" data-name="Path 10213" d="M1190.732,540.66s-8.931,24.922-8.337,35.37c0,0,.633,6.1,4.63,9.386,0,0,5.4-3.823,6.146-9.386.6-4.572-2.049-31.057-.521-34.722Z" transform="translate(-726.214 -332.087)" fill="#e75549"/>
      <path id="Path_10214" data-name="Path 10214" d="M1204,541.075h-.023c-.772,0-1.219-1.671-1.234-1.744l.123-.031s.421,1.636,1.115,1.647h0a2.181,2.181,0,0,0,1.343-.714l.1.085A2.153,2.153,0,0,1,1204,541.075Z" transform="translate(-738.728 -331.252)" fill="#131f2d"/>
      <path id="Path_10215" data-name="Path 10215" d="M1207.646,483.522a5.078,5.078,0,0,1-4.753.1s-.251-.289.335-.351,1.6-.556,1.543-.907-3.26,1.424-5.185.2c0,0-2.7-1.593-.286-2.5,1.508-.563,2.535-5.447,9.329-2.284.991.463,3.013,1.725,3.04,3.75,0,0,2.666,1.327,1.609,5.015a6.646,6.646,0,0,1-6.832,5.1s3.113-3.777,1.655-3.858c-1.867-.1-2.245-1.478-1.157-2.064S1209.113,483.391,1207.646,483.522Z" transform="translate(-735.999 -292.82)" fill="#263238"/>
      <path id="Path_10216" data-name="Path 10216" d="M1221.557,507.626a1.157,1.157,0,0,1-1.292-1.011,1.188,1.188,0,0,1,1.076-1.269,1.158,1.158,0,0,1,1.292,1.011A1.188,1.188,0,0,1,1221.557,507.626Z" transform="translate(-749.49 -310.392)" fill="#ff7955"/>
      <path id="Path_10217" data-name="Path 10217" d="M1235.334,489.82a.131.131,0,0,1-.123-.093,2.315,2.315,0,0,0-1.609-1.462.131.131,0,0,1-.1-.154.127.127,0,0,1,.154-.1,2.557,2.557,0,0,1,1.8,1.64.127.127,0,0,1-.085.158Z" transform="translate(-757.622 -299.75)" fill="#263238"/>
      <path id="Path_10218" data-name="Path 10218" d="M1232.823,483.578a.116.116,0,0,1-.069-.023.127.127,0,0,1-.039-.177c0-.023.355-.6-.386-1.389a.128.128,0,0,1,0-.181.124.124,0,0,1,.181,0c.856.941.409,1.67.386,1.7A.132.132,0,0,1,1232.823,483.578Z" transform="translate(-756.879 -295.915)" fill="#263238"/>
      <ellipse id="Ellipse_393" data-name="Ellipse 393" cx="5.15" cy="2.762" rx="5.15" ry="2.762" transform="translate(490.59 256.709) rotate(-3.63)" fill="#263238"/>
      <path id="Path_10219" data-name="Path 10219" d="M1155.989,608.728c0-.228-1.732-22.9,4.379-36.948l.235.1c-6.084,13.985-4.363,36.6-4.363,36.824Z" transform="translate(-709.874 -351.201)" fill="#131f2d"/>
      <path id="Path_10220" data-name="Path 10220" d="M1255.321,595.245a40.123,40.123,0,0,0-4.98-12.153l.216-.143a40.442,40.442,0,0,1,5.015,12.237Z" transform="translate(-767.964 -358.062)" fill="#131f2d"/>
      <path id="Path_10221" data-name="Path 10221" d="M1201.742,498.463a.445.445,0,0,0,.15.548c.151.062.359-.085.436-.324a.428.428,0,0,0-.151-.548C1202.016,498.077,1201.823,498.235,1201.742,498.463Z" transform="translate(-738.096 -305.962)" fill="#263238"/>
      <path id="Path_10222" data-name="Path 10222" d="M1208.329,502.233a.436.436,0,0,0,.151.544c.15.058.359-.081.436-.324a.438.438,0,0,0-.15-.544C1208.615,501.851,1208.406,501.99,1208.329,502.233Z" transform="translate(-742.141 -308.278)" fill="#263238"/>
      <path id="Path_10223" data-name="Path 10223" d="M1203.45,692.347c0-.054-1.069-5.258-2.076-9.379a7.321,7.321,0,0,0-4.884-5.093l.1-.386a7.759,7.759,0,0,1,5.166,5.378c1.007,4.124,2.068,9.34,2.079,9.394Z" transform="translate(-734.889 -416.129)" fill="#020202"/>
      <path id="Path_10224" data-name="Path 10224" d="M1274.687,701.854l-1.6-.031.127-6.782a3.584,3.584,0,0,1,2.863-3.449l5.015-.9a3.383,3.383,0,0,1,3.623,1.883v.027l3.206,7.045-1.454.664-3.2-7.029a1.8,1.8,0,0,0-1.906-1.015l-5.015.9a1.979,1.979,0,0,0-1.543,1.929Z" transform="translate(-781.937 -424.209)" fill="#131f2d"/>
      <path id="Path_10225" data-name="Path 10225" d="M1252.625,733.008l23.622-1.806a3.179,3.179,0,0,0,2.816-3.445l-1.073-18.021a3.1,3.1,0,0,0-3.472-3.009l-28.31,4.282a3.277,3.277,0,0,0-2.4,4.414l5.764,15.544A3.029,3.029,0,0,0,1252.625,733.008Z" transform="translate(-763.821 -434.067)" fill="#b05638"/>
      <path id="Path_10226" data-name="Path 10226" d="M1263.412,731.672l-.062-.012-16.89-3.3.069-.363,16.832,3.287,16.508-7.886.158.336Z" transform="translate(-765.581 -444.327)" fill="#131f2d"/>
      <path id="Path_10227" data-name="Path 10227" d="M1288.145,743.7h0a1.053,1.053,0,0,0,.814-1.215l-.158-1a1,1,0,0,0-1.157-.868h0a1.053,1.053,0,0,0-.81,1.215l.158,1.007a1,1,0,0,0,1.153.864Z" transform="translate(-790.368 -454.894)" fill="#131f2d"/>
      <path id="Path_10228" data-name="Path 10228" d="M1268.563,679.964a33.9,33.9,0,0,0,1.192-3.272,22.222,22.222,0,0,1,.972-2.546,4.113,4.113,0,0,1,3.754-1.786c2.531.019,2.843,1.111,2.843,1.111a23.869,23.869,0,0,1,1.882,4.9,2.549,2.549,0,0,1,.174.563c.3,1.489.984,3.545.139,4.332-.922.864-1.5-.621-1.728-1.435a3.809,3.809,0,0,1-.336,2.99c-.679.81-1.543-1.478-1.894-2.666h0c.251,1.065.606,3.129-.3,3.688-1.069.664-1.891-2.508-2.11-3.233h-.077c-.625,4.518-2.315,2.234-2.674-1.242-.613.725-2,2.022-2.45,1.686C1267.421,682.668,1268.27,680.565,1268.563,679.964Z" transform="translate(-778.676 -412.978)" fill="#ff7955"/>
      <path id="Path_10229" data-name="Path 10229" d="M1202.334,507.752c-.085.316-.309.525-.5.467s-.274-.363-.189-.683.309-.525.5-.463S1202.419,507.424,1202.334,507.752Z" transform="translate(-738.036 -311.451)" fill="#fff"/>
      <path id="Path_10230" data-name="Path 10230" d="M647.782,649.92c-.737,1.269-1.667,4.132-2.38,5.4-.309.559-1.231,2.508-.772,2.92.386.355,1.813-.81,2.423-1.454.247,4.29,2.369,10.44,2.446,1.4h0c.069.914.455,6,1.543,5.424.953-.509.818-4.163.718-5.671h.039c.22,1.543.845,5.181,1.609,4.375.957-1.011.891-5.015.891-5.015s.185,5.12,1.42,4.1c.7-.575.313-3.5.046-5.312h0c-.054-.386-.1-.714-.139-.964a2.628,2.628,0,0,0-.135-.552,23.378,23.378,0,0,0-1.478-4.822,3,3,0,0,0-3.113-2.126C649.348,647.768,648.106,649.372,647.782,649.92Z" transform="translate(-395.857 -397.784)" fill="#ff7955"/>
      <path id="Path_10231" data-name="Path 10231" d="M640.033,573.947c-8.9-6.3.66-25.779-3.04-39.224a41.413,41.413,0,0,0-1.964-6.026c-.6-1.4,1.007-4.113,3.214-5.235,2.072-1.053,7.037-.359,7.43.347,5.991,10.76,7.924,28.429,4.942,50.983C650.615,574.792,643.849,576.647,640.033,573.947Z" transform="translate(-389.96 -321.193)" fill="#dc2626"/>
      <path id="Path_10232" data-name="Path 10232" d="M604.056,866.72s.077,3.244,2.114,4.159,7.944,1.736,5.745,3.831c-1.269,1.2-7.241.424-8.927.424s-3.268.791-4.521-.424c-1.377-1.339,0-7.99,0-7.99a6.329,6.329,0,0,0,2.762.772A5.076,5.076,0,0,0,604.056,866.72Z" transform="translate(-367.204 -532.355)" fill="#263238"/>
      <path id="Path_10233" data-name="Path 10233" d="M616.438,612.83s.405,14.66-3.935,42.746c-3.133,20.285-6.836,40.728-8.65,50.539a7.29,7.29,0,0,1-6.636,6.207l-1.744.077c-3.507.151-6.354-3.086-6.1-6.944l4.406-66.326,1.084-21.821Z" transform="translate(-361.987 -376.414)" fill="#303f46"/>
      <path id="Path_10234" data-name="Path 10234" d="M553.976,866.72s.077,3.244,2.118,4.159,7.947,1.744,5.741,3.831c-1.265,1.2-7.241.424-8.927.424s-3.268.791-4.521-.424c-1.377-1.339,0-7.99,0-7.99a6.329,6.329,0,0,0,2.762.772A5.076,5.076,0,0,0,553.976,866.72Z" transform="translate(-336.445 -532.355)" fill="#263238"/>
      <path id="Path_10235" data-name="Path 10235" d="M566.358,612.83s.409,14.66-3.935,42.746c-3.133,20.285-6.832,40.728-8.649,50.539a7.289,7.289,0,0,1-6.632,6.207l-1.744.077c-3.511.151-6.358-3.086-6.1-6.944L543.7,639.13l1.084-21.821Z" transform="translate(-331.227 -376.414)" fill="#303f46"/>
      <path id="Path_10236" data-name="Path 10236" d="M548,647.38c.042,1.767,9.969,2.469,22.245,2.056s22.087-2.242,22.044-4.008-9.919-2.8-22.195-2.392S547.965,645.613,548,647.38Z" transform="translate(-336.584 -394.912)" fill="#263238"/>
      <path id="Path_10237" data-name="Path 10237" d="M550.384,509.855s2.172-9.259,18.186-9.356c23.1-.135,20.96,22.712,23.1,57.437,0,0-22.762-3.472-44.3,1.516C547.371,559.453,545.368,524.009,550.384,509.855Z" transform="translate(-335.955 -307.42)" fill="#dc2626"/>
      <path id="Path_10238" data-name="Path 10238" d="M540.49,508.411l10.459,6.231s22.9,2.242,28.985,1.157a9.95,9.95,0,0,0,7.751-5.883,32.876,32.876,0,0,0-17.484-9.143,31.084,31.084,0,0,0-3.218-.386,29.772,29.772,0,0,0-5.567.12C547.465,502.2,540.49,508.411,540.49,508.411Z" transform="translate(-331.971 -307.304)" fill="#dc2626"/>
      <path id="Path_10239" data-name="Path 10239" d="M592.434,650.731s-13.3-4.213-40.852,1.57l-.212,4.267,40.385,1.543Z" transform="translate(-338.654 -398.784)" fill="#303f46"/>
      <path id="Path_10240" data-name="Path 10240" d="M516.986,572.072c.964-11.416,8.8-41.28,9.718-42.927.733-1.316-.583-4.205-2.658-5.586-1.952-1.292-4.471-2.944-5.054-2.411-8.237,7.473-15.32,34.783-13.086,49.914Z" transform="translate(-310.474 -320.039)" fill="#dc2626"/>
      <path id="Path_10241" data-name="Path 10241" d="M589.47,477.442c1.659,2.2,4.63,1.887,6.944.772,1.871-.891,1.6-.872,1.346-1.2-.637-.8-1.157-1-1.192-1.929l-.046-1.208v-.15l-.058-1.578-.1-2.7-.27-7.153-2.072,7.187-.351,1.223-1.2,4.205C592.078,476.273,589.485,477.439,589.47,477.442Z" transform="translate(-362.055 -283.958)" fill="#ff7955"/>
      <path id="Path_10242" data-name="Path 10242" d="M599.73,486.9a4.63,4.63,0,0,0,3.113,2.11v-.15l-.058-1.578C601.636,487.162,599.73,486.9,599.73,486.9Z" transform="translate(-368.357 -299.068)" fill="#263238"/>
      <path id="Path_10243" data-name="Path 10243" d="M616.115,550.256s-.667,6.6-5.015,10.174a19.413,19.413,0,0,1-4.676-5.015,12.2,12.2,0,0,1-1.983-5.143,40.082,40.082,0,0,1-.081-4.583c.062-1.682.166-3.684.27-5.86.189-3.819.459-8.156.648-12.245.1-2.245.185-4.425.228-6.377.085-4.155-.019-7.415-.5-8.557l2.087-.7s.9,2.492,2.13,6.289c.459,1.462.98,3.086,1.524,4.853.833,2.809,1.732,5.93,2.542,9.074.44,1.728.88,3.472,1.231,5.189a68.7,68.7,0,0,1,1.543,9.726A20.943,20.943,0,0,1,616.115,550.256Z" transform="translate(-371.181 -314.454)" fill="#e75549"/>
      <path id="Path_10244" data-name="Path 10244" d="M506.568,646.4c-.066,1.651,2.376,3.133,5.455,3.306s5.621-1.022,5.687-2.677-2.373-3.133-5.451-3.306S506.633,644.75,506.568,646.4Z" transform="translate(-311.135 -395.379)" fill="#263238"/>
      <path id="Path_10245" data-name="Path 10245" d="M655.22,585.662l-.278-.023c0-.243,1.871-24.753-4.722-39.911l.255-.108C657.079,560.84,655.239,585.415,655.22,585.662Z" transform="translate(-399.368 -335.134)" fill="#131f2d"/>
      <path id="Path_10246" data-name="Path 10246" d="M546.894,571.045l-.274-.062a43.935,43.935,0,0,1,5.436-13.264l.232.154a43.542,43.542,0,0,0-5.393,13.171Z" transform="translate(-335.736 -342.566)" fill="#131f2d"/>
      <path id="Path_10247" data-name="Path 10247" d="M609.628,450.49a9.865,9.865,0,0,1,1.2,3.7c.274,2.211-3.322-2.114-3.322-2.114Z" transform="translate(-373.135 -276.705)" fill="#263238"/>
      <ellipse id="Ellipse_394" data-name="Ellipse 394" cx="6.003" cy="7.619" rx="6.003" ry="7.619" transform="translate(224.612 175.691) rotate(-19.51)" fill="#ff7955"/>
      <path id="Path_10248" data-name="Path 10248" d="M578.992,449.811l2.612-1.327a2.222,2.222,0,0,0,1.157-1.509c.251-1.157.772-1.879,3.326-2.735,3.245-1.08,4.687-3.935,4.444-5.868a2,2,0,0,0-3.615-1.119c-1.323,1.485-1.331-.926-2.955-.571-3.028.664-2.785,3.268-5.177,4.086-3.137,1.069-7.866,5.706-3.314,10.59Z" transform="translate(-352.298 -268.078)" fill="#263238"/>
      <path id="Path_10249" data-name="Path 10249" d="M603.042,466.339a.143.143,0,0,0,.023-.112.12.12,0,0,0-.147-.093,1.35,1.35,0,0,0-1.049,1.3.131.131,0,0,0,.1.143.136.136,0,0,0,.135-.112,2.126,2.126,0,0,1,.872-1.076A.12.12,0,0,0,603.042,466.339Z" transform="translate(-369.67 -286.311)" fill="#263238"/>
      <path id="Path_10250" data-name="Path 10250" d="M604.795,470.028c.162.255.436.355.606.228a.533.533,0,0,0,0-.691c-.162-.255-.436-.359-.606-.231A.533.533,0,0,0,604.795,470.028Z" transform="translate(-371.388 -288.245)" fill="#263238"/>
      <path id="Path_10251" data-name="Path 10251" d="M612.856,460.795a.1.1,0,0,0,.031-.089.155.155,0,0,0-.116-.135.837.837,0,0,0-1.034.725.162.162,0,0,0,.073.162c.054.035.1,0,.127-.046a1.239,1.239,0,0,1,.86-.6A.073.073,0,0,0,612.856,460.795Z" transform="translate(-375.73 -282.881)" fill="#263238"/>
      <path id="Path_10252" data-name="Path 10252" d="M613.465,464.56c.093.289.332.467.529.386a.525.525,0,0,0,.181-.66c-.1-.274-.332-.467-.529-.386A.517.517,0,0,0,613.465,464.56Z" transform="translate(-376.768 -284.93)" fill="#263238"/>
      <path id="Path_10253" data-name="Path 10253" d="M578.46,469.885s3.291,3.646,6.049,2.959c0,0-3.229-2.5.636-6.234C585.146,466.61,580.763,467.478,578.46,469.885Z" transform="translate(-355.293 -286.606)" fill="#263238"/>
      <path id="Path_10254" data-name="Path 10254" d="M588.569,473.734a1.223,1.223,0,0,0,1.52-.9,1.319,1.319,0,0,0-1-1.524,1.215,1.215,0,0,0-1.52.9A1.315,1.315,0,0,0,588.569,473.734Z" transform="translate(-360.876 -289.466)" fill="#ff7955"/>
      <path id="Path_10256" data-name="Path 10256" d="M607.44,444.447l-.05-.066c.031-.023,3.086-2.4,2.608-4.344-.139-.563-.343-.887-.625-1-.436-.166-.992.212-1.481.548l-.224.154-.046-.069.224-.151c.505-.351,1.08-.745,1.543-.559.309.116.532.463.675,1.053A3.546,3.546,0,0,1,608.906,443,10.826,10.826,0,0,1,607.44,444.447Z" transform="translate(-373.061 -269.597)" fill="#fff"/>
      <path id="Path_10257" data-name="Path 10257" d="M584.17,445.135v-.081a6.027,6.027,0,0,0,4.44-3.414l.077.027A6.168,6.168,0,0,1,584.17,445.135Z" transform="translate(-358.8 -271.269)" fill="#fff"/>
      <path id="Path_10258" data-name="Path 10258" d="M519.816,651.381c1.011,1.026,2.589,3.538,3.58,4.583.432.455,1.782,2.091,1.427,2.616-.3.455-1.929-.289-2.7-.748.772,4.221.166,10.748-2.037,2.029h0c.15.9.972,5.93-.208,5.667-1.042-.231-1.771-3.808-2.029-5.289h-.039c.143,1.543.386,5.239-.525,4.668-1.157-.714-2.045-4.63-2.045-4.63s1.026,5.015-.409,4.359c-.806-.363-1.123-3.295-1.292-5.123h0c-.039-.386-.066-.721-.093-.972a2.581,2.581,0,0,1,0-.571,24.062,24.062,0,0,1,.293-5.069,3.132,3.132,0,0,1,2.515-2.9A4.62,4.62,0,0,1,519.816,651.381Z" transform="translate(-315.344 -399.218)" fill="#ff7955"/>
      <path id="Path_10259" data-name="Path 10259" d="M597.047,693.117l-.177-.035c.039-.2,3.943-20.636,4.784-23.842a5.787,5.787,0,0,1,3.989-4.02l.039.178a5.582,5.582,0,0,0-3.858,3.889C600.99,672.484,597.086,692.912,597.047,693.117Z" transform="translate(-366.6 -408.593)" fill="#131f2d"/>
      <path id="Path_10260" data-name="Path 10260" d="M606.552,521.165c.085-4.155-.019-7.415-.5-8.557l2.087-.7s.9,2.492,2.13,6.288C609.013,519.167,607.678,520.22,606.552,521.165Z" transform="translate(-372.238 -314.429)" fill="#c72032"/>
      <path id="Path_10261" data-name="Path 10261" d="M613.737,549.864c-2.94,2.45-7.091,5.976-8.657,7.662.189-3.819.459-8.156.648-12.245l5.467-4.491C612.028,543.6,612.927,546.72,613.737,549.864Z" transform="translate(-371.643 -332.167)" fill="#c72032"/>
      <path id="Path_10262" data-name="Path 10262" d="M616.029,587.516c-2.65,2.245-6.867,5.818-9.645,8.333a12.2,12.2,0,0,1-1.983-5.143,40.1,40.1,0,0,1-.081-4.583l10.158-8.333a68.721,68.721,0,0,1,1.551,9.726Z" transform="translate(-371.157 -354.893)" fill="#c72032"/>
      <path id="Path_10263" data-name="Path 10263" d="M602.477,503.714s2.816-.938,3.565-.212.2,4.055-1.1,4.352S601.2,504.516,602.477,503.714Z" transform="translate(-369.823 -309.096)" fill="#e75549"/>
      <path id="Path_10264" data-name="Path 10264" d="M593.261,497.454s-3.673-1.4-4.39-2.793-4.518,1.833-4.452,2.793,6.914,6.315,7.361,5.64S594.156,498.372,593.261,497.454Z" transform="translate(-358.952 -303.622)" fill="#e75549"/>
      <path id="Path_10265" data-name="Path 10265" d="M607.335,497.809a4.556,4.556,0,0,0,.282-2.261s-.174-.7.386-.652a11.588,11.588,0,0,1,3.858,3.036c.255.7.313,3.974-.671,4.217s-3.36-3.279-3.638-3.63a1.022,1.022,0,0,1-.216-.71Z" transform="translate(-373.026 -303.977)" fill="#e75549"/>
      <path id="Path_10266" data-name="Path 10266" d="M606.923,512.341a2.255,2.255,0,0,1-1.543-.818l.1-.093a2.38,2.38,0,0,0,1.454.772h.023c.748,0,1.2-1.767,1.207-1.782l.135.035c0,.073-.486,1.871-1.343,1.887Z" transform="translate(-371.827 -313.514)" fill="#131f2d"/>
      <path id="Path_10267" data-name="Path 10267" d="M611.89,477.252c0,.421.212.772.478.772s.475-.339.475-.772-.212-.772-.475-.772S611.89,476.831,611.89,477.252Z" transform="translate(-375.825 -292.668)" fill="#fff"/>
      <path id="Path_10268" data-name="Path 10268" d="M874.679,156.793c-5.864-11.612-28.549-26.361-35.493-25.154-1.493.262,8.3-20.258,11.609-18.167,11.427,7.23,28.414,23.148,32.607,34.768Z" transform="translate(-515.337 -69.615)" fill="#dc2626"/>
      <path id="Path_10269" data-name="Path 10269" d="M933.232,203.995c2.8-3.5,5.37-3.013,6.373-1.713s-.224,4.178-2.743,6.423-5,3.434-5.991,2.13S931.091,206.657,933.232,203.995Z" transform="translate(-571.53 -123.657)" fill="#e75549"/>
      <path id="Path_10270" data-name="Path 10270" d="M938.589,212.951c-.019,1.443.544,4.309.552,5.756,0,.625.15,2.731.725,2.82.5.077,1.119-1.647,1.323-2.508,2.2,3.41,6.813,7.33,2.674-.162h0c.482.718,3.171,4.711,3.8,3.65.548-.934-1.265-3.858-2.049-5.069l.027-.027c.891,1.138,3.109,3.819,3.364,2.743.32-1.35-1.6-4.63-1.6-4.63s2.539,4.128,3.086,2.623c.309-.849-1.37-3.052-2.431-4.41h0l-.563-.721a2.18,2.18,0,0,0-.366-.386,20.391,20.391,0,0,0-3.472-3.187,2.7,2.7,0,0,0-3.561-.073A5.148,5.148,0,0,0,938.589,212.951Z" transform="translate(-576.485 -128.218)" fill="#ffbc96"/>
      <path id="Path_10271" data-name="Path 10271" d="M795.128,429.4s1.277,3.449-.486,5.4-7.635,5.691-4.441,6.813c1.836.644,7.8-3.063,9.568-3.881s3.773-.752,4.583-2.639c.891-2.076-3.345-8.407-3.345-8.407a7.867,7.867,0,0,1-2.581,2.16A5.727,5.727,0,0,1,795.128,429.4Z" transform="translate(-484.771 -262.087)" fill="#263238"/>
      <path id="Path_10272" data-name="Path 10272" d="M922.9,469.758s.189,3.707-2.064,4.954-8.923,2.762-6.227,4.927c1.543,1.242,8.295-.224,10.22-.386s3.8.583,5.123-.926c1.458-1.659-.671-9.116-.671-9.116a7.387,7.387,0,0,1-3.086,1.157A5.788,5.788,0,0,1,922.9,469.758Z" transform="translate(-561.372 -288.202)" fill="#263238"/>
      <path id="Path_10273" data-name="Path 10273" d="M822.989,239.886s-7.565-4.34,3.522,21.014c8.005,18.3,25.038,50.925,33.533,62.156,2.064,2.735,5.112,4.734,8.742,3.885l1.952-.455c3.927-.918,6.366-4.857,5.22-8.441l-28.9-82.333s-1.806-2.315-11.875-1.157C822.846,235.966,822.989,239.886,822.989,239.886Z" transform="translate(-503.935 -143.877)" fill="#303f46"/>
      <path id="Path_10274" data-name="Path 10274" d="M768.52,239.7s-15.142,12.091-19.066,27.854c-4.46,17.9,15.069,41.766,19.729,43.595,3.04,1.2,5.459,0,8.9-6.435,2.06-3.858-7.967-25.806-4.826-33.36,3.8-9.136,22.376-16.693,22.376-16.693l-1.8-23.514A156.033,156.033,0,0,0,768.52,239.7Z" transform="translate(-459.914 -141.985)" fill="#303f46"/>
      <path id="Path_10275" data-name="Path 10275" d="M817.062,115.55s-2.7-9.714-19.676-9.043c-13.078.521-20.4,2.384-21.99,11.72-.563,3.314-1.906,15.609,5.108,48.325,0,0,23.078,10.783,44.617-1,0,0-3.283-17.461-7.18-44.3C817.621,118.988,817.745,117.255,817.062,115.55Z" transform="translate(-475.953 -65.408)" fill="#dc2626"/>
      <path id="Path_10276" data-name="Path 10276" d="M818.23,116.209c.822,3.2,6.906,26.157,40.385,17.438a10.05,10.05,0,0,1,6.258.386l5.521,2.176a1.211,1.211,0,0,1,.474,1.836l-3.314,4.448a14.872,14.872,0,0,1-8.407,5.636c-6.944,1.674-19.351,3.329-29.833-2.365-12.446-6.767-14.062-22.97-14.213-29.1a1.088,1.088,0,0,1,1.755-.961h0C817.042,115.854,818.169,115.966,818.23,116.209Z" transform="translate(-500.636 -70.932)" fill="#e75549"/>
      <path id="Path_10277" data-name="Path 10277" d="M820.591,78.292l-.91-4.63-.266-1.346-1.543-7.936-.949,7.643-.586,4.579-.177,1.454c-.123.984-.7,1.157-1.458,1.929-.3.32-2.253,2.257-.332,3.41,2.4,1.439,7.226.1,9.205-2.079C823.558,81.313,820.884,79.789,820.591,78.292Z" transform="translate(-499.675 -39.554)" fill="#ffbc96"/>
      <path id="Path_10278" data-name="Path 10278" d="M824.388,91.38a6,6,0,0,1-3.588,1.7l.266-1.871Z" transform="translate(-504.139 -56.033)" fill="#263238"/>
      <path id="Path_10279" data-name="Path 10279" d="M809.91,55.38a10.926,10.926,0,0,0-.363,4.209c.251,2.384,2.955-3.148,2.955-3.148Z" transform="translate(-497.188 -34.026)" fill="#263238"/>
      <path id="Path_10280" data-name="Path 10280" d="M808.454,57.323c.938-4.471,4.495-7.415,7.936-6.559s5.474,5.143,4.533,9.614-4.494,7.415-7.936,6.559S807.512,61.782,808.454,57.323Z" transform="translate(-496.414 -31.1)" fill="#ffbc96"/>
      <path id="Path_10281" data-name="Path 10281" d="M818.437,50.12l-3.052-.652a2.265,2.265,0,0,1-1.57-1.25c-.54-1.127-1.254-1.748-4.14-1.929-3.65-.216-5.853-2.789-6.072-4.88a2.208,2.208,0,0,1,3.507-2.187c1.744,1.181,1.157-1.343,2.948-1.431,3.326-.158,3.708,2.631,6.4,2.809,3.538.235,9.606,3.75,6.038,10.135Z" transform="translate(-493.566 -23.218)" fill="#263238"/>
      <path id="Path_10282" data-name="Path 10282" d="M823.774,69.842a.123.123,0,0,1-.1-.054.143.143,0,0,1,0-.193,1.331,1.331,0,0,1,1.717-.123.151.151,0,0,1,.046.193.139.139,0,0,1-.177.05,2.064,2.064,0,0,0-1.424.1.123.123,0,0,1-.058.031Z" transform="translate(-505.879 -42.524)" fill="#263238"/>
      <path id="Path_10283" data-name="Path 10283" d="M811.85,67.292c-.027,0-.038-.058-.027-.116a.339.339,0,0,1,.162-.228c.042,0,1.042-.575,1.157.667a.344.344,0,0,1-.112.258c-.073.066-.127.039-.15-.023a.964.964,0,0,0-.98-.559.066.066,0,0,1-.05,0Z" transform="translate(-498.622 -41.05)" fill="#263238"/>
      <path id="Path_10284" data-name="Path 10284" d="M813.349,71.686c0,.332-.162.61-.386.617s-.413-.255-.424-.586.166-.61.386-.617S813.338,71.354,813.349,71.686Z" transform="translate(-499.065 -43.681)" fill="#263238"/>
      <path id="Path_10285" data-name="Path 10285" d="M840.221,68.894s-2.55,4.734-5.6,4.8c0,0,2.766-3.526-2.18-6.335C832.44,67.355,837.228,67.027,840.221,68.894Z" transform="translate(-511.288 -41.368)" fill="#263238"/>
      <path id="Path_10286" data-name="Path 10286" d="M837.932,73.264a1.273,1.273,0,0,1-1.813-.525,1.466,1.466,0,0,1,.656-1.856,1.269,1.269,0,0,1,1.806.505,1.47,1.47,0,0,1-.648,1.875Z" transform="translate(-513.478 -43.43)" fill="#ffbc96"/>
      <path id="Path_10287" data-name="Path 10287" d="M813.857,39.514a1.188,1.188,0,0,1-.2,0l.027-.177a.8.8,0,0,0,.972-.637l.177.031A.984.984,0,0,1,813.857,39.514Z" transform="translate(-499.753 -23.781)" fill="#131f2d"/>
      <path id="Path_10288" data-name="Path 10288" d="M810.8,48.25a11.527,11.527,0,0,1-1.929-1.1c-1.262-.9-1.929-1.867-1.929-2.789a1.49,1.49,0,0,1,.459-1.3c.451-.312,1.157-.066,1.751.154l.27.093-.027.085-.27-.093c-.59-.212-1.258-.451-1.674-.162-.274.189-.413.59-.42,1.223-.023,2.164,3.742,3.785,3.781,3.8Z" transform="translate(-495.626 -26.372)" fill="#fff"/>
      <path id="Path_10289" data-name="Path 10289" d="M831.492,43.669a6.744,6.744,0,0,1-3.858-1.119,4.95,4.95,0,0,1-1.3-1.25l.077-.05a6.116,6.116,0,0,0,5.463,2.315v.093Z" transform="translate(-507.535 -25.348)" fill="#fff"/>
      <path id="Path_10290" data-name="Path 10290" d="M813.06,82a2.146,2.146,0,0,0,4.093.436A8.757,8.757,0,0,1,813.06,82Z" transform="translate(-499.385 -50.377)" fill="#fff"/>
      <path id="Path_10291" data-name="Path 10291" d="M824.9,73.759a.124.124,0,0,1-.062,0,2.7,2.7,0,0,0-1.806-.2.121.121,0,1,1-.058-.235,2.893,2.893,0,0,1,1.987.224.11.11,0,0,1-.062.208Z" transform="translate(-505.417 -44.999)" fill="#263238"/>
      <path id="Path_10292" data-name="Path 10292" d="M818.911,109.96s-3.021-.856-3.785-.05-.042,4.309,1.346,4.56S820.288,110.75,818.911,109.96Z" transform="translate(-500.463 -67.306)" fill="#e75549"/>
      <path id="Path_10293" data-name="Path 10293" d="M816.7,119.331c-.9,0-1.458-1.86-1.481-1.929l.143-.042s.552,1.833,1.339,1.833h0a2.521,2.521,0,0,0,1.543-.891l.112.093a2.638,2.638,0,0,1-1.643.945Z" transform="translate(-500.712 -72.095)" fill="#131f2d"/>
      <path id="Path_10294" data-name="Path 10294" d="M821.327,242.182a.918.918,0,0,0,1.327.293,1.084,1.084,0,0,0,.274-1.431c-.293-.478-.822-.741-1.265-.424a1.107,1.107,0,0,0-.336,1.562Z" transform="translate(-504.346 -147.717)" fill="#131f2d"/>
      <path id="Path_10295" data-name="Path 10295" d="M816.323,202.973a.938.938,0,0,0,1.258.548,1.061,1.061,0,0,0,.505-1.354c-.2-.525-.683-.887-1.157-.664a1.088,1.088,0,0,0-.606,1.47Z" transform="translate(-501.329 -123.734)" fill="#131f2d"/>
      <path id="Path_10296" data-name="Path 10296" d="M811.321,163.067a.934.934,0,0,0,1.258.544,1.061,1.061,0,0,0,.505-1.354c-.208-.525-.687-.887-1.157-.664a1.088,1.088,0,0,0-.606,1.474Z" transform="translate(-498.255 -99.221)" fill="#131f2d"/>
      <path id="Path_10297" data-name="Path 10297" d="M760.518,80.241c-8.873,0-16.74,5.363-19.162,2.971-.571-.567,2.45-19.452,2.45-19.452l-7.33.255s-14.2,24.4-6.844,32.438c9,9.857,22.21,3.858,22.21,3.858S765.074,80.237,760.518,80.241Z" transform="translate(-446.842 -39.173)" fill="#dc2626"/>
      <path id="Path_10298" data-name="Path 10298" d="M773.537,63.778l-18.005-3.545a1.809,1.809,0,0,1-1.358-2.114l.355-2.091a1.705,1.705,0,0,1,1.964-1.462L774.5,58.11a1.809,1.809,0,0,1,1.358,2.114l-.355,2.095a1.7,1.7,0,0,1-1.964,1.458Z" transform="translate(-463.195 -33.512)" fill="#131f2d"/>
      <path id="Path_10299" data-name="Path 10299" d="M744.043,57.536l-17.361-3.418a2.377,2.377,0,0,1-1.775-2.77l.772-4.676a2.23,2.23,0,0,1,2.573-1.91l17.361,3.422a2.369,2.369,0,0,1,1.779,2.766l-.779,4.687a2.222,2.222,0,0,1-2.569,1.9Z" transform="translate(-445.214 -27.487)" fill="#364154"/>
      <path id="Path_10300" data-name="Path 10300" d="M691.058,46.352,663.5,40.92a1.929,1.929,0,0,1-1.454-2.268l1.381-8.129a1.821,1.821,0,0,1,2.107-1.562l27.553,5.424a1.948,1.948,0,0,1,1.458,2.292l-1.381,8.1a1.829,1.829,0,0,1-2.106,1.574Z" transform="translate(-406.607 -17.784)" fill="#dc2626"/>
      <path id="Path_10301" data-name="Path 10301" d="M657.5,38.873l-1.366-.27a1.489,1.489,0,0,1-1.119-1.736l1.879-11.053a1.4,1.4,0,0,1,1.617-1.2l1.366.27a1.493,1.493,0,0,1,1.119,1.74l-1.879,11.053a1.4,1.4,0,0,1-1.617,1.2Z" transform="translate(-402.296 -15.116)" fill="#131f2d"/>
      <path id="Path_10302" data-name="Path 10302" d="M755.93,44.993a1.85,1.85,0,0,0-2.589.945c-.934,2.315-.027,6.2.586,4.726a14.555,14.555,0,0,0,.772-2.778s-.733,4.63.332,4.468,1.694-3.966,1.694-3.966-.336,4.448.621,3.927,1.439-3.171,1.439-3.171-.475,3.592.621,2.959.93-3.3,1.1-4.448c.162-1.084-.436-1.543-1.42-1.636a2.722,2.722,0,0,0-1.586-.586c-.251.042-.451-.243-.625-.293a5.886,5.886,0,0,0-.941-.147Z" transform="translate(-462.459 -27.516)" fill="#ffbc96"/>
      <path id="Path_10303" data-name="Path 10303" d="M826.246,297.981a.166.166,0,0,1-.15-.1,10.42,10.42,0,0,0-7.755-6.462.158.158,0,0,1-.143-.177.162.162,0,0,1,.177-.143,10.741,10.741,0,0,1,8.021,6.659.162.162,0,0,1-.089.212A.158.158,0,0,1,826.246,297.981Z" transform="translate(-502.54 -178.805)" fill="#131f2d"/>
      <path id="Path_10304" data-name="Path 10304" d="M774.8,146.716h0a.162.162,0,0,1-.158-.166c.046-6.13.436-9.88.44-9.919a.163.163,0,0,1,.324.035c0,.035-.386,3.773-.444,9.888a.158.158,0,0,1-.162.162Z" transform="translate(-475.787 -83.843)" fill="#131f2d"/>
      <path id="Path_10305" data-name="Path 10305" d="M820.361,102.953s3.835-1.659,4.537-3.175,4.869,1.725,4.838,2.747-7.689,7.083-8.19,6.393S819.45,103.967,820.361,102.953Z" transform="translate(-503.7 -61.052)" fill="#e75549"/>
      <path id="Path_10306" data-name="Path 10306" d="M812.96,103.761a4.82,4.82,0,0,1-.386-2.384s.154-.752-.436-.675a12.687,12.687,0,0,0-3.981,3.407c-.259.752-.166,4.244.891,4.437s3.422-3.638,3.7-4.02A1.081,1.081,0,0,0,812.96,103.761Z" transform="translate(-496.299 -61.859)" fill="#e75549"/>
      <path id="Path_10307" data-name="Path 10307" d="M419.412,481.946c1.2-1.8-5.015-7.917-5.015-7.917-.617-.312-8.291,10.8-19.413,9.194-3.962-.575-10.3-6.67-10.845-7.65-.073-.131-7.808,4.63-7.808,4.63.984,1.775,1.74,8.526,6.431,11.771C392.479,498.705,407.182,496.83,419.412,481.946Z" transform="translate(-231.143 -291.159)" fill="#ff7955"/>
      <path id="Path_10308" data-name="Path 10308" d="M370.166,823.53s.15,3.113,2.133,3.935,7.673,1.451,5.6,3.515c-1.188,1.185-6.944.61-8.557.656s-3.121.853-4.352-.282c-1.358-1.242-.193-7.67-.193-7.67a6.075,6.075,0,0,0,2.67.671A4.939,4.939,0,0,0,370.166,823.53Z" transform="translate(-223.776 -505.827)" fill="#263238"/>
      <path id="Path_10309" data-name="Path 10309" d="M379.044,594.556s1.015,5.818-2.481,32.916c-2.519,19.564-5.582,39.289-7.087,48.749a7.037,7.037,0,0,1-6.219,6.146l-1.674.12c-3.364.243-6.173-2.793-6.022-6.5l2.631-63.772.521-20.98Z" transform="translate(-218.383 -363.148)" fill="#303f46"/>
      <path id="Path_10310" data-name="Path 10310" d="M322.089,824.92s.15,3.117,2.133,3.939,7.673,1.451,5.606,3.515c-1.188,1.184-6.944.61-8.561.656s-3.121.849-4.352-.282c-1.354-1.246-.193-7.67-.193-7.67a6.139,6.139,0,0,0,2.674.671A4.9,4.9,0,0,0,322.089,824.92Z" transform="translate(-194.248 -506.681)" fill="#263238"/>
      <path id="Path_10311" data-name="Path 10311" d="M331.239,579.91s.741,14.051-2.751,41.149c-2.523,19.56-5.582,39.289-7.091,48.745a7.038,7.038,0,0,1-6.219,6.146l-1.671.123c-3.368.243-6.173-2.793-6.026-6.5l2.635-63.776.517-20.983Z" transform="translate(-188.853 -356.195)" fill="#303f46"/>
      <path id="Path_10312" data-name="Path 10312" d="M311.069,604.8c.085,1.694,10.416-2.006,22.183-2.743s19.641-5.015,19.56-6.713-8.7-1.053-20.478-.316S310.988,603.107,311.069,604.8Z" transform="translate(-191.06 -365.017)" fill="#131f2d"/>
      <path id="Path_10313" data-name="Path 10313" d="M298.007,478.141s.629-9.151,15.767-12.095c21.828-4.244,23.318,17.747,30.679,50.223,0,0-22.1.718-41.72,9.259C302.733,525.536,295.438,492.423,298.007,478.141Z" transform="translate(-182.7 -285.938)" fill="#dc2626"/>
      <path id="Path_10314" data-name="Path 10314" d="M283.85,477.777l10.86,4.032s22.014-1.964,27.6-4.066a9.867,9.867,0,0,0,6.424-6.944,30.672,30.672,0,0,0-17.943-5.532,29.935,29.935,0,0,0-3.106.2,28.249,28.249,0,0,0-5.247,1.1C289.5,470.656,283.85,477.777,283.85,477.777Z" transform="translate(-174.342 -285.779)" fill="#dc2626"/>
      <path id="Path_10315" data-name="Path 10315" d="M329.6,442.671l.5-4.19.147-1.219.853-7.172,1.358,6.721.81,4.047.255,1.277c.177.864.7.957,1.424,1.6.3.262,2.157,1.833.525,3.005-2.033,1.466-6.412.652-8.318-1.13C327.165,445.587,329.442,444.025,329.6,442.671Z" transform="translate(-200.937 -264.175)" fill="#ff7955"/>
      <path id="Path_10316" data-name="Path 10316" d="M353.9,599.841s-9.815-.525-39.166,8.819l-.116,4.63,38.807.351Z" transform="translate(-193.241 -368.434)" fill="#303f46"/>
      <path id="Path_10317" data-name="Path 10317" d="M283.207,496.689c-.629,1.435,1.015,3.727,3.677,5.12s5.332,1.354,5.964-.081-1.015-3.731-3.677-5.12S283.839,495.254,283.207,496.689Z" transform="translate(-173.864 -304.405)" fill="#131f2d"/>
      <path id="Path_10318" data-name="Path 10318" d="M282.431,551.288c-.845-10.972-1.265-26.8,1.543-39.93a40.973,40.973,0,0,1,1.543-5.9c.494-1.373-1.2-3.877-3.372-4.811-2.045-.876-4.884-.135-5.239.556a34.709,34.709,0,0,0-1.883,6.682c-2.7,11.736-3.086,26.311-1.2,44.66Z" transform="translate(-167.463 -307.265)" fill="#ff7955"/>
      <path id="Path_10319" data-name="Path 10319" d="M342.424,418.65a9.44,9.44,0,0,1,1.2,3.542c.285,2.118-3.21-1.995-3.21-1.995Z" transform="translate(-209.081 -257.148)" fill="#131f2d"/>
      <ellipse id="Ellipse_395" data-name="Ellipse 395" cx="5.768" cy="7.315" rx="5.768" ry="7.315" transform="matrix(0.94, -0.342, 0.342, 0.94, 121.971, 163.458)" fill="#ff7955"/>
      <path id="Path_10320" data-name="Path 10320" d="M313.184,418.118l2.5-1.3a2.141,2.141,0,0,0,1.092-1.462c.228-1.1.714-1.813,3.164-2.666,3.106-1.076,4.464-3.831,4.213-5.687a1.917,1.917,0,0,0-3.472-1.034c-1.242,1.439-1.289-.876-2.843-.513-2.9.675-2.647,3.171-4.934,3.981-3,1.065-7.5,5.575-3.086,10.212Z" transform="translate(-189.155 -248.869)" fill="#131f2d"/>
      <path id="Path_10321" data-name="Path 10321" d="M335.394,435.052a.131.131,0,0,0,.019-.108.12.12,0,0,0-.143-.089,1.312,1.312,0,0,0-.991,1.258.127.127,0,0,0,.1.139.138.138,0,0,0,.127-.108,2.064,2.064,0,0,1,.822-1.045A.108.108,0,0,0,335.394,435.052Z" transform="translate(-205.315 -267.1)" fill="#131f2d"/>
      <path id="Path_10322" data-name="Path 10322" d="M337.064,438.6c.158.243.421.34.586.212a.509.509,0,0,0,0-.664c-.162-.243-.421-.336-.586-.212a.509.509,0,0,0,0,.664Z" transform="translate(-206.951 -268.959)" fill="#131f2d"/>
      <path id="Path_10323" data-name="Path 10323" d="M345.49,429.957a.1.1,0,0,0,.039-.085.147.147,0,0,0-.1-.139.791.791,0,0,0-1.061.567.158.158,0,0,0,.054.166.077.077,0,0,0,.123-.031,1.2,1.2,0,0,1,.883-.475A.073.073,0,0,0,345.49,429.957Z" transform="translate(-211.511 -263.922)" fill="#131f2d"/>
      <path id="Path_10324" data-name="Path 10324" d="M345.733,433.523c.062.289.27.482.463.436s.3-.32.243-.61-.27-.486-.463-.44S345.671,433.233,345.733,433.523Z" transform="translate(-212.34 -265.902)" fill="#131f2d"/>
      <path id="Path_10325" data-name="Path 10325" d="M312.75,437.561s3.2,3.472,5.841,2.77c0,0-3.125-2.365.548-5.991C319.139,434.34,314.937,435.223,312.75,437.561Z" transform="translate(-192.092 -266.785)" fill="#131f2d"/>
      <path id="Path_10326" data-name="Path 10326" d="M322.422,441.227a1.157,1.157,0,0,0,1.451-.876,1.265,1.265,0,0,0-.972-1.454,1.177,1.177,0,0,0-1.451.876A1.265,1.265,0,0,0,322.422,441.227Z" transform="translate(-197.424 -269.56)" fill="#ff7955"/>
      <path id="Path_10327" data-name="Path 10327" d="M326.847,434.34s.833,3.626,1.717,4.028,5.339-1.022,7.087-2.666h0a5.037,5.037,0,0,1-1.929,5.961,6.212,6.212,0,0,1-2.083.806h0a4.266,4.266,0,0,1-4.182-.992,15.1,15.1,0,0,1-.7-3.229s-.336-1.64-1.454-2.122A4.673,4.673,0,0,1,326.847,434.34Z" transform="translate(-199.801 -266.785)" fill="#131f2d"/>
      <path id="Path_10328" data-name="Path 10328" d="M337.595,406.169a.849.849,0,0,1-.745-.494l.147-.066a.687.687,0,0,0,.968.312l.066.147A1.135,1.135,0,0,1,337.595,406.169Z" transform="translate(-206.895 -249.139)" fill="#131f2d"/>
      <path id="Path_10329" data-name="Path 10329" d="M340.36,412.883l-.05-.062a11,11,0,0,0,1.416-1.4,3.524,3.524,0,0,0,1.046-2.8c-.139-.536-.336-.845-.61-.949-.421-.154-.949.22-1.416.548l-.216.147-.042-.066.212-.147c.482-.34,1.03-.725,1.489-.555.3.108.517.44.66,1C343.339,410.511,340.484,412.787,340.36,412.883Z" transform="translate(-209.02 -250.332)" fill="#fff"/>
      <path id="Path_10330" data-name="Path 10330" d="M317.969,413.764l-.019-.081a5.814,5.814,0,0,0,4.244-3.333l.077.027A5.952,5.952,0,0,1,317.969,413.764Z" transform="translate(-195.286 -252.05)" fill="#fff"/>
      <path id="Path_10331" data-name="Path 10331" d="M344.8,442.61a10.135,10.135,0,0,1-3.148,1.157,1.543,1.543,0,0,0,2.245.772C344.837,444.08,344.8,442.61,344.8,442.61Z" transform="translate(-209.843 -271.865)" fill="#fff"/>
      <path id="Path_10332" data-name="Path 10332" d="M287.011,620.425h0a1.616,1.616,0,0,0,.2,2.153l5.112,4.452c.606.533,3.3,2.056,3.792,1.4h0c.5-.652-1.157-2.855-1.7-3.472-1.231-1.42-3.129-4.772-4.383-6.173C289.511,618.191,287.505,619.773,287.011,620.425Z" transform="translate(-176.087 -379.993)" fill="#ff7955"/>
      <path id="Path_10333" data-name="Path 10333" d="M273.405,623.07a32.734,32.734,0,0,0-.675,8.515c.062,1.543,9.61,1.7,9.992,0s-1.242-7.145-1.242-7.145Z" transform="translate(-167.485 -382.704)" fill="#ff7955"/>
      <path id="Path_10334" data-name="Path 10334" d="M280.444,631.944s2.384-1.674,3.221,1.439c1.358,5.062.15,17.11-2.481,4.082-.05-.258,1.1,7.944-.606,7.473s-2.423-7.8-2.423-7.8.54,7.824-.934,6.821-2.384-6.1-2.384-6.1,1.03,6.528-.8,5.59c-1.246-.637-1.319-6.068-1.427-7.959-.1-1.782.934-2.431,2.539-2.415,0,0,1.6-.984,2.654-.687.386.112.772-.316,1.053-.386A9.735,9.735,0,0,1,280.444,631.944Z" transform="translate(-167.433 -387.878)" fill="#ff7955"/>
      <path id="Path_10335" data-name="Path 10335" d="M360.068,663.267l-.258-.031c0-.116,1.443-11.632,2.523-15.764s6.092-7.774,6.142-7.812l.151.216c-.046.035-4.977,3.58-6.042,7.662S360.084,663.151,360.068,663.267Z" transform="translate(-220.997 -392.894)" fill="#131f2d"/>
      <path id="Path_10336" data-name="Path 10336" d="M470.782,465.815h0a1.458,1.458,0,0,0,1.566-1.358l.679-7.041c.085-.837-.2-4.1-.972-4.19h0c-.772-.089-1.589,2.612-1.779,3.43-.436,1.883-2.01,5.424-2.411,7.33C467.692,464.793,470.006,465.722,470.782,465.815Z" transform="translate(-287.359 -278.384)" fill="#ff7955"/>
      <path id="Path_10337" data-name="Path 10337" d="M477.086,476.816a27.521,27.521,0,0,0,7-4.035c1.157-.9-3.916-9.595-5.44-9.024s-4.884,5.015-4.884,5.015Z" transform="translate(-290.985 -284.837)" fill="#ff7955"/>
      <path id="Path_10338" data-name="Path 10338" d="M477.646,461.617a2.221,2.221,0,0,1-.637-3.688c3.2-3.985,13.237-9.467,4.529,0-.174.185,5.59-5.32,6.15-3.53s-4.757,6.431-4.757,6.431,5.787-4.757,5.818-2.878-3.445,5.474-3.445,5.474,4.522-4.487,4.792-2.315c.185,1.478-4.008,4.5-5.4,5.629-1.335,1.069-2.4.486-3.264-.972,0,0-1.643-.914-1.983-2.018-.131-.424-.664-.525-.864-.752A10.9,10.9,0,0,1,477.646,461.617Z" transform="translate(-292.53 -278.055)" fill="#ff7955"/>
      <path id="Path_10339" data-name="Path 10339" d="M88.107,804.44s7.677-42.518,8.873-43.765,3.028-.139,2.38,2.214-9.583,40.69-9.957,41.55S87.891,805.621,88.107,804.44Z" transform="translate(-54.099 -466.904)" fill="#e0e0e0"/>
      <path id="Path_10340" data-name="Path 10340" d="M128.814,670.583c.058-7.581-17.361-30.366-26.423-33.205-10.266-3.218-23.429-9.059-27.3,1.5s9.089,43.082,9.089,43.082.718,2.89,3.341,3.214,34.945,1.454,35,0C122.552,684.24,133.381,672.13,128.814,670.583Z" transform="translate(-45.678 -388.705)" fill="#455a64"/>
      <path id="Path_10341" data-name="Path 10341" d="M191.993,598.79s12.06,20.262,28.163,25.023l-2.878,6.983s-20.42-2.99-32.1-24.209Z" transform="translate(-113.738 -367.791)" fill="#ff7955"/>
      <path id="Path_10342" data-name="Path 10342" d="M224.771,861.472s-.089,3.279,1.929,4.325,7.932,2.226,5.6,4.2c-1.339,1.134-7.33,0-9.028-.1s-3.337.6-4.541-.7c-1.319-1.428.409-8.059.409-8.059a6.516,6.516,0,0,0,2.751.953A5.259,5.259,0,0,0,224.771,861.472Z" transform="translate(-134.04 -528.928)" fill="#131f2d"/>
      <path id="Path_10343" data-name="Path 10343" d="M279.009,861.376s-.089,3.279,1.929,4.321,7.936,2.23,5.59,4.2c-1.339,1.13-7.33,0-9.028-.1s-3.337.606-4.541-.694c-1.319-1.431.409-8.059.409-8.059a6.477,6.477,0,0,0,2.751.949A5.116,5.116,0,0,0,279.009,861.376Z" transform="translate(-167.348 -528.866)" fill="#131f2d"/>
      <path id="Path_10344" data-name="Path 10344" d="M198.547,747.084c-1.5-21.481-1.86-35.976-8.175-45.285-6.91-10.193-25.436-17.4-32.577-17.851-11.647-.733-17.137,1.134-17.137,1.134-8.742,19.575,4.95,22.172,15.081,22.708l1.011.062c6.13.417,17.037,2.091,21.165,8.653,3.268,5.2,5.528,12.5,6.493,31.307a6.407,6.407,0,0,0,6.354,6.312C190.773,754.125,199.087,754.808,198.547,747.084Z" transform="translate(-84.679 -419.991)" fill="#303f46"/>
      <path id="Path_10345" data-name="Path 10345" d="M157.043,752.05c.2-21.543.818-32.538-5.189-42.083-3.858-6.134-9.645-10.764-17.241-13.757a61.623,61.623,0,0,0-18.9-3.9c-11.647-.733-16.882-2.245-16.882-2.245C89.4,715.137,123.9,709.8,132.861,720.472c3.912,4.653,8.758,13.5,9.714,32.314a6.4,6.4,0,0,0,6.354,6.312C148.91,759.094,156.969,759.924,157.043,752.05Z" transform="translate(-59.706 -423.85)" fill="#303f46"/>
      <path id="Path_10346" data-name="Path 10346" d="M220.386,745.726c0-.131-.6-12.909-2.585-17.361-2.519-5.648-9.822-11.543-17.361-14.024l.042-.131c7.581,2.488,14.919,8.418,17.45,14.1,2,4.491,2.593,17.3,2.6,17.423Z" transform="translate(-123.111 -438.683)" fill="#020202"/>
      <path id="Path_10347" data-name="Path 10347" d="M103.888,576.018s4.954-9.12,16.381-6.319,16.076,15.359,16.894,45.524c0,0-10.575-.42-38.364,9.5-3.291,1.157-8.1.243-6.427-5.787C95.513,607.715,98.576,585.335,103.888,576.018Z" transform="translate(-56.524 -349.595)" fill="#dc2626"/>
      <path id="Path_10348" data-name="Path 10348" d="M96.6,577.891l9.278,2.546s20.547,6.559,26.3,6.593a9.259,9.259,0,0,0,8.133-4.479,31.121,31.121,0,0,0-14.363-12.477,26.13,26.13,0,0,0-2.87-1,19.95,19.95,0,0,0-5.1-.922C98.571,567.914,96.6,577.891,96.6,577.891Z" transform="translate(-59.332 -348.971)" fill="#dc2626"/>
      <path id="Path_10349" data-name="Path 10349" d="M96.6,590.4c.023,1.034,2.828,1.867,6.261,1.859s6.2-.849,6.173-1.883-2.824-1.867-6.261-1.86S96.581,589.369,96.6,590.4Z" transform="translate(-59.332 -361.483)" fill="#131f2d"/>
      <path id="Path_10350" data-name="Path 10350" d="M140.28,545.313a3.38,3.38,0,0,0,2.508-2.481L144,538.789l.351-1.157,2.064-6.9.147,6.917.089,4.151.027,1.184c0,.968.054,2.2,1,2.558,0,0,1.211,2.222-.216,2.832C145.214,549.314,140.272,545.313,140.28,545.313Z" transform="translate(-86.161 -325.988)" fill="#ff7955"/>
      <path id="Path_10351" data-name="Path 10351" d="M132.41,532.56a8.24,8.24,0,0,1,.505,3.43c-.019,3.53,3.8,3.858,4.456,2.674.081-.15-1.481-5.679-1.481-5.679L134.6,532.6Z" transform="translate(-81.327 -327.112)" fill="#131f2d"/>
      <path id="Path_10352" data-name="Path 10352" d="M149.821,549.334a.956.956,0,0,0,0,.112,4.215,4.215,0,0,0,2.639,3.009h0l-.089-4.151a2.9,2.9,0,0,0-2.211,0A1.011,1.011,0,0,0,149.821,549.334Z" transform="translate(-92.002 -336.645)" fill="#131f2d"/>
      <ellipse id="Ellipse_396" data-name="Ellipse 396" cx="6.045" cy="7.967" rx="6.045" ry="7.967" transform="matrix(0.98, -0.197, 0.197, 0.98, 51.407, 198.84)" fill="#ff7955"/>
      <path id="Path_10353" data-name="Path 10353" d="M140.363,511.4c-.1.282,1.825,3.981-4.765,6.944s-4.757-7.168.231-8.854c7.2-2.442,9.6,2.512,9.386,4.63S140.363,511.4,140.363,511.4Z" transform="translate(-80.668 -312.535)" fill="#131f2d"/>
      <path id="Path_10354" data-name="Path 10354" d="M103.9,509.772s2.92,1.049,1.451,3.283-6.508,4.51-4.367,6.913,4.444,6.219,2.014,7.5-4.1,1.543-4.583,4.051-5.482,2.519-5.787-.208-4.857-3.858-3.762-6.755,4.741-6.234,4.984-9.676S101.566,509,103.9,509.772Z" transform="translate(-54.48 -313.028)" fill="#131f2d"/>
      <path id="Path_10355" data-name="Path 10355" d="M138.807,529.64s-1.983,3.993-.193,6.944c0,0-2.1-1.427-2.315-2.126a30.723,30.723,0,0,1-.44-3.395Z" transform="translate(-83.446 -325.319)" fill="#131f2d"/>
      <path id="Path_10356" data-name="Path 10356" d="M138.773,534.824a1.421,1.421,0,0,0,2.095-.451,1.833,1.833,0,0,0-.91-2.2,1.422,1.422,0,0,0-2.095.451A1.839,1.839,0,0,0,138.773,534.824Z" transform="translate(-84.607 -326.715)" fill="#ff7955"/>
      <path id="Path_10357" data-name="Path 10357" d="M101.246,535l-.131-.162a1.9,1.9,0,0,0,.849-1.246c.046-.637-.49-1.219-1.057-1.84a3.817,3.817,0,0,1-1.208-1.96c-.1-.934.872-1.431,1.813-1.929.721-.386,1.47-.748,1.643-1.3a1.107,1.107,0,0,0-.139-.868c-.212-.386-.44-.772-.66-1.092-1-1.543-1.782-2.755-.1-6.558,2.137-4.8,4.687-5.756,7.13-6.069.293-.039,1.223.116,1.366.625s-.567,1.115-2.1,1.8a7.041,7.041,0,0,0-3.021,4.977c-.258,1.813,1.119,3.248,2.315,4.51,1.127,1.157,2.1,2.184,1.2,3.113a8.488,8.488,0,0,1-1.643,1.238c-1.431.907-2.782,1.759-2.245,4.66l-.2.039c-.559-3.036.849-3.931,2.338-4.873a8.364,8.364,0,0,0,1.6-1.208c.772-.772-.1-1.69-1.2-2.828-1.184-1.234-2.658-2.766-2.388-4.68a7.261,7.261,0,0,1,3.133-5.135c1.952-.872,2.045-1.381,1.995-1.543-.1-.343-.856-.517-1.157-.478-2.376.3-4.869,1.238-6.944,5.949-1.64,3.681-.88,4.853.085,6.339.22.347.451.7.667,1.107a1.316,1.316,0,0,1,.154,1.03c-.2.633-.984,1.034-1.744,1.424-.922.471-1.79.914-1.7,1.709a3.648,3.648,0,0,0,1.157,1.836c.6.656,1.157,1.273,1.111,2A2.043,2.043,0,0,1,101.246,535Z" transform="translate(-61.231 -314.463)" fill="#fff"/>
      <path id="Path_10358" data-name="Path 10358" d="M140.579,521.646l-.069-.22a5.274,5.274,0,0,0,3.206-3.376l.224.062A5.518,5.518,0,0,1,140.579,521.646Z" transform="translate(-86.302 -318.2)" fill="#fff"/>
      <path id="Path_10359" data-name="Path 10359" d="M162.8,531.775c-1.358.12-2.581-1.192-2.724-2.921a3.572,3.572,0,0,1,.671-2.477,2.192,2.192,0,0,1,1.543-.88c1.354-.12,2.577,1.188,2.724,2.92a3.577,3.577,0,0,1-.675,2.477,2.276,2.276,0,0,1-1.157.806,1.905,1.905,0,0,1-.382.073Zm-1.929-5.3a3.4,3.4,0,0,0-.64,2.361c.139,1.647,1.292,2.893,2.569,2.782a2.068,2.068,0,0,0,1.424-.826,3.387,3.387,0,0,0,.64-2.365c-.139-1.643-1.289-2.89-2.566-2.778a1.8,1.8,0,0,0-.355.069,2.129,2.129,0,0,0-1.084.756Z" transform="translate(-98.31 -322.77)" fill="#364154"/>
      <path id="Path_10360" data-name="Path 10360" d="M147.634,533.865c-1.358.12-2.581-1.188-2.724-2.92h0a3.573,3.573,0,0,1,.671-2.477,2.219,2.219,0,0,1,1.524-.88c1.358-.12,2.581,1.192,2.728,2.92a3.569,3.569,0,0,1-.675,2.477,2.276,2.276,0,0,1-1.157.806A1.908,1.908,0,0,1,147.634,533.865Zm-1.929-5.3a3.407,3.407,0,0,0-.64,2.365h0c.139,1.643,1.292,2.89,2.569,2.778a2.041,2.041,0,0,0,1.424-.826,3.4,3.4,0,0,0,.64-2.361c-.139-1.647-1.289-2.893-2.566-2.778a1.546,1.546,0,0,0-.355.066A2.137,2.137,0,0,0,145.7,528.568Z" transform="translate(-88.993 -324.054)" fill="#364154"/>
      <path id="Path_10361" data-name="Path 10361" d="M158.546,534.01a.081.081,0,0,0,.05-.05.085.085,0,0,0-.042-.1,2.874,2.874,0,0,0-2.184.243.081.081,0,0,0-.039.1.073.073,0,0,0,.1.043,2.8,2.8,0,0,1,2.076-.239.054.054,0,0,0,.042,0Z" transform="translate(-96.016 -327.841)" fill="#364154"/>
      <path id="Path_10362" data-name="Path 10362" d="M157.683,543.08a12.149,12.149,0,0,1-4.143.471,2.04,2.04,0,0,0,2.554,1.659C157.367,544.924,157.683,543.08,157.683,543.08Z" transform="translate(-94.305 -333.574)" fill="#e9633e"/>
      <path id="Path_10363" data-name="Path 10363" d="M157.683,543.08a2.662,2.662,0,0,1-1.489.9,4.5,4.5,0,0,1-2.654-.424A18.364,18.364,0,0,0,157.683,543.08Z" transform="translate(-94.305 -333.574)" fill="#fff"/>
      <path id="Path_10364" data-name="Path 10364" d="M151.512,531.888a.147.147,0,0,0,.066-.112.139.139,0,0,0-.12-.162,1.443,1.443,0,0,0-1.6.914.154.154,0,0,0,.054.2.15.15,0,0,0,.189-.062,2.284,2.284,0,0,1,1.331-.772A.127.127,0,0,0,151.512,531.888Z" transform="translate(-92.03 -326.517)" fill="#131f2d"/>
      <path id="Path_10365" data-name="Path 10365" d="M152.466,536.035c.077.343.328.571.556.513s.359-.386.282-.729-.324-.571-.556-.513S152.393,535.691,152.466,536.035Z" transform="translate(-93.633 -328.793)" fill="#131f2d"/>
      <path id="Path_10366" data-name="Path 10366" d="M164,529.865a.131.131,0,0,0,.1-.073.15.15,0,0,0-.058-.185,1.4,1.4,0,0,0-1.809.185.154.154,0,0,0-.019.208c.046.066.123.058.193.023a2.176,2.176,0,0,1,1.5-.158A.135.135,0,0,0,164,529.865Z" transform="translate(-99.61 -325.146)" fill="#131f2d"/>
      <path id="Path_10367" data-name="Path 10367" d="M163.614,533.573c-.05.347.1.66.332.7s.467-.212.517-.559-.1-.664-.336-.7S163.664,533.226,163.614,533.573Z" transform="translate(-100.487 -327.389)" fill="#131f2d"/>
      <path id="Path_10368" data-name="Path 10368" d="M206.4,758.794l-.386-.039c-.3-.031-.513-.556-.49-1.157l2.92-77.545L214,677.09l-6.732,80.168C207.252,758.15,206.843,758.844,206.4,758.794Z" transform="translate(-126.235 -415.883)" fill="#e0e0e0"/>
      <path id="Path_10369" data-name="Path 10369" d="M414.869,758.739l.386-.039c.293-.031.513-.556.49-1.157L412.825,680l-5.575-3,6.732,80.168C414.032,758.094,414.422,758.789,414.869,758.739Z" transform="translate(-250.135 -415.828)" fill="#e0e0e0"/>
      <ellipse id="Ellipse_397" data-name="Ellipse 397" cx="50.481" cy="7.033" rx="50.481" ry="7.033" transform="translate(69.694 260.778)" fill="#825958"/>
      <rect id="Rectangle_3069" data-name="Rectangle 3069" width="100.959" height="3.245" transform="translate(69.694 264.567)" fill="#b8c1c9"/>
      <ellipse id="Ellipse_398" data-name="Ellipse 398" cx="50.481" cy="7.033" rx="50.481" ry="7.033" transform="translate(69.694 257.534)" fill="#ae7461"/>
      <path id="Path_10370" data-name="Path 10370" d="M404.864,695.087a.193.193,0,0,1-.023-.386,65.528,65.528,0,0,0,10.031-2.068.185.185,0,0,1,.112.351,66.423,66.423,0,0,1-10.1,2.083Z" transform="translate(-248.543 -425.428)" fill="#131f2d"/>
      <path id="Path_10371" data-name="Path 10371" d="M191.695,692.542h-.039a39.239,39.239,0,0,1-6.863-2.1.186.186,0,0,1,.174-.328,39.706,39.706,0,0,0,6.771,2.064.194.194,0,0,1-.042.386Z" transform="translate(-113.44 -423.87)" fill="#131f2d"/>
      <path id="Path_10372" data-name="Path 10372" d="M196.132,663.943s6.065-2.457,8.071-1.57,3.951,3.661,2.6,3.4a13.577,13.577,0,0,1-2.994-1.123s3.43,2.006,2.647,2.666-3.75-1.115-3.75-1.115,3.9,2.735,2.978,3.086-3.881-1.732-3.881-1.732,3.538,2.7,2.454,3.086-2.913-2.253-3.7-1.593-2.7,3.6-4.687,1.485Z" transform="translate(-120.304 -406.725)" fill="#ff7955"/>
      <path id="Path_10373" data-name="Path 10373" d="M112.312,620.089c6.875,6.485,13.63,7.743,24.629,6.281l.262-6.613c-8.009,1.065-13.6-3.53-18.213-7.878-6.559-6.173-8.488-15.764-9.028-20.1a1.1,1.1,0,0,0-.671-.9c-1.2-.475-4.182-1.25-8.692.162a.976.976,0,0,0-.652.984C100.29,600.271,103.662,611.922,112.312,620.089Z" transform="translate(-61.387 -362.54)" fill="#ff7955"/>
      <g id="Group_2849" data-name="Group 2849" transform="translate(49.773 250.797)" opacity="0.3">
        <path id="Path_10374" data-name="Path 10374" d="M131.532,654.53H131.4a2.584,2.584,0,0,1-1.721-1.03h0a2.337,2.337,0,0,1-.181-3.04,1.362,1.362,0,0,1,1.065-.343,2.546,2.546,0,0,1,1.721,1.03,2.332,2.332,0,0,1,.181,3.04,1.35,1.35,0,0,1-.93.343Zm-1.107-4.035a.96.96,0,0,0-.664.247,1.953,1.953,0,0,0,.224,2.508h0a2.18,2.18,0,0,0,1.443.883,1.007,1.007,0,0,0,.772-.243,1.954,1.954,0,0,0-.228-2.508,2.18,2.18,0,0,0-1.443-.883Z" transform="translate(-129.014 -650.108)" fill="#ec865c"/>
      </g>
      <path id="Path_10375" data-name="Path 10375" d="M225.469,661.566h20.605a1.007,1.007,0,0,0,.949-.733l4.267-13.765a1.061,1.061,0,0,0-.953-1.408h-19.8a2.11,2.11,0,0,0-1.987,1.543l-4.032,12.963a1.061,1.061,0,0,0,.949,1.4Z" transform="translate(-137.867 -396.579)" fill="#263238"/>
      <path id="Path_10376" data-name="Path 10376" d="M228.839,661.566h20.605a1,1,0,0,0,.949-.733l4.282-13.765a1.061,1.061,0,0,0-.949-1.408H233.913a2.114,2.114,0,0,0-1.991,1.543l-4.016,12.955a1.061,1.061,0,0,0,.934,1.408Z" transform="translate(-139.944 -396.579)" fill="#263238"/>
      <path id="Path_10377" data-name="Path 10377" d="M264.13,663.937c0-.525-.559-.737-1.049-.737a1.451,1.451,0,0,0-1.281,1.308c0,.772.579.891,1.069.891A1.69,1.69,0,0,0,264.13,663.937Z" transform="translate(-160.799 -407.352)" fill="#daebe8"/>
      <path id="Path_10378" data-name="Path 10378" d="M208.961,681.85h28.094v1.929H208.336a.656.656,0,0,1-.656-.652h0A1.292,1.292,0,0,1,208.961,681.85Z" transform="translate(-127.558 -418.807)" fill="#263238"/>
      <path id="Path_10379" data-name="Path 10379" d="M234.015,652.511l-.135-.031a39.393,39.393,0,0,1,1.686-5.424,3,3,0,0,1,1.543-1.566l.039.131a2.886,2.886,0,0,0-1.447,1.5A41.71,41.71,0,0,0,234.015,652.511Z" transform="translate(-143.65 -396.474)" fill="#455a64"/>
      <path id="Path_10380" data-name="Path 10380" d="M226.33,673.094v-.139c.671,0,.837-.3.841-.3l1.6-5.154.131.042-1.6,5.166C227.287,672.743,227.094,673.094,226.33,673.094Z" transform="translate(-139.013 -409.993)" fill="#455a64"/>
      <g id="Group_2850" data-name="Group 2850" transform="translate(364.257)" opacity="0.4">
        <path id="Path_10381" data-name="Path 10381" d="M1011.2,10.049a19.245,19.245,0,0,0-19.29-9.9c-13.827,1.42-12.18,12.758-18.761,11.693s-15.818,0-17.777,7.091-10.864,3.187-11.188,9.213,10.2,10.278,22.376,4.961,18.105,4.132,35.223,2.419,19.24-3.835,29.371-2.774,9.892-6.4,5.282-11.366S1013.163,16.89,1011.2,10.049Z" transform="translate(-944.171 -0.031)" fill="#eaeaea"/>
      </g>
      <path id="Path_10382" data-name="Path 10382" d="M127.57,184.592a11.682,11.682,0,0,1,11.713-6.007c8.395.86,7.392,7.747,11.393,7.1s9.591,0,10.8,4.305,6.6,1.929,6.8,5.594-6.207,6.254-13.6,3.013-11,2.508-21.388,1.47-11.678-2.315-17.831-1.686-6.007-3.873-3.206-6.9S126.37,188.751,127.57,184.592Z" transform="translate(-67.803 -109.644)" fill="#eaeaea"/>
      <path id="Path_10383" data-name="Path 10383" d="M1176.106,121.935a11.3,11.3,0,0,0-11.323-5.787c-8.1.829-7.149,7.488-11.014,6.863s-9.259,0-10.417,4.163-6.377,1.871-6.558,5.4,5.987,6.03,13.117,2.913,10.629,2.423,20.679,1.42,11.292-2.253,17.237-1.628,5.81-3.762,3.086-6.674S1177.268,125.959,1176.106,121.935Z" transform="translate(-698.221 -71.296)" fill="#eaeaea"/>
      <path id="Path_10384" data-name="Path 10384" d="M461.7,9.825a12.345,12.345,0,0,0-12.369-6.346c-8.873.907-7.812,8.179-12.033,7.5s-10.131,0-11.4,4.545-6.964,2.045-7.176,5.91,6.559,6.589,14.355,3.179,11.609,2.65,22.588,1.543,12.345-2.461,18.835-1.782,6.342-4.1,3.387-7.288S462.969,14.219,461.7,9.825Z" transform="translate(-257.178 -2.09)" fill="#eaeaea"/>
    </g>
  </g>
</svg>
